<?xml version="1.0" encoding="UTF-8"?>
<!--Generator: Apple Native CoreSVG 175.5-->
<!DOCTYPE svg
PUBLIC "-//W3C//DTD SVG 1.1//EN"
       "http://www.w3.org/Graphics/SVG/1.1/DTD/svg11.dtd">
<svg version="1.1" xmlns="http://www.w3.org/2000/svg" xmlns:xlink="http://www.w3.org/1999/xlink" width="3300" height="2200">
 <!--glyph: "", point size: 100.0, font version: "18.0d12e2", template writer version: "101"-->
 <g id="Notes">
  <rect height="2200" id="artboard" style="fill:white;opacity:1" width="3300" x="0" y="0"/>
  <line style="fill:none;stroke:black;opacity:1;stroke-width:0.5;" x1="263" x2="3036" y1="292" y2="292"/>
  <text style="stroke:none;fill:black;font-family:sans-serif;font-size:13;font-weight:bold;" transform="matrix(1 0 0 1 263 322)">Weight/Scale Variations</text>
  <text style="stroke:none;fill:black;font-family:sans-serif;font-size:13;text-anchor:middle;" transform="matrix(1 0 0 1 559.711 322)">Ultralight</text>
  <text style="stroke:none;fill:black;font-family:sans-serif;font-size:13;text-anchor:middle;" transform="matrix(1 0 0 1 856.422 322)">Thin</text>
  <text style="stroke:none;fill:black;font-family:sans-serif;font-size:13;text-anchor:middle;" transform="matrix(1 0 0 1 1153.13 322)">Light</text>
  <text style="stroke:none;fill:black;font-family:sans-serif;font-size:13;text-anchor:middle;" transform="matrix(1 0 0 1 1449.84 322)">Regular</text>
  <text style="stroke:none;fill:black;font-family:sans-serif;font-size:13;text-anchor:middle;" transform="matrix(1 0 0 1 1746.56 322)">Medium</text>
  <text style="stroke:none;fill:black;font-family:sans-serif;font-size:13;text-anchor:middle;" transform="matrix(1 0 0 1 2043.27 322)">Semibold</text>
  <text style="stroke:none;fill:black;font-family:sans-serif;font-size:13;text-anchor:middle;" transform="matrix(1 0 0 1 2339.98 322)">Bold</text>
  <text style="stroke:none;fill:black;font-family:sans-serif;font-size:13;text-anchor:middle;" transform="matrix(1 0 0 1 2636.69 322)">Heavy</text>
  <text style="stroke:none;fill:black;font-family:sans-serif;font-size:13;text-anchor:middle;" transform="matrix(1 0 0 1 2933.4 322)">Black</text>
  <line style="fill:none;stroke:black;opacity:1;stroke-width:0.5;" x1="263" x2="3036" y1="1903" y2="1903"/>
  <g transform="matrix(1 0 0 1 263 1933)">
   <path d="M9.24805 0.830078C13.5547 0.830078 17.1387-2.74414 17.1387-7.05078C17.1387-11.3574 13.5449-14.9316 9.23828-14.9316C4.94141-14.9316 1.36719-11.3574 1.36719-7.05078C1.36719-2.74414 4.95117 0.830078 9.24805 0.830078ZM9.24805-0.654297C5.70312-0.654297 2.87109-3.49609 2.87109-7.05078C2.87109-10.6055 5.69336-13.4473 9.23828-13.4473C12.793-13.4473 15.6445-10.6055 15.6445-7.05078C15.6445-3.49609 12.8027-0.654297 9.24805-0.654297ZM5.6543-7.05078C5.6543-6.62109 5.95703-6.32812 6.40625-6.32812L8.50586-6.32812L8.50586-4.20898C8.50586-3.76953 8.79883-3.4668 9.22852-3.4668C9.67773-3.4668 9.9707-3.76953 9.9707-4.20898L9.9707-6.32812L12.0898-6.32812C12.5293-6.32812 12.832-6.62109 12.832-7.05078C12.832-7.49023 12.5293-7.79297 12.0898-7.79297L9.9707-7.79297L9.9707-9.90234C9.9707-10.3516 9.67773-10.6543 9.22852-10.6543C8.79883-10.6543 8.50586-10.3516 8.50586-9.90234L8.50586-7.79297L6.40625-7.79297C5.95703-7.79297 5.6543-7.49023 5.6543-7.05078Z"/>
  </g>
  <g transform="matrix(1 0 0 1 281.867 1933)">
   <path d="M11.709 2.91016C17.1582 2.91016 21.6699-1.61133 21.6699-7.05078C21.6699-12.5 17.1484-17.0117 11.6992-17.0117C6.25977-17.0117 1.74805-12.5 1.74805-7.05078C1.74805-1.61133 6.26953 2.91016 11.709 2.91016ZM11.709 1.25C7.09961 1.25 3.41797-2.44141 3.41797-7.05078C3.41797-11.6602 7.08984-15.3516 11.6992-15.3516C16.3086-15.3516 20.0098-11.6602 20.0098-7.05078C20.0098-2.44141 16.3184 1.25 11.709 1.25ZM7.17773-7.05078C7.17773-6.57227 7.50977-6.25 8.00781-6.25L10.8789-6.25L10.8789-3.36914C10.8789-2.88086 11.2109-2.53906 11.6895-2.53906C12.1777-2.53906 12.5195-2.87109 12.5195-3.36914L12.5195-6.25L15.4004-6.25C15.8887-6.25 16.2305-6.57227 16.2305-7.05078C16.2305-7.53906 15.8887-7.88086 15.4004-7.88086L12.5195-7.88086L12.5195-10.752C12.5195-11.25 12.1777-11.5918 11.6895-11.5918C11.2109-11.5918 10.8789-11.25 10.8789-10.752L10.8789-7.88086L8.00781-7.88086C7.50977-7.88086 7.17773-7.53906 7.17773-7.05078Z"/>
  </g>
  <g transform="matrix(1 0 0 1 305.646 1933)">
   <path d="M14.9707 5.66406C21.9336 5.66406 27.6953-0.0976562 27.6953-7.05078C27.6953-14.0137 21.9238-19.7754 14.9609-19.7754C8.00781-19.7754 2.25586-14.0137 2.25586-7.05078C2.25586-0.0976562 8.01758 5.66406 14.9707 5.66406ZM14.9707 3.84766C8.93555 3.84766 4.08203-1.01562 4.08203-7.05078C4.08203-13.0957 8.92578-17.9492 14.9609-17.9492C21.0059-17.9492 25.8691-13.0957 25.8691-7.05078C25.8691-1.01562 21.0156 3.84766 14.9707 3.84766ZM9.19922-7.05078C9.19922-6.5332 9.57031-6.17188 10.1172-6.17188L14.0625-6.17188L14.0625-2.2168C14.0625-1.67969 14.4336-1.29883 14.9512-1.29883C15.4883-1.29883 15.8594-1.66992 15.8594-2.2168L15.8594-6.17188L19.8145-6.17188C20.3516-6.17188 20.7324-6.5332 20.7324-7.05078C20.7324-7.59766 20.3613-7.96875 19.8145-7.96875L15.8594-7.96875L15.8594-11.9141C15.8594-12.4609 15.4883-12.8418 14.9512-12.8418C14.4336-12.8418 14.0625-12.4609 14.0625-11.9141L14.0625-7.96875L10.1172-7.96875C9.57031-7.96875 9.19922-7.59766 9.19922-7.05078Z"/>
  </g>
  <text style="stroke:none;fill:black;font-family:sans-serif;font-size:13;font-weight:bold;" transform="matrix(1 0 0 1 263 1953)">Design Variations</text>
  <text style="stroke:none;fill:black;font-family:sans-serif;font-size:13;" transform="matrix(1 0 0 1 263 1971)">Symbols are supported in up to nine weights and three scales.</text>
  <text style="stroke:none;fill:black;font-family:sans-serif;font-size:13;" transform="matrix(1 0 0 1 263 1989)">For optimal layout with text and other symbols, vertically align</text>
  <text style="stroke:none;fill:black;font-family:sans-serif;font-size:13;" transform="matrix(1 0 0 1 263 2007)">symbols with the adjacent text.</text>
  <line style="fill:none;stroke:#00AEEF;stroke-width:0.5;opacity:1.0;" x1="776" x2="776" y1="1919" y2="1933"/>
  <g transform="matrix(1 0 0 1 776 1933)">
   <path d="M3.31055 0.15625C3.82812 0.15625 4.08203-0.0390625 4.26758-0.585938L5.52734-4.0332L11.2891-4.0332L12.5488-0.585938C12.7344-0.0390625 12.9883 0.15625 13.4961 0.15625C14.0137 0.15625 14.3457-0.15625 14.3457-0.644531C14.3457-0.810547 14.3164-0.966797 14.2383-1.17188L9.6582-13.3691C9.43359-13.9648 9.0332-14.2676 8.4082-14.2676C7.80273-14.2676 7.39258-13.9746 7.17773-13.3789L2.59766-1.16211C2.51953-0.957031 2.49023-0.800781 2.49023-0.634766C2.49023-0.146484 2.80273 0.15625 3.31055 0.15625ZM6.00586-5.51758L8.37891-12.0898L8.42773-12.0898L10.8008-5.51758Z"/>
  </g>
  <line style="fill:none;stroke:#00AEEF;stroke-width:0.5;opacity:1.0;" x1="793.197" x2="793.197" y1="1919" y2="1933"/>
  <text style="stroke:none;fill:black;font-family:sans-serif;font-size:13;font-weight:bold;" transform="matrix(1 0 0 1 776 1953)">Margins</text>
  <text style="stroke:none;fill:black;font-family:sans-serif;font-size:13;" transform="matrix(1 0 0 1 776 1971)">Leading and trailing margins on the left and right side of each symbol</text>
  <text style="stroke:none;fill:black;font-family:sans-serif;font-size:13;" transform="matrix(1 0 0 1 776 1989)">can be adjusted by modifying the x-location of the margin guidelines.</text>
  <text style="stroke:none;fill:black;font-family:sans-serif;font-size:13;" transform="matrix(1 0 0 1 776 2007)">Modifications are automatically applied proportionally to all</text>
  <text style="stroke:none;fill:black;font-family:sans-serif;font-size:13;" transform="matrix(1 0 0 1 776 2025)">scales and weights.</text>
  <g transform="matrix(1 0 0 1 1289 1933)">
   <path d="M2.8418 1.86523L4.54102 3.57422C5.40039 4.44336 6.38672 4.38477 7.31445 3.35938L18.0078-8.42773L17.041-9.4043L6.42578 2.27539C6.07422 2.67578 5.74219 2.77344 5.27344 2.30469L4.10156 1.14258C3.63281 0.683594 3.74023 0.341797 4.14062-0.0195312L15.6152-10.8203L14.6387-11.7871L3.04688-0.898438C2.06055 0.0195312 1.98242 0.996094 2.8418 1.86523ZM9.25781-16.3281C8.83789-15.918 8.80859-15.3418 9.04297-14.9512C9.27734-14.5898 9.73633-14.3555 10.3809-14.5215C11.8457-14.8633 13.3691-14.9219 14.7949-13.9844L14.209-12.5293C13.8672-11.6992 14.043-11.1133 14.5801-10.5664L16.875-8.25195C17.3633-7.76367 17.7734-7.74414 18.3398-7.8418L19.4043-8.03711L20.0684-7.36328L20.0293-6.80664C19.9902-6.30859 20.1172-5.92773 20.6055-5.44922L21.3672-4.70703C21.8457-4.22852 22.4609-4.19922 22.9297-4.66797L25.8398-7.58789C26.3086-8.05664 26.2891-8.65234 25.8105-9.13086L25.0391-9.89258C24.5605-10.3711 24.1895-10.5273 23.7109-10.4883L23.1348-10.4395L22.4902-11.0742L22.7344-12.1973C22.8613-12.7637 22.7051-13.2031 22.1191-13.7891L19.9219-15.9766C16.582-19.2969 12.1484-19.2188 9.25781-16.3281ZM10.752-15.957C13.1836-17.7344 16.4746-17.4316 18.7012-15.2051L21.1328-12.793C21.3672-12.5586 21.4062-12.373 21.3379-12.0312L21.0156-10.5469L22.5195-9.0625L23.5059-9.12109C23.7598-9.13086 23.8379-9.11133 24.0332-8.91602L24.6094-8.33984L22.168-5.89844L21.5918-6.47461C21.3965-6.66992 21.3672-6.74805 21.377-7.01172L21.4453-7.98828L19.9512-9.47266L18.4277-9.21875C18.1055-9.15039 17.959-9.17969 17.7148-9.41406L15.7129-11.416C15.459-11.6504 15.4297-11.8164 15.5859-12.1875L16.4648-14.2773C14.9023-15.7324 12.8711-16.3574 10.8398-15.7617C10.6836-15.7227 10.625-15.8496 10.752-15.957Z"/>
  </g>
  <text style="stroke:none;fill:black;font-family:sans-serif;font-size:13;font-weight:bold;" transform="matrix(1 0 0 1 1289 1953)">Exporting</text>
  <text style="stroke:none;fill:black;font-family:sans-serif;font-size:13;" transform="matrix(1 0 0 1 1289 1971)">Symbols should be outlined when exporting to ensure the</text>
  <text style="stroke:none;fill:black;font-family:sans-serif;font-size:13;" transform="matrix(1 0 0 1 1289 1989)">design is preserved when submitting to Xcode.</text>
  <text id="template-version" style="stroke:none;fill:black;font-family:sans-serif;font-size:13;text-anchor:end;" transform="matrix(1 0 0 1 3036 1933)">Template v.4.0</text>
  <text style="stroke:none;fill:black;font-family:sans-serif;font-size:13;text-anchor:end;" transform="matrix(1 0 0 1 3036 1951)">Requires Xcode 14 or greater</text>
  <text id="descriptive-name" style="stroke:none;fill:black;font-family:sans-serif;font-size:13;text-anchor:end;" transform="matrix(1 0 0 1 3036 1969)">Generated from brave.zzz</text>
  <text style="stroke:none;fill:black;font-family:sans-serif;font-size:13;text-anchor:end;" transform="matrix(1 0 0 1 3036 1987)">Typeset at 100 points</text>
  <text style="stroke:none;fill:black;font-family:sans-serif;font-size:13;" transform="matrix(1 0 0 1 263 726)">Small</text>
  <text style="stroke:none;fill:black;font-family:sans-serif;font-size:13;" transform="matrix(1 0 0 1 263 1156)">Medium</text>
  <text style="stroke:none;fill:black;font-family:sans-serif;font-size:13;" transform="matrix(1 0 0 1 263 1586)">Large</text>
 </g>
 <g id="Guides">
  <g id="H-reference" style="fill:#27AAE1;stroke:none;" transform="matrix(1 0 0 1 339 696)">
   <path d="M0.993654 0L3.63775 0L29.3281-67.1323L30.0303-67.1323L30.0303-70.459L28.1226-70.459ZM11.6885-24.4799L46.9815-24.4799L46.2315-26.7285L12.4385-26.7285ZM55.1196 0L57.7637 0L30.6382-70.459L29.4326-70.459L29.4326-67.1323Z"/>
  </g>
  <line id="Baseline-S" style="fill:none;stroke:#27AAE1;opacity:1;stroke-width:0.5;" x1="263" x2="3036" y1="696" y2="696"/>
  <line id="Capline-S" style="fill:none;stroke:#27AAE1;opacity:1;stroke-width:0.5;" x1="263" x2="3036" y1="625.541" y2="625.541"/>
  <g id="H-reference" style="fill:#27AAE1;stroke:none;" transform="matrix(1 0 0 1 339 1126)">
   <path d="M0.993654 0L3.63775 0L29.3281-67.1323L30.0303-67.1323L30.0303-70.459L28.1226-70.459ZM11.6885-24.4799L46.9815-24.4799L46.2315-26.7285L12.4385-26.7285ZM55.1196 0L57.7637 0L30.6382-70.459L29.4326-70.459L29.4326-67.1323Z"/>
  </g>
  <line id="Baseline-M" style="fill:none;stroke:#27AAE1;opacity:1;stroke-width:0.5;" x1="263" x2="3036" y1="1126" y2="1126"/>
  <line id="Capline-M" style="fill:none;stroke:#27AAE1;opacity:1;stroke-width:0.5;" x1="263" x2="3036" y1="1055.54" y2="1055.54"/>
  <g id="H-reference" style="fill:#27AAE1;stroke:none;" transform="matrix(1 0 0 1 339 1556)">
   <path d="M0.993654 0L3.63775 0L29.3281-67.1323L30.0303-67.1323L30.0303-70.459L28.1226-70.459ZM11.6885-24.4799L46.9815-24.4799L46.2315-26.7285L12.4385-26.7285ZM55.1196 0L57.7637 0L30.6382-70.459L29.4326-70.459L29.4326-67.1323Z"/>
  </g>
  <line id="Baseline-L" style="fill:none;stroke:#27AAE1;opacity:1;stroke-width:0.5;" x1="263" x2="3036" y1="1556" y2="1556"/>
  <line id="Capline-L" style="fill:none;stroke:#27AAE1;opacity:1;stroke-width:0.5;" x1="263" x2="3036" y1="1485.54" y2="1485.54"/>
  <line id="left-margin-Regular-M" style="fill:none;stroke:#00AEEF;stroke-width:0.5;opacity:1.0;" x1="1389.82" x2="1389.82" y1="1030.79" y2="1150.12"/>
  <line id="right-margin-Regular-M" style="fill:none;stroke:#00AEEF;stroke-width:0.5;opacity:1.0;" x1="1509.87" x2="1509.87" y1="1030.79" y2="1150.12"/>
 </g>
 <g id="Symbols">
  <g id="Regular-L" transform="matrix(6.45 0 0 6.45 1372.2675 1443)">
    <defs><clipPath id="clip-1"><rect x="0" y="0" width="24" height="24" fill="none" fill-rule="nonzero"></rect></clipPath></defs>
<g clip-path="url(#clip-1)" fill="none" fill-rule="none" stroke="none" stroke-width="1" stroke-linecap="butt" stroke-linejoin="miter" stroke-miterlimit="10" stroke-dasharray="" stroke-dashoffset="0" font-family="none" font-weight="none" font-size="none" text-anchor="none" style="mix-blend-mode: normal"><path d="M19.538,12.598c-0.08106,-0.01496 -0.15273,-0.06178 -0.199,-0.13l-0.003,-0.005l-0.098,-0.12c-0.058,-0.07 -0.12,-0.143 -0.184,-0.23l-0.02,-0.023l-0.03,-0.033c-0.02487,-0.02337 -0.04611,-0.05034 -0.063,-0.08c-0.04474,-0.07768 -0.09008,-0.15501 -0.136,-0.232l-0.135,-0.23c-0.03388,-0.06412 -0.05558,-0.13397 -0.064,-0.206v-0.001l-0.009,-0.052l-0.007,-0.036c-0.00972,-0.06051 -0.01839,-0.12119 -0.026,-0.182l-0.005,-0.04c-0.01549,-0.10723 -0.05075,-0.21065 -0.104,-0.305l-0.158,-0.286l-0.062,-0.123c-0.0846,-0.17037 -0.21654,-0.31272 -0.38,-0.41c-0.03727,-0.02211 -0.0746,-0.04411 -0.112,-0.066l-0.045,-0.033c-0.08705,-0.05225 -0.15451,-0.13165 -0.192,-0.226c-0.068,-0.17 -0.136,-0.328 -0.215,-0.509l-0.056,-0.124c-0.01247,-0.02939 -0.02581,-0.0584 -0.04,-0.087c-0.04895,-0.11168 -0.12874,-0.20707 -0.23,-0.275l-0.227,-0.146c-0.11444,-0.07791 -0.18871,-0.2023 -0.203,-0.34l-0.026,-0.282c-0.01053,-0.14765 -0.06445,-0.2889 -0.155,-0.406l-0.055,-0.068c-0.03115,-0.03797 -0.06525,-0.07342 -0.102,-0.106l-0.137,-0.12c-0.0649,-0.05564 -0.12891,-0.11231 -0.192,-0.17c-0.05676,-0.0432 -0.09982,-0.10189 -0.124,-0.169l-0.068,-0.18l-0.028,-0.065c-0.03451,-0.08159 -0.09544,-0.14921 -0.173,-0.192l-0.262,-0.14c-0.12644,-0.06519 -0.2144,-0.18655 -0.237,-0.327l-0.037,-0.234c-0.01941,-0.12373 -0.09265,-0.23249 -0.2,-0.297l-0.148,-0.079c-0.10459,-0.06338 -0.18111,-0.16421 -0.214,-0.282l-0.023,-0.085c-0.04691,-0.1836 -0.17833,-0.33395 -0.354,-0.405c-0.02537,-0.0099 -0.05071,-0.0199 -0.076,-0.03c-0.07811,-0.02054 -0.14624,-0.06845 -0.192,-0.135l-0.113,-0.147c-0.068,-0.09 -0.136,-0.18 -0.215,-0.271c-0.03303,-0.04904 -0.05959,-0.10215 -0.079,-0.158l-0.013,-0.045c-0.0713,-0.23944 -0.23258,-0.44194 -0.45,-0.565c-0.07816,-0.03906 -0.14138,-0.10263 -0.18,-0.181l-0.272,-0.52c-0.04222,-0.09025 -0.08826,-0.17867 -0.138,-0.265l-0.054,-0.096c-0.02948,-0.05994 -0.06944,-0.11413 -0.118,-0.16l-0.034,-0.032c-0.037,-0.034 -0.074,-0.068 -0.108,-0.102l-0.18,-0.18c-0.029,-0.035 -0.06,-0.069 -0.09,-0.102c-0.03115,-0.03326 -0.06149,-0.06727 -0.091,-0.102l-0.113,-0.124c-0.11906,-0.13225 -0.14833,-0.32253 -0.07453,-0.48445c0.0738,-0.16192 0.23661,-0.26465 0.41453,-0.26155c0.1239,0.00493 0.24108,0.0576 0.327,0.147l0.102,0.102l0.148,0.166c0.02935,0.03201 0.06075,0.06207 0.094,0.09l0.097,0.082c0.063,0.053 0.135,0.115 0.199,0.186c0.01,0.011 0.024,0.018 0.04,0.018c0.006,0 0.013,0.001 0.019,0.004l0.397,0.165c0.01264,0.00645 0.02499,0.01345 0.037,0.021l0.01,0.007l0.03,0.018l0.093,0.056l0.18,0.113c0.06,0.037 0.119,0.073 0.181,0.113c0.03824,0.02789 0.07343,0.05973 0.105,0.095l0.358,0.39l0.341,0.332l0.029,0.027c0.03654,0.03131 0.06882,0.06729 0.096,0.107l0.005,0.008c0.01,0.016 0.019,0.032 0.027,0.049c0.034,0.073 0.072,0.148 0.111,0.224l0.07,0.135c0.029,0.052 0.07,0.097 0.116,0.134l0.058,0.046c0.043,0.034 0.085,0.068 0.13,0.102l0.041,0.029c0.048,0.033 0.094,0.07 0.13,0.115l0.055,0.07l0.217,0.372c0.01336,0.02319 0.03182,0.04302 0.054,0.058c0.062,0.034 0.124,0.07 0.187,0.107c0.062,0.037 0.124,0.074 0.186,0.108c0.06472,0.04319 0.12042,0.09855 0.164,0.163l0.288,0.402l0.373,0.429c0.00834,0.0084 0.01603,0.01743 0.023,0.027c0.02,0.028 0.034,0.06 0.048,0.09l0.016,0.037c0.046,0.095 0.093,0.196 0.139,0.298l0.035,0.076c0.02144,0.04689 0.04652,0.09203 0.075,0.135l0.087,0.133l0.064,0.098c0.04397,0.06651 0.09679,0.12673 0.157,0.179c0.101,0.079 0.203,0.17 0.305,0.26c0.07619,0.06805 0.12755,0.15953 0.146,0.26l0.031,0.162c0.0386,0.20261 0.1409,0.3876 0.292,0.528l0.043,0.04c0.04097,0.03849 0.07753,0.08142 0.109,0.128l0.067,0.104c0.05641,0.08385 0.10945,0.16992 0.159,0.258c0.03,0.052 0.068,0.1 0.112,0.14l0.13,0.125l0.198,0.187c0.046,0.045 0.08,0.101 0.102,0.158l0.068,0.17c0.02,0.055 0.043,0.112 0.067,0.171c0.03,0.072 0.06,0.148 0.09,0.235l0.122,0.429c0.01713,0.06034 0.0399,0.11893 0.068,0.175l0.184,0.367l0.203,0.373l0.01,0.024c0.024,0.052 0.051,0.101 0.083,0.148l0.064,0.095c0.077,0.114 0.159,0.232 0.25,0.377l0.056,0.113c0.08,0.135 0.147,0.271 0.192,0.373l0.102,0.17c0.034,0.056 0.068,0.115 0.102,0.174c0.034,0.06 0.067,0.119 0.101,0.175c0.0227,0.04099 0.04017,0.08466 0.052,0.13l0.008,0.027c0.00534,0.01613 0.00804,0.03301 0.008,0.05v0.098l0.013,0.122l0.006,0.053c0.016,0.138 0.042,0.369 -0.094,0.342c-0.00869,-0.0019 -0.01709,-0.00492 -0.025,-0.009c-0.45723,-0.23296 -0.94504,-0.40027 -1.449,-0.497zM15.507,13.388c-0.409,0.266 -1.011,0.12 -1.356,-0.224c-0.07074,-0.08135 -0.12113,-0.17835 -0.147,-0.283c-0.028,-0.151 -0.064,-0.293 -0.102,-0.441l-0.022,-0.09l-0.057,-0.214c-0.011,-0.04 -0.023,-0.082 -0.033,-0.125c-0.02234,-0.08151 -0.0658,-0.15568 -0.126,-0.215l-0.293,-0.293c-0.08787,-0.09082 -0.13638,-0.21263 -0.135,-0.339l0.013,-0.315c0.006,-0.149 -0.021,-0.299 -0.095,-0.429l-0.02,-0.035l-0.054,-0.095c-0.024,-0.042 -0.051,-0.083 -0.081,-0.121l-0.136,-0.175c-0.06,-0.075 -0.119,-0.152 -0.18,-0.23c-0.04002,-0.04937 -0.06747,-0.1077 -0.08,-0.17l-0.034,-0.124l-0.017,-0.086c-0.035,-0.167 -0.132,-0.311 -0.265,-0.417c-0.068,-0.054 -0.136,-0.107 -0.203,-0.164c-0.08114,-0.06683 -0.13864,-0.15799 -0.164,-0.26c-0.014,-0.052 -0.017,-0.106 -0.017,-0.16v-0.148c0.00278,-0.16354 -0.06763,-0.31977 -0.192,-0.426l-0.147,-0.124c-0.0833,-0.07213 -0.13589,-0.17337 -0.147,-0.283l-0.031,-0.203c-0.024,-0.151 -0.109,-0.286 -0.234,-0.373c-0.065,-0.045 -0.13,-0.09 -0.198,-0.135c-0.067,-0.034 -0.113,-0.091 -0.147,-0.148l-0.305,-0.53c-0.03038,-0.05433 -0.05102,-0.11356 -0.061,-0.175l-0.05,-0.307c-0.016,-0.097 -0.066,-0.186 -0.143,-0.247c-0.039,-0.031 -0.079,-0.062 -0.119,-0.096l-0.135,-0.113c-0.056,-0.056 -0.113,-0.124 -0.136,-0.203c-0.068,-0.192 -0.135,-0.384 -0.214,-0.588c-0.02684,-0.05696 -0.06114,-0.11009 -0.102,-0.158c-0.079,-0.101 -0.17,-0.226 -0.226,-0.361l-0.226,-0.509c-0.056,-0.102 -0.113,-0.192 -0.169,-0.282l-0.079,-0.124c-0.12899,-0.21247 -0.06406,-0.48911 0.146,-0.622c0.21009,-0.12976 0.48523,-0.0696 0.622,0.136l0.068,0.113c0.02834,0.05 0.05836,0.09903 0.09,0.147l0.034,0.053c0.03823,0.06202 0.08137,0.12087 0.129,0.176l0.222,0.25c0.03706,0.04164 0.07753,0.08011 0.121,0.115l0.398,0.32l0.462,0.43c0.03632,0.03769 0.06881,0.0789 0.097,0.123l0.073,0.114c0.03008,0.04672 0.06075,0.09306 0.092,0.139c0.05,0.075 0.099,0.148 0.134,0.212l0.348,0.474c0.01335,0.01922 0.02603,0.0389 0.038,0.059l0.013,0.02c0.0065,0.00969 0.01251,0.0197 0.018,0.03l0.002,0.003l0.27,0.51c0.08341,0.15363 0.17835,0.30072 0.284,0.44c0.04098,0.04742 0.07469,0.10067 0.1,0.158l0.174,0.435c0.01985,0.0488 0.04945,0.09304 0.087,0.13c0.12231,0.09856 0.24235,0.19992 0.36,0.304c0.04864,0.04627 0.0892,0.10035 0.12,0.16l0.265,0.508l0.302,0.5c0.00809,0.01305 0.01676,0.02573 0.026,0.038l0.029,0.041c0.01094,0.02204 0.01836,0.04566 0.022,0.07l0.009,0.036l0.047,0.152v0.001c0.03066,0.09252 0.05867,0.18589 0.084,0.28l0.013,0.043c0.01419,0.04647 0.03156,0.09191 0.052,0.136l0.082,0.182h0.001v0.003l0.06,0.132c0.03433,0.07572 0.07836,0.14665 0.131,0.211l0.023,0.027c0.10014,0.11158 0.19427,0.22842 0.282,0.35c0.057,0.08 0.09,0.17 0.09,0.26l0.01,0.229c0.00878,0.19695 0.07558,0.3869 0.192,0.546l0.096,0.133c0.01341,0.01932 0.02576,0.03935 0.037,0.06l0.016,0.026c0.03627,0.07821 0.06995,0.15758 0.101,0.238c0.026,0.064 0.051,0.129 0.08,0.191l0.006,0.016c0.03395,0.09449 0.08109,0.1837 0.14,0.265l0.13,0.182c0.03188,0.04542 0.06388,0.09075 0.096,0.136l0.045,0.057c0.03432,0.04696 0.05788,0.1009 0.069,0.158l0.01,0.051c0.06567,0.32643 -0.07772,0.65941 -0.36,0.836zM12.64967,19.38328c-0.00999,0.00697 -0.01672,0.0177 -0.01867,0.02972c-0.019,0.124 -0.038,0.249 -0.07,0.374c-0.01524,0.0581 -0.01797,0.11877 -0.008,0.178c0.00808,0.05056 0.01541,0.10123 0.022,0.152c0.00792,0.0622 0.01726,0.12422 0.028,0.186l0.034,0.214c0.01139,0.05609 0.01139,0.11391 0,0.17c-0.022,0.079 -0.042,0.161 -0.062,0.243c-0.03638,0.16036 -0.03911,0.32653 -0.008,0.488c0.068,0.384 0.102,0.9 0.048,1.156l-0.068,0.542c-0.03332,0.2095 -0.20643,0.36853 -0.418,0.384h-0.034c-0.20286,-0.00062 -0.38148,-0.13377 -0.44,-0.328l-0.08,-0.282l-0.07,-0.227l-0.008,-0.027c-0.012,-0.035 -0.024,-0.07 -0.024,-0.107c-0.022,-0.17 -0.056,-0.339 -0.09,-0.508l-0.012,-0.07c-0.00689,-0.03693 -0.01024,-0.07443 -0.01,-0.112l-0.057,-0.677v-0.445c0,-0.088 -0.011,-0.174 -0.034,-0.258l-0.011,-0.043c-0.023,-0.068 -0.043,-0.136 -0.063,-0.203l-0.04,-0.138l-0.015,-0.042c-0.01416,-0.03284 -0.02359,-0.06752 -0.028,-0.103l-0.003,-0.037l-0.02,-0.2l-0.025,-0.267c-0.00633,-0.07025 -0.02007,-0.13964 -0.041,-0.207l-0.025,-0.079c-0.022,-0.081 -0.049,-0.167 -0.073,-0.247l-0.04,-0.126l-0.26,-0.678l-0.158,-0.633c-0.01185,-0.06803 -0.01387,-0.1374 -0.006,-0.206l0.035,-0.364c0.01081,-0.10875 0.00371,-0.21854 -0.021,-0.325l-0.042,-0.178l-0.056,-0.248c-0.023,-0.136 -0.045,-0.271 -0.079,-0.407c-0.01474,-0.07456 -0.04772,-0.1443 -0.096,-0.203l-0.13,-0.158v-0.001c-0.068,-0.082 -0.136,-0.163 -0.203,-0.248c-0.07921,-0.09892 -0.11941,-0.22344 -0.113,-0.35l-0.008,-0.054c-0.02,-0.153 -0.042,-0.314 -0.072,-0.466l-0.033,-0.226c-0.006,-0.051 -0.015,-0.102 -0.023,-0.152c-0.017,-0.1 -0.055,-0.196 -0.115,-0.276l-0.28,-0.374c-0.07888,-0.09402 -0.11186,-0.21824 -0.09,-0.339c0.024,-0.134 0.043,-0.273 0.06,-0.414c0.012,-0.099 -0.001,-0.199 -0.041,-0.291c-0.03,-0.067 -0.061,-0.136 -0.088,-0.21l-0.056,-0.124c-0.094,-0.168 -0.198,-0.345 -0.303,-0.514c-0.01613,-0.02635 -0.03049,-0.05375 -0.043,-0.082l-0.02,-0.047c-0.015,-0.037 -0.02,-0.077 -0.025,-0.117l-0.007,-0.045l-0.02,-0.121c-0.006,-0.051 -0.014,-0.105 -0.022,-0.159c-0.017,-0.102 -0.06,-0.199 -0.13,-0.277l-0.3,-0.332c-0.079,-0.091 -0.113,-0.215 -0.113,-0.34l0.015,-0.187l0.005,-0.064c0.015,-0.173 -0.047,-0.342 -0.161,-0.472c-0.059,-0.067 -0.119,-0.135 -0.175,-0.203c-0.0622,-0.07803 -0.10134,-0.1719 -0.113,-0.271v-0.158l-0.005,-0.052c-0.01341,-0.18409 -0.09423,-0.35677 -0.227,-0.485c-0.07,-0.065 -0.141,-0.13 -0.208,-0.197c-0.05009,-0.05562 -0.09064,-0.11915 -0.12,-0.188l-0.208,-0.466c-0.009,-0.021 -0.02,-0.042 -0.03,-0.062c-0.024,-0.047 -0.049,-0.094 -0.057,-0.145c-0.00933,-0.17023 -0.02534,-0.34003 -0.048,-0.509l-0.001,-0.017c0,-0.031 -0.012,-0.061 -0.032,-0.083l-0.103,-0.112l-0.249,-0.26c-0.0449,-0.05758 -0.07942,-0.12256 -0.102,-0.192l-0.056,-0.225c-0.034,-0.148 -0.068,-0.283 -0.113,-0.43l-0.143,-0.508c-0.018,-0.06 -0.04,-0.119 -0.07,-0.174c-0.046,-0.086 -0.097,-0.171 -0.149,-0.256l-0.135,-0.237l-0.113,-0.226l-0.124,-0.237c-0.09525,-0.18951 -0.04858,-0.41959 0.113,-0.557c0.04736,-0.04288 0.10325,-0.07525 0.164,-0.095c0.20183,-0.05122 0.41278,0.04047 0.513,0.223l0.136,0.26l0.102,0.214l0.124,0.203c0.03336,0.05506 0.06736,0.10973 0.102,0.164l0.024,0.039c0.0516,0.08272 0.11417,0.15807 0.186,0.224l0.388,0.353c0.10443,0.11797 0.20613,0.23833 0.305,0.361l0.147,0.17c0.026,0.03094 0.04879,0.06444 0.068,0.1l0.158,0.295l0.147,0.283l0.124,0.203l0.237,0.407c0.02355,0.04222 0.0417,0.08724 0.054,0.134l0.102,0.394c0.03142,0.1213 0.08535,0.23562 0.159,0.337l0.205,0.28l0.03,0.04c0.02298,0.02683 0.04309,0.05599 0.06,0.087c0.06125,0.18088 0.11794,0.36327 0.17,0.547c0.02254,0.06667 0.05863,0.12796 0.106,0.18c0.12,0.132 0.233,0.264 0.346,0.396c0.03917,0.04942 0.07084,0.10434 0.094,0.163l0.075,0.187c0.03648,0.09401 0.07381,0.18768 0.112,0.281l0.046,0.114l0.294,0.622l0.007,0.013c0.021,0.038 0.029,0.08 0.038,0.123l0.007,0.034l0.033,0.143v0.003l0.051,0.226l0.045,0.192c0.0288,0.09073 0.0588,0.18107 0.09,0.271c0.025,0.073 0.051,0.147 0.077,0.227c0.01658,0.05162 0.04013,0.10074 0.07,0.146c0.102,0.157 0.203,0.327 0.305,0.497c0.045,0.078 0.057,0.158 0.057,0.248v0.158l-0.002,0.032c-0.004,0.043 -0.008,0.086 -0.01,0.127c-0.00958,0.16972 0.03038,0.33857 0.115,0.486l0.138,0.248l0.02,0.039c0.00447,0.00976 0.00914,0.01943 0.014,0.029c0.01208,0.02473 0.02082,0.05096 0.026,0.078l0.01,0.035c0.01532,0.05048 0.02998,0.10115 0.044,0.152c0.01928,0.07017 0.04028,0.13986 0.063,0.209l0.024,0.077c0.02164,0.069 0.05012,0.13566 0.085,0.199c0.027,0.047 0.052,0.095 0.077,0.142c0.04224,0.0796 0.08558,0.1586 0.13,0.237l0.068,0.113c0.01667,0.02694 0.03073,0.0554 0.042,0.085c0.013,0.033 0.016,0.068 0.02,0.102c0.03439,0.22732 0.06639,0.455 0.096,0.683v0.203c0.009,0.105 0.011,0.217 0.011,0.325c0.00008,0.06172 0.00577,0.12331 0.017,0.184l0.017,0.09c0.03308,0.13899 0.06309,0.27869 0.09,0.419l0.147,0.62l0.226,0.712l0.124,0.622c0.01769,0.07367 0.03669,0.14701 0.057,0.22c0.01996,0.073 0.03863,0.14634 0.056,0.22l0.053,0.222c0.003,0.01 0.004,0.02 0.004,0.03v0.11c0.00004,0.01371 -0.00618,0.0267 -0.01689,0.03526c-0.01071,0.00857 -0.02474,0.01178 -0.03811,0.00874c-0.01196,-0.00232 -0.02435,0.0003 -0.03433,0.00728zM6.852,16.258c0,0.006 0.007,0.01 0.012,0.007c0.00249,-0.00144 0.00555,-0.00143 0.00803,0.00002c0.00248,0.00145 0.00399,0.00411 0.00397,0.00698v0.047c0.03,0.127 0.05,0.254 0.07,0.38c0.01,0.064 0.02,0.128 0.032,0.192c0.00926,0.07248 0.00138,0.14612 -0.023,0.215c-0.025,0.08 -0.05,0.156 -0.076,0.231c-0.04504,0.12412 -0.06871,0.25497 -0.07,0.387v0.263c0.00229,0.06698 -0.01361,0.13333 -0.046,0.192c-0.02351,0.05155 -0.04818,0.10256 -0.074,0.153l-0.011,0.023c-0.04069,0.08256 -0.0468,0.17792 -0.017,0.265c0.01874,0.06218 0.02652,0.12715 0.023,0.192c-0.045,0.418 -0.102,0.712 -0.181,0.881l-0.034,0.102l-0.045,0.113l-0.08,0.214c-0.06653,0.17834 -0.23766,0.2959 -0.428,0.294h-0.046c-0.20544,-0.02397 -0.37063,-0.18022 -0.406,-0.384l-0.045,-0.26l-0.023,-0.113l-0.008,-0.041c-0.01507,-0.06804 -0.02378,-0.13734 -0.026,-0.207l-0.009,-0.153c-0.004,-0.08 -0.007,-0.159 -0.016,-0.24c-0.00552,-0.04714 -0.00852,-0.09454 -0.009,-0.142v-0.008l0.023,-0.237v-0.262c0,-0.051 0.004,-0.102 0.01,-0.152l0.016,-0.124l0.003,-0.022c0.01673,-0.12997 0.01132,-0.26184 -0.016,-0.39l-0.008,-0.033l-0.025,-0.114c-0.01666,-0.07418 -0.02505,-0.14997 -0.025,-0.226v-0.358c-0.00018,-0.06924 -0.00755,-0.13828 -0.022,-0.206l-0.024,-0.112l-0.056,-0.238l-0.023,-0.067l-0.025,-0.085c-0.03147,-0.10724 -0.06581,-0.21361 -0.103,-0.319c-0.00481,-0.0119 -0.01015,-0.02358 -0.016,-0.035c-0.01721,-0.03139 -0.02713,-0.06625 -0.029,-0.102l-0.03,-0.171c-0.01104,-0.05235 -0.02038,-0.10504 -0.028,-0.158c-0.009,-0.054 -0.017,-0.108 -0.028,-0.158c-0.02269,-0.06987 -0.02269,-0.14513 0,-0.215l0.064,-0.217c0.03949,-0.13252 0.05107,-0.27178 0.034,-0.409l-0.03,-0.244c0,-0.098 -0.011,-0.206 -0.032,-0.315c-0.00178,-0.00822 -0.00278,-0.01659 -0.003,-0.025c0.00007,-0.02845 -0.00905,-0.05616 -0.026,-0.079l-0.065,-0.088c-0.0719,-0.10066 -0.14694,-0.19904 -0.225,-0.295c-0.05799,-0.0785 -0.08951,-0.17341 -0.09,-0.271v-0.197c-0.00019,-0.14584 -0.03227,-0.28987 -0.094,-0.422l-0.37,-0.793c-0.07505,-0.17495 -0.03888,-0.37777 0.092,-0.516c0.10796,-0.13374 0.13899,-0.31384 0.082,-0.476c-0.01011,-0.03151 -0.02248,-0.06226 -0.037,-0.092l-0.216,-0.43c-0.0406,-0.06372 -0.06019,-0.13856 -0.056,-0.214v-0.016c0.00019,-0.2311 -0.07967,-0.45513 -0.226,-0.634l-0.079,-0.096c-0.10093,-0.11882 -0.1348,-0.28068 -0.09,-0.43l0.05,-0.163c0.03333,-0.10314 0.01471,-0.21604 -0.05,-0.303c-0.04453,-0.05961 -0.08987,-0.11862 -0.136,-0.177c-0.07897,-0.09828 -0.11177,-0.22582 -0.09,-0.35l0.022,-0.147l0.013,-0.054c0.01663,-0.08033 -0.00947,-0.16355 -0.069,-0.22l-0.215,-0.223c-0.04475,-0.05361 -0.07931,-0.11496 -0.102,-0.181l-0.158,-0.52c-0.011,-0.068 -0.011,-0.135 -0.011,-0.203c0.005,-0.052 0.013,-0.107 0.02,-0.163c0.01908,-0.12717 -0.01571,-0.25655 -0.096,-0.357c-0.04584,-0.05707 -0.09217,-0.11374 -0.139,-0.17c-0.06068,-0.06891 -0.09627,-0.15631 -0.101,-0.248c-0.012,-0.18 -0.023,-0.361 -0.045,-0.542l-0.023,-0.18l-0.017,-0.148v-0.004c-0.01118,-0.09423 -0.03541,-0.18645 -0.072,-0.274l-0.001,-0.004c-0.04948,-0.1258 -0.10251,-0.25019 -0.159,-0.373l-0.146,-0.418c-0.08061,-0.20822 0.00752,-0.44381 0.205,-0.548c0.04153,-0.02347 0.0869,-0.03939 0.134,-0.047c0.027,-0.003 0.054,-0.003 0.079,-0.003c0.192,0 0.361,0.112 0.429,0.293l0.147,0.396c0.056,0.113 0.113,0.226 0.17,0.35c0.03,0.067 0.069,0.13 0.12,0.183l0.049,0.048c0.042,0.043 0.084,0.085 0.124,0.13l0.147,0.17c0.095,0.124 0.183,0.248 0.29,0.4l0.045,0.064c0.01,0.014 0.019,0.03 0.028,0.045c0.01,0.02 0.024,0.043 0.032,0.067l0.09,0.242c0.036,0.1 0.07,0.196 0.102,0.278l0.08,0.169l0.169,0.373c0.01952,0.04784 0.03133,0.09846 0.035,0.15l0.022,0.236c0.01392,0.14735 0.06037,0.28978 0.136,0.417l0.11,0.185c0.02234,0.03947 0.04237,0.08021 0.06,0.122c0.016,0.04 0.023,0.084 0.03,0.127l0.007,0.049c0.01805,0.10154 0.03539,0.20321 0.052,0.305c0,0.03 0.01,0.059 0.03,0.081c0.101,0.115 0.194,0.238 0.286,0.361c0.03731,0.04642 0.06425,0.1003 0.079,0.158l0.034,0.136c0.038,0.114 0.068,0.237 0.09,0.327l0.011,0.046l0.192,0.53c0.01388,0.05028 0.02226,0.10191 0.025,0.154l0.027,0.403c0.003,0.05048 0.01002,0.10064 0.021,0.15c0.018,0.078 0.035,0.157 0.052,0.243c0.01468,0.08219 0.04236,0.16152 0.082,0.235l0.035,0.064c0.058,0.106 0.114,0.208 0.165,0.31c0.045,0.102 0.068,0.215 0.045,0.317l-0.034,0.147c-0.02947,0.16087 -0.00924,0.32691 0.058,0.476l0.048,0.097c0.02,0.04 0.037,0.08 0.05,0.123l0.001,0.006c0.00844,0.02897 0.01544,0.05834 0.021,0.088l0.053,0.276c0.02,0.102 0.055,0.2 0.1,0.294l0.043,0.09v0.001c0.025,0.054 0.05,0.11 0.078,0.164l0.046,0.102c0.03205,0.05877 0.0476,0.12511 0.045,0.192v0.527c0.00005,0.04751 -0.00329,0.09497 -0.01,0.142l-0.013,0.088l-0.017,0.158l-0.006,0.054c-0.00705,0.06915 -0.00705,0.13885 0,0.208l0.034,0.36l0.068,0.485c0.017,0.062 0.031,0.127 0.045,0.192c0.015,0.065 0.029,0.13 0.046,0.192l0.056,0.237c0.022,0.143 0.033,0.287 0.044,0.44zM18.25,21.5c-2.06993,-0.00275 -3.74725,-1.68007 -3.75,-3.75c0.0022,-2.07015 1.67985,-3.7478 3.75,-3.75c2.07015,0.0022 3.7478,1.67985 3.75,3.75c-0.00275,2.06993 -1.68007,3.74725 -3.75,3.75zM20.186,18.507c0.092,-0.236 0.147,-0.49 0.147,-0.757c0,-1.149 -0.935,-2.083 -2.083,-2.083c-0.267,0 -0.522,0.055 -0.757,0.147zM18.25,19.833c0.268,0 0.522,-0.055 0.758,-0.148l-2.694,-2.694c-0.093,0.236 -0.148,0.491 -0.148,0.759c0.0011,1.1505 0.9335,2.0829 2.084,2.084z" fill="#62757e" fill-rule="nonzero"></path></g>
  </g>
  <g id="Regular-M" transform="matrix(5 0 0 5 1389.82 1030)">
    <defs><clipPath id="clip-1"><rect x="0" y="0" width="24" height="24" fill="none" fill-rule="nonzero"></rect></clipPath></defs>
<g clip-path="url(#clip-1)" fill="none" fill-rule="none" stroke="none" stroke-width="1" stroke-linecap="butt" stroke-linejoin="miter" stroke-miterlimit="10" stroke-dasharray="" stroke-dashoffset="0" font-family="none" font-weight="none" font-size="none" text-anchor="none" style="mix-blend-mode: normal"><path d="M19.538,12.598c-0.08106,-0.01496 -0.15273,-0.06178 -0.199,-0.13l-0.003,-0.005l-0.098,-0.12c-0.058,-0.07 -0.12,-0.143 -0.184,-0.23l-0.02,-0.023l-0.03,-0.033c-0.02487,-0.02337 -0.04611,-0.05034 -0.063,-0.08c-0.04474,-0.07768 -0.09008,-0.15501 -0.136,-0.232l-0.135,-0.23c-0.03388,-0.06412 -0.05558,-0.13397 -0.064,-0.206v-0.001l-0.009,-0.052l-0.007,-0.036c-0.00972,-0.06051 -0.01839,-0.12119 -0.026,-0.182l-0.005,-0.04c-0.01549,-0.10723 -0.05075,-0.21065 -0.104,-0.305l-0.158,-0.286l-0.062,-0.123c-0.0846,-0.17037 -0.21654,-0.31272 -0.38,-0.41c-0.03727,-0.02211 -0.0746,-0.04411 -0.112,-0.066l-0.045,-0.033c-0.08705,-0.05225 -0.15451,-0.13165 -0.192,-0.226c-0.068,-0.17 -0.136,-0.328 -0.215,-0.509l-0.056,-0.124c-0.01247,-0.02939 -0.02581,-0.0584 -0.04,-0.087c-0.04895,-0.11168 -0.12874,-0.20707 -0.23,-0.275l-0.227,-0.146c-0.11444,-0.07791 -0.18871,-0.2023 -0.203,-0.34l-0.026,-0.282c-0.01053,-0.14765 -0.06445,-0.2889 -0.155,-0.406l-0.055,-0.068c-0.03115,-0.03797 -0.06525,-0.07342 -0.102,-0.106l-0.137,-0.12c-0.0649,-0.05564 -0.12891,-0.11231 -0.192,-0.17c-0.05676,-0.0432 -0.09982,-0.10189 -0.124,-0.169l-0.068,-0.18l-0.028,-0.065c-0.03451,-0.08159 -0.09544,-0.14921 -0.173,-0.192l-0.262,-0.14c-0.12644,-0.06519 -0.2144,-0.18655 -0.237,-0.327l-0.037,-0.234c-0.01941,-0.12373 -0.09265,-0.23249 -0.2,-0.297l-0.148,-0.079c-0.10459,-0.06338 -0.18111,-0.16421 -0.214,-0.282l-0.023,-0.085c-0.04691,-0.1836 -0.17833,-0.33395 -0.354,-0.405c-0.02537,-0.0099 -0.05071,-0.0199 -0.076,-0.03c-0.07811,-0.02054 -0.14624,-0.06845 -0.192,-0.135l-0.113,-0.147c-0.068,-0.09 -0.136,-0.18 -0.215,-0.271c-0.03303,-0.04904 -0.05959,-0.10215 -0.079,-0.158l-0.013,-0.045c-0.0713,-0.23944 -0.23258,-0.44194 -0.45,-0.565c-0.07816,-0.03906 -0.14138,-0.10263 -0.18,-0.181l-0.272,-0.52c-0.04222,-0.09025 -0.08826,-0.17867 -0.138,-0.265l-0.054,-0.096c-0.02948,-0.05994 -0.06944,-0.11413 -0.118,-0.16l-0.034,-0.032c-0.037,-0.034 -0.074,-0.068 -0.108,-0.102l-0.18,-0.18c-0.029,-0.035 -0.06,-0.069 -0.09,-0.102c-0.03115,-0.03326 -0.06149,-0.06727 -0.091,-0.102l-0.113,-0.124c-0.11906,-0.13225 -0.14833,-0.32253 -0.07453,-0.48445c0.0738,-0.16192 0.23661,-0.26465 0.41453,-0.26155c0.1239,0.00493 0.24108,0.0576 0.327,0.147l0.102,0.102l0.148,0.166c0.02935,0.03201 0.06075,0.06207 0.094,0.09l0.097,0.082c0.063,0.053 0.135,0.115 0.199,0.186c0.01,0.011 0.024,0.018 0.04,0.018c0.006,0 0.013,0.001 0.019,0.004l0.397,0.165c0.01264,0.00645 0.02499,0.01345 0.037,0.021l0.01,0.007l0.03,0.018l0.093,0.056l0.18,0.113c0.06,0.037 0.119,0.073 0.181,0.113c0.03824,0.02789 0.07343,0.05973 0.105,0.095l0.358,0.39l0.341,0.332l0.029,0.027c0.03654,0.03131 0.06882,0.06729 0.096,0.107l0.005,0.008c0.01,0.016 0.019,0.032 0.027,0.049c0.034,0.073 0.072,0.148 0.111,0.224l0.07,0.135c0.029,0.052 0.07,0.097 0.116,0.134l0.058,0.046c0.043,0.034 0.085,0.068 0.13,0.102l0.041,0.029c0.048,0.033 0.094,0.07 0.13,0.115l0.055,0.07l0.217,0.372c0.01336,0.02319 0.03182,0.04302 0.054,0.058c0.062,0.034 0.124,0.07 0.187,0.107c0.062,0.037 0.124,0.074 0.186,0.108c0.06472,0.04319 0.12042,0.09855 0.164,0.163l0.288,0.402l0.373,0.429c0.00834,0.0084 0.01603,0.01743 0.023,0.027c0.02,0.028 0.034,0.06 0.048,0.09l0.016,0.037c0.046,0.095 0.093,0.196 0.139,0.298l0.035,0.076c0.02144,0.04689 0.04652,0.09203 0.075,0.135l0.087,0.133l0.064,0.098c0.04397,0.06651 0.09679,0.12673 0.157,0.179c0.101,0.079 0.203,0.17 0.305,0.26c0.07619,0.06805 0.12755,0.15953 0.146,0.26l0.031,0.162c0.0386,0.20261 0.1409,0.3876 0.292,0.528l0.043,0.04c0.04097,0.03849 0.07753,0.08142 0.109,0.128l0.067,0.104c0.05641,0.08385 0.10945,0.16992 0.159,0.258c0.03,0.052 0.068,0.1 0.112,0.14l0.13,0.125l0.198,0.187c0.046,0.045 0.08,0.101 0.102,0.158l0.068,0.17c0.02,0.055 0.043,0.112 0.067,0.171c0.03,0.072 0.06,0.148 0.09,0.235l0.122,0.429c0.01713,0.06034 0.0399,0.11893 0.068,0.175l0.184,0.367l0.203,0.373l0.01,0.024c0.024,0.052 0.051,0.101 0.083,0.148l0.064,0.095c0.077,0.114 0.159,0.232 0.25,0.377l0.056,0.113c0.08,0.135 0.147,0.271 0.192,0.373l0.102,0.17c0.034,0.056 0.068,0.115 0.102,0.174c0.034,0.06 0.067,0.119 0.101,0.175c0.0227,0.04099 0.04017,0.08466 0.052,0.13l0.008,0.027c0.00534,0.01613 0.00804,0.03301 0.008,0.05v0.098l0.013,0.122l0.006,0.053c0.016,0.138 0.042,0.369 -0.094,0.342c-0.00869,-0.0019 -0.01709,-0.00492 -0.025,-0.009c-0.45723,-0.23296 -0.94504,-0.40027 -1.449,-0.497zM15.507,13.388c-0.409,0.266 -1.011,0.12 -1.356,-0.224c-0.07074,-0.08135 -0.12113,-0.17835 -0.147,-0.283c-0.028,-0.151 -0.064,-0.293 -0.102,-0.441l-0.022,-0.09l-0.057,-0.214c-0.011,-0.04 -0.023,-0.082 -0.033,-0.125c-0.02234,-0.08151 -0.0658,-0.15568 -0.126,-0.215l-0.293,-0.293c-0.08787,-0.09082 -0.13638,-0.21263 -0.135,-0.339l0.013,-0.315c0.006,-0.149 -0.021,-0.299 -0.095,-0.429l-0.02,-0.035l-0.054,-0.095c-0.024,-0.042 -0.051,-0.083 -0.081,-0.121l-0.136,-0.175c-0.06,-0.075 -0.119,-0.152 -0.18,-0.23c-0.04002,-0.04937 -0.06747,-0.1077 -0.08,-0.17l-0.034,-0.124l-0.017,-0.086c-0.035,-0.167 -0.132,-0.311 -0.265,-0.417c-0.068,-0.054 -0.136,-0.107 -0.203,-0.164c-0.08114,-0.06683 -0.13864,-0.15799 -0.164,-0.26c-0.014,-0.052 -0.017,-0.106 -0.017,-0.16v-0.148c0.00278,-0.16354 -0.06763,-0.31977 -0.192,-0.426l-0.147,-0.124c-0.0833,-0.07213 -0.13589,-0.17337 -0.147,-0.283l-0.031,-0.203c-0.024,-0.151 -0.109,-0.286 -0.234,-0.373c-0.065,-0.045 -0.13,-0.09 -0.198,-0.135c-0.067,-0.034 -0.113,-0.091 -0.147,-0.148l-0.305,-0.53c-0.03038,-0.05433 -0.05102,-0.11356 -0.061,-0.175l-0.05,-0.307c-0.016,-0.097 -0.066,-0.186 -0.143,-0.247c-0.039,-0.031 -0.079,-0.062 -0.119,-0.096l-0.135,-0.113c-0.056,-0.056 -0.113,-0.124 -0.136,-0.203c-0.068,-0.192 -0.135,-0.384 -0.214,-0.588c-0.02684,-0.05696 -0.06114,-0.11009 -0.102,-0.158c-0.079,-0.101 -0.17,-0.226 -0.226,-0.361l-0.226,-0.509c-0.056,-0.102 -0.113,-0.192 -0.169,-0.282l-0.079,-0.124c-0.12899,-0.21247 -0.06406,-0.48911 0.146,-0.622c0.21009,-0.12976 0.48523,-0.0696 0.622,0.136l0.068,0.113c0.02834,0.05 0.05836,0.09903 0.09,0.147l0.034,0.053c0.03823,0.06202 0.08137,0.12087 0.129,0.176l0.222,0.25c0.03706,0.04164 0.07753,0.08011 0.121,0.115l0.398,0.32l0.462,0.43c0.03632,0.03769 0.06881,0.0789 0.097,0.123l0.073,0.114c0.03008,0.04672 0.06075,0.09306 0.092,0.139c0.05,0.075 0.099,0.148 0.134,0.212l0.348,0.474c0.01335,0.01922 0.02603,0.0389 0.038,0.059l0.013,0.02c0.0065,0.00969 0.01251,0.0197 0.018,0.03l0.002,0.003l0.27,0.51c0.08341,0.15363 0.17835,0.30072 0.284,0.44c0.04098,0.04742 0.07469,0.10067 0.1,0.158l0.174,0.435c0.01985,0.0488 0.04945,0.09304 0.087,0.13c0.12231,0.09856 0.24235,0.19992 0.36,0.304c0.04864,0.04627 0.0892,0.10035 0.12,0.16l0.265,0.508l0.302,0.5c0.00809,0.01305 0.01676,0.02573 0.026,0.038l0.029,0.041c0.01094,0.02204 0.01836,0.04566 0.022,0.07l0.009,0.036l0.047,0.152v0.001c0.03066,0.09252 0.05867,0.18589 0.084,0.28l0.013,0.043c0.01419,0.04647 0.03156,0.09191 0.052,0.136l0.082,0.182h0.001v0.003l0.06,0.132c0.03433,0.07572 0.07836,0.14665 0.131,0.211l0.023,0.027c0.10014,0.11158 0.19427,0.22842 0.282,0.35c0.057,0.08 0.09,0.17 0.09,0.26l0.01,0.229c0.00878,0.19695 0.07558,0.3869 0.192,0.546l0.096,0.133c0.01341,0.01932 0.02576,0.03935 0.037,0.06l0.016,0.026c0.03627,0.07821 0.06995,0.15758 0.101,0.238c0.026,0.064 0.051,0.129 0.08,0.191l0.006,0.016c0.03395,0.09449 0.08109,0.1837 0.14,0.265l0.13,0.182c0.03188,0.04542 0.06388,0.09075 0.096,0.136l0.045,0.057c0.03432,0.04696 0.05788,0.1009 0.069,0.158l0.01,0.051c0.06567,0.32643 -0.07772,0.65941 -0.36,0.836zM12.64967,19.38328c-0.00999,0.00697 -0.01672,0.0177 -0.01867,0.02972c-0.019,0.124 -0.038,0.249 -0.07,0.374c-0.01524,0.0581 -0.01797,0.11877 -0.008,0.178c0.00808,0.05056 0.01541,0.10123 0.022,0.152c0.00792,0.0622 0.01726,0.12422 0.028,0.186l0.034,0.214c0.01139,0.05609 0.01139,0.11391 0,0.17c-0.022,0.079 -0.042,0.161 -0.062,0.243c-0.03638,0.16036 -0.03911,0.32653 -0.008,0.488c0.068,0.384 0.102,0.9 0.048,1.156l-0.068,0.542c-0.03332,0.2095 -0.20643,0.36853 -0.418,0.384h-0.034c-0.20286,-0.00062 -0.38148,-0.13377 -0.44,-0.328l-0.08,-0.282l-0.07,-0.227l-0.008,-0.027c-0.012,-0.035 -0.024,-0.07 -0.024,-0.107c-0.022,-0.17 -0.056,-0.339 -0.09,-0.508l-0.012,-0.07c-0.00689,-0.03693 -0.01024,-0.07443 -0.01,-0.112l-0.057,-0.677v-0.445c0,-0.088 -0.011,-0.174 -0.034,-0.258l-0.011,-0.043c-0.023,-0.068 -0.043,-0.136 -0.063,-0.203l-0.04,-0.138l-0.015,-0.042c-0.01416,-0.03284 -0.02359,-0.06752 -0.028,-0.103l-0.003,-0.037l-0.02,-0.2l-0.025,-0.267c-0.00633,-0.07025 -0.02007,-0.13964 -0.041,-0.207l-0.025,-0.079c-0.022,-0.081 -0.049,-0.167 -0.073,-0.247l-0.04,-0.126l-0.26,-0.678l-0.158,-0.633c-0.01185,-0.06803 -0.01387,-0.1374 -0.006,-0.206l0.035,-0.364c0.01081,-0.10875 0.00371,-0.21854 -0.021,-0.325l-0.042,-0.178l-0.056,-0.248c-0.023,-0.136 -0.045,-0.271 -0.079,-0.407c-0.01474,-0.07456 -0.04772,-0.1443 -0.096,-0.203l-0.13,-0.158v-0.001c-0.068,-0.082 -0.136,-0.163 -0.203,-0.248c-0.07921,-0.09892 -0.11941,-0.22344 -0.113,-0.35l-0.008,-0.054c-0.02,-0.153 -0.042,-0.314 -0.072,-0.466l-0.033,-0.226c-0.006,-0.051 -0.015,-0.102 -0.023,-0.152c-0.017,-0.1 -0.055,-0.196 -0.115,-0.276l-0.28,-0.374c-0.07888,-0.09402 -0.11186,-0.21824 -0.09,-0.339c0.024,-0.134 0.043,-0.273 0.06,-0.414c0.012,-0.099 -0.001,-0.199 -0.041,-0.291c-0.03,-0.067 -0.061,-0.136 -0.088,-0.21l-0.056,-0.124c-0.094,-0.168 -0.198,-0.345 -0.303,-0.514c-0.01613,-0.02635 -0.03049,-0.05375 -0.043,-0.082l-0.02,-0.047c-0.015,-0.037 -0.02,-0.077 -0.025,-0.117l-0.007,-0.045l-0.02,-0.121c-0.006,-0.051 -0.014,-0.105 -0.022,-0.159c-0.017,-0.102 -0.06,-0.199 -0.13,-0.277l-0.3,-0.332c-0.079,-0.091 -0.113,-0.215 -0.113,-0.34l0.015,-0.187l0.005,-0.064c0.015,-0.173 -0.047,-0.342 -0.161,-0.472c-0.059,-0.067 -0.119,-0.135 -0.175,-0.203c-0.0622,-0.07803 -0.10134,-0.1719 -0.113,-0.271v-0.158l-0.005,-0.052c-0.01341,-0.18409 -0.09423,-0.35677 -0.227,-0.485c-0.07,-0.065 -0.141,-0.13 -0.208,-0.197c-0.05009,-0.05562 -0.09064,-0.11915 -0.12,-0.188l-0.208,-0.466c-0.009,-0.021 -0.02,-0.042 -0.03,-0.062c-0.024,-0.047 -0.049,-0.094 -0.057,-0.145c-0.00933,-0.17023 -0.02534,-0.34003 -0.048,-0.509l-0.001,-0.017c0,-0.031 -0.012,-0.061 -0.032,-0.083l-0.103,-0.112l-0.249,-0.26c-0.0449,-0.05758 -0.07942,-0.12256 -0.102,-0.192l-0.056,-0.225c-0.034,-0.148 -0.068,-0.283 -0.113,-0.43l-0.143,-0.508c-0.018,-0.06 -0.04,-0.119 -0.07,-0.174c-0.046,-0.086 -0.097,-0.171 -0.149,-0.256l-0.135,-0.237l-0.113,-0.226l-0.124,-0.237c-0.09525,-0.18951 -0.04858,-0.41959 0.113,-0.557c0.04736,-0.04288 0.10325,-0.07525 0.164,-0.095c0.20183,-0.05122 0.41278,0.04047 0.513,0.223l0.136,0.26l0.102,0.214l0.124,0.203c0.03336,0.05506 0.06736,0.10973 0.102,0.164l0.024,0.039c0.0516,0.08272 0.11417,0.15807 0.186,0.224l0.388,0.353c0.10443,0.11797 0.20613,0.23833 0.305,0.361l0.147,0.17c0.026,0.03094 0.04879,0.06444 0.068,0.1l0.158,0.295l0.147,0.283l0.124,0.203l0.237,0.407c0.02355,0.04222 0.0417,0.08724 0.054,0.134l0.102,0.394c0.03142,0.1213 0.08535,0.23562 0.159,0.337l0.205,0.28l0.03,0.04c0.02298,0.02683 0.04309,0.05599 0.06,0.087c0.06125,0.18088 0.11794,0.36327 0.17,0.547c0.02254,0.06667 0.05863,0.12796 0.106,0.18c0.12,0.132 0.233,0.264 0.346,0.396c0.03917,0.04942 0.07084,0.10434 0.094,0.163l0.075,0.187c0.03648,0.09401 0.07381,0.18768 0.112,0.281l0.046,0.114l0.294,0.622l0.007,0.013c0.021,0.038 0.029,0.08 0.038,0.123l0.007,0.034l0.033,0.143v0.003l0.051,0.226l0.045,0.192c0.0288,0.09073 0.0588,0.18107 0.09,0.271c0.025,0.073 0.051,0.147 0.077,0.227c0.01658,0.05162 0.04013,0.10074 0.07,0.146c0.102,0.157 0.203,0.327 0.305,0.497c0.045,0.078 0.057,0.158 0.057,0.248v0.158l-0.002,0.032c-0.004,0.043 -0.008,0.086 -0.01,0.127c-0.00958,0.16972 0.03038,0.33857 0.115,0.486l0.138,0.248l0.02,0.039c0.00447,0.00976 0.00914,0.01943 0.014,0.029c0.01208,0.02473 0.02082,0.05096 0.026,0.078l0.01,0.035c0.01532,0.05048 0.02998,0.10115 0.044,0.152c0.01928,0.07017 0.04028,0.13986 0.063,0.209l0.024,0.077c0.02164,0.069 0.05012,0.13566 0.085,0.199c0.027,0.047 0.052,0.095 0.077,0.142c0.04224,0.0796 0.08558,0.1586 0.13,0.237l0.068,0.113c0.01667,0.02694 0.03073,0.0554 0.042,0.085c0.013,0.033 0.016,0.068 0.02,0.102c0.03439,0.22732 0.06639,0.455 0.096,0.683v0.203c0.009,0.105 0.011,0.217 0.011,0.325c0.00008,0.06172 0.00577,0.12331 0.017,0.184l0.017,0.09c0.03308,0.13899 0.06309,0.27869 0.09,0.419l0.147,0.62l0.226,0.712l0.124,0.622c0.01769,0.07367 0.03669,0.14701 0.057,0.22c0.01996,0.073 0.03863,0.14634 0.056,0.22l0.053,0.222c0.003,0.01 0.004,0.02 0.004,0.03v0.11c0.00004,0.01371 -0.00618,0.0267 -0.01689,0.03526c-0.01071,0.00857 -0.02474,0.01178 -0.03811,0.00874c-0.01196,-0.00232 -0.02435,0.0003 -0.03433,0.00728zM6.852,16.258c0,0.006 0.007,0.01 0.012,0.007c0.00249,-0.00144 0.00555,-0.00143 0.00803,0.00002c0.00248,0.00145 0.00399,0.00411 0.00397,0.00698v0.047c0.03,0.127 0.05,0.254 0.07,0.38c0.01,0.064 0.02,0.128 0.032,0.192c0.00926,0.07248 0.00138,0.14612 -0.023,0.215c-0.025,0.08 -0.05,0.156 -0.076,0.231c-0.04504,0.12412 -0.06871,0.25497 -0.07,0.387v0.263c0.00229,0.06698 -0.01361,0.13333 -0.046,0.192c-0.02351,0.05155 -0.04818,0.10256 -0.074,0.153l-0.011,0.023c-0.04069,0.08256 -0.0468,0.17792 -0.017,0.265c0.01874,0.06218 0.02652,0.12715 0.023,0.192c-0.045,0.418 -0.102,0.712 -0.181,0.881l-0.034,0.102l-0.045,0.113l-0.08,0.214c-0.06653,0.17834 -0.23766,0.2959 -0.428,0.294h-0.046c-0.20544,-0.02397 -0.37063,-0.18022 -0.406,-0.384l-0.045,-0.26l-0.023,-0.113l-0.008,-0.041c-0.01507,-0.06804 -0.02378,-0.13734 -0.026,-0.207l-0.009,-0.153c-0.004,-0.08 -0.007,-0.159 -0.016,-0.24c-0.00552,-0.04714 -0.00852,-0.09454 -0.009,-0.142v-0.008l0.023,-0.237v-0.262c0,-0.051 0.004,-0.102 0.01,-0.152l0.016,-0.124l0.003,-0.022c0.01673,-0.12997 0.01132,-0.26184 -0.016,-0.39l-0.008,-0.033l-0.025,-0.114c-0.01666,-0.07418 -0.02505,-0.14997 -0.025,-0.226v-0.358c-0.00018,-0.06924 -0.00755,-0.13828 -0.022,-0.206l-0.024,-0.112l-0.056,-0.238l-0.023,-0.067l-0.025,-0.085c-0.03147,-0.10724 -0.06581,-0.21361 -0.103,-0.319c-0.00481,-0.0119 -0.01015,-0.02358 -0.016,-0.035c-0.01721,-0.03139 -0.02713,-0.06625 -0.029,-0.102l-0.03,-0.171c-0.01104,-0.05235 -0.02038,-0.10504 -0.028,-0.158c-0.009,-0.054 -0.017,-0.108 -0.028,-0.158c-0.02269,-0.06987 -0.02269,-0.14513 0,-0.215l0.064,-0.217c0.03949,-0.13252 0.05107,-0.27178 0.034,-0.409l-0.03,-0.244c0,-0.098 -0.011,-0.206 -0.032,-0.315c-0.00178,-0.00822 -0.00278,-0.01659 -0.003,-0.025c0.00007,-0.02845 -0.00905,-0.05616 -0.026,-0.079l-0.065,-0.088c-0.0719,-0.10066 -0.14694,-0.19904 -0.225,-0.295c-0.05799,-0.0785 -0.08951,-0.17341 -0.09,-0.271v-0.197c-0.00019,-0.14584 -0.03227,-0.28987 -0.094,-0.422l-0.37,-0.793c-0.07505,-0.17495 -0.03888,-0.37777 0.092,-0.516c0.10796,-0.13374 0.13899,-0.31384 0.082,-0.476c-0.01011,-0.03151 -0.02248,-0.06226 -0.037,-0.092l-0.216,-0.43c-0.0406,-0.06372 -0.06019,-0.13856 -0.056,-0.214v-0.016c0.00019,-0.2311 -0.07967,-0.45513 -0.226,-0.634l-0.079,-0.096c-0.10093,-0.11882 -0.1348,-0.28068 -0.09,-0.43l0.05,-0.163c0.03333,-0.10314 0.01471,-0.21604 -0.05,-0.303c-0.04453,-0.05961 -0.08987,-0.11862 -0.136,-0.177c-0.07897,-0.09828 -0.11177,-0.22582 -0.09,-0.35l0.022,-0.147l0.013,-0.054c0.01663,-0.08033 -0.00947,-0.16355 -0.069,-0.22l-0.215,-0.223c-0.04475,-0.05361 -0.07931,-0.11496 -0.102,-0.181l-0.158,-0.52c-0.011,-0.068 -0.011,-0.135 -0.011,-0.203c0.005,-0.052 0.013,-0.107 0.02,-0.163c0.01908,-0.12717 -0.01571,-0.25655 -0.096,-0.357c-0.04584,-0.05707 -0.09217,-0.11374 -0.139,-0.17c-0.06068,-0.06891 -0.09627,-0.15631 -0.101,-0.248c-0.012,-0.18 -0.023,-0.361 -0.045,-0.542l-0.023,-0.18l-0.017,-0.148v-0.004c-0.01118,-0.09423 -0.03541,-0.18645 -0.072,-0.274l-0.001,-0.004c-0.04948,-0.1258 -0.10251,-0.25019 -0.159,-0.373l-0.146,-0.418c-0.08061,-0.20822 0.00752,-0.44381 0.205,-0.548c0.04153,-0.02347 0.0869,-0.03939 0.134,-0.047c0.027,-0.003 0.054,-0.003 0.079,-0.003c0.192,0 0.361,0.112 0.429,0.293l0.147,0.396c0.056,0.113 0.113,0.226 0.17,0.35c0.03,0.067 0.069,0.13 0.12,0.183l0.049,0.048c0.042,0.043 0.084,0.085 0.124,0.13l0.147,0.17c0.095,0.124 0.183,0.248 0.29,0.4l0.045,0.064c0.01,0.014 0.019,0.03 0.028,0.045c0.01,0.02 0.024,0.043 0.032,0.067l0.09,0.242c0.036,0.1 0.07,0.196 0.102,0.278l0.08,0.169l0.169,0.373c0.01952,0.04784 0.03133,0.09846 0.035,0.15l0.022,0.236c0.01392,0.14735 0.06037,0.28978 0.136,0.417l0.11,0.185c0.02234,0.03947 0.04237,0.08021 0.06,0.122c0.016,0.04 0.023,0.084 0.03,0.127l0.007,0.049c0.01805,0.10154 0.03539,0.20321 0.052,0.305c0,0.03 0.01,0.059 0.03,0.081c0.101,0.115 0.194,0.238 0.286,0.361c0.03731,0.04642 0.06425,0.1003 0.079,0.158l0.034,0.136c0.038,0.114 0.068,0.237 0.09,0.327l0.011,0.046l0.192,0.53c0.01388,0.05028 0.02226,0.10191 0.025,0.154l0.027,0.403c0.003,0.05048 0.01002,0.10064 0.021,0.15c0.018,0.078 0.035,0.157 0.052,0.243c0.01468,0.08219 0.04236,0.16152 0.082,0.235l0.035,0.064c0.058,0.106 0.114,0.208 0.165,0.31c0.045,0.102 0.068,0.215 0.045,0.317l-0.034,0.147c-0.02947,0.16087 -0.00924,0.32691 0.058,0.476l0.048,0.097c0.02,0.04 0.037,0.08 0.05,0.123l0.001,0.006c0.00844,0.02897 0.01544,0.05834 0.021,0.088l0.053,0.276c0.02,0.102 0.055,0.2 0.1,0.294l0.043,0.09v0.001c0.025,0.054 0.05,0.11 0.078,0.164l0.046,0.102c0.03205,0.05877 0.0476,0.12511 0.045,0.192v0.527c0.00005,0.04751 -0.00329,0.09497 -0.01,0.142l-0.013,0.088l-0.017,0.158l-0.006,0.054c-0.00705,0.06915 -0.00705,0.13885 0,0.208l0.034,0.36l0.068,0.485c0.017,0.062 0.031,0.127 0.045,0.192c0.015,0.065 0.029,0.13 0.046,0.192l0.056,0.237c0.022,0.143 0.033,0.287 0.044,0.44zM18.25,21.5c-2.06993,-0.00275 -3.74725,-1.68007 -3.75,-3.75c0.0022,-2.07015 1.67985,-3.7478 3.75,-3.75c2.07015,0.0022 3.7478,1.67985 3.75,3.75c-0.00275,2.06993 -1.68007,3.74725 -3.75,3.75zM20.186,18.507c0.092,-0.236 0.147,-0.49 0.147,-0.757c0,-1.149 -0.935,-2.083 -2.083,-2.083c-0.267,0 -0.522,0.055 -0.757,0.147zM18.25,19.833c0.268,0 0.522,-0.055 0.758,-0.148l-2.694,-2.694c-0.093,0.236 -0.148,0.491 -0.148,0.759c0.0011,1.1505 0.9335,2.0829 2.084,2.084z" fill="#62757e" fill-rule="nonzero"></path></g>
  </g>
  <g id="Regular-S" transform="matrix(3.915 0 0 3.915 1402.75 614)">
    <defs><clipPath id="clip-1"><rect x="0" y="0" width="24" height="24" fill="none" fill-rule="nonzero"></rect></clipPath></defs>
<g clip-path="url(#clip-1)" fill="none" fill-rule="none" stroke="none" stroke-width="1" stroke-linecap="butt" stroke-linejoin="miter" stroke-miterlimit="10" stroke-dasharray="" stroke-dashoffset="0" font-family="none" font-weight="none" font-size="none" text-anchor="none" style="mix-blend-mode: normal"><path d="M19.538,12.598c-0.08106,-0.01496 -0.15273,-0.06178 -0.199,-0.13l-0.003,-0.005l-0.098,-0.12c-0.058,-0.07 -0.12,-0.143 -0.184,-0.23l-0.02,-0.023l-0.03,-0.033c-0.02487,-0.02337 -0.04611,-0.05034 -0.063,-0.08c-0.04474,-0.07768 -0.09008,-0.15501 -0.136,-0.232l-0.135,-0.23c-0.03388,-0.06412 -0.05558,-0.13397 -0.064,-0.206v-0.001l-0.009,-0.052l-0.007,-0.036c-0.00972,-0.06051 -0.01839,-0.12119 -0.026,-0.182l-0.005,-0.04c-0.01549,-0.10723 -0.05075,-0.21065 -0.104,-0.305l-0.158,-0.286l-0.062,-0.123c-0.0846,-0.17037 -0.21654,-0.31272 -0.38,-0.41c-0.03727,-0.02211 -0.0746,-0.04411 -0.112,-0.066l-0.045,-0.033c-0.08705,-0.05225 -0.15451,-0.13165 -0.192,-0.226c-0.068,-0.17 -0.136,-0.328 -0.215,-0.509l-0.056,-0.124c-0.01247,-0.02939 -0.02581,-0.0584 -0.04,-0.087c-0.04895,-0.11168 -0.12874,-0.20707 -0.23,-0.275l-0.227,-0.146c-0.11444,-0.07791 -0.18871,-0.2023 -0.203,-0.34l-0.026,-0.282c-0.01053,-0.14765 -0.06445,-0.2889 -0.155,-0.406l-0.055,-0.068c-0.03115,-0.03797 -0.06525,-0.07342 -0.102,-0.106l-0.137,-0.12c-0.0649,-0.05564 -0.12891,-0.11231 -0.192,-0.17c-0.05676,-0.0432 -0.09982,-0.10189 -0.124,-0.169l-0.068,-0.18l-0.028,-0.065c-0.03451,-0.08159 -0.09544,-0.14921 -0.173,-0.192l-0.262,-0.14c-0.12644,-0.06519 -0.2144,-0.18655 -0.237,-0.327l-0.037,-0.234c-0.01941,-0.12373 -0.09265,-0.23249 -0.2,-0.297l-0.148,-0.079c-0.10459,-0.06338 -0.18111,-0.16421 -0.214,-0.282l-0.023,-0.085c-0.04691,-0.1836 -0.17833,-0.33395 -0.354,-0.405c-0.02537,-0.0099 -0.05071,-0.0199 -0.076,-0.03c-0.07811,-0.02054 -0.14624,-0.06845 -0.192,-0.135l-0.113,-0.147c-0.068,-0.09 -0.136,-0.18 -0.215,-0.271c-0.03303,-0.04904 -0.05959,-0.10215 -0.079,-0.158l-0.013,-0.045c-0.0713,-0.23944 -0.23258,-0.44194 -0.45,-0.565c-0.07816,-0.03906 -0.14138,-0.10263 -0.18,-0.181l-0.272,-0.52c-0.04222,-0.09025 -0.08826,-0.17867 -0.138,-0.265l-0.054,-0.096c-0.02948,-0.05994 -0.06944,-0.11413 -0.118,-0.16l-0.034,-0.032c-0.037,-0.034 -0.074,-0.068 -0.108,-0.102l-0.18,-0.18c-0.029,-0.035 -0.06,-0.069 -0.09,-0.102c-0.03115,-0.03326 -0.06149,-0.06727 -0.091,-0.102l-0.113,-0.124c-0.11906,-0.13225 -0.14833,-0.32253 -0.07453,-0.48445c0.0738,-0.16192 0.23661,-0.26465 0.41453,-0.26155c0.1239,0.00493 0.24108,0.0576 0.327,0.147l0.102,0.102l0.148,0.166c0.02935,0.03201 0.06075,0.06207 0.094,0.09l0.097,0.082c0.063,0.053 0.135,0.115 0.199,0.186c0.01,0.011 0.024,0.018 0.04,0.018c0.006,0 0.013,0.001 0.019,0.004l0.397,0.165c0.01264,0.00645 0.02499,0.01345 0.037,0.021l0.01,0.007l0.03,0.018l0.093,0.056l0.18,0.113c0.06,0.037 0.119,0.073 0.181,0.113c0.03824,0.02789 0.07343,0.05973 0.105,0.095l0.358,0.39l0.341,0.332l0.029,0.027c0.03654,0.03131 0.06882,0.06729 0.096,0.107l0.005,0.008c0.01,0.016 0.019,0.032 0.027,0.049c0.034,0.073 0.072,0.148 0.111,0.224l0.07,0.135c0.029,0.052 0.07,0.097 0.116,0.134l0.058,0.046c0.043,0.034 0.085,0.068 0.13,0.102l0.041,0.029c0.048,0.033 0.094,0.07 0.13,0.115l0.055,0.07l0.217,0.372c0.01336,0.02319 0.03182,0.04302 0.054,0.058c0.062,0.034 0.124,0.07 0.187,0.107c0.062,0.037 0.124,0.074 0.186,0.108c0.06472,0.04319 0.12042,0.09855 0.164,0.163l0.288,0.402l0.373,0.429c0.00834,0.0084 0.01603,0.01743 0.023,0.027c0.02,0.028 0.034,0.06 0.048,0.09l0.016,0.037c0.046,0.095 0.093,0.196 0.139,0.298l0.035,0.076c0.02144,0.04689 0.04652,0.09203 0.075,0.135l0.087,0.133l0.064,0.098c0.04397,0.06651 0.09679,0.12673 0.157,0.179c0.101,0.079 0.203,0.17 0.305,0.26c0.07619,0.06805 0.12755,0.15953 0.146,0.26l0.031,0.162c0.0386,0.20261 0.1409,0.3876 0.292,0.528l0.043,0.04c0.04097,0.03849 0.07753,0.08142 0.109,0.128l0.067,0.104c0.05641,0.08385 0.10945,0.16992 0.159,0.258c0.03,0.052 0.068,0.1 0.112,0.14l0.13,0.125l0.198,0.187c0.046,0.045 0.08,0.101 0.102,0.158l0.068,0.17c0.02,0.055 0.043,0.112 0.067,0.171c0.03,0.072 0.06,0.148 0.09,0.235l0.122,0.429c0.01713,0.06034 0.0399,0.11893 0.068,0.175l0.184,0.367l0.203,0.373l0.01,0.024c0.024,0.052 0.051,0.101 0.083,0.148l0.064,0.095c0.077,0.114 0.159,0.232 0.25,0.377l0.056,0.113c0.08,0.135 0.147,0.271 0.192,0.373l0.102,0.17c0.034,0.056 0.068,0.115 0.102,0.174c0.034,0.06 0.067,0.119 0.101,0.175c0.0227,0.04099 0.04017,0.08466 0.052,0.13l0.008,0.027c0.00534,0.01613 0.00804,0.03301 0.008,0.05v0.098l0.013,0.122l0.006,0.053c0.016,0.138 0.042,0.369 -0.094,0.342c-0.00869,-0.0019 -0.01709,-0.00492 -0.025,-0.009c-0.45723,-0.23296 -0.94504,-0.40027 -1.449,-0.497zM15.507,13.388c-0.409,0.266 -1.011,0.12 -1.356,-0.224c-0.07074,-0.08135 -0.12113,-0.17835 -0.147,-0.283c-0.028,-0.151 -0.064,-0.293 -0.102,-0.441l-0.022,-0.09l-0.057,-0.214c-0.011,-0.04 -0.023,-0.082 -0.033,-0.125c-0.02234,-0.08151 -0.0658,-0.15568 -0.126,-0.215l-0.293,-0.293c-0.08787,-0.09082 -0.13638,-0.21263 -0.135,-0.339l0.013,-0.315c0.006,-0.149 -0.021,-0.299 -0.095,-0.429l-0.02,-0.035l-0.054,-0.095c-0.024,-0.042 -0.051,-0.083 -0.081,-0.121l-0.136,-0.175c-0.06,-0.075 -0.119,-0.152 -0.18,-0.23c-0.04002,-0.04937 -0.06747,-0.1077 -0.08,-0.17l-0.034,-0.124l-0.017,-0.086c-0.035,-0.167 -0.132,-0.311 -0.265,-0.417c-0.068,-0.054 -0.136,-0.107 -0.203,-0.164c-0.08114,-0.06683 -0.13864,-0.15799 -0.164,-0.26c-0.014,-0.052 -0.017,-0.106 -0.017,-0.16v-0.148c0.00278,-0.16354 -0.06763,-0.31977 -0.192,-0.426l-0.147,-0.124c-0.0833,-0.07213 -0.13589,-0.17337 -0.147,-0.283l-0.031,-0.203c-0.024,-0.151 -0.109,-0.286 -0.234,-0.373c-0.065,-0.045 -0.13,-0.09 -0.198,-0.135c-0.067,-0.034 -0.113,-0.091 -0.147,-0.148l-0.305,-0.53c-0.03038,-0.05433 -0.05102,-0.11356 -0.061,-0.175l-0.05,-0.307c-0.016,-0.097 -0.066,-0.186 -0.143,-0.247c-0.039,-0.031 -0.079,-0.062 -0.119,-0.096l-0.135,-0.113c-0.056,-0.056 -0.113,-0.124 -0.136,-0.203c-0.068,-0.192 -0.135,-0.384 -0.214,-0.588c-0.02684,-0.05696 -0.06114,-0.11009 -0.102,-0.158c-0.079,-0.101 -0.17,-0.226 -0.226,-0.361l-0.226,-0.509c-0.056,-0.102 -0.113,-0.192 -0.169,-0.282l-0.079,-0.124c-0.12899,-0.21247 -0.06406,-0.48911 0.146,-0.622c0.21009,-0.12976 0.48523,-0.0696 0.622,0.136l0.068,0.113c0.02834,0.05 0.05836,0.09903 0.09,0.147l0.034,0.053c0.03823,0.06202 0.08137,0.12087 0.129,0.176l0.222,0.25c0.03706,0.04164 0.07753,0.08011 0.121,0.115l0.398,0.32l0.462,0.43c0.03632,0.03769 0.06881,0.0789 0.097,0.123l0.073,0.114c0.03008,0.04672 0.06075,0.09306 0.092,0.139c0.05,0.075 0.099,0.148 0.134,0.212l0.348,0.474c0.01335,0.01922 0.02603,0.0389 0.038,0.059l0.013,0.02c0.0065,0.00969 0.01251,0.0197 0.018,0.03l0.002,0.003l0.27,0.51c0.08341,0.15363 0.17835,0.30072 0.284,0.44c0.04098,0.04742 0.07469,0.10067 0.1,0.158l0.174,0.435c0.01985,0.0488 0.04945,0.09304 0.087,0.13c0.12231,0.09856 0.24235,0.19992 0.36,0.304c0.04864,0.04627 0.0892,0.10035 0.12,0.16l0.265,0.508l0.302,0.5c0.00809,0.01305 0.01676,0.02573 0.026,0.038l0.029,0.041c0.01094,0.02204 0.01836,0.04566 0.022,0.07l0.009,0.036l0.047,0.152v0.001c0.03066,0.09252 0.05867,0.18589 0.084,0.28l0.013,0.043c0.01419,0.04647 0.03156,0.09191 0.052,0.136l0.082,0.182h0.001v0.003l0.06,0.132c0.03433,0.07572 0.07836,0.14665 0.131,0.211l0.023,0.027c0.10014,0.11158 0.19427,0.22842 0.282,0.35c0.057,0.08 0.09,0.17 0.09,0.26l0.01,0.229c0.00878,0.19695 0.07558,0.3869 0.192,0.546l0.096,0.133c0.01341,0.01932 0.02576,0.03935 0.037,0.06l0.016,0.026c0.03627,0.07821 0.06995,0.15758 0.101,0.238c0.026,0.064 0.051,0.129 0.08,0.191l0.006,0.016c0.03395,0.09449 0.08109,0.1837 0.14,0.265l0.13,0.182c0.03188,0.04542 0.06388,0.09075 0.096,0.136l0.045,0.057c0.03432,0.04696 0.05788,0.1009 0.069,0.158l0.01,0.051c0.06567,0.32643 -0.07772,0.65941 -0.36,0.836zM12.64967,19.38328c-0.00999,0.00697 -0.01672,0.0177 -0.01867,0.02972c-0.019,0.124 -0.038,0.249 -0.07,0.374c-0.01524,0.0581 -0.01797,0.11877 -0.008,0.178c0.00808,0.05056 0.01541,0.10123 0.022,0.152c0.00792,0.0622 0.01726,0.12422 0.028,0.186l0.034,0.214c0.01139,0.05609 0.01139,0.11391 0,0.17c-0.022,0.079 -0.042,0.161 -0.062,0.243c-0.03638,0.16036 -0.03911,0.32653 -0.008,0.488c0.068,0.384 0.102,0.9 0.048,1.156l-0.068,0.542c-0.03332,0.2095 -0.20643,0.36853 -0.418,0.384h-0.034c-0.20286,-0.00062 -0.38148,-0.13377 -0.44,-0.328l-0.08,-0.282l-0.07,-0.227l-0.008,-0.027c-0.012,-0.035 -0.024,-0.07 -0.024,-0.107c-0.022,-0.17 -0.056,-0.339 -0.09,-0.508l-0.012,-0.07c-0.00689,-0.03693 -0.01024,-0.07443 -0.01,-0.112l-0.057,-0.677v-0.445c0,-0.088 -0.011,-0.174 -0.034,-0.258l-0.011,-0.043c-0.023,-0.068 -0.043,-0.136 -0.063,-0.203l-0.04,-0.138l-0.015,-0.042c-0.01416,-0.03284 -0.02359,-0.06752 -0.028,-0.103l-0.003,-0.037l-0.02,-0.2l-0.025,-0.267c-0.00633,-0.07025 -0.02007,-0.13964 -0.041,-0.207l-0.025,-0.079c-0.022,-0.081 -0.049,-0.167 -0.073,-0.247l-0.04,-0.126l-0.26,-0.678l-0.158,-0.633c-0.01185,-0.06803 -0.01387,-0.1374 -0.006,-0.206l0.035,-0.364c0.01081,-0.10875 0.00371,-0.21854 -0.021,-0.325l-0.042,-0.178l-0.056,-0.248c-0.023,-0.136 -0.045,-0.271 -0.079,-0.407c-0.01474,-0.07456 -0.04772,-0.1443 -0.096,-0.203l-0.13,-0.158v-0.001c-0.068,-0.082 -0.136,-0.163 -0.203,-0.248c-0.07921,-0.09892 -0.11941,-0.22344 -0.113,-0.35l-0.008,-0.054c-0.02,-0.153 -0.042,-0.314 -0.072,-0.466l-0.033,-0.226c-0.006,-0.051 -0.015,-0.102 -0.023,-0.152c-0.017,-0.1 -0.055,-0.196 -0.115,-0.276l-0.28,-0.374c-0.07888,-0.09402 -0.11186,-0.21824 -0.09,-0.339c0.024,-0.134 0.043,-0.273 0.06,-0.414c0.012,-0.099 -0.001,-0.199 -0.041,-0.291c-0.03,-0.067 -0.061,-0.136 -0.088,-0.21l-0.056,-0.124c-0.094,-0.168 -0.198,-0.345 -0.303,-0.514c-0.01613,-0.02635 -0.03049,-0.05375 -0.043,-0.082l-0.02,-0.047c-0.015,-0.037 -0.02,-0.077 -0.025,-0.117l-0.007,-0.045l-0.02,-0.121c-0.006,-0.051 -0.014,-0.105 -0.022,-0.159c-0.017,-0.102 -0.06,-0.199 -0.13,-0.277l-0.3,-0.332c-0.079,-0.091 -0.113,-0.215 -0.113,-0.34l0.015,-0.187l0.005,-0.064c0.015,-0.173 -0.047,-0.342 -0.161,-0.472c-0.059,-0.067 -0.119,-0.135 -0.175,-0.203c-0.0622,-0.07803 -0.10134,-0.1719 -0.113,-0.271v-0.158l-0.005,-0.052c-0.01341,-0.18409 -0.09423,-0.35677 -0.227,-0.485c-0.07,-0.065 -0.141,-0.13 -0.208,-0.197c-0.05009,-0.05562 -0.09064,-0.11915 -0.12,-0.188l-0.208,-0.466c-0.009,-0.021 -0.02,-0.042 -0.03,-0.062c-0.024,-0.047 -0.049,-0.094 -0.057,-0.145c-0.00933,-0.17023 -0.02534,-0.34003 -0.048,-0.509l-0.001,-0.017c0,-0.031 -0.012,-0.061 -0.032,-0.083l-0.103,-0.112l-0.249,-0.26c-0.0449,-0.05758 -0.07942,-0.12256 -0.102,-0.192l-0.056,-0.225c-0.034,-0.148 -0.068,-0.283 -0.113,-0.43l-0.143,-0.508c-0.018,-0.06 -0.04,-0.119 -0.07,-0.174c-0.046,-0.086 -0.097,-0.171 -0.149,-0.256l-0.135,-0.237l-0.113,-0.226l-0.124,-0.237c-0.09525,-0.18951 -0.04858,-0.41959 0.113,-0.557c0.04736,-0.04288 0.10325,-0.07525 0.164,-0.095c0.20183,-0.05122 0.41278,0.04047 0.513,0.223l0.136,0.26l0.102,0.214l0.124,0.203c0.03336,0.05506 0.06736,0.10973 0.102,0.164l0.024,0.039c0.0516,0.08272 0.11417,0.15807 0.186,0.224l0.388,0.353c0.10443,0.11797 0.20613,0.23833 0.305,0.361l0.147,0.17c0.026,0.03094 0.04879,0.06444 0.068,0.1l0.158,0.295l0.147,0.283l0.124,0.203l0.237,0.407c0.02355,0.04222 0.0417,0.08724 0.054,0.134l0.102,0.394c0.03142,0.1213 0.08535,0.23562 0.159,0.337l0.205,0.28l0.03,0.04c0.02298,0.02683 0.04309,0.05599 0.06,0.087c0.06125,0.18088 0.11794,0.36327 0.17,0.547c0.02254,0.06667 0.05863,0.12796 0.106,0.18c0.12,0.132 0.233,0.264 0.346,0.396c0.03917,0.04942 0.07084,0.10434 0.094,0.163l0.075,0.187c0.03648,0.09401 0.07381,0.18768 0.112,0.281l0.046,0.114l0.294,0.622l0.007,0.013c0.021,0.038 0.029,0.08 0.038,0.123l0.007,0.034l0.033,0.143v0.003l0.051,0.226l0.045,0.192c0.0288,0.09073 0.0588,0.18107 0.09,0.271c0.025,0.073 0.051,0.147 0.077,0.227c0.01658,0.05162 0.04013,0.10074 0.07,0.146c0.102,0.157 0.203,0.327 0.305,0.497c0.045,0.078 0.057,0.158 0.057,0.248v0.158l-0.002,0.032c-0.004,0.043 -0.008,0.086 -0.01,0.127c-0.00958,0.16972 0.03038,0.33857 0.115,0.486l0.138,0.248l0.02,0.039c0.00447,0.00976 0.00914,0.01943 0.014,0.029c0.01208,0.02473 0.02082,0.05096 0.026,0.078l0.01,0.035c0.01532,0.05048 0.02998,0.10115 0.044,0.152c0.01928,0.07017 0.04028,0.13986 0.063,0.209l0.024,0.077c0.02164,0.069 0.05012,0.13566 0.085,0.199c0.027,0.047 0.052,0.095 0.077,0.142c0.04224,0.0796 0.08558,0.1586 0.13,0.237l0.068,0.113c0.01667,0.02694 0.03073,0.0554 0.042,0.085c0.013,0.033 0.016,0.068 0.02,0.102c0.03439,0.22732 0.06639,0.455 0.096,0.683v0.203c0.009,0.105 0.011,0.217 0.011,0.325c0.00008,0.06172 0.00577,0.12331 0.017,0.184l0.017,0.09c0.03308,0.13899 0.06309,0.27869 0.09,0.419l0.147,0.62l0.226,0.712l0.124,0.622c0.01769,0.07367 0.03669,0.14701 0.057,0.22c0.01996,0.073 0.03863,0.14634 0.056,0.22l0.053,0.222c0.003,0.01 0.004,0.02 0.004,0.03v0.11c0.00004,0.01371 -0.00618,0.0267 -0.01689,0.03526c-0.01071,0.00857 -0.02474,0.01178 -0.03811,0.00874c-0.01196,-0.00232 -0.02435,0.0003 -0.03433,0.00728zM6.852,16.258c0,0.006 0.007,0.01 0.012,0.007c0.00249,-0.00144 0.00555,-0.00143 0.00803,0.00002c0.00248,0.00145 0.00399,0.00411 0.00397,0.00698v0.047c0.03,0.127 0.05,0.254 0.07,0.38c0.01,0.064 0.02,0.128 0.032,0.192c0.00926,0.07248 0.00138,0.14612 -0.023,0.215c-0.025,0.08 -0.05,0.156 -0.076,0.231c-0.04504,0.12412 -0.06871,0.25497 -0.07,0.387v0.263c0.00229,0.06698 -0.01361,0.13333 -0.046,0.192c-0.02351,0.05155 -0.04818,0.10256 -0.074,0.153l-0.011,0.023c-0.04069,0.08256 -0.0468,0.17792 -0.017,0.265c0.01874,0.06218 0.02652,0.12715 0.023,0.192c-0.045,0.418 -0.102,0.712 -0.181,0.881l-0.034,0.102l-0.045,0.113l-0.08,0.214c-0.06653,0.17834 -0.23766,0.2959 -0.428,0.294h-0.046c-0.20544,-0.02397 -0.37063,-0.18022 -0.406,-0.384l-0.045,-0.26l-0.023,-0.113l-0.008,-0.041c-0.01507,-0.06804 -0.02378,-0.13734 -0.026,-0.207l-0.009,-0.153c-0.004,-0.08 -0.007,-0.159 -0.016,-0.24c-0.00552,-0.04714 -0.00852,-0.09454 -0.009,-0.142v-0.008l0.023,-0.237v-0.262c0,-0.051 0.004,-0.102 0.01,-0.152l0.016,-0.124l0.003,-0.022c0.01673,-0.12997 0.01132,-0.26184 -0.016,-0.39l-0.008,-0.033l-0.025,-0.114c-0.01666,-0.07418 -0.02505,-0.14997 -0.025,-0.226v-0.358c-0.00018,-0.06924 -0.00755,-0.13828 -0.022,-0.206l-0.024,-0.112l-0.056,-0.238l-0.023,-0.067l-0.025,-0.085c-0.03147,-0.10724 -0.06581,-0.21361 -0.103,-0.319c-0.00481,-0.0119 -0.01015,-0.02358 -0.016,-0.035c-0.01721,-0.03139 -0.02713,-0.06625 -0.029,-0.102l-0.03,-0.171c-0.01104,-0.05235 -0.02038,-0.10504 -0.028,-0.158c-0.009,-0.054 -0.017,-0.108 -0.028,-0.158c-0.02269,-0.06987 -0.02269,-0.14513 0,-0.215l0.064,-0.217c0.03949,-0.13252 0.05107,-0.27178 0.034,-0.409l-0.03,-0.244c0,-0.098 -0.011,-0.206 -0.032,-0.315c-0.00178,-0.00822 -0.00278,-0.01659 -0.003,-0.025c0.00007,-0.02845 -0.00905,-0.05616 -0.026,-0.079l-0.065,-0.088c-0.0719,-0.10066 -0.14694,-0.19904 -0.225,-0.295c-0.05799,-0.0785 -0.08951,-0.17341 -0.09,-0.271v-0.197c-0.00019,-0.14584 -0.03227,-0.28987 -0.094,-0.422l-0.37,-0.793c-0.07505,-0.17495 -0.03888,-0.37777 0.092,-0.516c0.10796,-0.13374 0.13899,-0.31384 0.082,-0.476c-0.01011,-0.03151 -0.02248,-0.06226 -0.037,-0.092l-0.216,-0.43c-0.0406,-0.06372 -0.06019,-0.13856 -0.056,-0.214v-0.016c0.00019,-0.2311 -0.07967,-0.45513 -0.226,-0.634l-0.079,-0.096c-0.10093,-0.11882 -0.1348,-0.28068 -0.09,-0.43l0.05,-0.163c0.03333,-0.10314 0.01471,-0.21604 -0.05,-0.303c-0.04453,-0.05961 -0.08987,-0.11862 -0.136,-0.177c-0.07897,-0.09828 -0.11177,-0.22582 -0.09,-0.35l0.022,-0.147l0.013,-0.054c0.01663,-0.08033 -0.00947,-0.16355 -0.069,-0.22l-0.215,-0.223c-0.04475,-0.05361 -0.07931,-0.11496 -0.102,-0.181l-0.158,-0.52c-0.011,-0.068 -0.011,-0.135 -0.011,-0.203c0.005,-0.052 0.013,-0.107 0.02,-0.163c0.01908,-0.12717 -0.01571,-0.25655 -0.096,-0.357c-0.04584,-0.05707 -0.09217,-0.11374 -0.139,-0.17c-0.06068,-0.06891 -0.09627,-0.15631 -0.101,-0.248c-0.012,-0.18 -0.023,-0.361 -0.045,-0.542l-0.023,-0.18l-0.017,-0.148v-0.004c-0.01118,-0.09423 -0.03541,-0.18645 -0.072,-0.274l-0.001,-0.004c-0.04948,-0.1258 -0.10251,-0.25019 -0.159,-0.373l-0.146,-0.418c-0.08061,-0.20822 0.00752,-0.44381 0.205,-0.548c0.04153,-0.02347 0.0869,-0.03939 0.134,-0.047c0.027,-0.003 0.054,-0.003 0.079,-0.003c0.192,0 0.361,0.112 0.429,0.293l0.147,0.396c0.056,0.113 0.113,0.226 0.17,0.35c0.03,0.067 0.069,0.13 0.12,0.183l0.049,0.048c0.042,0.043 0.084,0.085 0.124,0.13l0.147,0.17c0.095,0.124 0.183,0.248 0.29,0.4l0.045,0.064c0.01,0.014 0.019,0.03 0.028,0.045c0.01,0.02 0.024,0.043 0.032,0.067l0.09,0.242c0.036,0.1 0.07,0.196 0.102,0.278l0.08,0.169l0.169,0.373c0.01952,0.04784 0.03133,0.09846 0.035,0.15l0.022,0.236c0.01392,0.14735 0.06037,0.28978 0.136,0.417l0.11,0.185c0.02234,0.03947 0.04237,0.08021 0.06,0.122c0.016,0.04 0.023,0.084 0.03,0.127l0.007,0.049c0.01805,0.10154 0.03539,0.20321 0.052,0.305c0,0.03 0.01,0.059 0.03,0.081c0.101,0.115 0.194,0.238 0.286,0.361c0.03731,0.04642 0.06425,0.1003 0.079,0.158l0.034,0.136c0.038,0.114 0.068,0.237 0.09,0.327l0.011,0.046l0.192,0.53c0.01388,0.05028 0.02226,0.10191 0.025,0.154l0.027,0.403c0.003,0.05048 0.01002,0.10064 0.021,0.15c0.018,0.078 0.035,0.157 0.052,0.243c0.01468,0.08219 0.04236,0.16152 0.082,0.235l0.035,0.064c0.058,0.106 0.114,0.208 0.165,0.31c0.045,0.102 0.068,0.215 0.045,0.317l-0.034,0.147c-0.02947,0.16087 -0.00924,0.32691 0.058,0.476l0.048,0.097c0.02,0.04 0.037,0.08 0.05,0.123l0.001,0.006c0.00844,0.02897 0.01544,0.05834 0.021,0.088l0.053,0.276c0.02,0.102 0.055,0.2 0.1,0.294l0.043,0.09v0.001c0.025,0.054 0.05,0.11 0.078,0.164l0.046,0.102c0.03205,0.05877 0.0476,0.12511 0.045,0.192v0.527c0.00005,0.04751 -0.00329,0.09497 -0.01,0.142l-0.013,0.088l-0.017,0.158l-0.006,0.054c-0.00705,0.06915 -0.00705,0.13885 0,0.208l0.034,0.36l0.068,0.485c0.017,0.062 0.031,0.127 0.045,0.192c0.015,0.065 0.029,0.13 0.046,0.192l0.056,0.237c0.022,0.143 0.033,0.287 0.044,0.44zM18.25,21.5c-2.06993,-0.00275 -3.74725,-1.68007 -3.75,-3.75c0.0022,-2.07015 1.67985,-3.7478 3.75,-3.75c2.07015,0.0022 3.7478,1.67985 3.75,3.75c-0.00275,2.06993 -1.68007,3.74725 -3.75,3.75zM20.186,18.507c0.092,-0.236 0.147,-0.49 0.147,-0.757c0,-1.149 -0.935,-2.083 -2.083,-2.083c-0.267,0 -0.522,0.055 -0.757,0.147zM18.25,19.833c0.268,0 0.522,-0.055 0.758,-0.148l-2.694,-2.694c-0.093,0.236 -0.148,0.491 -0.148,0.759c0.0011,1.1505 0.9335,2.0829 2.084,2.084z" fill="#62757e" fill-rule="nonzero"></path></g>
  </g>
 </g>
</svg>
