<?xml version="1.0" encoding="UTF-8"?>
<!--Generator: Apple Native CoreSVG 175.5-->
<!DOCTYPE svg
PUBLIC "-//W3C//DTD SVG 1.1//EN"
       "http://www.w3.org/Graphics/SVG/1.1/DTD/svg11.dtd">
<svg version="1.1" xmlns="http://www.w3.org/2000/svg" xmlns:xlink="http://www.w3.org/1999/xlink" width="3300" height="2200">
 <!--glyph: "", point size: 100.0, font version: "18.0d12e2", template writer version: "101"-->
 <g id="Notes">
  <rect height="2200" id="artboard" style="fill:white;opacity:1" width="3300" x="0" y="0"/>
  <line style="fill:none;stroke:black;opacity:1;stroke-width:0.5;" x1="263" x2="3036" y1="292" y2="292"/>
  <text style="stroke:none;fill:black;font-family:sans-serif;font-size:13;font-weight:bold;" transform="matrix(1 0 0 1 263 322)">Weight/Scale Variations</text>
  <text style="stroke:none;fill:black;font-family:sans-serif;font-size:13;text-anchor:middle;" transform="matrix(1 0 0 1 559.711 322)">Ultralight</text>
  <text style="stroke:none;fill:black;font-family:sans-serif;font-size:13;text-anchor:middle;" transform="matrix(1 0 0 1 856.422 322)">Thin</text>
  <text style="stroke:none;fill:black;font-family:sans-serif;font-size:13;text-anchor:middle;" transform="matrix(1 0 0 1 1153.13 322)">Light</text>
  <text style="stroke:none;fill:black;font-family:sans-serif;font-size:13;text-anchor:middle;" transform="matrix(1 0 0 1 1449.84 322)">Regular</text>
  <text style="stroke:none;fill:black;font-family:sans-serif;font-size:13;text-anchor:middle;" transform="matrix(1 0 0 1 1746.56 322)">Medium</text>
  <text style="stroke:none;fill:black;font-family:sans-serif;font-size:13;text-anchor:middle;" transform="matrix(1 0 0 1 2043.27 322)">Semibold</text>
  <text style="stroke:none;fill:black;font-family:sans-serif;font-size:13;text-anchor:middle;" transform="matrix(1 0 0 1 2339.98 322)">Bold</text>
  <text style="stroke:none;fill:black;font-family:sans-serif;font-size:13;text-anchor:middle;" transform="matrix(1 0 0 1 2636.69 322)">Heavy</text>
  <text style="stroke:none;fill:black;font-family:sans-serif;font-size:13;text-anchor:middle;" transform="matrix(1 0 0 1 2933.4 322)">Black</text>
  <line style="fill:none;stroke:black;opacity:1;stroke-width:0.5;" x1="263" x2="3036" y1="1903" y2="1903"/>
  <g transform="matrix(1 0 0 1 263 1933)">
   <path d="M9.24805 0.830078C13.5547 0.830078 17.1387-2.74414 17.1387-7.05078C17.1387-11.3574 13.5449-14.9316 9.23828-14.9316C4.94141-14.9316 1.36719-11.3574 1.36719-7.05078C1.36719-2.74414 4.95117 0.830078 9.24805 0.830078ZM9.24805-0.654297C5.70312-0.654297 2.87109-3.49609 2.87109-7.05078C2.87109-10.6055 5.69336-13.4473 9.23828-13.4473C12.793-13.4473 15.6445-10.6055 15.6445-7.05078C15.6445-3.49609 12.8027-0.654297 9.24805-0.654297ZM5.6543-7.05078C5.6543-6.62109 5.95703-6.32812 6.40625-6.32812L8.50586-6.32812L8.50586-4.20898C8.50586-3.76953 8.79883-3.4668 9.22852-3.4668C9.67773-3.4668 9.9707-3.76953 9.9707-4.20898L9.9707-6.32812L12.0898-6.32812C12.5293-6.32812 12.832-6.62109 12.832-7.05078C12.832-7.49023 12.5293-7.79297 12.0898-7.79297L9.9707-7.79297L9.9707-9.90234C9.9707-10.3516 9.67773-10.6543 9.22852-10.6543C8.79883-10.6543 8.50586-10.3516 8.50586-9.90234L8.50586-7.79297L6.40625-7.79297C5.95703-7.79297 5.6543-7.49023 5.6543-7.05078Z"/>
  </g>
  <g transform="matrix(1 0 0 1 281.867 1933)">
   <path d="M11.709 2.91016C17.1582 2.91016 21.6699-1.61133 21.6699-7.05078C21.6699-12.5 17.1484-17.0117 11.6992-17.0117C6.25977-17.0117 1.74805-12.5 1.74805-7.05078C1.74805-1.61133 6.26953 2.91016 11.709 2.91016ZM11.709 1.25C7.09961 1.25 3.41797-2.44141 3.41797-7.05078C3.41797-11.6602 7.08984-15.3516 11.6992-15.3516C16.3086-15.3516 20.0098-11.6602 20.0098-7.05078C20.0098-2.44141 16.3184 1.25 11.709 1.25ZM7.17773-7.05078C7.17773-6.57227 7.50977-6.25 8.00781-6.25L10.8789-6.25L10.8789-3.36914C10.8789-2.88086 11.2109-2.53906 11.6895-2.53906C12.1777-2.53906 12.5195-2.87109 12.5195-3.36914L12.5195-6.25L15.4004-6.25C15.8887-6.25 16.2305-6.57227 16.2305-7.05078C16.2305-7.53906 15.8887-7.88086 15.4004-7.88086L12.5195-7.88086L12.5195-10.752C12.5195-11.25 12.1777-11.5918 11.6895-11.5918C11.2109-11.5918 10.8789-11.25 10.8789-10.752L10.8789-7.88086L8.00781-7.88086C7.50977-7.88086 7.17773-7.53906 7.17773-7.05078Z"/>
  </g>
  <g transform="matrix(1 0 0 1 305.646 1933)">
   <path d="M14.9707 5.66406C21.9336 5.66406 27.6953-0.0976562 27.6953-7.05078C27.6953-14.0137 21.9238-19.7754 14.9609-19.7754C8.00781-19.7754 2.25586-14.0137 2.25586-7.05078C2.25586-0.0976562 8.01758 5.66406 14.9707 5.66406ZM14.9707 3.84766C8.93555 3.84766 4.08203-1.01562 4.08203-7.05078C4.08203-13.0957 8.92578-17.9492 14.9609-17.9492C21.0059-17.9492 25.8691-13.0957 25.8691-7.05078C25.8691-1.01562 21.0156 3.84766 14.9707 3.84766ZM9.19922-7.05078C9.19922-6.5332 9.57031-6.17188 10.1172-6.17188L14.0625-6.17188L14.0625-2.2168C14.0625-1.67969 14.4336-1.29883 14.9512-1.29883C15.4883-1.29883 15.8594-1.66992 15.8594-2.2168L15.8594-6.17188L19.8145-6.17188C20.3516-6.17188 20.7324-6.5332 20.7324-7.05078C20.7324-7.59766 20.3613-7.96875 19.8145-7.96875L15.8594-7.96875L15.8594-11.9141C15.8594-12.4609 15.4883-12.8418 14.9512-12.8418C14.4336-12.8418 14.0625-12.4609 14.0625-11.9141L14.0625-7.96875L10.1172-7.96875C9.57031-7.96875 9.19922-7.59766 9.19922-7.05078Z"/>
  </g>
  <text style="stroke:none;fill:black;font-family:sans-serif;font-size:13;font-weight:bold;" transform="matrix(1 0 0 1 263 1953)">Design Variations</text>
  <text style="stroke:none;fill:black;font-family:sans-serif;font-size:13;" transform="matrix(1 0 0 1 263 1971)">Symbols are supported in up to nine weights and three scales.</text>
  <text style="stroke:none;fill:black;font-family:sans-serif;font-size:13;" transform="matrix(1 0 0 1 263 1989)">For optimal layout with text and other symbols, vertically align</text>
  <text style="stroke:none;fill:black;font-family:sans-serif;font-size:13;" transform="matrix(1 0 0 1 263 2007)">symbols with the adjacent text.</text>
  <line style="fill:none;stroke:#00AEEF;stroke-width:0.5;opacity:1.0;" x1="776" x2="776" y1="1919" y2="1933"/>
  <g transform="matrix(1 0 0 1 776 1933)">
   <path d="M3.31055 0.15625C3.82812 0.15625 4.08203-0.0390625 4.26758-0.585938L5.52734-4.0332L11.2891-4.0332L12.5488-0.585938C12.7344-0.0390625 12.9883 0.15625 13.4961 0.15625C14.0137 0.15625 14.3457-0.15625 14.3457-0.644531C14.3457-0.810547 14.3164-0.966797 14.2383-1.17188L9.6582-13.3691C9.43359-13.9648 9.0332-14.2676 8.4082-14.2676C7.80273-14.2676 7.39258-13.9746 7.17773-13.3789L2.59766-1.16211C2.51953-0.957031 2.49023-0.800781 2.49023-0.634766C2.49023-0.146484 2.80273 0.15625 3.31055 0.15625ZM6.00586-5.51758L8.37891-12.0898L8.42773-12.0898L10.8008-5.51758Z"/>
  </g>
  <line style="fill:none;stroke:#00AEEF;stroke-width:0.5;opacity:1.0;" x1="793.197" x2="793.197" y1="1919" y2="1933"/>
  <text style="stroke:none;fill:black;font-family:sans-serif;font-size:13;font-weight:bold;" transform="matrix(1 0 0 1 776 1953)">Margins</text>
  <text style="stroke:none;fill:black;font-family:sans-serif;font-size:13;" transform="matrix(1 0 0 1 776 1971)">Leading and trailing margins on the left and right side of each symbol</text>
  <text style="stroke:none;fill:black;font-family:sans-serif;font-size:13;" transform="matrix(1 0 0 1 776 1989)">can be adjusted by modifying the x-location of the margin guidelines.</text>
  <text style="stroke:none;fill:black;font-family:sans-serif;font-size:13;" transform="matrix(1 0 0 1 776 2007)">Modifications are automatically applied proportionally to all</text>
  <text style="stroke:none;fill:black;font-family:sans-serif;font-size:13;" transform="matrix(1 0 0 1 776 2025)">scales and weights.</text>
  <g transform="matrix(1 0 0 1 1289 1933)">
   <path d="M2.8418 1.86523L4.54102 3.57422C5.40039 4.44336 6.38672 4.38477 7.31445 3.35938L18.0078-8.42773L17.041-9.4043L6.42578 2.27539C6.07422 2.67578 5.74219 2.77344 5.27344 2.30469L4.10156 1.14258C3.63281 0.683594 3.74023 0.341797 4.14062-0.0195312L15.6152-10.8203L14.6387-11.7871L3.04688-0.898438C2.06055 0.0195312 1.98242 0.996094 2.8418 1.86523ZM9.25781-16.3281C8.83789-15.918 8.80859-15.3418 9.04297-14.9512C9.27734-14.5898 9.73633-14.3555 10.3809-14.5215C11.8457-14.8633 13.3691-14.9219 14.7949-13.9844L14.209-12.5293C13.8672-11.6992 14.043-11.1133 14.5801-10.5664L16.875-8.25195C17.3633-7.76367 17.7734-7.74414 18.3398-7.8418L19.4043-8.03711L20.0684-7.36328L20.0293-6.80664C19.9902-6.30859 20.1172-5.92773 20.6055-5.44922L21.3672-4.70703C21.8457-4.22852 22.4609-4.19922 22.9297-4.66797L25.8398-7.58789C26.3086-8.05664 26.2891-8.65234 25.8105-9.13086L25.0391-9.89258C24.5605-10.3711 24.1895-10.5273 23.7109-10.4883L23.1348-10.4395L22.4902-11.0742L22.7344-12.1973C22.8613-12.7637 22.7051-13.2031 22.1191-13.7891L19.9219-15.9766C16.582-19.2969 12.1484-19.2188 9.25781-16.3281ZM10.752-15.957C13.1836-17.7344 16.4746-17.4316 18.7012-15.2051L21.1328-12.793C21.3672-12.5586 21.4062-12.373 21.3379-12.0312L21.0156-10.5469L22.5195-9.0625L23.5059-9.12109C23.7598-9.13086 23.8379-9.11133 24.0332-8.91602L24.6094-8.33984L22.168-5.89844L21.5918-6.47461C21.3965-6.66992 21.3672-6.74805 21.377-7.01172L21.4453-7.98828L19.9512-9.47266L18.4277-9.21875C18.1055-9.15039 17.959-9.17969 17.7148-9.41406L15.7129-11.416C15.459-11.6504 15.4297-11.8164 15.5859-12.1875L16.4648-14.2773C14.9023-15.7324 12.8711-16.3574 10.8398-15.7617C10.6836-15.7227 10.625-15.8496 10.752-15.957Z"/>
  </g>
  <text style="stroke:none;fill:black;font-family:sans-serif;font-size:13;font-weight:bold;" transform="matrix(1 0 0 1 1289 1953)">Exporting</text>
  <text style="stroke:none;fill:black;font-family:sans-serif;font-size:13;" transform="matrix(1 0 0 1 1289 1971)">Symbols should be outlined when exporting to ensure the</text>
  <text style="stroke:none;fill:black;font-family:sans-serif;font-size:13;" transform="matrix(1 0 0 1 1289 1989)">design is preserved when submitting to Xcode.</text>
  <text id="template-version" style="stroke:none;fill:black;font-family:sans-serif;font-size:13;text-anchor:end;" transform="matrix(1 0 0 1 3036 1933)">Template v.4.0</text>
  <text style="stroke:none;fill:black;font-family:sans-serif;font-size:13;text-anchor:end;" transform="matrix(1 0 0 1 3036 1951)">Requires Xcode 14 or greater</text>
  <text id="descriptive-name" style="stroke:none;fill:black;font-family:sans-serif;font-size:13;text-anchor:end;" transform="matrix(1 0 0 1 3036 1969)">Generated from brave.zzz</text>
  <text style="stroke:none;fill:black;font-family:sans-serif;font-size:13;text-anchor:end;" transform="matrix(1 0 0 1 3036 1987)">Typeset at 100 points</text>
  <text style="stroke:none;fill:black;font-family:sans-serif;font-size:13;" transform="matrix(1 0 0 1 263 726)">Small</text>
  <text style="stroke:none;fill:black;font-family:sans-serif;font-size:13;" transform="matrix(1 0 0 1 263 1156)">Medium</text>
  <text style="stroke:none;fill:black;font-family:sans-serif;font-size:13;" transform="matrix(1 0 0 1 263 1586)">Large</text>
 </g>
 <g id="Guides">
  <g id="H-reference" style="fill:#27AAE1;stroke:none;" transform="matrix(1 0 0 1 339 696)">
   <path d="M0.993654 0L3.63775 0L29.3281-67.1323L30.0303-67.1323L30.0303-70.459L28.1226-70.459ZM11.6885-24.4799L46.9815-24.4799L46.2315-26.7285L12.4385-26.7285ZM55.1196 0L57.7637 0L30.6382-70.459L29.4326-70.459L29.4326-67.1323Z"/>
  </g>
  <line id="Baseline-S" style="fill:none;stroke:#27AAE1;opacity:1;stroke-width:0.5;" x1="263" x2="3036" y1="696" y2="696"/>
  <line id="Capline-S" style="fill:none;stroke:#27AAE1;opacity:1;stroke-width:0.5;" x1="263" x2="3036" y1="625.541" y2="625.541"/>
  <g id="H-reference" style="fill:#27AAE1;stroke:none;" transform="matrix(1 0 0 1 339 1126)">
   <path d="M0.993654 0L3.63775 0L29.3281-67.1323L30.0303-67.1323L30.0303-70.459L28.1226-70.459ZM11.6885-24.4799L46.9815-24.4799L46.2315-26.7285L12.4385-26.7285ZM55.1196 0L57.7637 0L30.6382-70.459L29.4326-70.459L29.4326-67.1323Z"/>
  </g>
  <line id="Baseline-M" style="fill:none;stroke:#27AAE1;opacity:1;stroke-width:0.5;" x1="263" x2="3036" y1="1126" y2="1126"/>
  <line id="Capline-M" style="fill:none;stroke:#27AAE1;opacity:1;stroke-width:0.5;" x1="263" x2="3036" y1="1055.54" y2="1055.54"/>
  <g id="H-reference" style="fill:#27AAE1;stroke:none;" transform="matrix(1 0 0 1 339 1556)">
   <path d="M0.993654 0L3.63775 0L29.3281-67.1323L30.0303-67.1323L30.0303-70.459L28.1226-70.459ZM11.6885-24.4799L46.9815-24.4799L46.2315-26.7285L12.4385-26.7285ZM55.1196 0L57.7637 0L30.6382-70.459L29.4326-70.459L29.4326-67.1323Z"/>
  </g>
  <line id="Baseline-L" style="fill:none;stroke:#27AAE1;opacity:1;stroke-width:0.5;" x1="263" x2="3036" y1="1556" y2="1556"/>
  <line id="Capline-L" style="fill:none;stroke:#27AAE1;opacity:1;stroke-width:0.5;" x1="263" x2="3036" y1="1485.54" y2="1485.54"/>
  <line id="left-margin-Regular-M" style="fill:none;stroke:#00AEEF;stroke-width:0.5;opacity:1.0;" x1="1389.82" x2="1389.82" y1="1030.79" y2="1150.12"/>
  <line id="right-margin-Regular-M" style="fill:none;stroke:#00AEEF;stroke-width:0.5;opacity:1.0;" x1="1509.87" x2="1509.87" y1="1030.79" y2="1150.12"/>
 </g>
 <g id="Symbols">
  <g id="Regular-L" transform="matrix(6.45 0 0 6.45 1372.2675 1443)">
    <defs><clipPath id="clip-1"><rect x="0" y="0" width="24" height="24" fill="none" fill-rule="nonzero"></rect></clipPath></defs>
<g clip-path="url(#clip-1)" fill="none" fill-rule="none" stroke="none" stroke-width="1" stroke-linecap="butt" stroke-linejoin="miter" stroke-miterlimit="10" stroke-dasharray="" stroke-dashoffset="0" font-family="none" font-weight="none" font-size="none" text-anchor="none" style="mix-blend-mode: normal"><path d="M20.497,8.797c0.02693,-0.10236 0.02205,-0.21049 -0.014,-0.31l-0.504,-1.387l0.335,-0.755c0.12785,-0.28975 0.06603,-0.62817 -0.156,-0.854l-1.11,-1.136c-0.61262,-0.63269 -1.53495,-0.85577 -2.369,-0.573l-1.436,-1.586c-0.09766,-0.10826 -0.23621,-0.17064 -0.382,-0.172l-2.865,-0.024l-2.857,0.023c-0.14579,0.00136 -0.28434,0.06374 -0.382,0.172l-1.435,1.585c-0.83471,-0.28295 -1.75776,-0.05901 -2.37,0.575l-1.112,1.137c-0.22074,0.22492 -0.28214,0.56164 -0.155,0.85l0.336,0.757l-0.504,1.389c-0.03605,0.09951 -0.04093,0.20764 -0.014,0.31l0.373,1.43l1.697,6.52c0.22441,0.86691 0.74474,1.62813 1.471,2.152l0.302,0.214c1.23175,0.86828 2.47622,1.71837 3.733,2.55l0.077,0.05c0.279,0.185 0.547,0.288 0.847,0.286c0.294,0.002 0.565,-0.102 0.844,-0.287l0.074,-0.049l0.445,-0.294c1.20871,-0.80438 2.40485,-1.62748 3.588,-2.469c0.7272,-0.52379 1.24828,-1.28543 1.473,-2.153l1.697,-6.521zM18.927,7.257l0.52,1.434l-0.331,1.273l-1.697,6.522c-0.16349,0.63171 -0.5427,1.18638 -1.072,1.568c-0.36012,0.25733 -0.72213,0.512 -1.086,0.764c-0.96232,0.67056 -1.93306,1.32895 -2.912,1.975l-0.076,0.05c-0.124,0.082 -0.21,0.115 -0.27,0.115c-0.066,0 -0.15,-0.032 -0.275,-0.114l-0.077,-0.05l-0.44,-0.292c-1.19927,-0.79786 -2.38608,-1.61429 -3.56,-2.449c-0.52848,-0.38158 -0.90697,-0.93588 -1.07,-1.567l-1.696,-6.521l-0.333,-1.275l0.52,-1.434c0.04608,-0.12648 0.04142,-0.26588 -0.013,-0.389l-0.346,-0.778l0.985,-1.008c0.33679,-0.34924 0.84631,-0.46998 1.304,-0.309l0.297,0.106c0.199,0.071 0.42,0.015 0.562,-0.14l1.515,-1.675l2.628,-0.022l2.62,0.022l1.516,1.674c0.14151,0.15644 0.3634,0.21211 0.562,0.141l0.298,-0.105c0.45716,-0.16158 0.96657,-0.04117 1.303,0.308l0.985,1.009l-0.346,0.778c-0.05469,0.12341 -0.05935,0.26322 -0.013,0.39zM14.543,15.457l-0.932,-0.49c-0.1876,-0.09636 -0.37837,-0.18641 -0.572,-0.27l-0.507,-0.213c-0.10798,-0.04876 -0.21925,-0.08986 -0.333,-0.123h-0.136c-0.023,0 -0.173,0.056 -0.333,0.123l-0.507,0.212c-0.16,0.069 -0.418,0.19 -0.572,0.271l-0.93,0.49c-0.156,0.08 -0.165,0.231 -0.024,0.332l0.808,0.577c0.143,0.102 0.367,0.279 0.498,0.394l0.228,0.199c0.13,0.113 0.346,0.303 0.476,0.419l0.216,0.194c0.05834,0.05004 0.13131,0.07986 0.208,0.085c0.07732,-0.005 0.15097,-0.03481 0.21,-0.085l0.214,-0.194c0.15807,-0.14106 0.31707,-0.28106 0.477,-0.42l0.228,-0.198c0.131,-0.115 0.354,-0.292 0.497,-0.394l0.808,-0.577c0.142,-0.1 0.132,-0.251 -0.022,-0.331zM17.456,7.449c-0.098,-0.145 -0.266,-0.377 -0.374,-0.514l-0.703,-0.892c-0.11,-0.138 -0.204,-0.248 -0.21,-0.248c-0.10903,0.01726 -0.21771,0.03659 -0.326,0.058l-1.079,0.209c-0.17,0.034 -0.382,0.075 -0.47,0.09c-0.089,0.017 -0.297,-0.012 -0.462,-0.067l-0.85,-0.279c-0.166,-0.054 -0.44,-0.13 -0.61,-0.17c0,0 -0.068,-0.017 -0.241,-0.015c-0.173,-0.002 -0.241,0.016 -0.241,0.016c-0.17,0.038 -0.443,0.115 -0.61,0.17l-0.85,0.278c-0.165,0.055 -0.373,0.084 -0.461,0.067c-0.089,-0.015 -0.301,-0.056 -0.472,-0.09l-1.077,-0.209c-0.172,-0.033 -0.312,-0.058 -0.312,-0.058h-0.014c-0.07566,0.0777 -0.14583,0.16057 -0.21,0.248l-0.703,0.892c-0.109,0.137 -0.278,0.369 -0.375,0.514l-0.522,0.78c-0.0902,0.13472 -0.17299,0.27426 -0.248,0.418c-0.039,0.084 -0.074,0.396 -0.072,0.494l0.027,0.086c0.042,0.151 0.049,0.16 0.049,0.16c0.13266,0.16514 0.27108,0.32557 0.415,0.481l1.842,1.977c0.12235,0.1471 0.15773,0.34795 0.093,0.528l-0.302,0.72c-0.0683,0.19176 -0.07286,0.40044 -0.013,0.595l0.06,0.168c0.09926,0.2713 0.2691,0.51122 0.492,0.695l0.289,0.238c0.15341,0.11232 0.35426,0.13658 0.53,0.064l1.029,-0.497c0.18686,-0.09518 0.36148,-0.21271 0.52,-0.35l0.823,-0.75c0.06679,-0.06088 0.10624,-0.14611 0.10944,-0.23643c0.0032,-0.09032 -0.03012,-0.17812 -0.09244,-0.24357l-1.858,-1.264c-0.14535,-0.1054 -0.19279,-0.30066 -0.112,-0.461l0.72,-1.369c0.0822,-0.16982 0.09476,-0.36505 0.035,-0.544c-0.08927,-0.16822 -0.23368,-0.30062 -0.409,-0.375l-2.26,-0.861c-0.162,-0.063 -0.153,-0.127 0.02,-0.143l1.325,-0.127c0.20827,-0.01392 0.41743,0.00463 0.62,0.055l1.155,0.326c0.17044,0.05336 0.276,0.22361 0.248,0.4l-0.454,2.502c-0.032,0.173 -0.042,0.363 -0.022,0.423c0.019,0.059 0.173,0.138 0.343,0.176l0.702,0.15c0.08008,0.01565 0.16141,0.02402 0.243,0.025c0.08129,-0.00125 0.1623,-0.00995 0.242,-0.026l0.703,-0.15c0.17,-0.037 0.325,-0.115 0.345,-0.175c0.018,-0.06 0.007,-0.25 -0.023,-0.423l-0.454,-2.503c-0.02993,-0.17647 0.07582,-0.34772 0.247,-0.4l1.155,-0.325c0.20257,-0.05032 0.41173,-0.06887 0.62,-0.055l1.325,0.127c0.174,0.016 0.182,0.081 0.02,0.143l-2.258,0.861c-0.17614,0.07348 -0.32114,0.2061 -0.41,0.375c-0.063,0.145 -0.046,0.389 0.035,0.543l0.72,1.37c0.07994,0.16086 0.0317,0.35594 -0.114,0.461l-1.857,1.264c-0.062,0.06541 -0.09513,0.15299 -0.09193,0.24306c0.0032,0.09007 0.04245,0.17508 0.10893,0.23594l0.823,0.752c0.15832,0.13756 0.33296,0.25511 0.52,0.35l1.029,0.496c0.17574,0.07258 0.37659,0.04832 0.53,-0.064l0.29,-0.238c0.22263,-0.1836 0.39186,-0.42363 0.49,-0.695l0.062,-0.168c0.05922,-0.19477 0.05396,-0.40346 -0.015,-0.595l-0.301,-0.72c-0.06445,-0.18022 -0.02869,-0.3811 0.094,-0.528l1.842,-1.977c0.119,-0.127 0.305,-0.344 0.415,-0.481c0,0 0.005,-0.009 0.048,-0.16l0.026,-0.086c0.003,-0.098 -0.031,-0.409 -0.07,-0.494c-0.04,-0.084 -0.152,-0.272 -0.25,-0.418z" fill="#666d89" fill-rule="nonzero"></path></g>
  </g>
  <g id="Regular-M" transform="matrix(5 0 0 5 1389.82 1030)">
    <defs><clipPath id="clip-1"><rect x="0" y="0" width="24" height="24" fill="none" fill-rule="nonzero"></rect></clipPath></defs>
<g clip-path="url(#clip-1)" fill="none" fill-rule="none" stroke="none" stroke-width="1" stroke-linecap="butt" stroke-linejoin="miter" stroke-miterlimit="10" stroke-dasharray="" stroke-dashoffset="0" font-family="none" font-weight="none" font-size="none" text-anchor="none" style="mix-blend-mode: normal"><path d="M20.497,8.797c0.02693,-0.10236 0.02205,-0.21049 -0.014,-0.31l-0.504,-1.387l0.335,-0.755c0.12785,-0.28975 0.06603,-0.62817 -0.156,-0.854l-1.11,-1.136c-0.61262,-0.63269 -1.53495,-0.85577 -2.369,-0.573l-1.436,-1.586c-0.09766,-0.10826 -0.23621,-0.17064 -0.382,-0.172l-2.865,-0.024l-2.857,0.023c-0.14579,0.00136 -0.28434,0.06374 -0.382,0.172l-1.435,1.585c-0.83471,-0.28295 -1.75776,-0.05901 -2.37,0.575l-1.112,1.137c-0.22074,0.22492 -0.28214,0.56164 -0.155,0.85l0.336,0.757l-0.504,1.389c-0.03605,0.09951 -0.04093,0.20764 -0.014,0.31l0.373,1.43l1.697,6.52c0.22441,0.86691 0.74474,1.62813 1.471,2.152l0.302,0.214c1.23175,0.86828 2.47622,1.71837 3.733,2.55l0.077,0.05c0.279,0.185 0.547,0.288 0.847,0.286c0.294,0.002 0.565,-0.102 0.844,-0.287l0.074,-0.049l0.445,-0.294c1.20871,-0.80438 2.40485,-1.62748 3.588,-2.469c0.7272,-0.52379 1.24828,-1.28543 1.473,-2.153l1.697,-6.521zM18.927,7.257l0.52,1.434l-0.331,1.273l-1.697,6.522c-0.16349,0.63171 -0.5427,1.18638 -1.072,1.568c-0.36012,0.25733 -0.72213,0.512 -1.086,0.764c-0.96232,0.67056 -1.93306,1.32895 -2.912,1.975l-0.076,0.05c-0.124,0.082 -0.21,0.115 -0.27,0.115c-0.066,0 -0.15,-0.032 -0.275,-0.114l-0.077,-0.05l-0.44,-0.292c-1.19927,-0.79786 -2.38608,-1.61429 -3.56,-2.449c-0.52848,-0.38158 -0.90697,-0.93588 -1.07,-1.567l-1.696,-6.521l-0.333,-1.275l0.52,-1.434c0.04608,-0.12648 0.04142,-0.26588 -0.013,-0.389l-0.346,-0.778l0.985,-1.008c0.33679,-0.34924 0.84631,-0.46998 1.304,-0.309l0.297,0.106c0.199,0.071 0.42,0.015 0.562,-0.14l1.515,-1.675l2.628,-0.022l2.62,0.022l1.516,1.674c0.14151,0.15644 0.3634,0.21211 0.562,0.141l0.298,-0.105c0.45716,-0.16158 0.96657,-0.04117 1.303,0.308l0.985,1.009l-0.346,0.778c-0.05469,0.12341 -0.05935,0.26322 -0.013,0.39zM14.543,15.457l-0.932,-0.49c-0.1876,-0.09636 -0.37837,-0.18641 -0.572,-0.27l-0.507,-0.213c-0.10798,-0.04876 -0.21925,-0.08986 -0.333,-0.123h-0.136c-0.023,0 -0.173,0.056 -0.333,0.123l-0.507,0.212c-0.16,0.069 -0.418,0.19 -0.572,0.271l-0.93,0.49c-0.156,0.08 -0.165,0.231 -0.024,0.332l0.808,0.577c0.143,0.102 0.367,0.279 0.498,0.394l0.228,0.199c0.13,0.113 0.346,0.303 0.476,0.419l0.216,0.194c0.05834,0.05004 0.13131,0.07986 0.208,0.085c0.07732,-0.005 0.15097,-0.03481 0.21,-0.085l0.214,-0.194c0.15807,-0.14106 0.31707,-0.28106 0.477,-0.42l0.228,-0.198c0.131,-0.115 0.354,-0.292 0.497,-0.394l0.808,-0.577c0.142,-0.1 0.132,-0.251 -0.022,-0.331zM17.456,7.449c-0.098,-0.145 -0.266,-0.377 -0.374,-0.514l-0.703,-0.892c-0.11,-0.138 -0.204,-0.248 -0.21,-0.248c-0.10903,0.01726 -0.21771,0.03659 -0.326,0.058l-1.079,0.209c-0.17,0.034 -0.382,0.075 -0.47,0.09c-0.089,0.017 -0.297,-0.012 -0.462,-0.067l-0.85,-0.279c-0.166,-0.054 -0.44,-0.13 -0.61,-0.17c0,0 -0.068,-0.017 -0.241,-0.015c-0.173,-0.002 -0.241,0.016 -0.241,0.016c-0.17,0.038 -0.443,0.115 -0.61,0.17l-0.85,0.278c-0.165,0.055 -0.373,0.084 -0.461,0.067c-0.089,-0.015 -0.301,-0.056 -0.472,-0.09l-1.077,-0.209c-0.172,-0.033 -0.312,-0.058 -0.312,-0.058h-0.014c-0.07566,0.0777 -0.14583,0.16057 -0.21,0.248l-0.703,0.892c-0.109,0.137 -0.278,0.369 -0.375,0.514l-0.522,0.78c-0.0902,0.13472 -0.17299,0.27426 -0.248,0.418c-0.039,0.084 -0.074,0.396 -0.072,0.494l0.027,0.086c0.042,0.151 0.049,0.16 0.049,0.16c0.13266,0.16514 0.27108,0.32557 0.415,0.481l1.842,1.977c0.12235,0.1471 0.15773,0.34795 0.093,0.528l-0.302,0.72c-0.0683,0.19176 -0.07286,0.40044 -0.013,0.595l0.06,0.168c0.09926,0.2713 0.2691,0.51122 0.492,0.695l0.289,0.238c0.15341,0.11232 0.35426,0.13658 0.53,0.064l1.029,-0.497c0.18686,-0.09518 0.36148,-0.21271 0.52,-0.35l0.823,-0.75c0.06679,-0.06088 0.10624,-0.14611 0.10944,-0.23643c0.0032,-0.09032 -0.03012,-0.17812 -0.09244,-0.24357l-1.858,-1.264c-0.14535,-0.1054 -0.19279,-0.30066 -0.112,-0.461l0.72,-1.369c0.0822,-0.16982 0.09476,-0.36505 0.035,-0.544c-0.08927,-0.16822 -0.23368,-0.30062 -0.409,-0.375l-2.26,-0.861c-0.162,-0.063 -0.153,-0.127 0.02,-0.143l1.325,-0.127c0.20827,-0.01392 0.41743,0.00463 0.62,0.055l1.155,0.326c0.17044,0.05336 0.276,0.22361 0.248,0.4l-0.454,2.502c-0.032,0.173 -0.042,0.363 -0.022,0.423c0.019,0.059 0.173,0.138 0.343,0.176l0.702,0.15c0.08008,0.01565 0.16141,0.02402 0.243,0.025c0.08129,-0.00125 0.1623,-0.00995 0.242,-0.026l0.703,-0.15c0.17,-0.037 0.325,-0.115 0.345,-0.175c0.018,-0.06 0.007,-0.25 -0.023,-0.423l-0.454,-2.503c-0.02993,-0.17647 0.07582,-0.34772 0.247,-0.4l1.155,-0.325c0.20257,-0.05032 0.41173,-0.06887 0.62,-0.055l1.325,0.127c0.174,0.016 0.182,0.081 0.02,0.143l-2.258,0.861c-0.17614,0.07348 -0.32114,0.2061 -0.41,0.375c-0.063,0.145 -0.046,0.389 0.035,0.543l0.72,1.37c0.07994,0.16086 0.0317,0.35594 -0.114,0.461l-1.857,1.264c-0.062,0.06541 -0.09513,0.15299 -0.09193,0.24306c0.0032,0.09007 0.04245,0.17508 0.10893,0.23594l0.823,0.752c0.15832,0.13756 0.33296,0.25511 0.52,0.35l1.029,0.496c0.17574,0.07258 0.37659,0.04832 0.53,-0.064l0.29,-0.238c0.22263,-0.1836 0.39186,-0.42363 0.49,-0.695l0.062,-0.168c0.05922,-0.19477 0.05396,-0.40346 -0.015,-0.595l-0.301,-0.72c-0.06445,-0.18022 -0.02869,-0.3811 0.094,-0.528l1.842,-1.977c0.119,-0.127 0.305,-0.344 0.415,-0.481c0,0 0.005,-0.009 0.048,-0.16l0.026,-0.086c0.003,-0.098 -0.031,-0.409 -0.07,-0.494c-0.04,-0.084 -0.152,-0.272 -0.25,-0.418z" fill="#666d89" fill-rule="nonzero"></path></g>
  </g>
  <g id="Regular-S" transform="matrix(3.915 0 0 3.915 1402.75 614)">
    <defs><clipPath id="clip-1"><rect x="0" y="0" width="24" height="24" fill="none" fill-rule="nonzero"></rect></clipPath></defs>
<g clip-path="url(#clip-1)" fill="none" fill-rule="none" stroke="none" stroke-width="1" stroke-linecap="butt" stroke-linejoin="miter" stroke-miterlimit="10" stroke-dasharray="" stroke-dashoffset="0" font-family="none" font-weight="none" font-size="none" text-anchor="none" style="mix-blend-mode: normal"><path d="M20.497,8.797c0.02693,-0.10236 0.02205,-0.21049 -0.014,-0.31l-0.504,-1.387l0.335,-0.755c0.12785,-0.28975 0.06603,-0.62817 -0.156,-0.854l-1.11,-1.136c-0.61262,-0.63269 -1.53495,-0.85577 -2.369,-0.573l-1.436,-1.586c-0.09766,-0.10826 -0.23621,-0.17064 -0.382,-0.172l-2.865,-0.024l-2.857,0.023c-0.14579,0.00136 -0.28434,0.06374 -0.382,0.172l-1.435,1.585c-0.83471,-0.28295 -1.75776,-0.05901 -2.37,0.575l-1.112,1.137c-0.22074,0.22492 -0.28214,0.56164 -0.155,0.85l0.336,0.757l-0.504,1.389c-0.03605,0.09951 -0.04093,0.20764 -0.014,0.31l0.373,1.43l1.697,6.52c0.22441,0.86691 0.74474,1.62813 1.471,2.152l0.302,0.214c1.23175,0.86828 2.47622,1.71837 3.733,2.55l0.077,0.05c0.279,0.185 0.547,0.288 0.847,0.286c0.294,0.002 0.565,-0.102 0.844,-0.287l0.074,-0.049l0.445,-0.294c1.20871,-0.80438 2.40485,-1.62748 3.588,-2.469c0.7272,-0.52379 1.24828,-1.28543 1.473,-2.153l1.697,-6.521zM18.927,7.257l0.52,1.434l-0.331,1.273l-1.697,6.522c-0.16349,0.63171 -0.5427,1.18638 -1.072,1.568c-0.36012,0.25733 -0.72213,0.512 -1.086,0.764c-0.96232,0.67056 -1.93306,1.32895 -2.912,1.975l-0.076,0.05c-0.124,0.082 -0.21,0.115 -0.27,0.115c-0.066,0 -0.15,-0.032 -0.275,-0.114l-0.077,-0.05l-0.44,-0.292c-1.19927,-0.79786 -2.38608,-1.61429 -3.56,-2.449c-0.52848,-0.38158 -0.90697,-0.93588 -1.07,-1.567l-1.696,-6.521l-0.333,-1.275l0.52,-1.434c0.04608,-0.12648 0.04142,-0.26588 -0.013,-0.389l-0.346,-0.778l0.985,-1.008c0.33679,-0.34924 0.84631,-0.46998 1.304,-0.309l0.297,0.106c0.199,0.071 0.42,0.015 0.562,-0.14l1.515,-1.675l2.628,-0.022l2.62,0.022l1.516,1.674c0.14151,0.15644 0.3634,0.21211 0.562,0.141l0.298,-0.105c0.45716,-0.16158 0.96657,-0.04117 1.303,0.308l0.985,1.009l-0.346,0.778c-0.05469,0.12341 -0.05935,0.26322 -0.013,0.39zM14.543,15.457l-0.932,-0.49c-0.1876,-0.09636 -0.37837,-0.18641 -0.572,-0.27l-0.507,-0.213c-0.10798,-0.04876 -0.21925,-0.08986 -0.333,-0.123h-0.136c-0.023,0 -0.173,0.056 -0.333,0.123l-0.507,0.212c-0.16,0.069 -0.418,0.19 -0.572,0.271l-0.93,0.49c-0.156,0.08 -0.165,0.231 -0.024,0.332l0.808,0.577c0.143,0.102 0.367,0.279 0.498,0.394l0.228,0.199c0.13,0.113 0.346,0.303 0.476,0.419l0.216,0.194c0.05834,0.05004 0.13131,0.07986 0.208,0.085c0.07732,-0.005 0.15097,-0.03481 0.21,-0.085l0.214,-0.194c0.15807,-0.14106 0.31707,-0.28106 0.477,-0.42l0.228,-0.198c0.131,-0.115 0.354,-0.292 0.497,-0.394l0.808,-0.577c0.142,-0.1 0.132,-0.251 -0.022,-0.331zM17.456,7.449c-0.098,-0.145 -0.266,-0.377 -0.374,-0.514l-0.703,-0.892c-0.11,-0.138 -0.204,-0.248 -0.21,-0.248c-0.10903,0.01726 -0.21771,0.03659 -0.326,0.058l-1.079,0.209c-0.17,0.034 -0.382,0.075 -0.47,0.09c-0.089,0.017 -0.297,-0.012 -0.462,-0.067l-0.85,-0.279c-0.166,-0.054 -0.44,-0.13 -0.61,-0.17c0,0 -0.068,-0.017 -0.241,-0.015c-0.173,-0.002 -0.241,0.016 -0.241,0.016c-0.17,0.038 -0.443,0.115 -0.61,0.17l-0.85,0.278c-0.165,0.055 -0.373,0.084 -0.461,0.067c-0.089,-0.015 -0.301,-0.056 -0.472,-0.09l-1.077,-0.209c-0.172,-0.033 -0.312,-0.058 -0.312,-0.058h-0.014c-0.07566,0.0777 -0.14583,0.16057 -0.21,0.248l-0.703,0.892c-0.109,0.137 -0.278,0.369 -0.375,0.514l-0.522,0.78c-0.0902,0.13472 -0.17299,0.27426 -0.248,0.418c-0.039,0.084 -0.074,0.396 -0.072,0.494l0.027,0.086c0.042,0.151 0.049,0.16 0.049,0.16c0.13266,0.16514 0.27108,0.32557 0.415,0.481l1.842,1.977c0.12235,0.1471 0.15773,0.34795 0.093,0.528l-0.302,0.72c-0.0683,0.19176 -0.07286,0.40044 -0.013,0.595l0.06,0.168c0.09926,0.2713 0.2691,0.51122 0.492,0.695l0.289,0.238c0.15341,0.11232 0.35426,0.13658 0.53,0.064l1.029,-0.497c0.18686,-0.09518 0.36148,-0.21271 0.52,-0.35l0.823,-0.75c0.06679,-0.06088 0.10624,-0.14611 0.10944,-0.23643c0.0032,-0.09032 -0.03012,-0.17812 -0.09244,-0.24357l-1.858,-1.264c-0.14535,-0.1054 -0.19279,-0.30066 -0.112,-0.461l0.72,-1.369c0.0822,-0.16982 0.09476,-0.36505 0.035,-0.544c-0.08927,-0.16822 -0.23368,-0.30062 -0.409,-0.375l-2.26,-0.861c-0.162,-0.063 -0.153,-0.127 0.02,-0.143l1.325,-0.127c0.20827,-0.01392 0.41743,0.00463 0.62,0.055l1.155,0.326c0.17044,0.05336 0.276,0.22361 0.248,0.4l-0.454,2.502c-0.032,0.173 -0.042,0.363 -0.022,0.423c0.019,0.059 0.173,0.138 0.343,0.176l0.702,0.15c0.08008,0.01565 0.16141,0.02402 0.243,0.025c0.08129,-0.00125 0.1623,-0.00995 0.242,-0.026l0.703,-0.15c0.17,-0.037 0.325,-0.115 0.345,-0.175c0.018,-0.06 0.007,-0.25 -0.023,-0.423l-0.454,-2.503c-0.02993,-0.17647 0.07582,-0.34772 0.247,-0.4l1.155,-0.325c0.20257,-0.05032 0.41173,-0.06887 0.62,-0.055l1.325,0.127c0.174,0.016 0.182,0.081 0.02,0.143l-2.258,0.861c-0.17614,0.07348 -0.32114,0.2061 -0.41,0.375c-0.063,0.145 -0.046,0.389 0.035,0.543l0.72,1.37c0.07994,0.16086 0.0317,0.35594 -0.114,0.461l-1.857,1.264c-0.062,0.06541 -0.09513,0.15299 -0.09193,0.24306c0.0032,0.09007 0.04245,0.17508 0.10893,0.23594l0.823,0.752c0.15832,0.13756 0.33296,0.25511 0.52,0.35l1.029,0.496c0.17574,0.07258 0.37659,0.04832 0.53,-0.064l0.29,-0.238c0.22263,-0.1836 0.39186,-0.42363 0.49,-0.695l0.062,-0.168c0.05922,-0.19477 0.05396,-0.40346 -0.015,-0.595l-0.301,-0.72c-0.06445,-0.18022 -0.02869,-0.3811 0.094,-0.528l1.842,-1.977c0.119,-0.127 0.305,-0.344 0.415,-0.481c0,0 0.005,-0.009 0.048,-0.16l0.026,-0.086c0.003,-0.098 -0.031,-0.409 -0.07,-0.494c-0.04,-0.084 -0.152,-0.272 -0.25,-0.418z" fill="#666d89" fill-rule="nonzero"></path></g>
  </g>
 </g>
</svg>
