<?xml version="1.0" encoding="UTF-8"?>
<!--Generator: Apple Native CoreSVG 175.5-->
<!DOCTYPE svg
PUBLIC "-//W3C//DTD SVG 1.1//EN"
       "http://www.w3.org/Graphics/SVG/1.1/DTD/svg11.dtd">
<svg version="1.1" xmlns="http://www.w3.org/2000/svg" xmlns:xlink="http://www.w3.org/1999/xlink" width="3300" height="2200">
 <!--glyph: "", point size: 100.0, font version: "18.0d12e2", template writer version: "101"-->
 <g id="Notes">
  <rect height="2200" id="artboard" style="fill:white;opacity:1" width="3300" x="0" y="0"/>
  <line style="fill:none;stroke:black;opacity:1;stroke-width:0.5;" x1="263" x2="3036" y1="292" y2="292"/>
  <text style="stroke:none;fill:black;font-family:sans-serif;font-size:13;font-weight:bold;" transform="matrix(1 0 0 1 263 322)">Weight/Scale Variations</text>
  <text style="stroke:none;fill:black;font-family:sans-serif;font-size:13;text-anchor:middle;" transform="matrix(1 0 0 1 559.711 322)">Ultralight</text>
  <text style="stroke:none;fill:black;font-family:sans-serif;font-size:13;text-anchor:middle;" transform="matrix(1 0 0 1 856.422 322)">Thin</text>
  <text style="stroke:none;fill:black;font-family:sans-serif;font-size:13;text-anchor:middle;" transform="matrix(1 0 0 1 1153.13 322)">Light</text>
  <text style="stroke:none;fill:black;font-family:sans-serif;font-size:13;text-anchor:middle;" transform="matrix(1 0 0 1 1449.84 322)">Regular</text>
  <text style="stroke:none;fill:black;font-family:sans-serif;font-size:13;text-anchor:middle;" transform="matrix(1 0 0 1 1746.56 322)">Medium</text>
  <text style="stroke:none;fill:black;font-family:sans-serif;font-size:13;text-anchor:middle;" transform="matrix(1 0 0 1 2043.27 322)">Semibold</text>
  <text style="stroke:none;fill:black;font-family:sans-serif;font-size:13;text-anchor:middle;" transform="matrix(1 0 0 1 2339.98 322)">Bold</text>
  <text style="stroke:none;fill:black;font-family:sans-serif;font-size:13;text-anchor:middle;" transform="matrix(1 0 0 1 2636.69 322)">Heavy</text>
  <text style="stroke:none;fill:black;font-family:sans-serif;font-size:13;text-anchor:middle;" transform="matrix(1 0 0 1 2933.4 322)">Black</text>
  <line style="fill:none;stroke:black;opacity:1;stroke-width:0.5;" x1="263" x2="3036" y1="1903" y2="1903"/>
  <g transform="matrix(1 0 0 1 263 1933)">
   <path d="M9.24805 0.830078C13.5547 0.830078 17.1387-2.74414 17.1387-7.05078C17.1387-11.3574 13.5449-14.9316 9.23828-14.9316C4.94141-14.9316 1.36719-11.3574 1.36719-7.05078C1.36719-2.74414 4.95117 0.830078 9.24805 0.830078ZM9.24805-0.654297C5.70312-0.654297 2.87109-3.49609 2.87109-7.05078C2.87109-10.6055 5.69336-13.4473 9.23828-13.4473C12.793-13.4473 15.6445-10.6055 15.6445-7.05078C15.6445-3.49609 12.8027-0.654297 9.24805-0.654297ZM5.6543-7.05078C5.6543-6.62109 5.95703-6.32812 6.40625-6.32812L8.50586-6.32812L8.50586-4.20898C8.50586-3.76953 8.79883-3.4668 9.22852-3.4668C9.67773-3.4668 9.9707-3.76953 9.9707-4.20898L9.9707-6.32812L12.0898-6.32812C12.5293-6.32812 12.832-6.62109 12.832-7.05078C12.832-7.49023 12.5293-7.79297 12.0898-7.79297L9.9707-7.79297L9.9707-9.90234C9.9707-10.3516 9.67773-10.6543 9.22852-10.6543C8.79883-10.6543 8.50586-10.3516 8.50586-9.90234L8.50586-7.79297L6.40625-7.79297C5.95703-7.79297 5.6543-7.49023 5.6543-7.05078Z"/>
  </g>
  <g transform="matrix(1 0 0 1 281.867 1933)">
   <path d="M11.709 2.91016C17.1582 2.91016 21.6699-1.61133 21.6699-7.05078C21.6699-12.5 17.1484-17.0117 11.6992-17.0117C6.25977-17.0117 1.74805-12.5 1.74805-7.05078C1.74805-1.61133 6.26953 2.91016 11.709 2.91016ZM11.709 1.25C7.09961 1.25 3.41797-2.44141 3.41797-7.05078C3.41797-11.6602 7.08984-15.3516 11.6992-15.3516C16.3086-15.3516 20.0098-11.6602 20.0098-7.05078C20.0098-2.44141 16.3184 1.25 11.709 1.25ZM7.17773-7.05078C7.17773-6.57227 7.50977-6.25 8.00781-6.25L10.8789-6.25L10.8789-3.36914C10.8789-2.88086 11.2109-2.53906 11.6895-2.53906C12.1777-2.53906 12.5195-2.87109 12.5195-3.36914L12.5195-6.25L15.4004-6.25C15.8887-6.25 16.2305-6.57227 16.2305-7.05078C16.2305-7.53906 15.8887-7.88086 15.4004-7.88086L12.5195-7.88086L12.5195-10.752C12.5195-11.25 12.1777-11.5918 11.6895-11.5918C11.2109-11.5918 10.8789-11.25 10.8789-10.752L10.8789-7.88086L8.00781-7.88086C7.50977-7.88086 7.17773-7.53906 7.17773-7.05078Z"/>
  </g>
  <g transform="matrix(1 0 0 1 305.646 1933)">
   <path d="M14.9707 5.66406C21.9336 5.66406 27.6953-0.0976562 27.6953-7.05078C27.6953-14.0137 21.9238-19.7754 14.9609-19.7754C8.00781-19.7754 2.25586-14.0137 2.25586-7.05078C2.25586-0.0976562 8.01758 5.66406 14.9707 5.66406ZM14.9707 3.84766C8.93555 3.84766 4.08203-1.01562 4.08203-7.05078C4.08203-13.0957 8.92578-17.9492 14.9609-17.9492C21.0059-17.9492 25.8691-13.0957 25.8691-7.05078C25.8691-1.01562 21.0156 3.84766 14.9707 3.84766ZM9.19922-7.05078C9.19922-6.5332 9.57031-6.17188 10.1172-6.17188L14.0625-6.17188L14.0625-2.2168C14.0625-1.67969 14.4336-1.29883 14.9512-1.29883C15.4883-1.29883 15.8594-1.66992 15.8594-2.2168L15.8594-6.17188L19.8145-6.17188C20.3516-6.17188 20.7324-6.5332 20.7324-7.05078C20.7324-7.59766 20.3613-7.96875 19.8145-7.96875L15.8594-7.96875L15.8594-11.9141C15.8594-12.4609 15.4883-12.8418 14.9512-12.8418C14.4336-12.8418 14.0625-12.4609 14.0625-11.9141L14.0625-7.96875L10.1172-7.96875C9.57031-7.96875 9.19922-7.59766 9.19922-7.05078Z"/>
  </g>
  <text style="stroke:none;fill:black;font-family:sans-serif;font-size:13;font-weight:bold;" transform="matrix(1 0 0 1 263 1953)">Design Variations</text>
  <text style="stroke:none;fill:black;font-family:sans-serif;font-size:13;" transform="matrix(1 0 0 1 263 1971)">Symbols are supported in up to nine weights and three scales.</text>
  <text style="stroke:none;fill:black;font-family:sans-serif;font-size:13;" transform="matrix(1 0 0 1 263 1989)">For optimal layout with text and other symbols, vertically align</text>
  <text style="stroke:none;fill:black;font-family:sans-serif;font-size:13;" transform="matrix(1 0 0 1 263 2007)">symbols with the adjacent text.</text>
  <line style="fill:none;stroke:#00AEEF;stroke-width:0.5;opacity:1.0;" x1="776" x2="776" y1="1919" y2="1933"/>
  <g transform="matrix(1 0 0 1 776 1933)">
   <path d="M3.31055 0.15625C3.82812 0.15625 4.08203-0.0390625 4.26758-0.585938L5.52734-4.0332L11.2891-4.0332L12.5488-0.585938C12.7344-0.0390625 12.9883 0.15625 13.4961 0.15625C14.0137 0.15625 14.3457-0.15625 14.3457-0.644531C14.3457-0.810547 14.3164-0.966797 14.2383-1.17188L9.6582-13.3691C9.43359-13.9648 9.0332-14.2676 8.4082-14.2676C7.80273-14.2676 7.39258-13.9746 7.17773-13.3789L2.59766-1.16211C2.51953-0.957031 2.49023-0.800781 2.49023-0.634766C2.49023-0.146484 2.80273 0.15625 3.31055 0.15625ZM6.00586-5.51758L8.37891-12.0898L8.42773-12.0898L10.8008-5.51758Z"/>
  </g>
  <line style="fill:none;stroke:#00AEEF;stroke-width:0.5;opacity:1.0;" x1="793.197" x2="793.197" y1="1919" y2="1933"/>
  <text style="stroke:none;fill:black;font-family:sans-serif;font-size:13;font-weight:bold;" transform="matrix(1 0 0 1 776 1953)">Margins</text>
  <text style="stroke:none;fill:black;font-family:sans-serif;font-size:13;" transform="matrix(1 0 0 1 776 1971)">Leading and trailing margins on the left and right side of each symbol</text>
  <text style="stroke:none;fill:black;font-family:sans-serif;font-size:13;" transform="matrix(1 0 0 1 776 1989)">can be adjusted by modifying the x-location of the margin guidelines.</text>
  <text style="stroke:none;fill:black;font-family:sans-serif;font-size:13;" transform="matrix(1 0 0 1 776 2007)">Modifications are automatically applied proportionally to all</text>
  <text style="stroke:none;fill:black;font-family:sans-serif;font-size:13;" transform="matrix(1 0 0 1 776 2025)">scales and weights.</text>
  <g transform="matrix(1 0 0 1 1289 1933)">
   <path d="M2.8418 1.86523L4.54102 3.57422C5.40039 4.44336 6.38672 4.38477 7.31445 3.35938L18.0078-8.42773L17.041-9.4043L6.42578 2.27539C6.07422 2.67578 5.74219 2.77344 5.27344 2.30469L4.10156 1.14258C3.63281 0.683594 3.74023 0.341797 4.14062-0.0195312L15.6152-10.8203L14.6387-11.7871L3.04688-0.898438C2.06055 0.0195312 1.98242 0.996094 2.8418 1.86523ZM9.25781-16.3281C8.83789-15.918 8.80859-15.3418 9.04297-14.9512C9.27734-14.5898 9.73633-14.3555 10.3809-14.5215C11.8457-14.8633 13.3691-14.9219 14.7949-13.9844L14.209-12.5293C13.8672-11.6992 14.043-11.1133 14.5801-10.5664L16.875-8.25195C17.3633-7.76367 17.7734-7.74414 18.3398-7.8418L19.4043-8.03711L20.0684-7.36328L20.0293-6.80664C19.9902-6.30859 20.1172-5.92773 20.6055-5.44922L21.3672-4.70703C21.8457-4.22852 22.4609-4.19922 22.9297-4.66797L25.8398-7.58789C26.3086-8.05664 26.2891-8.65234 25.8105-9.13086L25.0391-9.89258C24.5605-10.3711 24.1895-10.5273 23.7109-10.4883L23.1348-10.4395L22.4902-11.0742L22.7344-12.1973C22.8613-12.7637 22.7051-13.2031 22.1191-13.7891L19.9219-15.9766C16.582-19.2969 12.1484-19.2188 9.25781-16.3281ZM10.752-15.957C13.1836-17.7344 16.4746-17.4316 18.7012-15.2051L21.1328-12.793C21.3672-12.5586 21.4062-12.373 21.3379-12.0312L21.0156-10.5469L22.5195-9.0625L23.5059-9.12109C23.7598-9.13086 23.8379-9.11133 24.0332-8.91602L24.6094-8.33984L22.168-5.89844L21.5918-6.47461C21.3965-6.66992 21.3672-6.74805 21.377-7.01172L21.4453-7.98828L19.9512-9.47266L18.4277-9.21875C18.1055-9.15039 17.959-9.17969 17.7148-9.41406L15.7129-11.416C15.459-11.6504 15.4297-11.8164 15.5859-12.1875L16.4648-14.2773C14.9023-15.7324 12.8711-16.3574 10.8398-15.7617C10.6836-15.7227 10.625-15.8496 10.752-15.957Z"/>
  </g>
  <text style="stroke:none;fill:black;font-family:sans-serif;font-size:13;font-weight:bold;" transform="matrix(1 0 0 1 1289 1953)">Exporting</text>
  <text style="stroke:none;fill:black;font-family:sans-serif;font-size:13;" transform="matrix(1 0 0 1 1289 1971)">Symbols should be outlined when exporting to ensure the</text>
  <text style="stroke:none;fill:black;font-family:sans-serif;font-size:13;" transform="matrix(1 0 0 1 1289 1989)">design is preserved when submitting to Xcode.</text>
  <text id="template-version" style="stroke:none;fill:black;font-family:sans-serif;font-size:13;text-anchor:end;" transform="matrix(1 0 0 1 3036 1933)">Template v.4.0</text>
  <text style="stroke:none;fill:black;font-family:sans-serif;font-size:13;text-anchor:end;" transform="matrix(1 0 0 1 3036 1951)">Requires Xcode 14 or greater</text>
  <text id="descriptive-name" style="stroke:none;fill:black;font-family:sans-serif;font-size:13;text-anchor:end;" transform="matrix(1 0 0 1 3036 1969)">Generated from brave.zzz</text>
  <text style="stroke:none;fill:black;font-family:sans-serif;font-size:13;text-anchor:end;" transform="matrix(1 0 0 1 3036 1987)">Typeset at 100 points</text>
  <text style="stroke:none;fill:black;font-family:sans-serif;font-size:13;" transform="matrix(1 0 0 1 263 726)">Small</text>
  <text style="stroke:none;fill:black;font-family:sans-serif;font-size:13;" transform="matrix(1 0 0 1 263 1156)">Medium</text>
  <text style="stroke:none;fill:black;font-family:sans-serif;font-size:13;" transform="matrix(1 0 0 1 263 1586)">Large</text>
 </g>
 <g id="Guides">
  <g id="H-reference" style="fill:#27AAE1;stroke:none;" transform="matrix(1 0 0 1 339 696)">
   <path d="M0.993654 0L3.63775 0L29.3281-67.1323L30.0303-67.1323L30.0303-70.459L28.1226-70.459ZM11.6885-24.4799L46.9815-24.4799L46.2315-26.7285L12.4385-26.7285ZM55.1196 0L57.7637 0L30.6382-70.459L29.4326-70.459L29.4326-67.1323Z"/>
  </g>
  <line id="Baseline-S" style="fill:none;stroke:#27AAE1;opacity:1;stroke-width:0.5;" x1="263" x2="3036" y1="696" y2="696"/>
  <line id="Capline-S" style="fill:none;stroke:#27AAE1;opacity:1;stroke-width:0.5;" x1="263" x2="3036" y1="625.541" y2="625.541"/>
  <g id="H-reference" style="fill:#27AAE1;stroke:none;" transform="matrix(1 0 0 1 339 1126)">
   <path d="M0.993654 0L3.63775 0L29.3281-67.1323L30.0303-67.1323L30.0303-70.459L28.1226-70.459ZM11.6885-24.4799L46.9815-24.4799L46.2315-26.7285L12.4385-26.7285ZM55.1196 0L57.7637 0L30.6382-70.459L29.4326-70.459L29.4326-67.1323Z"/>
  </g>
  <line id="Baseline-M" style="fill:none;stroke:#27AAE1;opacity:1;stroke-width:0.5;" x1="263" x2="3036" y1="1126" y2="1126"/>
  <line id="Capline-M" style="fill:none;stroke:#27AAE1;opacity:1;stroke-width:0.5;" x1="263" x2="3036" y1="1055.54" y2="1055.54"/>
  <g id="H-reference" style="fill:#27AAE1;stroke:none;" transform="matrix(1 0 0 1 339 1556)">
   <path d="M0.993654 0L3.63775 0L29.3281-67.1323L30.0303-67.1323L30.0303-70.459L28.1226-70.459ZM11.6885-24.4799L46.9815-24.4799L46.2315-26.7285L12.4385-26.7285ZM55.1196 0L57.7637 0L30.6382-70.459L29.4326-70.459L29.4326-67.1323Z"/>
  </g>
  <line id="Baseline-L" style="fill:none;stroke:#27AAE1;opacity:1;stroke-width:0.5;" x1="263" x2="3036" y1="1556" y2="1556"/>
  <line id="Capline-L" style="fill:none;stroke:#27AAE1;opacity:1;stroke-width:0.5;" x1="263" x2="3036" y1="1485.54" y2="1485.54"/>
  <line id="left-margin-Regular-M" style="fill:none;stroke:#00AEEF;stroke-width:0.5;opacity:1.0;" x1="1389.82" x2="1389.82" y1="1030.79" y2="1150.12"/>
  <line id="right-margin-Regular-M" style="fill:none;stroke:#00AEEF;stroke-width:0.5;opacity:1.0;" x1="1509.87" x2="1509.87" y1="1030.79" y2="1150.12"/>
 </g>
 <g id="Symbols">
  <g id="Regular-L" transform="matrix(6.45 0 0 6.45 1372.2675 1443)">
    <defs><clipPath id="clip-1"><rect x="0" y="0" width="24" height="24" fill="none"></rect></clipPath><clipPath id="clip-2"><path d="M0,0h24v24h-24z" id="a" fill="none"></path></clipPath></defs>
<g clip-path="url(#clip-1)" fill="none" fill-rule="nonzero" stroke="none" stroke-width="1" stroke-linecap="butt" stroke-linejoin="miter" stroke-miterlimit="10" stroke-dasharray="" stroke-dashoffset="0" font-family="none" font-weight="none" font-size="none" text-anchor="none" style="mix-blend-mode: normal"><g clip-path="url(#clip-2)"><path d="M0.112,22.53c0,0.26 0.074,0.295 0.326,0.295h1.51c0.253,0 0.327,-0.035 0.327,-0.295h0.087v0.97h-0.087c0,-0.26 -0.07,-0.294 -0.327,-0.294h-1.51c-0.256,0 -0.326,0.035 -0.326,0.294h-0.088v-0.97zM22.499,23.388h-16.93v-0.857h16.93zM21.864,22.07h-15.628v-1.185h15.628zM2.362,19.695l-1.997,1.143v0.007h1.997v0.218h-1.912c-0.33,0 -0.316,0.052 -0.372,0.346h-0.078v-0.73l1.91,-1.091v-0.007h-1.91v-0.218h2.362zM7.42,9.37c0.23,0 0.45867,0.024 0.686,0.072c0.056,0.012 0.084,0.027 0.087,0.092c0.038,0.761 0.088,1.522 0.119,2.283c0.03133,0.80867 0.05333,1.61733 0.066,2.426c0.01,0.573 0.003,1.147 -0.006,1.72c-0.00869,0.63585 -0.02536,1.27157 -0.05,1.907c-0.029,0.682 -0.071,1.364 -0.11,2.045c-0.006,0.13 -0.02,0.26 -0.03,0.388c-0.24881,0.06585 -0.50466,0.10144 -0.762,0.106c-0.25667,-0.00472 -0.51184,-0.04031 -0.76,-0.106c-0.011,-0.127 -0.025,-0.258 -0.032,-0.388c-0.038,-0.681 -0.081,-1.363 -0.11,-2.045c-0.04719,-1.20839 -0.06553,-2.41773 -0.055,-3.627c0.01267,-0.80867 0.03467,-1.61733 0.066,-2.426c0.03,-0.76 0.08,-1.522 0.118,-2.283c0.004,-0.065 0.031,-0.08 0.086,-0.092c0.228,-0.04867 0.457,-0.07267 0.687,-0.072M11.652,9.37c0.23067,0 0.45967,0.024 0.687,0.072c0.055,0.012 0.083,0.027 0.087,0.092c0.037,0.761 0.088,1.522 0.118,2.283c0.03133,0.80867 0.05333,1.61733 0.066,2.426c0.00986,1.20928 -0.00915,2.41863 -0.057,3.627c-0.027,0.682 -0.07,1.364 -0.108,2.045c-0.007,0.13 -0.02,0.26 -0.03,0.388c-0.24914,0.06593 -0.50533,0.10152 -0.763,0.106c-0.25667,-0.00472 -0.51184,-0.04031 -0.76,-0.106c-0.01,-0.127 -0.024,-0.258 -0.032,-0.388c-0.038,-0.681 -0.081,-1.363 -0.109,-2.045c-0.02464,-0.63543 -0.04131,-1.27115 -0.05,-1.907c-0.0113,-0.57326 -0.0133,-1.14667 -0.006,-1.72c0.01333,-0.80867 0.03567,-1.61733 0.067,-2.426c0.03,-0.76 0.08,-1.522 0.118,-2.283c0.003,-0.065 0.03,-0.08 0.086,-0.092c0.22733,-0.04867 0.456,-0.07267 0.686,-0.072M16.562,9.37c0.23,0 0.45867,0.024 0.686,0.072c0.055,0.012 0.084,0.027 0.087,0.092c0.037,0.761 0.087,1.522 0.117,2.283c0.03133,0.80867 0.05367,1.61733 0.067,2.426c0.01019,1.20927 -0.00848,2.41862 -0.056,3.627c-0.028,0.682 -0.072,1.364 -0.11,2.045c-0.007,0.13 -0.02,0.26 -0.03,0.388c-0.24881,0.06585 -0.50466,0.10144 -0.762,0.106c-0.25667,-0.00472 -0.51184,-0.04031 -0.76,-0.106c-0.01,-0.127 -0.024,-0.258 -0.031,-0.388c-0.038,-0.681 -0.082,-1.363 -0.11,-2.045c-0.02464,-0.63543 -0.04131,-1.27115 -0.05,-1.907c-0.0113,-0.57326 -0.0133,-1.14667 -0.006,-1.72c0.01333,-0.80867 0.03567,-1.61733 0.067,-2.426c0.03,-0.76 0.08,-1.522 0.117,-2.283c0.003,-0.065 0.032,-0.08 0.087,-0.092c0.228,-0.04867 0.45667,-0.07267 0.686,-0.072M20.692,9.37c0.23067,0 0.45967,0.024 0.687,0.072c0.055,0.012 0.083,0.027 0.087,0.092c0.037,0.761 0.087,1.522 0.117,2.283c0.032,0.80867 0.05433,1.61733 0.067,2.426c0.01,0.573 0.004,1.147 -0.006,1.72c-0.00867,0.636 -0.02533,1.27167 -0.05,1.907c-0.028,0.682 -0.072,1.364 -0.11,2.045c-0.007,0.13 -0.02,0.26 -0.03,0.388c-0.24881,0.06585 -0.50466,0.10144 -0.762,0.106c-0.25667,-0.00472 -0.51184,-0.04031 -0.76,-0.106c-0.01,-0.127 -0.024,-0.258 -0.032,-0.388c-0.038,-0.681 -0.081,-1.363 -0.109,-2.045c-0.04752,-1.20838 -0.06619,-2.41773 -0.056,-3.627c0.01333,-0.80867 0.03567,-1.61733 0.067,-2.426c0.03,-0.76 0.08,-1.522 0.117,-2.283c0.003,-0.065 0.032,-0.08 0.087,-0.092c0.22733,-0.04867 0.456,-0.07267 0.686,-0.072M0.52,16.272c-0.274,0 -0.355,0.118 -0.355,0.377v0.236h2.197v0.38h-2.197v0.239c0,0.263 0.077,0.353 0.344,0.374v0.097l-0.509,-0.015v-1.772l0.52,-0.014zM2.362,13.402v1.381h-1.884c-0.338,0 -0.348,0.004 -0.4,0.33h-0.078v-1.659l0.52,-0.01v0.096c-0.264,0 -0.355,0.128 -0.355,0.374v0.27c0,0.16 0.004,0.218 0.183,0.218h0.698v-0.419c0,-0.197 -0.09,-0.253 -0.27,-0.284v-0.097h0.737v0.097c-0.197,0 -0.302,0.084 -0.302,0.284v0.42h0.783c0.193,0 0.204,-0.042 0.204,-0.218v-0.385c0,-0.236 -0.12,-0.294 -0.344,-0.312v-0.096zM2.362,10.615l-1.091,0.612v0.215h1.091v0.381h-1.884c-0.338,0 -0.352,0 -0.4,0.33h-0.078v-0.89c0,-0.42 0.091,-0.938 0.628,-0.939c0.354,0 0.527,0.2 0.58,0.53l1.154,-0.637zM0.649,10.705c-0.347,0 -0.484,0.176 -0.484,0.505c0,0.25 0.095,0.232 0.316,0.232h0.624v-0.197c0,-0.301 -0.112,-0.54 -0.456,-0.54M2.362,7.36l-1.997,1.143v0.007h1.997v0.219h-1.912c-0.33,0 -0.316,0.051 -0.372,0.345h-0.078v-0.73l1.91,-1.09v-0.008h-1.91v-0.218h2.362zM21.681,9.03h-15.545v-1.645h15.544zM22.048,6.38l-0.468,0.51h-15.344l-0.467,-0.51l8.14,-1.877zM2.362,3.958v1.38h-1.884c-0.338,0 -0.348,0.005 -0.4,0.33h-0.078v-1.658l0.52,-0.011v0.098c-0.264,0 -0.355,0.127 -0.355,0.373v0.27c0,0.16 0.004,0.218 0.183,0.218h0.698v-0.419c0,-0.197 -0.091,-0.252 -0.27,-0.283v-0.098h0.737v0.098c-0.197,0 -0.302,0.083 -0.302,0.283v0.419h0.783c0.193,0 0.204,-0.041 0.204,-0.218v-0.385c0,-0.235 -0.12,-0.294 -0.344,-0.311v-0.097zM11.453,0.528c0.239,0 0.478,0.031 0.702,0.104l0.02,0.578h-0.1c-0.00858,-0.07544 -0.03423,-0.14794 -0.075,-0.212c-0.10318,-0.18704 -0.2994,-0.30369 -0.513,-0.305c-0.53,0 -0.6,0.575 -0.6,0.977c0,0.43 0.133,1.039 0.68,1.039c0.232,0 0.425,-0.045 0.615,-0.177v0.239c-0.21254,0.09193 -0.4425,0.13662 -0.674,0.131c-0.808,0 -1.035,-0.515 -1.035,-1.232c0,-0.668 0.224,-1.143 0.98,-1.143M6.228,2.867h-0.366l-0.262,-0.72h-0.896l-0.264,0.72h-0.217l0.699,-1.886c0.014,-0.034 0.06,-0.172 0.06,-0.204c0,-0.145 -0.162,-0.145 -0.271,-0.163v-0.076h0.66zM8.214,0.538c0.425,0 0.951,0.09 0.951,0.62c0,0.35 -0.204,0.519 -0.537,0.57l0.646,1.14h-0.404l-0.62,-1.077h-0.218v1.077h-0.385v-1.86c0,-0.331 -0.001,-0.345 -0.334,-0.394v-0.076zM14.116,1.573h0.955v-1.035h0.386v2.33h-0.386v-1.132h-0.955v1.132h-0.386v-1.873c0,-0.301 -0.056,-0.308 -0.351,-0.339v-0.076l0.737,-0.08zM17.796,0.648c-0.262,0 -0.297,0.074 -0.297,0.323v1.488c0,0.25 0.035,0.322 0.298,0.322v0.087h-0.983v-0.087c0.264,0 0.298,-0.07 0.298,-0.322v-1.488c0,-0.253 -0.034,-0.323 -0.297,-0.323v-0.086h0.982zM20.313,2.436h0.006l0.671,-1.898h0.228l-0.857,2.33h-0.305l-0.688,-1.887c-0.105,-0.29 -0.123,-0.311 -0.425,-0.367v-0.076h0.681zM23.947,1.051h-0.098c0,-0.26 -0.13,-0.35 -0.38,-0.35h-0.273c-0.161,0 -0.221,0.003 -0.221,0.18v0.688h0.424c0.2,0 0.257,-0.09 0.288,-0.266h0.1v0.727h-0.1c0,-0.194 -0.084,-0.298 -0.288,-0.298h-0.424v0.773c0,0.19 0.042,0.2 0.221,0.2h0.39c0.238,0 0.298,-0.117 0.315,-0.339h0.099l-0.01,0.502h-1.401v-1.86c0,-0.331 -0.004,-0.342 -0.334,-0.394v-0.076h1.681zM0.52,0.98c-0.274,0 -0.355,0.117 -0.355,0.376v0.237h2.197v0.38h-2.197v0.239c0,0.263 0.077,0.353 0.344,0.374v0.097l-0.509,-0.013v-1.773l0.52,-0.013zM4.764,1.984h0.776l-0.4,-1.01zM8.267,0.701c-0.253,0 -0.236,0.094 -0.236,0.312v0.616h0.2c0.306,0 0.548,-0.111 0.548,-0.45c0.001,-0.343 -0.179,-0.479 -0.512,-0.479" fill="#62757e"></path></g></g>
  </g>
  <g id="Regular-M" transform="matrix(5 0 0 5 1389.82 1030)">
    <defs><clipPath id="clip-1"><rect x="0" y="0" width="24" height="24" fill="none"></rect></clipPath><clipPath id="clip-2"><path d="M0,0h24v24h-24z" id="a" fill="none"></path></clipPath></defs>
<g clip-path="url(#clip-1)" fill="none" fill-rule="nonzero" stroke="none" stroke-width="1" stroke-linecap="butt" stroke-linejoin="miter" stroke-miterlimit="10" stroke-dasharray="" stroke-dashoffset="0" font-family="none" font-weight="none" font-size="none" text-anchor="none" style="mix-blend-mode: normal"><g clip-path="url(#clip-2)"><path d="M0.112,22.53c0,0.26 0.074,0.295 0.326,0.295h1.51c0.253,0 0.327,-0.035 0.327,-0.295h0.087v0.97h-0.087c0,-0.26 -0.07,-0.294 -0.327,-0.294h-1.51c-0.256,0 -0.326,0.035 -0.326,0.294h-0.088v-0.97zM22.499,23.388h-16.93v-0.857h16.93zM21.864,22.07h-15.628v-1.185h15.628zM2.362,19.695l-1.997,1.143v0.007h1.997v0.218h-1.912c-0.33,0 -0.316,0.052 -0.372,0.346h-0.078v-0.73l1.91,-1.091v-0.007h-1.91v-0.218h2.362zM7.42,9.37c0.23,0 0.45867,0.024 0.686,0.072c0.056,0.012 0.084,0.027 0.087,0.092c0.038,0.761 0.088,1.522 0.119,2.283c0.03133,0.80867 0.05333,1.61733 0.066,2.426c0.01,0.573 0.003,1.147 -0.006,1.72c-0.00869,0.63585 -0.02536,1.27157 -0.05,1.907c-0.029,0.682 -0.071,1.364 -0.11,2.045c-0.006,0.13 -0.02,0.26 -0.03,0.388c-0.24881,0.06585 -0.50466,0.10144 -0.762,0.106c-0.25667,-0.00472 -0.51184,-0.04031 -0.76,-0.106c-0.011,-0.127 -0.025,-0.258 -0.032,-0.388c-0.038,-0.681 -0.081,-1.363 -0.11,-2.045c-0.04719,-1.20839 -0.06553,-2.41773 -0.055,-3.627c0.01267,-0.80867 0.03467,-1.61733 0.066,-2.426c0.03,-0.76 0.08,-1.522 0.118,-2.283c0.004,-0.065 0.031,-0.08 0.086,-0.092c0.228,-0.04867 0.457,-0.07267 0.687,-0.072M11.652,9.37c0.23067,0 0.45967,0.024 0.687,0.072c0.055,0.012 0.083,0.027 0.087,0.092c0.037,0.761 0.088,1.522 0.118,2.283c0.03133,0.80867 0.05333,1.61733 0.066,2.426c0.00986,1.20928 -0.00915,2.41863 -0.057,3.627c-0.027,0.682 -0.07,1.364 -0.108,2.045c-0.007,0.13 -0.02,0.26 -0.03,0.388c-0.24914,0.06593 -0.50533,0.10152 -0.763,0.106c-0.25667,-0.00472 -0.51184,-0.04031 -0.76,-0.106c-0.01,-0.127 -0.024,-0.258 -0.032,-0.388c-0.038,-0.681 -0.081,-1.363 -0.109,-2.045c-0.02464,-0.63543 -0.04131,-1.27115 -0.05,-1.907c-0.0113,-0.57326 -0.0133,-1.14667 -0.006,-1.72c0.01333,-0.80867 0.03567,-1.61733 0.067,-2.426c0.03,-0.76 0.08,-1.522 0.118,-2.283c0.003,-0.065 0.03,-0.08 0.086,-0.092c0.22733,-0.04867 0.456,-0.07267 0.686,-0.072M16.562,9.37c0.23,0 0.45867,0.024 0.686,0.072c0.055,0.012 0.084,0.027 0.087,0.092c0.037,0.761 0.087,1.522 0.117,2.283c0.03133,0.80867 0.05367,1.61733 0.067,2.426c0.01019,1.20927 -0.00848,2.41862 -0.056,3.627c-0.028,0.682 -0.072,1.364 -0.11,2.045c-0.007,0.13 -0.02,0.26 -0.03,0.388c-0.24881,0.06585 -0.50466,0.10144 -0.762,0.106c-0.25667,-0.00472 -0.51184,-0.04031 -0.76,-0.106c-0.01,-0.127 -0.024,-0.258 -0.031,-0.388c-0.038,-0.681 -0.082,-1.363 -0.11,-2.045c-0.02464,-0.63543 -0.04131,-1.27115 -0.05,-1.907c-0.0113,-0.57326 -0.0133,-1.14667 -0.006,-1.72c0.01333,-0.80867 0.03567,-1.61733 0.067,-2.426c0.03,-0.76 0.08,-1.522 0.117,-2.283c0.003,-0.065 0.032,-0.08 0.087,-0.092c0.228,-0.04867 0.45667,-0.07267 0.686,-0.072M20.692,9.37c0.23067,0 0.45967,0.024 0.687,0.072c0.055,0.012 0.083,0.027 0.087,0.092c0.037,0.761 0.087,1.522 0.117,2.283c0.032,0.80867 0.05433,1.61733 0.067,2.426c0.01,0.573 0.004,1.147 -0.006,1.72c-0.00867,0.636 -0.02533,1.27167 -0.05,1.907c-0.028,0.682 -0.072,1.364 -0.11,2.045c-0.007,0.13 -0.02,0.26 -0.03,0.388c-0.24881,0.06585 -0.50466,0.10144 -0.762,0.106c-0.25667,-0.00472 -0.51184,-0.04031 -0.76,-0.106c-0.01,-0.127 -0.024,-0.258 -0.032,-0.388c-0.038,-0.681 -0.081,-1.363 -0.109,-2.045c-0.04752,-1.20838 -0.06619,-2.41773 -0.056,-3.627c0.01333,-0.80867 0.03567,-1.61733 0.067,-2.426c0.03,-0.76 0.08,-1.522 0.117,-2.283c0.003,-0.065 0.032,-0.08 0.087,-0.092c0.22733,-0.04867 0.456,-0.07267 0.686,-0.072M0.52,16.272c-0.274,0 -0.355,0.118 -0.355,0.377v0.236h2.197v0.38h-2.197v0.239c0,0.263 0.077,0.353 0.344,0.374v0.097l-0.509,-0.015v-1.772l0.52,-0.014zM2.362,13.402v1.381h-1.884c-0.338,0 -0.348,0.004 -0.4,0.33h-0.078v-1.659l0.52,-0.01v0.096c-0.264,0 -0.355,0.128 -0.355,0.374v0.27c0,0.16 0.004,0.218 0.183,0.218h0.698v-0.419c0,-0.197 -0.09,-0.253 -0.27,-0.284v-0.097h0.737v0.097c-0.197,0 -0.302,0.084 -0.302,0.284v0.42h0.783c0.193,0 0.204,-0.042 0.204,-0.218v-0.385c0,-0.236 -0.12,-0.294 -0.344,-0.312v-0.096zM2.362,10.615l-1.091,0.612v0.215h1.091v0.381h-1.884c-0.338,0 -0.352,0 -0.4,0.33h-0.078v-0.89c0,-0.42 0.091,-0.938 0.628,-0.939c0.354,0 0.527,0.2 0.58,0.53l1.154,-0.637zM0.649,10.705c-0.347,0 -0.484,0.176 -0.484,0.505c0,0.25 0.095,0.232 0.316,0.232h0.624v-0.197c0,-0.301 -0.112,-0.54 -0.456,-0.54M2.362,7.36l-1.997,1.143v0.007h1.997v0.219h-1.912c-0.33,0 -0.316,0.051 -0.372,0.345h-0.078v-0.73l1.91,-1.09v-0.008h-1.91v-0.218h2.362zM21.681,9.03h-15.545v-1.645h15.544zM22.048,6.38l-0.468,0.51h-15.344l-0.467,-0.51l8.14,-1.877zM2.362,3.958v1.38h-1.884c-0.338,0 -0.348,0.005 -0.4,0.33h-0.078v-1.658l0.52,-0.011v0.098c-0.264,0 -0.355,0.127 -0.355,0.373v0.27c0,0.16 0.004,0.218 0.183,0.218h0.698v-0.419c0,-0.197 -0.091,-0.252 -0.27,-0.283v-0.098h0.737v0.098c-0.197,0 -0.302,0.083 -0.302,0.283v0.419h0.783c0.193,0 0.204,-0.041 0.204,-0.218v-0.385c0,-0.235 -0.12,-0.294 -0.344,-0.311v-0.097zM11.453,0.528c0.239,0 0.478,0.031 0.702,0.104l0.02,0.578h-0.1c-0.00858,-0.07544 -0.03423,-0.14794 -0.075,-0.212c-0.10318,-0.18704 -0.2994,-0.30369 -0.513,-0.305c-0.53,0 -0.6,0.575 -0.6,0.977c0,0.43 0.133,1.039 0.68,1.039c0.232,0 0.425,-0.045 0.615,-0.177v0.239c-0.21254,0.09193 -0.4425,0.13662 -0.674,0.131c-0.808,0 -1.035,-0.515 -1.035,-1.232c0,-0.668 0.224,-1.143 0.98,-1.143M6.228,2.867h-0.366l-0.262,-0.72h-0.896l-0.264,0.72h-0.217l0.699,-1.886c0.014,-0.034 0.06,-0.172 0.06,-0.204c0,-0.145 -0.162,-0.145 -0.271,-0.163v-0.076h0.66zM8.214,0.538c0.425,0 0.951,0.09 0.951,0.62c0,0.35 -0.204,0.519 -0.537,0.57l0.646,1.14h-0.404l-0.62,-1.077h-0.218v1.077h-0.385v-1.86c0,-0.331 -0.001,-0.345 -0.334,-0.394v-0.076zM14.116,1.573h0.955v-1.035h0.386v2.33h-0.386v-1.132h-0.955v1.132h-0.386v-1.873c0,-0.301 -0.056,-0.308 -0.351,-0.339v-0.076l0.737,-0.08zM17.796,0.648c-0.262,0 -0.297,0.074 -0.297,0.323v1.488c0,0.25 0.035,0.322 0.298,0.322v0.087h-0.983v-0.087c0.264,0 0.298,-0.07 0.298,-0.322v-1.488c0,-0.253 -0.034,-0.323 -0.297,-0.323v-0.086h0.982zM20.313,2.436h0.006l0.671,-1.898h0.228l-0.857,2.33h-0.305l-0.688,-1.887c-0.105,-0.29 -0.123,-0.311 -0.425,-0.367v-0.076h0.681zM23.947,1.051h-0.098c0,-0.26 -0.13,-0.35 -0.38,-0.35h-0.273c-0.161,0 -0.221,0.003 -0.221,0.18v0.688h0.424c0.2,0 0.257,-0.09 0.288,-0.266h0.1v0.727h-0.1c0,-0.194 -0.084,-0.298 -0.288,-0.298h-0.424v0.773c0,0.19 0.042,0.2 0.221,0.2h0.39c0.238,0 0.298,-0.117 0.315,-0.339h0.099l-0.01,0.502h-1.401v-1.86c0,-0.331 -0.004,-0.342 -0.334,-0.394v-0.076h1.681zM0.52,0.98c-0.274,0 -0.355,0.117 -0.355,0.376v0.237h2.197v0.38h-2.197v0.239c0,0.263 0.077,0.353 0.344,0.374v0.097l-0.509,-0.013v-1.773l0.52,-0.013zM4.764,1.984h0.776l-0.4,-1.01zM8.267,0.701c-0.253,0 -0.236,0.094 -0.236,0.312v0.616h0.2c0.306,0 0.548,-0.111 0.548,-0.45c0.001,-0.343 -0.179,-0.479 -0.512,-0.479" fill="#62757e"></path></g></g>
  </g>
  <g id="Regular-S" transform="matrix(3.915 0 0 3.915 1402.75 614)">
    <defs><clipPath id="clip-1"><rect x="0" y="0" width="24" height="24" fill="none"></rect></clipPath><clipPath id="clip-2"><path d="M0,0h24v24h-24z" id="a" fill="none"></path></clipPath></defs>
<g clip-path="url(#clip-1)" fill="none" fill-rule="nonzero" stroke="none" stroke-width="1" stroke-linecap="butt" stroke-linejoin="miter" stroke-miterlimit="10" stroke-dasharray="" stroke-dashoffset="0" font-family="none" font-weight="none" font-size="none" text-anchor="none" style="mix-blend-mode: normal"><g clip-path="url(#clip-2)"><path d="M0.112,22.53c0,0.26 0.074,0.295 0.326,0.295h1.51c0.253,0 0.327,-0.035 0.327,-0.295h0.087v0.97h-0.087c0,-0.26 -0.07,-0.294 -0.327,-0.294h-1.51c-0.256,0 -0.326,0.035 -0.326,0.294h-0.088v-0.97zM22.499,23.388h-16.93v-0.857h16.93zM21.864,22.07h-15.628v-1.185h15.628zM2.362,19.695l-1.997,1.143v0.007h1.997v0.218h-1.912c-0.33,0 -0.316,0.052 -0.372,0.346h-0.078v-0.73l1.91,-1.091v-0.007h-1.91v-0.218h2.362zM7.42,9.37c0.23,0 0.45867,0.024 0.686,0.072c0.056,0.012 0.084,0.027 0.087,0.092c0.038,0.761 0.088,1.522 0.119,2.283c0.03133,0.80867 0.05333,1.61733 0.066,2.426c0.01,0.573 0.003,1.147 -0.006,1.72c-0.00869,0.63585 -0.02536,1.27157 -0.05,1.907c-0.029,0.682 -0.071,1.364 -0.11,2.045c-0.006,0.13 -0.02,0.26 -0.03,0.388c-0.24881,0.06585 -0.50466,0.10144 -0.762,0.106c-0.25667,-0.00472 -0.51184,-0.04031 -0.76,-0.106c-0.011,-0.127 -0.025,-0.258 -0.032,-0.388c-0.038,-0.681 -0.081,-1.363 -0.11,-2.045c-0.04719,-1.20839 -0.06553,-2.41773 -0.055,-3.627c0.01267,-0.80867 0.03467,-1.61733 0.066,-2.426c0.03,-0.76 0.08,-1.522 0.118,-2.283c0.004,-0.065 0.031,-0.08 0.086,-0.092c0.228,-0.04867 0.457,-0.07267 0.687,-0.072M11.652,9.37c0.23067,0 0.45967,0.024 0.687,0.072c0.055,0.012 0.083,0.027 0.087,0.092c0.037,0.761 0.088,1.522 0.118,2.283c0.03133,0.80867 0.05333,1.61733 0.066,2.426c0.00986,1.20928 -0.00915,2.41863 -0.057,3.627c-0.027,0.682 -0.07,1.364 -0.108,2.045c-0.007,0.13 -0.02,0.26 -0.03,0.388c-0.24914,0.06593 -0.50533,0.10152 -0.763,0.106c-0.25667,-0.00472 -0.51184,-0.04031 -0.76,-0.106c-0.01,-0.127 -0.024,-0.258 -0.032,-0.388c-0.038,-0.681 -0.081,-1.363 -0.109,-2.045c-0.02464,-0.63543 -0.04131,-1.27115 -0.05,-1.907c-0.0113,-0.57326 -0.0133,-1.14667 -0.006,-1.72c0.01333,-0.80867 0.03567,-1.61733 0.067,-2.426c0.03,-0.76 0.08,-1.522 0.118,-2.283c0.003,-0.065 0.03,-0.08 0.086,-0.092c0.22733,-0.04867 0.456,-0.07267 0.686,-0.072M16.562,9.37c0.23,0 0.45867,0.024 0.686,0.072c0.055,0.012 0.084,0.027 0.087,0.092c0.037,0.761 0.087,1.522 0.117,2.283c0.03133,0.80867 0.05367,1.61733 0.067,2.426c0.01019,1.20927 -0.00848,2.41862 -0.056,3.627c-0.028,0.682 -0.072,1.364 -0.11,2.045c-0.007,0.13 -0.02,0.26 -0.03,0.388c-0.24881,0.06585 -0.50466,0.10144 -0.762,0.106c-0.25667,-0.00472 -0.51184,-0.04031 -0.76,-0.106c-0.01,-0.127 -0.024,-0.258 -0.031,-0.388c-0.038,-0.681 -0.082,-1.363 -0.11,-2.045c-0.02464,-0.63543 -0.04131,-1.27115 -0.05,-1.907c-0.0113,-0.57326 -0.0133,-1.14667 -0.006,-1.72c0.01333,-0.80867 0.03567,-1.61733 0.067,-2.426c0.03,-0.76 0.08,-1.522 0.117,-2.283c0.003,-0.065 0.032,-0.08 0.087,-0.092c0.228,-0.04867 0.45667,-0.07267 0.686,-0.072M20.692,9.37c0.23067,0 0.45967,0.024 0.687,0.072c0.055,0.012 0.083,0.027 0.087,0.092c0.037,0.761 0.087,1.522 0.117,2.283c0.032,0.80867 0.05433,1.61733 0.067,2.426c0.01,0.573 0.004,1.147 -0.006,1.72c-0.00867,0.636 -0.02533,1.27167 -0.05,1.907c-0.028,0.682 -0.072,1.364 -0.11,2.045c-0.007,0.13 -0.02,0.26 -0.03,0.388c-0.24881,0.06585 -0.50466,0.10144 -0.762,0.106c-0.25667,-0.00472 -0.51184,-0.04031 -0.76,-0.106c-0.01,-0.127 -0.024,-0.258 -0.032,-0.388c-0.038,-0.681 -0.081,-1.363 -0.109,-2.045c-0.04752,-1.20838 -0.06619,-2.41773 -0.056,-3.627c0.01333,-0.80867 0.03567,-1.61733 0.067,-2.426c0.03,-0.76 0.08,-1.522 0.117,-2.283c0.003,-0.065 0.032,-0.08 0.087,-0.092c0.22733,-0.04867 0.456,-0.07267 0.686,-0.072M0.52,16.272c-0.274,0 -0.355,0.118 -0.355,0.377v0.236h2.197v0.38h-2.197v0.239c0,0.263 0.077,0.353 0.344,0.374v0.097l-0.509,-0.015v-1.772l0.52,-0.014zM2.362,13.402v1.381h-1.884c-0.338,0 -0.348,0.004 -0.4,0.33h-0.078v-1.659l0.52,-0.01v0.096c-0.264,0 -0.355,0.128 -0.355,0.374v0.27c0,0.16 0.004,0.218 0.183,0.218h0.698v-0.419c0,-0.197 -0.09,-0.253 -0.27,-0.284v-0.097h0.737v0.097c-0.197,0 -0.302,0.084 -0.302,0.284v0.42h0.783c0.193,0 0.204,-0.042 0.204,-0.218v-0.385c0,-0.236 -0.12,-0.294 -0.344,-0.312v-0.096zM2.362,10.615l-1.091,0.612v0.215h1.091v0.381h-1.884c-0.338,0 -0.352,0 -0.4,0.33h-0.078v-0.89c0,-0.42 0.091,-0.938 0.628,-0.939c0.354,0 0.527,0.2 0.58,0.53l1.154,-0.637zM0.649,10.705c-0.347,0 -0.484,0.176 -0.484,0.505c0,0.25 0.095,0.232 0.316,0.232h0.624v-0.197c0,-0.301 -0.112,-0.54 -0.456,-0.54M2.362,7.36l-1.997,1.143v0.007h1.997v0.219h-1.912c-0.33,0 -0.316,0.051 -0.372,0.345h-0.078v-0.73l1.91,-1.09v-0.008h-1.91v-0.218h2.362zM21.681,9.03h-15.545v-1.645h15.544zM22.048,6.38l-0.468,0.51h-15.344l-0.467,-0.51l8.14,-1.877zM2.362,3.958v1.38h-1.884c-0.338,0 -0.348,0.005 -0.4,0.33h-0.078v-1.658l0.52,-0.011v0.098c-0.264,0 -0.355,0.127 -0.355,0.373v0.27c0,0.16 0.004,0.218 0.183,0.218h0.698v-0.419c0,-0.197 -0.091,-0.252 -0.27,-0.283v-0.098h0.737v0.098c-0.197,0 -0.302,0.083 -0.302,0.283v0.419h0.783c0.193,0 0.204,-0.041 0.204,-0.218v-0.385c0,-0.235 -0.12,-0.294 -0.344,-0.311v-0.097zM11.453,0.528c0.239,0 0.478,0.031 0.702,0.104l0.02,0.578h-0.1c-0.00858,-0.07544 -0.03423,-0.14794 -0.075,-0.212c-0.10318,-0.18704 -0.2994,-0.30369 -0.513,-0.305c-0.53,0 -0.6,0.575 -0.6,0.977c0,0.43 0.133,1.039 0.68,1.039c0.232,0 0.425,-0.045 0.615,-0.177v0.239c-0.21254,0.09193 -0.4425,0.13662 -0.674,0.131c-0.808,0 -1.035,-0.515 -1.035,-1.232c0,-0.668 0.224,-1.143 0.98,-1.143M6.228,2.867h-0.366l-0.262,-0.72h-0.896l-0.264,0.72h-0.217l0.699,-1.886c0.014,-0.034 0.06,-0.172 0.06,-0.204c0,-0.145 -0.162,-0.145 -0.271,-0.163v-0.076h0.66zM8.214,0.538c0.425,0 0.951,0.09 0.951,0.62c0,0.35 -0.204,0.519 -0.537,0.57l0.646,1.14h-0.404l-0.62,-1.077h-0.218v1.077h-0.385v-1.86c0,-0.331 -0.001,-0.345 -0.334,-0.394v-0.076zM14.116,1.573h0.955v-1.035h0.386v2.33h-0.386v-1.132h-0.955v1.132h-0.386v-1.873c0,-0.301 -0.056,-0.308 -0.351,-0.339v-0.076l0.737,-0.08zM17.796,0.648c-0.262,0 -0.297,0.074 -0.297,0.323v1.488c0,0.25 0.035,0.322 0.298,0.322v0.087h-0.983v-0.087c0.264,0 0.298,-0.07 0.298,-0.322v-1.488c0,-0.253 -0.034,-0.323 -0.297,-0.323v-0.086h0.982zM20.313,2.436h0.006l0.671,-1.898h0.228l-0.857,2.33h-0.305l-0.688,-1.887c-0.105,-0.29 -0.123,-0.311 -0.425,-0.367v-0.076h0.681zM23.947,1.051h-0.098c0,-0.26 -0.13,-0.35 -0.38,-0.35h-0.273c-0.161,0 -0.221,0.003 -0.221,0.18v0.688h0.424c0.2,0 0.257,-0.09 0.288,-0.266h0.1v0.727h-0.1c0,-0.194 -0.084,-0.298 -0.288,-0.298h-0.424v0.773c0,0.19 0.042,0.2 0.221,0.2h0.39c0.238,0 0.298,-0.117 0.315,-0.339h0.099l-0.01,0.502h-1.401v-1.86c0,-0.331 -0.004,-0.342 -0.334,-0.394v-0.076h1.681zM0.52,0.98c-0.274,0 -0.355,0.117 -0.355,0.376v0.237h2.197v0.38h-2.197v0.239c0,0.263 0.077,0.353 0.344,0.374v0.097l-0.509,-0.013v-1.773l0.52,-0.013zM4.764,1.984h0.776l-0.4,-1.01zM8.267,0.701c-0.253,0 -0.236,0.094 -0.236,0.312v0.616h0.2c0.306,0 0.548,-0.111 0.548,-0.45c0.001,-0.343 -0.179,-0.479 -0.512,-0.479" fill="#62757e"></path></g></g>
  </g>
 </g>
</svg>
