<?xml version="1.0" encoding="UTF-8"?>
<!--Generator: Apple Native CoreSVG 175.5-->
<!DOCTYPE svg
PUBLIC "-//W3C//DTD SVG 1.1//EN"
       "http://www.w3.org/Graphics/SVG/1.1/DTD/svg11.dtd">
<svg version="1.1" xmlns="http://www.w3.org/2000/svg" xmlns:xlink="http://www.w3.org/1999/xlink" width="3300" height="2200">
 <!--glyph: "", point size: 100.0, font version: "18.0d12e2", template writer version: "101"-->
 <g id="Notes">
  <rect height="2200" id="artboard" style="fill:white;opacity:1" width="3300" x="0" y="0"/>
  <line style="fill:none;stroke:black;opacity:1;stroke-width:0.5;" x1="263" x2="3036" y1="292" y2="292"/>
  <text style="stroke:none;fill:black;font-family:sans-serif;font-size:13;font-weight:bold;" transform="matrix(1 0 0 1 263 322)">Weight/Scale Variations</text>
  <text style="stroke:none;fill:black;font-family:sans-serif;font-size:13;text-anchor:middle;" transform="matrix(1 0 0 1 559.711 322)">Ultralight</text>
  <text style="stroke:none;fill:black;font-family:sans-serif;font-size:13;text-anchor:middle;" transform="matrix(1 0 0 1 856.422 322)">Thin</text>
  <text style="stroke:none;fill:black;font-family:sans-serif;font-size:13;text-anchor:middle;" transform="matrix(1 0 0 1 1153.13 322)">Light</text>
  <text style="stroke:none;fill:black;font-family:sans-serif;font-size:13;text-anchor:middle;" transform="matrix(1 0 0 1 1449.84 322)">Regular</text>
  <text style="stroke:none;fill:black;font-family:sans-serif;font-size:13;text-anchor:middle;" transform="matrix(1 0 0 1 1746.56 322)">Medium</text>
  <text style="stroke:none;fill:black;font-family:sans-serif;font-size:13;text-anchor:middle;" transform="matrix(1 0 0 1 2043.27 322)">Semibold</text>
  <text style="stroke:none;fill:black;font-family:sans-serif;font-size:13;text-anchor:middle;" transform="matrix(1 0 0 1 2339.98 322)">Bold</text>
  <text style="stroke:none;fill:black;font-family:sans-serif;font-size:13;text-anchor:middle;" transform="matrix(1 0 0 1 2636.69 322)">Heavy</text>
  <text style="stroke:none;fill:black;font-family:sans-serif;font-size:13;text-anchor:middle;" transform="matrix(1 0 0 1 2933.4 322)">Black</text>
  <line style="fill:none;stroke:black;opacity:1;stroke-width:0.5;" x1="263" x2="3036" y1="1903" y2="1903"/>
  <g transform="matrix(1 0 0 1 263 1933)">
   <path d="M9.24805 0.830078C13.5547 0.830078 17.1387-2.74414 17.1387-7.05078C17.1387-11.3574 13.5449-14.9316 9.23828-14.9316C4.94141-14.9316 1.36719-11.3574 1.36719-7.05078C1.36719-2.74414 4.95117 0.830078 9.24805 0.830078ZM9.24805-0.654297C5.70312-0.654297 2.87109-3.49609 2.87109-7.05078C2.87109-10.6055 5.69336-13.4473 9.23828-13.4473C12.793-13.4473 15.6445-10.6055 15.6445-7.05078C15.6445-3.49609 12.8027-0.654297 9.24805-0.654297ZM5.6543-7.05078C5.6543-6.62109 5.95703-6.32812 6.40625-6.32812L8.50586-6.32812L8.50586-4.20898C8.50586-3.76953 8.79883-3.4668 9.22852-3.4668C9.67773-3.4668 9.9707-3.76953 9.9707-4.20898L9.9707-6.32812L12.0898-6.32812C12.5293-6.32812 12.832-6.62109 12.832-7.05078C12.832-7.49023 12.5293-7.79297 12.0898-7.79297L9.9707-7.79297L9.9707-9.90234C9.9707-10.3516 9.67773-10.6543 9.22852-10.6543C8.79883-10.6543 8.50586-10.3516 8.50586-9.90234L8.50586-7.79297L6.40625-7.79297C5.95703-7.79297 5.6543-7.49023 5.6543-7.05078Z"/>
  </g>
  <g transform="matrix(1 0 0 1 281.867 1933)">
   <path d="M11.709 2.91016C17.1582 2.91016 21.6699-1.61133 21.6699-7.05078C21.6699-12.5 17.1484-17.0117 11.6992-17.0117C6.25977-17.0117 1.74805-12.5 1.74805-7.05078C1.74805-1.61133 6.26953 2.91016 11.709 2.91016ZM11.709 1.25C7.09961 1.25 3.41797-2.44141 3.41797-7.05078C3.41797-11.6602 7.08984-15.3516 11.6992-15.3516C16.3086-15.3516 20.0098-11.6602 20.0098-7.05078C20.0098-2.44141 16.3184 1.25 11.709 1.25ZM7.17773-7.05078C7.17773-6.57227 7.50977-6.25 8.00781-6.25L10.8789-6.25L10.8789-3.36914C10.8789-2.88086 11.2109-2.53906 11.6895-2.53906C12.1777-2.53906 12.5195-2.87109 12.5195-3.36914L12.5195-6.25L15.4004-6.25C15.8887-6.25 16.2305-6.57227 16.2305-7.05078C16.2305-7.53906 15.8887-7.88086 15.4004-7.88086L12.5195-7.88086L12.5195-10.752C12.5195-11.25 12.1777-11.5918 11.6895-11.5918C11.2109-11.5918 10.8789-11.25 10.8789-10.752L10.8789-7.88086L8.00781-7.88086C7.50977-7.88086 7.17773-7.53906 7.17773-7.05078Z"/>
  </g>
  <g transform="matrix(1 0 0 1 305.646 1933)">
   <path d="M14.9707 5.66406C21.9336 5.66406 27.6953-0.0976562 27.6953-7.05078C27.6953-14.0137 21.9238-19.7754 14.9609-19.7754C8.00781-19.7754 2.25586-14.0137 2.25586-7.05078C2.25586-0.0976562 8.01758 5.66406 14.9707 5.66406ZM14.9707 3.84766C8.93555 3.84766 4.08203-1.01562 4.08203-7.05078C4.08203-13.0957 8.92578-17.9492 14.9609-17.9492C21.0059-17.9492 25.8691-13.0957 25.8691-7.05078C25.8691-1.01562 21.0156 3.84766 14.9707 3.84766ZM9.19922-7.05078C9.19922-6.5332 9.57031-6.17188 10.1172-6.17188L14.0625-6.17188L14.0625-2.2168C14.0625-1.67969 14.4336-1.29883 14.9512-1.29883C15.4883-1.29883 15.8594-1.66992 15.8594-2.2168L15.8594-6.17188L19.8145-6.17188C20.3516-6.17188 20.7324-6.5332 20.7324-7.05078C20.7324-7.59766 20.3613-7.96875 19.8145-7.96875L15.8594-7.96875L15.8594-11.9141C15.8594-12.4609 15.4883-12.8418 14.9512-12.8418C14.4336-12.8418 14.0625-12.4609 14.0625-11.9141L14.0625-7.96875L10.1172-7.96875C9.57031-7.96875 9.19922-7.59766 9.19922-7.05078Z"/>
  </g>
  <text style="stroke:none;fill:black;font-family:sans-serif;font-size:13;font-weight:bold;" transform="matrix(1 0 0 1 263 1953)">Design Variations</text>
  <text style="stroke:none;fill:black;font-family:sans-serif;font-size:13;" transform="matrix(1 0 0 1 263 1971)">Symbols are supported in up to nine weights and three scales.</text>
  <text style="stroke:none;fill:black;font-family:sans-serif;font-size:13;" transform="matrix(1 0 0 1 263 1989)">For optimal layout with text and other symbols, vertically align</text>
  <text style="stroke:none;fill:black;font-family:sans-serif;font-size:13;" transform="matrix(1 0 0 1 263 2007)">symbols with the adjacent text.</text>
  <line style="fill:none;stroke:#00AEEF;stroke-width:0.5;opacity:1.0;" x1="776" x2="776" y1="1919" y2="1933"/>
  <g transform="matrix(1 0 0 1 776 1933)">
   <path d="M3.31055 0.15625C3.82812 0.15625 4.08203-0.0390625 4.26758-0.585938L5.52734-4.0332L11.2891-4.0332L12.5488-0.585938C12.7344-0.0390625 12.9883 0.15625 13.4961 0.15625C14.0137 0.15625 14.3457-0.15625 14.3457-0.644531C14.3457-0.810547 14.3164-0.966797 14.2383-1.17188L9.6582-13.3691C9.43359-13.9648 9.0332-14.2676 8.4082-14.2676C7.80273-14.2676 7.39258-13.9746 7.17773-13.3789L2.59766-1.16211C2.51953-0.957031 2.49023-0.800781 2.49023-0.634766C2.49023-0.146484 2.80273 0.15625 3.31055 0.15625ZM6.00586-5.51758L8.37891-12.0898L8.42773-12.0898L10.8008-5.51758Z"/>
  </g>
  <line style="fill:none;stroke:#00AEEF;stroke-width:0.5;opacity:1.0;" x1="793.197" x2="793.197" y1="1919" y2="1933"/>
  <text style="stroke:none;fill:black;font-family:sans-serif;font-size:13;font-weight:bold;" transform="matrix(1 0 0 1 776 1953)">Margins</text>
  <text style="stroke:none;fill:black;font-family:sans-serif;font-size:13;" transform="matrix(1 0 0 1 776 1971)">Leading and trailing margins on the left and right side of each symbol</text>
  <text style="stroke:none;fill:black;font-family:sans-serif;font-size:13;" transform="matrix(1 0 0 1 776 1989)">can be adjusted by modifying the x-location of the margin guidelines.</text>
  <text style="stroke:none;fill:black;font-family:sans-serif;font-size:13;" transform="matrix(1 0 0 1 776 2007)">Modifications are automatically applied proportionally to all</text>
  <text style="stroke:none;fill:black;font-family:sans-serif;font-size:13;" transform="matrix(1 0 0 1 776 2025)">scales and weights.</text>
  <g transform="matrix(1 0 0 1 1289 1933)">
   <path d="M2.8418 1.86523L4.54102 3.57422C5.40039 4.44336 6.38672 4.38477 7.31445 3.35938L18.0078-8.42773L17.041-9.4043L6.42578 2.27539C6.07422 2.67578 5.74219 2.77344 5.27344 2.30469L4.10156 1.14258C3.63281 0.683594 3.74023 0.341797 4.14062-0.0195312L15.6152-10.8203L14.6387-11.7871L3.04688-0.898438C2.06055 0.0195312 1.98242 0.996094 2.8418 1.86523ZM9.25781-16.3281C8.83789-15.918 8.80859-15.3418 9.04297-14.9512C9.27734-14.5898 9.73633-14.3555 10.3809-14.5215C11.8457-14.8633 13.3691-14.9219 14.7949-13.9844L14.209-12.5293C13.8672-11.6992 14.043-11.1133 14.5801-10.5664L16.875-8.25195C17.3633-7.76367 17.7734-7.74414 18.3398-7.8418L19.4043-8.03711L20.0684-7.36328L20.0293-6.80664C19.9902-6.30859 20.1172-5.92773 20.6055-5.44922L21.3672-4.70703C21.8457-4.22852 22.4609-4.19922 22.9297-4.66797L25.8398-7.58789C26.3086-8.05664 26.2891-8.65234 25.8105-9.13086L25.0391-9.89258C24.5605-10.3711 24.1895-10.5273 23.7109-10.4883L23.1348-10.4395L22.4902-11.0742L22.7344-12.1973C22.8613-12.7637 22.7051-13.2031 22.1191-13.7891L19.9219-15.9766C16.582-19.2969 12.1484-19.2188 9.25781-16.3281ZM10.752-15.957C13.1836-17.7344 16.4746-17.4316 18.7012-15.2051L21.1328-12.793C21.3672-12.5586 21.4062-12.373 21.3379-12.0312L21.0156-10.5469L22.5195-9.0625L23.5059-9.12109C23.7598-9.13086 23.8379-9.11133 24.0332-8.91602L24.6094-8.33984L22.168-5.89844L21.5918-6.47461C21.3965-6.66992 21.3672-6.74805 21.377-7.01172L21.4453-7.98828L19.9512-9.47266L18.4277-9.21875C18.1055-9.15039 17.959-9.17969 17.7148-9.41406L15.7129-11.416C15.459-11.6504 15.4297-11.8164 15.5859-12.1875L16.4648-14.2773C14.9023-15.7324 12.8711-16.3574 10.8398-15.7617C10.6836-15.7227 10.625-15.8496 10.752-15.957Z"/>
  </g>
  <text style="stroke:none;fill:black;font-family:sans-serif;font-size:13;font-weight:bold;" transform="matrix(1 0 0 1 1289 1953)">Exporting</text>
  <text style="stroke:none;fill:black;font-family:sans-serif;font-size:13;" transform="matrix(1 0 0 1 1289 1971)">Symbols should be outlined when exporting to ensure the</text>
  <text style="stroke:none;fill:black;font-family:sans-serif;font-size:13;" transform="matrix(1 0 0 1 1289 1989)">design is preserved when submitting to Xcode.</text>
  <text id="template-version" style="stroke:none;fill:black;font-family:sans-serif;font-size:13;text-anchor:end;" transform="matrix(1 0 0 1 3036 1933)">Template v.4.0</text>
  <text style="stroke:none;fill:black;font-family:sans-serif;font-size:13;text-anchor:end;" transform="matrix(1 0 0 1 3036 1951)">Requires Xcode 14 or greater</text>
  <text id="descriptive-name" style="stroke:none;fill:black;font-family:sans-serif;font-size:13;text-anchor:end;" transform="matrix(1 0 0 1 3036 1969)">Generated from brave.zzz</text>
  <text style="stroke:none;fill:black;font-family:sans-serif;font-size:13;text-anchor:end;" transform="matrix(1 0 0 1 3036 1987)">Typeset at 100 points</text>
  <text style="stroke:none;fill:black;font-family:sans-serif;font-size:13;" transform="matrix(1 0 0 1 263 726)">Small</text>
  <text style="stroke:none;fill:black;font-family:sans-serif;font-size:13;" transform="matrix(1 0 0 1 263 1156)">Medium</text>
  <text style="stroke:none;fill:black;font-family:sans-serif;font-size:13;" transform="matrix(1 0 0 1 263 1586)">Large</text>
 </g>
 <g id="Guides">
  <g id="H-reference" style="fill:#27AAE1;stroke:none;" transform="matrix(1 0 0 1 339 696)">
   <path d="M0.993654 0L3.63775 0L29.3281-67.1323L30.0303-67.1323L30.0303-70.459L28.1226-70.459ZM11.6885-24.4799L46.9815-24.4799L46.2315-26.7285L12.4385-26.7285ZM55.1196 0L57.7637 0L30.6382-70.459L29.4326-70.459L29.4326-67.1323Z"/>
  </g>
  <line id="Baseline-S" style="fill:none;stroke:#27AAE1;opacity:1;stroke-width:0.5;" x1="263" x2="3036" y1="696" y2="696"/>
  <line id="Capline-S" style="fill:none;stroke:#27AAE1;opacity:1;stroke-width:0.5;" x1="263" x2="3036" y1="625.541" y2="625.541"/>
  <g id="H-reference" style="fill:#27AAE1;stroke:none;" transform="matrix(1 0 0 1 339 1126)">
   <path d="M0.993654 0L3.63775 0L29.3281-67.1323L30.0303-67.1323L30.0303-70.459L28.1226-70.459ZM11.6885-24.4799L46.9815-24.4799L46.2315-26.7285L12.4385-26.7285ZM55.1196 0L57.7637 0L30.6382-70.459L29.4326-70.459L29.4326-67.1323Z"/>
  </g>
  <line id="Baseline-M" style="fill:none;stroke:#27AAE1;opacity:1;stroke-width:0.5;" x1="263" x2="3036" y1="1126" y2="1126"/>
  <line id="Capline-M" style="fill:none;stroke:#27AAE1;opacity:1;stroke-width:0.5;" x1="263" x2="3036" y1="1055.54" y2="1055.54"/>
  <g id="H-reference" style="fill:#27AAE1;stroke:none;" transform="matrix(1 0 0 1 339 1556)">
   <path d="M0.993654 0L3.63775 0L29.3281-67.1323L30.0303-67.1323L30.0303-70.459L28.1226-70.459ZM11.6885-24.4799L46.9815-24.4799L46.2315-26.7285L12.4385-26.7285ZM55.1196 0L57.7637 0L30.6382-70.459L29.4326-70.459L29.4326-67.1323Z"/>
  </g>
  <line id="Baseline-L" style="fill:none;stroke:#27AAE1;opacity:1;stroke-width:0.5;" x1="263" x2="3036" y1="1556" y2="1556"/>
  <line id="Capline-L" style="fill:none;stroke:#27AAE1;opacity:1;stroke-width:0.5;" x1="263" x2="3036" y1="1485.54" y2="1485.54"/>
  <line id="left-margin-Regular-M" style="fill:none;stroke:#00AEEF;stroke-width:0.5;opacity:1.0;" x1="1389.82" x2="1389.82" y1="1030.79" y2="1150.12"/>
  <line id="right-margin-Regular-M" style="fill:none;stroke:#00AEEF;stroke-width:0.5;opacity:1.0;" x1="1509.87" x2="1509.87" y1="1030.79" y2="1150.12"/>
 </g>
 <g id="Symbols">
  <g id="Regular-L" transform="matrix(6.45 0 0 6.45 1372.2675 1443)">
    <defs><clipPath id="clip-1"><rect x="0" y="0" width="24" height="24" fill="none"></rect></clipPath></defs>
<g clip-path="url(#clip-1)" fill="none" fill-rule="nonzero" stroke="none" stroke-width="1" stroke-linecap="butt" stroke-linejoin="miter" stroke-miterlimit="10" stroke-dasharray="" stroke-dashoffset="0" font-family="none" font-weight="none" font-size="none" text-anchor="none" style="mix-blend-mode: normal"><path d="M9.137,4.49h-0.249c0.083,-0.083 0.166,-0.083 0.249,0c0,0 0,-0.083 0,0zM10.465,5.485c0.083,-0.083 0.083,-0.166 0,-0.166c-0.083,0 -0.166,-0.165 -0.166,-0.248c-0.083,-0.166 -0.083,-0.249 -0.249,-0.249c0.083,0 0.083,-0.083 0.083,-0.083c-0.083,0 -0.083,-0.083 -0.083,-0.083c0.14777,-0.1642 0.36018,-0.25524 0.581,-0.249c0.498,-0.083 0.913,-0.166 1.41,-0.249c0.333,-0.083 0.581,-0.083 0.913,-0.083c0.083,0 0.166,0.083 0.249,0.083c0.083,0 0.249,0.083 0.332,0.083c0,0 -0.083,0.083 -0.165,0.083c-0.084,0 -0.167,0.083 -0.25,0.083c-0.083,0.083 -0.083,0.083 -0.083,0.166c0,0.083 -0.083,0.165 -0.083,0.165c-0.083,0.167 -0.332,0.25 -0.498,0.25h-0.083c0.083,0.083 0.166,0.083 0.249,0.166c-0.166,0.083 -0.249,-0.083 -0.332,-0.083c0,0.083 -0.082,0.083 -0.082,0.166h0.248l-0.083,0.082c-0.166,0.083 -0.249,0.083 -0.414,0.083c-0.1539,0.00312 -0.30141,0.06212 -0.415,0.166c-0.166,0.166 -0.332,0.249 -0.498,0.249c-0.249,0 -0.415,0.166 -0.498,0.332l-0.166,0.166c-0.083,0.083 -0.249,0.083 -0.332,0.083c-0.166,0 -0.25,-0.082 -0.25,-0.332v-0.166c0,-0.166 0.084,-0.332 0.25,-0.332c0,-0.083 0.083,-0.083 0.415,-0.083zM6.066,11.295c-0.249,0.083 -0.414,0.166 -0.664,0.083c0,-0.083 0.166,0 0.166,-0.166c0.166,0 0.332,0 0.498,0.083zM4.158,12.291c0.083,0 0.083,0.082 0.165,0.082c0.084,0 0.167,0.083 0.25,0.083c-0.249,0.083 -0.415,0 -0.415,-0.165zM6.979,5.485c0.083,-0.166 0.249,-0.248 0.415,-0.166c-0.165,0.083 -0.249,0.083 -0.415,0.167zM9.22,4.49c-0.166,0.083 -0.249,0.166 -0.415,0.166c0.083,-0.083 0.249,-0.083 0.415,-0.166zM5.071,11.129c-0.249,-0.083 -0.415,-0.083 -0.664,-0.166c0.249,-0.084 0.498,0 0.664,0.166zM13.452,6.813c0,0.249 -0.249,0.415 -0.415,0.415c0,-0.249 0.166,-0.415 0.415,-0.415zM13.784,7.228c-0.083,-0.083 -0.083,-0.083 -0.166,-0.083c0,-0.083 0.083,-0.166 0.249,-0.166h0.083c0.083,0.083 0.166,0.083 0.249,0.166c-0.00583,0.08915 -0.07685,0.16017 -0.166,0.166c-0.166,0 -0.332,0.083 -0.498,0.083c0,-0.083 0.083,-0.083 0.249,-0.166zM7.062,6.149c0.083,0 0.166,0 0.166,0.166h-0.415c0,-0.166 0.166,-0.249 0.249,-0.166zM7.81,6.066c-0.084,0.083 -0.167,0.083 -0.25,0.083c0.083,-0.083 0.083,-0.083 0.25,-0.083zM7.062,5.983c0.083,-0.083 0.249,-0.166 0.332,-0.166c-0.082,0.083 -0.249,0.083 -0.332,0.166zM8.805,5.9h-0.249v0.166c0,0.083 -0.083,0.166 -0.166,0.083h-0.083l0.083,0.083c-0.09487,0.08262 -0.23613,0.08262 -0.331,0c-0.084,0 -0.084,-0.083 -0.25,-0.083c0.083,-0.083 0.166,-0.165 0.249,-0.165h0.249c0,-0.084 -0.083,-0.167 -0.083,-0.25c-0.082,-0.166 -0.166,-0.249 -0.332,-0.166c-0.166,0.083 -0.415,0 -0.581,0c-0.083,0 0,0 0,-0.083c0.083,-0.166 0.249,-0.248 0.415,-0.166l-0.083,0.083c0.083,-0.083 0.166,-0.083 0.166,-0.083c0.166,-0.082 0.249,-0.082 0.332,0h0.166c0.083,-0.082 0.166,0 0.166,0c0.083,0.083 0.166,0.166 0.249,0.166c0.00583,0.08915 0.07685,0.16017 0.166,0.166c0.083,0.083 0.083,0.083 0.083,0.166c-0.083,0.083 -0.083,0.083 -0.166,0.083zM13.701,6.647c0,0.083 0.083,0.083 0.083,0.166c-0.166,-0.083 -0.166,-0.083 -0.083,-0.166zM8.141,7.892c0.09371,-0.17673 0.23827,-0.32129 0.415,-0.415c-0.083,0.083 0,0.166 0.083,0.166c0,0.083 0.083,0.083 0.083,0.083v0.083c0,0.083 -0.083,0.083 -0.083,0.083c-0.083,0 -0.166,0.083 -0.249,0.083c-0.083,0 -0.166,-0.082 -0.249,-0.082zM21.087,12.539c-0.58,0 -0.83,-0.746 -0.83,-0.83v-0.331l-0.083,0.083l-0.083,0.083c-0.166,0 -0.249,0.083 -0.332,0.248l-0.083,0.084c-0.083,0.083 -0.249,0.083 -0.332,0.165c-0.166,0 -0.332,-0.082 -0.498,-0.082c-0.00312,-0.1539 -0.06212,-0.30141 -0.166,-0.415l-0.165,-0.166c-0.084,-0.083 -0.084,-0.166 -0.166,-0.25c0,-0.165 -0.083,-0.248 -0.166,-0.331c-0.166,-0.166 -0.332,-0.332 -0.332,-0.581c0,0 0,0.083 -0.083,0.166c-0.083,-0.083 -0.083,-0.166 -0.166,-0.166l0.249,0.498c0.083,0.166 0.166,0.249 0.249,0.415c0,0 0.083,0.083 0,0.083c0,0.166 0.083,0.249 0.166,0.332c0.04716,0.04281 0.07674,0.10162 0.083,0.165v0.167c0,0.083 0.082,0.083 0.082,0.083c0,0 0,0.082 -0.082,0.082c-0.332,0 -0.664,0 -1.162,0.083c0,0 -0.166,0 -0.332,0.083c-0.996,0.25 -1.909,0.747 -2.24,0.913h-0.084c-0.083,0 -0.083,-0.083 -0.083,-0.083c-0.083,-0.083 -0.166,0 -0.249,0c-0.083,0.083 -0.249,0.083 -0.332,0.166h-0.166c-0.166,-0.083 -0.249,0 -0.332,0c-0.09503,0.0832 -0.23697,0.0832 -0.332,0c-0.249,-0.083 -0.415,-0.249 -0.58,-0.58c-0.084,-0.167 -0.084,-0.25 -0.25,-0.332c-0.083,0 -0.083,-0.084 -0.083,-0.084c0.083,-0.083 0.083,-0.083 0.083,-0.166c-0.083,-0.082 -0.083,-0.082 0,-0.165l0.083,-0.083c0.083,-0.083 0.083,-0.166 0,-0.25c0,-0.082 0,-0.082 -0.082,-0.165c-0.084,-0.166 0,-0.25 0,-0.332c0.165,-0.166 0.248,-0.332 0.414,-0.581c0.083,-0.083 0.166,-0.166 0.25,-0.166c-0.167,-0.332 -0.084,-0.498 -0.084,-0.664c0,-0.083 0,-0.166 0.083,-0.25l0.25,-0.248c0.082,-0.083 0.082,-0.083 0.165,0c0.083,0 0.166,0.083 0.25,0.083c0.082,0 0.165,-0.083 0.248,-0.083c0.083,-0.083 0.25,-0.083 0.332,-0.166h0.664c0.166,0 0.166,0 0.083,0.166c-0.083,0.249 0,0.249 0.249,0.332h0.166c0.083,0 0.166,0.083 0.249,0.166l0.083,0.083c0.083,0 0.083,0 0.166,0.083c0.166,0 0.166,0 0.166,-0.166c0.083,-0.083 0.166,-0.166 0.249,-0.166c0.083,0 0.166,0.083 0.249,0.083c0.083,0 0.166,0.083 0.249,0.083h0.747c0.08915,-0.00583 0.16017,-0.07685 0.166,-0.166c0,-0.166 0.083,-0.25 0.083,-0.415c0,-0.166 0,-0.166 -0.166,-0.083c-0.083,0 -0.166,0.083 -0.25,0c-0.082,-0.083 -0.165,-0.083 -0.331,0c-0.166,0.083 -0.25,0 -0.25,-0.166c0,-0.083 -0.082,-0.166 -0.082,-0.249c0.166,-0.083 0.415,-0.166 0.58,-0.249h0.084c0.166,0 0.332,0.083 0.415,0.083h0.249c0.083,0 0.166,-0.166 0.083,-0.249c0,0 -0.083,-0.083 -0.166,-0.083c-0.083,0 -0.166,-0.083 -0.25,-0.083c-0.082,0 -0.082,-0.083 -0.082,-0.166c0.249,0.083 0.249,0 0.249,-0.083c-0.083,0.083 -0.25,0.083 -0.332,0.166c0.083,0.083 0.083,0.083 0.166,0.083c-0.083,0 -0.166,0.083 -0.166,0.083c-0.083,0 -0.083,0 -0.166,-0.083c0,-0.166 -0.166,-0.166 -0.25,-0.083c-0.082,0.083 -0.165,0.166 -0.165,0.25c-0.08262,0.09487 -0.08262,0.23613 0,0.331c-0.166,0.083 -0.415,0 -0.581,0.166c0,0.083 0.083,0.166 0.083,0.249c0,0.083 0,0.166 -0.083,0.166c-0.083,0 -0.083,-0.083 -0.166,-0.083v-0.166h-0.083c-0.08896,-0.00626 -0.15974,-0.07704 -0.166,-0.166c0,-0.166 -0.083,-0.332 -0.332,-0.332c-0.083,-0.083 -0.249,-0.083 -0.332,-0.249c0,-0.083 -0.083,0 -0.083,0c0.083,0 0.083,0.083 0.166,0.083l0.332,0.332c0.083,0.083 0,0.166 -0.083,0.249c-0.083,0.083 -0.332,0 -0.332,-0.083c-0.083,-0.083 0,-0.166 0.083,-0.249c-0.083,-0.083 -0.249,-0.166 -0.332,-0.249h-0.083c-0.166,0.083 -0.332,0.083 -0.498,0.083l-0.083,0.083c0,0.083 0,0.083 -0.083,0.166c-0.083,0 -0.166,0.083 -0.166,0.083c-0.166,0.083 -0.166,0.083 -0.166,0.166v0.166c-0.083,0.083 -0.166,0.083 -0.249,0.166h-0.498c-0.249,0 -0.249,-0.083 -0.166,-0.332c0,-0.166 0.083,-0.249 0.083,-0.415c0,0 0,-0.083 0.083,-0.083h0.166c0.083,0 0.25,0.083 0.332,0.083c0.166,0 0.25,-0.083 0.25,-0.249c0,-0.166 -0.084,-0.332 -0.333,-0.415c0.083,0 0.166,-0.083 0.25,-0.083c0.15355,-0.00336 0.30066,-0.06235 0.414,-0.166l0.25,-0.249c0.082,-0.083 0.165,-0.166 0.331,-0.166c0.083,0 0.083,0 0.083,-0.083c0,-0.083 0,-0.083 -0.083,-0.166c0,-0.083 0,-0.166 0.166,-0.166c0.083,0 0.166,0.083 0.083,0.166v0.083c0,0 0,0.083 0.083,0.083c0.083,0 0.249,0 0.332,0.083h0.083c0.083,0 0.166,-0.083 0.332,-0.083c0.166,0 0.249,-0.083 0.249,-0.249c0,-0.083 0,-0.083 0.083,-0.083h0.166v-0.083c0,0 0,-0.083 -0.083,-0.083c0.083,0 0.166,0 0.249,-0.083c0.083,0 0.166,-0.083 0.249,-0.083h-0.498c-0.083,0 -0.166,0 -0.25,-0.083c-0.082,-0.083 0,-0.166 0.084,-0.249v-0.332h-0.083c-0.083,0 -0.083,0.083 -0.083,0.083c-0.083,0.083 -0.166,0.166 -0.25,0.166c-0.082,0 -0.082,0.083 -0.082,0.166l0.083,0.083c0.083,0.083 0.083,0.166 0,0.166c-0.083,0 -0.083,0.083 -0.166,0.166c0,0.083 -0.083,0.083 -0.083,0.166c0,0.083 -0.083,0.083 -0.166,0.083c-0.083,0 -0.083,-0.083 -0.166,-0.166c-0.083,-0.249 -0.083,-0.249 -0.249,-0.083c-0.083,0 -0.166,0.083 -0.249,0c-0.166,-0.166 -0.083,-0.332 0.083,-0.415c0.26843,-0.16692 0.51878,-0.3613 0.747,-0.58c0.332,-0.332 0.747,-0.415 1.162,-0.332h0.083c-0.083,-0.083 -0.166,-0.083 -0.166,-0.166c-0.25,-0.166 -0.498,-0.25 -0.747,-0.415h-0.166c-0.166,0.166 -0.332,0.166 -0.415,0c0,-0.083 -0.083,-0.083 -0.083,-0.083c0,0 -0.083,0 -0.083,-0.083c0,-0.083 -0.083,-0.083 -0.083,-0.083c-0.64217,-0.24357 -1.31076,-0.41072 -1.992,-0.498c-1.245,-0.166 -2.406,0 -3.568,0.332c-0.332,0.083 -0.664,0.249 -0.913,0.332c-0.083,0.083 -0.166,0.083 -0.249,0.166v0.083c-0.083,0 -0.166,0.083 -0.249,0.083h-0.165c-0.332,0.249 -0.664,0.415 -0.996,0.746c0,0 -0.083,0 -0.083,0.083c0,0 -0.083,0.083 -0.166,0.083l-0.332,0.332c0.166,0 0.332,0 0.415,-0.166c0.083,0 0.083,-0.083 0,-0.083v-0.083c0.25,-0.083 0.25,-0.083 0.332,-0.083c0,0.083 -0.083,0.166 0,0.166c0,0 0.083,0 0.166,0.083c-0.08915,0.00583 -0.16017,0.07685 -0.166,0.166c0,0.083 -0.083,0.083 -0.166,0.166h-0.166c0.083,0.083 0.083,0.166 0,0.166c-0.083,0 -0.166,0 -0.249,0.083c0,0 -0.083,0 -0.083,0.083c0,0.083 -0.083,0.083 -0.166,0.166c-0.083,-0.083 -0.249,0 -0.332,0.083c-0.08915,0.00583 -0.16017,0.07685 -0.166,0.166c-0.083,0.083 -0.083,0.166 0,0.25c0.083,0 0.083,0.082 0.166,0.082c0.166,0 0.332,0.083 0.415,0.083v0.25c0,0 0,0.082 0.083,0.082h0.166c0,0 0.083,-0.083 0.083,-0.166c0.083,-0.166 0.166,-0.249 0.25,-0.249c0.082,0 0.165,-0.083 0.248,-0.166c0,0 0.083,-0.083 0.083,-0.166c0,-0.083 0,-0.166 0.083,-0.166c0.083,-0.083 0.083,-0.166 0.166,-0.166c0,-0.249 0.166,-0.249 0.415,-0.166c0.166,0.083 0.166,0.166 0.083,0.25c0,0.082 0,0.082 0.083,0.082c0.083,0 0.166,0 0.166,-0.083c0.083,-0.083 0.166,-0.083 0.249,-0.166c0,0.25 0.083,0.498 0.083,0.664h0.166c0,0 0.083,0 0.083,0.083v0.083l-0.083,0.083c-0.249,0.083 -0.498,0.25 -0.747,0.25c-0.166,0 -0.415,0.082 -0.58,0.165c-0.084,0 -0.167,0.083 -0.25,0.083v0.083c0.083,0 0.166,-0.083 0.25,-0.083c0.082,-0.083 0.165,-0.083 0.248,-0.083c0,0.083 -0.083,0.166 -0.083,0.25c0.083,0.165 0.25,0.082 0.332,0.082c-0.15678,0.15053 -0.36288,0.23901 -0.58,0.249c0.082,-0.083 0.165,-0.083 0.248,-0.166c-0.249,0 -0.498,0.083 -0.664,0.249l-0.083,0.083c-0.00583,0.08915 -0.07685,0.16017 -0.166,0.166c-0.332,0.083 -0.498,0.249 -0.664,0.415c0,0 -0.083,0 -0.083,-0.083v0.166c0,0.083 -0.083,0.249 -0.166,0.249c-0.166,0.166 -0.249,0.166 -0.332,0.249c-0.082,0.083 -0.248,0.083 -0.331,0.166c-0.083,0.083 -0.083,0.249 -0.166,0.249c-0.083,0.083 -0.166,0.083 -0.25,0c-0.082,0 -0.165,-0.083 -0.165,-0.083c-0.083,0 -0.166,0 -0.25,0.083c-0.082,0.083 -0.165,0.083 -0.331,0.083c-0.083,0.332 -0.083,0.58 -0.166,0.913c0.083,-0.083 0.166,-0.083 0.332,0c-0.0983,0.18653 -0.18189,0.38045 -0.25,0.58h0.416c0.166,0 0.166,0.084 0.166,0.167c0,0.083 -0.083,0.165 -0.083,0.248v0.166l-0.083,0.083l-0.083,-0.082c-0.083,-0.084 -0.083,-0.167 -0.083,-0.25c-0.166,-0.082 -0.25,-0.082 -0.332,-0.082c0,2.24 0.913,4.315 2.406,5.809c0.166,0.166 0.415,0.332 0.581,0.498c0,0 0,-0.083 -0.083,-0.083c-0.249,-0.25 -0.249,-0.498 -0.332,-0.83c0,-0.415 -0.083,-0.913 -0.166,-1.328c-0.083,-0.332 -0.249,-0.581 -0.58,-0.747c-0.167,-0.083 -0.25,-0.083 -0.25,-0.249c0,-0.083 -0.082,-0.083 -0.082,-0.166c-0.166,-0.249 -0.415,-0.58 -0.581,-0.83c-0.083,-0.083 -0.083,-0.166 0,-0.249l0.083,-0.083c-0.083,-0.166 -0.083,-0.166 0,-0.332c0,-0.083 0.083,-0.083 0.083,-0.166c0.083,-0.083 0.083,-0.166 0.166,-0.249c0.083,-0.166 0.083,-0.249 0,-0.415v-0.083c-0.083,0 -0.166,-0.083 -0.25,-0.083c0.167,0 0.25,0 0.333,0.083c0.083,-0.165 0.497,-0.497 0.663,-0.497v0.248c0.166,-0.248 0.166,-0.248 0.415,-0.166c0.25,0.083 0.415,0.166 0.664,0.083h0.083v0.083l0.25,0.25c0.07936,0.1549 0.23998,0.25112 0.414,0.248h0.25c0.165,0 0.248,0.083 0.248,0.25c0,0.082 0,0.248 0.083,0.331c0.083,0 0.166,0 0.25,0.166c0.248,-0.083 0.414,0 0.414,0.166h0.415c0.166,0 0.249,0.083 0.332,0.166c0.083,0.083 0.166,0.166 0.249,0.166c0.166,0.083 0.249,0.166 0.166,0.332c-0.083,0.166 -0.166,0.415 -0.332,0.581c-0.083,0.249 -0.083,0.332 -0.083,0.415v0.415c0,0.166 -0.083,0.332 -0.166,0.498c-0.083,0.083 -0.083,0.083 -0.25,0.083h-0.165c-0.083,0.083 -0.166,0.083 -0.332,0.166c-0.083,0 -0.083,0.083 0,0.166c0.083,0.083 0,0.166 0,0.249c0,0.083 -0.083,0.166 -0.083,0.166v0.166c-0.083,0.083 -0.083,0.166 -0.166,0.249c-0.083,0.166 -0.166,0.166 -0.332,0.083c-0.083,0 -0.083,-0.083 -0.166,-0.083l0.083,0.083l0.166,0.166c0.083,0.166 0,0.249 -0.166,0.249h-0.166c-0.083,0 -0.083,0 -0.083,0.166v0.166h-0.084c0,0 -0.083,0 -0.083,-0.083c0,0.083 0.083,0.083 0.083,0.166c0.083,0.082 0.083,0.082 0,0.166c0,0.082 -0.083,0.082 -0.083,0.165v0.084l0.25,0.248c0.912,0.581 1.99,0.913 3.07,1.08c0.332,0.082 0.747,0.082 1.079,0.082c0.332,0 0.83,0.332 0.83,0.83c0,0.498 -0.498,0.83 -0.83,0.83c-2.62155,0.008 -5.13805,-1.0298 -6.99186,-2.88343c-1.85382,-1.85363 -2.89187,-4.37002 -2.88414,-6.99157c0,-5.479 4.481,-9.959 9.959,-9.959c5.394,0 9.71,4.315 9.958,9.627c0,0.332 -0.332,0.912 -0.83,0.912zM22,16.938v1.66h-0.913c-0.083,0.332 -0.166,0.58 -0.332,0.83l0.664,0.663l-1.162,1.162l-0.664,-0.664c-0.249,0.166 -0.58,0.25 -0.83,0.332v0.913h-1.66v-0.913c-0.331,-0.083 -0.58,-0.166 -0.83,-0.332l-0.663,0.664l-1.162,-1.162l0.664,-0.664c-0.166,-0.249 -0.249,-0.58 -0.332,-0.83h-0.913v-1.66h0.913c0.083,-0.331 0.166,-0.58 0.332,-0.83l-0.664,-0.663l1.162,-1.162l0.664,0.664c0.249,-0.166 0.58,-0.249 0.83,-0.332v-0.996h1.66v0.913c0.331,0.083 0.58,0.166 0.83,0.332l0.663,-0.664l1.162,1.162l-0.747,0.747c0.166,0.249 0.25,0.58 0.332,0.83zM17.85,16.108c-0.912,0 -1.66,0.747 -1.66,1.66c0,0.912 0.748,1.66 1.66,1.66c0.913,0 1.66,-0.748 1.66,-1.66c0,-0.913 -0.747,-1.66 -1.66,-1.66z" fill="#62757e"></path></g>
  </g>
  <g id="Regular-M" transform="matrix(5 0 0 5 1389.82 1030)">
    <defs><clipPath id="clip-1"><rect x="0" y="0" width="24" height="24" fill="none"></rect></clipPath></defs>
<g clip-path="url(#clip-1)" fill="none" fill-rule="nonzero" stroke="none" stroke-width="1" stroke-linecap="butt" stroke-linejoin="miter" stroke-miterlimit="10" stroke-dasharray="" stroke-dashoffset="0" font-family="none" font-weight="none" font-size="none" text-anchor="none" style="mix-blend-mode: normal"><path d="M9.137,4.49h-0.249c0.083,-0.083 0.166,-0.083 0.249,0c0,0 0,-0.083 0,0zM10.465,5.485c0.083,-0.083 0.083,-0.166 0,-0.166c-0.083,0 -0.166,-0.165 -0.166,-0.248c-0.083,-0.166 -0.083,-0.249 -0.249,-0.249c0.083,0 0.083,-0.083 0.083,-0.083c-0.083,0 -0.083,-0.083 -0.083,-0.083c0.14777,-0.1642 0.36018,-0.25524 0.581,-0.249c0.498,-0.083 0.913,-0.166 1.41,-0.249c0.333,-0.083 0.581,-0.083 0.913,-0.083c0.083,0 0.166,0.083 0.249,0.083c0.083,0 0.249,0.083 0.332,0.083c0,0 -0.083,0.083 -0.165,0.083c-0.084,0 -0.167,0.083 -0.25,0.083c-0.083,0.083 -0.083,0.083 -0.083,0.166c0,0.083 -0.083,0.165 -0.083,0.165c-0.083,0.167 -0.332,0.25 -0.498,0.25h-0.083c0.083,0.083 0.166,0.083 0.249,0.166c-0.166,0.083 -0.249,-0.083 -0.332,-0.083c0,0.083 -0.082,0.083 -0.082,0.166h0.248l-0.083,0.082c-0.166,0.083 -0.249,0.083 -0.414,0.083c-0.1539,0.00312 -0.30141,0.06212 -0.415,0.166c-0.166,0.166 -0.332,0.249 -0.498,0.249c-0.249,0 -0.415,0.166 -0.498,0.332l-0.166,0.166c-0.083,0.083 -0.249,0.083 -0.332,0.083c-0.166,0 -0.25,-0.082 -0.25,-0.332v-0.166c0,-0.166 0.084,-0.332 0.25,-0.332c0,-0.083 0.083,-0.083 0.415,-0.083zM6.066,11.295c-0.249,0.083 -0.414,0.166 -0.664,0.083c0,-0.083 0.166,0 0.166,-0.166c0.166,0 0.332,0 0.498,0.083zM4.158,12.291c0.083,0 0.083,0.082 0.165,0.082c0.084,0 0.167,0.083 0.25,0.083c-0.249,0.083 -0.415,0 -0.415,-0.165zM6.979,5.485c0.083,-0.166 0.249,-0.248 0.415,-0.166c-0.165,0.083 -0.249,0.083 -0.415,0.167zM9.22,4.49c-0.166,0.083 -0.249,0.166 -0.415,0.166c0.083,-0.083 0.249,-0.083 0.415,-0.166zM5.071,11.129c-0.249,-0.083 -0.415,-0.083 -0.664,-0.166c0.249,-0.084 0.498,0 0.664,0.166zM13.452,6.813c0,0.249 -0.249,0.415 -0.415,0.415c0,-0.249 0.166,-0.415 0.415,-0.415zM13.784,7.228c-0.083,-0.083 -0.083,-0.083 -0.166,-0.083c0,-0.083 0.083,-0.166 0.249,-0.166h0.083c0.083,0.083 0.166,0.083 0.249,0.166c-0.00583,0.08915 -0.07685,0.16017 -0.166,0.166c-0.166,0 -0.332,0.083 -0.498,0.083c0,-0.083 0.083,-0.083 0.249,-0.166zM7.062,6.149c0.083,0 0.166,0 0.166,0.166h-0.415c0,-0.166 0.166,-0.249 0.249,-0.166zM7.81,6.066c-0.084,0.083 -0.167,0.083 -0.25,0.083c0.083,-0.083 0.083,-0.083 0.25,-0.083zM7.062,5.983c0.083,-0.083 0.249,-0.166 0.332,-0.166c-0.082,0.083 -0.249,0.083 -0.332,0.166zM8.805,5.9h-0.249v0.166c0,0.083 -0.083,0.166 -0.166,0.083h-0.083l0.083,0.083c-0.09487,0.08262 -0.23613,0.08262 -0.331,0c-0.084,0 -0.084,-0.083 -0.25,-0.083c0.083,-0.083 0.166,-0.165 0.249,-0.165h0.249c0,-0.084 -0.083,-0.167 -0.083,-0.25c-0.082,-0.166 -0.166,-0.249 -0.332,-0.166c-0.166,0.083 -0.415,0 -0.581,0c-0.083,0 0,0 0,-0.083c0.083,-0.166 0.249,-0.248 0.415,-0.166l-0.083,0.083c0.083,-0.083 0.166,-0.083 0.166,-0.083c0.166,-0.082 0.249,-0.082 0.332,0h0.166c0.083,-0.082 0.166,0 0.166,0c0.083,0.083 0.166,0.166 0.249,0.166c0.00583,0.08915 0.07685,0.16017 0.166,0.166c0.083,0.083 0.083,0.083 0.083,0.166c-0.083,0.083 -0.083,0.083 -0.166,0.083zM13.701,6.647c0,0.083 0.083,0.083 0.083,0.166c-0.166,-0.083 -0.166,-0.083 -0.083,-0.166zM8.141,7.892c0.09371,-0.17673 0.23827,-0.32129 0.415,-0.415c-0.083,0.083 0,0.166 0.083,0.166c0,0.083 0.083,0.083 0.083,0.083v0.083c0,0.083 -0.083,0.083 -0.083,0.083c-0.083,0 -0.166,0.083 -0.249,0.083c-0.083,0 -0.166,-0.082 -0.249,-0.082zM21.087,12.539c-0.58,0 -0.83,-0.746 -0.83,-0.83v-0.331l-0.083,0.083l-0.083,0.083c-0.166,0 -0.249,0.083 -0.332,0.248l-0.083,0.084c-0.083,0.083 -0.249,0.083 -0.332,0.165c-0.166,0 -0.332,-0.082 -0.498,-0.082c-0.00312,-0.1539 -0.06212,-0.30141 -0.166,-0.415l-0.165,-0.166c-0.084,-0.083 -0.084,-0.166 -0.166,-0.25c0,-0.165 -0.083,-0.248 -0.166,-0.331c-0.166,-0.166 -0.332,-0.332 -0.332,-0.581c0,0 0,0.083 -0.083,0.166c-0.083,-0.083 -0.083,-0.166 -0.166,-0.166l0.249,0.498c0.083,0.166 0.166,0.249 0.249,0.415c0,0 0.083,0.083 0,0.083c0,0.166 0.083,0.249 0.166,0.332c0.04716,0.04281 0.07674,0.10162 0.083,0.165v0.167c0,0.083 0.082,0.083 0.082,0.083c0,0 0,0.082 -0.082,0.082c-0.332,0 -0.664,0 -1.162,0.083c0,0 -0.166,0 -0.332,0.083c-0.996,0.25 -1.909,0.747 -2.24,0.913h-0.084c-0.083,0 -0.083,-0.083 -0.083,-0.083c-0.083,-0.083 -0.166,0 -0.249,0c-0.083,0.083 -0.249,0.083 -0.332,0.166h-0.166c-0.166,-0.083 -0.249,0 -0.332,0c-0.09503,0.0832 -0.23697,0.0832 -0.332,0c-0.249,-0.083 -0.415,-0.249 -0.58,-0.58c-0.084,-0.167 -0.084,-0.25 -0.25,-0.332c-0.083,0 -0.083,-0.084 -0.083,-0.084c0.083,-0.083 0.083,-0.083 0.083,-0.166c-0.083,-0.082 -0.083,-0.082 0,-0.165l0.083,-0.083c0.083,-0.083 0.083,-0.166 0,-0.25c0,-0.082 0,-0.082 -0.082,-0.165c-0.084,-0.166 0,-0.25 0,-0.332c0.165,-0.166 0.248,-0.332 0.414,-0.581c0.083,-0.083 0.166,-0.166 0.25,-0.166c-0.167,-0.332 -0.084,-0.498 -0.084,-0.664c0,-0.083 0,-0.166 0.083,-0.25l0.25,-0.248c0.082,-0.083 0.082,-0.083 0.165,0c0.083,0 0.166,0.083 0.25,0.083c0.082,0 0.165,-0.083 0.248,-0.083c0.083,-0.083 0.25,-0.083 0.332,-0.166h0.664c0.166,0 0.166,0 0.083,0.166c-0.083,0.249 0,0.249 0.249,0.332h0.166c0.083,0 0.166,0.083 0.249,0.166l0.083,0.083c0.083,0 0.083,0 0.166,0.083c0.166,0 0.166,0 0.166,-0.166c0.083,-0.083 0.166,-0.166 0.249,-0.166c0.083,0 0.166,0.083 0.249,0.083c0.083,0 0.166,0.083 0.249,0.083h0.747c0.08915,-0.00583 0.16017,-0.07685 0.166,-0.166c0,-0.166 0.083,-0.25 0.083,-0.415c0,-0.166 0,-0.166 -0.166,-0.083c-0.083,0 -0.166,0.083 -0.25,0c-0.082,-0.083 -0.165,-0.083 -0.331,0c-0.166,0.083 -0.25,0 -0.25,-0.166c0,-0.083 -0.082,-0.166 -0.082,-0.249c0.166,-0.083 0.415,-0.166 0.58,-0.249h0.084c0.166,0 0.332,0.083 0.415,0.083h0.249c0.083,0 0.166,-0.166 0.083,-0.249c0,0 -0.083,-0.083 -0.166,-0.083c-0.083,0 -0.166,-0.083 -0.25,-0.083c-0.082,0 -0.082,-0.083 -0.082,-0.166c0.249,0.083 0.249,0 0.249,-0.083c-0.083,0.083 -0.25,0.083 -0.332,0.166c0.083,0.083 0.083,0.083 0.166,0.083c-0.083,0 -0.166,0.083 -0.166,0.083c-0.083,0 -0.083,0 -0.166,-0.083c0,-0.166 -0.166,-0.166 -0.25,-0.083c-0.082,0.083 -0.165,0.166 -0.165,0.25c-0.08262,0.09487 -0.08262,0.23613 0,0.331c-0.166,0.083 -0.415,0 -0.581,0.166c0,0.083 0.083,0.166 0.083,0.249c0,0.083 0,0.166 -0.083,0.166c-0.083,0 -0.083,-0.083 -0.166,-0.083v-0.166h-0.083c-0.08896,-0.00626 -0.15974,-0.07704 -0.166,-0.166c0,-0.166 -0.083,-0.332 -0.332,-0.332c-0.083,-0.083 -0.249,-0.083 -0.332,-0.249c0,-0.083 -0.083,0 -0.083,0c0.083,0 0.083,0.083 0.166,0.083l0.332,0.332c0.083,0.083 0,0.166 -0.083,0.249c-0.083,0.083 -0.332,0 -0.332,-0.083c-0.083,-0.083 0,-0.166 0.083,-0.249c-0.083,-0.083 -0.249,-0.166 -0.332,-0.249h-0.083c-0.166,0.083 -0.332,0.083 -0.498,0.083l-0.083,0.083c0,0.083 0,0.083 -0.083,0.166c-0.083,0 -0.166,0.083 -0.166,0.083c-0.166,0.083 -0.166,0.083 -0.166,0.166v0.166c-0.083,0.083 -0.166,0.083 -0.249,0.166h-0.498c-0.249,0 -0.249,-0.083 -0.166,-0.332c0,-0.166 0.083,-0.249 0.083,-0.415c0,0 0,-0.083 0.083,-0.083h0.166c0.083,0 0.25,0.083 0.332,0.083c0.166,0 0.25,-0.083 0.25,-0.249c0,-0.166 -0.084,-0.332 -0.333,-0.415c0.083,0 0.166,-0.083 0.25,-0.083c0.15355,-0.00336 0.30066,-0.06235 0.414,-0.166l0.25,-0.249c0.082,-0.083 0.165,-0.166 0.331,-0.166c0.083,0 0.083,0 0.083,-0.083c0,-0.083 0,-0.083 -0.083,-0.166c0,-0.083 0,-0.166 0.166,-0.166c0.083,0 0.166,0.083 0.083,0.166v0.083c0,0 0,0.083 0.083,0.083c0.083,0 0.249,0 0.332,0.083h0.083c0.083,0 0.166,-0.083 0.332,-0.083c0.166,0 0.249,-0.083 0.249,-0.249c0,-0.083 0,-0.083 0.083,-0.083h0.166v-0.083c0,0 0,-0.083 -0.083,-0.083c0.083,0 0.166,0 0.249,-0.083c0.083,0 0.166,-0.083 0.249,-0.083h-0.498c-0.083,0 -0.166,0 -0.25,-0.083c-0.082,-0.083 0,-0.166 0.084,-0.249v-0.332h-0.083c-0.083,0 -0.083,0.083 -0.083,0.083c-0.083,0.083 -0.166,0.166 -0.25,0.166c-0.082,0 -0.082,0.083 -0.082,0.166l0.083,0.083c0.083,0.083 0.083,0.166 0,0.166c-0.083,0 -0.083,0.083 -0.166,0.166c0,0.083 -0.083,0.083 -0.083,0.166c0,0.083 -0.083,0.083 -0.166,0.083c-0.083,0 -0.083,-0.083 -0.166,-0.166c-0.083,-0.249 -0.083,-0.249 -0.249,-0.083c-0.083,0 -0.166,0.083 -0.249,0c-0.166,-0.166 -0.083,-0.332 0.083,-0.415c0.26843,-0.16692 0.51878,-0.3613 0.747,-0.58c0.332,-0.332 0.747,-0.415 1.162,-0.332h0.083c-0.083,-0.083 -0.166,-0.083 -0.166,-0.166c-0.25,-0.166 -0.498,-0.25 -0.747,-0.415h-0.166c-0.166,0.166 -0.332,0.166 -0.415,0c0,-0.083 -0.083,-0.083 -0.083,-0.083c0,0 -0.083,0 -0.083,-0.083c0,-0.083 -0.083,-0.083 -0.083,-0.083c-0.64217,-0.24357 -1.31076,-0.41072 -1.992,-0.498c-1.245,-0.166 -2.406,0 -3.568,0.332c-0.332,0.083 -0.664,0.249 -0.913,0.332c-0.083,0.083 -0.166,0.083 -0.249,0.166v0.083c-0.083,0 -0.166,0.083 -0.249,0.083h-0.165c-0.332,0.249 -0.664,0.415 -0.996,0.746c0,0 -0.083,0 -0.083,0.083c0,0 -0.083,0.083 -0.166,0.083l-0.332,0.332c0.166,0 0.332,0 0.415,-0.166c0.083,0 0.083,-0.083 0,-0.083v-0.083c0.25,-0.083 0.25,-0.083 0.332,-0.083c0,0.083 -0.083,0.166 0,0.166c0,0 0.083,0 0.166,0.083c-0.08915,0.00583 -0.16017,0.07685 -0.166,0.166c0,0.083 -0.083,0.083 -0.166,0.166h-0.166c0.083,0.083 0.083,0.166 0,0.166c-0.083,0 -0.166,0 -0.249,0.083c0,0 -0.083,0 -0.083,0.083c0,0.083 -0.083,0.083 -0.166,0.166c-0.083,-0.083 -0.249,0 -0.332,0.083c-0.08915,0.00583 -0.16017,0.07685 -0.166,0.166c-0.083,0.083 -0.083,0.166 0,0.25c0.083,0 0.083,0.082 0.166,0.082c0.166,0 0.332,0.083 0.415,0.083v0.25c0,0 0,0.082 0.083,0.082h0.166c0,0 0.083,-0.083 0.083,-0.166c0.083,-0.166 0.166,-0.249 0.25,-0.249c0.082,0 0.165,-0.083 0.248,-0.166c0,0 0.083,-0.083 0.083,-0.166c0,-0.083 0,-0.166 0.083,-0.166c0.083,-0.083 0.083,-0.166 0.166,-0.166c0,-0.249 0.166,-0.249 0.415,-0.166c0.166,0.083 0.166,0.166 0.083,0.25c0,0.082 0,0.082 0.083,0.082c0.083,0 0.166,0 0.166,-0.083c0.083,-0.083 0.166,-0.083 0.249,-0.166c0,0.25 0.083,0.498 0.083,0.664h0.166c0,0 0.083,0 0.083,0.083v0.083l-0.083,0.083c-0.249,0.083 -0.498,0.25 -0.747,0.25c-0.166,0 -0.415,0.082 -0.58,0.165c-0.084,0 -0.167,0.083 -0.25,0.083v0.083c0.083,0 0.166,-0.083 0.25,-0.083c0.082,-0.083 0.165,-0.083 0.248,-0.083c0,0.083 -0.083,0.166 -0.083,0.25c0.083,0.165 0.25,0.082 0.332,0.082c-0.15678,0.15053 -0.36288,0.23901 -0.58,0.249c0.082,-0.083 0.165,-0.083 0.248,-0.166c-0.249,0 -0.498,0.083 -0.664,0.249l-0.083,0.083c-0.00583,0.08915 -0.07685,0.16017 -0.166,0.166c-0.332,0.083 -0.498,0.249 -0.664,0.415c0,0 -0.083,0 -0.083,-0.083v0.166c0,0.083 -0.083,0.249 -0.166,0.249c-0.166,0.166 -0.249,0.166 -0.332,0.249c-0.082,0.083 -0.248,0.083 -0.331,0.166c-0.083,0.083 -0.083,0.249 -0.166,0.249c-0.083,0.083 -0.166,0.083 -0.25,0c-0.082,0 -0.165,-0.083 -0.165,-0.083c-0.083,0 -0.166,0 -0.25,0.083c-0.082,0.083 -0.165,0.083 -0.331,0.083c-0.083,0.332 -0.083,0.58 -0.166,0.913c0.083,-0.083 0.166,-0.083 0.332,0c-0.0983,0.18653 -0.18189,0.38045 -0.25,0.58h0.416c0.166,0 0.166,0.084 0.166,0.167c0,0.083 -0.083,0.165 -0.083,0.248v0.166l-0.083,0.083l-0.083,-0.082c-0.083,-0.084 -0.083,-0.167 -0.083,-0.25c-0.166,-0.082 -0.25,-0.082 -0.332,-0.082c0,2.24 0.913,4.315 2.406,5.809c0.166,0.166 0.415,0.332 0.581,0.498c0,0 0,-0.083 -0.083,-0.083c-0.249,-0.25 -0.249,-0.498 -0.332,-0.83c0,-0.415 -0.083,-0.913 -0.166,-1.328c-0.083,-0.332 -0.249,-0.581 -0.58,-0.747c-0.167,-0.083 -0.25,-0.083 -0.25,-0.249c0,-0.083 -0.082,-0.083 -0.082,-0.166c-0.166,-0.249 -0.415,-0.58 -0.581,-0.83c-0.083,-0.083 -0.083,-0.166 0,-0.249l0.083,-0.083c-0.083,-0.166 -0.083,-0.166 0,-0.332c0,-0.083 0.083,-0.083 0.083,-0.166c0.083,-0.083 0.083,-0.166 0.166,-0.249c0.083,-0.166 0.083,-0.249 0,-0.415v-0.083c-0.083,0 -0.166,-0.083 -0.25,-0.083c0.167,0 0.25,0 0.333,0.083c0.083,-0.165 0.497,-0.497 0.663,-0.497v0.248c0.166,-0.248 0.166,-0.248 0.415,-0.166c0.25,0.083 0.415,0.166 0.664,0.083h0.083v0.083l0.25,0.25c0.07936,0.1549 0.23998,0.25112 0.414,0.248h0.25c0.165,0 0.248,0.083 0.248,0.25c0,0.082 0,0.248 0.083,0.331c0.083,0 0.166,0 0.25,0.166c0.248,-0.083 0.414,0 0.414,0.166h0.415c0.166,0 0.249,0.083 0.332,0.166c0.083,0.083 0.166,0.166 0.249,0.166c0.166,0.083 0.249,0.166 0.166,0.332c-0.083,0.166 -0.166,0.415 -0.332,0.581c-0.083,0.249 -0.083,0.332 -0.083,0.415v0.415c0,0.166 -0.083,0.332 -0.166,0.498c-0.083,0.083 -0.083,0.083 -0.25,0.083h-0.165c-0.083,0.083 -0.166,0.083 -0.332,0.166c-0.083,0 -0.083,0.083 0,0.166c0.083,0.083 0,0.166 0,0.249c0,0.083 -0.083,0.166 -0.083,0.166v0.166c-0.083,0.083 -0.083,0.166 -0.166,0.249c-0.083,0.166 -0.166,0.166 -0.332,0.083c-0.083,0 -0.083,-0.083 -0.166,-0.083l0.083,0.083l0.166,0.166c0.083,0.166 0,0.249 -0.166,0.249h-0.166c-0.083,0 -0.083,0 -0.083,0.166v0.166h-0.084c0,0 -0.083,0 -0.083,-0.083c0,0.083 0.083,0.083 0.083,0.166c0.083,0.082 0.083,0.082 0,0.166c0,0.082 -0.083,0.082 -0.083,0.165v0.084l0.25,0.248c0.912,0.581 1.99,0.913 3.07,1.08c0.332,0.082 0.747,0.082 1.079,0.082c0.332,0 0.83,0.332 0.83,0.83c0,0.498 -0.498,0.83 -0.83,0.83c-2.62155,0.008 -5.13805,-1.0298 -6.99186,-2.88343c-1.85382,-1.85363 -2.89187,-4.37002 -2.88414,-6.99157c0,-5.479 4.481,-9.959 9.959,-9.959c5.394,0 9.71,4.315 9.958,9.627c0,0.332 -0.332,0.912 -0.83,0.912zM22,16.938v1.66h-0.913c-0.083,0.332 -0.166,0.58 -0.332,0.83l0.664,0.663l-1.162,1.162l-0.664,-0.664c-0.249,0.166 -0.58,0.25 -0.83,0.332v0.913h-1.66v-0.913c-0.331,-0.083 -0.58,-0.166 -0.83,-0.332l-0.663,0.664l-1.162,-1.162l0.664,-0.664c-0.166,-0.249 -0.249,-0.58 -0.332,-0.83h-0.913v-1.66h0.913c0.083,-0.331 0.166,-0.58 0.332,-0.83l-0.664,-0.663l1.162,-1.162l0.664,0.664c0.249,-0.166 0.58,-0.249 0.83,-0.332v-0.996h1.66v0.913c0.331,0.083 0.58,0.166 0.83,0.332l0.663,-0.664l1.162,1.162l-0.747,0.747c0.166,0.249 0.25,0.58 0.332,0.83zM17.85,16.108c-0.912,0 -1.66,0.747 -1.66,1.66c0,0.912 0.748,1.66 1.66,1.66c0.913,0 1.66,-0.748 1.66,-1.66c0,-0.913 -0.747,-1.66 -1.66,-1.66z" fill="#62757e"></path></g>
  </g>
  <g id="Regular-S" transform="matrix(3.915 0 0 3.915 1402.75 614)">
    <defs><clipPath id="clip-1"><rect x="0" y="0" width="24" height="24" fill="none"></rect></clipPath></defs>
<g clip-path="url(#clip-1)" fill="none" fill-rule="nonzero" stroke="none" stroke-width="1" stroke-linecap="butt" stroke-linejoin="miter" stroke-miterlimit="10" stroke-dasharray="" stroke-dashoffset="0" font-family="none" font-weight="none" font-size="none" text-anchor="none" style="mix-blend-mode: normal"><path d="M9.137,4.49h-0.249c0.083,-0.083 0.166,-0.083 0.249,0c0,0 0,-0.083 0,0zM10.465,5.485c0.083,-0.083 0.083,-0.166 0,-0.166c-0.083,0 -0.166,-0.165 -0.166,-0.248c-0.083,-0.166 -0.083,-0.249 -0.249,-0.249c0.083,0 0.083,-0.083 0.083,-0.083c-0.083,0 -0.083,-0.083 -0.083,-0.083c0.14777,-0.1642 0.36018,-0.25524 0.581,-0.249c0.498,-0.083 0.913,-0.166 1.41,-0.249c0.333,-0.083 0.581,-0.083 0.913,-0.083c0.083,0 0.166,0.083 0.249,0.083c0.083,0 0.249,0.083 0.332,0.083c0,0 -0.083,0.083 -0.165,0.083c-0.084,0 -0.167,0.083 -0.25,0.083c-0.083,0.083 -0.083,0.083 -0.083,0.166c0,0.083 -0.083,0.165 -0.083,0.165c-0.083,0.167 -0.332,0.25 -0.498,0.25h-0.083c0.083,0.083 0.166,0.083 0.249,0.166c-0.166,0.083 -0.249,-0.083 -0.332,-0.083c0,0.083 -0.082,0.083 -0.082,0.166h0.248l-0.083,0.082c-0.166,0.083 -0.249,0.083 -0.414,0.083c-0.1539,0.00312 -0.30141,0.06212 -0.415,0.166c-0.166,0.166 -0.332,0.249 -0.498,0.249c-0.249,0 -0.415,0.166 -0.498,0.332l-0.166,0.166c-0.083,0.083 -0.249,0.083 -0.332,0.083c-0.166,0 -0.25,-0.082 -0.25,-0.332v-0.166c0,-0.166 0.084,-0.332 0.25,-0.332c0,-0.083 0.083,-0.083 0.415,-0.083zM6.066,11.295c-0.249,0.083 -0.414,0.166 -0.664,0.083c0,-0.083 0.166,0 0.166,-0.166c0.166,0 0.332,0 0.498,0.083zM4.158,12.291c0.083,0 0.083,0.082 0.165,0.082c0.084,0 0.167,0.083 0.25,0.083c-0.249,0.083 -0.415,0 -0.415,-0.165zM6.979,5.485c0.083,-0.166 0.249,-0.248 0.415,-0.166c-0.165,0.083 -0.249,0.083 -0.415,0.167zM9.22,4.49c-0.166,0.083 -0.249,0.166 -0.415,0.166c0.083,-0.083 0.249,-0.083 0.415,-0.166zM5.071,11.129c-0.249,-0.083 -0.415,-0.083 -0.664,-0.166c0.249,-0.084 0.498,0 0.664,0.166zM13.452,6.813c0,0.249 -0.249,0.415 -0.415,0.415c0,-0.249 0.166,-0.415 0.415,-0.415zM13.784,7.228c-0.083,-0.083 -0.083,-0.083 -0.166,-0.083c0,-0.083 0.083,-0.166 0.249,-0.166h0.083c0.083,0.083 0.166,0.083 0.249,0.166c-0.00583,0.08915 -0.07685,0.16017 -0.166,0.166c-0.166,0 -0.332,0.083 -0.498,0.083c0,-0.083 0.083,-0.083 0.249,-0.166zM7.062,6.149c0.083,0 0.166,0 0.166,0.166h-0.415c0,-0.166 0.166,-0.249 0.249,-0.166zM7.81,6.066c-0.084,0.083 -0.167,0.083 -0.25,0.083c0.083,-0.083 0.083,-0.083 0.25,-0.083zM7.062,5.983c0.083,-0.083 0.249,-0.166 0.332,-0.166c-0.082,0.083 -0.249,0.083 -0.332,0.166zM8.805,5.9h-0.249v0.166c0,0.083 -0.083,0.166 -0.166,0.083h-0.083l0.083,0.083c-0.09487,0.08262 -0.23613,0.08262 -0.331,0c-0.084,0 -0.084,-0.083 -0.25,-0.083c0.083,-0.083 0.166,-0.165 0.249,-0.165h0.249c0,-0.084 -0.083,-0.167 -0.083,-0.25c-0.082,-0.166 -0.166,-0.249 -0.332,-0.166c-0.166,0.083 -0.415,0 -0.581,0c-0.083,0 0,0 0,-0.083c0.083,-0.166 0.249,-0.248 0.415,-0.166l-0.083,0.083c0.083,-0.083 0.166,-0.083 0.166,-0.083c0.166,-0.082 0.249,-0.082 0.332,0h0.166c0.083,-0.082 0.166,0 0.166,0c0.083,0.083 0.166,0.166 0.249,0.166c0.00583,0.08915 0.07685,0.16017 0.166,0.166c0.083,0.083 0.083,0.083 0.083,0.166c-0.083,0.083 -0.083,0.083 -0.166,0.083zM13.701,6.647c0,0.083 0.083,0.083 0.083,0.166c-0.166,-0.083 -0.166,-0.083 -0.083,-0.166zM8.141,7.892c0.09371,-0.17673 0.23827,-0.32129 0.415,-0.415c-0.083,0.083 0,0.166 0.083,0.166c0,0.083 0.083,0.083 0.083,0.083v0.083c0,0.083 -0.083,0.083 -0.083,0.083c-0.083,0 -0.166,0.083 -0.249,0.083c-0.083,0 -0.166,-0.082 -0.249,-0.082zM21.087,12.539c-0.58,0 -0.83,-0.746 -0.83,-0.83v-0.331l-0.083,0.083l-0.083,0.083c-0.166,0 -0.249,0.083 -0.332,0.248l-0.083,0.084c-0.083,0.083 -0.249,0.083 -0.332,0.165c-0.166,0 -0.332,-0.082 -0.498,-0.082c-0.00312,-0.1539 -0.06212,-0.30141 -0.166,-0.415l-0.165,-0.166c-0.084,-0.083 -0.084,-0.166 -0.166,-0.25c0,-0.165 -0.083,-0.248 -0.166,-0.331c-0.166,-0.166 -0.332,-0.332 -0.332,-0.581c0,0 0,0.083 -0.083,0.166c-0.083,-0.083 -0.083,-0.166 -0.166,-0.166l0.249,0.498c0.083,0.166 0.166,0.249 0.249,0.415c0,0 0.083,0.083 0,0.083c0,0.166 0.083,0.249 0.166,0.332c0.04716,0.04281 0.07674,0.10162 0.083,0.165v0.167c0,0.083 0.082,0.083 0.082,0.083c0,0 0,0.082 -0.082,0.082c-0.332,0 -0.664,0 -1.162,0.083c0,0 -0.166,0 -0.332,0.083c-0.996,0.25 -1.909,0.747 -2.24,0.913h-0.084c-0.083,0 -0.083,-0.083 -0.083,-0.083c-0.083,-0.083 -0.166,0 -0.249,0c-0.083,0.083 -0.249,0.083 -0.332,0.166h-0.166c-0.166,-0.083 -0.249,0 -0.332,0c-0.09503,0.0832 -0.23697,0.0832 -0.332,0c-0.249,-0.083 -0.415,-0.249 -0.58,-0.58c-0.084,-0.167 -0.084,-0.25 -0.25,-0.332c-0.083,0 -0.083,-0.084 -0.083,-0.084c0.083,-0.083 0.083,-0.083 0.083,-0.166c-0.083,-0.082 -0.083,-0.082 0,-0.165l0.083,-0.083c0.083,-0.083 0.083,-0.166 0,-0.25c0,-0.082 0,-0.082 -0.082,-0.165c-0.084,-0.166 0,-0.25 0,-0.332c0.165,-0.166 0.248,-0.332 0.414,-0.581c0.083,-0.083 0.166,-0.166 0.25,-0.166c-0.167,-0.332 -0.084,-0.498 -0.084,-0.664c0,-0.083 0,-0.166 0.083,-0.25l0.25,-0.248c0.082,-0.083 0.082,-0.083 0.165,0c0.083,0 0.166,0.083 0.25,0.083c0.082,0 0.165,-0.083 0.248,-0.083c0.083,-0.083 0.25,-0.083 0.332,-0.166h0.664c0.166,0 0.166,0 0.083,0.166c-0.083,0.249 0,0.249 0.249,0.332h0.166c0.083,0 0.166,0.083 0.249,0.166l0.083,0.083c0.083,0 0.083,0 0.166,0.083c0.166,0 0.166,0 0.166,-0.166c0.083,-0.083 0.166,-0.166 0.249,-0.166c0.083,0 0.166,0.083 0.249,0.083c0.083,0 0.166,0.083 0.249,0.083h0.747c0.08915,-0.00583 0.16017,-0.07685 0.166,-0.166c0,-0.166 0.083,-0.25 0.083,-0.415c0,-0.166 0,-0.166 -0.166,-0.083c-0.083,0 -0.166,0.083 -0.25,0c-0.082,-0.083 -0.165,-0.083 -0.331,0c-0.166,0.083 -0.25,0 -0.25,-0.166c0,-0.083 -0.082,-0.166 -0.082,-0.249c0.166,-0.083 0.415,-0.166 0.58,-0.249h0.084c0.166,0 0.332,0.083 0.415,0.083h0.249c0.083,0 0.166,-0.166 0.083,-0.249c0,0 -0.083,-0.083 -0.166,-0.083c-0.083,0 -0.166,-0.083 -0.25,-0.083c-0.082,0 -0.082,-0.083 -0.082,-0.166c0.249,0.083 0.249,0 0.249,-0.083c-0.083,0.083 -0.25,0.083 -0.332,0.166c0.083,0.083 0.083,0.083 0.166,0.083c-0.083,0 -0.166,0.083 -0.166,0.083c-0.083,0 -0.083,0 -0.166,-0.083c0,-0.166 -0.166,-0.166 -0.25,-0.083c-0.082,0.083 -0.165,0.166 -0.165,0.25c-0.08262,0.09487 -0.08262,0.23613 0,0.331c-0.166,0.083 -0.415,0 -0.581,0.166c0,0.083 0.083,0.166 0.083,0.249c0,0.083 0,0.166 -0.083,0.166c-0.083,0 -0.083,-0.083 -0.166,-0.083v-0.166h-0.083c-0.08896,-0.00626 -0.15974,-0.07704 -0.166,-0.166c0,-0.166 -0.083,-0.332 -0.332,-0.332c-0.083,-0.083 -0.249,-0.083 -0.332,-0.249c0,-0.083 -0.083,0 -0.083,0c0.083,0 0.083,0.083 0.166,0.083l0.332,0.332c0.083,0.083 0,0.166 -0.083,0.249c-0.083,0.083 -0.332,0 -0.332,-0.083c-0.083,-0.083 0,-0.166 0.083,-0.249c-0.083,-0.083 -0.249,-0.166 -0.332,-0.249h-0.083c-0.166,0.083 -0.332,0.083 -0.498,0.083l-0.083,0.083c0,0.083 0,0.083 -0.083,0.166c-0.083,0 -0.166,0.083 -0.166,0.083c-0.166,0.083 -0.166,0.083 -0.166,0.166v0.166c-0.083,0.083 -0.166,0.083 -0.249,0.166h-0.498c-0.249,0 -0.249,-0.083 -0.166,-0.332c0,-0.166 0.083,-0.249 0.083,-0.415c0,0 0,-0.083 0.083,-0.083h0.166c0.083,0 0.25,0.083 0.332,0.083c0.166,0 0.25,-0.083 0.25,-0.249c0,-0.166 -0.084,-0.332 -0.333,-0.415c0.083,0 0.166,-0.083 0.25,-0.083c0.15355,-0.00336 0.30066,-0.06235 0.414,-0.166l0.25,-0.249c0.082,-0.083 0.165,-0.166 0.331,-0.166c0.083,0 0.083,0 0.083,-0.083c0,-0.083 0,-0.083 -0.083,-0.166c0,-0.083 0,-0.166 0.166,-0.166c0.083,0 0.166,0.083 0.083,0.166v0.083c0,0 0,0.083 0.083,0.083c0.083,0 0.249,0 0.332,0.083h0.083c0.083,0 0.166,-0.083 0.332,-0.083c0.166,0 0.249,-0.083 0.249,-0.249c0,-0.083 0,-0.083 0.083,-0.083h0.166v-0.083c0,0 0,-0.083 -0.083,-0.083c0.083,0 0.166,0 0.249,-0.083c0.083,0 0.166,-0.083 0.249,-0.083h-0.498c-0.083,0 -0.166,0 -0.25,-0.083c-0.082,-0.083 0,-0.166 0.084,-0.249v-0.332h-0.083c-0.083,0 -0.083,0.083 -0.083,0.083c-0.083,0.083 -0.166,0.166 -0.25,0.166c-0.082,0 -0.082,0.083 -0.082,0.166l0.083,0.083c0.083,0.083 0.083,0.166 0,0.166c-0.083,0 -0.083,0.083 -0.166,0.166c0,0.083 -0.083,0.083 -0.083,0.166c0,0.083 -0.083,0.083 -0.166,0.083c-0.083,0 -0.083,-0.083 -0.166,-0.166c-0.083,-0.249 -0.083,-0.249 -0.249,-0.083c-0.083,0 -0.166,0.083 -0.249,0c-0.166,-0.166 -0.083,-0.332 0.083,-0.415c0.26843,-0.16692 0.51878,-0.3613 0.747,-0.58c0.332,-0.332 0.747,-0.415 1.162,-0.332h0.083c-0.083,-0.083 -0.166,-0.083 -0.166,-0.166c-0.25,-0.166 -0.498,-0.25 -0.747,-0.415h-0.166c-0.166,0.166 -0.332,0.166 -0.415,0c0,-0.083 -0.083,-0.083 -0.083,-0.083c0,0 -0.083,0 -0.083,-0.083c0,-0.083 -0.083,-0.083 -0.083,-0.083c-0.64217,-0.24357 -1.31076,-0.41072 -1.992,-0.498c-1.245,-0.166 -2.406,0 -3.568,0.332c-0.332,0.083 -0.664,0.249 -0.913,0.332c-0.083,0.083 -0.166,0.083 -0.249,0.166v0.083c-0.083,0 -0.166,0.083 -0.249,0.083h-0.165c-0.332,0.249 -0.664,0.415 -0.996,0.746c0,0 -0.083,0 -0.083,0.083c0,0 -0.083,0.083 -0.166,0.083l-0.332,0.332c0.166,0 0.332,0 0.415,-0.166c0.083,0 0.083,-0.083 0,-0.083v-0.083c0.25,-0.083 0.25,-0.083 0.332,-0.083c0,0.083 -0.083,0.166 0,0.166c0,0 0.083,0 0.166,0.083c-0.08915,0.00583 -0.16017,0.07685 -0.166,0.166c0,0.083 -0.083,0.083 -0.166,0.166h-0.166c0.083,0.083 0.083,0.166 0,0.166c-0.083,0 -0.166,0 -0.249,0.083c0,0 -0.083,0 -0.083,0.083c0,0.083 -0.083,0.083 -0.166,0.166c-0.083,-0.083 -0.249,0 -0.332,0.083c-0.08915,0.00583 -0.16017,0.07685 -0.166,0.166c-0.083,0.083 -0.083,0.166 0,0.25c0.083,0 0.083,0.082 0.166,0.082c0.166,0 0.332,0.083 0.415,0.083v0.25c0,0 0,0.082 0.083,0.082h0.166c0,0 0.083,-0.083 0.083,-0.166c0.083,-0.166 0.166,-0.249 0.25,-0.249c0.082,0 0.165,-0.083 0.248,-0.166c0,0 0.083,-0.083 0.083,-0.166c0,-0.083 0,-0.166 0.083,-0.166c0.083,-0.083 0.083,-0.166 0.166,-0.166c0,-0.249 0.166,-0.249 0.415,-0.166c0.166,0.083 0.166,0.166 0.083,0.25c0,0.082 0,0.082 0.083,0.082c0.083,0 0.166,0 0.166,-0.083c0.083,-0.083 0.166,-0.083 0.249,-0.166c0,0.25 0.083,0.498 0.083,0.664h0.166c0,0 0.083,0 0.083,0.083v0.083l-0.083,0.083c-0.249,0.083 -0.498,0.25 -0.747,0.25c-0.166,0 -0.415,0.082 -0.58,0.165c-0.084,0 -0.167,0.083 -0.25,0.083v0.083c0.083,0 0.166,-0.083 0.25,-0.083c0.082,-0.083 0.165,-0.083 0.248,-0.083c0,0.083 -0.083,0.166 -0.083,0.25c0.083,0.165 0.25,0.082 0.332,0.082c-0.15678,0.15053 -0.36288,0.23901 -0.58,0.249c0.082,-0.083 0.165,-0.083 0.248,-0.166c-0.249,0 -0.498,0.083 -0.664,0.249l-0.083,0.083c-0.00583,0.08915 -0.07685,0.16017 -0.166,0.166c-0.332,0.083 -0.498,0.249 -0.664,0.415c0,0 -0.083,0 -0.083,-0.083v0.166c0,0.083 -0.083,0.249 -0.166,0.249c-0.166,0.166 -0.249,0.166 -0.332,0.249c-0.082,0.083 -0.248,0.083 -0.331,0.166c-0.083,0.083 -0.083,0.249 -0.166,0.249c-0.083,0.083 -0.166,0.083 -0.25,0c-0.082,0 -0.165,-0.083 -0.165,-0.083c-0.083,0 -0.166,0 -0.25,0.083c-0.082,0.083 -0.165,0.083 -0.331,0.083c-0.083,0.332 -0.083,0.58 -0.166,0.913c0.083,-0.083 0.166,-0.083 0.332,0c-0.0983,0.18653 -0.18189,0.38045 -0.25,0.58h0.416c0.166,0 0.166,0.084 0.166,0.167c0,0.083 -0.083,0.165 -0.083,0.248v0.166l-0.083,0.083l-0.083,-0.082c-0.083,-0.084 -0.083,-0.167 -0.083,-0.25c-0.166,-0.082 -0.25,-0.082 -0.332,-0.082c0,2.24 0.913,4.315 2.406,5.809c0.166,0.166 0.415,0.332 0.581,0.498c0,0 0,-0.083 -0.083,-0.083c-0.249,-0.25 -0.249,-0.498 -0.332,-0.83c0,-0.415 -0.083,-0.913 -0.166,-1.328c-0.083,-0.332 -0.249,-0.581 -0.58,-0.747c-0.167,-0.083 -0.25,-0.083 -0.25,-0.249c0,-0.083 -0.082,-0.083 -0.082,-0.166c-0.166,-0.249 -0.415,-0.58 -0.581,-0.83c-0.083,-0.083 -0.083,-0.166 0,-0.249l0.083,-0.083c-0.083,-0.166 -0.083,-0.166 0,-0.332c0,-0.083 0.083,-0.083 0.083,-0.166c0.083,-0.083 0.083,-0.166 0.166,-0.249c0.083,-0.166 0.083,-0.249 0,-0.415v-0.083c-0.083,0 -0.166,-0.083 -0.25,-0.083c0.167,0 0.25,0 0.333,0.083c0.083,-0.165 0.497,-0.497 0.663,-0.497v0.248c0.166,-0.248 0.166,-0.248 0.415,-0.166c0.25,0.083 0.415,0.166 0.664,0.083h0.083v0.083l0.25,0.25c0.07936,0.1549 0.23998,0.25112 0.414,0.248h0.25c0.165,0 0.248,0.083 0.248,0.25c0,0.082 0,0.248 0.083,0.331c0.083,0 0.166,0 0.25,0.166c0.248,-0.083 0.414,0 0.414,0.166h0.415c0.166,0 0.249,0.083 0.332,0.166c0.083,0.083 0.166,0.166 0.249,0.166c0.166,0.083 0.249,0.166 0.166,0.332c-0.083,0.166 -0.166,0.415 -0.332,0.581c-0.083,0.249 -0.083,0.332 -0.083,0.415v0.415c0,0.166 -0.083,0.332 -0.166,0.498c-0.083,0.083 -0.083,0.083 -0.25,0.083h-0.165c-0.083,0.083 -0.166,0.083 -0.332,0.166c-0.083,0 -0.083,0.083 0,0.166c0.083,0.083 0,0.166 0,0.249c0,0.083 -0.083,0.166 -0.083,0.166v0.166c-0.083,0.083 -0.083,0.166 -0.166,0.249c-0.083,0.166 -0.166,0.166 -0.332,0.083c-0.083,0 -0.083,-0.083 -0.166,-0.083l0.083,0.083l0.166,0.166c0.083,0.166 0,0.249 -0.166,0.249h-0.166c-0.083,0 -0.083,0 -0.083,0.166v0.166h-0.084c0,0 -0.083,0 -0.083,-0.083c0,0.083 0.083,0.083 0.083,0.166c0.083,0.082 0.083,0.082 0,0.166c0,0.082 -0.083,0.082 -0.083,0.165v0.084l0.25,0.248c0.912,0.581 1.99,0.913 3.07,1.08c0.332,0.082 0.747,0.082 1.079,0.082c0.332,0 0.83,0.332 0.83,0.83c0,0.498 -0.498,0.83 -0.83,0.83c-2.62155,0.008 -5.13805,-1.0298 -6.99186,-2.88343c-1.85382,-1.85363 -2.89187,-4.37002 -2.88414,-6.99157c0,-5.479 4.481,-9.959 9.959,-9.959c5.394,0 9.71,4.315 9.958,9.627c0,0.332 -0.332,0.912 -0.83,0.912zM22,16.938v1.66h-0.913c-0.083,0.332 -0.166,0.58 -0.332,0.83l0.664,0.663l-1.162,1.162l-0.664,-0.664c-0.249,0.166 -0.58,0.25 -0.83,0.332v0.913h-1.66v-0.913c-0.331,-0.083 -0.58,-0.166 -0.83,-0.332l-0.663,0.664l-1.162,-1.162l0.664,-0.664c-0.166,-0.249 -0.249,-0.58 -0.332,-0.83h-0.913v-1.66h0.913c0.083,-0.331 0.166,-0.58 0.332,-0.83l-0.664,-0.663l1.162,-1.162l0.664,0.664c0.249,-0.166 0.58,-0.249 0.83,-0.332v-0.996h1.66v0.913c0.331,0.083 0.58,0.166 0.83,0.332l0.663,-0.664l1.162,1.162l-0.747,0.747c0.166,0.249 0.25,0.58 0.332,0.83zM17.85,16.108c-0.912,0 -1.66,0.747 -1.66,1.66c0,0.912 0.748,1.66 1.66,1.66c0.913,0 1.66,-0.748 1.66,-1.66c0,-0.913 -0.747,-1.66 -1.66,-1.66z" fill="#62757e"></path></g>
  </g>
 </g>
</svg>
