<?xml version="1.0" encoding="UTF-8"?>
<!--Generator: Apple Native CoreSVG 175.5-->
<!DOCTYPE svg
PUBLIC "-//W3C//DTD SVG 1.1//EN"
       "http://www.w3.org/Graphics/SVG/1.1/DTD/svg11.dtd">
<svg version="1.1" xmlns="http://www.w3.org/2000/svg" xmlns:xlink="http://www.w3.org/1999/xlink" width="3300" height="2200">
 <!--glyph: "", point size: 100.0, font version: "18.0d12e2", template writer version: "101"-->
 <g id="Notes">
  <rect height="2200" id="artboard" style="fill:white;opacity:1" width="3300" x="0" y="0"/>
  <line style="fill:none;stroke:black;opacity:1;stroke-width:0.5;" x1="263" x2="3036" y1="292" y2="292"/>
  <text style="stroke:none;fill:black;font-family:sans-serif;font-size:13;font-weight:bold;" transform="matrix(1 0 0 1 263 322)">Weight/Scale Variations</text>
  <text style="stroke:none;fill:black;font-family:sans-serif;font-size:13;text-anchor:middle;" transform="matrix(1 0 0 1 559.711 322)">Ultralight</text>
  <text style="stroke:none;fill:black;font-family:sans-serif;font-size:13;text-anchor:middle;" transform="matrix(1 0 0 1 856.422 322)">Thin</text>
  <text style="stroke:none;fill:black;font-family:sans-serif;font-size:13;text-anchor:middle;" transform="matrix(1 0 0 1 1153.13 322)">Light</text>
  <text style="stroke:none;fill:black;font-family:sans-serif;font-size:13;text-anchor:middle;" transform="matrix(1 0 0 1 1449.84 322)">Regular</text>
  <text style="stroke:none;fill:black;font-family:sans-serif;font-size:13;text-anchor:middle;" transform="matrix(1 0 0 1 1746.56 322)">Medium</text>
  <text style="stroke:none;fill:black;font-family:sans-serif;font-size:13;text-anchor:middle;" transform="matrix(1 0 0 1 2043.27 322)">Semibold</text>
  <text style="stroke:none;fill:black;font-family:sans-serif;font-size:13;text-anchor:middle;" transform="matrix(1 0 0 1 2339.98 322)">Bold</text>
  <text style="stroke:none;fill:black;font-family:sans-serif;font-size:13;text-anchor:middle;" transform="matrix(1 0 0 1 2636.69 322)">Heavy</text>
  <text style="stroke:none;fill:black;font-family:sans-serif;font-size:13;text-anchor:middle;" transform="matrix(1 0 0 1 2933.4 322)">Black</text>
  <line style="fill:none;stroke:black;opacity:1;stroke-width:0.5;" x1="263" x2="3036" y1="1903" y2="1903"/>
  <g transform="matrix(1 0 0 1 263 1933)">
   <path d="M9.24805 0.830078C13.5547 0.830078 17.1387-2.74414 17.1387-7.05078C17.1387-11.3574 13.5449-14.9316 9.23828-14.9316C4.94141-14.9316 1.36719-11.3574 1.36719-7.05078C1.36719-2.74414 4.95117 0.830078 9.24805 0.830078ZM9.24805-0.654297C5.70312-0.654297 2.87109-3.49609 2.87109-7.05078C2.87109-10.6055 5.69336-13.4473 9.23828-13.4473C12.793-13.4473 15.6445-10.6055 15.6445-7.05078C15.6445-3.49609 12.8027-0.654297 9.24805-0.654297ZM5.6543-7.05078C5.6543-6.62109 5.95703-6.32812 6.40625-6.32812L8.50586-6.32812L8.50586-4.20898C8.50586-3.76953 8.79883-3.4668 9.22852-3.4668C9.67773-3.4668 9.9707-3.76953 9.9707-4.20898L9.9707-6.32812L12.0898-6.32812C12.5293-6.32812 12.832-6.62109 12.832-7.05078C12.832-7.49023 12.5293-7.79297 12.0898-7.79297L9.9707-7.79297L9.9707-9.90234C9.9707-10.3516 9.67773-10.6543 9.22852-10.6543C8.79883-10.6543 8.50586-10.3516 8.50586-9.90234L8.50586-7.79297L6.40625-7.79297C5.95703-7.79297 5.6543-7.49023 5.6543-7.05078Z"/>
  </g>
  <g transform="matrix(1 0 0 1 281.867 1933)">
   <path d="M11.709 2.91016C17.1582 2.91016 21.6699-1.61133 21.6699-7.05078C21.6699-12.5 17.1484-17.0117 11.6992-17.0117C6.25977-17.0117 1.74805-12.5 1.74805-7.05078C1.74805-1.61133 6.26953 2.91016 11.709 2.91016ZM11.709 1.25C7.09961 1.25 3.41797-2.44141 3.41797-7.05078C3.41797-11.6602 7.08984-15.3516 11.6992-15.3516C16.3086-15.3516 20.0098-11.6602 20.0098-7.05078C20.0098-2.44141 16.3184 1.25 11.709 1.25ZM7.17773-7.05078C7.17773-6.57227 7.50977-6.25 8.00781-6.25L10.8789-6.25L10.8789-3.36914C10.8789-2.88086 11.2109-2.53906 11.6895-2.53906C12.1777-2.53906 12.5195-2.87109 12.5195-3.36914L12.5195-6.25L15.4004-6.25C15.8887-6.25 16.2305-6.57227 16.2305-7.05078C16.2305-7.53906 15.8887-7.88086 15.4004-7.88086L12.5195-7.88086L12.5195-10.752C12.5195-11.25 12.1777-11.5918 11.6895-11.5918C11.2109-11.5918 10.8789-11.25 10.8789-10.752L10.8789-7.88086L8.00781-7.88086C7.50977-7.88086 7.17773-7.53906 7.17773-7.05078Z"/>
  </g>
  <g transform="matrix(1 0 0 1 305.646 1933)">
   <path d="M14.9707 5.66406C21.9336 5.66406 27.6953-0.0976562 27.6953-7.05078C27.6953-14.0137 21.9238-19.7754 14.9609-19.7754C8.00781-19.7754 2.25586-14.0137 2.25586-7.05078C2.25586-0.0976562 8.01758 5.66406 14.9707 5.66406ZM14.9707 3.84766C8.93555 3.84766 4.08203-1.01562 4.08203-7.05078C4.08203-13.0957 8.92578-17.9492 14.9609-17.9492C21.0059-17.9492 25.8691-13.0957 25.8691-7.05078C25.8691-1.01562 21.0156 3.84766 14.9707 3.84766ZM9.19922-7.05078C9.19922-6.5332 9.57031-6.17188 10.1172-6.17188L14.0625-6.17188L14.0625-2.2168C14.0625-1.67969 14.4336-1.29883 14.9512-1.29883C15.4883-1.29883 15.8594-1.66992 15.8594-2.2168L15.8594-6.17188L19.8145-6.17188C20.3516-6.17188 20.7324-6.5332 20.7324-7.05078C20.7324-7.59766 20.3613-7.96875 19.8145-7.96875L15.8594-7.96875L15.8594-11.9141C15.8594-12.4609 15.4883-12.8418 14.9512-12.8418C14.4336-12.8418 14.0625-12.4609 14.0625-11.9141L14.0625-7.96875L10.1172-7.96875C9.57031-7.96875 9.19922-7.59766 9.19922-7.05078Z"/>
  </g>
  <text style="stroke:none;fill:black;font-family:sans-serif;font-size:13;font-weight:bold;" transform="matrix(1 0 0 1 263 1953)">Design Variations</text>
  <text style="stroke:none;fill:black;font-family:sans-serif;font-size:13;" transform="matrix(1 0 0 1 263 1971)">Symbols are supported in up to nine weights and three scales.</text>
  <text style="stroke:none;fill:black;font-family:sans-serif;font-size:13;" transform="matrix(1 0 0 1 263 1989)">For optimal layout with text and other symbols, vertically align</text>
  <text style="stroke:none;fill:black;font-family:sans-serif;font-size:13;" transform="matrix(1 0 0 1 263 2007)">symbols with the adjacent text.</text>
  <line style="fill:none;stroke:#00AEEF;stroke-width:0.5;opacity:1.0;" x1="776" x2="776" y1="1919" y2="1933"/>
  <g transform="matrix(1 0 0 1 776 1933)">
   <path d="M3.31055 0.15625C3.82812 0.15625 4.08203-0.0390625 4.26758-0.585938L5.52734-4.0332L11.2891-4.0332L12.5488-0.585938C12.7344-0.0390625 12.9883 0.15625 13.4961 0.15625C14.0137 0.15625 14.3457-0.15625 14.3457-0.644531C14.3457-0.810547 14.3164-0.966797 14.2383-1.17188L9.6582-13.3691C9.43359-13.9648 9.0332-14.2676 8.4082-14.2676C7.80273-14.2676 7.39258-13.9746 7.17773-13.3789L2.59766-1.16211C2.51953-0.957031 2.49023-0.800781 2.49023-0.634766C2.49023-0.146484 2.80273 0.15625 3.31055 0.15625ZM6.00586-5.51758L8.37891-12.0898L8.42773-12.0898L10.8008-5.51758Z"/>
  </g>
  <line style="fill:none;stroke:#00AEEF;stroke-width:0.5;opacity:1.0;" x1="793.197" x2="793.197" y1="1919" y2="1933"/>
  <text style="stroke:none;fill:black;font-family:sans-serif;font-size:13;font-weight:bold;" transform="matrix(1 0 0 1 776 1953)">Margins</text>
  <text style="stroke:none;fill:black;font-family:sans-serif;font-size:13;" transform="matrix(1 0 0 1 776 1971)">Leading and trailing margins on the left and right side of each symbol</text>
  <text style="stroke:none;fill:black;font-family:sans-serif;font-size:13;" transform="matrix(1 0 0 1 776 1989)">can be adjusted by modifying the x-location of the margin guidelines.</text>
  <text style="stroke:none;fill:black;font-family:sans-serif;font-size:13;" transform="matrix(1 0 0 1 776 2007)">Modifications are automatically applied proportionally to all</text>
  <text style="stroke:none;fill:black;font-family:sans-serif;font-size:13;" transform="matrix(1 0 0 1 776 2025)">scales and weights.</text>
  <g transform="matrix(1 0 0 1 1289 1933)">
   <path d="M2.8418 1.86523L4.54102 3.57422C5.40039 4.44336 6.38672 4.38477 7.31445 3.35938L18.0078-8.42773L17.041-9.4043L6.42578 2.27539C6.07422 2.67578 5.74219 2.77344 5.27344 2.30469L4.10156 1.14258C3.63281 0.683594 3.74023 0.341797 4.14062-0.0195312L15.6152-10.8203L14.6387-11.7871L3.04688-0.898438C2.06055 0.0195312 1.98242 0.996094 2.8418 1.86523ZM9.25781-16.3281C8.83789-15.918 8.80859-15.3418 9.04297-14.9512C9.27734-14.5898 9.73633-14.3555 10.3809-14.5215C11.8457-14.8633 13.3691-14.9219 14.7949-13.9844L14.209-12.5293C13.8672-11.6992 14.043-11.1133 14.5801-10.5664L16.875-8.25195C17.3633-7.76367 17.7734-7.74414 18.3398-7.8418L19.4043-8.03711L20.0684-7.36328L20.0293-6.80664C19.9902-6.30859 20.1172-5.92773 20.6055-5.44922L21.3672-4.70703C21.8457-4.22852 22.4609-4.19922 22.9297-4.66797L25.8398-7.58789C26.3086-8.05664 26.2891-8.65234 25.8105-9.13086L25.0391-9.89258C24.5605-10.3711 24.1895-10.5273 23.7109-10.4883L23.1348-10.4395L22.4902-11.0742L22.7344-12.1973C22.8613-12.7637 22.7051-13.2031 22.1191-13.7891L19.9219-15.9766C16.582-19.2969 12.1484-19.2188 9.25781-16.3281ZM10.752-15.957C13.1836-17.7344 16.4746-17.4316 18.7012-15.2051L21.1328-12.793C21.3672-12.5586 21.4062-12.373 21.3379-12.0312L21.0156-10.5469L22.5195-9.0625L23.5059-9.12109C23.7598-9.13086 23.8379-9.11133 24.0332-8.91602L24.6094-8.33984L22.168-5.89844L21.5918-6.47461C21.3965-6.66992 21.3672-6.74805 21.377-7.01172L21.4453-7.98828L19.9512-9.47266L18.4277-9.21875C18.1055-9.15039 17.959-9.17969 17.7148-9.41406L15.7129-11.416C15.459-11.6504 15.4297-11.8164 15.5859-12.1875L16.4648-14.2773C14.9023-15.7324 12.8711-16.3574 10.8398-15.7617C10.6836-15.7227 10.625-15.8496 10.752-15.957Z"/>
  </g>
  <text style="stroke:none;fill:black;font-family:sans-serif;font-size:13;font-weight:bold;" transform="matrix(1 0 0 1 1289 1953)">Exporting</text>
  <text style="stroke:none;fill:black;font-family:sans-serif;font-size:13;" transform="matrix(1 0 0 1 1289 1971)">Symbols should be outlined when exporting to ensure the</text>
  <text style="stroke:none;fill:black;font-family:sans-serif;font-size:13;" transform="matrix(1 0 0 1 1289 1989)">design is preserved when submitting to Xcode.</text>
  <text id="template-version" style="stroke:none;fill:black;font-family:sans-serif;font-size:13;text-anchor:end;" transform="matrix(1 0 0 1 3036 1933)">Template v.4.0</text>
  <text style="stroke:none;fill:black;font-family:sans-serif;font-size:13;text-anchor:end;" transform="matrix(1 0 0 1 3036 1951)">Requires Xcode 14 or greater</text>
  <text id="descriptive-name" style="stroke:none;fill:black;font-family:sans-serif;font-size:13;text-anchor:end;" transform="matrix(1 0 0 1 3036 1969)">Generated from brave.zzz</text>
  <text style="stroke:none;fill:black;font-family:sans-serif;font-size:13;text-anchor:end;" transform="matrix(1 0 0 1 3036 1987)">Typeset at 100 points</text>
  <text style="stroke:none;fill:black;font-family:sans-serif;font-size:13;" transform="matrix(1 0 0 1 263 726)">Small</text>
  <text style="stroke:none;fill:black;font-family:sans-serif;font-size:13;" transform="matrix(1 0 0 1 263 1156)">Medium</text>
  <text style="stroke:none;fill:black;font-family:sans-serif;font-size:13;" transform="matrix(1 0 0 1 263 1586)">Large</text>
 </g>
 <g id="Guides">
  <g id="H-reference" style="fill:#27AAE1;stroke:none;" transform="matrix(1 0 0 1 339 696)">
   <path d="M0.993654 0L3.63775 0L29.3281-67.1323L30.0303-67.1323L30.0303-70.459L28.1226-70.459ZM11.6885-24.4799L46.9815-24.4799L46.2315-26.7285L12.4385-26.7285ZM55.1196 0L57.7637 0L30.6382-70.459L29.4326-70.459L29.4326-67.1323Z"/>
  </g>
  <line id="Baseline-S" style="fill:none;stroke:#27AAE1;opacity:1;stroke-width:0.5;" x1="263" x2="3036" y1="696" y2="696"/>
  <line id="Capline-S" style="fill:none;stroke:#27AAE1;opacity:1;stroke-width:0.5;" x1="263" x2="3036" y1="625.541" y2="625.541"/>
  <g id="H-reference" style="fill:#27AAE1;stroke:none;" transform="matrix(1 0 0 1 339 1126)">
   <path d="M0.993654 0L3.63775 0L29.3281-67.1323L30.0303-67.1323L30.0303-70.459L28.1226-70.459ZM11.6885-24.4799L46.9815-24.4799L46.2315-26.7285L12.4385-26.7285ZM55.1196 0L57.7637 0L30.6382-70.459L29.4326-70.459L29.4326-67.1323Z"/>
  </g>
  <line id="Baseline-M" style="fill:none;stroke:#27AAE1;opacity:1;stroke-width:0.5;" x1="263" x2="3036" y1="1126" y2="1126"/>
  <line id="Capline-M" style="fill:none;stroke:#27AAE1;opacity:1;stroke-width:0.5;" x1="263" x2="3036" y1="1055.54" y2="1055.54"/>
  <g id="H-reference" style="fill:#27AAE1;stroke:none;" transform="matrix(1 0 0 1 339 1556)">
   <path d="M0.993654 0L3.63775 0L29.3281-67.1323L30.0303-67.1323L30.0303-70.459L28.1226-70.459ZM11.6885-24.4799L46.9815-24.4799L46.2315-26.7285L12.4385-26.7285ZM55.1196 0L57.7637 0L30.6382-70.459L29.4326-70.459L29.4326-67.1323Z"/>
  </g>
  <line id="Baseline-L" style="fill:none;stroke:#27AAE1;opacity:1;stroke-width:0.5;" x1="263" x2="3036" y1="1556" y2="1556"/>
  <line id="Capline-L" style="fill:none;stroke:#27AAE1;opacity:1;stroke-width:0.5;" x1="263" x2="3036" y1="1485.54" y2="1485.54"/>
  <line id="left-margin-Regular-M" style="fill:none;stroke:#00AEEF;stroke-width:0.5;opacity:1.0;" x1="1389.82" x2="1389.82" y1="1030.79" y2="1150.12"/>
  <line id="right-margin-Regular-M" style="fill:none;stroke:#00AEEF;stroke-width:0.5;opacity:1.0;" x1="1509.87" x2="1509.87" y1="1030.79" y2="1150.12"/>
 </g>
 <g id="Symbols">
  <g id="Regular-L" transform="matrix(6.45 0 0 6.45 1372.2675 1443)">
    <defs><clipPath id="clip-1"><rect x="0" y="0" width="24" height="24" fill="none" fill-rule="nonzero"></rect></clipPath></defs>
<g clip-path="url(#clip-1)" fill="none" fill-rule="none" stroke="none" stroke-width="1" stroke-linecap="butt" stroke-linejoin="miter" stroke-miterlimit="10" stroke-dasharray="" stroke-dashoffset="0" font-family="none" font-weight="none" font-size="none" text-anchor="none" style="mix-blend-mode: normal"><path d="M6.873,0.007c-0.24706,0.0461 -0.48033,0.14802 -0.682,0.298c-0.574,0.435 -1.018,1.361 -1.206,2.514c-0.07,0.436 -0.119,1.04 -0.119,1.503c0,0.544 0.064,1.24 0.155,1.721c0.02,0.107 0.031,0.202 0.022,0.208l-0.186,0.152c-0.36019,0.29669 -0.67962,0.63966 -0.95,1.02c-0.48948,0.69656 -0.81057,1.49724 -0.938,2.339c-0.05461,0.45031 -0.06265,0.90504 -0.024,1.357c0.091,0.78 0.325,1.438 0.727,2.04l0.13,0.195l-0.037,0.064c-0.269,0.452 -0.498,1.105 -0.605,1.732c-0.084,0.496 -0.095,0.629 -0.095,1.294c0,0.67 0.009,0.803 0.088,1.267c0.095,0.554 0.288,1.142 0.503,1.533c0.071,0.128 0.243,0.393 0.264,0.407c0.007,0.003 -0.014,0.067 -0.047,0.141c-0.26455,0.5974 -0.44882,1.22721 -0.548,1.873c-0.05617,0.32719 -0.07962,0.65916 -0.07,0.991c0,0.56 0.03,0.832 0.148,1.279l0.017,0.065h1.477l-0.048,-0.091c-0.298,-0.552 -0.326,-1.575 -0.07,-2.597c0.118,-0.472 0.25,-0.819 0.499,-1.296l0.148,-0.29v-0.177c0,-0.165 -0.003,-0.184 -0.057,-0.293c-0.04969,-0.09422 -0.11572,-0.17886 -0.195,-0.25c-0.1625,-0.15395 -0.293,-0.33848 -0.384,-0.543c-0.424,-0.92 -0.506,-2.286 -0.208,-3.451c0.124,-0.486 0.329,-0.918 0.544,-1.155c0.13708,-0.14308 0.21619,-0.33194 0.222,-0.53c0,-0.195 -0.068,-0.355 -0.224,-0.522c-0.44511,-0.4775 -0.73034,-1.08186 -0.816,-1.729c-0.14,-0.96 0.113,-2.005 0.689,-2.834c0.563,-0.814 1.354,-1.336 2.238,-1.475c0.198,-0.033 0.569,-0.028 0.776,0.01c0.226,0.04 0.367,0.028 0.512,-0.041c0.179,-0.085 0.268,-0.19 0.373,-0.431c0.094,-0.215 0.166,-0.333 0.36,-0.576c0.235,-0.29 0.46,-0.489 0.822,-0.729c0.414,-0.27 0.885,-0.467 1.353,-0.561c0.17,-0.035 0.25,-0.04 0.569,-0.04c0.319,0 0.398,0.005 0.569,0.04c0.687,0.14 1.37,0.494 1.914,0.997c0.117,0.109 0.398,0.457 0.488,0.602c0.034,0.057 0.094,0.177 0.132,0.267c0.105,0.241 0.195,0.346 0.374,0.43c0.14,0.068 0.286,0.082 0.503,0.045c0.343,-0.058 0.607,-0.053 0.943,0.016c1.144,0.23 2.14,1.173 2.581,2.437c0.384,1.108 0.276,2.267 -0.296,3.153c-0.097,0.15 -0.193,0.27 -0.333,0.419c-0.301,0.322 -0.301,0.722 -0.001,1.053c0.492,0.539 0.8,1.866 0.708,3.036c-0.062,0.772 -0.26,1.463 -0.533,1.854c-0.06717,0.09223 -0.14211,0.17855 -0.224,0.258c-0.07892,0.07122 -0.14461,0.15586 -0.194,0.25c-0.054,0.109 -0.057,0.128 -0.057,0.293v0.178l0.148,0.29c0.248,0.476 0.38,0.823 0.498,1.295c0.253,1.008 0.23,2.01 -0.059,2.581c-0.01675,0.03183 -0.03177,0.06455 -0.045,0.098c0,0.006 0.33,0.009 0.733,0.009h0.73l0.02,-0.074l0.016,-0.06v-0.001l0.02,-0.073c0.019,-0.076 0.056,-0.3 0.087,-0.516c0.02934,-0.41882 0.02934,-0.83918 0,-1.258c-0.11,-0.875 -0.294,-1.57 -0.596,-2.226c-0.032,-0.074 -0.053,-0.138 -0.046,-0.141c0.03934,-0.04821 0.07542,-0.09899 0.108,-0.152c0.376,-0.569 0.607,-1.284 0.724,-2.228c0.031,-0.26 0.031,-1.379 0,-1.628c-0.083,-0.645 -0.183,-1.083 -0.348,-1.525c-0.09482,-0.24019 -0.20505,-0.47401 -0.33,-0.7l-0.037,-0.064l0.13,-0.194c0.402,-0.604 0.637,-1.262 0.728,-2.04c0.03872,-0.45229 0.03068,-0.90736 -0.024,-1.358c-0.12803,-0.84193 -0.44981,-1.64262 -0.94,-2.339c-0.27007,-0.38028 -0.58916,-0.72324 -0.949,-1.02l-0.186,-0.152c-0.0028,-0.07009 0.00495,-0.14021 0.023,-0.208c0.208,-1.087 0.201,-2.443 -0.018,-3.503c-0.19,-0.924 -0.534,-1.658 -0.978,-2.082c-0.355,-0.338 -0.717,-0.482 -1.151,-0.455c-0.996,0.059 -1.8,1.205 -2.116,3.01c-0.04498,0.24014 -0.07736,0.48247 -0.097,0.726c0,0.036 -0.007,0.066 -0.015,0.066c-0.05177,-0.02177 -0.10161,-0.04786 -0.149,-0.078c-0.74163,-0.44688 -1.58919,-0.68751 -2.455,-0.697c-0.832,0 -1.687,0.243 -2.456,0.698c-0.04707,0.03009 -0.09657,0.05618 -0.148,0.078c-0.008,0 -0.015,-0.03 -0.015,-0.066c-0.01968,-0.24319 -0.05205,-0.48519 -0.097,-0.725c-0.288,-1.623 -0.948,-2.696 -1.824,-2.967c-0.19245,-0.04105 -0.38971,-0.05486 -0.586,-0.041M7.167,1.409c0.249,0.197 0.524,0.759 0.683,1.388c0.03,0.113 0.06,0.244 0.069,0.292c0.007,0.047 0.026,0.152 0.041,0.233c0.067,0.365 0.098,0.76 0.102,1.24l0.001,0.475l-0.118,0.175l-0.12,0.178h-0.277c-0.324,0 -0.646,0.041 -0.954,0.124l-0.2,0.05l-0.038,0.01c-0.033,0.007 -0.038,-0.003 -0.057,-0.144c-0.10261,-0.77129 -0.09756,-1.5531 0.015,-2.323c0.125,-0.788 0.414,-1.501 0.697,-1.711c0.067,-0.05 0.079,-0.049 0.156,0.013M16.993,1.397c0.17,0.126 0.358,0.46 0.498,0.888c0.28,0.854 0.36,2.028 0.212,3.145c-0.02,0.14 -0.024,0.151 -0.057,0.144l-0.039,-0.01l-0.199,-0.05c-0.31125,-0.08267 -0.63196,-0.12436 -0.954,-0.124h-0.278l-0.119,-0.178l-0.119,-0.175l0.002,-0.474c0.004,-0.669 0.066,-1.19 0.214,-1.772c0.157,-0.623 0.434,-1.185 0.68,-1.382c0.078,-0.062 0.09,-0.063 0.159,-0.012" fill="#62757e" fill-rule="nonzero"></path><path d="M11.147,12.648c-0.028,-0.133 0.064,-0.312 0.195,-0.383c0.06069,-0.02648 0.12701,-0.03747 0.193,-0.032c0.132,-0.002 0.172,0.013 0.39,0.143l0.054,0.032l0.085,-0.053c0.148,-0.095 0.229,-0.124 0.355,-0.124c0.08,0 0.136,0.01 0.18,0.033c0.183,0.094 0.259,0.3 0.176,0.48c-0.043,0.095 -0.187,0.235 -0.324,0.314c-0.129,0.074 -0.14,0.112 -0.088,0.355c0.063,0.291 0.02,0.443 -0.15,0.525c-0.065,0.031 -0.1,0.035 -0.263,0.03c-0.18,-0.005 -0.191,-0.007 -0.255,-0.059c-0.07625,-0.06463 -0.12696,-0.15434 -0.143,-0.253c0,-0.028 0.015,-0.128 0.036,-0.222c0.019,-0.097 0.033,-0.205 0.03,-0.243c-0.006,-0.064 -0.013,-0.073 -0.118,-0.136c-0.196,-0.12 -0.322,-0.264 -0.353,-0.407" fill="#62757e" fill-rule="nonzero"></path><path d="M11.733,10.07c-0.21975,0.01662 -0.43841,0.04533 -0.655,0.086c-0.291,0.06 -0.68,0.195 -0.951,0.327c-0.941,0.46 -1.589,1.227 -1.787,2.115c-0.04,0.176 -0.045,0.234 -0.045,0.53c0,0.293 0.005,0.357 0.043,0.524c0.264,1.16 1.332,2.017 2.714,2.173c0.3,0.033 1.596,0.033 1.896,0c1.11,-0.125 2.064,-0.727 2.493,-1.571c0.114,-0.226 0.169,-0.372 0.22,-0.602c0.039,-0.167 0.044,-0.23 0.044,-0.523c0,-0.297 -0.005,-0.355 -0.045,-0.531c-0.288,-1.29 -1.539,-2.304 -3.072,-2.497c-0.2841,-0.02776 -0.56963,-0.03811 -0.855,-0.031M12.377,11.007c0.51362,0.05624 1.00686,0.2323 1.44,0.514c0.223,0.148 0.537,0.458 0.671,0.662c0.165,0.251 0.26,0.508 0.303,0.82c0.02,0.143 0.009,0.251 -0.043,0.482c-0.08,0.345 -0.332,0.705 -0.672,0.957c-0.21372,0.14519 -0.44531,0.26215 -0.689,0.348c-0.383,0.122 -0.632,0.145 -1.525,0.138c-0.582,-0.006 -0.686,-0.01 -0.853,-0.042c-0.57133,-0.10667 -1.02133,-0.33333 -1.35,-0.68c-0.265,-0.28 -0.385,-0.535 -0.45,-0.946c-0.03,-0.192 0.025,-0.509 0.137,-0.776c0.136,-0.326 0.488,-0.73 0.836,-0.963c0.403,-0.269 0.934,-0.46 1.422,-0.512c0.187,-0.02 0.585,-0.02 0.773,-0.002" fill="#62757e" fill-rule="nonzero"></path><path d="M7.158,10.265c0.15516,-0.04029 0.31772,-0.04269 0.474,-0.007c0.24701,0.06959 0.45257,0.24131 0.565,0.472l0.072,0.148l-0.001,0.207c0,0.193 -0.004,0.217 -0.06,0.353c-0.075,0.193 -0.15,0.312 -0.29,0.448c-0.24,0.238 -0.51,0.3 -0.872,0.205c-0.288,-0.077 -0.541,-0.358 -0.598,-0.667c-0.01851,-0.17564 0.00198,-0.35319 0.06,-0.52c0.117,-0.319 0.345,-0.543 0.65,-0.639M15.803,10.73c0.11131,-0.22841 0.31399,-0.39913 0.558,-0.47c0.126,-0.035 0.35,-0.035 0.465,0c0.395,0.115 0.66,0.444 0.724,0.897c0.03163,0.17026 0.00336,0.34621 -0.08,0.498c-0.10533,0.20963 -0.29173,0.36713 -0.516,0.436c-0.362,0.095 -0.632,0.033 -0.872,-0.205c-0.13111,-0.12418 -0.23085,-0.27773 -0.291,-0.448c-0.055,-0.136 -0.059,-0.16 -0.059,-0.353l-0.002,-0.207z" fill="#62757e" fill-rule="nonzero"></path></g>
  </g>
  <g id="Regular-M" transform="matrix(5 0 0 5 1389.82 1030)">
    <defs><clipPath id="clip-1"><rect x="0" y="0" width="24" height="24" fill="none" fill-rule="nonzero"></rect></clipPath></defs>
<g clip-path="url(#clip-1)" fill="none" fill-rule="none" stroke="none" stroke-width="1" stroke-linecap="butt" stroke-linejoin="miter" stroke-miterlimit="10" stroke-dasharray="" stroke-dashoffset="0" font-family="none" font-weight="none" font-size="none" text-anchor="none" style="mix-blend-mode: normal"><path d="M6.873,0.007c-0.24706,0.0461 -0.48033,0.14802 -0.682,0.298c-0.574,0.435 -1.018,1.361 -1.206,2.514c-0.07,0.436 -0.119,1.04 -0.119,1.503c0,0.544 0.064,1.24 0.155,1.721c0.02,0.107 0.031,0.202 0.022,0.208l-0.186,0.152c-0.36019,0.29669 -0.67962,0.63966 -0.95,1.02c-0.48948,0.69656 -0.81057,1.49724 -0.938,2.339c-0.05461,0.45031 -0.06265,0.90504 -0.024,1.357c0.091,0.78 0.325,1.438 0.727,2.04l0.13,0.195l-0.037,0.064c-0.269,0.452 -0.498,1.105 -0.605,1.732c-0.084,0.496 -0.095,0.629 -0.095,1.294c0,0.67 0.009,0.803 0.088,1.267c0.095,0.554 0.288,1.142 0.503,1.533c0.071,0.128 0.243,0.393 0.264,0.407c0.007,0.003 -0.014,0.067 -0.047,0.141c-0.26455,0.5974 -0.44882,1.22721 -0.548,1.873c-0.05617,0.32719 -0.07962,0.65916 -0.07,0.991c0,0.56 0.03,0.832 0.148,1.279l0.017,0.065h1.477l-0.048,-0.091c-0.298,-0.552 -0.326,-1.575 -0.07,-2.597c0.118,-0.472 0.25,-0.819 0.499,-1.296l0.148,-0.29v-0.177c0,-0.165 -0.003,-0.184 -0.057,-0.293c-0.04969,-0.09422 -0.11572,-0.17886 -0.195,-0.25c-0.1625,-0.15395 -0.293,-0.33848 -0.384,-0.543c-0.424,-0.92 -0.506,-2.286 -0.208,-3.451c0.124,-0.486 0.329,-0.918 0.544,-1.155c0.13708,-0.14308 0.21619,-0.33194 0.222,-0.53c0,-0.195 -0.068,-0.355 -0.224,-0.522c-0.44511,-0.4775 -0.73034,-1.08186 -0.816,-1.729c-0.14,-0.96 0.113,-2.005 0.689,-2.834c0.563,-0.814 1.354,-1.336 2.238,-1.475c0.198,-0.033 0.569,-0.028 0.776,0.01c0.226,0.04 0.367,0.028 0.512,-0.041c0.179,-0.085 0.268,-0.19 0.373,-0.431c0.094,-0.215 0.166,-0.333 0.36,-0.576c0.235,-0.29 0.46,-0.489 0.822,-0.729c0.414,-0.27 0.885,-0.467 1.353,-0.561c0.17,-0.035 0.25,-0.04 0.569,-0.04c0.319,0 0.398,0.005 0.569,0.04c0.687,0.14 1.37,0.494 1.914,0.997c0.117,0.109 0.398,0.457 0.488,0.602c0.034,0.057 0.094,0.177 0.132,0.267c0.105,0.241 0.195,0.346 0.374,0.43c0.14,0.068 0.286,0.082 0.503,0.045c0.343,-0.058 0.607,-0.053 0.943,0.016c1.144,0.23 2.14,1.173 2.581,2.437c0.384,1.108 0.276,2.267 -0.296,3.153c-0.097,0.15 -0.193,0.27 -0.333,0.419c-0.301,0.322 -0.301,0.722 -0.001,1.053c0.492,0.539 0.8,1.866 0.708,3.036c-0.062,0.772 -0.26,1.463 -0.533,1.854c-0.06717,0.09223 -0.14211,0.17855 -0.224,0.258c-0.07892,0.07122 -0.14461,0.15586 -0.194,0.25c-0.054,0.109 -0.057,0.128 -0.057,0.293v0.178l0.148,0.29c0.248,0.476 0.38,0.823 0.498,1.295c0.253,1.008 0.23,2.01 -0.059,2.581c-0.01675,0.03183 -0.03177,0.06455 -0.045,0.098c0,0.006 0.33,0.009 0.733,0.009h0.73l0.02,-0.074l0.016,-0.06v-0.001l0.02,-0.073c0.019,-0.076 0.056,-0.3 0.087,-0.516c0.02934,-0.41882 0.02934,-0.83918 0,-1.258c-0.11,-0.875 -0.294,-1.57 -0.596,-2.226c-0.032,-0.074 -0.053,-0.138 -0.046,-0.141c0.03934,-0.04821 0.07542,-0.09899 0.108,-0.152c0.376,-0.569 0.607,-1.284 0.724,-2.228c0.031,-0.26 0.031,-1.379 0,-1.628c-0.083,-0.645 -0.183,-1.083 -0.348,-1.525c-0.09482,-0.24019 -0.20505,-0.47401 -0.33,-0.7l-0.037,-0.064l0.13,-0.194c0.402,-0.604 0.637,-1.262 0.728,-2.04c0.03872,-0.45229 0.03068,-0.90736 -0.024,-1.358c-0.12803,-0.84193 -0.44981,-1.64262 -0.94,-2.339c-0.27007,-0.38028 -0.58916,-0.72324 -0.949,-1.02l-0.186,-0.152c-0.0028,-0.07009 0.00495,-0.14021 0.023,-0.208c0.208,-1.087 0.201,-2.443 -0.018,-3.503c-0.19,-0.924 -0.534,-1.658 -0.978,-2.082c-0.355,-0.338 -0.717,-0.482 -1.151,-0.455c-0.996,0.059 -1.8,1.205 -2.116,3.01c-0.04498,0.24014 -0.07736,0.48247 -0.097,0.726c0,0.036 -0.007,0.066 -0.015,0.066c-0.05177,-0.02177 -0.10161,-0.04786 -0.149,-0.078c-0.74163,-0.44688 -1.58919,-0.68751 -2.455,-0.697c-0.832,0 -1.687,0.243 -2.456,0.698c-0.04707,0.03009 -0.09657,0.05618 -0.148,0.078c-0.008,0 -0.015,-0.03 -0.015,-0.066c-0.01968,-0.24319 -0.05205,-0.48519 -0.097,-0.725c-0.288,-1.623 -0.948,-2.696 -1.824,-2.967c-0.19245,-0.04105 -0.38971,-0.05486 -0.586,-0.041M7.167,1.409c0.249,0.197 0.524,0.759 0.683,1.388c0.03,0.113 0.06,0.244 0.069,0.292c0.007,0.047 0.026,0.152 0.041,0.233c0.067,0.365 0.098,0.76 0.102,1.24l0.001,0.475l-0.118,0.175l-0.12,0.178h-0.277c-0.324,0 -0.646,0.041 -0.954,0.124l-0.2,0.05l-0.038,0.01c-0.033,0.007 -0.038,-0.003 -0.057,-0.144c-0.10261,-0.77129 -0.09756,-1.5531 0.015,-2.323c0.125,-0.788 0.414,-1.501 0.697,-1.711c0.067,-0.05 0.079,-0.049 0.156,0.013M16.993,1.397c0.17,0.126 0.358,0.46 0.498,0.888c0.28,0.854 0.36,2.028 0.212,3.145c-0.02,0.14 -0.024,0.151 -0.057,0.144l-0.039,-0.01l-0.199,-0.05c-0.31125,-0.08267 -0.63196,-0.12436 -0.954,-0.124h-0.278l-0.119,-0.178l-0.119,-0.175l0.002,-0.474c0.004,-0.669 0.066,-1.19 0.214,-1.772c0.157,-0.623 0.434,-1.185 0.68,-1.382c0.078,-0.062 0.09,-0.063 0.159,-0.012" fill="#62757e" fill-rule="nonzero"></path><path d="M11.147,12.648c-0.028,-0.133 0.064,-0.312 0.195,-0.383c0.06069,-0.02648 0.12701,-0.03747 0.193,-0.032c0.132,-0.002 0.172,0.013 0.39,0.143l0.054,0.032l0.085,-0.053c0.148,-0.095 0.229,-0.124 0.355,-0.124c0.08,0 0.136,0.01 0.18,0.033c0.183,0.094 0.259,0.3 0.176,0.48c-0.043,0.095 -0.187,0.235 -0.324,0.314c-0.129,0.074 -0.14,0.112 -0.088,0.355c0.063,0.291 0.02,0.443 -0.15,0.525c-0.065,0.031 -0.1,0.035 -0.263,0.03c-0.18,-0.005 -0.191,-0.007 -0.255,-0.059c-0.07625,-0.06463 -0.12696,-0.15434 -0.143,-0.253c0,-0.028 0.015,-0.128 0.036,-0.222c0.019,-0.097 0.033,-0.205 0.03,-0.243c-0.006,-0.064 -0.013,-0.073 -0.118,-0.136c-0.196,-0.12 -0.322,-0.264 -0.353,-0.407" fill="#62757e" fill-rule="nonzero"></path><path d="M11.733,10.07c-0.21975,0.01662 -0.43841,0.04533 -0.655,0.086c-0.291,0.06 -0.68,0.195 -0.951,0.327c-0.941,0.46 -1.589,1.227 -1.787,2.115c-0.04,0.176 -0.045,0.234 -0.045,0.53c0,0.293 0.005,0.357 0.043,0.524c0.264,1.16 1.332,2.017 2.714,2.173c0.3,0.033 1.596,0.033 1.896,0c1.11,-0.125 2.064,-0.727 2.493,-1.571c0.114,-0.226 0.169,-0.372 0.22,-0.602c0.039,-0.167 0.044,-0.23 0.044,-0.523c0,-0.297 -0.005,-0.355 -0.045,-0.531c-0.288,-1.29 -1.539,-2.304 -3.072,-2.497c-0.2841,-0.02776 -0.56963,-0.03811 -0.855,-0.031M12.377,11.007c0.51362,0.05624 1.00686,0.2323 1.44,0.514c0.223,0.148 0.537,0.458 0.671,0.662c0.165,0.251 0.26,0.508 0.303,0.82c0.02,0.143 0.009,0.251 -0.043,0.482c-0.08,0.345 -0.332,0.705 -0.672,0.957c-0.21372,0.14519 -0.44531,0.26215 -0.689,0.348c-0.383,0.122 -0.632,0.145 -1.525,0.138c-0.582,-0.006 -0.686,-0.01 -0.853,-0.042c-0.57133,-0.10667 -1.02133,-0.33333 -1.35,-0.68c-0.265,-0.28 -0.385,-0.535 -0.45,-0.946c-0.03,-0.192 0.025,-0.509 0.137,-0.776c0.136,-0.326 0.488,-0.73 0.836,-0.963c0.403,-0.269 0.934,-0.46 1.422,-0.512c0.187,-0.02 0.585,-0.02 0.773,-0.002" fill="#62757e" fill-rule="nonzero"></path><path d="M7.158,10.265c0.15516,-0.04029 0.31772,-0.04269 0.474,-0.007c0.24701,0.06959 0.45257,0.24131 0.565,0.472l0.072,0.148l-0.001,0.207c0,0.193 -0.004,0.217 -0.06,0.353c-0.075,0.193 -0.15,0.312 -0.29,0.448c-0.24,0.238 -0.51,0.3 -0.872,0.205c-0.288,-0.077 -0.541,-0.358 -0.598,-0.667c-0.01851,-0.17564 0.00198,-0.35319 0.06,-0.52c0.117,-0.319 0.345,-0.543 0.65,-0.639M15.803,10.73c0.11131,-0.22841 0.31399,-0.39913 0.558,-0.47c0.126,-0.035 0.35,-0.035 0.465,0c0.395,0.115 0.66,0.444 0.724,0.897c0.03163,0.17026 0.00336,0.34621 -0.08,0.498c-0.10533,0.20963 -0.29173,0.36713 -0.516,0.436c-0.362,0.095 -0.632,0.033 -0.872,-0.205c-0.13111,-0.12418 -0.23085,-0.27773 -0.291,-0.448c-0.055,-0.136 -0.059,-0.16 -0.059,-0.353l-0.002,-0.207z" fill="#62757e" fill-rule="nonzero"></path></g>
  </g>
  <g id="Regular-S" transform="matrix(3.915 0 0 3.915 1402.75 614)">
    <defs><clipPath id="clip-1"><rect x="0" y="0" width="24" height="24" fill="none" fill-rule="nonzero"></rect></clipPath></defs>
<g clip-path="url(#clip-1)" fill="none" fill-rule="none" stroke="none" stroke-width="1" stroke-linecap="butt" stroke-linejoin="miter" stroke-miterlimit="10" stroke-dasharray="" stroke-dashoffset="0" font-family="none" font-weight="none" font-size="none" text-anchor="none" style="mix-blend-mode: normal"><path d="M6.873,0.007c-0.24706,0.0461 -0.48033,0.14802 -0.682,0.298c-0.574,0.435 -1.018,1.361 -1.206,2.514c-0.07,0.436 -0.119,1.04 -0.119,1.503c0,0.544 0.064,1.24 0.155,1.721c0.02,0.107 0.031,0.202 0.022,0.208l-0.186,0.152c-0.36019,0.29669 -0.67962,0.63966 -0.95,1.02c-0.48948,0.69656 -0.81057,1.49724 -0.938,2.339c-0.05461,0.45031 -0.06265,0.90504 -0.024,1.357c0.091,0.78 0.325,1.438 0.727,2.04l0.13,0.195l-0.037,0.064c-0.269,0.452 -0.498,1.105 -0.605,1.732c-0.084,0.496 -0.095,0.629 -0.095,1.294c0,0.67 0.009,0.803 0.088,1.267c0.095,0.554 0.288,1.142 0.503,1.533c0.071,0.128 0.243,0.393 0.264,0.407c0.007,0.003 -0.014,0.067 -0.047,0.141c-0.26455,0.5974 -0.44882,1.22721 -0.548,1.873c-0.05617,0.32719 -0.07962,0.65916 -0.07,0.991c0,0.56 0.03,0.832 0.148,1.279l0.017,0.065h1.477l-0.048,-0.091c-0.298,-0.552 -0.326,-1.575 -0.07,-2.597c0.118,-0.472 0.25,-0.819 0.499,-1.296l0.148,-0.29v-0.177c0,-0.165 -0.003,-0.184 -0.057,-0.293c-0.04969,-0.09422 -0.11572,-0.17886 -0.195,-0.25c-0.1625,-0.15395 -0.293,-0.33848 -0.384,-0.543c-0.424,-0.92 -0.506,-2.286 -0.208,-3.451c0.124,-0.486 0.329,-0.918 0.544,-1.155c0.13708,-0.14308 0.21619,-0.33194 0.222,-0.53c0,-0.195 -0.068,-0.355 -0.224,-0.522c-0.44511,-0.4775 -0.73034,-1.08186 -0.816,-1.729c-0.14,-0.96 0.113,-2.005 0.689,-2.834c0.563,-0.814 1.354,-1.336 2.238,-1.475c0.198,-0.033 0.569,-0.028 0.776,0.01c0.226,0.04 0.367,0.028 0.512,-0.041c0.179,-0.085 0.268,-0.19 0.373,-0.431c0.094,-0.215 0.166,-0.333 0.36,-0.576c0.235,-0.29 0.46,-0.489 0.822,-0.729c0.414,-0.27 0.885,-0.467 1.353,-0.561c0.17,-0.035 0.25,-0.04 0.569,-0.04c0.319,0 0.398,0.005 0.569,0.04c0.687,0.14 1.37,0.494 1.914,0.997c0.117,0.109 0.398,0.457 0.488,0.602c0.034,0.057 0.094,0.177 0.132,0.267c0.105,0.241 0.195,0.346 0.374,0.43c0.14,0.068 0.286,0.082 0.503,0.045c0.343,-0.058 0.607,-0.053 0.943,0.016c1.144,0.23 2.14,1.173 2.581,2.437c0.384,1.108 0.276,2.267 -0.296,3.153c-0.097,0.15 -0.193,0.27 -0.333,0.419c-0.301,0.322 -0.301,0.722 -0.001,1.053c0.492,0.539 0.8,1.866 0.708,3.036c-0.062,0.772 -0.26,1.463 -0.533,1.854c-0.06717,0.09223 -0.14211,0.17855 -0.224,0.258c-0.07892,0.07122 -0.14461,0.15586 -0.194,0.25c-0.054,0.109 -0.057,0.128 -0.057,0.293v0.178l0.148,0.29c0.248,0.476 0.38,0.823 0.498,1.295c0.253,1.008 0.23,2.01 -0.059,2.581c-0.01675,0.03183 -0.03177,0.06455 -0.045,0.098c0,0.006 0.33,0.009 0.733,0.009h0.73l0.02,-0.074l0.016,-0.06v-0.001l0.02,-0.073c0.019,-0.076 0.056,-0.3 0.087,-0.516c0.02934,-0.41882 0.02934,-0.83918 0,-1.258c-0.11,-0.875 -0.294,-1.57 -0.596,-2.226c-0.032,-0.074 -0.053,-0.138 -0.046,-0.141c0.03934,-0.04821 0.07542,-0.09899 0.108,-0.152c0.376,-0.569 0.607,-1.284 0.724,-2.228c0.031,-0.26 0.031,-1.379 0,-1.628c-0.083,-0.645 -0.183,-1.083 -0.348,-1.525c-0.09482,-0.24019 -0.20505,-0.47401 -0.33,-0.7l-0.037,-0.064l0.13,-0.194c0.402,-0.604 0.637,-1.262 0.728,-2.04c0.03872,-0.45229 0.03068,-0.90736 -0.024,-1.358c-0.12803,-0.84193 -0.44981,-1.64262 -0.94,-2.339c-0.27007,-0.38028 -0.58916,-0.72324 -0.949,-1.02l-0.186,-0.152c-0.0028,-0.07009 0.00495,-0.14021 0.023,-0.208c0.208,-1.087 0.201,-2.443 -0.018,-3.503c-0.19,-0.924 -0.534,-1.658 -0.978,-2.082c-0.355,-0.338 -0.717,-0.482 -1.151,-0.455c-0.996,0.059 -1.8,1.205 -2.116,3.01c-0.04498,0.24014 -0.07736,0.48247 -0.097,0.726c0,0.036 -0.007,0.066 -0.015,0.066c-0.05177,-0.02177 -0.10161,-0.04786 -0.149,-0.078c-0.74163,-0.44688 -1.58919,-0.68751 -2.455,-0.697c-0.832,0 -1.687,0.243 -2.456,0.698c-0.04707,0.03009 -0.09657,0.05618 -0.148,0.078c-0.008,0 -0.015,-0.03 -0.015,-0.066c-0.01968,-0.24319 -0.05205,-0.48519 -0.097,-0.725c-0.288,-1.623 -0.948,-2.696 -1.824,-2.967c-0.19245,-0.04105 -0.38971,-0.05486 -0.586,-0.041M7.167,1.409c0.249,0.197 0.524,0.759 0.683,1.388c0.03,0.113 0.06,0.244 0.069,0.292c0.007,0.047 0.026,0.152 0.041,0.233c0.067,0.365 0.098,0.76 0.102,1.24l0.001,0.475l-0.118,0.175l-0.12,0.178h-0.277c-0.324,0 -0.646,0.041 -0.954,0.124l-0.2,0.05l-0.038,0.01c-0.033,0.007 -0.038,-0.003 -0.057,-0.144c-0.10261,-0.77129 -0.09756,-1.5531 0.015,-2.323c0.125,-0.788 0.414,-1.501 0.697,-1.711c0.067,-0.05 0.079,-0.049 0.156,0.013M16.993,1.397c0.17,0.126 0.358,0.46 0.498,0.888c0.28,0.854 0.36,2.028 0.212,3.145c-0.02,0.14 -0.024,0.151 -0.057,0.144l-0.039,-0.01l-0.199,-0.05c-0.31125,-0.08267 -0.63196,-0.12436 -0.954,-0.124h-0.278l-0.119,-0.178l-0.119,-0.175l0.002,-0.474c0.004,-0.669 0.066,-1.19 0.214,-1.772c0.157,-0.623 0.434,-1.185 0.68,-1.382c0.078,-0.062 0.09,-0.063 0.159,-0.012" fill="#62757e" fill-rule="nonzero"></path><path d="M11.147,12.648c-0.028,-0.133 0.064,-0.312 0.195,-0.383c0.06069,-0.02648 0.12701,-0.03747 0.193,-0.032c0.132,-0.002 0.172,0.013 0.39,0.143l0.054,0.032l0.085,-0.053c0.148,-0.095 0.229,-0.124 0.355,-0.124c0.08,0 0.136,0.01 0.18,0.033c0.183,0.094 0.259,0.3 0.176,0.48c-0.043,0.095 -0.187,0.235 -0.324,0.314c-0.129,0.074 -0.14,0.112 -0.088,0.355c0.063,0.291 0.02,0.443 -0.15,0.525c-0.065,0.031 -0.1,0.035 -0.263,0.03c-0.18,-0.005 -0.191,-0.007 -0.255,-0.059c-0.07625,-0.06463 -0.12696,-0.15434 -0.143,-0.253c0,-0.028 0.015,-0.128 0.036,-0.222c0.019,-0.097 0.033,-0.205 0.03,-0.243c-0.006,-0.064 -0.013,-0.073 -0.118,-0.136c-0.196,-0.12 -0.322,-0.264 -0.353,-0.407" fill="#62757e" fill-rule="nonzero"></path><path d="M11.733,10.07c-0.21975,0.01662 -0.43841,0.04533 -0.655,0.086c-0.291,0.06 -0.68,0.195 -0.951,0.327c-0.941,0.46 -1.589,1.227 -1.787,2.115c-0.04,0.176 -0.045,0.234 -0.045,0.53c0,0.293 0.005,0.357 0.043,0.524c0.264,1.16 1.332,2.017 2.714,2.173c0.3,0.033 1.596,0.033 1.896,0c1.11,-0.125 2.064,-0.727 2.493,-1.571c0.114,-0.226 0.169,-0.372 0.22,-0.602c0.039,-0.167 0.044,-0.23 0.044,-0.523c0,-0.297 -0.005,-0.355 -0.045,-0.531c-0.288,-1.29 -1.539,-2.304 -3.072,-2.497c-0.2841,-0.02776 -0.56963,-0.03811 -0.855,-0.031M12.377,11.007c0.51362,0.05624 1.00686,0.2323 1.44,0.514c0.223,0.148 0.537,0.458 0.671,0.662c0.165,0.251 0.26,0.508 0.303,0.82c0.02,0.143 0.009,0.251 -0.043,0.482c-0.08,0.345 -0.332,0.705 -0.672,0.957c-0.21372,0.14519 -0.44531,0.26215 -0.689,0.348c-0.383,0.122 -0.632,0.145 -1.525,0.138c-0.582,-0.006 -0.686,-0.01 -0.853,-0.042c-0.57133,-0.10667 -1.02133,-0.33333 -1.35,-0.68c-0.265,-0.28 -0.385,-0.535 -0.45,-0.946c-0.03,-0.192 0.025,-0.509 0.137,-0.776c0.136,-0.326 0.488,-0.73 0.836,-0.963c0.403,-0.269 0.934,-0.46 1.422,-0.512c0.187,-0.02 0.585,-0.02 0.773,-0.002" fill="#62757e" fill-rule="nonzero"></path><path d="M7.158,10.265c0.15516,-0.04029 0.31772,-0.04269 0.474,-0.007c0.24701,0.06959 0.45257,0.24131 0.565,0.472l0.072,0.148l-0.001,0.207c0,0.193 -0.004,0.217 -0.06,0.353c-0.075,0.193 -0.15,0.312 -0.29,0.448c-0.24,0.238 -0.51,0.3 -0.872,0.205c-0.288,-0.077 -0.541,-0.358 -0.598,-0.667c-0.01851,-0.17564 0.00198,-0.35319 0.06,-0.52c0.117,-0.319 0.345,-0.543 0.65,-0.639M15.803,10.73c0.11131,-0.22841 0.31399,-0.39913 0.558,-0.47c0.126,-0.035 0.35,-0.035 0.465,0c0.395,0.115 0.66,0.444 0.724,0.897c0.03163,0.17026 0.00336,0.34621 -0.08,0.498c-0.10533,0.20963 -0.29173,0.36713 -0.516,0.436c-0.362,0.095 -0.632,0.033 -0.872,-0.205c-0.13111,-0.12418 -0.23085,-0.27773 -0.291,-0.448c-0.055,-0.136 -0.059,-0.16 -0.059,-0.353l-0.002,-0.207z" fill="#62757e" fill-rule="nonzero"></path></g>
  </g>
 </g>
</svg>
