<?xml version="1.0" encoding="UTF-8"?>
<!--Generator: Apple Native CoreSVG 175.5-->
<!DOCTYPE svg
PUBLIC "-//W3C//DTD SVG 1.1//EN"
       "http://www.w3.org/Graphics/SVG/1.1/DTD/svg11.dtd">
<svg version="1.1" xmlns="http://www.w3.org/2000/svg" xmlns:xlink="http://www.w3.org/1999/xlink" width="3300" height="2200">
 <!--glyph: "", point size: 100.0, font version: "18.0d12e2", template writer version: "101"-->
 <g id="Notes">
  <rect height="2200" id="artboard" style="fill:white;opacity:1" width="3300" x="0" y="0"/>
  <line style="fill:none;stroke:black;opacity:1;stroke-width:0.5;" x1="263" x2="3036" y1="292" y2="292"/>
  <text style="stroke:none;fill:black;font-family:sans-serif;font-size:13;font-weight:bold;" transform="matrix(1 0 0 1 263 322)">Weight/Scale Variations</text>
  <text style="stroke:none;fill:black;font-family:sans-serif;font-size:13;text-anchor:middle;" transform="matrix(1 0 0 1 559.711 322)">Ultralight</text>
  <text style="stroke:none;fill:black;font-family:sans-serif;font-size:13;text-anchor:middle;" transform="matrix(1 0 0 1 856.422 322)">Thin</text>
  <text style="stroke:none;fill:black;font-family:sans-serif;font-size:13;text-anchor:middle;" transform="matrix(1 0 0 1 1153.13 322)">Light</text>
  <text style="stroke:none;fill:black;font-family:sans-serif;font-size:13;text-anchor:middle;" transform="matrix(1 0 0 1 1449.84 322)">Regular</text>
  <text style="stroke:none;fill:black;font-family:sans-serif;font-size:13;text-anchor:middle;" transform="matrix(1 0 0 1 1746.56 322)">Medium</text>
  <text style="stroke:none;fill:black;font-family:sans-serif;font-size:13;text-anchor:middle;" transform="matrix(1 0 0 1 2043.27 322)">Semibold</text>
  <text style="stroke:none;fill:black;font-family:sans-serif;font-size:13;text-anchor:middle;" transform="matrix(1 0 0 1 2339.98 322)">Bold</text>
  <text style="stroke:none;fill:black;font-family:sans-serif;font-size:13;text-anchor:middle;" transform="matrix(1 0 0 1 2636.69 322)">Heavy</text>
  <text style="stroke:none;fill:black;font-family:sans-serif;font-size:13;text-anchor:middle;" transform="matrix(1 0 0 1 2933.4 322)">Black</text>
  <line style="fill:none;stroke:black;opacity:1;stroke-width:0.5;" x1="263" x2="3036" y1="1903" y2="1903"/>
  <g transform="matrix(1 0 0 1 263 1933)">
   <path d="M9.24805 0.830078C13.5547 0.830078 17.1387-2.74414 17.1387-7.05078C17.1387-11.3574 13.5449-14.9316 9.23828-14.9316C4.94141-14.9316 1.36719-11.3574 1.36719-7.05078C1.36719-2.74414 4.95117 0.830078 9.24805 0.830078ZM9.24805-0.654297C5.70312-0.654297 2.87109-3.49609 2.87109-7.05078C2.87109-10.6055 5.69336-13.4473 9.23828-13.4473C12.793-13.4473 15.6445-10.6055 15.6445-7.05078C15.6445-3.49609 12.8027-0.654297 9.24805-0.654297ZM5.6543-7.05078C5.6543-6.62109 5.95703-6.32812 6.40625-6.32812L8.50586-6.32812L8.50586-4.20898C8.50586-3.76953 8.79883-3.4668 9.22852-3.4668C9.67773-3.4668 9.9707-3.76953 9.9707-4.20898L9.9707-6.32812L12.0898-6.32812C12.5293-6.32812 12.832-6.62109 12.832-7.05078C12.832-7.49023 12.5293-7.79297 12.0898-7.79297L9.9707-7.79297L9.9707-9.90234C9.9707-10.3516 9.67773-10.6543 9.22852-10.6543C8.79883-10.6543 8.50586-10.3516 8.50586-9.90234L8.50586-7.79297L6.40625-7.79297C5.95703-7.79297 5.6543-7.49023 5.6543-7.05078Z"/>
  </g>
  <g transform="matrix(1 0 0 1 281.867 1933)">
   <path d="M11.709 2.91016C17.1582 2.91016 21.6699-1.61133 21.6699-7.05078C21.6699-12.5 17.1484-17.0117 11.6992-17.0117C6.25977-17.0117 1.74805-12.5 1.74805-7.05078C1.74805-1.61133 6.26953 2.91016 11.709 2.91016ZM11.709 1.25C7.09961 1.25 3.41797-2.44141 3.41797-7.05078C3.41797-11.6602 7.08984-15.3516 11.6992-15.3516C16.3086-15.3516 20.0098-11.6602 20.0098-7.05078C20.0098-2.44141 16.3184 1.25 11.709 1.25ZM7.17773-7.05078C7.17773-6.57227 7.50977-6.25 8.00781-6.25L10.8789-6.25L10.8789-3.36914C10.8789-2.88086 11.2109-2.53906 11.6895-2.53906C12.1777-2.53906 12.5195-2.87109 12.5195-3.36914L12.5195-6.25L15.4004-6.25C15.8887-6.25 16.2305-6.57227 16.2305-7.05078C16.2305-7.53906 15.8887-7.88086 15.4004-7.88086L12.5195-7.88086L12.5195-10.752C12.5195-11.25 12.1777-11.5918 11.6895-11.5918C11.2109-11.5918 10.8789-11.25 10.8789-10.752L10.8789-7.88086L8.00781-7.88086C7.50977-7.88086 7.17773-7.53906 7.17773-7.05078Z"/>
  </g>
  <g transform="matrix(1 0 0 1 305.646 1933)">
   <path d="M14.9707 5.66406C21.9336 5.66406 27.6953-0.0976562 27.6953-7.05078C27.6953-14.0137 21.9238-19.7754 14.9609-19.7754C8.00781-19.7754 2.25586-14.0137 2.25586-7.05078C2.25586-0.0976562 8.01758 5.66406 14.9707 5.66406ZM14.9707 3.84766C8.93555 3.84766 4.08203-1.01562 4.08203-7.05078C4.08203-13.0957 8.92578-17.9492 14.9609-17.9492C21.0059-17.9492 25.8691-13.0957 25.8691-7.05078C25.8691-1.01562 21.0156 3.84766 14.9707 3.84766ZM9.19922-7.05078C9.19922-6.5332 9.57031-6.17188 10.1172-6.17188L14.0625-6.17188L14.0625-2.2168C14.0625-1.67969 14.4336-1.29883 14.9512-1.29883C15.4883-1.29883 15.8594-1.66992 15.8594-2.2168L15.8594-6.17188L19.8145-6.17188C20.3516-6.17188 20.7324-6.5332 20.7324-7.05078C20.7324-7.59766 20.3613-7.96875 19.8145-7.96875L15.8594-7.96875L15.8594-11.9141C15.8594-12.4609 15.4883-12.8418 14.9512-12.8418C14.4336-12.8418 14.0625-12.4609 14.0625-11.9141L14.0625-7.96875L10.1172-7.96875C9.57031-7.96875 9.19922-7.59766 9.19922-7.05078Z"/>
  </g>
  <text style="stroke:none;fill:black;font-family:sans-serif;font-size:13;font-weight:bold;" transform="matrix(1 0 0 1 263 1953)">Design Variations</text>
  <text style="stroke:none;fill:black;font-family:sans-serif;font-size:13;" transform="matrix(1 0 0 1 263 1971)">Symbols are supported in up to nine weights and three scales.</text>
  <text style="stroke:none;fill:black;font-family:sans-serif;font-size:13;" transform="matrix(1 0 0 1 263 1989)">For optimal layout with text and other symbols, vertically align</text>
  <text style="stroke:none;fill:black;font-family:sans-serif;font-size:13;" transform="matrix(1 0 0 1 263 2007)">symbols with the adjacent text.</text>
  <line style="fill:none;stroke:#00AEEF;stroke-width:0.5;opacity:1.0;" x1="776" x2="776" y1="1919" y2="1933"/>
  <g transform="matrix(1 0 0 1 776 1933)">
   <path d="M3.31055 0.15625C3.82812 0.15625 4.08203-0.0390625 4.26758-0.585938L5.52734-4.0332L11.2891-4.0332L12.5488-0.585938C12.7344-0.0390625 12.9883 0.15625 13.4961 0.15625C14.0137 0.15625 14.3457-0.15625 14.3457-0.644531C14.3457-0.810547 14.3164-0.966797 14.2383-1.17188L9.6582-13.3691C9.43359-13.9648 9.0332-14.2676 8.4082-14.2676C7.80273-14.2676 7.39258-13.9746 7.17773-13.3789L2.59766-1.16211C2.51953-0.957031 2.49023-0.800781 2.49023-0.634766C2.49023-0.146484 2.80273 0.15625 3.31055 0.15625ZM6.00586-5.51758L8.37891-12.0898L8.42773-12.0898L10.8008-5.51758Z"/>
  </g>
  <line style="fill:none;stroke:#00AEEF;stroke-width:0.5;opacity:1.0;" x1="793.197" x2="793.197" y1="1919" y2="1933"/>
  <text style="stroke:none;fill:black;font-family:sans-serif;font-size:13;font-weight:bold;" transform="matrix(1 0 0 1 776 1953)">Margins</text>
  <text style="stroke:none;fill:black;font-family:sans-serif;font-size:13;" transform="matrix(1 0 0 1 776 1971)">Leading and trailing margins on the left and right side of each symbol</text>
  <text style="stroke:none;fill:black;font-family:sans-serif;font-size:13;" transform="matrix(1 0 0 1 776 1989)">can be adjusted by modifying the x-location of the margin guidelines.</text>
  <text style="stroke:none;fill:black;font-family:sans-serif;font-size:13;" transform="matrix(1 0 0 1 776 2007)">Modifications are automatically applied proportionally to all</text>
  <text style="stroke:none;fill:black;font-family:sans-serif;font-size:13;" transform="matrix(1 0 0 1 776 2025)">scales and weights.</text>
  <g transform="matrix(1 0 0 1 1289 1933)">
   <path d="M2.8418 1.86523L4.54102 3.57422C5.40039 4.44336 6.38672 4.38477 7.31445 3.35938L18.0078-8.42773L17.041-9.4043L6.42578 2.27539C6.07422 2.67578 5.74219 2.77344 5.27344 2.30469L4.10156 1.14258C3.63281 0.683594 3.74023 0.341797 4.14062-0.0195312L15.6152-10.8203L14.6387-11.7871L3.04688-0.898438C2.06055 0.0195312 1.98242 0.996094 2.8418 1.86523ZM9.25781-16.3281C8.83789-15.918 8.80859-15.3418 9.04297-14.9512C9.27734-14.5898 9.73633-14.3555 10.3809-14.5215C11.8457-14.8633 13.3691-14.9219 14.7949-13.9844L14.209-12.5293C13.8672-11.6992 14.043-11.1133 14.5801-10.5664L16.875-8.25195C17.3633-7.76367 17.7734-7.74414 18.3398-7.8418L19.4043-8.03711L20.0684-7.36328L20.0293-6.80664C19.9902-6.30859 20.1172-5.92773 20.6055-5.44922L21.3672-4.70703C21.8457-4.22852 22.4609-4.19922 22.9297-4.66797L25.8398-7.58789C26.3086-8.05664 26.2891-8.65234 25.8105-9.13086L25.0391-9.89258C24.5605-10.3711 24.1895-10.5273 23.7109-10.4883L23.1348-10.4395L22.4902-11.0742L22.7344-12.1973C22.8613-12.7637 22.7051-13.2031 22.1191-13.7891L19.9219-15.9766C16.582-19.2969 12.1484-19.2188 9.25781-16.3281ZM10.752-15.957C13.1836-17.7344 16.4746-17.4316 18.7012-15.2051L21.1328-12.793C21.3672-12.5586 21.4062-12.373 21.3379-12.0312L21.0156-10.5469L22.5195-9.0625L23.5059-9.12109C23.7598-9.13086 23.8379-9.11133 24.0332-8.91602L24.6094-8.33984L22.168-5.89844L21.5918-6.47461C21.3965-6.66992 21.3672-6.74805 21.377-7.01172L21.4453-7.98828L19.9512-9.47266L18.4277-9.21875C18.1055-9.15039 17.959-9.17969 17.7148-9.41406L15.7129-11.416C15.459-11.6504 15.4297-11.8164 15.5859-12.1875L16.4648-14.2773C14.9023-15.7324 12.8711-16.3574 10.8398-15.7617C10.6836-15.7227 10.625-15.8496 10.752-15.957Z"/>
  </g>
  <text style="stroke:none;fill:black;font-family:sans-serif;font-size:13;font-weight:bold;" transform="matrix(1 0 0 1 1289 1953)">Exporting</text>
  <text style="stroke:none;fill:black;font-family:sans-serif;font-size:13;" transform="matrix(1 0 0 1 1289 1971)">Symbols should be outlined when exporting to ensure the</text>
  <text style="stroke:none;fill:black;font-family:sans-serif;font-size:13;" transform="matrix(1 0 0 1 1289 1989)">design is preserved when submitting to Xcode.</text>
  <text id="template-version" style="stroke:none;fill:black;font-family:sans-serif;font-size:13;text-anchor:end;" transform="matrix(1 0 0 1 3036 1933)">Template v.4.0</text>
  <text style="stroke:none;fill:black;font-family:sans-serif;font-size:13;text-anchor:end;" transform="matrix(1 0 0 1 3036 1951)">Requires Xcode 14 or greater</text>
  <text id="descriptive-name" style="stroke:none;fill:black;font-family:sans-serif;font-size:13;text-anchor:end;" transform="matrix(1 0 0 1 3036 1969)">Generated from brave.zzz</text>
  <text style="stroke:none;fill:black;font-family:sans-serif;font-size:13;text-anchor:end;" transform="matrix(1 0 0 1 3036 1987)">Typeset at 100 points</text>
  <text style="stroke:none;fill:black;font-family:sans-serif;font-size:13;" transform="matrix(1 0 0 1 263 726)">Small</text>
  <text style="stroke:none;fill:black;font-family:sans-serif;font-size:13;" transform="matrix(1 0 0 1 263 1156)">Medium</text>
  <text style="stroke:none;fill:black;font-family:sans-serif;font-size:13;" transform="matrix(1 0 0 1 263 1586)">Large</text>
 </g>
 <g id="Guides">
  <g id="H-reference" style="fill:#27AAE1;stroke:none;" transform="matrix(1 0 0 1 339 696)">
   <path d="M0.993654 0L3.63775 0L29.3281-67.1323L30.0303-67.1323L30.0303-70.459L28.1226-70.459ZM11.6885-24.4799L46.9815-24.4799L46.2315-26.7285L12.4385-26.7285ZM55.1196 0L57.7637 0L30.6382-70.459L29.4326-70.459L29.4326-67.1323Z"/>
  </g>
  <line id="Baseline-S" style="fill:none;stroke:#27AAE1;opacity:1;stroke-width:0.5;" x1="263" x2="3036" y1="696" y2="696"/>
  <line id="Capline-S" style="fill:none;stroke:#27AAE1;opacity:1;stroke-width:0.5;" x1="263" x2="3036" y1="625.541" y2="625.541"/>
  <g id="H-reference" style="fill:#27AAE1;stroke:none;" transform="matrix(1 0 0 1 339 1126)">
   <path d="M0.993654 0L3.63775 0L29.3281-67.1323L30.0303-67.1323L30.0303-70.459L28.1226-70.459ZM11.6885-24.4799L46.9815-24.4799L46.2315-26.7285L12.4385-26.7285ZM55.1196 0L57.7637 0L30.6382-70.459L29.4326-70.459L29.4326-67.1323Z"/>
  </g>
  <line id="Baseline-M" style="fill:none;stroke:#27AAE1;opacity:1;stroke-width:0.5;" x1="263" x2="3036" y1="1126" y2="1126"/>
  <line id="Capline-M" style="fill:none;stroke:#27AAE1;opacity:1;stroke-width:0.5;" x1="263" x2="3036" y1="1055.54" y2="1055.54"/>
  <g id="H-reference" style="fill:#27AAE1;stroke:none;" transform="matrix(1 0 0 1 339 1556)">
   <path d="M0.993654 0L3.63775 0L29.3281-67.1323L30.0303-67.1323L30.0303-70.459L28.1226-70.459ZM11.6885-24.4799L46.9815-24.4799L46.2315-26.7285L12.4385-26.7285ZM55.1196 0L57.7637 0L30.6382-70.459L29.4326-70.459L29.4326-67.1323Z"/>
  </g>
  <line id="Baseline-L" style="fill:none;stroke:#27AAE1;opacity:1;stroke-width:0.5;" x1="263" x2="3036" y1="1556" y2="1556"/>
  <line id="Capline-L" style="fill:none;stroke:#27AAE1;opacity:1;stroke-width:0.5;" x1="263" x2="3036" y1="1485.54" y2="1485.54"/>
  <line id="left-margin-Regular-M" style="fill:none;stroke:#00AEEF;stroke-width:0.5;opacity:1.0;" x1="1389.82" x2="1389.82" y1="1030.79" y2="1150.12"/>
  <line id="right-margin-Regular-M" style="fill:none;stroke:#00AEEF;stroke-width:0.5;opacity:1.0;" x1="1509.87" x2="1509.87" y1="1030.79" y2="1150.12"/>
 </g>
 <g id="Symbols">
  <g id="Regular-L" transform="matrix(6.45 0 0 6.45 1372.2675 1443)">
    <defs><clipPath id="clip-1"><rect x="0" y="0" width="24" height="24" fill="none" fill-rule="nonzero"></rect></clipPath></defs>
<g clip-path="url(#clip-1)" fill="none" fill-rule="none" stroke="none" stroke-width="1" stroke-linecap="butt" stroke-linejoin="miter" stroke-miterlimit="10" stroke-dasharray="" stroke-dashoffset="0" font-family="none" font-weight="none" font-size="none" text-anchor="none" style="mix-blend-mode: normal"><path d="M21.787,15.242v0.063c0,0.014 0.018,0.019 0.025,0.007c0.006,-0.011 0.024,-0.008 0.025,0.005c0.00467,0.03933 0.01033,0.07867 0.017,0.118c0.00933,0.06133 0.01733,0.125 0.024,0.191c0.01231,0.12601 -0.02867,0.25143 -0.11303,0.34585c-0.08435,0.09442 -0.20437,0.14923 -0.33097,0.15115h-0.008c-0.1565,0.0003 -0.30192,-0.08074 -0.384,-0.214c-0.06735,-0.1121 -0.13907,-0.22152 -0.215,-0.328l-0.063,-0.09c-0.01,-0.016 -0.02067,-0.03133 -0.032,-0.046c-0.017,-0.019 -0.024,-0.045 -0.035,-0.068l-0.254,-0.508l-0.215,-0.564l-0.055,-0.194c-0.0541,-0.18603 -0.13495,-0.36322 -0.24,-0.526l-0.067,-0.105c-0.03,-0.045 -0.069,-0.1 -0.087,-0.151l-0.01,-0.026l-0.117,-0.298l-0.022,-0.067c-0.03104,-0.07455 -0.071,-0.14506 -0.119,-0.21l-0.085,-0.13l-0.09,-0.135l-0.098,-0.119c-0.058,-0.07 -0.12,-0.144 -0.184,-0.231l-0.02,-0.023c-0.032,-0.037 -0.072,-0.07 -0.093,-0.113c-0.04533,-0.07867 -0.09067,-0.15567 -0.136,-0.231l-0.135,-0.232l-0.024,-0.048c-0.034,-0.077 -0.04,-0.163 -0.056,-0.245l-0.026,-0.183c-0.01902,-0.13344 -0.06241,-0.26225 -0.128,-0.38l-0.14,-0.25l-0.003,-0.009c-0.12148,-0.24636 -0.31276,-0.45155 -0.55,-0.59l-0.045,-0.034c-0.08719,-0.05207 -0.1547,-0.13154 -0.192,-0.226c-0.068,-0.17 -0.136,-0.328 -0.215,-0.509l-0.056,-0.124c-0.012,-0.028 -0.02533,-0.057 -0.04,-0.087c-0.0489,-0.11171 -0.1287,-0.20712 -0.23,-0.275l-0.227,-0.146c-0.11444,-0.07791 -0.18871,-0.2023 -0.203,-0.34l-0.026,-0.282c-0.01047,-0.14766 -0.0644,-0.28893 -0.155,-0.406l-0.008,-0.01c-0.06267,-0.07592 -0.13085,-0.14712 -0.204,-0.213l-0.082,-0.07l-0.192,-0.17c-0.05691,-0.04347 -0.09999,-0.10253 -0.124,-0.17l-0.068,-0.18l-0.028,-0.065c-0.03483,-0.08138 -0.09568,-0.14891 -0.173,-0.192l-0.262,-0.14c-0.12622,-0.06544 -0.21409,-0.18668 -0.237,-0.327l-0.037,-0.234c-0.01901,-0.12388 -0.09236,-0.2328 -0.2,-0.297l-0.148,-0.079c-0.10466,-0.0633 -0.1812,-0.16417 -0.214,-0.282l-0.023,-0.085c-0.04749,-0.18329 -0.17871,-0.33342 -0.354,-0.405l-0.076,-0.03c-0.078,-0.02078 -0.14605,-0.06864 -0.192,-0.135l-0.113,-0.147c-0.068,-0.09 -0.136,-0.18 -0.215,-0.271c-0.0329,-0.04912 -0.05944,-0.10221 -0.079,-0.158l-0.013,-0.045c-0.07167,-0.23924 -0.23286,-0.44162 -0.45,-0.565c-0.07816,-0.03906 -0.14138,-0.10263 -0.18,-0.181l-0.272,-0.52c-0.041,-0.091 -0.09,-0.177 -0.138,-0.265l-0.054,-0.096c-0.03693,-0.07377 -0.08867,-0.13913 -0.152,-0.192c-0.03733,-0.034 -0.07333,-0.068 -0.108,-0.102l-0.18,-0.18c-0.02933,-0.03467 -0.05933,-0.06867 -0.09,-0.102l-0.091,-0.102l-0.113,-0.124c-0.11906,-0.13225 -0.14833,-0.32253 -0.07453,-0.48445c0.0738,-0.16192 0.23661,-0.26465 0.41453,-0.26155c0.1239,0.00493 0.24108,0.0576 0.327,0.147l0.102,0.102l0.104,0.117c0.05933,0.06467 0.122,0.12533 0.188,0.182l0.047,0.04c0.063,0.052 0.135,0.113 0.199,0.185c0.01,0.01133 0.02333,0.01733 0.04,0.018c0.00667,0 0.013,0.00133 0.019,0.004l0.397,0.165l0.016,0.009l0.082,0.05l0.072,0.043l0.18,0.113c0.05933,0.036 0.11967,0.07367 0.181,0.113c0.017,0.011 0.04,0.032 0.06,0.049l0.06,0.062l0.343,0.375l0.334,0.324c0.049,0.047 0.101,0.092 0.137,0.15c0.01,0.01467 0.019,0.03067 0.027,0.048c0.03467,0.07267 0.07167,0.14733 0.111,0.224l0.07,0.135c0.03,0.052 0.06867,0.09667 0.116,0.134l0.058,0.046c0.042,0.034 0.08533,0.068 0.13,0.102c0.08727,0.05797 0.16376,0.13073 0.226,0.215l0.217,0.371c0.01395,0.02274 0.03231,0.04246 0.054,0.058c0.062,0.034 0.12433,0.06967 0.187,0.107c0.062,0.03733 0.124,0.07333 0.186,0.108c0.02496,0.01573 0.0481,0.03418 0.069,0.055c0.04561,0.04495 0.0868,0.09417 0.123,0.147l0.26,0.363l0.373,0.429c0.05,0.05 0.072,0.122 0.103,0.187c0.04067,0.086 0.08167,0.17433 0.123,0.265l0.002,0.005c0.05377,0.1191 0.11908,0.23264 0.195,0.339l0.064,0.098c0.04502,0.06571 0.09772,0.1258 0.157,0.179c0.101,0.079 0.203,0.17 0.305,0.26c0.07619,0.06805 0.12755,0.15953 0.146,0.26l0.031,0.162c0.03873,0.20257 0.14101,0.38752 0.292,0.528l0.043,0.04c0.03986,0.03953 0.07632,0.08235 0.109,0.128l0.067,0.104c0.05667,0.084 0.10967,0.17 0.159,0.258c0.03067,0.05267 0.068,0.09933 0.112,0.14l0.13,0.125l0.198,0.187c0.046,0.045 0.08,0.101 0.102,0.158l0.068,0.17c0.02,0.05467 0.04233,0.11133 0.067,0.17c0.02933,0.07133 0.05933,0.15 0.09,0.236l0.096,0.338c0.03467,0.12067 0.08,0.23733 0.136,0.35l0.142,0.283l0.203,0.373c0.03,0.068 0.06567,0.13267 0.107,0.194l0.05,0.072c0.077,0.114 0.158,0.233 0.25,0.378l0.056,0.113c0.08,0.135 0.147,0.271 0.192,0.373l0.102,0.17c0.034,0.05667 0.068,0.11467 0.102,0.174c0.03333,0.06 0.067,0.11833 0.101,0.175c0.02235,0.04116 0.0398,0.08479 0.052,0.13c0.01067,0.034 0.016,0.06867 0.016,0.104v0.071l0.013,0.122c0.02,0.173 0.057,0.345 0.127,0.504l0.097,0.222c0.0261,0.05667 0.04136,0.11772 0.045,0.18v0.146c0.00092,0.16871 0.0587,0.33218 0.164,0.464c0.05333,0.068 0.108,0.136 0.164,0.204c0.057,0.079 0.09,0.18 0.09,0.282v0.113c-0.01122,0.13911 -0.01122,0.27889 0,0.418M12.735,19.192c0.00267,0.01 0.004,0.02 0.004,0.03v0.11c0,0.029 -0.027,0.05 -0.055,0.044c-0.01211,-0.00263 -0.02476,-0.00015 -0.03498,0.00685c-0.01022,0.007 -0.0171,0.01791 -0.01902,0.03015c-0.01706,0.12569 -0.04008,0.2505 -0.069,0.374c-0.01602,0.05798 -0.01875,0.11882 -0.008,0.178l0.022,0.152l0.028,0.186l0.034,0.215c0.01218,0.05601 0.01218,0.11399 0,0.17c-0.022,0.07867 -0.04267,0.15933 -0.062,0.242c-0.038,0.16 -0.037,0.326 -0.008,0.488c0.069,0.384 0.102,0.9 0.048,1.156l-0.068,0.542c-0.03434,0.20895 -0.20689,0.36747 -0.418,0.384h-0.034c-0.20297,-0.00029 -0.38176,-0.13357 -0.44,-0.328l-0.08,-0.282l-0.07,-0.227c-0.013,-0.044 -0.031,-0.088 -0.031,-0.134c-0.023,-0.17 -0.057,-0.34 -0.09,-0.509l-0.013,-0.069c-0.00543,-0.03712 -0.00877,-0.07451 -0.01,-0.112l-0.057,-0.677v-0.401c0,-0.11733 -0.015,-0.23233 -0.045,-0.345c-0.0221,-0.06722 -0.04277,-0.1349 -0.062,-0.203l-0.041,-0.138c-0.014,-0.044 -0.04,-0.1 -0.043,-0.145l-0.003,-0.037l-0.02,-0.2l-0.017,-0.184c-0.01295,-0.12539 -0.03773,-0.24927 -0.074,-0.37c-0.03422,-0.12502 -0.0719,-0.24907 -0.113,-0.372l-0.26,-0.678l-0.158,-0.633l-0.007,-0.06c-0.005,-0.065 0,-0.13 0.005,-0.195l0.015,-0.15c0.02129,-0.21756 0.00676,-0.43714 -0.043,-0.65l-0.004,-0.018l-0.056,-0.248c-0.02103,-0.13671 -0.04772,-0.2725 -0.08,-0.407c-0.0156,-0.0739 -0.04774,-0.1433 -0.094,-0.203l-0.131,-0.159l-0.203,-0.248c-0.07905,-0.09901 -0.11923,-0.22346 -0.113,-0.35l-0.008,-0.054c-0.01876,-0.1561 -0.04277,-0.31152 -0.072,-0.466l-0.033,-0.226l-0.023,-0.152c-0.01443,-0.10023 -0.05399,-0.19518 -0.115,-0.276l-0.28,-0.374c-0.07926,-0.09382 -0.11229,-0.21822 -0.09,-0.339c0.02333,-0.134 0.04333,-0.272 0.06,-0.414c0.0128,-0.0986 -0.00137,-0.19882 -0.041,-0.29c-0.03198,-0.06886 -0.06133,-0.13891 -0.088,-0.21l-0.056,-0.125c-0.09734,-0.17347 -0.19836,-0.34484 -0.303,-0.514c-0.01559,-0.02665 -0.02994,-0.05402 -0.043,-0.082c-0.036,-0.081 -0.045,-0.171 -0.06,-0.259l-0.012,-0.072l-0.023,-0.158c-0.01572,-0.10294 -0.06087,-0.19913 -0.13,-0.277l-0.299,-0.333c-0.07814,-0.09522 -0.11838,-0.21594 -0.113,-0.339l0.02,-0.251c0.01236,-0.17263 -0.04572,-0.34291 -0.161,-0.472c-0.06,-0.06667 -0.11833,-0.13433 -0.175,-0.203c-0.06197,-0.07816 -0.10109,-0.17196 -0.113,-0.271v-0.158l-0.005,-0.053c-0.01341,-0.18409 -0.09423,-0.35677 -0.227,-0.485c-0.07101,-0.06423 -0.14069,-0.12991 -0.209,-0.197c-0.02043,-0.02197 -0.03883,-0.04573 -0.055,-0.071c-0.03198,-0.05012 -0.05942,-0.103 -0.082,-0.158l-0.167,-0.375c-0.046,-0.102 -0.114,-0.2 -0.114,-0.311c-0.00967,-0.1578 -0.02467,-0.31522 -0.045,-0.472c0,-0.03133 -0.01067,-0.059 -0.032,-0.083l-0.103,-0.112l-0.249,-0.26c-0.04541,-0.05725 -0.07998,-0.12232 -0.102,-0.192l-0.056,-0.226c-0.03237,-0.14434 -0.07006,-0.28744 -0.113,-0.429l-0.118,-0.417c-0.03232,-0.1211 -0.07969,-0.23768 -0.141,-0.347l-0.103,-0.174l-0.135,-0.237l-0.113,-0.226l-0.124,-0.237c-0.07954,-0.15816 -0.06127,-0.34793 0.047,-0.488c0.08263,-0.10962 0.21077,-0.17554 0.348,-0.179c0.158,0 0.316,0.09 0.395,0.238l0.136,0.26l0.102,0.214l0.124,0.203c0.034,0.056 0.068,0.11067 0.102,0.164c0.068,0.10867 0.14933,0.20667 0.244,0.294l0.354,0.322c0.102,0.113 0.204,0.237 0.305,0.361l0.147,0.17l0.03,0.038c0.01803,0.02717 0.03471,0.0552 0.05,0.084l0.146,0.273l0.147,0.283l0.124,0.203l0.237,0.407l0.02,0.038c0.02,0.041 0.031,0.085 0.043,0.13l0.046,0.176c0.06284,0.24261 0.17071,0.47124 0.318,0.674l0.054,0.075c0.056,0.077 0.129,0.147 0.152,0.24c0.057,0.17 0.102,0.327 0.147,0.485c0.02214,0.06715 0.05827,0.12884 0.106,0.181c0.11867,0.132 0.234,0.264 0.346,0.396c0.01444,0.01561 0.02718,0.0327 0.038,0.051c0.03,0.047 0.051,0.099 0.072,0.15l0.06,0.149c0.03867,0.10067 0.07567,0.19433 0.111,0.281l0.046,0.114l0.294,0.622l0.007,0.013c0.026,0.048 0.033,0.104 0.045,0.157l0.033,0.146l0.05,0.226l0.046,0.192c0.028,0.08867 0.058,0.179 0.09,0.271l0.077,0.227c0.01667,0.052 0.04,0.10067 0.07,0.146c0.102,0.158 0.203,0.327 0.305,0.497c0.04007,0.07637 0.05971,0.1618 0.057,0.248v0.158l-0.003,0.032c-0.02,0.253 0.045,0.503 0.168,0.725l0.076,0.136l0.034,0.068c0.018,0.035 0.025,0.075 0.036,0.112c0.01533,0.05067 0.03,0.10167 0.044,0.153c0.02,0.07067 0.041,0.14067 0.063,0.21c0.04588,0.14564 0.10828,0.28556 0.186,0.417c0.042,0.08 0.08533,0.159 0.13,0.237l0.068,0.113l0.01,0.018c0.05,0.086 0.054,0.19 0.068,0.288c0.027,0.178 0.053,0.36 0.08,0.564v0.203c0.006,0.07667 0.00933,0.155 0.01,0.235c0.002,0.122 0.01367,0.24333 0.035,0.364c0.034,0.147 0.068,0.294 0.09,0.418l0.147,0.622l0.226,0.711l0.124,0.621c0.01733,0.07333 0.03633,0.14667 0.057,0.22c0.02067,0.074 0.03933,0.14767 0.056,0.221zM6.864,16.265c0.00249,-0.00144 0.00555,-0.00143 0.00803,0.00002c0.00248,0.00145 0.00399,0.00411 0.00397,0.00698v0.039c0.02876,0.12835 0.05245,0.25778 0.071,0.388l0.03,0.192c0.012,0.068 0,0.147 -0.022,0.215c-0.09254,0.26302 -0.14218,0.53922 -0.147,0.818v0.063c0.00126,0.06675 -0.01421,0.13276 -0.045,0.192c-0.02267,0.05133 -0.04733,0.10233 -0.074,0.153c-0.05044,0.08747 -0.06064,0.19246 -0.028,0.288c0.022,0.068 0.022,0.124 0.022,0.192c-0.044,0.418 -0.1,0.711 -0.18,0.881l-0.034,0.102l-0.045,0.113l-0.079,0.214c-0.06616,0.17908 -0.23811,0.29692 -0.429,0.294h-0.046c-0.205,-0.02491 -0.36972,-0.18071 -0.406,-0.384l-0.045,-0.26l-0.023,-0.113c-0.015,-0.082 -0.033,-0.165 -0.033,-0.248l-0.01,-0.153c-0.00267,-0.07667 -0.00767,-0.154 -0.015,-0.232c-0.00667,-0.052 -0.01,-0.10467 -0.01,-0.158l0.023,-0.237v-0.186c0.00151,-0.10161 0.00819,-0.20307 0.02,-0.304l0.006,-0.048c0.018,-0.144 0.013,-0.292 -0.018,-0.434l-0.003,-0.011v-0.003c-0.03333,-0.14867 -0.05,-0.29867 -0.05,-0.45v-0.14c0.00004,-0.13879 -0.01438,-0.2772 -0.043,-0.413l-0.003,-0.01l-0.056,-0.238l-0.023,-0.067l-0.025,-0.084c-0.03133,-0.10667 -0.066,-0.21333 -0.104,-0.32c-0.011,-0.032 -0.036,-0.072 -0.04,-0.107l-0.004,-0.03l-0.03,-0.171c-0.01067,-0.052 -0.02,-0.10467 -0.028,-0.158c-0.00867,-0.05467 -0.018,-0.10733 -0.028,-0.158c-0.02256,-0.06989 -0.02256,-0.14511 0,-0.215l0.004,-0.016c0.07898,-0.26503 0.10213,-0.54356 0.068,-0.818l-0.005,-0.036c0,-0.098 -0.011,-0.206 -0.031,-0.315c-0.002,-0.00867 -0.003,-0.017 -0.003,-0.025c0,-0.02933 -0.00867,-0.05567 -0.026,-0.079l-0.065,-0.088c-0.07067,-0.10067 -0.14567,-0.199 -0.225,-0.295c-0.05799,-0.0785 -0.08951,-0.17341 -0.09,-0.271c0,-0.275 -0.061,-0.547 -0.177,-0.797l-0.286,-0.615c-0.06716,-0.15702 -0.04584,-0.3379 0.056,-0.475c0.13466,-0.13578 0.18007,-0.33647 0.117,-0.517c-0.0108,-0.03126 -0.02315,-0.06196 -0.037,-0.092l-0.216,-0.43c-0.04066,-0.06369 -0.06025,-0.13856 -0.056,-0.214c0,-0.242 -0.083,-0.475 -0.236,-0.662l-0.069,-0.084c-0.10058,-0.11859 -0.13444,-0.27998 -0.09,-0.429l0.05,-0.164c0.033,-0.103 0.015,-0.216 -0.05,-0.303c-0.04467,-0.06 -0.09,-0.119 -0.136,-0.177c-0.07874,-0.09839 -0.11151,-0.22583 -0.09,-0.35l0.022,-0.147l0.013,-0.054c0.019,-0.08 -0.011,-0.16 -0.069,-0.22l-0.215,-0.224c-0.04417,-0.05364 -0.07868,-0.11455 -0.102,-0.18l-0.158,-0.52c-0.011,-0.068 -0.011,-0.135 -0.011,-0.203c0.00533,-0.05267 0.01233,-0.107 0.021,-0.163c0.018,-0.128 -0.016,-0.257 -0.097,-0.357l-0.055,-0.066l-0.084,-0.103c-0.056,-0.068 -0.101,-0.159 -0.101,-0.249c-0.012,-0.18 -0.023,-0.362 -0.045,-0.542l-0.023,-0.181l-0.017,-0.147c-0.01133,-0.09667 -0.03567,-0.19067 -0.073,-0.282c-0.046,-0.113 -0.091,-0.226 -0.159,-0.373l-0.146,-0.417c-0.05244,-0.13531 -0.03479,-0.28778 0.04718,-0.40753c0.08197,-0.11975 0.21771,-0.19139 0.36282,-0.19147h0.007c0.19099,-0.0035 0.36339,0.11397 0.43,0.293l0.147,0.396c0.05893,0.11555 0.11561,0.23224 0.17,0.35c0.02844,0.06784 0.06912,0.12987 0.12,0.183l0.049,0.048c0.04267,0.042 0.084,0.08533 0.124,0.13l0.146,0.169c0.09965,0.13115 0.19634,0.26451 0.29,0.4l0.046,0.065l0.028,0.045c0.012,0.02 0.02267,0.04233 0.032,0.067l0.089,0.242l0.103,0.277l0.079,0.17l0.169,0.373c0.01484,0.03378 0.02494,0.06945 0.03,0.106l0.007,0.059l0.008,0.085c0.02259,0.23692 0.09775,0.46581 0.22,0.67l0.04,0.068c0.01525,0.02667 0.02927,0.05404 0.042,0.082c0.036,0.081 0.046,0.171 0.062,0.259l0.042,0.242l0.002,0.02c-0.00038,0.03026 0.0107,0.05955 0.031,0.082c0.09922,0.11634 0.19395,0.23643 0.284,0.36c0.03814,0.04603 0.06547,0.10002 0.08,0.158l0.034,0.136c0.03495,0.10766 0.06531,0.21676 0.091,0.327l0.01,0.046l0.192,0.531c0.01451,0.05938 0.02355,0.11997 0.027,0.181l0.02,0.3c0.00667,0.1 0.021,0.2 0.043,0.3l0.035,0.167c0.01481,0.08248 0.04248,0.16211 0.082,0.236l0.036,0.065c0.05733,0.10467 0.112,0.208 0.164,0.31c0.04776,0.09801 0.0635,0.20855 0.045,0.316l-0.034,0.147c-0.02979,0.16086 -0.00955,0.327 0.058,0.476l0.048,0.097c0.01937,0.03985 0.03608,0.08094 0.05,0.123l0.002,0.005c0.00802,0.02935 0.01469,0.05904 0.02,0.089l0.034,0.176c0.03303,0.16793 0.08747,0.33093 0.162,0.485l0.078,0.164l0.046,0.102c0.03079,0.05924 0.04626,0.12525 0.045,0.192v0.456c0.00004,0.09469 -0.00664,0.18926 -0.02,0.283l-0.003,0.018l-0.017,0.158c-0.01133,0.106 -0.012,0.21133 -0.002,0.316l0.03,0.305l0.068,0.486c0.01667,0.06267 0.03167,0.12667 0.045,0.192c0.01375,0.06437 0.02909,0.12839 0.046,0.192l0.056,0.237c0.02115,0.14595 0.03583,0.29276 0.044,0.44c-0.00003,0.00287 0.00149,0.00554 0.00397,0.00698c0.00248,0.00145 0.00554,0.00145 0.00803,0.00002M17.2,18.845c0.00133,0.01533 0.00533,0.03 0.012,0.044c0.01992,0.03856 0.03343,0.0801 0.04,0.123c0.004,0.026 0.037,0.04 0.056,0.02l0.016,-0.015c0.00307,-0.00268 0.00715,-0.00389 0.01119,-0.00331c0.00403,0.00058 0.00762,0.00288 0.00981,0.00631c0.008,0.01067 0.01267,0.022 0.014,0.034l0.003,0.012c0.056,0.135 0.12,0.29 0.076,0.48l-0.002,0.009c-0.03401,0.15238 -0.05608,0.30718 -0.066,0.463l-0.01,0.116v0.146c-0.01,0.19087 -0.13698,0.35568 -0.319,0.414c-0.04344,0.01288 -0.08875,0.01829 -0.134,0.016c-0.18497,0.00292 -0.35201,-0.11017 -0.418,-0.283l-0.067,-0.17l-0.03,-0.075c-0.036,-0.091 -0.073,-0.186 -0.117,-0.274l-0.018,-0.05l-0.01,-0.035l-0.074,-0.277l-0.056,-0.203l-0.009,-0.033c-0.01,-0.038 -0.025,-0.075 -0.025,-0.114c-0.01753,-0.13786 -0.04223,-0.27471 -0.074,-0.41c-0.01768,-0.07304 -0.02708,-0.14785 -0.028,-0.223c-0.00856,-0.10703 -0.02057,-0.21375 -0.036,-0.32c-0.00518,-0.0348 -0.00852,-0.06985 -0.01,-0.105c0.00118,-0.0624 -0.00934,-0.12447 -0.031,-0.183l-0.053,-0.131l-0.04,-0.097l-0.079,-0.192c-0.00978,-0.03356 -0.01779,-0.0676 -0.024,-0.102l-0.06,-0.322c-0.02631,-0.13859 -0.0672,-0.27401 -0.122,-0.404l-0.121,-0.29l-0.283,-0.554l-0.014,-0.034l-0.016,-0.044l-0.196,-0.543c-0.022,-0.056 -0.022,-0.113 -0.022,-0.17c0.011,-0.146 0.011,-0.293 0.011,-0.44c-0.00024,-0.06711 -0.01173,-0.1337 -0.034,-0.197l-0.068,-0.198l-0.079,-0.215c-0.056,-0.147 -0.44,-0.745 -0.553,-0.858c-0.07012,-0.08177 -0.12043,-0.17861 -0.147,-0.283c-0.028,-0.15 -0.064,-0.293 -0.101,-0.44l-0.023,-0.09l-0.057,-0.215l-0.034,-0.125c-0.02261,-0.08095 -0.06525,-0.15489 -0.124,-0.215l-0.293,-0.293c-0.08824,-0.09066 -0.13711,-0.21249 -0.136,-0.339l0.011,-0.274c0.01087,-0.17563 -0.02832,-0.35075 -0.113,-0.505l-0.017,-0.03c-0.04861,-0.08525 -0.10342,-0.1668 -0.164,-0.244l-0.27,-0.348c-0.03979,-0.04951 -0.06721,-0.10779 -0.08,-0.17l-0.034,-0.123l-0.017,-0.086c-0.03638,-0.16591 -0.13025,-0.31361 -0.265,-0.417c-0.068,-0.05333 -0.13567,-0.108 -0.203,-0.164c-0.08061,-0.06729 -0.13799,-0.15826 -0.164,-0.26c-0.01282,-0.05233 -0.01854,-0.10615 -0.017,-0.16v-0.148c0.0025,-0.16348 -0.06786,-0.3196 -0.192,-0.426l-0.147,-0.124c-0.08346,-0.072 -0.13608,-0.17331 -0.147,-0.283l-0.031,-0.203c-0.0238,-0.15107 -0.10834,-0.28583 -0.234,-0.373l-0.198,-0.135c-0.06204,-0.03394 -0.11306,-0.08496 -0.147,-0.147l-0.305,-0.531c-0.02128,-0.03472 -0.03713,-0.07249 -0.047,-0.112l-0.015,-0.07l-0.049,-0.3c-0.01567,-0.09712 -0.06658,-0.18505 -0.143,-0.247c-0.04,-0.03 -0.07967,-0.062 -0.119,-0.096l-0.135,-0.113c-0.06142,-0.05538 -0.10815,-0.12513 -0.136,-0.203c-0.0681,-0.19716 -0.13944,-0.39319 -0.214,-0.588c-0.02674,-0.05701 -0.06105,-0.11016 -0.102,-0.158c-0.09108,-0.10972 -0.16709,-0.23113 -0.226,-0.361l-0.226,-0.509c-0.05408,-0.09554 -0.11076,-0.18957 -0.17,-0.282l-0.079,-0.124c-0.12881,-0.21273 -0.06341,-0.48944 0.147,-0.622c0.21007,-0.128 0.48366,-0.06809 0.621,0.136l0.068,0.113c0.02933,0.05 0.05933,0.099 0.09,0.147c0.062,0.09667 0.13067,0.18867 0.206,0.276l0.124,0.14c0.074,0.084 0.155,0.16133 0.243,0.232l0.332,0.267l0.462,0.429c0.05,0.049 0.087,0.108 0.125,0.167l0.045,0.07l0.092,0.14c0.05,0.075 0.099,0.147 0.134,0.21l0.348,0.475c0.017,0.023 0.036,0.055 0.051,0.079l0.02,0.033l0.27,0.51c0.055,0.1 0.142,0.246 0.217,0.351c0.054,0.078 0.118,0.149 0.16,0.234l0.007,0.013l0.174,0.434c0.02,0.05 0.04867,0.09333 0.086,0.13c0.124,0.103 0.249,0.204 0.362,0.306c0.02133,0.01734 0.04017,0.03753 0.056,0.06c0.03081,0.04245 0.05822,0.08725 0.082,0.134l0.246,0.472l0.302,0.501c0.017,0.028 0.039,0.052 0.055,0.08c0.018,0.031 0.02,0.07 0.031,0.105l0.047,0.153c0.03067,0.09 0.05867,0.18333 0.084,0.28c0.02333,0.07467 0.051,0.148 0.083,0.22l0.064,0.141l0.046,0.103c0.04467,0.09733 0.101,0.18733 0.169,0.27c0.101,0.113 0.192,0.226 0.282,0.35c0.057,0.08 0.09,0.17 0.09,0.26l0.009,0.19c0.01,0.222 0.084,0.437 0.216,0.617l0.073,0.101c0.01933,0.02733 0.037,0.056 0.053,0.086c0.00919,0.01402 0.01658,0.02914 0.022,0.045c0.028,0.06267 0.05467,0.12667 0.08,0.192c0.02467,0.06533 0.051,0.12933 0.079,0.192c0.038,0.10533 0.08967,0.20333 0.155,0.294l0.121,0.17l0.096,0.135l0.046,0.057c0.0335,0.0472 0.05636,0.10111 0.067,0.158c0.04,0.18 0.08,0.36 0.136,0.572c0.01461,0.05551 0.02233,0.1126 0.023,0.17c0,0.03267 0.00233,0.065 0.007,0.097c0.012,0.08 0.023,0.16 0.033,0.24c0.012,0.10867 0.03233,0.216 0.061,0.322c0.02667,0.09933 0.05433,0.19467 0.083,0.286l0.03,0.098c0.065,0.184 0.037,0.368 0.014,0.512v0.007c-0.00723,0.04369 0.00521,0.08835 0.034,0.122l0.325,0.387c0.03895,0.05146 0.06934,0.10886 0.09,0.17l0.17,0.575l0.21,0.596l0.007,0.029l0.01,0.065c0.009,0.074 -0.001,0.15 -0.001,0.225l-0.023,0.279c-0.00652,0.0923 0.00124,0.18506 0.023,0.275c0.02867,0.11 0.054,0.22 0.076,0.33c0.00933,0.05 0.014,0.10133 0.014,0.154c-0.00043,0.06109 -0.00645,0.12201 -0.018,0.182l-0.016,0.08l-0.016,0.127c-0.01463,0.10169 -0.00954,0.20524 0.015,0.305c0.00667,0.024 0.01033,0.046 0.011,0.066c0.0013,0.01357 0.00398,0.02697 0.008,0.04c0.00667,0.01667 0.01133,0.03267 0.014,0.048" fill="#62757e" fill-rule="nonzero"></path></g>
  </g>
  <g id="Regular-M" transform="matrix(5 0 0 5 1389.82 1030)">
    <defs><clipPath id="clip-1"><rect x="0" y="0" width="24" height="24" fill="none" fill-rule="nonzero"></rect></clipPath></defs>
<g clip-path="url(#clip-1)" fill="none" fill-rule="none" stroke="none" stroke-width="1" stroke-linecap="butt" stroke-linejoin="miter" stroke-miterlimit="10" stroke-dasharray="" stroke-dashoffset="0" font-family="none" font-weight="none" font-size="none" text-anchor="none" style="mix-blend-mode: normal"><path d="M21.787,15.242v0.063c0,0.014 0.018,0.019 0.025,0.007c0.006,-0.011 0.024,-0.008 0.025,0.005c0.00467,0.03933 0.01033,0.07867 0.017,0.118c0.00933,0.06133 0.01733,0.125 0.024,0.191c0.01231,0.12601 -0.02867,0.25143 -0.11303,0.34585c-0.08435,0.09442 -0.20437,0.14923 -0.33097,0.15115h-0.008c-0.1565,0.0003 -0.30192,-0.08074 -0.384,-0.214c-0.06735,-0.1121 -0.13907,-0.22152 -0.215,-0.328l-0.063,-0.09c-0.01,-0.016 -0.02067,-0.03133 -0.032,-0.046c-0.017,-0.019 -0.024,-0.045 -0.035,-0.068l-0.254,-0.508l-0.215,-0.564l-0.055,-0.194c-0.0541,-0.18603 -0.13495,-0.36322 -0.24,-0.526l-0.067,-0.105c-0.03,-0.045 -0.069,-0.1 -0.087,-0.151l-0.01,-0.026l-0.117,-0.298l-0.022,-0.067c-0.03104,-0.07455 -0.071,-0.14506 -0.119,-0.21l-0.085,-0.13l-0.09,-0.135l-0.098,-0.119c-0.058,-0.07 -0.12,-0.144 -0.184,-0.231l-0.02,-0.023c-0.032,-0.037 -0.072,-0.07 -0.093,-0.113c-0.04533,-0.07867 -0.09067,-0.15567 -0.136,-0.231l-0.135,-0.232l-0.024,-0.048c-0.034,-0.077 -0.04,-0.163 -0.056,-0.245l-0.026,-0.183c-0.01902,-0.13344 -0.06241,-0.26225 -0.128,-0.38l-0.14,-0.25l-0.003,-0.009c-0.12148,-0.24636 -0.31276,-0.45155 -0.55,-0.59l-0.045,-0.034c-0.08719,-0.05207 -0.1547,-0.13154 -0.192,-0.226c-0.068,-0.17 -0.136,-0.328 -0.215,-0.509l-0.056,-0.124c-0.012,-0.028 -0.02533,-0.057 -0.04,-0.087c-0.0489,-0.11171 -0.1287,-0.20712 -0.23,-0.275l-0.227,-0.146c-0.11444,-0.07791 -0.18871,-0.2023 -0.203,-0.34l-0.026,-0.282c-0.01047,-0.14766 -0.0644,-0.28893 -0.155,-0.406l-0.008,-0.01c-0.06267,-0.07592 -0.13085,-0.14712 -0.204,-0.213l-0.082,-0.07l-0.192,-0.17c-0.05691,-0.04347 -0.09999,-0.10253 -0.124,-0.17l-0.068,-0.18l-0.028,-0.065c-0.03483,-0.08138 -0.09568,-0.14891 -0.173,-0.192l-0.262,-0.14c-0.12622,-0.06544 -0.21409,-0.18668 -0.237,-0.327l-0.037,-0.234c-0.01901,-0.12388 -0.09236,-0.2328 -0.2,-0.297l-0.148,-0.079c-0.10466,-0.0633 -0.1812,-0.16417 -0.214,-0.282l-0.023,-0.085c-0.04749,-0.18329 -0.17871,-0.33342 -0.354,-0.405l-0.076,-0.03c-0.078,-0.02078 -0.14605,-0.06864 -0.192,-0.135l-0.113,-0.147c-0.068,-0.09 -0.136,-0.18 -0.215,-0.271c-0.0329,-0.04912 -0.05944,-0.10221 -0.079,-0.158l-0.013,-0.045c-0.07167,-0.23924 -0.23286,-0.44162 -0.45,-0.565c-0.07816,-0.03906 -0.14138,-0.10263 -0.18,-0.181l-0.272,-0.52c-0.041,-0.091 -0.09,-0.177 -0.138,-0.265l-0.054,-0.096c-0.03693,-0.07377 -0.08867,-0.13913 -0.152,-0.192c-0.03733,-0.034 -0.07333,-0.068 -0.108,-0.102l-0.18,-0.18c-0.02933,-0.03467 -0.05933,-0.06867 -0.09,-0.102l-0.091,-0.102l-0.113,-0.124c-0.11906,-0.13225 -0.14833,-0.32253 -0.07453,-0.48445c0.0738,-0.16192 0.23661,-0.26465 0.41453,-0.26155c0.1239,0.00493 0.24108,0.0576 0.327,0.147l0.102,0.102l0.104,0.117c0.05933,0.06467 0.122,0.12533 0.188,0.182l0.047,0.04c0.063,0.052 0.135,0.113 0.199,0.185c0.01,0.01133 0.02333,0.01733 0.04,0.018c0.00667,0 0.013,0.00133 0.019,0.004l0.397,0.165l0.016,0.009l0.082,0.05l0.072,0.043l0.18,0.113c0.05933,0.036 0.11967,0.07367 0.181,0.113c0.017,0.011 0.04,0.032 0.06,0.049l0.06,0.062l0.343,0.375l0.334,0.324c0.049,0.047 0.101,0.092 0.137,0.15c0.01,0.01467 0.019,0.03067 0.027,0.048c0.03467,0.07267 0.07167,0.14733 0.111,0.224l0.07,0.135c0.03,0.052 0.06867,0.09667 0.116,0.134l0.058,0.046c0.042,0.034 0.08533,0.068 0.13,0.102c0.08727,0.05797 0.16376,0.13073 0.226,0.215l0.217,0.371c0.01395,0.02274 0.03231,0.04246 0.054,0.058c0.062,0.034 0.12433,0.06967 0.187,0.107c0.062,0.03733 0.124,0.07333 0.186,0.108c0.02496,0.01573 0.0481,0.03418 0.069,0.055c0.04561,0.04495 0.0868,0.09417 0.123,0.147l0.26,0.363l0.373,0.429c0.05,0.05 0.072,0.122 0.103,0.187c0.04067,0.086 0.08167,0.17433 0.123,0.265l0.002,0.005c0.05377,0.1191 0.11908,0.23264 0.195,0.339l0.064,0.098c0.04502,0.06571 0.09772,0.1258 0.157,0.179c0.101,0.079 0.203,0.17 0.305,0.26c0.07619,0.06805 0.12755,0.15953 0.146,0.26l0.031,0.162c0.03873,0.20257 0.14101,0.38752 0.292,0.528l0.043,0.04c0.03986,0.03953 0.07632,0.08235 0.109,0.128l0.067,0.104c0.05667,0.084 0.10967,0.17 0.159,0.258c0.03067,0.05267 0.068,0.09933 0.112,0.14l0.13,0.125l0.198,0.187c0.046,0.045 0.08,0.101 0.102,0.158l0.068,0.17c0.02,0.05467 0.04233,0.11133 0.067,0.17c0.02933,0.07133 0.05933,0.15 0.09,0.236l0.096,0.338c0.03467,0.12067 0.08,0.23733 0.136,0.35l0.142,0.283l0.203,0.373c0.03,0.068 0.06567,0.13267 0.107,0.194l0.05,0.072c0.077,0.114 0.158,0.233 0.25,0.378l0.056,0.113c0.08,0.135 0.147,0.271 0.192,0.373l0.102,0.17c0.034,0.05667 0.068,0.11467 0.102,0.174c0.03333,0.06 0.067,0.11833 0.101,0.175c0.02235,0.04116 0.0398,0.08479 0.052,0.13c0.01067,0.034 0.016,0.06867 0.016,0.104v0.071l0.013,0.122c0.02,0.173 0.057,0.345 0.127,0.504l0.097,0.222c0.0261,0.05667 0.04136,0.11772 0.045,0.18v0.146c0.00092,0.16871 0.0587,0.33218 0.164,0.464c0.05333,0.068 0.108,0.136 0.164,0.204c0.057,0.079 0.09,0.18 0.09,0.282v0.113c-0.01122,0.13911 -0.01122,0.27889 0,0.418M12.735,19.192c0.00267,0.01 0.004,0.02 0.004,0.03v0.11c0,0.029 -0.027,0.05 -0.055,0.044c-0.01211,-0.00263 -0.02476,-0.00015 -0.03498,0.00685c-0.01022,0.007 -0.0171,0.01791 -0.01902,0.03015c-0.01706,0.12569 -0.04008,0.2505 -0.069,0.374c-0.01602,0.05798 -0.01875,0.11882 -0.008,0.178l0.022,0.152l0.028,0.186l0.034,0.215c0.01218,0.05601 0.01218,0.11399 0,0.17c-0.022,0.07867 -0.04267,0.15933 -0.062,0.242c-0.038,0.16 -0.037,0.326 -0.008,0.488c0.069,0.384 0.102,0.9 0.048,1.156l-0.068,0.542c-0.03434,0.20895 -0.20689,0.36747 -0.418,0.384h-0.034c-0.20297,-0.00029 -0.38176,-0.13357 -0.44,-0.328l-0.08,-0.282l-0.07,-0.227c-0.013,-0.044 -0.031,-0.088 -0.031,-0.134c-0.023,-0.17 -0.057,-0.34 -0.09,-0.509l-0.013,-0.069c-0.00543,-0.03712 -0.00877,-0.07451 -0.01,-0.112l-0.057,-0.677v-0.401c0,-0.11733 -0.015,-0.23233 -0.045,-0.345c-0.0221,-0.06722 -0.04277,-0.1349 -0.062,-0.203l-0.041,-0.138c-0.014,-0.044 -0.04,-0.1 -0.043,-0.145l-0.003,-0.037l-0.02,-0.2l-0.017,-0.184c-0.01295,-0.12539 -0.03773,-0.24927 -0.074,-0.37c-0.03422,-0.12502 -0.0719,-0.24907 -0.113,-0.372l-0.26,-0.678l-0.158,-0.633l-0.007,-0.06c-0.005,-0.065 0,-0.13 0.005,-0.195l0.015,-0.15c0.02129,-0.21756 0.00676,-0.43714 -0.043,-0.65l-0.004,-0.018l-0.056,-0.248c-0.02103,-0.13671 -0.04772,-0.2725 -0.08,-0.407c-0.0156,-0.0739 -0.04774,-0.1433 -0.094,-0.203l-0.131,-0.159l-0.203,-0.248c-0.07905,-0.09901 -0.11923,-0.22346 -0.113,-0.35l-0.008,-0.054c-0.01876,-0.1561 -0.04277,-0.31152 -0.072,-0.466l-0.033,-0.226l-0.023,-0.152c-0.01443,-0.10023 -0.05399,-0.19518 -0.115,-0.276l-0.28,-0.374c-0.07926,-0.09382 -0.11229,-0.21822 -0.09,-0.339c0.02333,-0.134 0.04333,-0.272 0.06,-0.414c0.0128,-0.0986 -0.00137,-0.19882 -0.041,-0.29c-0.03198,-0.06886 -0.06133,-0.13891 -0.088,-0.21l-0.056,-0.125c-0.09734,-0.17347 -0.19836,-0.34484 -0.303,-0.514c-0.01559,-0.02665 -0.02994,-0.05402 -0.043,-0.082c-0.036,-0.081 -0.045,-0.171 -0.06,-0.259l-0.012,-0.072l-0.023,-0.158c-0.01572,-0.10294 -0.06087,-0.19913 -0.13,-0.277l-0.299,-0.333c-0.07814,-0.09522 -0.11838,-0.21594 -0.113,-0.339l0.02,-0.251c0.01236,-0.17263 -0.04572,-0.34291 -0.161,-0.472c-0.06,-0.06667 -0.11833,-0.13433 -0.175,-0.203c-0.06197,-0.07816 -0.10109,-0.17196 -0.113,-0.271v-0.158l-0.005,-0.053c-0.01341,-0.18409 -0.09423,-0.35677 -0.227,-0.485c-0.07101,-0.06423 -0.14069,-0.12991 -0.209,-0.197c-0.02043,-0.02197 -0.03883,-0.04573 -0.055,-0.071c-0.03198,-0.05012 -0.05942,-0.103 -0.082,-0.158l-0.167,-0.375c-0.046,-0.102 -0.114,-0.2 -0.114,-0.311c-0.00967,-0.1578 -0.02467,-0.31522 -0.045,-0.472c0,-0.03133 -0.01067,-0.059 -0.032,-0.083l-0.103,-0.112l-0.249,-0.26c-0.04541,-0.05725 -0.07998,-0.12232 -0.102,-0.192l-0.056,-0.226c-0.03237,-0.14434 -0.07006,-0.28744 -0.113,-0.429l-0.118,-0.417c-0.03232,-0.1211 -0.07969,-0.23768 -0.141,-0.347l-0.103,-0.174l-0.135,-0.237l-0.113,-0.226l-0.124,-0.237c-0.07954,-0.15816 -0.06127,-0.34793 0.047,-0.488c0.08263,-0.10962 0.21077,-0.17554 0.348,-0.179c0.158,0 0.316,0.09 0.395,0.238l0.136,0.26l0.102,0.214l0.124,0.203c0.034,0.056 0.068,0.11067 0.102,0.164c0.068,0.10867 0.14933,0.20667 0.244,0.294l0.354,0.322c0.102,0.113 0.204,0.237 0.305,0.361l0.147,0.17l0.03,0.038c0.01803,0.02717 0.03471,0.0552 0.05,0.084l0.146,0.273l0.147,0.283l0.124,0.203l0.237,0.407l0.02,0.038c0.02,0.041 0.031,0.085 0.043,0.13l0.046,0.176c0.06284,0.24261 0.17071,0.47124 0.318,0.674l0.054,0.075c0.056,0.077 0.129,0.147 0.152,0.24c0.057,0.17 0.102,0.327 0.147,0.485c0.02214,0.06715 0.05827,0.12884 0.106,0.181c0.11867,0.132 0.234,0.264 0.346,0.396c0.01444,0.01561 0.02718,0.0327 0.038,0.051c0.03,0.047 0.051,0.099 0.072,0.15l0.06,0.149c0.03867,0.10067 0.07567,0.19433 0.111,0.281l0.046,0.114l0.294,0.622l0.007,0.013c0.026,0.048 0.033,0.104 0.045,0.157l0.033,0.146l0.05,0.226l0.046,0.192c0.028,0.08867 0.058,0.179 0.09,0.271l0.077,0.227c0.01667,0.052 0.04,0.10067 0.07,0.146c0.102,0.158 0.203,0.327 0.305,0.497c0.04007,0.07637 0.05971,0.1618 0.057,0.248v0.158l-0.003,0.032c-0.02,0.253 0.045,0.503 0.168,0.725l0.076,0.136l0.034,0.068c0.018,0.035 0.025,0.075 0.036,0.112c0.01533,0.05067 0.03,0.10167 0.044,0.153c0.02,0.07067 0.041,0.14067 0.063,0.21c0.04588,0.14564 0.10828,0.28556 0.186,0.417c0.042,0.08 0.08533,0.159 0.13,0.237l0.068,0.113l0.01,0.018c0.05,0.086 0.054,0.19 0.068,0.288c0.027,0.178 0.053,0.36 0.08,0.564v0.203c0.006,0.07667 0.00933,0.155 0.01,0.235c0.002,0.122 0.01367,0.24333 0.035,0.364c0.034,0.147 0.068,0.294 0.09,0.418l0.147,0.622l0.226,0.711l0.124,0.621c0.01733,0.07333 0.03633,0.14667 0.057,0.22c0.02067,0.074 0.03933,0.14767 0.056,0.221zM6.864,16.265c0.00249,-0.00144 0.00555,-0.00143 0.00803,0.00002c0.00248,0.00145 0.00399,0.00411 0.00397,0.00698v0.039c0.02876,0.12835 0.05245,0.25778 0.071,0.388l0.03,0.192c0.012,0.068 0,0.147 -0.022,0.215c-0.09254,0.26302 -0.14218,0.53922 -0.147,0.818v0.063c0.00126,0.06675 -0.01421,0.13276 -0.045,0.192c-0.02267,0.05133 -0.04733,0.10233 -0.074,0.153c-0.05044,0.08747 -0.06064,0.19246 -0.028,0.288c0.022,0.068 0.022,0.124 0.022,0.192c-0.044,0.418 -0.1,0.711 -0.18,0.881l-0.034,0.102l-0.045,0.113l-0.079,0.214c-0.06616,0.17908 -0.23811,0.29692 -0.429,0.294h-0.046c-0.205,-0.02491 -0.36972,-0.18071 -0.406,-0.384l-0.045,-0.26l-0.023,-0.113c-0.015,-0.082 -0.033,-0.165 -0.033,-0.248l-0.01,-0.153c-0.00267,-0.07667 -0.00767,-0.154 -0.015,-0.232c-0.00667,-0.052 -0.01,-0.10467 -0.01,-0.158l0.023,-0.237v-0.186c0.00151,-0.10161 0.00819,-0.20307 0.02,-0.304l0.006,-0.048c0.018,-0.144 0.013,-0.292 -0.018,-0.434l-0.003,-0.011v-0.003c-0.03333,-0.14867 -0.05,-0.29867 -0.05,-0.45v-0.14c0.00004,-0.13879 -0.01438,-0.2772 -0.043,-0.413l-0.003,-0.01l-0.056,-0.238l-0.023,-0.067l-0.025,-0.084c-0.03133,-0.10667 -0.066,-0.21333 -0.104,-0.32c-0.011,-0.032 -0.036,-0.072 -0.04,-0.107l-0.004,-0.03l-0.03,-0.171c-0.01067,-0.052 -0.02,-0.10467 -0.028,-0.158c-0.00867,-0.05467 -0.018,-0.10733 -0.028,-0.158c-0.02256,-0.06989 -0.02256,-0.14511 0,-0.215l0.004,-0.016c0.07898,-0.26503 0.10213,-0.54356 0.068,-0.818l-0.005,-0.036c0,-0.098 -0.011,-0.206 -0.031,-0.315c-0.002,-0.00867 -0.003,-0.017 -0.003,-0.025c0,-0.02933 -0.00867,-0.05567 -0.026,-0.079l-0.065,-0.088c-0.07067,-0.10067 -0.14567,-0.199 -0.225,-0.295c-0.05799,-0.0785 -0.08951,-0.17341 -0.09,-0.271c0,-0.275 -0.061,-0.547 -0.177,-0.797l-0.286,-0.615c-0.06716,-0.15702 -0.04584,-0.3379 0.056,-0.475c0.13466,-0.13578 0.18007,-0.33647 0.117,-0.517c-0.0108,-0.03126 -0.02315,-0.06196 -0.037,-0.092l-0.216,-0.43c-0.04066,-0.06369 -0.06025,-0.13856 -0.056,-0.214c0,-0.242 -0.083,-0.475 -0.236,-0.662l-0.069,-0.084c-0.10058,-0.11859 -0.13444,-0.27998 -0.09,-0.429l0.05,-0.164c0.033,-0.103 0.015,-0.216 -0.05,-0.303c-0.04467,-0.06 -0.09,-0.119 -0.136,-0.177c-0.07874,-0.09839 -0.11151,-0.22583 -0.09,-0.35l0.022,-0.147l0.013,-0.054c0.019,-0.08 -0.011,-0.16 -0.069,-0.22l-0.215,-0.224c-0.04417,-0.05364 -0.07868,-0.11455 -0.102,-0.18l-0.158,-0.52c-0.011,-0.068 -0.011,-0.135 -0.011,-0.203c0.00533,-0.05267 0.01233,-0.107 0.021,-0.163c0.018,-0.128 -0.016,-0.257 -0.097,-0.357l-0.055,-0.066l-0.084,-0.103c-0.056,-0.068 -0.101,-0.159 -0.101,-0.249c-0.012,-0.18 -0.023,-0.362 -0.045,-0.542l-0.023,-0.181l-0.017,-0.147c-0.01133,-0.09667 -0.03567,-0.19067 -0.073,-0.282c-0.046,-0.113 -0.091,-0.226 -0.159,-0.373l-0.146,-0.417c-0.05244,-0.13531 -0.03479,-0.28778 0.04718,-0.40753c0.08197,-0.11975 0.21771,-0.19139 0.36282,-0.19147h0.007c0.19099,-0.0035 0.36339,0.11397 0.43,0.293l0.147,0.396c0.05893,0.11555 0.11561,0.23224 0.17,0.35c0.02844,0.06784 0.06912,0.12987 0.12,0.183l0.049,0.048c0.04267,0.042 0.084,0.08533 0.124,0.13l0.146,0.169c0.09965,0.13115 0.19634,0.26451 0.29,0.4l0.046,0.065l0.028,0.045c0.012,0.02 0.02267,0.04233 0.032,0.067l0.089,0.242l0.103,0.277l0.079,0.17l0.169,0.373c0.01484,0.03378 0.02494,0.06945 0.03,0.106l0.007,0.059l0.008,0.085c0.02259,0.23692 0.09775,0.46581 0.22,0.67l0.04,0.068c0.01525,0.02667 0.02927,0.05404 0.042,0.082c0.036,0.081 0.046,0.171 0.062,0.259l0.042,0.242l0.002,0.02c-0.00038,0.03026 0.0107,0.05955 0.031,0.082c0.09922,0.11634 0.19395,0.23643 0.284,0.36c0.03814,0.04603 0.06547,0.10002 0.08,0.158l0.034,0.136c0.03495,0.10766 0.06531,0.21676 0.091,0.327l0.01,0.046l0.192,0.531c0.01451,0.05938 0.02355,0.11997 0.027,0.181l0.02,0.3c0.00667,0.1 0.021,0.2 0.043,0.3l0.035,0.167c0.01481,0.08248 0.04248,0.16211 0.082,0.236l0.036,0.065c0.05733,0.10467 0.112,0.208 0.164,0.31c0.04776,0.09801 0.0635,0.20855 0.045,0.316l-0.034,0.147c-0.02979,0.16086 -0.00955,0.327 0.058,0.476l0.048,0.097c0.01937,0.03985 0.03608,0.08094 0.05,0.123l0.002,0.005c0.00802,0.02935 0.01469,0.05904 0.02,0.089l0.034,0.176c0.03303,0.16793 0.08747,0.33093 0.162,0.485l0.078,0.164l0.046,0.102c0.03079,0.05924 0.04626,0.12525 0.045,0.192v0.456c0.00004,0.09469 -0.00664,0.18926 -0.02,0.283l-0.003,0.018l-0.017,0.158c-0.01133,0.106 -0.012,0.21133 -0.002,0.316l0.03,0.305l0.068,0.486c0.01667,0.06267 0.03167,0.12667 0.045,0.192c0.01375,0.06437 0.02909,0.12839 0.046,0.192l0.056,0.237c0.02115,0.14595 0.03583,0.29276 0.044,0.44c-0.00003,0.00287 0.00149,0.00554 0.00397,0.00698c0.00248,0.00145 0.00554,0.00145 0.00803,0.00002M17.2,18.845c0.00133,0.01533 0.00533,0.03 0.012,0.044c0.01992,0.03856 0.03343,0.0801 0.04,0.123c0.004,0.026 0.037,0.04 0.056,0.02l0.016,-0.015c0.00307,-0.00268 0.00715,-0.00389 0.01119,-0.00331c0.00403,0.00058 0.00762,0.00288 0.00981,0.00631c0.008,0.01067 0.01267,0.022 0.014,0.034l0.003,0.012c0.056,0.135 0.12,0.29 0.076,0.48l-0.002,0.009c-0.03401,0.15238 -0.05608,0.30718 -0.066,0.463l-0.01,0.116v0.146c-0.01,0.19087 -0.13698,0.35568 -0.319,0.414c-0.04344,0.01288 -0.08875,0.01829 -0.134,0.016c-0.18497,0.00292 -0.35201,-0.11017 -0.418,-0.283l-0.067,-0.17l-0.03,-0.075c-0.036,-0.091 -0.073,-0.186 -0.117,-0.274l-0.018,-0.05l-0.01,-0.035l-0.074,-0.277l-0.056,-0.203l-0.009,-0.033c-0.01,-0.038 -0.025,-0.075 -0.025,-0.114c-0.01753,-0.13786 -0.04223,-0.27471 -0.074,-0.41c-0.01768,-0.07304 -0.02708,-0.14785 -0.028,-0.223c-0.00856,-0.10703 -0.02057,-0.21375 -0.036,-0.32c-0.00518,-0.0348 -0.00852,-0.06985 -0.01,-0.105c0.00118,-0.0624 -0.00934,-0.12447 -0.031,-0.183l-0.053,-0.131l-0.04,-0.097l-0.079,-0.192c-0.00978,-0.03356 -0.01779,-0.0676 -0.024,-0.102l-0.06,-0.322c-0.02631,-0.13859 -0.0672,-0.27401 -0.122,-0.404l-0.121,-0.29l-0.283,-0.554l-0.014,-0.034l-0.016,-0.044l-0.196,-0.543c-0.022,-0.056 -0.022,-0.113 -0.022,-0.17c0.011,-0.146 0.011,-0.293 0.011,-0.44c-0.00024,-0.06711 -0.01173,-0.1337 -0.034,-0.197l-0.068,-0.198l-0.079,-0.215c-0.056,-0.147 -0.44,-0.745 -0.553,-0.858c-0.07012,-0.08177 -0.12043,-0.17861 -0.147,-0.283c-0.028,-0.15 -0.064,-0.293 -0.101,-0.44l-0.023,-0.09l-0.057,-0.215l-0.034,-0.125c-0.02261,-0.08095 -0.06525,-0.15489 -0.124,-0.215l-0.293,-0.293c-0.08824,-0.09066 -0.13711,-0.21249 -0.136,-0.339l0.011,-0.274c0.01087,-0.17563 -0.02832,-0.35075 -0.113,-0.505l-0.017,-0.03c-0.04861,-0.08525 -0.10342,-0.1668 -0.164,-0.244l-0.27,-0.348c-0.03979,-0.04951 -0.06721,-0.10779 -0.08,-0.17l-0.034,-0.123l-0.017,-0.086c-0.03638,-0.16591 -0.13025,-0.31361 -0.265,-0.417c-0.068,-0.05333 -0.13567,-0.108 -0.203,-0.164c-0.08061,-0.06729 -0.13799,-0.15826 -0.164,-0.26c-0.01282,-0.05233 -0.01854,-0.10615 -0.017,-0.16v-0.148c0.0025,-0.16348 -0.06786,-0.3196 -0.192,-0.426l-0.147,-0.124c-0.08346,-0.072 -0.13608,-0.17331 -0.147,-0.283l-0.031,-0.203c-0.0238,-0.15107 -0.10834,-0.28583 -0.234,-0.373l-0.198,-0.135c-0.06204,-0.03394 -0.11306,-0.08496 -0.147,-0.147l-0.305,-0.531c-0.02128,-0.03472 -0.03713,-0.07249 -0.047,-0.112l-0.015,-0.07l-0.049,-0.3c-0.01567,-0.09712 -0.06658,-0.18505 -0.143,-0.247c-0.04,-0.03 -0.07967,-0.062 -0.119,-0.096l-0.135,-0.113c-0.06142,-0.05538 -0.10815,-0.12513 -0.136,-0.203c-0.0681,-0.19716 -0.13944,-0.39319 -0.214,-0.588c-0.02674,-0.05701 -0.06105,-0.11016 -0.102,-0.158c-0.09108,-0.10972 -0.16709,-0.23113 -0.226,-0.361l-0.226,-0.509c-0.05408,-0.09554 -0.11076,-0.18957 -0.17,-0.282l-0.079,-0.124c-0.12881,-0.21273 -0.06341,-0.48944 0.147,-0.622c0.21007,-0.128 0.48366,-0.06809 0.621,0.136l0.068,0.113c0.02933,0.05 0.05933,0.099 0.09,0.147c0.062,0.09667 0.13067,0.18867 0.206,0.276l0.124,0.14c0.074,0.084 0.155,0.16133 0.243,0.232l0.332,0.267l0.462,0.429c0.05,0.049 0.087,0.108 0.125,0.167l0.045,0.07l0.092,0.14c0.05,0.075 0.099,0.147 0.134,0.21l0.348,0.475c0.017,0.023 0.036,0.055 0.051,0.079l0.02,0.033l0.27,0.51c0.055,0.1 0.142,0.246 0.217,0.351c0.054,0.078 0.118,0.149 0.16,0.234l0.007,0.013l0.174,0.434c0.02,0.05 0.04867,0.09333 0.086,0.13c0.124,0.103 0.249,0.204 0.362,0.306c0.02133,0.01734 0.04017,0.03753 0.056,0.06c0.03081,0.04245 0.05822,0.08725 0.082,0.134l0.246,0.472l0.302,0.501c0.017,0.028 0.039,0.052 0.055,0.08c0.018,0.031 0.02,0.07 0.031,0.105l0.047,0.153c0.03067,0.09 0.05867,0.18333 0.084,0.28c0.02333,0.07467 0.051,0.148 0.083,0.22l0.064,0.141l0.046,0.103c0.04467,0.09733 0.101,0.18733 0.169,0.27c0.101,0.113 0.192,0.226 0.282,0.35c0.057,0.08 0.09,0.17 0.09,0.26l0.009,0.19c0.01,0.222 0.084,0.437 0.216,0.617l0.073,0.101c0.01933,0.02733 0.037,0.056 0.053,0.086c0.00919,0.01402 0.01658,0.02914 0.022,0.045c0.028,0.06267 0.05467,0.12667 0.08,0.192c0.02467,0.06533 0.051,0.12933 0.079,0.192c0.038,0.10533 0.08967,0.20333 0.155,0.294l0.121,0.17l0.096,0.135l0.046,0.057c0.0335,0.0472 0.05636,0.10111 0.067,0.158c0.04,0.18 0.08,0.36 0.136,0.572c0.01461,0.05551 0.02233,0.1126 0.023,0.17c0,0.03267 0.00233,0.065 0.007,0.097c0.012,0.08 0.023,0.16 0.033,0.24c0.012,0.10867 0.03233,0.216 0.061,0.322c0.02667,0.09933 0.05433,0.19467 0.083,0.286l0.03,0.098c0.065,0.184 0.037,0.368 0.014,0.512v0.007c-0.00723,0.04369 0.00521,0.08835 0.034,0.122l0.325,0.387c0.03895,0.05146 0.06934,0.10886 0.09,0.17l0.17,0.575l0.21,0.596l0.007,0.029l0.01,0.065c0.009,0.074 -0.001,0.15 -0.001,0.225l-0.023,0.279c-0.00652,0.0923 0.00124,0.18506 0.023,0.275c0.02867,0.11 0.054,0.22 0.076,0.33c0.00933,0.05 0.014,0.10133 0.014,0.154c-0.00043,0.06109 -0.00645,0.12201 -0.018,0.182l-0.016,0.08l-0.016,0.127c-0.01463,0.10169 -0.00954,0.20524 0.015,0.305c0.00667,0.024 0.01033,0.046 0.011,0.066c0.0013,0.01357 0.00398,0.02697 0.008,0.04c0.00667,0.01667 0.01133,0.03267 0.014,0.048" fill="#62757e" fill-rule="nonzero"></path></g>
  </g>
  <g id="Regular-S" transform="matrix(3.915 0 0 3.915 1402.75 614)">
    <defs><clipPath id="clip-1"><rect x="0" y="0" width="24" height="24" fill="none" fill-rule="nonzero"></rect></clipPath></defs>
<g clip-path="url(#clip-1)" fill="none" fill-rule="none" stroke="none" stroke-width="1" stroke-linecap="butt" stroke-linejoin="miter" stroke-miterlimit="10" stroke-dasharray="" stroke-dashoffset="0" font-family="none" font-weight="none" font-size="none" text-anchor="none" style="mix-blend-mode: normal"><path d="M21.787,15.242v0.063c0,0.014 0.018,0.019 0.025,0.007c0.006,-0.011 0.024,-0.008 0.025,0.005c0.00467,0.03933 0.01033,0.07867 0.017,0.118c0.00933,0.06133 0.01733,0.125 0.024,0.191c0.01231,0.12601 -0.02867,0.25143 -0.11303,0.34585c-0.08435,0.09442 -0.20437,0.14923 -0.33097,0.15115h-0.008c-0.1565,0.0003 -0.30192,-0.08074 -0.384,-0.214c-0.06735,-0.1121 -0.13907,-0.22152 -0.215,-0.328l-0.063,-0.09c-0.01,-0.016 -0.02067,-0.03133 -0.032,-0.046c-0.017,-0.019 -0.024,-0.045 -0.035,-0.068l-0.254,-0.508l-0.215,-0.564l-0.055,-0.194c-0.0541,-0.18603 -0.13495,-0.36322 -0.24,-0.526l-0.067,-0.105c-0.03,-0.045 -0.069,-0.1 -0.087,-0.151l-0.01,-0.026l-0.117,-0.298l-0.022,-0.067c-0.03104,-0.07455 -0.071,-0.14506 -0.119,-0.21l-0.085,-0.13l-0.09,-0.135l-0.098,-0.119c-0.058,-0.07 -0.12,-0.144 -0.184,-0.231l-0.02,-0.023c-0.032,-0.037 -0.072,-0.07 -0.093,-0.113c-0.04533,-0.07867 -0.09067,-0.15567 -0.136,-0.231l-0.135,-0.232l-0.024,-0.048c-0.034,-0.077 -0.04,-0.163 -0.056,-0.245l-0.026,-0.183c-0.01902,-0.13344 -0.06241,-0.26225 -0.128,-0.38l-0.14,-0.25l-0.003,-0.009c-0.12148,-0.24636 -0.31276,-0.45155 -0.55,-0.59l-0.045,-0.034c-0.08719,-0.05207 -0.1547,-0.13154 -0.192,-0.226c-0.068,-0.17 -0.136,-0.328 -0.215,-0.509l-0.056,-0.124c-0.012,-0.028 -0.02533,-0.057 -0.04,-0.087c-0.0489,-0.11171 -0.1287,-0.20712 -0.23,-0.275l-0.227,-0.146c-0.11444,-0.07791 -0.18871,-0.2023 -0.203,-0.34l-0.026,-0.282c-0.01047,-0.14766 -0.0644,-0.28893 -0.155,-0.406l-0.008,-0.01c-0.06267,-0.07592 -0.13085,-0.14712 -0.204,-0.213l-0.082,-0.07l-0.192,-0.17c-0.05691,-0.04347 -0.09999,-0.10253 -0.124,-0.17l-0.068,-0.18l-0.028,-0.065c-0.03483,-0.08138 -0.09568,-0.14891 -0.173,-0.192l-0.262,-0.14c-0.12622,-0.06544 -0.21409,-0.18668 -0.237,-0.327l-0.037,-0.234c-0.01901,-0.12388 -0.09236,-0.2328 -0.2,-0.297l-0.148,-0.079c-0.10466,-0.0633 -0.1812,-0.16417 -0.214,-0.282l-0.023,-0.085c-0.04749,-0.18329 -0.17871,-0.33342 -0.354,-0.405l-0.076,-0.03c-0.078,-0.02078 -0.14605,-0.06864 -0.192,-0.135l-0.113,-0.147c-0.068,-0.09 -0.136,-0.18 -0.215,-0.271c-0.0329,-0.04912 -0.05944,-0.10221 -0.079,-0.158l-0.013,-0.045c-0.07167,-0.23924 -0.23286,-0.44162 -0.45,-0.565c-0.07816,-0.03906 -0.14138,-0.10263 -0.18,-0.181l-0.272,-0.52c-0.041,-0.091 -0.09,-0.177 -0.138,-0.265l-0.054,-0.096c-0.03693,-0.07377 -0.08867,-0.13913 -0.152,-0.192c-0.03733,-0.034 -0.07333,-0.068 -0.108,-0.102l-0.18,-0.18c-0.02933,-0.03467 -0.05933,-0.06867 -0.09,-0.102l-0.091,-0.102l-0.113,-0.124c-0.11906,-0.13225 -0.14833,-0.32253 -0.07453,-0.48445c0.0738,-0.16192 0.23661,-0.26465 0.41453,-0.26155c0.1239,0.00493 0.24108,0.0576 0.327,0.147l0.102,0.102l0.104,0.117c0.05933,0.06467 0.122,0.12533 0.188,0.182l0.047,0.04c0.063,0.052 0.135,0.113 0.199,0.185c0.01,0.01133 0.02333,0.01733 0.04,0.018c0.00667,0 0.013,0.00133 0.019,0.004l0.397,0.165l0.016,0.009l0.082,0.05l0.072,0.043l0.18,0.113c0.05933,0.036 0.11967,0.07367 0.181,0.113c0.017,0.011 0.04,0.032 0.06,0.049l0.06,0.062l0.343,0.375l0.334,0.324c0.049,0.047 0.101,0.092 0.137,0.15c0.01,0.01467 0.019,0.03067 0.027,0.048c0.03467,0.07267 0.07167,0.14733 0.111,0.224l0.07,0.135c0.03,0.052 0.06867,0.09667 0.116,0.134l0.058,0.046c0.042,0.034 0.08533,0.068 0.13,0.102c0.08727,0.05797 0.16376,0.13073 0.226,0.215l0.217,0.371c0.01395,0.02274 0.03231,0.04246 0.054,0.058c0.062,0.034 0.12433,0.06967 0.187,0.107c0.062,0.03733 0.124,0.07333 0.186,0.108c0.02496,0.01573 0.0481,0.03418 0.069,0.055c0.04561,0.04495 0.0868,0.09417 0.123,0.147l0.26,0.363l0.373,0.429c0.05,0.05 0.072,0.122 0.103,0.187c0.04067,0.086 0.08167,0.17433 0.123,0.265l0.002,0.005c0.05377,0.1191 0.11908,0.23264 0.195,0.339l0.064,0.098c0.04502,0.06571 0.09772,0.1258 0.157,0.179c0.101,0.079 0.203,0.17 0.305,0.26c0.07619,0.06805 0.12755,0.15953 0.146,0.26l0.031,0.162c0.03873,0.20257 0.14101,0.38752 0.292,0.528l0.043,0.04c0.03986,0.03953 0.07632,0.08235 0.109,0.128l0.067,0.104c0.05667,0.084 0.10967,0.17 0.159,0.258c0.03067,0.05267 0.068,0.09933 0.112,0.14l0.13,0.125l0.198,0.187c0.046,0.045 0.08,0.101 0.102,0.158l0.068,0.17c0.02,0.05467 0.04233,0.11133 0.067,0.17c0.02933,0.07133 0.05933,0.15 0.09,0.236l0.096,0.338c0.03467,0.12067 0.08,0.23733 0.136,0.35l0.142,0.283l0.203,0.373c0.03,0.068 0.06567,0.13267 0.107,0.194l0.05,0.072c0.077,0.114 0.158,0.233 0.25,0.378l0.056,0.113c0.08,0.135 0.147,0.271 0.192,0.373l0.102,0.17c0.034,0.05667 0.068,0.11467 0.102,0.174c0.03333,0.06 0.067,0.11833 0.101,0.175c0.02235,0.04116 0.0398,0.08479 0.052,0.13c0.01067,0.034 0.016,0.06867 0.016,0.104v0.071l0.013,0.122c0.02,0.173 0.057,0.345 0.127,0.504l0.097,0.222c0.0261,0.05667 0.04136,0.11772 0.045,0.18v0.146c0.00092,0.16871 0.0587,0.33218 0.164,0.464c0.05333,0.068 0.108,0.136 0.164,0.204c0.057,0.079 0.09,0.18 0.09,0.282v0.113c-0.01122,0.13911 -0.01122,0.27889 0,0.418M12.735,19.192c0.00267,0.01 0.004,0.02 0.004,0.03v0.11c0,0.029 -0.027,0.05 -0.055,0.044c-0.01211,-0.00263 -0.02476,-0.00015 -0.03498,0.00685c-0.01022,0.007 -0.0171,0.01791 -0.01902,0.03015c-0.01706,0.12569 -0.04008,0.2505 -0.069,0.374c-0.01602,0.05798 -0.01875,0.11882 -0.008,0.178l0.022,0.152l0.028,0.186l0.034,0.215c0.01218,0.05601 0.01218,0.11399 0,0.17c-0.022,0.07867 -0.04267,0.15933 -0.062,0.242c-0.038,0.16 -0.037,0.326 -0.008,0.488c0.069,0.384 0.102,0.9 0.048,1.156l-0.068,0.542c-0.03434,0.20895 -0.20689,0.36747 -0.418,0.384h-0.034c-0.20297,-0.00029 -0.38176,-0.13357 -0.44,-0.328l-0.08,-0.282l-0.07,-0.227c-0.013,-0.044 -0.031,-0.088 -0.031,-0.134c-0.023,-0.17 -0.057,-0.34 -0.09,-0.509l-0.013,-0.069c-0.00543,-0.03712 -0.00877,-0.07451 -0.01,-0.112l-0.057,-0.677v-0.401c0,-0.11733 -0.015,-0.23233 -0.045,-0.345c-0.0221,-0.06722 -0.04277,-0.1349 -0.062,-0.203l-0.041,-0.138c-0.014,-0.044 -0.04,-0.1 -0.043,-0.145l-0.003,-0.037l-0.02,-0.2l-0.017,-0.184c-0.01295,-0.12539 -0.03773,-0.24927 -0.074,-0.37c-0.03422,-0.12502 -0.0719,-0.24907 -0.113,-0.372l-0.26,-0.678l-0.158,-0.633l-0.007,-0.06c-0.005,-0.065 0,-0.13 0.005,-0.195l0.015,-0.15c0.02129,-0.21756 0.00676,-0.43714 -0.043,-0.65l-0.004,-0.018l-0.056,-0.248c-0.02103,-0.13671 -0.04772,-0.2725 -0.08,-0.407c-0.0156,-0.0739 -0.04774,-0.1433 -0.094,-0.203l-0.131,-0.159l-0.203,-0.248c-0.07905,-0.09901 -0.11923,-0.22346 -0.113,-0.35l-0.008,-0.054c-0.01876,-0.1561 -0.04277,-0.31152 -0.072,-0.466l-0.033,-0.226l-0.023,-0.152c-0.01443,-0.10023 -0.05399,-0.19518 -0.115,-0.276l-0.28,-0.374c-0.07926,-0.09382 -0.11229,-0.21822 -0.09,-0.339c0.02333,-0.134 0.04333,-0.272 0.06,-0.414c0.0128,-0.0986 -0.00137,-0.19882 -0.041,-0.29c-0.03198,-0.06886 -0.06133,-0.13891 -0.088,-0.21l-0.056,-0.125c-0.09734,-0.17347 -0.19836,-0.34484 -0.303,-0.514c-0.01559,-0.02665 -0.02994,-0.05402 -0.043,-0.082c-0.036,-0.081 -0.045,-0.171 -0.06,-0.259l-0.012,-0.072l-0.023,-0.158c-0.01572,-0.10294 -0.06087,-0.19913 -0.13,-0.277l-0.299,-0.333c-0.07814,-0.09522 -0.11838,-0.21594 -0.113,-0.339l0.02,-0.251c0.01236,-0.17263 -0.04572,-0.34291 -0.161,-0.472c-0.06,-0.06667 -0.11833,-0.13433 -0.175,-0.203c-0.06197,-0.07816 -0.10109,-0.17196 -0.113,-0.271v-0.158l-0.005,-0.053c-0.01341,-0.18409 -0.09423,-0.35677 -0.227,-0.485c-0.07101,-0.06423 -0.14069,-0.12991 -0.209,-0.197c-0.02043,-0.02197 -0.03883,-0.04573 -0.055,-0.071c-0.03198,-0.05012 -0.05942,-0.103 -0.082,-0.158l-0.167,-0.375c-0.046,-0.102 -0.114,-0.2 -0.114,-0.311c-0.00967,-0.1578 -0.02467,-0.31522 -0.045,-0.472c0,-0.03133 -0.01067,-0.059 -0.032,-0.083l-0.103,-0.112l-0.249,-0.26c-0.04541,-0.05725 -0.07998,-0.12232 -0.102,-0.192l-0.056,-0.226c-0.03237,-0.14434 -0.07006,-0.28744 -0.113,-0.429l-0.118,-0.417c-0.03232,-0.1211 -0.07969,-0.23768 -0.141,-0.347l-0.103,-0.174l-0.135,-0.237l-0.113,-0.226l-0.124,-0.237c-0.07954,-0.15816 -0.06127,-0.34793 0.047,-0.488c0.08263,-0.10962 0.21077,-0.17554 0.348,-0.179c0.158,0 0.316,0.09 0.395,0.238l0.136,0.26l0.102,0.214l0.124,0.203c0.034,0.056 0.068,0.11067 0.102,0.164c0.068,0.10867 0.14933,0.20667 0.244,0.294l0.354,0.322c0.102,0.113 0.204,0.237 0.305,0.361l0.147,0.17l0.03,0.038c0.01803,0.02717 0.03471,0.0552 0.05,0.084l0.146,0.273l0.147,0.283l0.124,0.203l0.237,0.407l0.02,0.038c0.02,0.041 0.031,0.085 0.043,0.13l0.046,0.176c0.06284,0.24261 0.17071,0.47124 0.318,0.674l0.054,0.075c0.056,0.077 0.129,0.147 0.152,0.24c0.057,0.17 0.102,0.327 0.147,0.485c0.02214,0.06715 0.05827,0.12884 0.106,0.181c0.11867,0.132 0.234,0.264 0.346,0.396c0.01444,0.01561 0.02718,0.0327 0.038,0.051c0.03,0.047 0.051,0.099 0.072,0.15l0.06,0.149c0.03867,0.10067 0.07567,0.19433 0.111,0.281l0.046,0.114l0.294,0.622l0.007,0.013c0.026,0.048 0.033,0.104 0.045,0.157l0.033,0.146l0.05,0.226l0.046,0.192c0.028,0.08867 0.058,0.179 0.09,0.271l0.077,0.227c0.01667,0.052 0.04,0.10067 0.07,0.146c0.102,0.158 0.203,0.327 0.305,0.497c0.04007,0.07637 0.05971,0.1618 0.057,0.248v0.158l-0.003,0.032c-0.02,0.253 0.045,0.503 0.168,0.725l0.076,0.136l0.034,0.068c0.018,0.035 0.025,0.075 0.036,0.112c0.01533,0.05067 0.03,0.10167 0.044,0.153c0.02,0.07067 0.041,0.14067 0.063,0.21c0.04588,0.14564 0.10828,0.28556 0.186,0.417c0.042,0.08 0.08533,0.159 0.13,0.237l0.068,0.113l0.01,0.018c0.05,0.086 0.054,0.19 0.068,0.288c0.027,0.178 0.053,0.36 0.08,0.564v0.203c0.006,0.07667 0.00933,0.155 0.01,0.235c0.002,0.122 0.01367,0.24333 0.035,0.364c0.034,0.147 0.068,0.294 0.09,0.418l0.147,0.622l0.226,0.711l0.124,0.621c0.01733,0.07333 0.03633,0.14667 0.057,0.22c0.02067,0.074 0.03933,0.14767 0.056,0.221zM6.864,16.265c0.00249,-0.00144 0.00555,-0.00143 0.00803,0.00002c0.00248,0.00145 0.00399,0.00411 0.00397,0.00698v0.039c0.02876,0.12835 0.05245,0.25778 0.071,0.388l0.03,0.192c0.012,0.068 0,0.147 -0.022,0.215c-0.09254,0.26302 -0.14218,0.53922 -0.147,0.818v0.063c0.00126,0.06675 -0.01421,0.13276 -0.045,0.192c-0.02267,0.05133 -0.04733,0.10233 -0.074,0.153c-0.05044,0.08747 -0.06064,0.19246 -0.028,0.288c0.022,0.068 0.022,0.124 0.022,0.192c-0.044,0.418 -0.1,0.711 -0.18,0.881l-0.034,0.102l-0.045,0.113l-0.079,0.214c-0.06616,0.17908 -0.23811,0.29692 -0.429,0.294h-0.046c-0.205,-0.02491 -0.36972,-0.18071 -0.406,-0.384l-0.045,-0.26l-0.023,-0.113c-0.015,-0.082 -0.033,-0.165 -0.033,-0.248l-0.01,-0.153c-0.00267,-0.07667 -0.00767,-0.154 -0.015,-0.232c-0.00667,-0.052 -0.01,-0.10467 -0.01,-0.158l0.023,-0.237v-0.186c0.00151,-0.10161 0.00819,-0.20307 0.02,-0.304l0.006,-0.048c0.018,-0.144 0.013,-0.292 -0.018,-0.434l-0.003,-0.011v-0.003c-0.03333,-0.14867 -0.05,-0.29867 -0.05,-0.45v-0.14c0.00004,-0.13879 -0.01438,-0.2772 -0.043,-0.413l-0.003,-0.01l-0.056,-0.238l-0.023,-0.067l-0.025,-0.084c-0.03133,-0.10667 -0.066,-0.21333 -0.104,-0.32c-0.011,-0.032 -0.036,-0.072 -0.04,-0.107l-0.004,-0.03l-0.03,-0.171c-0.01067,-0.052 -0.02,-0.10467 -0.028,-0.158c-0.00867,-0.05467 -0.018,-0.10733 -0.028,-0.158c-0.02256,-0.06989 -0.02256,-0.14511 0,-0.215l0.004,-0.016c0.07898,-0.26503 0.10213,-0.54356 0.068,-0.818l-0.005,-0.036c0,-0.098 -0.011,-0.206 -0.031,-0.315c-0.002,-0.00867 -0.003,-0.017 -0.003,-0.025c0,-0.02933 -0.00867,-0.05567 -0.026,-0.079l-0.065,-0.088c-0.07067,-0.10067 -0.14567,-0.199 -0.225,-0.295c-0.05799,-0.0785 -0.08951,-0.17341 -0.09,-0.271c0,-0.275 -0.061,-0.547 -0.177,-0.797l-0.286,-0.615c-0.06716,-0.15702 -0.04584,-0.3379 0.056,-0.475c0.13466,-0.13578 0.18007,-0.33647 0.117,-0.517c-0.0108,-0.03126 -0.02315,-0.06196 -0.037,-0.092l-0.216,-0.43c-0.04066,-0.06369 -0.06025,-0.13856 -0.056,-0.214c0,-0.242 -0.083,-0.475 -0.236,-0.662l-0.069,-0.084c-0.10058,-0.11859 -0.13444,-0.27998 -0.09,-0.429l0.05,-0.164c0.033,-0.103 0.015,-0.216 -0.05,-0.303c-0.04467,-0.06 -0.09,-0.119 -0.136,-0.177c-0.07874,-0.09839 -0.11151,-0.22583 -0.09,-0.35l0.022,-0.147l0.013,-0.054c0.019,-0.08 -0.011,-0.16 -0.069,-0.22l-0.215,-0.224c-0.04417,-0.05364 -0.07868,-0.11455 -0.102,-0.18l-0.158,-0.52c-0.011,-0.068 -0.011,-0.135 -0.011,-0.203c0.00533,-0.05267 0.01233,-0.107 0.021,-0.163c0.018,-0.128 -0.016,-0.257 -0.097,-0.357l-0.055,-0.066l-0.084,-0.103c-0.056,-0.068 -0.101,-0.159 -0.101,-0.249c-0.012,-0.18 -0.023,-0.362 -0.045,-0.542l-0.023,-0.181l-0.017,-0.147c-0.01133,-0.09667 -0.03567,-0.19067 -0.073,-0.282c-0.046,-0.113 -0.091,-0.226 -0.159,-0.373l-0.146,-0.417c-0.05244,-0.13531 -0.03479,-0.28778 0.04718,-0.40753c0.08197,-0.11975 0.21771,-0.19139 0.36282,-0.19147h0.007c0.19099,-0.0035 0.36339,0.11397 0.43,0.293l0.147,0.396c0.05893,0.11555 0.11561,0.23224 0.17,0.35c0.02844,0.06784 0.06912,0.12987 0.12,0.183l0.049,0.048c0.04267,0.042 0.084,0.08533 0.124,0.13l0.146,0.169c0.09965,0.13115 0.19634,0.26451 0.29,0.4l0.046,0.065l0.028,0.045c0.012,0.02 0.02267,0.04233 0.032,0.067l0.089,0.242l0.103,0.277l0.079,0.17l0.169,0.373c0.01484,0.03378 0.02494,0.06945 0.03,0.106l0.007,0.059l0.008,0.085c0.02259,0.23692 0.09775,0.46581 0.22,0.67l0.04,0.068c0.01525,0.02667 0.02927,0.05404 0.042,0.082c0.036,0.081 0.046,0.171 0.062,0.259l0.042,0.242l0.002,0.02c-0.00038,0.03026 0.0107,0.05955 0.031,0.082c0.09922,0.11634 0.19395,0.23643 0.284,0.36c0.03814,0.04603 0.06547,0.10002 0.08,0.158l0.034,0.136c0.03495,0.10766 0.06531,0.21676 0.091,0.327l0.01,0.046l0.192,0.531c0.01451,0.05938 0.02355,0.11997 0.027,0.181l0.02,0.3c0.00667,0.1 0.021,0.2 0.043,0.3l0.035,0.167c0.01481,0.08248 0.04248,0.16211 0.082,0.236l0.036,0.065c0.05733,0.10467 0.112,0.208 0.164,0.31c0.04776,0.09801 0.0635,0.20855 0.045,0.316l-0.034,0.147c-0.02979,0.16086 -0.00955,0.327 0.058,0.476l0.048,0.097c0.01937,0.03985 0.03608,0.08094 0.05,0.123l0.002,0.005c0.00802,0.02935 0.01469,0.05904 0.02,0.089l0.034,0.176c0.03303,0.16793 0.08747,0.33093 0.162,0.485l0.078,0.164l0.046,0.102c0.03079,0.05924 0.04626,0.12525 0.045,0.192v0.456c0.00004,0.09469 -0.00664,0.18926 -0.02,0.283l-0.003,0.018l-0.017,0.158c-0.01133,0.106 -0.012,0.21133 -0.002,0.316l0.03,0.305l0.068,0.486c0.01667,0.06267 0.03167,0.12667 0.045,0.192c0.01375,0.06437 0.02909,0.12839 0.046,0.192l0.056,0.237c0.02115,0.14595 0.03583,0.29276 0.044,0.44c-0.00003,0.00287 0.00149,0.00554 0.00397,0.00698c0.00248,0.00145 0.00554,0.00145 0.00803,0.00002M17.2,18.845c0.00133,0.01533 0.00533,0.03 0.012,0.044c0.01992,0.03856 0.03343,0.0801 0.04,0.123c0.004,0.026 0.037,0.04 0.056,0.02l0.016,-0.015c0.00307,-0.00268 0.00715,-0.00389 0.01119,-0.00331c0.00403,0.00058 0.00762,0.00288 0.00981,0.00631c0.008,0.01067 0.01267,0.022 0.014,0.034l0.003,0.012c0.056,0.135 0.12,0.29 0.076,0.48l-0.002,0.009c-0.03401,0.15238 -0.05608,0.30718 -0.066,0.463l-0.01,0.116v0.146c-0.01,0.19087 -0.13698,0.35568 -0.319,0.414c-0.04344,0.01288 -0.08875,0.01829 -0.134,0.016c-0.18497,0.00292 -0.35201,-0.11017 -0.418,-0.283l-0.067,-0.17l-0.03,-0.075c-0.036,-0.091 -0.073,-0.186 -0.117,-0.274l-0.018,-0.05l-0.01,-0.035l-0.074,-0.277l-0.056,-0.203l-0.009,-0.033c-0.01,-0.038 -0.025,-0.075 -0.025,-0.114c-0.01753,-0.13786 -0.04223,-0.27471 -0.074,-0.41c-0.01768,-0.07304 -0.02708,-0.14785 -0.028,-0.223c-0.00856,-0.10703 -0.02057,-0.21375 -0.036,-0.32c-0.00518,-0.0348 -0.00852,-0.06985 -0.01,-0.105c0.00118,-0.0624 -0.00934,-0.12447 -0.031,-0.183l-0.053,-0.131l-0.04,-0.097l-0.079,-0.192c-0.00978,-0.03356 -0.01779,-0.0676 -0.024,-0.102l-0.06,-0.322c-0.02631,-0.13859 -0.0672,-0.27401 -0.122,-0.404l-0.121,-0.29l-0.283,-0.554l-0.014,-0.034l-0.016,-0.044l-0.196,-0.543c-0.022,-0.056 -0.022,-0.113 -0.022,-0.17c0.011,-0.146 0.011,-0.293 0.011,-0.44c-0.00024,-0.06711 -0.01173,-0.1337 -0.034,-0.197l-0.068,-0.198l-0.079,-0.215c-0.056,-0.147 -0.44,-0.745 -0.553,-0.858c-0.07012,-0.08177 -0.12043,-0.17861 -0.147,-0.283c-0.028,-0.15 -0.064,-0.293 -0.101,-0.44l-0.023,-0.09l-0.057,-0.215l-0.034,-0.125c-0.02261,-0.08095 -0.06525,-0.15489 -0.124,-0.215l-0.293,-0.293c-0.08824,-0.09066 -0.13711,-0.21249 -0.136,-0.339l0.011,-0.274c0.01087,-0.17563 -0.02832,-0.35075 -0.113,-0.505l-0.017,-0.03c-0.04861,-0.08525 -0.10342,-0.1668 -0.164,-0.244l-0.27,-0.348c-0.03979,-0.04951 -0.06721,-0.10779 -0.08,-0.17l-0.034,-0.123l-0.017,-0.086c-0.03638,-0.16591 -0.13025,-0.31361 -0.265,-0.417c-0.068,-0.05333 -0.13567,-0.108 -0.203,-0.164c-0.08061,-0.06729 -0.13799,-0.15826 -0.164,-0.26c-0.01282,-0.05233 -0.01854,-0.10615 -0.017,-0.16v-0.148c0.0025,-0.16348 -0.06786,-0.3196 -0.192,-0.426l-0.147,-0.124c-0.08346,-0.072 -0.13608,-0.17331 -0.147,-0.283l-0.031,-0.203c-0.0238,-0.15107 -0.10834,-0.28583 -0.234,-0.373l-0.198,-0.135c-0.06204,-0.03394 -0.11306,-0.08496 -0.147,-0.147l-0.305,-0.531c-0.02128,-0.03472 -0.03713,-0.07249 -0.047,-0.112l-0.015,-0.07l-0.049,-0.3c-0.01567,-0.09712 -0.06658,-0.18505 -0.143,-0.247c-0.04,-0.03 -0.07967,-0.062 -0.119,-0.096l-0.135,-0.113c-0.06142,-0.05538 -0.10815,-0.12513 -0.136,-0.203c-0.0681,-0.19716 -0.13944,-0.39319 -0.214,-0.588c-0.02674,-0.05701 -0.06105,-0.11016 -0.102,-0.158c-0.09108,-0.10972 -0.16709,-0.23113 -0.226,-0.361l-0.226,-0.509c-0.05408,-0.09554 -0.11076,-0.18957 -0.17,-0.282l-0.079,-0.124c-0.12881,-0.21273 -0.06341,-0.48944 0.147,-0.622c0.21007,-0.128 0.48366,-0.06809 0.621,0.136l0.068,0.113c0.02933,0.05 0.05933,0.099 0.09,0.147c0.062,0.09667 0.13067,0.18867 0.206,0.276l0.124,0.14c0.074,0.084 0.155,0.16133 0.243,0.232l0.332,0.267l0.462,0.429c0.05,0.049 0.087,0.108 0.125,0.167l0.045,0.07l0.092,0.14c0.05,0.075 0.099,0.147 0.134,0.21l0.348,0.475c0.017,0.023 0.036,0.055 0.051,0.079l0.02,0.033l0.27,0.51c0.055,0.1 0.142,0.246 0.217,0.351c0.054,0.078 0.118,0.149 0.16,0.234l0.007,0.013l0.174,0.434c0.02,0.05 0.04867,0.09333 0.086,0.13c0.124,0.103 0.249,0.204 0.362,0.306c0.02133,0.01734 0.04017,0.03753 0.056,0.06c0.03081,0.04245 0.05822,0.08725 0.082,0.134l0.246,0.472l0.302,0.501c0.017,0.028 0.039,0.052 0.055,0.08c0.018,0.031 0.02,0.07 0.031,0.105l0.047,0.153c0.03067,0.09 0.05867,0.18333 0.084,0.28c0.02333,0.07467 0.051,0.148 0.083,0.22l0.064,0.141l0.046,0.103c0.04467,0.09733 0.101,0.18733 0.169,0.27c0.101,0.113 0.192,0.226 0.282,0.35c0.057,0.08 0.09,0.17 0.09,0.26l0.009,0.19c0.01,0.222 0.084,0.437 0.216,0.617l0.073,0.101c0.01933,0.02733 0.037,0.056 0.053,0.086c0.00919,0.01402 0.01658,0.02914 0.022,0.045c0.028,0.06267 0.05467,0.12667 0.08,0.192c0.02467,0.06533 0.051,0.12933 0.079,0.192c0.038,0.10533 0.08967,0.20333 0.155,0.294l0.121,0.17l0.096,0.135l0.046,0.057c0.0335,0.0472 0.05636,0.10111 0.067,0.158c0.04,0.18 0.08,0.36 0.136,0.572c0.01461,0.05551 0.02233,0.1126 0.023,0.17c0,0.03267 0.00233,0.065 0.007,0.097c0.012,0.08 0.023,0.16 0.033,0.24c0.012,0.10867 0.03233,0.216 0.061,0.322c0.02667,0.09933 0.05433,0.19467 0.083,0.286l0.03,0.098c0.065,0.184 0.037,0.368 0.014,0.512v0.007c-0.00723,0.04369 0.00521,0.08835 0.034,0.122l0.325,0.387c0.03895,0.05146 0.06934,0.10886 0.09,0.17l0.17,0.575l0.21,0.596l0.007,0.029l0.01,0.065c0.009,0.074 -0.001,0.15 -0.001,0.225l-0.023,0.279c-0.00652,0.0923 0.00124,0.18506 0.023,0.275c0.02867,0.11 0.054,0.22 0.076,0.33c0.00933,0.05 0.014,0.10133 0.014,0.154c-0.00043,0.06109 -0.00645,0.12201 -0.018,0.182l-0.016,0.08l-0.016,0.127c-0.01463,0.10169 -0.00954,0.20524 0.015,0.305c0.00667,0.024 0.01033,0.046 0.011,0.066c0.0013,0.01357 0.00398,0.02697 0.008,0.04c0.00667,0.01667 0.01133,0.03267 0.014,0.048" fill="#62757e" fill-rule="nonzero"></path></g>
  </g>
 </g>
</svg>
