<?xml version="1.0" encoding="UTF-8"?>
<!--Generator: Apple Native CoreSVG 175.5-->
<!DOCTYPE svg
PUBLIC "-//W3C//DTD SVG 1.1//EN"
       "http://www.w3.org/Graphics/SVG/1.1/DTD/svg11.dtd">
<svg version="1.1" xmlns="http://www.w3.org/2000/svg" xmlns:xlink="http://www.w3.org/1999/xlink" width="3300" height="2200">
 <!--glyph: "", point size: 100.0, font version: "18.0d12e2", template writer version: "101"-->
 <g id="Notes">
  <rect height="2200" id="artboard" style="fill:white;opacity:1" width="3300" x="0" y="0"/>
  <line style="fill:none;stroke:black;opacity:1;stroke-width:0.5;" x1="263" x2="3036" y1="292" y2="292"/>
  <text style="stroke:none;fill:black;font-family:sans-serif;font-size:13;font-weight:bold;" transform="matrix(1 0 0 1 263 322)">Weight/Scale Variations</text>
  <text style="stroke:none;fill:black;font-family:sans-serif;font-size:13;text-anchor:middle;" transform="matrix(1 0 0 1 559.711 322)">Ultralight</text>
  <text style="stroke:none;fill:black;font-family:sans-serif;font-size:13;text-anchor:middle;" transform="matrix(1 0 0 1 856.422 322)">Thin</text>
  <text style="stroke:none;fill:black;font-family:sans-serif;font-size:13;text-anchor:middle;" transform="matrix(1 0 0 1 1153.13 322)">Light</text>
  <text style="stroke:none;fill:black;font-family:sans-serif;font-size:13;text-anchor:middle;" transform="matrix(1 0 0 1 1449.84 322)">Regular</text>
  <text style="stroke:none;fill:black;font-family:sans-serif;font-size:13;text-anchor:middle;" transform="matrix(1 0 0 1 1746.56 322)">Medium</text>
  <text style="stroke:none;fill:black;font-family:sans-serif;font-size:13;text-anchor:middle;" transform="matrix(1 0 0 1 2043.27 322)">Semibold</text>
  <text style="stroke:none;fill:black;font-family:sans-serif;font-size:13;text-anchor:middle;" transform="matrix(1 0 0 1 2339.98 322)">Bold</text>
  <text style="stroke:none;fill:black;font-family:sans-serif;font-size:13;text-anchor:middle;" transform="matrix(1 0 0 1 2636.69 322)">Heavy</text>
  <text style="stroke:none;fill:black;font-family:sans-serif;font-size:13;text-anchor:middle;" transform="matrix(1 0 0 1 2933.4 322)">Black</text>
  <line style="fill:none;stroke:black;opacity:1;stroke-width:0.5;" x1="263" x2="3036" y1="1903" y2="1903"/>
  <g transform="matrix(1 0 0 1 263 1933)">
   <path d="M9.24805 0.830078C13.5547 0.830078 17.1387-2.74414 17.1387-7.05078C17.1387-11.3574 13.5449-14.9316 9.23828-14.9316C4.94141-14.9316 1.36719-11.3574 1.36719-7.05078C1.36719-2.74414 4.95117 0.830078 9.24805 0.830078ZM9.24805-0.654297C5.70312-0.654297 2.87109-3.49609 2.87109-7.05078C2.87109-10.6055 5.69336-13.4473 9.23828-13.4473C12.793-13.4473 15.6445-10.6055 15.6445-7.05078C15.6445-3.49609 12.8027-0.654297 9.24805-0.654297ZM5.6543-7.05078C5.6543-6.62109 5.95703-6.32812 6.40625-6.32812L8.50586-6.32812L8.50586-4.20898C8.50586-3.76953 8.79883-3.4668 9.22852-3.4668C9.67773-3.4668 9.9707-3.76953 9.9707-4.20898L9.9707-6.32812L12.0898-6.32812C12.5293-6.32812 12.832-6.62109 12.832-7.05078C12.832-7.49023 12.5293-7.79297 12.0898-7.79297L9.9707-7.79297L9.9707-9.90234C9.9707-10.3516 9.67773-10.6543 9.22852-10.6543C8.79883-10.6543 8.50586-10.3516 8.50586-9.90234L8.50586-7.79297L6.40625-7.79297C5.95703-7.79297 5.6543-7.49023 5.6543-7.05078Z"/>
  </g>
  <g transform="matrix(1 0 0 1 281.867 1933)">
   <path d="M11.709 2.91016C17.1582 2.91016 21.6699-1.61133 21.6699-7.05078C21.6699-12.5 17.1484-17.0117 11.6992-17.0117C6.25977-17.0117 1.74805-12.5 1.74805-7.05078C1.74805-1.61133 6.26953 2.91016 11.709 2.91016ZM11.709 1.25C7.09961 1.25 3.41797-2.44141 3.41797-7.05078C3.41797-11.6602 7.08984-15.3516 11.6992-15.3516C16.3086-15.3516 20.0098-11.6602 20.0098-7.05078C20.0098-2.44141 16.3184 1.25 11.709 1.25ZM7.17773-7.05078C7.17773-6.57227 7.50977-6.25 8.00781-6.25L10.8789-6.25L10.8789-3.36914C10.8789-2.88086 11.2109-2.53906 11.6895-2.53906C12.1777-2.53906 12.5195-2.87109 12.5195-3.36914L12.5195-6.25L15.4004-6.25C15.8887-6.25 16.2305-6.57227 16.2305-7.05078C16.2305-7.53906 15.8887-7.88086 15.4004-7.88086L12.5195-7.88086L12.5195-10.752C12.5195-11.25 12.1777-11.5918 11.6895-11.5918C11.2109-11.5918 10.8789-11.25 10.8789-10.752L10.8789-7.88086L8.00781-7.88086C7.50977-7.88086 7.17773-7.53906 7.17773-7.05078Z"/>
  </g>
  <g transform="matrix(1 0 0 1 305.646 1933)">
   <path d="M14.9707 5.66406C21.9336 5.66406 27.6953-0.0976562 27.6953-7.05078C27.6953-14.0137 21.9238-19.7754 14.9609-19.7754C8.00781-19.7754 2.25586-14.0137 2.25586-7.05078C2.25586-0.0976562 8.01758 5.66406 14.9707 5.66406ZM14.9707 3.84766C8.93555 3.84766 4.08203-1.01562 4.08203-7.05078C4.08203-13.0957 8.92578-17.9492 14.9609-17.9492C21.0059-17.9492 25.8691-13.0957 25.8691-7.05078C25.8691-1.01562 21.0156 3.84766 14.9707 3.84766ZM9.19922-7.05078C9.19922-6.5332 9.57031-6.17188 10.1172-6.17188L14.0625-6.17188L14.0625-2.2168C14.0625-1.67969 14.4336-1.29883 14.9512-1.29883C15.4883-1.29883 15.8594-1.66992 15.8594-2.2168L15.8594-6.17188L19.8145-6.17188C20.3516-6.17188 20.7324-6.5332 20.7324-7.05078C20.7324-7.59766 20.3613-7.96875 19.8145-7.96875L15.8594-7.96875L15.8594-11.9141C15.8594-12.4609 15.4883-12.8418 14.9512-12.8418C14.4336-12.8418 14.0625-12.4609 14.0625-11.9141L14.0625-7.96875L10.1172-7.96875C9.57031-7.96875 9.19922-7.59766 9.19922-7.05078Z"/>
  </g>
  <text style="stroke:none;fill:black;font-family:sans-serif;font-size:13;font-weight:bold;" transform="matrix(1 0 0 1 263 1953)">Design Variations</text>
  <text style="stroke:none;fill:black;font-family:sans-serif;font-size:13;" transform="matrix(1 0 0 1 263 1971)">Symbols are supported in up to nine weights and three scales.</text>
  <text style="stroke:none;fill:black;font-family:sans-serif;font-size:13;" transform="matrix(1 0 0 1 263 1989)">For optimal layout with text and other symbols, vertically align</text>
  <text style="stroke:none;fill:black;font-family:sans-serif;font-size:13;" transform="matrix(1 0 0 1 263 2007)">symbols with the adjacent text.</text>
  <line style="fill:none;stroke:#00AEEF;stroke-width:0.5;opacity:1.0;" x1="776" x2="776" y1="1919" y2="1933"/>
  <g transform="matrix(1 0 0 1 776 1933)">
   <path d="M3.31055 0.15625C3.82812 0.15625 4.08203-0.0390625 4.26758-0.585938L5.52734-4.0332L11.2891-4.0332L12.5488-0.585938C12.7344-0.0390625 12.9883 0.15625 13.4961 0.15625C14.0137 0.15625 14.3457-0.15625 14.3457-0.644531C14.3457-0.810547 14.3164-0.966797 14.2383-1.17188L9.6582-13.3691C9.43359-13.9648 9.0332-14.2676 8.4082-14.2676C7.80273-14.2676 7.39258-13.9746 7.17773-13.3789L2.59766-1.16211C2.51953-0.957031 2.49023-0.800781 2.49023-0.634766C2.49023-0.146484 2.80273 0.15625 3.31055 0.15625ZM6.00586-5.51758L8.37891-12.0898L8.42773-12.0898L10.8008-5.51758Z"/>
  </g>
  <line style="fill:none;stroke:#00AEEF;stroke-width:0.5;opacity:1.0;" x1="793.197" x2="793.197" y1="1919" y2="1933"/>
  <text style="stroke:none;fill:black;font-family:sans-serif;font-size:13;font-weight:bold;" transform="matrix(1 0 0 1 776 1953)">Margins</text>
  <text style="stroke:none;fill:black;font-family:sans-serif;font-size:13;" transform="matrix(1 0 0 1 776 1971)">Leading and trailing margins on the left and right side of each symbol</text>
  <text style="stroke:none;fill:black;font-family:sans-serif;font-size:13;" transform="matrix(1 0 0 1 776 1989)">can be adjusted by modifying the x-location of the margin guidelines.</text>
  <text style="stroke:none;fill:black;font-family:sans-serif;font-size:13;" transform="matrix(1 0 0 1 776 2007)">Modifications are automatically applied proportionally to all</text>
  <text style="stroke:none;fill:black;font-family:sans-serif;font-size:13;" transform="matrix(1 0 0 1 776 2025)">scales and weights.</text>
  <g transform="matrix(1 0 0 1 1289 1933)">
   <path d="M2.8418 1.86523L4.54102 3.57422C5.40039 4.44336 6.38672 4.38477 7.31445 3.35938L18.0078-8.42773L17.041-9.4043L6.42578 2.27539C6.07422 2.67578 5.74219 2.77344 5.27344 2.30469L4.10156 1.14258C3.63281 0.683594 3.74023 0.341797 4.14062-0.0195312L15.6152-10.8203L14.6387-11.7871L3.04688-0.898438C2.06055 0.0195312 1.98242 0.996094 2.8418 1.86523ZM9.25781-16.3281C8.83789-15.918 8.80859-15.3418 9.04297-14.9512C9.27734-14.5898 9.73633-14.3555 10.3809-14.5215C11.8457-14.8633 13.3691-14.9219 14.7949-13.9844L14.209-12.5293C13.8672-11.6992 14.043-11.1133 14.5801-10.5664L16.875-8.25195C17.3633-7.76367 17.7734-7.74414 18.3398-7.8418L19.4043-8.03711L20.0684-7.36328L20.0293-6.80664C19.9902-6.30859 20.1172-5.92773 20.6055-5.44922L21.3672-4.70703C21.8457-4.22852 22.4609-4.19922 22.9297-4.66797L25.8398-7.58789C26.3086-8.05664 26.2891-8.65234 25.8105-9.13086L25.0391-9.89258C24.5605-10.3711 24.1895-10.5273 23.7109-10.4883L23.1348-10.4395L22.4902-11.0742L22.7344-12.1973C22.8613-12.7637 22.7051-13.2031 22.1191-13.7891L19.9219-15.9766C16.582-19.2969 12.1484-19.2188 9.25781-16.3281ZM10.752-15.957C13.1836-17.7344 16.4746-17.4316 18.7012-15.2051L21.1328-12.793C21.3672-12.5586 21.4062-12.373 21.3379-12.0312L21.0156-10.5469L22.5195-9.0625L23.5059-9.12109C23.7598-9.13086 23.8379-9.11133 24.0332-8.91602L24.6094-8.33984L22.168-5.89844L21.5918-6.47461C21.3965-6.66992 21.3672-6.74805 21.377-7.01172L21.4453-7.98828L19.9512-9.47266L18.4277-9.21875C18.1055-9.15039 17.959-9.17969 17.7148-9.41406L15.7129-11.416C15.459-11.6504 15.4297-11.8164 15.5859-12.1875L16.4648-14.2773C14.9023-15.7324 12.8711-16.3574 10.8398-15.7617C10.6836-15.7227 10.625-15.8496 10.752-15.957Z"/>
  </g>
  <text style="stroke:none;fill:black;font-family:sans-serif;font-size:13;font-weight:bold;" transform="matrix(1 0 0 1 1289 1953)">Exporting</text>
  <text style="stroke:none;fill:black;font-family:sans-serif;font-size:13;" transform="matrix(1 0 0 1 1289 1971)">Symbols should be outlined when exporting to ensure the</text>
  <text style="stroke:none;fill:black;font-family:sans-serif;font-size:13;" transform="matrix(1 0 0 1 1289 1989)">design is preserved when submitting to Xcode.</text>
  <text id="template-version" style="stroke:none;fill:black;font-family:sans-serif;font-size:13;text-anchor:end;" transform="matrix(1 0 0 1 3036 1933)">Template v.4.0</text>
  <text style="stroke:none;fill:black;font-family:sans-serif;font-size:13;text-anchor:end;" transform="matrix(1 0 0 1 3036 1951)">Requires Xcode 14 or greater</text>
  <text id="descriptive-name" style="stroke:none;fill:black;font-family:sans-serif;font-size:13;text-anchor:end;" transform="matrix(1 0 0 1 3036 1969)">Generated from brave.zzz</text>
  <text style="stroke:none;fill:black;font-family:sans-serif;font-size:13;text-anchor:end;" transform="matrix(1 0 0 1 3036 1987)">Typeset at 100 points</text>
  <text style="stroke:none;fill:black;font-family:sans-serif;font-size:13;" transform="matrix(1 0 0 1 263 726)">Small</text>
  <text style="stroke:none;fill:black;font-family:sans-serif;font-size:13;" transform="matrix(1 0 0 1 263 1156)">Medium</text>
  <text style="stroke:none;fill:black;font-family:sans-serif;font-size:13;" transform="matrix(1 0 0 1 263 1586)">Large</text>
 </g>
 <g id="Guides">
  <g id="H-reference" style="fill:#27AAE1;stroke:none;" transform="matrix(1 0 0 1 339 696)">
   <path d="M0.993654 0L3.63775 0L29.3281-67.1323L30.0303-67.1323L30.0303-70.459L28.1226-70.459ZM11.6885-24.4799L46.9815-24.4799L46.2315-26.7285L12.4385-26.7285ZM55.1196 0L57.7637 0L30.6382-70.459L29.4326-70.459L29.4326-67.1323Z"/>
  </g>
  <line id="Baseline-S" style="fill:none;stroke:#27AAE1;opacity:1;stroke-width:0.5;" x1="263" x2="3036" y1="696" y2="696"/>
  <line id="Capline-S" style="fill:none;stroke:#27AAE1;opacity:1;stroke-width:0.5;" x1="263" x2="3036" y1="625.541" y2="625.541"/>
  <g id="H-reference" style="fill:#27AAE1;stroke:none;" transform="matrix(1 0 0 1 339 1126)">
   <path d="M0.993654 0L3.63775 0L29.3281-67.1323L30.0303-67.1323L30.0303-70.459L28.1226-70.459ZM11.6885-24.4799L46.9815-24.4799L46.2315-26.7285L12.4385-26.7285ZM55.1196 0L57.7637 0L30.6382-70.459L29.4326-70.459L29.4326-67.1323Z"/>
  </g>
  <line id="Baseline-M" style="fill:none;stroke:#27AAE1;opacity:1;stroke-width:0.5;" x1="263" x2="3036" y1="1126" y2="1126"/>
  <line id="Capline-M" style="fill:none;stroke:#27AAE1;opacity:1;stroke-width:0.5;" x1="263" x2="3036" y1="1055.54" y2="1055.54"/>
  <g id="H-reference" style="fill:#27AAE1;stroke:none;" transform="matrix(1 0 0 1 339 1556)">
   <path d="M0.993654 0L3.63775 0L29.3281-67.1323L30.0303-67.1323L30.0303-70.459L28.1226-70.459ZM11.6885-24.4799L46.9815-24.4799L46.2315-26.7285L12.4385-26.7285ZM55.1196 0L57.7637 0L30.6382-70.459L29.4326-70.459L29.4326-67.1323Z"/>
  </g>
  <line id="Baseline-L" style="fill:none;stroke:#27AAE1;opacity:1;stroke-width:0.5;" x1="263" x2="3036" y1="1556" y2="1556"/>
  <line id="Capline-L" style="fill:none;stroke:#27AAE1;opacity:1;stroke-width:0.5;" x1="263" x2="3036" y1="1485.54" y2="1485.54"/>
  <line id="left-margin-Regular-M" style="fill:none;stroke:#00AEEF;stroke-width:0.5;opacity:1.0;" x1="1389.82" x2="1389.82" y1="1030.79" y2="1150.12"/>
  <line id="right-margin-Regular-M" style="fill:none;stroke:#00AEEF;stroke-width:0.5;opacity:1.0;" x1="1509.87" x2="1509.87" y1="1030.79" y2="1150.12"/>
 </g>
 <g id="Symbols">
  <g id="Regular-L" transform="matrix(6.45 0 0 6.45 1372.2675 1443)">
    <defs><clipPath id="clip-1"><rect x="0" y="0" width="24" height="24" fill="none"></rect></clipPath><clipPath id="clip-2"><path d="M0,0h24v24h-24z" id="a" fill="none"></path></clipPath></defs>
<g clip-path="url(#clip-1)" fill="none" fill-rule="nonzero" stroke="none" stroke-width="1" stroke-linecap="butt" stroke-linejoin="miter" stroke-miterlimit="10" stroke-dasharray="" stroke-dashoffset="0" font-family="none" font-weight="none" font-size="none" text-anchor="none" style="mix-blend-mode: normal"><g clip-path="url(#clip-2)"><path d="M14.833,5.5c0.35468,-0.02574 0.71122,0.00122 1.058,0.08l0.035,0.01l0.016,0.003l0.007,0.002l0.004,0.001l0.002,0.001c-0.001,0.006 -0.025,0.1 -0.478,1.785c0,0 -0.747,-0.206 -1.39,0.36l-0.019,0.018l-0.06,0.073l-0.085,0.107l-0.025,0.031c-0.641,0.813 -0.604,1.153 -1.773,2.557c0,0 -0.61,-0.282 -0.975,-0.453l-0.783,-0.367c-0.869,-0.405 -1.79,-0.819 -2.454,-1.051c-1.632,-0.573 -2.835,-0.646 -3.274,0.233c-0.58,1.16 1.773,1.832 2.956,2.17l0.027,0.008c0.479,-0.262 1.07,-0.437 1.688,-0.506c1.09139,-0.11435 2.19358,0.06303 3.194,0.514c1.321,0.585 2.03,1.82 2.297,2.948c0.135,0.572 0.17,1.16 0.1,1.696c-0.067,0.52 -0.245,1.078 -0.615,1.501c-0.77,0.883 -1.905,0.784 -2.52,0.654c-0.38916,-0.08455 -0.76755,-0.21269 -1.128,-0.382l-0.078,-0.038l-0.032,-0.016l-0.003,-0.002l-0.002,-0.001c-0.44403,-0.24546 -0.61166,-0.79999 -0.37796,-1.25032c0.2337,-0.45033 0.78365,-0.63247 1.23996,-0.41068l-2.103,-3.316c-0.515,0.1 -0.796,0.305 -0.9,0.409c-0.468,0.467 -0.702,0.936 -0.702,1.17c0,0.018 -0.004,0.023 -0.01,0.024c-0.0181,0.14784 -0.01066,0.29768 0.022,0.443c0.03573,0.16426 0.11882,0.31445 0.239,0.432c0.279,0.269 0.676,0.27 0.684,0.27c-0.007,0.018 -0.26,0.673 -0.234,1.404c0.005,0.163 0.05,0.311 0.125,0.447c0.448,0.805 2.016,1.162 3.332,1.462c0.552,0.126 1.06,0.242 1.424,0.377c0.348,0.116 1.271,0.322 2.053,0.49c0.449,0.06 1.085,0.076 1.722,-0.15c1.136,-0.403 1.348,-1.96 1.77,-3.268l-0.06,-0.023c-0.087,-0.032 -0.202,-0.068 -0.334,-0.11c-0.549,-0.173 -1.386,-0.437 -1.61,-0.863c-0.108,-0.207 -0.1,-0.484 -0.09,-0.808c0.016,-0.505 0.035,-1.123 -0.377,-1.765c-0.10133,-0.15667 -0.198,-0.301 -0.29,-0.433c-0.516,-0.756 -0.83,-1.214 -0.547,-2.6l0.297,-1.178l1.856,0.371l-0.01,0.054l-0.3,1.19c-0.04074,0.1795 -0.06153,0.36294 -0.062,0.547c-0.00075,0.03607 0.00501,0.07198 0.017,0.106v0.002c0.013,0.03 0.043,0.096 0.153,0.262c0.045,0.069 0.093,0.137 0.152,0.225l0.05,0.074c0.08,0.118 0.175,0.257 0.275,0.412c0.622,0.97 0.684,1.901 0.68,2.498v0.027l0.238,0.078l0.102,0.032l0.154,0.049c0.076,0.024 0.172,0.056 0.267,0.09c0.11,-0.202 0.407,-0.636 0.945,-0.636c0.701,0 0.989,0.987 0.989,0.987c0.276,1.84 -0.979,8.013 -2.793,9.164c-1.386,0.88 -2.412,-0.428 -3.175,-2.438c-0.17,-0.037 -0.357,-0.075 -0.548,-0.117c-0.7,-0.151 -1.649,-0.364 -2.096,-0.512l-0.033,-0.01l-0.032,-0.014c-0.199,-0.073 -0.535,-0.156 -1.09,-0.283l-0.103,-0.023c-0.48,-0.11 -1.07,-0.243 -1.63,-0.412c-0.578,-0.176 -1.295,-0.437 -1.903,-0.862c-0.638,-0.446 -1.363,-1.233 -1.404,-2.413c-0.00564,-0.16971 -0.00264,-0.3396 0.009,-0.509c-0.32229,-0.34888 -0.54684,-0.7766 -0.651,-1.24c-0.09601,-0.4209 -0.0857,-0.85908 0.03,-1.275c0.083,-0.317 0.211,-0.594 0.317,-0.801c0.036,-0.07067 0.07267,-0.13933 0.11,-0.206c-0.351,-0.11 -0.748,-0.248 -1.133,-0.412c-0.504,-0.215 -1.219,-0.569 -1.752,-1.14c-0.35334,-0.36925 -0.59887,-0.82816 -0.71,-1.327c-0.11845,-0.56939 -0.03871,-1.16216 0.226,-1.68c0.604,-1.208 1.756,-1.635 2.782,-1.672c0.926,-0.033 1.912,0.226 2.795,0.536c0.804,0.282 1.955,0.806 2.933,1.263c0.34468,-0.56205 0.72864,-1.09906 1.149,-1.607l0.08,-0.096l0.091,-0.084c0.56839,-0.51857 1.29464,-0.83097 2.062,-0.887M11.746,12.788c-0.69737,-0.31643 -1.46605,-0.4427 -2.228,-0.366l1.874,3.356l0.04,0.02c0.03867,0.018 0.095,0.04233 0.169,0.073c0.149,0.06 0.347,0.128 0.554,0.173c0.494,0.104 0.67,0.004 0.721,-0.053c0.04,-0.047 0.129,-0.202 0.169,-0.511c0.03904,-0.34254 0.01669,-0.6893 -0.066,-1.024c-0.18,-0.76 -0.61,-1.392 -1.233,-1.668M16.165,5.655l0.19,0.102c0.964,0.516 1.238,1.406 1.31,1.875c0.04293,0.29019 0.04158,0.58521 -0.004,0.875l-0.004,0.029l-0.003,0.012v0.009l-0.002,0.001c-0.006,0 -0.107,-0.02 -1.856,-0.369c0,0 0.109,-0.578 -0.319,-0.807l0.48,-1.785zM3.33,2.752c0.22807,-0.46336 0.78833,-0.65444 1.252,-0.427c0.737,0.361 1.578,0.813 2.394,1.733c0.32878,0.38808 0.28749,0.96768 -0.09299,1.30523c-0.38048,0.33754 -0.96088,0.30947 -1.30701,-0.06323c-0.573,-0.645 -1.152,-0.968 -1.818,-1.295c-0.22297,-0.10935 -0.39334,-0.30282 -0.47361,-0.53782c-0.08027,-0.235 -0.06387,-0.49227 0.04561,-0.71518M12.451,0.918c0.2733,-0.42974 0.84004,-0.56211 1.27542,-0.29789c0.43538,0.26422 0.57961,0.82806 0.32458,1.26889c-0.40276,0.677 -0.6634,1.42896 -0.766,2.21c-0.08355,0.49648 -0.54487,0.83793 -1.0441,0.7728c-0.49924,-0.06513 -0.85751,-0.5135 -0.8109,-1.0148c0.13371,-1.03952 0.48098,-2.04015 1.02,-2.939M8.388,0.028c0.50114,-0.1247 1.00859,0.18004 1.134,0.681c0.06667,0.26067 0.13533,0.51933 0.206,0.776c0.157,0.58 0.316,1.16 0.417,1.771c0.05875,0.49726 -0.28384,0.95284 -0.77787,1.03442c-0.49403,0.08158 -0.9649,-0.23967 -1.06913,-0.72942c-0.086,-0.517 -0.204,-0.95 -0.347,-1.474c-0.08468,-0.30711 -0.16601,-0.61513 -0.244,-0.924c-0.1254,-0.50116 0.17895,-1.00915 0.68,-1.135" fill="#62757e"></path></g></g>
  </g>
  <g id="Regular-M" transform="matrix(5 0 0 5 1389.82 1030)">
    <defs><clipPath id="clip-1"><rect x="0" y="0" width="24" height="24" fill="none"></rect></clipPath><clipPath id="clip-2"><path d="M0,0h24v24h-24z" id="a" fill="none"></path></clipPath></defs>
<g clip-path="url(#clip-1)" fill="none" fill-rule="nonzero" stroke="none" stroke-width="1" stroke-linecap="butt" stroke-linejoin="miter" stroke-miterlimit="10" stroke-dasharray="" stroke-dashoffset="0" font-family="none" font-weight="none" font-size="none" text-anchor="none" style="mix-blend-mode: normal"><g clip-path="url(#clip-2)"><path d="M14.833,5.5c0.35468,-0.02574 0.71122,0.00122 1.058,0.08l0.035,0.01l0.016,0.003l0.007,0.002l0.004,0.001l0.002,0.001c-0.001,0.006 -0.025,0.1 -0.478,1.785c0,0 -0.747,-0.206 -1.39,0.36l-0.019,0.018l-0.06,0.073l-0.085,0.107l-0.025,0.031c-0.641,0.813 -0.604,1.153 -1.773,2.557c0,0 -0.61,-0.282 -0.975,-0.453l-0.783,-0.367c-0.869,-0.405 -1.79,-0.819 -2.454,-1.051c-1.632,-0.573 -2.835,-0.646 -3.274,0.233c-0.58,1.16 1.773,1.832 2.956,2.17l0.027,0.008c0.479,-0.262 1.07,-0.437 1.688,-0.506c1.09139,-0.11435 2.19358,0.06303 3.194,0.514c1.321,0.585 2.03,1.82 2.297,2.948c0.135,0.572 0.17,1.16 0.1,1.696c-0.067,0.52 -0.245,1.078 -0.615,1.501c-0.77,0.883 -1.905,0.784 -2.52,0.654c-0.38916,-0.08455 -0.76755,-0.21269 -1.128,-0.382l-0.078,-0.038l-0.032,-0.016l-0.003,-0.002l-0.002,-0.001c-0.44403,-0.24546 -0.61166,-0.79999 -0.37796,-1.25032c0.2337,-0.45033 0.78365,-0.63247 1.23996,-0.41068l-2.103,-3.316c-0.515,0.1 -0.796,0.305 -0.9,0.409c-0.468,0.467 -0.702,0.936 -0.702,1.17c0,0.018 -0.004,0.023 -0.01,0.024c-0.0181,0.14784 -0.01066,0.29768 0.022,0.443c0.03573,0.16426 0.11882,0.31445 0.239,0.432c0.279,0.269 0.676,0.27 0.684,0.27c-0.007,0.018 -0.26,0.673 -0.234,1.404c0.005,0.163 0.05,0.311 0.125,0.447c0.448,0.805 2.016,1.162 3.332,1.462c0.552,0.126 1.06,0.242 1.424,0.377c0.348,0.116 1.271,0.322 2.053,0.49c0.449,0.06 1.085,0.076 1.722,-0.15c1.136,-0.403 1.348,-1.96 1.77,-3.268l-0.06,-0.023c-0.087,-0.032 -0.202,-0.068 -0.334,-0.11c-0.549,-0.173 -1.386,-0.437 -1.61,-0.863c-0.108,-0.207 -0.1,-0.484 -0.09,-0.808c0.016,-0.505 0.035,-1.123 -0.377,-1.765c-0.10133,-0.15667 -0.198,-0.301 -0.29,-0.433c-0.516,-0.756 -0.83,-1.214 -0.547,-2.6l0.297,-1.178l1.856,0.371l-0.01,0.054l-0.3,1.19c-0.04074,0.1795 -0.06153,0.36294 -0.062,0.547c-0.00075,0.03607 0.00501,0.07198 0.017,0.106v0.002c0.013,0.03 0.043,0.096 0.153,0.262c0.045,0.069 0.093,0.137 0.152,0.225l0.05,0.074c0.08,0.118 0.175,0.257 0.275,0.412c0.622,0.97 0.684,1.901 0.68,2.498v0.027l0.238,0.078l0.102,0.032l0.154,0.049c0.076,0.024 0.172,0.056 0.267,0.09c0.11,-0.202 0.407,-0.636 0.945,-0.636c0.701,0 0.989,0.987 0.989,0.987c0.276,1.84 -0.979,8.013 -2.793,9.164c-1.386,0.88 -2.412,-0.428 -3.175,-2.438c-0.17,-0.037 -0.357,-0.075 -0.548,-0.117c-0.7,-0.151 -1.649,-0.364 -2.096,-0.512l-0.033,-0.01l-0.032,-0.014c-0.199,-0.073 -0.535,-0.156 -1.09,-0.283l-0.103,-0.023c-0.48,-0.11 -1.07,-0.243 -1.63,-0.412c-0.578,-0.176 -1.295,-0.437 -1.903,-0.862c-0.638,-0.446 -1.363,-1.233 -1.404,-2.413c-0.00564,-0.16971 -0.00264,-0.3396 0.009,-0.509c-0.32229,-0.34888 -0.54684,-0.7766 -0.651,-1.24c-0.09601,-0.4209 -0.0857,-0.85908 0.03,-1.275c0.083,-0.317 0.211,-0.594 0.317,-0.801c0.036,-0.07067 0.07267,-0.13933 0.11,-0.206c-0.351,-0.11 -0.748,-0.248 -1.133,-0.412c-0.504,-0.215 -1.219,-0.569 -1.752,-1.14c-0.35334,-0.36925 -0.59887,-0.82816 -0.71,-1.327c-0.11845,-0.56939 -0.03871,-1.16216 0.226,-1.68c0.604,-1.208 1.756,-1.635 2.782,-1.672c0.926,-0.033 1.912,0.226 2.795,0.536c0.804,0.282 1.955,0.806 2.933,1.263c0.34468,-0.56205 0.72864,-1.09906 1.149,-1.607l0.08,-0.096l0.091,-0.084c0.56839,-0.51857 1.29464,-0.83097 2.062,-0.887M11.746,12.788c-0.69737,-0.31643 -1.46605,-0.4427 -2.228,-0.366l1.874,3.356l0.04,0.02c0.03867,0.018 0.095,0.04233 0.169,0.073c0.149,0.06 0.347,0.128 0.554,0.173c0.494,0.104 0.67,0.004 0.721,-0.053c0.04,-0.047 0.129,-0.202 0.169,-0.511c0.03904,-0.34254 0.01669,-0.6893 -0.066,-1.024c-0.18,-0.76 -0.61,-1.392 -1.233,-1.668M16.165,5.655l0.19,0.102c0.964,0.516 1.238,1.406 1.31,1.875c0.04293,0.29019 0.04158,0.58521 -0.004,0.875l-0.004,0.029l-0.003,0.012v0.009l-0.002,0.001c-0.006,0 -0.107,-0.02 -1.856,-0.369c0,0 0.109,-0.578 -0.319,-0.807l0.48,-1.785zM3.33,2.752c0.22807,-0.46336 0.78833,-0.65444 1.252,-0.427c0.737,0.361 1.578,0.813 2.394,1.733c0.32878,0.38808 0.28749,0.96768 -0.09299,1.30523c-0.38048,0.33754 -0.96088,0.30947 -1.30701,-0.06323c-0.573,-0.645 -1.152,-0.968 -1.818,-1.295c-0.22297,-0.10935 -0.39334,-0.30282 -0.47361,-0.53782c-0.08027,-0.235 -0.06387,-0.49227 0.04561,-0.71518M12.451,0.918c0.2733,-0.42974 0.84004,-0.56211 1.27542,-0.29789c0.43538,0.26422 0.57961,0.82806 0.32458,1.26889c-0.40276,0.677 -0.6634,1.42896 -0.766,2.21c-0.08355,0.49648 -0.54487,0.83793 -1.0441,0.7728c-0.49924,-0.06513 -0.85751,-0.5135 -0.8109,-1.0148c0.13371,-1.03952 0.48098,-2.04015 1.02,-2.939M8.388,0.028c0.50114,-0.1247 1.00859,0.18004 1.134,0.681c0.06667,0.26067 0.13533,0.51933 0.206,0.776c0.157,0.58 0.316,1.16 0.417,1.771c0.05875,0.49726 -0.28384,0.95284 -0.77787,1.03442c-0.49403,0.08158 -0.9649,-0.23967 -1.06913,-0.72942c-0.086,-0.517 -0.204,-0.95 -0.347,-1.474c-0.08468,-0.30711 -0.16601,-0.61513 -0.244,-0.924c-0.1254,-0.50116 0.17895,-1.00915 0.68,-1.135" fill="#62757e"></path></g></g>
  </g>
  <g id="Regular-S" transform="matrix(3.915 0 0 3.915 1402.75 614)">
    <defs><clipPath id="clip-1"><rect x="0" y="0" width="24" height="24" fill="none"></rect></clipPath><clipPath id="clip-2"><path d="M0,0h24v24h-24z" id="a" fill="none"></path></clipPath></defs>
<g clip-path="url(#clip-1)" fill="none" fill-rule="nonzero" stroke="none" stroke-width="1" stroke-linecap="butt" stroke-linejoin="miter" stroke-miterlimit="10" stroke-dasharray="" stroke-dashoffset="0" font-family="none" font-weight="none" font-size="none" text-anchor="none" style="mix-blend-mode: normal"><g clip-path="url(#clip-2)"><path d="M14.833,5.5c0.35468,-0.02574 0.71122,0.00122 1.058,0.08l0.035,0.01l0.016,0.003l0.007,0.002l0.004,0.001l0.002,0.001c-0.001,0.006 -0.025,0.1 -0.478,1.785c0,0 -0.747,-0.206 -1.39,0.36l-0.019,0.018l-0.06,0.073l-0.085,0.107l-0.025,0.031c-0.641,0.813 -0.604,1.153 -1.773,2.557c0,0 -0.61,-0.282 -0.975,-0.453l-0.783,-0.367c-0.869,-0.405 -1.79,-0.819 -2.454,-1.051c-1.632,-0.573 -2.835,-0.646 -3.274,0.233c-0.58,1.16 1.773,1.832 2.956,2.17l0.027,0.008c0.479,-0.262 1.07,-0.437 1.688,-0.506c1.09139,-0.11435 2.19358,0.06303 3.194,0.514c1.321,0.585 2.03,1.82 2.297,2.948c0.135,0.572 0.17,1.16 0.1,1.696c-0.067,0.52 -0.245,1.078 -0.615,1.501c-0.77,0.883 -1.905,0.784 -2.52,0.654c-0.38916,-0.08455 -0.76755,-0.21269 -1.128,-0.382l-0.078,-0.038l-0.032,-0.016l-0.003,-0.002l-0.002,-0.001c-0.44403,-0.24546 -0.61166,-0.79999 -0.37796,-1.25032c0.2337,-0.45033 0.78365,-0.63247 1.23996,-0.41068l-2.103,-3.316c-0.515,0.1 -0.796,0.305 -0.9,0.409c-0.468,0.467 -0.702,0.936 -0.702,1.17c0,0.018 -0.004,0.023 -0.01,0.024c-0.0181,0.14784 -0.01066,0.29768 0.022,0.443c0.03573,0.16426 0.11882,0.31445 0.239,0.432c0.279,0.269 0.676,0.27 0.684,0.27c-0.007,0.018 -0.26,0.673 -0.234,1.404c0.005,0.163 0.05,0.311 0.125,0.447c0.448,0.805 2.016,1.162 3.332,1.462c0.552,0.126 1.06,0.242 1.424,0.377c0.348,0.116 1.271,0.322 2.053,0.49c0.449,0.06 1.085,0.076 1.722,-0.15c1.136,-0.403 1.348,-1.96 1.77,-3.268l-0.06,-0.023c-0.087,-0.032 -0.202,-0.068 -0.334,-0.11c-0.549,-0.173 -1.386,-0.437 -1.61,-0.863c-0.108,-0.207 -0.1,-0.484 -0.09,-0.808c0.016,-0.505 0.035,-1.123 -0.377,-1.765c-0.10133,-0.15667 -0.198,-0.301 -0.29,-0.433c-0.516,-0.756 -0.83,-1.214 -0.547,-2.6l0.297,-1.178l1.856,0.371l-0.01,0.054l-0.3,1.19c-0.04074,0.1795 -0.06153,0.36294 -0.062,0.547c-0.00075,0.03607 0.00501,0.07198 0.017,0.106v0.002c0.013,0.03 0.043,0.096 0.153,0.262c0.045,0.069 0.093,0.137 0.152,0.225l0.05,0.074c0.08,0.118 0.175,0.257 0.275,0.412c0.622,0.97 0.684,1.901 0.68,2.498v0.027l0.238,0.078l0.102,0.032l0.154,0.049c0.076,0.024 0.172,0.056 0.267,0.09c0.11,-0.202 0.407,-0.636 0.945,-0.636c0.701,0 0.989,0.987 0.989,0.987c0.276,1.84 -0.979,8.013 -2.793,9.164c-1.386,0.88 -2.412,-0.428 -3.175,-2.438c-0.17,-0.037 -0.357,-0.075 -0.548,-0.117c-0.7,-0.151 -1.649,-0.364 -2.096,-0.512l-0.033,-0.01l-0.032,-0.014c-0.199,-0.073 -0.535,-0.156 -1.09,-0.283l-0.103,-0.023c-0.48,-0.11 -1.07,-0.243 -1.63,-0.412c-0.578,-0.176 -1.295,-0.437 -1.903,-0.862c-0.638,-0.446 -1.363,-1.233 -1.404,-2.413c-0.00564,-0.16971 -0.00264,-0.3396 0.009,-0.509c-0.32229,-0.34888 -0.54684,-0.7766 -0.651,-1.24c-0.09601,-0.4209 -0.0857,-0.85908 0.03,-1.275c0.083,-0.317 0.211,-0.594 0.317,-0.801c0.036,-0.07067 0.07267,-0.13933 0.11,-0.206c-0.351,-0.11 -0.748,-0.248 -1.133,-0.412c-0.504,-0.215 -1.219,-0.569 -1.752,-1.14c-0.35334,-0.36925 -0.59887,-0.82816 -0.71,-1.327c-0.11845,-0.56939 -0.03871,-1.16216 0.226,-1.68c0.604,-1.208 1.756,-1.635 2.782,-1.672c0.926,-0.033 1.912,0.226 2.795,0.536c0.804,0.282 1.955,0.806 2.933,1.263c0.34468,-0.56205 0.72864,-1.09906 1.149,-1.607l0.08,-0.096l0.091,-0.084c0.56839,-0.51857 1.29464,-0.83097 2.062,-0.887M11.746,12.788c-0.69737,-0.31643 -1.46605,-0.4427 -2.228,-0.366l1.874,3.356l0.04,0.02c0.03867,0.018 0.095,0.04233 0.169,0.073c0.149,0.06 0.347,0.128 0.554,0.173c0.494,0.104 0.67,0.004 0.721,-0.053c0.04,-0.047 0.129,-0.202 0.169,-0.511c0.03904,-0.34254 0.01669,-0.6893 -0.066,-1.024c-0.18,-0.76 -0.61,-1.392 -1.233,-1.668M16.165,5.655l0.19,0.102c0.964,0.516 1.238,1.406 1.31,1.875c0.04293,0.29019 0.04158,0.58521 -0.004,0.875l-0.004,0.029l-0.003,0.012v0.009l-0.002,0.001c-0.006,0 -0.107,-0.02 -1.856,-0.369c0,0 0.109,-0.578 -0.319,-0.807l0.48,-1.785zM3.33,2.752c0.22807,-0.46336 0.78833,-0.65444 1.252,-0.427c0.737,0.361 1.578,0.813 2.394,1.733c0.32878,0.38808 0.28749,0.96768 -0.09299,1.30523c-0.38048,0.33754 -0.96088,0.30947 -1.30701,-0.06323c-0.573,-0.645 -1.152,-0.968 -1.818,-1.295c-0.22297,-0.10935 -0.39334,-0.30282 -0.47361,-0.53782c-0.08027,-0.235 -0.06387,-0.49227 0.04561,-0.71518M12.451,0.918c0.2733,-0.42974 0.84004,-0.56211 1.27542,-0.29789c0.43538,0.26422 0.57961,0.82806 0.32458,1.26889c-0.40276,0.677 -0.6634,1.42896 -0.766,2.21c-0.08355,0.49648 -0.54487,0.83793 -1.0441,0.7728c-0.49924,-0.06513 -0.85751,-0.5135 -0.8109,-1.0148c0.13371,-1.03952 0.48098,-2.04015 1.02,-2.939M8.388,0.028c0.50114,-0.1247 1.00859,0.18004 1.134,0.681c0.06667,0.26067 0.13533,0.51933 0.206,0.776c0.157,0.58 0.316,1.16 0.417,1.771c0.05875,0.49726 -0.28384,0.95284 -0.77787,1.03442c-0.49403,0.08158 -0.9649,-0.23967 -1.06913,-0.72942c-0.086,-0.517 -0.204,-0.95 -0.347,-1.474c-0.08468,-0.30711 -0.16601,-0.61513 -0.244,-0.924c-0.1254,-0.50116 0.17895,-1.00915 0.68,-1.135" fill="#62757e"></path></g></g>
  </g>
 </g>
</svg>
