<?xml version="1.0" encoding="UTF-8"?>
<!--Generator: Apple Native CoreSVG 175.5-->
<!DOCTYPE svg
PUBLIC "-//W3C//DTD SVG 1.1//EN"
       "http://www.w3.org/Graphics/SVG/1.1/DTD/svg11.dtd">
<svg version="1.1" xmlns="http://www.w3.org/2000/svg" xmlns:xlink="http://www.w3.org/1999/xlink" width="3300" height="2200">
 <!--glyph: "", point size: 100.0, font version: "18.0d12e2", template writer version: "101"-->
 <g id="Notes">
  <rect height="2200" id="artboard" style="fill:white;opacity:1" width="3300" x="0" y="0"/>
  <line style="fill:none;stroke:black;opacity:1;stroke-width:0.5;" x1="263" x2="3036" y1="292" y2="292"/>
  <text style="stroke:none;fill:black;font-family:sans-serif;font-size:13;font-weight:bold;" transform="matrix(1 0 0 1 263 322)">Weight/Scale Variations</text>
  <text style="stroke:none;fill:black;font-family:sans-serif;font-size:13;text-anchor:middle;" transform="matrix(1 0 0 1 559.711 322)">Ultralight</text>
  <text style="stroke:none;fill:black;font-family:sans-serif;font-size:13;text-anchor:middle;" transform="matrix(1 0 0 1 856.422 322)">Thin</text>
  <text style="stroke:none;fill:black;font-family:sans-serif;font-size:13;text-anchor:middle;" transform="matrix(1 0 0 1 1153.13 322)">Light</text>
  <text style="stroke:none;fill:black;font-family:sans-serif;font-size:13;text-anchor:middle;" transform="matrix(1 0 0 1 1449.84 322)">Regular</text>
  <text style="stroke:none;fill:black;font-family:sans-serif;font-size:13;text-anchor:middle;" transform="matrix(1 0 0 1 1746.56 322)">Medium</text>
  <text style="stroke:none;fill:black;font-family:sans-serif;font-size:13;text-anchor:middle;" transform="matrix(1 0 0 1 2043.27 322)">Semibold</text>
  <text style="stroke:none;fill:black;font-family:sans-serif;font-size:13;text-anchor:middle;" transform="matrix(1 0 0 1 2339.98 322)">Bold</text>
  <text style="stroke:none;fill:black;font-family:sans-serif;font-size:13;text-anchor:middle;" transform="matrix(1 0 0 1 2636.69 322)">Heavy</text>
  <text style="stroke:none;fill:black;font-family:sans-serif;font-size:13;text-anchor:middle;" transform="matrix(1 0 0 1 2933.4 322)">Black</text>
  <line style="fill:none;stroke:black;opacity:1;stroke-width:0.5;" x1="263" x2="3036" y1="1903" y2="1903"/>
  <g transform="matrix(1 0 0 1 263 1933)">
   <path d="M9.24805 0.830078C13.5547 0.830078 17.1387-2.74414 17.1387-7.05078C17.1387-11.3574 13.5449-14.9316 9.23828-14.9316C4.94141-14.9316 1.36719-11.3574 1.36719-7.05078C1.36719-2.74414 4.95117 0.830078 9.24805 0.830078ZM9.24805-0.654297C5.70312-0.654297 2.87109-3.49609 2.87109-7.05078C2.87109-10.6055 5.69336-13.4473 9.23828-13.4473C12.793-13.4473 15.6445-10.6055 15.6445-7.05078C15.6445-3.49609 12.8027-0.654297 9.24805-0.654297ZM5.6543-7.05078C5.6543-6.62109 5.95703-6.32812 6.40625-6.32812L8.50586-6.32812L8.50586-4.20898C8.50586-3.76953 8.79883-3.4668 9.22852-3.4668C9.67773-3.4668 9.9707-3.76953 9.9707-4.20898L9.9707-6.32812L12.0898-6.32812C12.5293-6.32812 12.832-6.62109 12.832-7.05078C12.832-7.49023 12.5293-7.79297 12.0898-7.79297L9.9707-7.79297L9.9707-9.90234C9.9707-10.3516 9.67773-10.6543 9.22852-10.6543C8.79883-10.6543 8.50586-10.3516 8.50586-9.90234L8.50586-7.79297L6.40625-7.79297C5.95703-7.79297 5.6543-7.49023 5.6543-7.05078Z"/>
  </g>
  <g transform="matrix(1 0 0 1 281.867 1933)">
   <path d="M11.709 2.91016C17.1582 2.91016 21.6699-1.61133 21.6699-7.05078C21.6699-12.5 17.1484-17.0117 11.6992-17.0117C6.25977-17.0117 1.74805-12.5 1.74805-7.05078C1.74805-1.61133 6.26953 2.91016 11.709 2.91016ZM11.709 1.25C7.09961 1.25 3.41797-2.44141 3.41797-7.05078C3.41797-11.6602 7.08984-15.3516 11.6992-15.3516C16.3086-15.3516 20.0098-11.6602 20.0098-7.05078C20.0098-2.44141 16.3184 1.25 11.709 1.25ZM7.17773-7.05078C7.17773-6.57227 7.50977-6.25 8.00781-6.25L10.8789-6.25L10.8789-3.36914C10.8789-2.88086 11.2109-2.53906 11.6895-2.53906C12.1777-2.53906 12.5195-2.87109 12.5195-3.36914L12.5195-6.25L15.4004-6.25C15.8887-6.25 16.2305-6.57227 16.2305-7.05078C16.2305-7.53906 15.8887-7.88086 15.4004-7.88086L12.5195-7.88086L12.5195-10.752C12.5195-11.25 12.1777-11.5918 11.6895-11.5918C11.2109-11.5918 10.8789-11.25 10.8789-10.752L10.8789-7.88086L8.00781-7.88086C7.50977-7.88086 7.17773-7.53906 7.17773-7.05078Z"/>
  </g>
  <g transform="matrix(1 0 0 1 305.646 1933)">
   <path d="M14.9707 5.66406C21.9336 5.66406 27.6953-0.0976562 27.6953-7.05078C27.6953-14.0137 21.9238-19.7754 14.9609-19.7754C8.00781-19.7754 2.25586-14.0137 2.25586-7.05078C2.25586-0.0976562 8.01758 5.66406 14.9707 5.66406ZM14.9707 3.84766C8.93555 3.84766 4.08203-1.01562 4.08203-7.05078C4.08203-13.0957 8.92578-17.9492 14.9609-17.9492C21.0059-17.9492 25.8691-13.0957 25.8691-7.05078C25.8691-1.01562 21.0156 3.84766 14.9707 3.84766ZM9.19922-7.05078C9.19922-6.5332 9.57031-6.17188 10.1172-6.17188L14.0625-6.17188L14.0625-2.2168C14.0625-1.67969 14.4336-1.29883 14.9512-1.29883C15.4883-1.29883 15.8594-1.66992 15.8594-2.2168L15.8594-6.17188L19.8145-6.17188C20.3516-6.17188 20.7324-6.5332 20.7324-7.05078C20.7324-7.59766 20.3613-7.96875 19.8145-7.96875L15.8594-7.96875L15.8594-11.9141C15.8594-12.4609 15.4883-12.8418 14.9512-12.8418C14.4336-12.8418 14.0625-12.4609 14.0625-11.9141L14.0625-7.96875L10.1172-7.96875C9.57031-7.96875 9.19922-7.59766 9.19922-7.05078Z"/>
  </g>
  <text style="stroke:none;fill:black;font-family:sans-serif;font-size:13;font-weight:bold;" transform="matrix(1 0 0 1 263 1953)">Design Variations</text>
  <text style="stroke:none;fill:black;font-family:sans-serif;font-size:13;" transform="matrix(1 0 0 1 263 1971)">Symbols are supported in up to nine weights and three scales.</text>
  <text style="stroke:none;fill:black;font-family:sans-serif;font-size:13;" transform="matrix(1 0 0 1 263 1989)">For optimal layout with text and other symbols, vertically align</text>
  <text style="stroke:none;fill:black;font-family:sans-serif;font-size:13;" transform="matrix(1 0 0 1 263 2007)">symbols with the adjacent text.</text>
  <line style="fill:none;stroke:#00AEEF;stroke-width:0.5;opacity:1.0;" x1="776" x2="776" y1="1919" y2="1933"/>
  <g transform="matrix(1 0 0 1 776 1933)">
   <path d="M3.31055 0.15625C3.82812 0.15625 4.08203-0.0390625 4.26758-0.585938L5.52734-4.0332L11.2891-4.0332L12.5488-0.585938C12.7344-0.0390625 12.9883 0.15625 13.4961 0.15625C14.0137 0.15625 14.3457-0.15625 14.3457-0.644531C14.3457-0.810547 14.3164-0.966797 14.2383-1.17188L9.6582-13.3691C9.43359-13.9648 9.0332-14.2676 8.4082-14.2676C7.80273-14.2676 7.39258-13.9746 7.17773-13.3789L2.59766-1.16211C2.51953-0.957031 2.49023-0.800781 2.49023-0.634766C2.49023-0.146484 2.80273 0.15625 3.31055 0.15625ZM6.00586-5.51758L8.37891-12.0898L8.42773-12.0898L10.8008-5.51758Z"/>
  </g>
  <line style="fill:none;stroke:#00AEEF;stroke-width:0.5;opacity:1.0;" x1="793.197" x2="793.197" y1="1919" y2="1933"/>
  <text style="stroke:none;fill:black;font-family:sans-serif;font-size:13;font-weight:bold;" transform="matrix(1 0 0 1 776 1953)">Margins</text>
  <text style="stroke:none;fill:black;font-family:sans-serif;font-size:13;" transform="matrix(1 0 0 1 776 1971)">Leading and trailing margins on the left and right side of each symbol</text>
  <text style="stroke:none;fill:black;font-family:sans-serif;font-size:13;" transform="matrix(1 0 0 1 776 1989)">can be adjusted by modifying the x-location of the margin guidelines.</text>
  <text style="stroke:none;fill:black;font-family:sans-serif;font-size:13;" transform="matrix(1 0 0 1 776 2007)">Modifications are automatically applied proportionally to all</text>
  <text style="stroke:none;fill:black;font-family:sans-serif;font-size:13;" transform="matrix(1 0 0 1 776 2025)">scales and weights.</text>
  <g transform="matrix(1 0 0 1 1289 1933)">
   <path d="M2.8418 1.86523L4.54102 3.57422C5.40039 4.44336 6.38672 4.38477 7.31445 3.35938L18.0078-8.42773L17.041-9.4043L6.42578 2.27539C6.07422 2.67578 5.74219 2.77344 5.27344 2.30469L4.10156 1.14258C3.63281 0.683594 3.74023 0.341797 4.14062-0.0195312L15.6152-10.8203L14.6387-11.7871L3.04688-0.898438C2.06055 0.0195312 1.98242 0.996094 2.8418 1.86523ZM9.25781-16.3281C8.83789-15.918 8.80859-15.3418 9.04297-14.9512C9.27734-14.5898 9.73633-14.3555 10.3809-14.5215C11.8457-14.8633 13.3691-14.9219 14.7949-13.9844L14.209-12.5293C13.8672-11.6992 14.043-11.1133 14.5801-10.5664L16.875-8.25195C17.3633-7.76367 17.7734-7.74414 18.3398-7.8418L19.4043-8.03711L20.0684-7.36328L20.0293-6.80664C19.9902-6.30859 20.1172-5.92773 20.6055-5.44922L21.3672-4.70703C21.8457-4.22852 22.4609-4.19922 22.9297-4.66797L25.8398-7.58789C26.3086-8.05664 26.2891-8.65234 25.8105-9.13086L25.0391-9.89258C24.5605-10.3711 24.1895-10.5273 23.7109-10.4883L23.1348-10.4395L22.4902-11.0742L22.7344-12.1973C22.8613-12.7637 22.7051-13.2031 22.1191-13.7891L19.9219-15.9766C16.582-19.2969 12.1484-19.2188 9.25781-16.3281ZM10.752-15.957C13.1836-17.7344 16.4746-17.4316 18.7012-15.2051L21.1328-12.793C21.3672-12.5586 21.4062-12.373 21.3379-12.0312L21.0156-10.5469L22.5195-9.0625L23.5059-9.12109C23.7598-9.13086 23.8379-9.11133 24.0332-8.91602L24.6094-8.33984L22.168-5.89844L21.5918-6.47461C21.3965-6.66992 21.3672-6.74805 21.377-7.01172L21.4453-7.98828L19.9512-9.47266L18.4277-9.21875C18.1055-9.15039 17.959-9.17969 17.7148-9.41406L15.7129-11.416C15.459-11.6504 15.4297-11.8164 15.5859-12.1875L16.4648-14.2773C14.9023-15.7324 12.8711-16.3574 10.8398-15.7617C10.6836-15.7227 10.625-15.8496 10.752-15.957Z"/>
  </g>
  <text style="stroke:none;fill:black;font-family:sans-serif;font-size:13;font-weight:bold;" transform="matrix(1 0 0 1 1289 1953)">Exporting</text>
  <text style="stroke:none;fill:black;font-family:sans-serif;font-size:13;" transform="matrix(1 0 0 1 1289 1971)">Symbols should be outlined when exporting to ensure the</text>
  <text style="stroke:none;fill:black;font-family:sans-serif;font-size:13;" transform="matrix(1 0 0 1 1289 1989)">design is preserved when submitting to Xcode.</text>
  <text id="template-version" style="stroke:none;fill:black;font-family:sans-serif;font-size:13;text-anchor:end;" transform="matrix(1 0 0 1 3036 1933)">Template v.4.0</text>
  <text style="stroke:none;fill:black;font-family:sans-serif;font-size:13;text-anchor:end;" transform="matrix(1 0 0 1 3036 1951)">Requires Xcode 14 or greater</text>
  <text id="descriptive-name" style="stroke:none;fill:black;font-family:sans-serif;font-size:13;text-anchor:end;" transform="matrix(1 0 0 1 3036 1969)">Generated from brave.zzz</text>
  <text style="stroke:none;fill:black;font-family:sans-serif;font-size:13;text-anchor:end;" transform="matrix(1 0 0 1 3036 1987)">Typeset at 100 points</text>
  <text style="stroke:none;fill:black;font-family:sans-serif;font-size:13;" transform="matrix(1 0 0 1 263 726)">Small</text>
  <text style="stroke:none;fill:black;font-family:sans-serif;font-size:13;" transform="matrix(1 0 0 1 263 1156)">Medium</text>
  <text style="stroke:none;fill:black;font-family:sans-serif;font-size:13;" transform="matrix(1 0 0 1 263 1586)">Large</text>
 </g>
 <g id="Guides">
  <g id="H-reference" style="fill:#27AAE1;stroke:none;" transform="matrix(1 0 0 1 339 696)">
   <path d="M0.993654 0L3.63775 0L29.3281-67.1323L30.0303-67.1323L30.0303-70.459L28.1226-70.459ZM11.6885-24.4799L46.9815-24.4799L46.2315-26.7285L12.4385-26.7285ZM55.1196 0L57.7637 0L30.6382-70.459L29.4326-70.459L29.4326-67.1323Z"/>
  </g>
  <line id="Baseline-S" style="fill:none;stroke:#27AAE1;opacity:1;stroke-width:0.5;" x1="263" x2="3036" y1="696" y2="696"/>
  <line id="Capline-S" style="fill:none;stroke:#27AAE1;opacity:1;stroke-width:0.5;" x1="263" x2="3036" y1="625.541" y2="625.541"/>
  <g id="H-reference" style="fill:#27AAE1;stroke:none;" transform="matrix(1 0 0 1 339 1126)">
   <path d="M0.993654 0L3.63775 0L29.3281-67.1323L30.0303-67.1323L30.0303-70.459L28.1226-70.459ZM11.6885-24.4799L46.9815-24.4799L46.2315-26.7285L12.4385-26.7285ZM55.1196 0L57.7637 0L30.6382-70.459L29.4326-70.459L29.4326-67.1323Z"/>
  </g>
  <line id="Baseline-M" style="fill:none;stroke:#27AAE1;opacity:1;stroke-width:0.5;" x1="263" x2="3036" y1="1126" y2="1126"/>
  <line id="Capline-M" style="fill:none;stroke:#27AAE1;opacity:1;stroke-width:0.5;" x1="263" x2="3036" y1="1055.54" y2="1055.54"/>
  <g id="H-reference" style="fill:#27AAE1;stroke:none;" transform="matrix(1 0 0 1 339 1556)">
   <path d="M0.993654 0L3.63775 0L29.3281-67.1323L30.0303-67.1323L30.0303-70.459L28.1226-70.459ZM11.6885-24.4799L46.9815-24.4799L46.2315-26.7285L12.4385-26.7285ZM55.1196 0L57.7637 0L30.6382-70.459L29.4326-70.459L29.4326-67.1323Z"/>
  </g>
  <line id="Baseline-L" style="fill:none;stroke:#27AAE1;opacity:1;stroke-width:0.5;" x1="263" x2="3036" y1="1556" y2="1556"/>
  <line id="Capline-L" style="fill:none;stroke:#27AAE1;opacity:1;stroke-width:0.5;" x1="263" x2="3036" y1="1485.54" y2="1485.54"/>
  <line id="left-margin-Regular-M" style="fill:none;stroke:#00AEEF;stroke-width:0.5;opacity:1.0;" x1="1389.82" x2="1389.82" y1="1030.79" y2="1150.12"/>
  <line id="right-margin-Regular-M" style="fill:none;stroke:#00AEEF;stroke-width:0.5;opacity:1.0;" x1="1509.87" x2="1509.87" y1="1030.79" y2="1150.12"/>
 </g>
 <g id="Symbols">
  <g id="Regular-L" transform="matrix(6.45 0 0 6.45 1372.2675 1443)">
    <defs><clipPath id="clip-1"><rect x="0" y="0" width="24" height="24" fill="none" fill-rule="nonzero"></rect></clipPath></defs>
<g clip-path="url(#clip-1)" fill="none" fill-rule="none" stroke="none" stroke-width="1" stroke-linecap="butt" stroke-linejoin="miter" stroke-miterlimit="10" stroke-dasharray="" stroke-dashoffset="0" font-family="none" font-weight="none" font-size="none" text-anchor="none" style="mix-blend-mode: normal"><path d="M21.787,15.242c-0.01122,-0.13911 -0.01122,-0.27889 0,-0.418v-0.113c0,-0.102 -0.033,-0.203 -0.09,-0.282c-0.056,-0.068 -0.11067,-0.136 -0.164,-0.204c-0.1053,-0.13182 -0.16308,-0.29529 -0.164,-0.464v-0.146c-0.00364,-0.06228 -0.0189,-0.12333 -0.045,-0.18l-0.097,-0.222c-0.07,-0.159 -0.107,-0.331 -0.127,-0.504l-0.013,-0.122v-0.071c0,-0.03533 -0.00533,-0.07 -0.016,-0.104c-0.0122,-0.04521 -0.02965,-0.08884 -0.052,-0.13c-0.034,-0.05667 -0.06767,-0.115 -0.101,-0.175c-0.034,-0.05933 -0.068,-0.11733 -0.102,-0.174l-0.102,-0.17c-0.045,-0.102 -0.112,-0.238 -0.192,-0.373l-0.056,-0.113c-0.091,-0.144 -0.173,-0.263 -0.25,-0.378l-0.05,-0.072c-0.04133,-0.06133 -0.077,-0.126 -0.107,-0.194l-0.203,-0.373l-0.142,-0.283c-0.056,-0.11267 -0.10133,-0.22933 -0.136,-0.35l-0.096,-0.338c-0.03067,-0.08533 -0.06067,-0.164 -0.09,-0.236c-0.02467,-0.05867 -0.047,-0.11533 -0.067,-0.17l-0.068,-0.17c-0.022,-0.057 -0.056,-0.113 -0.102,-0.158l-0.197,-0.187h-0.001l-0.13,-0.125c-0.044,-0.04067 -0.08133,-0.08733 -0.112,-0.14c-0.04933,-0.088 -0.10267,-0.17433 -0.16,-0.259v-0.001l-0.066,-0.102l-0.034,-0.045l-0.005,-0.006l-1.218,1.219l0.003,0.007l0.056,0.124c0.079,0.181 0.147,0.339 0.215,0.509c0.0373,0.09446 0.10481,0.17393 0.192,0.226l0.045,0.034c0.23724,0.13845 0.42852,0.34364 0.55,0.59l0.003,0.009l0.14,0.25c0.06559,0.11775 0.10898,0.24656 0.128,0.38l0.026,0.182l0.01,0.06c0.00674,0.06382 0.02221,0.1264 0.046,0.186l0.024,0.048l0.135,0.232v0.001c0.046,0.07467 0.09133,0.15133 0.136,0.23c0.01629,0.03006 0.03759,0.05712 0.063,0.08l0.03,0.033l0.02,0.023c0.05937,0.07881 0.12107,0.15584 0.185,0.231l0.097,0.119l0.09,0.136l0.085,0.13l0.039,0.057c0.03098,0.04828 0.05774,0.09913 0.08,0.152l0.022,0.067l0.117,0.298l0.003,0.006l0.003,0.008l0.004,0.012c0.01964,0.04581 0.04411,0.08939 0.073,0.13l0.014,0.021l0.067,0.105c0.10505,0.16278 0.1859,0.33997 0.24,0.526l0.055,0.194l0.215,0.564l0.254,0.508l0.003,0.006l0.007,0.017c0.00636,0.01601 0.01476,0.03114 0.025,0.045l0.022,0.032l0.01,0.014l0.063,0.09c0.07593,0.10648 0.14765,0.2159 0.215,0.328c0.08208,0.13326 0.2275,0.2143 0.384,0.214h0.008c0.1266,-0.00192 0.24662,-0.05673 0.33097,-0.15115c0.08435,-0.09442 0.12534,-0.21984 0.11303,-0.34585c-0.00667,-0.066 -0.01467,-0.12967 -0.024,-0.191c-0.00667,-0.03933 -0.01233,-0.07867 -0.017,-0.118c-0.001,-0.013 -0.019,-0.016 -0.025,-0.005c-0.007,0.012 -0.025,0.007 -0.025,-0.007v-0.063M15.087,11.056l-0.001,-0.001l-1.225,1.225l0.019,0.07l0.022,0.09c0.038,0.148 0.074,0.29 0.102,0.441c0.02657,0.10439 0.07688,0.20123 0.147,0.283c0.113,0.113 0.497,0.711 0.553,0.858l0.08,0.215c0.022,0.06733 0.04433,0.13333 0.067,0.198c0.02267,0.064 0.034,0.12967 0.034,0.197c0,0.147 0,0.294 -0.011,0.44c0,0.057 0,0.114 0.022,0.17l0.196,0.543l0.005,0.015l0.025,0.063l0.283,0.554l0.121,0.29c0.05467,0.13067 0.095,0.26533 0.121,0.404l0.06,0.322c0.00654,0.03441 0.01489,0.06846 0.025,0.102l0.08,0.192l0.039,0.096v0.001l0.053,0.13c0.022,0.06 0.03267,0.12133 0.032,0.184c0,0.03533 0.003,0.07 0.009,0.104c0.01467,0.10667 0.02667,0.21367 0.036,0.321c0,0.07533 0.00933,0.14967 0.028,0.223c0.03133,0.132 0.056,0.26867 0.074,0.41c0,0.027 0.008,0.054 0.016,0.08l0.01,0.034l0.008,0.033l0.056,0.203l0.074,0.277l0.003,0.01l0.007,0.024l0.018,0.05c0.044,0.089 0.081,0.184 0.117,0.275l0.03,0.076l0.067,0.17c0.06631,0.17243 0.23328,0.28507 0.418,0.282c0.04525,0.00229 0.09056,-0.00312 0.134,-0.016c0.1813,-0.05853 0.30775,-0.22277 0.318,-0.413v-0.147l0.011,-0.116c0.014,-0.156 0.03,-0.311 0.066,-0.463l0.002,-0.009c0.045,-0.19 -0.02,-0.345 -0.076,-0.48l-0.003,-0.012c-0.002,-0.012 -0.00667,-0.02333 -0.014,-0.034c-0.0022,-0.00343 -0.00578,-0.00574 -0.00981,-0.00631c-0.00403,-0.00058 -0.00812,0.00063 -0.01119,0.00331l-0.016,0.016c-0.019,0.018 -0.052,0.005 -0.056,-0.02c-0.00647,-0.04324 -0.01998,-0.08513 -0.04,-0.124c-0.00768,-0.01346 -0.01214,-0.02852 -0.013,-0.044c-0.00267,-0.01533 -0.00733,-0.031 -0.014,-0.047c-0.00409,-0.01335 -0.00677,-0.02709 -0.008,-0.041l-0.01,-0.066c-0.02487,-0.0997 -0.0303,-0.20325 -0.016,-0.305l0.016,-0.128l0.016,-0.079c0.02229,-0.11043 0.02365,-0.22407 0.004,-0.335c-0.02267,-0.11067 -0.048,-0.221 -0.076,-0.331c-0.02176,-0.08994 -0.02952,-0.1827 -0.023,-0.275l0.023,-0.279l0.002,-0.078c0.002,-0.05 0.005,-0.098 -0.001,-0.147l-0.017,-0.094l-0.21,-0.596l-0.17,-0.576c-0.02066,-0.06114 -0.05105,-0.11854 -0.09,-0.17l-0.326,-0.386c-0.02879,-0.03365 -0.04123,-0.07831 -0.034,-0.122l0.001,-0.006c0.023,-0.145 0.051,-0.33 -0.014,-0.513l-0.03,-0.098c-0.02933,-0.09133 -0.057,-0.187 -0.083,-0.287c-0.02905,-0.10516 -0.04946,-0.21252 -0.061,-0.321l-0.033,-0.24c-0.00427,-0.03252 -0.00694,-0.06522 -0.008,-0.098c-0.00034,-0.05735 -0.00773,-0.11445 -0.022,-0.17c-0.056,-0.211 -0.096,-0.391 -0.136,-0.571c-0.01064,-0.05689 -0.0335,-0.1108 -0.067,-0.158l-0.046,-0.057l-0.096,-0.136l-0.12,-0.169c-0.0654,-0.09028 -0.11791,-0.18923 -0.156,-0.294c-0.028,-0.06267 -0.05467,-0.12667 -0.08,-0.192c-0.02467,-0.06533 -0.051,-0.12933 -0.079,-0.192c-0.00542,-0.01586 -0.01281,-0.03098 -0.022,-0.045l-0.016,-0.026l-0.037,-0.06zM15.193,6.16l-1.599,1.599l-0.231,-0.445c-0.02378,-0.04675 -0.05119,-0.09155 -0.082,-0.134c-0.01583,-0.02247 -0.03467,-0.04266 -0.056,-0.06c-0.113,-0.102 -0.238,-0.203 -0.362,-0.305c-0.03691,-0.03727 -0.06614,-0.08145 -0.086,-0.13l-0.174,-0.435l-0.006,-0.013c-0.03,-0.06 -0.07,-0.111 -0.11,-0.164l-0.051,-0.07c-0.07835,-0.11351 -0.15078,-0.231 -0.217,-0.352l-0.27,-0.51l-0.002,-0.002l-0.018,-0.03l-0.013,-0.02l-0.038,-0.059l-0.348,-0.474c-0.04169,-0.0725 -0.0864,-0.14323 -0.134,-0.212l-0.092,-0.139l-0.045,-0.07l-0.003,-0.005c-0.03507,-0.05799 -0.07595,-0.11227 -0.122,-0.162l-0.462,-0.43l-0.332,-0.266c-0.08736,-0.07038 -0.16865,-0.14799 -0.243,-0.232l-0.124,-0.14c-0.07613,-0.08595 -0.14472,-0.17829 -0.205,-0.276c-0.0314,-0.04813 -0.06141,-0.09715 -0.09,-0.147l-0.068,-0.113c-0.1374,-0.20468 -0.41172,-0.26466 -0.622,-0.136c-0.21006,0.13289 -0.27499,0.40953 -0.146,0.622l0.079,0.124c0.056,0.09 0.113,0.18 0.169,0.282l0.226,0.509c0.056,0.135 0.147,0.26 0.226,0.361c0.04095,0.04784 0.07526,0.10099 0.102,0.158c0.079,0.204 0.146,0.396 0.214,0.588c0.023,0.079 0.08,0.147 0.136,0.203l0.135,0.113c0.04,0.03333 0.07967,0.06533 0.119,0.096c0.077,0.061 0.127,0.15 0.143,0.247l0.049,0.3l0.015,0.07c0.00987,0.03951 0.02572,0.07728 0.047,0.112l0.305,0.53c0.034,0.057 0.08,0.114 0.147,0.148c0.06733,0.04467 0.13333,0.08967 0.198,0.135c0.125,0.087 0.21,0.222 0.234,0.373l0.031,0.203c0.01092,0.10969 0.06354,0.211 0.147,0.283l0.147,0.124c0.12414,0.1064 0.1945,0.26252 0.192,0.426v0.148c-0.00133,0.05467 0.00433,0.108 0.017,0.16c0.02601,0.10174 0.08339,0.19271 0.164,0.26c0.06667,0.056 0.13433,0.11067 0.203,0.164c0.018,0.014 0.03567,0.02933 0.053,0.046l-1.903,1.903l-0.06,-0.181l-0.044,-0.192l-0.051,-0.226v-0.001l-0.033,-0.145l-0.007,-0.034c-0.009,-0.043 -0.017,-0.085 -0.038,-0.123l-0.007,-0.013l-0.294,-0.622l-0.046,-0.114c-0.03533,-0.08667 -0.07267,-0.18033 -0.112,-0.281l-0.06,-0.149c-0.01915,-0.05185 -0.04256,-0.10202 -0.07,-0.15c-0.01145,-0.01839 -0.02486,-0.03549 -0.04,-0.051c-0.11317,-0.13358 -0.22818,-0.2656 -0.345,-0.396c-0.04761,-0.05187 -0.08373,-0.11321 -0.106,-0.18c-0.04525,-0.16311 -0.09427,-0.32515 -0.147,-0.486c-0.02234,-0.06839 -0.05918,-0.13115 -0.108,-0.184l-0.044,-0.056l-0.054,-0.075c-0.14729,-0.20276 -0.25516,-0.43139 -0.318,-0.674l-0.046,-0.177c-0.01106,-0.0439 -0.0251,-0.087 -0.042,-0.129l-0.02,-0.038l-0.238,-0.407l-0.124,-0.203l-0.147,-0.283l-0.146,-0.273c-0.02366,-0.04256 -0.0504,-0.08334 -0.08,-0.122l-0.147,-0.17c-0.09881,-0.12272 -0.2005,-0.24309 -0.305,-0.361l-0.354,-0.322c-0.09439,-0.08639 -0.17648,-0.18531 -0.244,-0.294l-0.102,-0.164l-0.124,-0.203l-0.102,-0.214l-0.136,-0.26c-0.08405,-0.15194 -0.24649,-0.2436 -0.42,-0.237c-0.12815,0.01046 -0.24571,0.07525 -0.323,0.178c-0.10827,0.14007 -0.12654,0.32984 -0.047,0.488l0.124,0.237l0.113,0.226l0.135,0.237c0.03533,0.058 0.06967,0.116 0.103,0.174c0.06133,0.10933 0.108,0.225 0.14,0.347l0.119,0.417c0.045,0.147 0.079,0.282 0.113,0.43l0.056,0.225c0.02202,0.06968 0.05659,0.13475 0.102,0.192l0.249,0.26l0.103,0.112c0.02067,0.02333 0.03133,0.051 0.032,0.083l0.001,0.017c0.022,0.155 0.033,0.3 0.044,0.455c0,0.083 0.039,0.16 0.077,0.236l0.037,0.075l0.167,0.375c0.02333,0.05533 0.05067,0.108 0.082,0.158l0.055,0.07c0.06867,0.06733 0.13867,0.13333 0.21,0.198c0.1324,0.12838 0.21286,0.30105 0.226,0.485l0.005,0.052v0.158c0.01191,0.09904 0.05103,0.19284 0.113,0.271c0.05667,0.068 0.115,0.13567 0.175,0.203c0.114,0.13 0.176,0.299 0.161,0.472l-0.005,0.064l-0.015,0.187c0,0.125 0.034,0.249 0.113,0.34l0.3,0.332c0.07,0.078 0.113,0.175 0.13,0.277l0.022,0.159l0.012,0.071l0.003,0.021l0.004,0.024c0.00771,0.07344 0.02554,0.14545 0.053,0.214c0.01306,0.02798 0.02741,0.05535 0.043,0.082c0.105,0.169 0.209,0.346 0.303,0.514l0.056,0.124c0.02825,0.07658 0.05961,0.15198 0.094,0.226l-2.562,2.562l-0.006,-0.043l-0.03,-0.305c-0.01,-0.10467 -0.00933,-0.21 0.002,-0.316l0.017,-0.158l0.003,-0.018c0.01336,-0.09374 0.02004,-0.18831 0.02,-0.283v-0.456c0.00126,-0.06675 -0.01421,-0.13276 -0.045,-0.192l-0.046,-0.102l-0.078,-0.164c-0.07453,-0.15407 -0.12897,-0.31707 -0.162,-0.485l-0.034,-0.176c-0.00531,-0.02996 -0.01198,-0.05965 -0.02,-0.089l-0.002,-0.005c-0.01392,-0.04206 -0.03063,-0.08315 -0.05,-0.123l-0.048,-0.097c-0.06755,-0.149 -0.08779,-0.31514 -0.058,-0.476l0.034,-0.147c0.0185,-0.10745 0.00276,-0.21799 -0.045,-0.316c-0.052,-0.102 -0.10667,-0.20533 -0.164,-0.31l-0.036,-0.065c-0.03952,-0.07389 -0.06719,-0.15352 -0.082,-0.236l-0.035,-0.167c-0.022,-0.1 -0.03633,-0.2 -0.043,-0.3l-0.02,-0.3c-0.00345,-0.06103 -0.01249,-0.12162 -0.027,-0.181l-0.192,-0.531l-0.01,-0.046c-0.02569,-0.11024 -0.05605,-0.21934 -0.091,-0.327l-0.034,-0.136c-0.01453,-0.05798 -0.04186,-0.11197 -0.08,-0.158c-0.09005,-0.12357 -0.18478,-0.24366 -0.284,-0.36c-0.0203,-0.02245 -0.03138,-0.05174 -0.031,-0.082l-0.002,-0.02l-0.05,-0.291c-0.00839,-0.07213 -0.02655,-0.14278 -0.054,-0.21c-0.01273,-0.02796 -0.02675,-0.05533 -0.042,-0.082l-0.04,-0.068c-0.12225,-0.20419 -0.19741,-0.43308 -0.22,-0.67l-0.008,-0.085l-0.007,-0.059c-0.00506,-0.03655 -0.01516,-0.07222 -0.03,-0.106l-0.169,-0.373l-0.079,-0.17l-0.103,-0.277l-0.089,-0.242c-0.00933,-0.02467 -0.02,-0.047 -0.032,-0.067l-0.028,-0.045l-0.046,-0.065c-0.09366,-0.13549 -0.19035,-0.26885 -0.29,-0.4l-0.146,-0.169c-0.04003,-0.04456 -0.08138,-0.08791 -0.124,-0.13l-0.049,-0.048c-0.05088,-0.05313 -0.09156,-0.11516 -0.12,-0.183c-0.05439,-0.11776 -0.11107,-0.23445 -0.17,-0.35l-0.147,-0.396c-0.06661,-0.17903 -0.23901,-0.2965 -0.43,-0.293h-0.007c-0.14512,0.00009 -0.28086,0.07172 -0.36282,0.19147c-0.08197,0.11975 -0.09962,0.27222 -0.04718,0.40753l0.146,0.417c0.068,0.147 0.113,0.26 0.159,0.373c0.03733,0.09133 0.06167,0.18533 0.073,0.282l0.017,0.147l0.023,0.181c0.022,0.18 0.033,0.362 0.045,0.542c0,0.09 0.045,0.181 0.101,0.249l0.084,0.103l0.055,0.066c0.081,0.1 0.115,0.229 0.097,0.357c-0.00867,0.056 -0.01567,0.11033 -0.021,0.163c0,0.068 0,0.135 0.011,0.203l0.158,0.52c0.02332,0.06545 0.05783,0.12636 0.102,0.18l0.215,0.224c0.058,0.06 0.088,0.14 0.069,0.22l-0.013,0.054l-0.022,0.147c-0.02151,0.12417 0.01126,0.25161 0.09,0.35c0.046,0.058 0.09133,0.117 0.136,0.177c0.065,0.087 0.083,0.2 0.05,0.303l-0.05,0.164c-0.04444,0.14902 -0.01058,0.31041 0.09,0.429l0.069,0.084c0.153,0.187 0.236,0.42 0.236,0.662c-0.00425,0.07544 0.01534,0.15031 0.056,0.214l0.216,0.43c0.01385,0.03004 0.0262,0.06074 0.037,0.092c0.06307,0.18053 0.01766,0.38122 -0.117,0.517c-0.10184,0.1371 -0.12316,0.31798 -0.056,0.475l0.286,0.615c0.116,0.25 0.177,0.522 0.177,0.797c0.00049,0.09759 0.03201,0.1925 0.09,0.271c0.07933,0.096 0.15433,0.19433 0.225,0.295l0.065,0.088c0.01733,0.02333 0.026,0.04967 0.026,0.079c0,0.008 0.001,0.01633 0.003,0.025c0.02,0.109 0.031,0.217 0.031,0.315l0.005,0.036c0.03413,0.27444 0.01098,0.55297 -0.068,0.818l-0.004,0.016c-0.02256,0.06989 -0.02256,0.14511 0,0.215c0.01,0.05067 0.01933,0.10333 0.028,0.158c0.008,0.05333 0.01733,0.106 0.028,0.158l0.03,0.171l0.004,0.03c0.00364,0.02538 0.01213,0.04982 0.025,0.072l0.016,0.035c0.03267,0.094 0.06333,0.189 0.092,0.285l-1.963,1.962c-0.32536,0.33303 -0.32226,0.86583 0.00696,1.19504c0.32922,0.32922 0.86201,0.33232 1.19504,0.00696l16,-16c0.2189,-0.21386 0.30594,-0.52889 0.22788,-0.82481c-0.07806,-0.29591 -0.30917,-0.52702 -0.60508,-0.60508c-0.29591,-0.07806 -0.61094,0.00898 -0.82481,0.22788l-2.658,2.658l-0.238,-0.33c-0.03615,-0.05317 -0.07734,-0.10274 -0.123,-0.148c-0.02121,-0.02088 -0.04469,-0.03933 -0.07,-0.055c-0.06133,-0.034 -0.123,-0.07 -0.185,-0.108l-0.187,-0.107c-0.02169,-0.01554 -0.04005,-0.03526 -0.054,-0.058l-0.217,-0.371l-0.023,-0.031c-0.05788,-0.07133 -0.12634,-0.13339 -0.203,-0.184l-0.13,-0.102l-0.058,-0.046c-0.0467,-0.03731 -0.08632,-0.0827 -0.117,-0.134l-0.068,-0.135c-0.03867,-0.07399 -0.07601,-0.14867 -0.112,-0.224c-0.03205,-0.06669 -0.0785,-0.12544 -0.136,-0.172c-0.01067,-0.008 -0.02,-0.01667 -0.028,-0.026l-0.334,-0.324l-0.343,-0.375c-0.0369,-0.04021 -0.07704,-0.07734 -0.12,-0.111l-0.18,-0.113l-0.181,-0.113l-0.072,-0.043l-0.034,-0.021l-0.048,-0.029l-0.016,-0.009l-0.397,-0.165l-0.02,-0.004c-0.01505,0.00017 -0.02937,-0.00644 -0.039,-0.018c-0.06203,-0.06645 -0.12852,-0.12859 -0.199,-0.186l-0.047,-0.04c-0.06654,-0.05618 -0.12934,-0.11664 -0.188,-0.181l-0.104,-0.117l-0.102,-0.102c-0.08724,-0.08737 -0.20371,-0.13938 -0.327,-0.146c-0.17774,-0.00269 -0.34018,0.10019 -0.41372,0.26202c-0.07354,0.16183 -0.0442,0.35186 0.07472,0.48398l0.113,0.124l0.09,0.102c0.03133,0.03333 0.06133,0.067 0.09,0.101l0.181,0.18c0.03467,0.03467 0.07067,0.069 0.108,0.103l0.034,0.031c0.04867,0.04667 0.088,0.1 0.118,0.16l0.054,0.097c0.05,0.08667 0.096,0.175 0.138,0.265l0.271,0.52c0.03906,0.07816 0.10263,0.14138 0.181,0.18c0.21734,0.12362 0.37856,0.32639 0.45,0.566l0.013,0.045c0.01987,0.05584 0.04675,0.10893 0.08,0.158c0.078,0.09 0.146,0.18 0.214,0.27l0.113,0.148c0.04595,0.06636 0.114,0.11422 0.192,0.135l0.076,0.03c0.177,0.07 0.303,0.222 0.353,0.405l0.023,0.085c0.0328,0.11783 0.10934,0.2187 0.214,0.282l0.147,0.08c0.1074,0.06398 0.18071,0.17249 0.2,0.296l0.038,0.234c0.01995,0.13333 0.09992,0.25016 0.217,0.317M11.779,14.485l-0.047,-0.077l-1.412,1.412c0.022,0.10533 0.04133,0.21033 0.058,0.315l0.056,0.248l0.005,0.018c0.05,0.212 0.064,0.432 0.042,0.65l-0.014,0.15c-0.01055,0.08469 -0.01021,0.17039 0.001,0.255l0.158,0.633l0.26,0.678l0.04,0.126c0.025,0.08 0.051,0.166 0.073,0.247c0.03733,0.12 0.062,0.243 0.074,0.369l0.017,0.184l0.02,0.2l0.003,0.037c0.00469,0.03543 0.01411,0.07007 0.028,0.103l0.015,0.042l0.04,0.138l0.063,0.203c0.03,0.11333 0.045,0.22833 0.045,0.345v0.4l0.057,0.678c0,0.03867 0.00333,0.076 0.01,0.112l0.012,0.07c0.034,0.169 0.068,0.338 0.09,0.508c0,0.037 0.012,0.072 0.024,0.107l0.003,0.01l0.005,0.017l0.07,0.227l0.08,0.282c0.05824,0.19443 0.23703,0.32771 0.44,0.328h0.034c0.21111,-0.01653 0.38366,-0.17505 0.418,-0.384l0.068,-0.542c0.054,-0.256 0.02,-0.772 -0.048,-1.156c-0.03079,-0.1615 -0.02807,-0.3276 0.008,-0.488c0.02,-0.08267 0.04067,-0.16367 0.062,-0.243c0.01218,-0.05601 0.01218,-0.11399 0,-0.17l-0.034,-0.214c-0.01079,-0.06177 -0.02013,-0.12379 -0.028,-0.186l-0.022,-0.152c-0.01075,-0.05918 -0.00802,-0.12002 0.008,-0.178c0.032,-0.125 0.051,-0.25 0.07,-0.374c0.00194,-0.01203 0.00868,-0.02275 0.01867,-0.02972c0.00999,-0.00697 0.02238,-0.0096 0.03433,-0.00728c0.01337,0.00305 0.0274,-0.00017 0.03811,-0.00874c0.01071,-0.00857 0.01693,-0.02155 0.01689,-0.03526v-0.11c0,-0.01 -0.00133,-0.02 -0.004,-0.03l-0.053,-0.222c-0.01733,-0.07333 -0.036,-0.14667 -0.056,-0.22c-0.02039,-0.07297 -0.03939,-0.14631 -0.057,-0.22l-0.124,-0.622l-0.226,-0.712l-0.147,-0.62c-0.027,-0.14029 -0.05701,-0.27999 -0.09,-0.419c-0.02276,-0.12001 -0.03447,-0.24185 -0.035,-0.364c-0.00103,-0.07841 -0.00436,-0.15678 -0.01,-0.235v-0.203c-0.02494,-0.18824 -0.05161,-0.37625 -0.08,-0.564l-0.007,-0.058c-0.01,-0.08 -0.02,-0.16 -0.06,-0.23z" fill="#62757e" fill-rule="nonzero"></path></g>
  </g>
  <g id="Regular-M" transform="matrix(5 0 0 5 1389.82 1030)">
    <defs><clipPath id="clip-1"><rect x="0" y="0" width="24" height="24" fill="none" fill-rule="nonzero"></rect></clipPath></defs>
<g clip-path="url(#clip-1)" fill="none" fill-rule="none" stroke="none" stroke-width="1" stroke-linecap="butt" stroke-linejoin="miter" stroke-miterlimit="10" stroke-dasharray="" stroke-dashoffset="0" font-family="none" font-weight="none" font-size="none" text-anchor="none" style="mix-blend-mode: normal"><path d="M21.787,15.242c-0.01122,-0.13911 -0.01122,-0.27889 0,-0.418v-0.113c0,-0.102 -0.033,-0.203 -0.09,-0.282c-0.056,-0.068 -0.11067,-0.136 -0.164,-0.204c-0.1053,-0.13182 -0.16308,-0.29529 -0.164,-0.464v-0.146c-0.00364,-0.06228 -0.0189,-0.12333 -0.045,-0.18l-0.097,-0.222c-0.07,-0.159 -0.107,-0.331 -0.127,-0.504l-0.013,-0.122v-0.071c0,-0.03533 -0.00533,-0.07 -0.016,-0.104c-0.0122,-0.04521 -0.02965,-0.08884 -0.052,-0.13c-0.034,-0.05667 -0.06767,-0.115 -0.101,-0.175c-0.034,-0.05933 -0.068,-0.11733 -0.102,-0.174l-0.102,-0.17c-0.045,-0.102 -0.112,-0.238 -0.192,-0.373l-0.056,-0.113c-0.091,-0.144 -0.173,-0.263 -0.25,-0.378l-0.05,-0.072c-0.04133,-0.06133 -0.077,-0.126 -0.107,-0.194l-0.203,-0.373l-0.142,-0.283c-0.056,-0.11267 -0.10133,-0.22933 -0.136,-0.35l-0.096,-0.338c-0.03067,-0.08533 -0.06067,-0.164 -0.09,-0.236c-0.02467,-0.05867 -0.047,-0.11533 -0.067,-0.17l-0.068,-0.17c-0.022,-0.057 -0.056,-0.113 -0.102,-0.158l-0.197,-0.187h-0.001l-0.13,-0.125c-0.044,-0.04067 -0.08133,-0.08733 -0.112,-0.14c-0.04933,-0.088 -0.10267,-0.17433 -0.16,-0.259v-0.001l-0.066,-0.102l-0.034,-0.045l-0.005,-0.006l-1.218,1.219l0.003,0.007l0.056,0.124c0.079,0.181 0.147,0.339 0.215,0.509c0.0373,0.09446 0.10481,0.17393 0.192,0.226l0.045,0.034c0.23724,0.13845 0.42852,0.34364 0.55,0.59l0.003,0.009l0.14,0.25c0.06559,0.11775 0.10898,0.24656 0.128,0.38l0.026,0.182l0.01,0.06c0.00674,0.06382 0.02221,0.1264 0.046,0.186l0.024,0.048l0.135,0.232v0.001c0.046,0.07467 0.09133,0.15133 0.136,0.23c0.01629,0.03006 0.03759,0.05712 0.063,0.08l0.03,0.033l0.02,0.023c0.05937,0.07881 0.12107,0.15584 0.185,0.231l0.097,0.119l0.09,0.136l0.085,0.13l0.039,0.057c0.03098,0.04828 0.05774,0.09913 0.08,0.152l0.022,0.067l0.117,0.298l0.003,0.006l0.003,0.008l0.004,0.012c0.01964,0.04581 0.04411,0.08939 0.073,0.13l0.014,0.021l0.067,0.105c0.10505,0.16278 0.1859,0.33997 0.24,0.526l0.055,0.194l0.215,0.564l0.254,0.508l0.003,0.006l0.007,0.017c0.00636,0.01601 0.01476,0.03114 0.025,0.045l0.022,0.032l0.01,0.014l0.063,0.09c0.07593,0.10648 0.14765,0.2159 0.215,0.328c0.08208,0.13326 0.2275,0.2143 0.384,0.214h0.008c0.1266,-0.00192 0.24662,-0.05673 0.33097,-0.15115c0.08435,-0.09442 0.12534,-0.21984 0.11303,-0.34585c-0.00667,-0.066 -0.01467,-0.12967 -0.024,-0.191c-0.00667,-0.03933 -0.01233,-0.07867 -0.017,-0.118c-0.001,-0.013 -0.019,-0.016 -0.025,-0.005c-0.007,0.012 -0.025,0.007 -0.025,-0.007v-0.063M15.087,11.056l-0.001,-0.001l-1.225,1.225l0.019,0.07l0.022,0.09c0.038,0.148 0.074,0.29 0.102,0.441c0.02657,0.10439 0.07688,0.20123 0.147,0.283c0.113,0.113 0.497,0.711 0.553,0.858l0.08,0.215c0.022,0.06733 0.04433,0.13333 0.067,0.198c0.02267,0.064 0.034,0.12967 0.034,0.197c0,0.147 0,0.294 -0.011,0.44c0,0.057 0,0.114 0.022,0.17l0.196,0.543l0.005,0.015l0.025,0.063l0.283,0.554l0.121,0.29c0.05467,0.13067 0.095,0.26533 0.121,0.404l0.06,0.322c0.00654,0.03441 0.01489,0.06846 0.025,0.102l0.08,0.192l0.039,0.096v0.001l0.053,0.13c0.022,0.06 0.03267,0.12133 0.032,0.184c0,0.03533 0.003,0.07 0.009,0.104c0.01467,0.10667 0.02667,0.21367 0.036,0.321c0,0.07533 0.00933,0.14967 0.028,0.223c0.03133,0.132 0.056,0.26867 0.074,0.41c0,0.027 0.008,0.054 0.016,0.08l0.01,0.034l0.008,0.033l0.056,0.203l0.074,0.277l0.003,0.01l0.007,0.024l0.018,0.05c0.044,0.089 0.081,0.184 0.117,0.275l0.03,0.076l0.067,0.17c0.06631,0.17243 0.23328,0.28507 0.418,0.282c0.04525,0.00229 0.09056,-0.00312 0.134,-0.016c0.1813,-0.05853 0.30775,-0.22277 0.318,-0.413v-0.147l0.011,-0.116c0.014,-0.156 0.03,-0.311 0.066,-0.463l0.002,-0.009c0.045,-0.19 -0.02,-0.345 -0.076,-0.48l-0.003,-0.012c-0.002,-0.012 -0.00667,-0.02333 -0.014,-0.034c-0.0022,-0.00343 -0.00578,-0.00574 -0.00981,-0.00631c-0.00403,-0.00058 -0.00812,0.00063 -0.01119,0.00331l-0.016,0.016c-0.019,0.018 -0.052,0.005 -0.056,-0.02c-0.00647,-0.04324 -0.01998,-0.08513 -0.04,-0.124c-0.00768,-0.01346 -0.01214,-0.02852 -0.013,-0.044c-0.00267,-0.01533 -0.00733,-0.031 -0.014,-0.047c-0.00409,-0.01335 -0.00677,-0.02709 -0.008,-0.041l-0.01,-0.066c-0.02487,-0.0997 -0.0303,-0.20325 -0.016,-0.305l0.016,-0.128l0.016,-0.079c0.02229,-0.11043 0.02365,-0.22407 0.004,-0.335c-0.02267,-0.11067 -0.048,-0.221 -0.076,-0.331c-0.02176,-0.08994 -0.02952,-0.1827 -0.023,-0.275l0.023,-0.279l0.002,-0.078c0.002,-0.05 0.005,-0.098 -0.001,-0.147l-0.017,-0.094l-0.21,-0.596l-0.17,-0.576c-0.02066,-0.06114 -0.05105,-0.11854 -0.09,-0.17l-0.326,-0.386c-0.02879,-0.03365 -0.04123,-0.07831 -0.034,-0.122l0.001,-0.006c0.023,-0.145 0.051,-0.33 -0.014,-0.513l-0.03,-0.098c-0.02933,-0.09133 -0.057,-0.187 -0.083,-0.287c-0.02905,-0.10516 -0.04946,-0.21252 -0.061,-0.321l-0.033,-0.24c-0.00427,-0.03252 -0.00694,-0.06522 -0.008,-0.098c-0.00034,-0.05735 -0.00773,-0.11445 -0.022,-0.17c-0.056,-0.211 -0.096,-0.391 -0.136,-0.571c-0.01064,-0.05689 -0.0335,-0.1108 -0.067,-0.158l-0.046,-0.057l-0.096,-0.136l-0.12,-0.169c-0.0654,-0.09028 -0.11791,-0.18923 -0.156,-0.294c-0.028,-0.06267 -0.05467,-0.12667 -0.08,-0.192c-0.02467,-0.06533 -0.051,-0.12933 -0.079,-0.192c-0.00542,-0.01586 -0.01281,-0.03098 -0.022,-0.045l-0.016,-0.026l-0.037,-0.06zM15.193,6.16l-1.599,1.599l-0.231,-0.445c-0.02378,-0.04675 -0.05119,-0.09155 -0.082,-0.134c-0.01583,-0.02247 -0.03467,-0.04266 -0.056,-0.06c-0.113,-0.102 -0.238,-0.203 -0.362,-0.305c-0.03691,-0.03727 -0.06614,-0.08145 -0.086,-0.13l-0.174,-0.435l-0.006,-0.013c-0.03,-0.06 -0.07,-0.111 -0.11,-0.164l-0.051,-0.07c-0.07835,-0.11351 -0.15078,-0.231 -0.217,-0.352l-0.27,-0.51l-0.002,-0.002l-0.018,-0.03l-0.013,-0.02l-0.038,-0.059l-0.348,-0.474c-0.04169,-0.0725 -0.0864,-0.14323 -0.134,-0.212l-0.092,-0.139l-0.045,-0.07l-0.003,-0.005c-0.03507,-0.05799 -0.07595,-0.11227 -0.122,-0.162l-0.462,-0.43l-0.332,-0.266c-0.08736,-0.07038 -0.16865,-0.14799 -0.243,-0.232l-0.124,-0.14c-0.07613,-0.08595 -0.14472,-0.17829 -0.205,-0.276c-0.0314,-0.04813 -0.06141,-0.09715 -0.09,-0.147l-0.068,-0.113c-0.1374,-0.20468 -0.41172,-0.26466 -0.622,-0.136c-0.21006,0.13289 -0.27499,0.40953 -0.146,0.622l0.079,0.124c0.056,0.09 0.113,0.18 0.169,0.282l0.226,0.509c0.056,0.135 0.147,0.26 0.226,0.361c0.04095,0.04784 0.07526,0.10099 0.102,0.158c0.079,0.204 0.146,0.396 0.214,0.588c0.023,0.079 0.08,0.147 0.136,0.203l0.135,0.113c0.04,0.03333 0.07967,0.06533 0.119,0.096c0.077,0.061 0.127,0.15 0.143,0.247l0.049,0.3l0.015,0.07c0.00987,0.03951 0.02572,0.07728 0.047,0.112l0.305,0.53c0.034,0.057 0.08,0.114 0.147,0.148c0.06733,0.04467 0.13333,0.08967 0.198,0.135c0.125,0.087 0.21,0.222 0.234,0.373l0.031,0.203c0.01092,0.10969 0.06354,0.211 0.147,0.283l0.147,0.124c0.12414,0.1064 0.1945,0.26252 0.192,0.426v0.148c-0.00133,0.05467 0.00433,0.108 0.017,0.16c0.02601,0.10174 0.08339,0.19271 0.164,0.26c0.06667,0.056 0.13433,0.11067 0.203,0.164c0.018,0.014 0.03567,0.02933 0.053,0.046l-1.903,1.903l-0.06,-0.181l-0.044,-0.192l-0.051,-0.226v-0.001l-0.033,-0.145l-0.007,-0.034c-0.009,-0.043 -0.017,-0.085 -0.038,-0.123l-0.007,-0.013l-0.294,-0.622l-0.046,-0.114c-0.03533,-0.08667 -0.07267,-0.18033 -0.112,-0.281l-0.06,-0.149c-0.01915,-0.05185 -0.04256,-0.10202 -0.07,-0.15c-0.01145,-0.01839 -0.02486,-0.03549 -0.04,-0.051c-0.11317,-0.13358 -0.22818,-0.2656 -0.345,-0.396c-0.04761,-0.05187 -0.08373,-0.11321 -0.106,-0.18c-0.04525,-0.16311 -0.09427,-0.32515 -0.147,-0.486c-0.02234,-0.06839 -0.05918,-0.13115 -0.108,-0.184l-0.044,-0.056l-0.054,-0.075c-0.14729,-0.20276 -0.25516,-0.43139 -0.318,-0.674l-0.046,-0.177c-0.01106,-0.0439 -0.0251,-0.087 -0.042,-0.129l-0.02,-0.038l-0.238,-0.407l-0.124,-0.203l-0.147,-0.283l-0.146,-0.273c-0.02366,-0.04256 -0.0504,-0.08334 -0.08,-0.122l-0.147,-0.17c-0.09881,-0.12272 -0.2005,-0.24309 -0.305,-0.361l-0.354,-0.322c-0.09439,-0.08639 -0.17648,-0.18531 -0.244,-0.294l-0.102,-0.164l-0.124,-0.203l-0.102,-0.214l-0.136,-0.26c-0.08405,-0.15194 -0.24649,-0.2436 -0.42,-0.237c-0.12815,0.01046 -0.24571,0.07525 -0.323,0.178c-0.10827,0.14007 -0.12654,0.32984 -0.047,0.488l0.124,0.237l0.113,0.226l0.135,0.237c0.03533,0.058 0.06967,0.116 0.103,0.174c0.06133,0.10933 0.108,0.225 0.14,0.347l0.119,0.417c0.045,0.147 0.079,0.282 0.113,0.43l0.056,0.225c0.02202,0.06968 0.05659,0.13475 0.102,0.192l0.249,0.26l0.103,0.112c0.02067,0.02333 0.03133,0.051 0.032,0.083l0.001,0.017c0.022,0.155 0.033,0.3 0.044,0.455c0,0.083 0.039,0.16 0.077,0.236l0.037,0.075l0.167,0.375c0.02333,0.05533 0.05067,0.108 0.082,0.158l0.055,0.07c0.06867,0.06733 0.13867,0.13333 0.21,0.198c0.1324,0.12838 0.21286,0.30105 0.226,0.485l0.005,0.052v0.158c0.01191,0.09904 0.05103,0.19284 0.113,0.271c0.05667,0.068 0.115,0.13567 0.175,0.203c0.114,0.13 0.176,0.299 0.161,0.472l-0.005,0.064l-0.015,0.187c0,0.125 0.034,0.249 0.113,0.34l0.3,0.332c0.07,0.078 0.113,0.175 0.13,0.277l0.022,0.159l0.012,0.071l0.003,0.021l0.004,0.024c0.00771,0.07344 0.02554,0.14545 0.053,0.214c0.01306,0.02798 0.02741,0.05535 0.043,0.082c0.105,0.169 0.209,0.346 0.303,0.514l0.056,0.124c0.02825,0.07658 0.05961,0.15198 0.094,0.226l-2.562,2.562l-0.006,-0.043l-0.03,-0.305c-0.01,-0.10467 -0.00933,-0.21 0.002,-0.316l0.017,-0.158l0.003,-0.018c0.01336,-0.09374 0.02004,-0.18831 0.02,-0.283v-0.456c0.00126,-0.06675 -0.01421,-0.13276 -0.045,-0.192l-0.046,-0.102l-0.078,-0.164c-0.07453,-0.15407 -0.12897,-0.31707 -0.162,-0.485l-0.034,-0.176c-0.00531,-0.02996 -0.01198,-0.05965 -0.02,-0.089l-0.002,-0.005c-0.01392,-0.04206 -0.03063,-0.08315 -0.05,-0.123l-0.048,-0.097c-0.06755,-0.149 -0.08779,-0.31514 -0.058,-0.476l0.034,-0.147c0.0185,-0.10745 0.00276,-0.21799 -0.045,-0.316c-0.052,-0.102 -0.10667,-0.20533 -0.164,-0.31l-0.036,-0.065c-0.03952,-0.07389 -0.06719,-0.15352 -0.082,-0.236l-0.035,-0.167c-0.022,-0.1 -0.03633,-0.2 -0.043,-0.3l-0.02,-0.3c-0.00345,-0.06103 -0.01249,-0.12162 -0.027,-0.181l-0.192,-0.531l-0.01,-0.046c-0.02569,-0.11024 -0.05605,-0.21934 -0.091,-0.327l-0.034,-0.136c-0.01453,-0.05798 -0.04186,-0.11197 -0.08,-0.158c-0.09005,-0.12357 -0.18478,-0.24366 -0.284,-0.36c-0.0203,-0.02245 -0.03138,-0.05174 -0.031,-0.082l-0.002,-0.02l-0.05,-0.291c-0.00839,-0.07213 -0.02655,-0.14278 -0.054,-0.21c-0.01273,-0.02796 -0.02675,-0.05533 -0.042,-0.082l-0.04,-0.068c-0.12225,-0.20419 -0.19741,-0.43308 -0.22,-0.67l-0.008,-0.085l-0.007,-0.059c-0.00506,-0.03655 -0.01516,-0.07222 -0.03,-0.106l-0.169,-0.373l-0.079,-0.17l-0.103,-0.277l-0.089,-0.242c-0.00933,-0.02467 -0.02,-0.047 -0.032,-0.067l-0.028,-0.045l-0.046,-0.065c-0.09366,-0.13549 -0.19035,-0.26885 -0.29,-0.4l-0.146,-0.169c-0.04003,-0.04456 -0.08138,-0.08791 -0.124,-0.13l-0.049,-0.048c-0.05088,-0.05313 -0.09156,-0.11516 -0.12,-0.183c-0.05439,-0.11776 -0.11107,-0.23445 -0.17,-0.35l-0.147,-0.396c-0.06661,-0.17903 -0.23901,-0.2965 -0.43,-0.293h-0.007c-0.14512,0.00009 -0.28086,0.07172 -0.36282,0.19147c-0.08197,0.11975 -0.09962,0.27222 -0.04718,0.40753l0.146,0.417c0.068,0.147 0.113,0.26 0.159,0.373c0.03733,0.09133 0.06167,0.18533 0.073,0.282l0.017,0.147l0.023,0.181c0.022,0.18 0.033,0.362 0.045,0.542c0,0.09 0.045,0.181 0.101,0.249l0.084,0.103l0.055,0.066c0.081,0.1 0.115,0.229 0.097,0.357c-0.00867,0.056 -0.01567,0.11033 -0.021,0.163c0,0.068 0,0.135 0.011,0.203l0.158,0.52c0.02332,0.06545 0.05783,0.12636 0.102,0.18l0.215,0.224c0.058,0.06 0.088,0.14 0.069,0.22l-0.013,0.054l-0.022,0.147c-0.02151,0.12417 0.01126,0.25161 0.09,0.35c0.046,0.058 0.09133,0.117 0.136,0.177c0.065,0.087 0.083,0.2 0.05,0.303l-0.05,0.164c-0.04444,0.14902 -0.01058,0.31041 0.09,0.429l0.069,0.084c0.153,0.187 0.236,0.42 0.236,0.662c-0.00425,0.07544 0.01534,0.15031 0.056,0.214l0.216,0.43c0.01385,0.03004 0.0262,0.06074 0.037,0.092c0.06307,0.18053 0.01766,0.38122 -0.117,0.517c-0.10184,0.1371 -0.12316,0.31798 -0.056,0.475l0.286,0.615c0.116,0.25 0.177,0.522 0.177,0.797c0.00049,0.09759 0.03201,0.1925 0.09,0.271c0.07933,0.096 0.15433,0.19433 0.225,0.295l0.065,0.088c0.01733,0.02333 0.026,0.04967 0.026,0.079c0,0.008 0.001,0.01633 0.003,0.025c0.02,0.109 0.031,0.217 0.031,0.315l0.005,0.036c0.03413,0.27444 0.01098,0.55297 -0.068,0.818l-0.004,0.016c-0.02256,0.06989 -0.02256,0.14511 0,0.215c0.01,0.05067 0.01933,0.10333 0.028,0.158c0.008,0.05333 0.01733,0.106 0.028,0.158l0.03,0.171l0.004,0.03c0.00364,0.02538 0.01213,0.04982 0.025,0.072l0.016,0.035c0.03267,0.094 0.06333,0.189 0.092,0.285l-1.963,1.962c-0.32536,0.33303 -0.32226,0.86583 0.00696,1.19504c0.32922,0.32922 0.86201,0.33232 1.19504,0.00696l16,-16c0.2189,-0.21386 0.30594,-0.52889 0.22788,-0.82481c-0.07806,-0.29591 -0.30917,-0.52702 -0.60508,-0.60508c-0.29591,-0.07806 -0.61094,0.00898 -0.82481,0.22788l-2.658,2.658l-0.238,-0.33c-0.03615,-0.05317 -0.07734,-0.10274 -0.123,-0.148c-0.02121,-0.02088 -0.04469,-0.03933 -0.07,-0.055c-0.06133,-0.034 -0.123,-0.07 -0.185,-0.108l-0.187,-0.107c-0.02169,-0.01554 -0.04005,-0.03526 -0.054,-0.058l-0.217,-0.371l-0.023,-0.031c-0.05788,-0.07133 -0.12634,-0.13339 -0.203,-0.184l-0.13,-0.102l-0.058,-0.046c-0.0467,-0.03731 -0.08632,-0.0827 -0.117,-0.134l-0.068,-0.135c-0.03867,-0.07399 -0.07601,-0.14867 -0.112,-0.224c-0.03205,-0.06669 -0.0785,-0.12544 -0.136,-0.172c-0.01067,-0.008 -0.02,-0.01667 -0.028,-0.026l-0.334,-0.324l-0.343,-0.375c-0.0369,-0.04021 -0.07704,-0.07734 -0.12,-0.111l-0.18,-0.113l-0.181,-0.113l-0.072,-0.043l-0.034,-0.021l-0.048,-0.029l-0.016,-0.009l-0.397,-0.165l-0.02,-0.004c-0.01505,0.00017 -0.02937,-0.00644 -0.039,-0.018c-0.06203,-0.06645 -0.12852,-0.12859 -0.199,-0.186l-0.047,-0.04c-0.06654,-0.05618 -0.12934,-0.11664 -0.188,-0.181l-0.104,-0.117l-0.102,-0.102c-0.08724,-0.08737 -0.20371,-0.13938 -0.327,-0.146c-0.17774,-0.00269 -0.34018,0.10019 -0.41372,0.26202c-0.07354,0.16183 -0.0442,0.35186 0.07472,0.48398l0.113,0.124l0.09,0.102c0.03133,0.03333 0.06133,0.067 0.09,0.101l0.181,0.18c0.03467,0.03467 0.07067,0.069 0.108,0.103l0.034,0.031c0.04867,0.04667 0.088,0.1 0.118,0.16l0.054,0.097c0.05,0.08667 0.096,0.175 0.138,0.265l0.271,0.52c0.03906,0.07816 0.10263,0.14138 0.181,0.18c0.21734,0.12362 0.37856,0.32639 0.45,0.566l0.013,0.045c0.01987,0.05584 0.04675,0.10893 0.08,0.158c0.078,0.09 0.146,0.18 0.214,0.27l0.113,0.148c0.04595,0.06636 0.114,0.11422 0.192,0.135l0.076,0.03c0.177,0.07 0.303,0.222 0.353,0.405l0.023,0.085c0.0328,0.11783 0.10934,0.2187 0.214,0.282l0.147,0.08c0.1074,0.06398 0.18071,0.17249 0.2,0.296l0.038,0.234c0.01995,0.13333 0.09992,0.25016 0.217,0.317M11.779,14.485l-0.047,-0.077l-1.412,1.412c0.022,0.10533 0.04133,0.21033 0.058,0.315l0.056,0.248l0.005,0.018c0.05,0.212 0.064,0.432 0.042,0.65l-0.014,0.15c-0.01055,0.08469 -0.01021,0.17039 0.001,0.255l0.158,0.633l0.26,0.678l0.04,0.126c0.025,0.08 0.051,0.166 0.073,0.247c0.03733,0.12 0.062,0.243 0.074,0.369l0.017,0.184l0.02,0.2l0.003,0.037c0.00469,0.03543 0.01411,0.07007 0.028,0.103l0.015,0.042l0.04,0.138l0.063,0.203c0.03,0.11333 0.045,0.22833 0.045,0.345v0.4l0.057,0.678c0,0.03867 0.00333,0.076 0.01,0.112l0.012,0.07c0.034,0.169 0.068,0.338 0.09,0.508c0,0.037 0.012,0.072 0.024,0.107l0.003,0.01l0.005,0.017l0.07,0.227l0.08,0.282c0.05824,0.19443 0.23703,0.32771 0.44,0.328h0.034c0.21111,-0.01653 0.38366,-0.17505 0.418,-0.384l0.068,-0.542c0.054,-0.256 0.02,-0.772 -0.048,-1.156c-0.03079,-0.1615 -0.02807,-0.3276 0.008,-0.488c0.02,-0.08267 0.04067,-0.16367 0.062,-0.243c0.01218,-0.05601 0.01218,-0.11399 0,-0.17l-0.034,-0.214c-0.01079,-0.06177 -0.02013,-0.12379 -0.028,-0.186l-0.022,-0.152c-0.01075,-0.05918 -0.00802,-0.12002 0.008,-0.178c0.032,-0.125 0.051,-0.25 0.07,-0.374c0.00194,-0.01203 0.00868,-0.02275 0.01867,-0.02972c0.00999,-0.00697 0.02238,-0.0096 0.03433,-0.00728c0.01337,0.00305 0.0274,-0.00017 0.03811,-0.00874c0.01071,-0.00857 0.01693,-0.02155 0.01689,-0.03526v-0.11c0,-0.01 -0.00133,-0.02 -0.004,-0.03l-0.053,-0.222c-0.01733,-0.07333 -0.036,-0.14667 -0.056,-0.22c-0.02039,-0.07297 -0.03939,-0.14631 -0.057,-0.22l-0.124,-0.622l-0.226,-0.712l-0.147,-0.62c-0.027,-0.14029 -0.05701,-0.27999 -0.09,-0.419c-0.02276,-0.12001 -0.03447,-0.24185 -0.035,-0.364c-0.00103,-0.07841 -0.00436,-0.15678 -0.01,-0.235v-0.203c-0.02494,-0.18824 -0.05161,-0.37625 -0.08,-0.564l-0.007,-0.058c-0.01,-0.08 -0.02,-0.16 -0.06,-0.23z" fill="#62757e" fill-rule="nonzero"></path></g>
  </g>
  <g id="Regular-S" transform="matrix(3.915 0 0 3.915 1402.75 614)">
    <defs><clipPath id="clip-1"><rect x="0" y="0" width="24" height="24" fill="none" fill-rule="nonzero"></rect></clipPath></defs>
<g clip-path="url(#clip-1)" fill="none" fill-rule="none" stroke="none" stroke-width="1" stroke-linecap="butt" stroke-linejoin="miter" stroke-miterlimit="10" stroke-dasharray="" stroke-dashoffset="0" font-family="none" font-weight="none" font-size="none" text-anchor="none" style="mix-blend-mode: normal"><path d="M21.787,15.242c-0.01122,-0.13911 -0.01122,-0.27889 0,-0.418v-0.113c0,-0.102 -0.033,-0.203 -0.09,-0.282c-0.056,-0.068 -0.11067,-0.136 -0.164,-0.204c-0.1053,-0.13182 -0.16308,-0.29529 -0.164,-0.464v-0.146c-0.00364,-0.06228 -0.0189,-0.12333 -0.045,-0.18l-0.097,-0.222c-0.07,-0.159 -0.107,-0.331 -0.127,-0.504l-0.013,-0.122v-0.071c0,-0.03533 -0.00533,-0.07 -0.016,-0.104c-0.0122,-0.04521 -0.02965,-0.08884 -0.052,-0.13c-0.034,-0.05667 -0.06767,-0.115 -0.101,-0.175c-0.034,-0.05933 -0.068,-0.11733 -0.102,-0.174l-0.102,-0.17c-0.045,-0.102 -0.112,-0.238 -0.192,-0.373l-0.056,-0.113c-0.091,-0.144 -0.173,-0.263 -0.25,-0.378l-0.05,-0.072c-0.04133,-0.06133 -0.077,-0.126 -0.107,-0.194l-0.203,-0.373l-0.142,-0.283c-0.056,-0.11267 -0.10133,-0.22933 -0.136,-0.35l-0.096,-0.338c-0.03067,-0.08533 -0.06067,-0.164 -0.09,-0.236c-0.02467,-0.05867 -0.047,-0.11533 -0.067,-0.17l-0.068,-0.17c-0.022,-0.057 -0.056,-0.113 -0.102,-0.158l-0.197,-0.187h-0.001l-0.13,-0.125c-0.044,-0.04067 -0.08133,-0.08733 -0.112,-0.14c-0.04933,-0.088 -0.10267,-0.17433 -0.16,-0.259v-0.001l-0.066,-0.102l-0.034,-0.045l-0.005,-0.006l-1.218,1.219l0.003,0.007l0.056,0.124c0.079,0.181 0.147,0.339 0.215,0.509c0.0373,0.09446 0.10481,0.17393 0.192,0.226l0.045,0.034c0.23724,0.13845 0.42852,0.34364 0.55,0.59l0.003,0.009l0.14,0.25c0.06559,0.11775 0.10898,0.24656 0.128,0.38l0.026,0.182l0.01,0.06c0.00674,0.06382 0.02221,0.1264 0.046,0.186l0.024,0.048l0.135,0.232v0.001c0.046,0.07467 0.09133,0.15133 0.136,0.23c0.01629,0.03006 0.03759,0.05712 0.063,0.08l0.03,0.033l0.02,0.023c0.05937,0.07881 0.12107,0.15584 0.185,0.231l0.097,0.119l0.09,0.136l0.085,0.13l0.039,0.057c0.03098,0.04828 0.05774,0.09913 0.08,0.152l0.022,0.067l0.117,0.298l0.003,0.006l0.003,0.008l0.004,0.012c0.01964,0.04581 0.04411,0.08939 0.073,0.13l0.014,0.021l0.067,0.105c0.10505,0.16278 0.1859,0.33997 0.24,0.526l0.055,0.194l0.215,0.564l0.254,0.508l0.003,0.006l0.007,0.017c0.00636,0.01601 0.01476,0.03114 0.025,0.045l0.022,0.032l0.01,0.014l0.063,0.09c0.07593,0.10648 0.14765,0.2159 0.215,0.328c0.08208,0.13326 0.2275,0.2143 0.384,0.214h0.008c0.1266,-0.00192 0.24662,-0.05673 0.33097,-0.15115c0.08435,-0.09442 0.12534,-0.21984 0.11303,-0.34585c-0.00667,-0.066 -0.01467,-0.12967 -0.024,-0.191c-0.00667,-0.03933 -0.01233,-0.07867 -0.017,-0.118c-0.001,-0.013 -0.019,-0.016 -0.025,-0.005c-0.007,0.012 -0.025,0.007 -0.025,-0.007v-0.063M15.087,11.056l-0.001,-0.001l-1.225,1.225l0.019,0.07l0.022,0.09c0.038,0.148 0.074,0.29 0.102,0.441c0.02657,0.10439 0.07688,0.20123 0.147,0.283c0.113,0.113 0.497,0.711 0.553,0.858l0.08,0.215c0.022,0.06733 0.04433,0.13333 0.067,0.198c0.02267,0.064 0.034,0.12967 0.034,0.197c0,0.147 0,0.294 -0.011,0.44c0,0.057 0,0.114 0.022,0.17l0.196,0.543l0.005,0.015l0.025,0.063l0.283,0.554l0.121,0.29c0.05467,0.13067 0.095,0.26533 0.121,0.404l0.06,0.322c0.00654,0.03441 0.01489,0.06846 0.025,0.102l0.08,0.192l0.039,0.096v0.001l0.053,0.13c0.022,0.06 0.03267,0.12133 0.032,0.184c0,0.03533 0.003,0.07 0.009,0.104c0.01467,0.10667 0.02667,0.21367 0.036,0.321c0,0.07533 0.00933,0.14967 0.028,0.223c0.03133,0.132 0.056,0.26867 0.074,0.41c0,0.027 0.008,0.054 0.016,0.08l0.01,0.034l0.008,0.033l0.056,0.203l0.074,0.277l0.003,0.01l0.007,0.024l0.018,0.05c0.044,0.089 0.081,0.184 0.117,0.275l0.03,0.076l0.067,0.17c0.06631,0.17243 0.23328,0.28507 0.418,0.282c0.04525,0.00229 0.09056,-0.00312 0.134,-0.016c0.1813,-0.05853 0.30775,-0.22277 0.318,-0.413v-0.147l0.011,-0.116c0.014,-0.156 0.03,-0.311 0.066,-0.463l0.002,-0.009c0.045,-0.19 -0.02,-0.345 -0.076,-0.48l-0.003,-0.012c-0.002,-0.012 -0.00667,-0.02333 -0.014,-0.034c-0.0022,-0.00343 -0.00578,-0.00574 -0.00981,-0.00631c-0.00403,-0.00058 -0.00812,0.00063 -0.01119,0.00331l-0.016,0.016c-0.019,0.018 -0.052,0.005 -0.056,-0.02c-0.00647,-0.04324 -0.01998,-0.08513 -0.04,-0.124c-0.00768,-0.01346 -0.01214,-0.02852 -0.013,-0.044c-0.00267,-0.01533 -0.00733,-0.031 -0.014,-0.047c-0.00409,-0.01335 -0.00677,-0.02709 -0.008,-0.041l-0.01,-0.066c-0.02487,-0.0997 -0.0303,-0.20325 -0.016,-0.305l0.016,-0.128l0.016,-0.079c0.02229,-0.11043 0.02365,-0.22407 0.004,-0.335c-0.02267,-0.11067 -0.048,-0.221 -0.076,-0.331c-0.02176,-0.08994 -0.02952,-0.1827 -0.023,-0.275l0.023,-0.279l0.002,-0.078c0.002,-0.05 0.005,-0.098 -0.001,-0.147l-0.017,-0.094l-0.21,-0.596l-0.17,-0.576c-0.02066,-0.06114 -0.05105,-0.11854 -0.09,-0.17l-0.326,-0.386c-0.02879,-0.03365 -0.04123,-0.07831 -0.034,-0.122l0.001,-0.006c0.023,-0.145 0.051,-0.33 -0.014,-0.513l-0.03,-0.098c-0.02933,-0.09133 -0.057,-0.187 -0.083,-0.287c-0.02905,-0.10516 -0.04946,-0.21252 -0.061,-0.321l-0.033,-0.24c-0.00427,-0.03252 -0.00694,-0.06522 -0.008,-0.098c-0.00034,-0.05735 -0.00773,-0.11445 -0.022,-0.17c-0.056,-0.211 -0.096,-0.391 -0.136,-0.571c-0.01064,-0.05689 -0.0335,-0.1108 -0.067,-0.158l-0.046,-0.057l-0.096,-0.136l-0.12,-0.169c-0.0654,-0.09028 -0.11791,-0.18923 -0.156,-0.294c-0.028,-0.06267 -0.05467,-0.12667 -0.08,-0.192c-0.02467,-0.06533 -0.051,-0.12933 -0.079,-0.192c-0.00542,-0.01586 -0.01281,-0.03098 -0.022,-0.045l-0.016,-0.026l-0.037,-0.06zM15.193,6.16l-1.599,1.599l-0.231,-0.445c-0.02378,-0.04675 -0.05119,-0.09155 -0.082,-0.134c-0.01583,-0.02247 -0.03467,-0.04266 -0.056,-0.06c-0.113,-0.102 -0.238,-0.203 -0.362,-0.305c-0.03691,-0.03727 -0.06614,-0.08145 -0.086,-0.13l-0.174,-0.435l-0.006,-0.013c-0.03,-0.06 -0.07,-0.111 -0.11,-0.164l-0.051,-0.07c-0.07835,-0.11351 -0.15078,-0.231 -0.217,-0.352l-0.27,-0.51l-0.002,-0.002l-0.018,-0.03l-0.013,-0.02l-0.038,-0.059l-0.348,-0.474c-0.04169,-0.0725 -0.0864,-0.14323 -0.134,-0.212l-0.092,-0.139l-0.045,-0.07l-0.003,-0.005c-0.03507,-0.05799 -0.07595,-0.11227 -0.122,-0.162l-0.462,-0.43l-0.332,-0.266c-0.08736,-0.07038 -0.16865,-0.14799 -0.243,-0.232l-0.124,-0.14c-0.07613,-0.08595 -0.14472,-0.17829 -0.205,-0.276c-0.0314,-0.04813 -0.06141,-0.09715 -0.09,-0.147l-0.068,-0.113c-0.1374,-0.20468 -0.41172,-0.26466 -0.622,-0.136c-0.21006,0.13289 -0.27499,0.40953 -0.146,0.622l0.079,0.124c0.056,0.09 0.113,0.18 0.169,0.282l0.226,0.509c0.056,0.135 0.147,0.26 0.226,0.361c0.04095,0.04784 0.07526,0.10099 0.102,0.158c0.079,0.204 0.146,0.396 0.214,0.588c0.023,0.079 0.08,0.147 0.136,0.203l0.135,0.113c0.04,0.03333 0.07967,0.06533 0.119,0.096c0.077,0.061 0.127,0.15 0.143,0.247l0.049,0.3l0.015,0.07c0.00987,0.03951 0.02572,0.07728 0.047,0.112l0.305,0.53c0.034,0.057 0.08,0.114 0.147,0.148c0.06733,0.04467 0.13333,0.08967 0.198,0.135c0.125,0.087 0.21,0.222 0.234,0.373l0.031,0.203c0.01092,0.10969 0.06354,0.211 0.147,0.283l0.147,0.124c0.12414,0.1064 0.1945,0.26252 0.192,0.426v0.148c-0.00133,0.05467 0.00433,0.108 0.017,0.16c0.02601,0.10174 0.08339,0.19271 0.164,0.26c0.06667,0.056 0.13433,0.11067 0.203,0.164c0.018,0.014 0.03567,0.02933 0.053,0.046l-1.903,1.903l-0.06,-0.181l-0.044,-0.192l-0.051,-0.226v-0.001l-0.033,-0.145l-0.007,-0.034c-0.009,-0.043 -0.017,-0.085 -0.038,-0.123l-0.007,-0.013l-0.294,-0.622l-0.046,-0.114c-0.03533,-0.08667 -0.07267,-0.18033 -0.112,-0.281l-0.06,-0.149c-0.01915,-0.05185 -0.04256,-0.10202 -0.07,-0.15c-0.01145,-0.01839 -0.02486,-0.03549 -0.04,-0.051c-0.11317,-0.13358 -0.22818,-0.2656 -0.345,-0.396c-0.04761,-0.05187 -0.08373,-0.11321 -0.106,-0.18c-0.04525,-0.16311 -0.09427,-0.32515 -0.147,-0.486c-0.02234,-0.06839 -0.05918,-0.13115 -0.108,-0.184l-0.044,-0.056l-0.054,-0.075c-0.14729,-0.20276 -0.25516,-0.43139 -0.318,-0.674l-0.046,-0.177c-0.01106,-0.0439 -0.0251,-0.087 -0.042,-0.129l-0.02,-0.038l-0.238,-0.407l-0.124,-0.203l-0.147,-0.283l-0.146,-0.273c-0.02366,-0.04256 -0.0504,-0.08334 -0.08,-0.122l-0.147,-0.17c-0.09881,-0.12272 -0.2005,-0.24309 -0.305,-0.361l-0.354,-0.322c-0.09439,-0.08639 -0.17648,-0.18531 -0.244,-0.294l-0.102,-0.164l-0.124,-0.203l-0.102,-0.214l-0.136,-0.26c-0.08405,-0.15194 -0.24649,-0.2436 -0.42,-0.237c-0.12815,0.01046 -0.24571,0.07525 -0.323,0.178c-0.10827,0.14007 -0.12654,0.32984 -0.047,0.488l0.124,0.237l0.113,0.226l0.135,0.237c0.03533,0.058 0.06967,0.116 0.103,0.174c0.06133,0.10933 0.108,0.225 0.14,0.347l0.119,0.417c0.045,0.147 0.079,0.282 0.113,0.43l0.056,0.225c0.02202,0.06968 0.05659,0.13475 0.102,0.192l0.249,0.26l0.103,0.112c0.02067,0.02333 0.03133,0.051 0.032,0.083l0.001,0.017c0.022,0.155 0.033,0.3 0.044,0.455c0,0.083 0.039,0.16 0.077,0.236l0.037,0.075l0.167,0.375c0.02333,0.05533 0.05067,0.108 0.082,0.158l0.055,0.07c0.06867,0.06733 0.13867,0.13333 0.21,0.198c0.1324,0.12838 0.21286,0.30105 0.226,0.485l0.005,0.052v0.158c0.01191,0.09904 0.05103,0.19284 0.113,0.271c0.05667,0.068 0.115,0.13567 0.175,0.203c0.114,0.13 0.176,0.299 0.161,0.472l-0.005,0.064l-0.015,0.187c0,0.125 0.034,0.249 0.113,0.34l0.3,0.332c0.07,0.078 0.113,0.175 0.13,0.277l0.022,0.159l0.012,0.071l0.003,0.021l0.004,0.024c0.00771,0.07344 0.02554,0.14545 0.053,0.214c0.01306,0.02798 0.02741,0.05535 0.043,0.082c0.105,0.169 0.209,0.346 0.303,0.514l0.056,0.124c0.02825,0.07658 0.05961,0.15198 0.094,0.226l-2.562,2.562l-0.006,-0.043l-0.03,-0.305c-0.01,-0.10467 -0.00933,-0.21 0.002,-0.316l0.017,-0.158l0.003,-0.018c0.01336,-0.09374 0.02004,-0.18831 0.02,-0.283v-0.456c0.00126,-0.06675 -0.01421,-0.13276 -0.045,-0.192l-0.046,-0.102l-0.078,-0.164c-0.07453,-0.15407 -0.12897,-0.31707 -0.162,-0.485l-0.034,-0.176c-0.00531,-0.02996 -0.01198,-0.05965 -0.02,-0.089l-0.002,-0.005c-0.01392,-0.04206 -0.03063,-0.08315 -0.05,-0.123l-0.048,-0.097c-0.06755,-0.149 -0.08779,-0.31514 -0.058,-0.476l0.034,-0.147c0.0185,-0.10745 0.00276,-0.21799 -0.045,-0.316c-0.052,-0.102 -0.10667,-0.20533 -0.164,-0.31l-0.036,-0.065c-0.03952,-0.07389 -0.06719,-0.15352 -0.082,-0.236l-0.035,-0.167c-0.022,-0.1 -0.03633,-0.2 -0.043,-0.3l-0.02,-0.3c-0.00345,-0.06103 -0.01249,-0.12162 -0.027,-0.181l-0.192,-0.531l-0.01,-0.046c-0.02569,-0.11024 -0.05605,-0.21934 -0.091,-0.327l-0.034,-0.136c-0.01453,-0.05798 -0.04186,-0.11197 -0.08,-0.158c-0.09005,-0.12357 -0.18478,-0.24366 -0.284,-0.36c-0.0203,-0.02245 -0.03138,-0.05174 -0.031,-0.082l-0.002,-0.02l-0.05,-0.291c-0.00839,-0.07213 -0.02655,-0.14278 -0.054,-0.21c-0.01273,-0.02796 -0.02675,-0.05533 -0.042,-0.082l-0.04,-0.068c-0.12225,-0.20419 -0.19741,-0.43308 -0.22,-0.67l-0.008,-0.085l-0.007,-0.059c-0.00506,-0.03655 -0.01516,-0.07222 -0.03,-0.106l-0.169,-0.373l-0.079,-0.17l-0.103,-0.277l-0.089,-0.242c-0.00933,-0.02467 -0.02,-0.047 -0.032,-0.067l-0.028,-0.045l-0.046,-0.065c-0.09366,-0.13549 -0.19035,-0.26885 -0.29,-0.4l-0.146,-0.169c-0.04003,-0.04456 -0.08138,-0.08791 -0.124,-0.13l-0.049,-0.048c-0.05088,-0.05313 -0.09156,-0.11516 -0.12,-0.183c-0.05439,-0.11776 -0.11107,-0.23445 -0.17,-0.35l-0.147,-0.396c-0.06661,-0.17903 -0.23901,-0.2965 -0.43,-0.293h-0.007c-0.14512,0.00009 -0.28086,0.07172 -0.36282,0.19147c-0.08197,0.11975 -0.09962,0.27222 -0.04718,0.40753l0.146,0.417c0.068,0.147 0.113,0.26 0.159,0.373c0.03733,0.09133 0.06167,0.18533 0.073,0.282l0.017,0.147l0.023,0.181c0.022,0.18 0.033,0.362 0.045,0.542c0,0.09 0.045,0.181 0.101,0.249l0.084,0.103l0.055,0.066c0.081,0.1 0.115,0.229 0.097,0.357c-0.00867,0.056 -0.01567,0.11033 -0.021,0.163c0,0.068 0,0.135 0.011,0.203l0.158,0.52c0.02332,0.06545 0.05783,0.12636 0.102,0.18l0.215,0.224c0.058,0.06 0.088,0.14 0.069,0.22l-0.013,0.054l-0.022,0.147c-0.02151,0.12417 0.01126,0.25161 0.09,0.35c0.046,0.058 0.09133,0.117 0.136,0.177c0.065,0.087 0.083,0.2 0.05,0.303l-0.05,0.164c-0.04444,0.14902 -0.01058,0.31041 0.09,0.429l0.069,0.084c0.153,0.187 0.236,0.42 0.236,0.662c-0.00425,0.07544 0.01534,0.15031 0.056,0.214l0.216,0.43c0.01385,0.03004 0.0262,0.06074 0.037,0.092c0.06307,0.18053 0.01766,0.38122 -0.117,0.517c-0.10184,0.1371 -0.12316,0.31798 -0.056,0.475l0.286,0.615c0.116,0.25 0.177,0.522 0.177,0.797c0.00049,0.09759 0.03201,0.1925 0.09,0.271c0.07933,0.096 0.15433,0.19433 0.225,0.295l0.065,0.088c0.01733,0.02333 0.026,0.04967 0.026,0.079c0,0.008 0.001,0.01633 0.003,0.025c0.02,0.109 0.031,0.217 0.031,0.315l0.005,0.036c0.03413,0.27444 0.01098,0.55297 -0.068,0.818l-0.004,0.016c-0.02256,0.06989 -0.02256,0.14511 0,0.215c0.01,0.05067 0.01933,0.10333 0.028,0.158c0.008,0.05333 0.01733,0.106 0.028,0.158l0.03,0.171l0.004,0.03c0.00364,0.02538 0.01213,0.04982 0.025,0.072l0.016,0.035c0.03267,0.094 0.06333,0.189 0.092,0.285l-1.963,1.962c-0.32536,0.33303 -0.32226,0.86583 0.00696,1.19504c0.32922,0.32922 0.86201,0.33232 1.19504,0.00696l16,-16c0.2189,-0.21386 0.30594,-0.52889 0.22788,-0.82481c-0.07806,-0.29591 -0.30917,-0.52702 -0.60508,-0.60508c-0.29591,-0.07806 -0.61094,0.00898 -0.82481,0.22788l-2.658,2.658l-0.238,-0.33c-0.03615,-0.05317 -0.07734,-0.10274 -0.123,-0.148c-0.02121,-0.02088 -0.04469,-0.03933 -0.07,-0.055c-0.06133,-0.034 -0.123,-0.07 -0.185,-0.108l-0.187,-0.107c-0.02169,-0.01554 -0.04005,-0.03526 -0.054,-0.058l-0.217,-0.371l-0.023,-0.031c-0.05788,-0.07133 -0.12634,-0.13339 -0.203,-0.184l-0.13,-0.102l-0.058,-0.046c-0.0467,-0.03731 -0.08632,-0.0827 -0.117,-0.134l-0.068,-0.135c-0.03867,-0.07399 -0.07601,-0.14867 -0.112,-0.224c-0.03205,-0.06669 -0.0785,-0.12544 -0.136,-0.172c-0.01067,-0.008 -0.02,-0.01667 -0.028,-0.026l-0.334,-0.324l-0.343,-0.375c-0.0369,-0.04021 -0.07704,-0.07734 -0.12,-0.111l-0.18,-0.113l-0.181,-0.113l-0.072,-0.043l-0.034,-0.021l-0.048,-0.029l-0.016,-0.009l-0.397,-0.165l-0.02,-0.004c-0.01505,0.00017 -0.02937,-0.00644 -0.039,-0.018c-0.06203,-0.06645 -0.12852,-0.12859 -0.199,-0.186l-0.047,-0.04c-0.06654,-0.05618 -0.12934,-0.11664 -0.188,-0.181l-0.104,-0.117l-0.102,-0.102c-0.08724,-0.08737 -0.20371,-0.13938 -0.327,-0.146c-0.17774,-0.00269 -0.34018,0.10019 -0.41372,0.26202c-0.07354,0.16183 -0.0442,0.35186 0.07472,0.48398l0.113,0.124l0.09,0.102c0.03133,0.03333 0.06133,0.067 0.09,0.101l0.181,0.18c0.03467,0.03467 0.07067,0.069 0.108,0.103l0.034,0.031c0.04867,0.04667 0.088,0.1 0.118,0.16l0.054,0.097c0.05,0.08667 0.096,0.175 0.138,0.265l0.271,0.52c0.03906,0.07816 0.10263,0.14138 0.181,0.18c0.21734,0.12362 0.37856,0.32639 0.45,0.566l0.013,0.045c0.01987,0.05584 0.04675,0.10893 0.08,0.158c0.078,0.09 0.146,0.18 0.214,0.27l0.113,0.148c0.04595,0.06636 0.114,0.11422 0.192,0.135l0.076,0.03c0.177,0.07 0.303,0.222 0.353,0.405l0.023,0.085c0.0328,0.11783 0.10934,0.2187 0.214,0.282l0.147,0.08c0.1074,0.06398 0.18071,0.17249 0.2,0.296l0.038,0.234c0.01995,0.13333 0.09992,0.25016 0.217,0.317M11.779,14.485l-0.047,-0.077l-1.412,1.412c0.022,0.10533 0.04133,0.21033 0.058,0.315l0.056,0.248l0.005,0.018c0.05,0.212 0.064,0.432 0.042,0.65l-0.014,0.15c-0.01055,0.08469 -0.01021,0.17039 0.001,0.255l0.158,0.633l0.26,0.678l0.04,0.126c0.025,0.08 0.051,0.166 0.073,0.247c0.03733,0.12 0.062,0.243 0.074,0.369l0.017,0.184l0.02,0.2l0.003,0.037c0.00469,0.03543 0.01411,0.07007 0.028,0.103l0.015,0.042l0.04,0.138l0.063,0.203c0.03,0.11333 0.045,0.22833 0.045,0.345v0.4l0.057,0.678c0,0.03867 0.00333,0.076 0.01,0.112l0.012,0.07c0.034,0.169 0.068,0.338 0.09,0.508c0,0.037 0.012,0.072 0.024,0.107l0.003,0.01l0.005,0.017l0.07,0.227l0.08,0.282c0.05824,0.19443 0.23703,0.32771 0.44,0.328h0.034c0.21111,-0.01653 0.38366,-0.17505 0.418,-0.384l0.068,-0.542c0.054,-0.256 0.02,-0.772 -0.048,-1.156c-0.03079,-0.1615 -0.02807,-0.3276 0.008,-0.488c0.02,-0.08267 0.04067,-0.16367 0.062,-0.243c0.01218,-0.05601 0.01218,-0.11399 0,-0.17l-0.034,-0.214c-0.01079,-0.06177 -0.02013,-0.12379 -0.028,-0.186l-0.022,-0.152c-0.01075,-0.05918 -0.00802,-0.12002 0.008,-0.178c0.032,-0.125 0.051,-0.25 0.07,-0.374c0.00194,-0.01203 0.00868,-0.02275 0.01867,-0.02972c0.00999,-0.00697 0.02238,-0.0096 0.03433,-0.00728c0.01337,0.00305 0.0274,-0.00017 0.03811,-0.00874c0.01071,-0.00857 0.01693,-0.02155 0.01689,-0.03526v-0.11c0,-0.01 -0.00133,-0.02 -0.004,-0.03l-0.053,-0.222c-0.01733,-0.07333 -0.036,-0.14667 -0.056,-0.22c-0.02039,-0.07297 -0.03939,-0.14631 -0.057,-0.22l-0.124,-0.622l-0.226,-0.712l-0.147,-0.62c-0.027,-0.14029 -0.05701,-0.27999 -0.09,-0.419c-0.02276,-0.12001 -0.03447,-0.24185 -0.035,-0.364c-0.00103,-0.07841 -0.00436,-0.15678 -0.01,-0.235v-0.203c-0.02494,-0.18824 -0.05161,-0.37625 -0.08,-0.564l-0.007,-0.058c-0.01,-0.08 -0.02,-0.16 -0.06,-0.23z" fill="#62757e" fill-rule="nonzero"></path></g>
  </g>
 </g>
</svg>
