<?xml version="1.0" encoding="UTF-8"?>
<!--Generator: Apple Native CoreSVG 175.5-->
<!DOCTYPE svg
PUBLIC "-//W3C//DTD SVG 1.1//EN"
       "http://www.w3.org/Graphics/SVG/1.1/DTD/svg11.dtd">
<svg version="1.1" xmlns="http://www.w3.org/2000/svg" xmlns:xlink="http://www.w3.org/1999/xlink" width="3300" height="2200">
 <!--glyph: "", point size: 100.0, font version: "18.0d12e2", template writer version: "101"-->
 <g id="Notes">
  <rect height="2200" id="artboard" style="fill:white;opacity:1" width="3300" x="0" y="0"/>
  <line style="fill:none;stroke:black;opacity:1;stroke-width:0.5;" x1="263" x2="3036" y1="292" y2="292"/>
  <text style="stroke:none;fill:black;font-family:sans-serif;font-size:13;font-weight:bold;" transform="matrix(1 0 0 1 263 322)">Weight/Scale Variations</text>
  <text style="stroke:none;fill:black;font-family:sans-serif;font-size:13;text-anchor:middle;" transform="matrix(1 0 0 1 559.711 322)">Ultralight</text>
  <text style="stroke:none;fill:black;font-family:sans-serif;font-size:13;text-anchor:middle;" transform="matrix(1 0 0 1 856.422 322)">Thin</text>
  <text style="stroke:none;fill:black;font-family:sans-serif;font-size:13;text-anchor:middle;" transform="matrix(1 0 0 1 1153.13 322)">Light</text>
  <text style="stroke:none;fill:black;font-family:sans-serif;font-size:13;text-anchor:middle;" transform="matrix(1 0 0 1 1449.84 322)">Regular</text>
  <text style="stroke:none;fill:black;font-family:sans-serif;font-size:13;text-anchor:middle;" transform="matrix(1 0 0 1 1746.56 322)">Medium</text>
  <text style="stroke:none;fill:black;font-family:sans-serif;font-size:13;text-anchor:middle;" transform="matrix(1 0 0 1 2043.27 322)">Semibold</text>
  <text style="stroke:none;fill:black;font-family:sans-serif;font-size:13;text-anchor:middle;" transform="matrix(1 0 0 1 2339.98 322)">Bold</text>
  <text style="stroke:none;fill:black;font-family:sans-serif;font-size:13;text-anchor:middle;" transform="matrix(1 0 0 1 2636.69 322)">Heavy</text>
  <text style="stroke:none;fill:black;font-family:sans-serif;font-size:13;text-anchor:middle;" transform="matrix(1 0 0 1 2933.4 322)">Black</text>
  <line style="fill:none;stroke:black;opacity:1;stroke-width:0.5;" x1="263" x2="3036" y1="1903" y2="1903"/>
  <g transform="matrix(1 0 0 1 263 1933)">
   <path d="M9.24805 0.830078C13.5547 0.830078 17.1387-2.74414 17.1387-7.05078C17.1387-11.3574 13.5449-14.9316 9.23828-14.9316C4.94141-14.9316 1.36719-11.3574 1.36719-7.05078C1.36719-2.74414 4.95117 0.830078 9.24805 0.830078ZM9.24805-0.654297C5.70312-0.654297 2.87109-3.49609 2.87109-7.05078C2.87109-10.6055 5.69336-13.4473 9.23828-13.4473C12.793-13.4473 15.6445-10.6055 15.6445-7.05078C15.6445-3.49609 12.8027-0.654297 9.24805-0.654297ZM5.6543-7.05078C5.6543-6.62109 5.95703-6.32812 6.40625-6.32812L8.50586-6.32812L8.50586-4.20898C8.50586-3.76953 8.79883-3.4668 9.22852-3.4668C9.67773-3.4668 9.9707-3.76953 9.9707-4.20898L9.9707-6.32812L12.0898-6.32812C12.5293-6.32812 12.832-6.62109 12.832-7.05078C12.832-7.49023 12.5293-7.79297 12.0898-7.79297L9.9707-7.79297L9.9707-9.90234C9.9707-10.3516 9.67773-10.6543 9.22852-10.6543C8.79883-10.6543 8.50586-10.3516 8.50586-9.90234L8.50586-7.79297L6.40625-7.79297C5.95703-7.79297 5.6543-7.49023 5.6543-7.05078Z"/>
  </g>
  <g transform="matrix(1 0 0 1 281.867 1933)">
   <path d="M11.709 2.91016C17.1582 2.91016 21.6699-1.61133 21.6699-7.05078C21.6699-12.5 17.1484-17.0117 11.6992-17.0117C6.25977-17.0117 1.74805-12.5 1.74805-7.05078C1.74805-1.61133 6.26953 2.91016 11.709 2.91016ZM11.709 1.25C7.09961 1.25 3.41797-2.44141 3.41797-7.05078C3.41797-11.6602 7.08984-15.3516 11.6992-15.3516C16.3086-15.3516 20.0098-11.6602 20.0098-7.05078C20.0098-2.44141 16.3184 1.25 11.709 1.25ZM7.17773-7.05078C7.17773-6.57227 7.50977-6.25 8.00781-6.25L10.8789-6.25L10.8789-3.36914C10.8789-2.88086 11.2109-2.53906 11.6895-2.53906C12.1777-2.53906 12.5195-2.87109 12.5195-3.36914L12.5195-6.25L15.4004-6.25C15.8887-6.25 16.2305-6.57227 16.2305-7.05078C16.2305-7.53906 15.8887-7.88086 15.4004-7.88086L12.5195-7.88086L12.5195-10.752C12.5195-11.25 12.1777-11.5918 11.6895-11.5918C11.2109-11.5918 10.8789-11.25 10.8789-10.752L10.8789-7.88086L8.00781-7.88086C7.50977-7.88086 7.17773-7.53906 7.17773-7.05078Z"/>
  </g>
  <g transform="matrix(1 0 0 1 305.646 1933)">
   <path d="M14.9707 5.66406C21.9336 5.66406 27.6953-0.0976562 27.6953-7.05078C27.6953-14.0137 21.9238-19.7754 14.9609-19.7754C8.00781-19.7754 2.25586-14.0137 2.25586-7.05078C2.25586-0.0976562 8.01758 5.66406 14.9707 5.66406ZM14.9707 3.84766C8.93555 3.84766 4.08203-1.01562 4.08203-7.05078C4.08203-13.0957 8.92578-17.9492 14.9609-17.9492C21.0059-17.9492 25.8691-13.0957 25.8691-7.05078C25.8691-1.01562 21.0156 3.84766 14.9707 3.84766ZM9.19922-7.05078C9.19922-6.5332 9.57031-6.17188 10.1172-6.17188L14.0625-6.17188L14.0625-2.2168C14.0625-1.67969 14.4336-1.29883 14.9512-1.29883C15.4883-1.29883 15.8594-1.66992 15.8594-2.2168L15.8594-6.17188L19.8145-6.17188C20.3516-6.17188 20.7324-6.5332 20.7324-7.05078C20.7324-7.59766 20.3613-7.96875 19.8145-7.96875L15.8594-7.96875L15.8594-11.9141C15.8594-12.4609 15.4883-12.8418 14.9512-12.8418C14.4336-12.8418 14.0625-12.4609 14.0625-11.9141L14.0625-7.96875L10.1172-7.96875C9.57031-7.96875 9.19922-7.59766 9.19922-7.05078Z"/>
  </g>
  <text style="stroke:none;fill:black;font-family:sans-serif;font-size:13;font-weight:bold;" transform="matrix(1 0 0 1 263 1953)">Design Variations</text>
  <text style="stroke:none;fill:black;font-family:sans-serif;font-size:13;" transform="matrix(1 0 0 1 263 1971)">Symbols are supported in up to nine weights and three scales.</text>
  <text style="stroke:none;fill:black;font-family:sans-serif;font-size:13;" transform="matrix(1 0 0 1 263 1989)">For optimal layout with text and other symbols, vertically align</text>
  <text style="stroke:none;fill:black;font-family:sans-serif;font-size:13;" transform="matrix(1 0 0 1 263 2007)">symbols with the adjacent text.</text>
  <line style="fill:none;stroke:#00AEEF;stroke-width:0.5;opacity:1.0;" x1="776" x2="776" y1="1919" y2="1933"/>
  <g transform="matrix(1 0 0 1 776 1933)">
   <path d="M3.31055 0.15625C3.82812 0.15625 4.08203-0.0390625 4.26758-0.585938L5.52734-4.0332L11.2891-4.0332L12.5488-0.585938C12.7344-0.0390625 12.9883 0.15625 13.4961 0.15625C14.0137 0.15625 14.3457-0.15625 14.3457-0.644531C14.3457-0.810547 14.3164-0.966797 14.2383-1.17188L9.6582-13.3691C9.43359-13.9648 9.0332-14.2676 8.4082-14.2676C7.80273-14.2676 7.39258-13.9746 7.17773-13.3789L2.59766-1.16211C2.51953-0.957031 2.49023-0.800781 2.49023-0.634766C2.49023-0.146484 2.80273 0.15625 3.31055 0.15625ZM6.00586-5.51758L8.37891-12.0898L8.42773-12.0898L10.8008-5.51758Z"/>
  </g>
  <line style="fill:none;stroke:#00AEEF;stroke-width:0.5;opacity:1.0;" x1="793.197" x2="793.197" y1="1919" y2="1933"/>
  <text style="stroke:none;fill:black;font-family:sans-serif;font-size:13;font-weight:bold;" transform="matrix(1 0 0 1 776 1953)">Margins</text>
  <text style="stroke:none;fill:black;font-family:sans-serif;font-size:13;" transform="matrix(1 0 0 1 776 1971)">Leading and trailing margins on the left and right side of each symbol</text>
  <text style="stroke:none;fill:black;font-family:sans-serif;font-size:13;" transform="matrix(1 0 0 1 776 1989)">can be adjusted by modifying the x-location of the margin guidelines.</text>
  <text style="stroke:none;fill:black;font-family:sans-serif;font-size:13;" transform="matrix(1 0 0 1 776 2007)">Modifications are automatically applied proportionally to all</text>
  <text style="stroke:none;fill:black;font-family:sans-serif;font-size:13;" transform="matrix(1 0 0 1 776 2025)">scales and weights.</text>
  <g transform="matrix(1 0 0 1 1289 1933)">
   <path d="M2.8418 1.86523L4.54102 3.57422C5.40039 4.44336 6.38672 4.38477 7.31445 3.35938L18.0078-8.42773L17.041-9.4043L6.42578 2.27539C6.07422 2.67578 5.74219 2.77344 5.27344 2.30469L4.10156 1.14258C3.63281 0.683594 3.74023 0.341797 4.14062-0.0195312L15.6152-10.8203L14.6387-11.7871L3.04688-0.898438C2.06055 0.0195312 1.98242 0.996094 2.8418 1.86523ZM9.25781-16.3281C8.83789-15.918 8.80859-15.3418 9.04297-14.9512C9.27734-14.5898 9.73633-14.3555 10.3809-14.5215C11.8457-14.8633 13.3691-14.9219 14.7949-13.9844L14.209-12.5293C13.8672-11.6992 14.043-11.1133 14.5801-10.5664L16.875-8.25195C17.3633-7.76367 17.7734-7.74414 18.3398-7.8418L19.4043-8.03711L20.0684-7.36328L20.0293-6.80664C19.9902-6.30859 20.1172-5.92773 20.6055-5.44922L21.3672-4.70703C21.8457-4.22852 22.4609-4.19922 22.9297-4.66797L25.8398-7.58789C26.3086-8.05664 26.2891-8.65234 25.8105-9.13086L25.0391-9.89258C24.5605-10.3711 24.1895-10.5273 23.7109-10.4883L23.1348-10.4395L22.4902-11.0742L22.7344-12.1973C22.8613-12.7637 22.7051-13.2031 22.1191-13.7891L19.9219-15.9766C16.582-19.2969 12.1484-19.2188 9.25781-16.3281ZM10.752-15.957C13.1836-17.7344 16.4746-17.4316 18.7012-15.2051L21.1328-12.793C21.3672-12.5586 21.4062-12.373 21.3379-12.0312L21.0156-10.5469L22.5195-9.0625L23.5059-9.12109C23.7598-9.13086 23.8379-9.11133 24.0332-8.91602L24.6094-8.33984L22.168-5.89844L21.5918-6.47461C21.3965-6.66992 21.3672-6.74805 21.377-7.01172L21.4453-7.98828L19.9512-9.47266L18.4277-9.21875C18.1055-9.15039 17.959-9.17969 17.7148-9.41406L15.7129-11.416C15.459-11.6504 15.4297-11.8164 15.5859-12.1875L16.4648-14.2773C14.9023-15.7324 12.8711-16.3574 10.8398-15.7617C10.6836-15.7227 10.625-15.8496 10.752-15.957Z"/>
  </g>
  <text style="stroke:none;fill:black;font-family:sans-serif;font-size:13;font-weight:bold;" transform="matrix(1 0 0 1 1289 1953)">Exporting</text>
  <text style="stroke:none;fill:black;font-family:sans-serif;font-size:13;" transform="matrix(1 0 0 1 1289 1971)">Symbols should be outlined when exporting to ensure the</text>
  <text style="stroke:none;fill:black;font-family:sans-serif;font-size:13;" transform="matrix(1 0 0 1 1289 1989)">design is preserved when submitting to Xcode.</text>
  <text id="template-version" style="stroke:none;fill:black;font-family:sans-serif;font-size:13;text-anchor:end;" transform="matrix(1 0 0 1 3036 1933)">Template v.4.0</text>
  <text style="stroke:none;fill:black;font-family:sans-serif;font-size:13;text-anchor:end;" transform="matrix(1 0 0 1 3036 1951)">Requires Xcode 14 or greater</text>
  <text id="descriptive-name" style="stroke:none;fill:black;font-family:sans-serif;font-size:13;text-anchor:end;" transform="matrix(1 0 0 1 3036 1969)">Generated from brave.zzz</text>
  <text style="stroke:none;fill:black;font-family:sans-serif;font-size:13;text-anchor:end;" transform="matrix(1 0 0 1 3036 1987)">Typeset at 100 points</text>
  <text style="stroke:none;fill:black;font-family:sans-serif;font-size:13;" transform="matrix(1 0 0 1 263 726)">Small</text>
  <text style="stroke:none;fill:black;font-family:sans-serif;font-size:13;" transform="matrix(1 0 0 1 263 1156)">Medium</text>
  <text style="stroke:none;fill:black;font-family:sans-serif;font-size:13;" transform="matrix(1 0 0 1 263 1586)">Large</text>
 </g>
 <g id="Guides">
  <g id="H-reference" style="fill:#27AAE1;stroke:none;" transform="matrix(1 0 0 1 339 696)">
   <path d="M0.993654 0L3.63775 0L29.3281-67.1323L30.0303-67.1323L30.0303-70.459L28.1226-70.459ZM11.6885-24.4799L46.9815-24.4799L46.2315-26.7285L12.4385-26.7285ZM55.1196 0L57.7637 0L30.6382-70.459L29.4326-70.459L29.4326-67.1323Z"/>
  </g>
  <line id="Baseline-S" style="fill:none;stroke:#27AAE1;opacity:1;stroke-width:0.5;" x1="263" x2="3036" y1="696" y2="696"/>
  <line id="Capline-S" style="fill:none;stroke:#27AAE1;opacity:1;stroke-width:0.5;" x1="263" x2="3036" y1="625.541" y2="625.541"/>
  <g id="H-reference" style="fill:#27AAE1;stroke:none;" transform="matrix(1 0 0 1 339 1126)">
   <path d="M0.993654 0L3.63775 0L29.3281-67.1323L30.0303-67.1323L30.0303-70.459L28.1226-70.459ZM11.6885-24.4799L46.9815-24.4799L46.2315-26.7285L12.4385-26.7285ZM55.1196 0L57.7637 0L30.6382-70.459L29.4326-70.459L29.4326-67.1323Z"/>
  </g>
  <line id="Baseline-M" style="fill:none;stroke:#27AAE1;opacity:1;stroke-width:0.5;" x1="263" x2="3036" y1="1126" y2="1126"/>
  <line id="Capline-M" style="fill:none;stroke:#27AAE1;opacity:1;stroke-width:0.5;" x1="263" x2="3036" y1="1055.54" y2="1055.54"/>
  <g id="H-reference" style="fill:#27AAE1;stroke:none;" transform="matrix(1 0 0 1 339 1556)">
   <path d="M0.993654 0L3.63775 0L29.3281-67.1323L30.0303-67.1323L30.0303-70.459L28.1226-70.459ZM11.6885-24.4799L46.9815-24.4799L46.2315-26.7285L12.4385-26.7285ZM55.1196 0L57.7637 0L30.6382-70.459L29.4326-70.459L29.4326-67.1323Z"/>
  </g>
  <line id="Baseline-L" style="fill:none;stroke:#27AAE1;opacity:1;stroke-width:0.5;" x1="263" x2="3036" y1="1556" y2="1556"/>
  <line id="Capline-L" style="fill:none;stroke:#27AAE1;opacity:1;stroke-width:0.5;" x1="263" x2="3036" y1="1485.54" y2="1485.54"/>
  <line id="left-margin-Regular-M" style="fill:none;stroke:#00AEEF;stroke-width:0.5;opacity:1.0;" x1="1389.82" x2="1389.82" y1="1030.79" y2="1150.12"/>
  <line id="right-margin-Regular-M" style="fill:none;stroke:#00AEEF;stroke-width:0.5;opacity:1.0;" x1="1509.87" x2="1509.87" y1="1030.79" y2="1150.12"/>
 </g>
 <g id="Symbols">
  <g id="Regular-L" transform="matrix(6.45 0 0 6.45 1372.2675 1443)">
    <defs><clipPath id="clip-1"><rect x="0" y="0" width="24" height="24" fill="none" fill-rule="nonzero"></rect></clipPath></defs>
<g clip-path="url(#clip-1)" fill="none" fill-rule="none" stroke="none" stroke-width="1" stroke-linecap="butt" stroke-linejoin="miter" stroke-miterlimit="10" stroke-dasharray="" stroke-dashoffset="0" font-family="none" font-weight="none" font-size="none" text-anchor="none" style="mix-blend-mode: normal"><path d="M12,3.983c-0.28667,0 -0.57,0.013 -0.85,0.039c-0.28829,0.03287 -0.57177,-0.09293 -0.74082,-0.32875c-0.16905,-0.23582 -0.19717,-0.54469 -0.07347,-0.80715c0.1237,-0.26247 0.37981,-0.43738 0.66929,-0.4571c0.66197,-0.06012 1.32803,-0.06012 1.99,0c0.28948,0.01972 0.5456,0.19463 0.66929,0.4571c0.1237,0.26247 0.09558,0.57133 -0.07347,0.80715c-0.16905,0.23582 -0.45254,0.36162 -0.74082,0.32875c-0.28256,-0.02639 -0.56621,-0.03941 -0.85,-0.039M14.867,3.566c0.16119,-0.41098 0.62483,-0.61371 1.036,-0.453c0.63133,0.248 1.226,0.55033 1.784,0.907c0.37224,0.23803 0.48103,0.73276 0.243,1.105c-0.23803,0.37224 -0.73276,0.48103 -1.105,0.243c-0.47568,-0.30319 -0.97972,-0.55939 -1.505,-0.765c-0.19762,-0.0774 -0.35638,-0.23016 -0.44134,-0.42465c-0.08496,-0.19449 -0.08915,-0.41477 -0.01166,-0.61235M9.133,3.566c0.07749,0.19758 0.0733,0.41786 -0.01166,0.61235c-0.08496,0.19449 -0.24372,0.34725 -0.44134,0.42465c-0.52528,0.20561 -1.02932,0.46181 -1.505,0.765c-0.37224,0.23803 -0.86697,0.12924 -1.105,-0.243c-0.23803,-0.37224 -0.12924,-0.86697 0.243,-1.105c0.558,-0.35667 1.15267,-0.659 1.784,-0.907c0.41117,-0.16071 0.87481,0.04202 1.036,0.453M5.183,5.902c0.33944,0.28233 0.38598,0.78627 0.104,1.126c-0.35644,0.42849 -0.66401,0.89537 -0.917,1.392c-0.12629,0.26037 -0.38336,0.43224 -0.67223,0.44945c-0.28887,0.01721 -0.56452,-0.12294 -0.72083,-0.36648c-0.15631,-0.24354 -0.1689,-0.55251 -0.03294,-0.80797c0.3061,-0.60264 0.67912,-1.16888 1.112,-1.688c0.28204,-0.33975 0.78601,-0.38675 1.126,-0.105M18.817,5.902c0.33999,-0.28175 0.84396,-0.23475 1.126,0.105c0.432,0.52 0.806,1.086 1.112,1.688c0.19027,0.39227 0.03141,0.86467 -0.35723,1.06226c-0.38864,0.19759 -0.86393,0.04761 -1.06877,-0.33726c-0.25299,-0.49663 -0.56056,-0.96351 -0.917,-1.392c-0.28175,-0.33999 -0.23475,-0.84396 0.105,-1.126M21.05,9.9c0.21088,-0.02537 0.42319,0.03415 0.59014,0.16546c0.16695,0.13131 0.27483,0.32362 0.29986,0.53454c0.03933,0.33467 0.059,0.67367 0.059,1.017c-0.00067,0.36933 -0.029,0.732 -0.085,1.088c-0.07694,0.42851 -0.48242,0.71683 -0.91244,0.64879c-0.43002,-0.06804 -0.72668,-0.46746 -0.66756,-0.89879c0.04333,-0.27333 0.065,-0.55267 0.065,-0.838c0,-0.28 -0.01633,-0.556 -0.049,-0.828c-0.02509,-0.21072 0.03457,-0.42277 0.16585,-0.5895c0.13128,-0.16673 0.32342,-0.27446 0.53415,-0.2995M2.95,9.9c0.21073,0.02504 0.40287,0.13277 0.53415,0.2995c0.13128,0.16673 0.19094,0.37878 0.16585,0.5895c-0.07096,0.59494 -0.06525,1.19652 0.017,1.79c0.06075,0.43769 -0.24481,0.84175 -0.6825,0.9025c-0.43769,0.06075 -0.84175,-0.24481 -0.9025,-0.6825c-0.10141,-0.72904 -0.1088,-1.46808 -0.022,-2.199c0.02504,-0.21073 0.13277,-0.40287 0.2995,-0.53415c0.16673,-0.13128 0.37878,-0.19094 0.5895,-0.16585M20.5,14.59c0.17693,0.1172 0.30005,0.2999 0.34225,0.50789c0.0422,0.20799 0.00002,0.42423 -0.11725,0.60111c-0.39174,0.5867 -0.84828,1.12744 -1.361,1.612c-0.32033,0.30459 -0.82691,0.29183 -1.1315,-0.0285c-0.30459,-0.32033 -0.29183,-0.82691 0.0285,-1.1315c0.42558,-0.40154 0.80464,-0.84969 1.13,-1.336c0.1172,-0.17693 0.2999,-0.30005 0.50789,-0.34225c0.20799,-0.0422 0.42423,-0.00002 0.60111,0.11725M3.536,15.023c0.18161,-0.11031 0.39965,-0.14383 0.60601,-0.09318c0.20636,0.05065 0.38409,0.18132 0.49399,0.36318c0.16733,0.276 0.35267,0.54167 0.556,0.797c0.18489,0.22285 0.23492,0.52822 0.13081,0.79842c-0.1041,0.2702 -0.34609,0.46306 -0.63271,0.50425c-0.28662,0.04119 -0.57312,-0.07572 -0.7491,-0.30567c-0.24548,-0.30661 -0.47063,-0.62897 -0.674,-0.965c-0.11031,-0.18161 -0.14383,-0.39965 -0.09318,-0.60601c0.05065,-0.20636 0.18132,-0.38409 0.36318,-0.49399M17.164,18.035c0.09961,0.18737 0.1207,0.40664 0.05862,0.60956c-0.06208,0.20292 -0.20223,0.37287 -0.38962,0.47244c-0.603,0.32 -1.237,0.594 -1.892,0.816c-0.41427,0.12991 -0.85655,-0.09432 -0.99661,-0.50527c-0.14006,-0.41095 0.07322,-0.85861 0.48061,-1.00873c0.57098,-0.19255 1.12518,-0.43168 1.657,-0.715c0.18737,-0.09961 0.40664,-0.1207 0.60956,-0.05862c0.20292,0.06208 0.37287,0.20223 0.47244,0.38962M5.858,18.604c0.41376,0.154 0.62455,0.61407 0.471,1.028c-0.04715,0.12809 -0.09953,0.2542 -0.157,0.378c0.39584,0.0767 0.67274,0.43599 0.64607,0.83831c-0.02667,0.40232 -0.34857,0.72191 -0.75107,0.74569c-0.47839,0.02855 -0.95848,-0.00033 -1.43,-0.086c-0.28171,-0.05046 -0.51501,-0.24757 -0.61181,-0.5169c-0.09679,-0.26933 -0.04234,-0.56986 0.14281,-0.7881c0.05733,-0.06667 0.112,-0.13533 0.164,-0.206c0.08448,-0.11562 0.19844,-0.20645 0.33,-0.263c-0.01511,-0.14258 0.00837,-0.28661 0.068,-0.417c0.036,-0.08 0.06933,-0.16067 0.1,-0.242c0.154,-0.41376 0.61407,-0.62455 1.028,-0.471M12.648,19.706c0.01829,0.21154 -0.04827,0.42166 -0.18501,0.5841c-0.13674,0.16243 -0.33244,0.26385 -0.54399,0.2819c-0.34419,0.02989 -0.68951,0.04491 -1.035,0.045c-0.392,0 -0.751,0.04 -1.093,0.102c-0.43465,0.08008 -0.85192,-0.20735 -0.932,-0.642c-0.08008,-0.43465 0.20735,-0.85192 0.642,-0.932c0.45613,-0.08479 0.91906,-0.12764 1.383,-0.128c0.29867,0 0.598,-0.01333 0.898,-0.04c0.21169,-0.01828 0.42196,0.04841 0.58443,0.18536c0.16246,0.13695 0.26377,0.3329 0.28157,0.54464" fill="#62757e" fill-rule="nonzero"></path></g>
  </g>
  <g id="Regular-M" transform="matrix(5 0 0 5 1389.82 1030)">
    <defs><clipPath id="clip-1"><rect x="0" y="0" width="24" height="24" fill="none" fill-rule="nonzero"></rect></clipPath></defs>
<g clip-path="url(#clip-1)" fill="none" fill-rule="none" stroke="none" stroke-width="1" stroke-linecap="butt" stroke-linejoin="miter" stroke-miterlimit="10" stroke-dasharray="" stroke-dashoffset="0" font-family="none" font-weight="none" font-size="none" text-anchor="none" style="mix-blend-mode: normal"><path d="M12,3.983c-0.28667,0 -0.57,0.013 -0.85,0.039c-0.28829,0.03287 -0.57177,-0.09293 -0.74082,-0.32875c-0.16905,-0.23582 -0.19717,-0.54469 -0.07347,-0.80715c0.1237,-0.26247 0.37981,-0.43738 0.66929,-0.4571c0.66197,-0.06012 1.32803,-0.06012 1.99,0c0.28948,0.01972 0.5456,0.19463 0.66929,0.4571c0.1237,0.26247 0.09558,0.57133 -0.07347,0.80715c-0.16905,0.23582 -0.45254,0.36162 -0.74082,0.32875c-0.28256,-0.02639 -0.56621,-0.03941 -0.85,-0.039M14.867,3.566c0.16119,-0.41098 0.62483,-0.61371 1.036,-0.453c0.63133,0.248 1.226,0.55033 1.784,0.907c0.37224,0.23803 0.48103,0.73276 0.243,1.105c-0.23803,0.37224 -0.73276,0.48103 -1.105,0.243c-0.47568,-0.30319 -0.97972,-0.55939 -1.505,-0.765c-0.19762,-0.0774 -0.35638,-0.23016 -0.44134,-0.42465c-0.08496,-0.19449 -0.08915,-0.41477 -0.01166,-0.61235M9.133,3.566c0.07749,0.19758 0.0733,0.41786 -0.01166,0.61235c-0.08496,0.19449 -0.24372,0.34725 -0.44134,0.42465c-0.52528,0.20561 -1.02932,0.46181 -1.505,0.765c-0.37224,0.23803 -0.86697,0.12924 -1.105,-0.243c-0.23803,-0.37224 -0.12924,-0.86697 0.243,-1.105c0.558,-0.35667 1.15267,-0.659 1.784,-0.907c0.41117,-0.16071 0.87481,0.04202 1.036,0.453M5.183,5.902c0.33944,0.28233 0.38598,0.78627 0.104,1.126c-0.35644,0.42849 -0.66401,0.89537 -0.917,1.392c-0.12629,0.26037 -0.38336,0.43224 -0.67223,0.44945c-0.28887,0.01721 -0.56452,-0.12294 -0.72083,-0.36648c-0.15631,-0.24354 -0.1689,-0.55251 -0.03294,-0.80797c0.3061,-0.60264 0.67912,-1.16888 1.112,-1.688c0.28204,-0.33975 0.78601,-0.38675 1.126,-0.105M18.817,5.902c0.33999,-0.28175 0.84396,-0.23475 1.126,0.105c0.432,0.52 0.806,1.086 1.112,1.688c0.19027,0.39227 0.03141,0.86467 -0.35723,1.06226c-0.38864,0.19759 -0.86393,0.04761 -1.06877,-0.33726c-0.25299,-0.49663 -0.56056,-0.96351 -0.917,-1.392c-0.28175,-0.33999 -0.23475,-0.84396 0.105,-1.126M21.05,9.9c0.21088,-0.02537 0.42319,0.03415 0.59014,0.16546c0.16695,0.13131 0.27483,0.32362 0.29986,0.53454c0.03933,0.33467 0.059,0.67367 0.059,1.017c-0.00067,0.36933 -0.029,0.732 -0.085,1.088c-0.07694,0.42851 -0.48242,0.71683 -0.91244,0.64879c-0.43002,-0.06804 -0.72668,-0.46746 -0.66756,-0.89879c0.04333,-0.27333 0.065,-0.55267 0.065,-0.838c0,-0.28 -0.01633,-0.556 -0.049,-0.828c-0.02509,-0.21072 0.03457,-0.42277 0.16585,-0.5895c0.13128,-0.16673 0.32342,-0.27446 0.53415,-0.2995M2.95,9.9c0.21073,0.02504 0.40287,0.13277 0.53415,0.2995c0.13128,0.16673 0.19094,0.37878 0.16585,0.5895c-0.07096,0.59494 -0.06525,1.19652 0.017,1.79c0.06075,0.43769 -0.24481,0.84175 -0.6825,0.9025c-0.43769,0.06075 -0.84175,-0.24481 -0.9025,-0.6825c-0.10141,-0.72904 -0.1088,-1.46808 -0.022,-2.199c0.02504,-0.21073 0.13277,-0.40287 0.2995,-0.53415c0.16673,-0.13128 0.37878,-0.19094 0.5895,-0.16585M20.5,14.59c0.17693,0.1172 0.30005,0.2999 0.34225,0.50789c0.0422,0.20799 0.00002,0.42423 -0.11725,0.60111c-0.39174,0.5867 -0.84828,1.12744 -1.361,1.612c-0.32033,0.30459 -0.82691,0.29183 -1.1315,-0.0285c-0.30459,-0.32033 -0.29183,-0.82691 0.0285,-1.1315c0.42558,-0.40154 0.80464,-0.84969 1.13,-1.336c0.1172,-0.17693 0.2999,-0.30005 0.50789,-0.34225c0.20799,-0.0422 0.42423,-0.00002 0.60111,0.11725M3.536,15.023c0.18161,-0.11031 0.39965,-0.14383 0.60601,-0.09318c0.20636,0.05065 0.38409,0.18132 0.49399,0.36318c0.16733,0.276 0.35267,0.54167 0.556,0.797c0.18489,0.22285 0.23492,0.52822 0.13081,0.79842c-0.1041,0.2702 -0.34609,0.46306 -0.63271,0.50425c-0.28662,0.04119 -0.57312,-0.07572 -0.7491,-0.30567c-0.24548,-0.30661 -0.47063,-0.62897 -0.674,-0.965c-0.11031,-0.18161 -0.14383,-0.39965 -0.09318,-0.60601c0.05065,-0.20636 0.18132,-0.38409 0.36318,-0.49399M17.164,18.035c0.09961,0.18737 0.1207,0.40664 0.05862,0.60956c-0.06208,0.20292 -0.20223,0.37287 -0.38962,0.47244c-0.603,0.32 -1.237,0.594 -1.892,0.816c-0.41427,0.12991 -0.85655,-0.09432 -0.99661,-0.50527c-0.14006,-0.41095 0.07322,-0.85861 0.48061,-1.00873c0.57098,-0.19255 1.12518,-0.43168 1.657,-0.715c0.18737,-0.09961 0.40664,-0.1207 0.60956,-0.05862c0.20292,0.06208 0.37287,0.20223 0.47244,0.38962M5.858,18.604c0.41376,0.154 0.62455,0.61407 0.471,1.028c-0.04715,0.12809 -0.09953,0.2542 -0.157,0.378c0.39584,0.0767 0.67274,0.43599 0.64607,0.83831c-0.02667,0.40232 -0.34857,0.72191 -0.75107,0.74569c-0.47839,0.02855 -0.95848,-0.00033 -1.43,-0.086c-0.28171,-0.05046 -0.51501,-0.24757 -0.61181,-0.5169c-0.09679,-0.26933 -0.04234,-0.56986 0.14281,-0.7881c0.05733,-0.06667 0.112,-0.13533 0.164,-0.206c0.08448,-0.11562 0.19844,-0.20645 0.33,-0.263c-0.01511,-0.14258 0.00837,-0.28661 0.068,-0.417c0.036,-0.08 0.06933,-0.16067 0.1,-0.242c0.154,-0.41376 0.61407,-0.62455 1.028,-0.471M12.648,19.706c0.01829,0.21154 -0.04827,0.42166 -0.18501,0.5841c-0.13674,0.16243 -0.33244,0.26385 -0.54399,0.2819c-0.34419,0.02989 -0.68951,0.04491 -1.035,0.045c-0.392,0 -0.751,0.04 -1.093,0.102c-0.43465,0.08008 -0.85192,-0.20735 -0.932,-0.642c-0.08008,-0.43465 0.20735,-0.85192 0.642,-0.932c0.45613,-0.08479 0.91906,-0.12764 1.383,-0.128c0.29867,0 0.598,-0.01333 0.898,-0.04c0.21169,-0.01828 0.42196,0.04841 0.58443,0.18536c0.16246,0.13695 0.26377,0.3329 0.28157,0.54464" fill="#62757e" fill-rule="nonzero"></path></g>
  </g>
  <g id="Regular-S" transform="matrix(3.915 0 0 3.915 1402.75 614)">
    <defs><clipPath id="clip-1"><rect x="0" y="0" width="24" height="24" fill="none" fill-rule="nonzero"></rect></clipPath></defs>
<g clip-path="url(#clip-1)" fill="none" fill-rule="none" stroke="none" stroke-width="1" stroke-linecap="butt" stroke-linejoin="miter" stroke-miterlimit="10" stroke-dasharray="" stroke-dashoffset="0" font-family="none" font-weight="none" font-size="none" text-anchor="none" style="mix-blend-mode: normal"><path d="M12,3.983c-0.28667,0 -0.57,0.013 -0.85,0.039c-0.28829,0.03287 -0.57177,-0.09293 -0.74082,-0.32875c-0.16905,-0.23582 -0.19717,-0.54469 -0.07347,-0.80715c0.1237,-0.26247 0.37981,-0.43738 0.66929,-0.4571c0.66197,-0.06012 1.32803,-0.06012 1.99,0c0.28948,0.01972 0.5456,0.19463 0.66929,0.4571c0.1237,0.26247 0.09558,0.57133 -0.07347,0.80715c-0.16905,0.23582 -0.45254,0.36162 -0.74082,0.32875c-0.28256,-0.02639 -0.56621,-0.03941 -0.85,-0.039M14.867,3.566c0.16119,-0.41098 0.62483,-0.61371 1.036,-0.453c0.63133,0.248 1.226,0.55033 1.784,0.907c0.37224,0.23803 0.48103,0.73276 0.243,1.105c-0.23803,0.37224 -0.73276,0.48103 -1.105,0.243c-0.47568,-0.30319 -0.97972,-0.55939 -1.505,-0.765c-0.19762,-0.0774 -0.35638,-0.23016 -0.44134,-0.42465c-0.08496,-0.19449 -0.08915,-0.41477 -0.01166,-0.61235M9.133,3.566c0.07749,0.19758 0.0733,0.41786 -0.01166,0.61235c-0.08496,0.19449 -0.24372,0.34725 -0.44134,0.42465c-0.52528,0.20561 -1.02932,0.46181 -1.505,0.765c-0.37224,0.23803 -0.86697,0.12924 -1.105,-0.243c-0.23803,-0.37224 -0.12924,-0.86697 0.243,-1.105c0.558,-0.35667 1.15267,-0.659 1.784,-0.907c0.41117,-0.16071 0.87481,0.04202 1.036,0.453M5.183,5.902c0.33944,0.28233 0.38598,0.78627 0.104,1.126c-0.35644,0.42849 -0.66401,0.89537 -0.917,1.392c-0.12629,0.26037 -0.38336,0.43224 -0.67223,0.44945c-0.28887,0.01721 -0.56452,-0.12294 -0.72083,-0.36648c-0.15631,-0.24354 -0.1689,-0.55251 -0.03294,-0.80797c0.3061,-0.60264 0.67912,-1.16888 1.112,-1.688c0.28204,-0.33975 0.78601,-0.38675 1.126,-0.105M18.817,5.902c0.33999,-0.28175 0.84396,-0.23475 1.126,0.105c0.432,0.52 0.806,1.086 1.112,1.688c0.19027,0.39227 0.03141,0.86467 -0.35723,1.06226c-0.38864,0.19759 -0.86393,0.04761 -1.06877,-0.33726c-0.25299,-0.49663 -0.56056,-0.96351 -0.917,-1.392c-0.28175,-0.33999 -0.23475,-0.84396 0.105,-1.126M21.05,9.9c0.21088,-0.02537 0.42319,0.03415 0.59014,0.16546c0.16695,0.13131 0.27483,0.32362 0.29986,0.53454c0.03933,0.33467 0.059,0.67367 0.059,1.017c-0.00067,0.36933 -0.029,0.732 -0.085,1.088c-0.07694,0.42851 -0.48242,0.71683 -0.91244,0.64879c-0.43002,-0.06804 -0.72668,-0.46746 -0.66756,-0.89879c0.04333,-0.27333 0.065,-0.55267 0.065,-0.838c0,-0.28 -0.01633,-0.556 -0.049,-0.828c-0.02509,-0.21072 0.03457,-0.42277 0.16585,-0.5895c0.13128,-0.16673 0.32342,-0.27446 0.53415,-0.2995M2.95,9.9c0.21073,0.02504 0.40287,0.13277 0.53415,0.2995c0.13128,0.16673 0.19094,0.37878 0.16585,0.5895c-0.07096,0.59494 -0.06525,1.19652 0.017,1.79c0.06075,0.43769 -0.24481,0.84175 -0.6825,0.9025c-0.43769,0.06075 -0.84175,-0.24481 -0.9025,-0.6825c-0.10141,-0.72904 -0.1088,-1.46808 -0.022,-2.199c0.02504,-0.21073 0.13277,-0.40287 0.2995,-0.53415c0.16673,-0.13128 0.37878,-0.19094 0.5895,-0.16585M20.5,14.59c0.17693,0.1172 0.30005,0.2999 0.34225,0.50789c0.0422,0.20799 0.00002,0.42423 -0.11725,0.60111c-0.39174,0.5867 -0.84828,1.12744 -1.361,1.612c-0.32033,0.30459 -0.82691,0.29183 -1.1315,-0.0285c-0.30459,-0.32033 -0.29183,-0.82691 0.0285,-1.1315c0.42558,-0.40154 0.80464,-0.84969 1.13,-1.336c0.1172,-0.17693 0.2999,-0.30005 0.50789,-0.34225c0.20799,-0.0422 0.42423,-0.00002 0.60111,0.11725M3.536,15.023c0.18161,-0.11031 0.39965,-0.14383 0.60601,-0.09318c0.20636,0.05065 0.38409,0.18132 0.49399,0.36318c0.16733,0.276 0.35267,0.54167 0.556,0.797c0.18489,0.22285 0.23492,0.52822 0.13081,0.79842c-0.1041,0.2702 -0.34609,0.46306 -0.63271,0.50425c-0.28662,0.04119 -0.57312,-0.07572 -0.7491,-0.30567c-0.24548,-0.30661 -0.47063,-0.62897 -0.674,-0.965c-0.11031,-0.18161 -0.14383,-0.39965 -0.09318,-0.60601c0.05065,-0.20636 0.18132,-0.38409 0.36318,-0.49399M17.164,18.035c0.09961,0.18737 0.1207,0.40664 0.05862,0.60956c-0.06208,0.20292 -0.20223,0.37287 -0.38962,0.47244c-0.603,0.32 -1.237,0.594 -1.892,0.816c-0.41427,0.12991 -0.85655,-0.09432 -0.99661,-0.50527c-0.14006,-0.41095 0.07322,-0.85861 0.48061,-1.00873c0.57098,-0.19255 1.12518,-0.43168 1.657,-0.715c0.18737,-0.09961 0.40664,-0.1207 0.60956,-0.05862c0.20292,0.06208 0.37287,0.20223 0.47244,0.38962M5.858,18.604c0.41376,0.154 0.62455,0.61407 0.471,1.028c-0.04715,0.12809 -0.09953,0.2542 -0.157,0.378c0.39584,0.0767 0.67274,0.43599 0.64607,0.83831c-0.02667,0.40232 -0.34857,0.72191 -0.75107,0.74569c-0.47839,0.02855 -0.95848,-0.00033 -1.43,-0.086c-0.28171,-0.05046 -0.51501,-0.24757 -0.61181,-0.5169c-0.09679,-0.26933 -0.04234,-0.56986 0.14281,-0.7881c0.05733,-0.06667 0.112,-0.13533 0.164,-0.206c0.08448,-0.11562 0.19844,-0.20645 0.33,-0.263c-0.01511,-0.14258 0.00837,-0.28661 0.068,-0.417c0.036,-0.08 0.06933,-0.16067 0.1,-0.242c0.154,-0.41376 0.61407,-0.62455 1.028,-0.471M12.648,19.706c0.01829,0.21154 -0.04827,0.42166 -0.18501,0.5841c-0.13674,0.16243 -0.33244,0.26385 -0.54399,0.2819c-0.34419,0.02989 -0.68951,0.04491 -1.035,0.045c-0.392,0 -0.751,0.04 -1.093,0.102c-0.43465,0.08008 -0.85192,-0.20735 -0.932,-0.642c-0.08008,-0.43465 0.20735,-0.85192 0.642,-0.932c0.45613,-0.08479 0.91906,-0.12764 1.383,-0.128c0.29867,0 0.598,-0.01333 0.898,-0.04c0.21169,-0.01828 0.42196,0.04841 0.58443,0.18536c0.16246,0.13695 0.26377,0.3329 0.28157,0.54464" fill="#62757e" fill-rule="nonzero"></path></g>
  </g>
 </g>
</svg>
