<?xml version="1.0" encoding="UTF-8"?>
<!--Generator: Apple Native CoreSVG 175.5-->
<!DOCTYPE svg
PUBLIC "-//W3C//DTD SVG 1.1//EN"
       "http://www.w3.org/Graphics/SVG/1.1/DTD/svg11.dtd">
<svg version="1.1" xmlns="http://www.w3.org/2000/svg" xmlns:xlink="http://www.w3.org/1999/xlink" width="3300" height="2200">
 <!--glyph: "", point size: 100.0, font version: "18.0d12e2", template writer version: "101"-->
 <g id="Notes">
  <rect height="2200" id="artboard" style="fill:white;opacity:1" width="3300" x="0" y="0"/>
  <line style="fill:none;stroke:black;opacity:1;stroke-width:0.5;" x1="263" x2="3036" y1="292" y2="292"/>
  <text style="stroke:none;fill:black;font-family:sans-serif;font-size:13;font-weight:bold;" transform="matrix(1 0 0 1 263 322)">Weight/Scale Variations</text>
  <text style="stroke:none;fill:black;font-family:sans-serif;font-size:13;text-anchor:middle;" transform="matrix(1 0 0 1 559.711 322)">Ultralight</text>
  <text style="stroke:none;fill:black;font-family:sans-serif;font-size:13;text-anchor:middle;" transform="matrix(1 0 0 1 856.422 322)">Thin</text>
  <text style="stroke:none;fill:black;font-family:sans-serif;font-size:13;text-anchor:middle;" transform="matrix(1 0 0 1 1153.13 322)">Light</text>
  <text style="stroke:none;fill:black;font-family:sans-serif;font-size:13;text-anchor:middle;" transform="matrix(1 0 0 1 1449.84 322)">Regular</text>
  <text style="stroke:none;fill:black;font-family:sans-serif;font-size:13;text-anchor:middle;" transform="matrix(1 0 0 1 1746.56 322)">Medium</text>
  <text style="stroke:none;fill:black;font-family:sans-serif;font-size:13;text-anchor:middle;" transform="matrix(1 0 0 1 2043.27 322)">Semibold</text>
  <text style="stroke:none;fill:black;font-family:sans-serif;font-size:13;text-anchor:middle;" transform="matrix(1 0 0 1 2339.98 322)">Bold</text>
  <text style="stroke:none;fill:black;font-family:sans-serif;font-size:13;text-anchor:middle;" transform="matrix(1 0 0 1 2636.69 322)">Heavy</text>
  <text style="stroke:none;fill:black;font-family:sans-serif;font-size:13;text-anchor:middle;" transform="matrix(1 0 0 1 2933.4 322)">Black</text>
  <line style="fill:none;stroke:black;opacity:1;stroke-width:0.5;" x1="263" x2="3036" y1="1903" y2="1903"/>
  <g transform="matrix(1 0 0 1 263 1933)">
   <path d="M9.24805 0.830078C13.5547 0.830078 17.1387-2.74414 17.1387-7.05078C17.1387-11.3574 13.5449-14.9316 9.23828-14.9316C4.94141-14.9316 1.36719-11.3574 1.36719-7.05078C1.36719-2.74414 4.95117 0.830078 9.24805 0.830078ZM9.24805-0.654297C5.70312-0.654297 2.87109-3.49609 2.87109-7.05078C2.87109-10.6055 5.69336-13.4473 9.23828-13.4473C12.793-13.4473 15.6445-10.6055 15.6445-7.05078C15.6445-3.49609 12.8027-0.654297 9.24805-0.654297ZM5.6543-7.05078C5.6543-6.62109 5.95703-6.32812 6.40625-6.32812L8.50586-6.32812L8.50586-4.20898C8.50586-3.76953 8.79883-3.4668 9.22852-3.4668C9.67773-3.4668 9.9707-3.76953 9.9707-4.20898L9.9707-6.32812L12.0898-6.32812C12.5293-6.32812 12.832-6.62109 12.832-7.05078C12.832-7.49023 12.5293-7.79297 12.0898-7.79297L9.9707-7.79297L9.9707-9.90234C9.9707-10.3516 9.67773-10.6543 9.22852-10.6543C8.79883-10.6543 8.50586-10.3516 8.50586-9.90234L8.50586-7.79297L6.40625-7.79297C5.95703-7.79297 5.6543-7.49023 5.6543-7.05078Z"/>
  </g>
  <g transform="matrix(1 0 0 1 281.867 1933)">
   <path d="M11.709 2.91016C17.1582 2.91016 21.6699-1.61133 21.6699-7.05078C21.6699-12.5 17.1484-17.0117 11.6992-17.0117C6.25977-17.0117 1.74805-12.5 1.74805-7.05078C1.74805-1.61133 6.26953 2.91016 11.709 2.91016ZM11.709 1.25C7.09961 1.25 3.41797-2.44141 3.41797-7.05078C3.41797-11.6602 7.08984-15.3516 11.6992-15.3516C16.3086-15.3516 20.0098-11.6602 20.0098-7.05078C20.0098-2.44141 16.3184 1.25 11.709 1.25ZM7.17773-7.05078C7.17773-6.57227 7.50977-6.25 8.00781-6.25L10.8789-6.25L10.8789-3.36914C10.8789-2.88086 11.2109-2.53906 11.6895-2.53906C12.1777-2.53906 12.5195-2.87109 12.5195-3.36914L12.5195-6.25L15.4004-6.25C15.8887-6.25 16.2305-6.57227 16.2305-7.05078C16.2305-7.53906 15.8887-7.88086 15.4004-7.88086L12.5195-7.88086L12.5195-10.752C12.5195-11.25 12.1777-11.5918 11.6895-11.5918C11.2109-11.5918 10.8789-11.25 10.8789-10.752L10.8789-7.88086L8.00781-7.88086C7.50977-7.88086 7.17773-7.53906 7.17773-7.05078Z"/>
  </g>
  <g transform="matrix(1 0 0 1 305.646 1933)">
   <path d="M14.9707 5.66406C21.9336 5.66406 27.6953-0.0976562 27.6953-7.05078C27.6953-14.0137 21.9238-19.7754 14.9609-19.7754C8.00781-19.7754 2.25586-14.0137 2.25586-7.05078C2.25586-0.0976562 8.01758 5.66406 14.9707 5.66406ZM14.9707 3.84766C8.93555 3.84766 4.08203-1.01562 4.08203-7.05078C4.08203-13.0957 8.92578-17.9492 14.9609-17.9492C21.0059-17.9492 25.8691-13.0957 25.8691-7.05078C25.8691-1.01562 21.0156 3.84766 14.9707 3.84766ZM9.19922-7.05078C9.19922-6.5332 9.57031-6.17188 10.1172-6.17188L14.0625-6.17188L14.0625-2.2168C14.0625-1.67969 14.4336-1.29883 14.9512-1.29883C15.4883-1.29883 15.8594-1.66992 15.8594-2.2168L15.8594-6.17188L19.8145-6.17188C20.3516-6.17188 20.7324-6.5332 20.7324-7.05078C20.7324-7.59766 20.3613-7.96875 19.8145-7.96875L15.8594-7.96875L15.8594-11.9141C15.8594-12.4609 15.4883-12.8418 14.9512-12.8418C14.4336-12.8418 14.0625-12.4609 14.0625-11.9141L14.0625-7.96875L10.1172-7.96875C9.57031-7.96875 9.19922-7.59766 9.19922-7.05078Z"/>
  </g>
  <text style="stroke:none;fill:black;font-family:sans-serif;font-size:13;font-weight:bold;" transform="matrix(1 0 0 1 263 1953)">Design Variations</text>
  <text style="stroke:none;fill:black;font-family:sans-serif;font-size:13;" transform="matrix(1 0 0 1 263 1971)">Symbols are supported in up to nine weights and three scales.</text>
  <text style="stroke:none;fill:black;font-family:sans-serif;font-size:13;" transform="matrix(1 0 0 1 263 1989)">For optimal layout with text and other symbols, vertically align</text>
  <text style="stroke:none;fill:black;font-family:sans-serif;font-size:13;" transform="matrix(1 0 0 1 263 2007)">symbols with the adjacent text.</text>
  <line style="fill:none;stroke:#00AEEF;stroke-width:0.5;opacity:1.0;" x1="776" x2="776" y1="1919" y2="1933"/>
  <g transform="matrix(1 0 0 1 776 1933)">
   <path d="M3.31055 0.15625C3.82812 0.15625 4.08203-0.0390625 4.26758-0.585938L5.52734-4.0332L11.2891-4.0332L12.5488-0.585938C12.7344-0.0390625 12.9883 0.15625 13.4961 0.15625C14.0137 0.15625 14.3457-0.15625 14.3457-0.644531C14.3457-0.810547 14.3164-0.966797 14.2383-1.17188L9.6582-13.3691C9.43359-13.9648 9.0332-14.2676 8.4082-14.2676C7.80273-14.2676 7.39258-13.9746 7.17773-13.3789L2.59766-1.16211C2.51953-0.957031 2.49023-0.800781 2.49023-0.634766C2.49023-0.146484 2.80273 0.15625 3.31055 0.15625ZM6.00586-5.51758L8.37891-12.0898L8.42773-12.0898L10.8008-5.51758Z"/>
  </g>
  <line style="fill:none;stroke:#00AEEF;stroke-width:0.5;opacity:1.0;" x1="793.197" x2="793.197" y1="1919" y2="1933"/>
  <text style="stroke:none;fill:black;font-family:sans-serif;font-size:13;font-weight:bold;" transform="matrix(1 0 0 1 776 1953)">Margins</text>
  <text style="stroke:none;fill:black;font-family:sans-serif;font-size:13;" transform="matrix(1 0 0 1 776 1971)">Leading and trailing margins on the left and right side of each symbol</text>
  <text style="stroke:none;fill:black;font-family:sans-serif;font-size:13;" transform="matrix(1 0 0 1 776 1989)">can be adjusted by modifying the x-location of the margin guidelines.</text>
  <text style="stroke:none;fill:black;font-family:sans-serif;font-size:13;" transform="matrix(1 0 0 1 776 2007)">Modifications are automatically applied proportionally to all</text>
  <text style="stroke:none;fill:black;font-family:sans-serif;font-size:13;" transform="matrix(1 0 0 1 776 2025)">scales and weights.</text>
  <g transform="matrix(1 0 0 1 1289 1933)">
   <path d="M2.8418 1.86523L4.54102 3.57422C5.40039 4.44336 6.38672 4.38477 7.31445 3.35938L18.0078-8.42773L17.041-9.4043L6.42578 2.27539C6.07422 2.67578 5.74219 2.77344 5.27344 2.30469L4.10156 1.14258C3.63281 0.683594 3.74023 0.341797 4.14062-0.0195312L15.6152-10.8203L14.6387-11.7871L3.04688-0.898438C2.06055 0.0195312 1.98242 0.996094 2.8418 1.86523ZM9.25781-16.3281C8.83789-15.918 8.80859-15.3418 9.04297-14.9512C9.27734-14.5898 9.73633-14.3555 10.3809-14.5215C11.8457-14.8633 13.3691-14.9219 14.7949-13.9844L14.209-12.5293C13.8672-11.6992 14.043-11.1133 14.5801-10.5664L16.875-8.25195C17.3633-7.76367 17.7734-7.74414 18.3398-7.8418L19.4043-8.03711L20.0684-7.36328L20.0293-6.80664C19.9902-6.30859 20.1172-5.92773 20.6055-5.44922L21.3672-4.70703C21.8457-4.22852 22.4609-4.19922 22.9297-4.66797L25.8398-7.58789C26.3086-8.05664 26.2891-8.65234 25.8105-9.13086L25.0391-9.89258C24.5605-10.3711 24.1895-10.5273 23.7109-10.4883L23.1348-10.4395L22.4902-11.0742L22.7344-12.1973C22.8613-12.7637 22.7051-13.2031 22.1191-13.7891L19.9219-15.9766C16.582-19.2969 12.1484-19.2188 9.25781-16.3281ZM10.752-15.957C13.1836-17.7344 16.4746-17.4316 18.7012-15.2051L21.1328-12.793C21.3672-12.5586 21.4062-12.373 21.3379-12.0312L21.0156-10.5469L22.5195-9.0625L23.5059-9.12109C23.7598-9.13086 23.8379-9.11133 24.0332-8.91602L24.6094-8.33984L22.168-5.89844L21.5918-6.47461C21.3965-6.66992 21.3672-6.74805 21.377-7.01172L21.4453-7.98828L19.9512-9.47266L18.4277-9.21875C18.1055-9.15039 17.959-9.17969 17.7148-9.41406L15.7129-11.416C15.459-11.6504 15.4297-11.8164 15.5859-12.1875L16.4648-14.2773C14.9023-15.7324 12.8711-16.3574 10.8398-15.7617C10.6836-15.7227 10.625-15.8496 10.752-15.957Z"/>
  </g>
  <text style="stroke:none;fill:black;font-family:sans-serif;font-size:13;font-weight:bold;" transform="matrix(1 0 0 1 1289 1953)">Exporting</text>
  <text style="stroke:none;fill:black;font-family:sans-serif;font-size:13;" transform="matrix(1 0 0 1 1289 1971)">Symbols should be outlined when exporting to ensure the</text>
  <text style="stroke:none;fill:black;font-family:sans-serif;font-size:13;" transform="matrix(1 0 0 1 1289 1989)">design is preserved when submitting to Xcode.</text>
  <text id="template-version" style="stroke:none;fill:black;font-family:sans-serif;font-size:13;text-anchor:end;" transform="matrix(1 0 0 1 3036 1933)">Template v.4.0</text>
  <text style="stroke:none;fill:black;font-family:sans-serif;font-size:13;text-anchor:end;" transform="matrix(1 0 0 1 3036 1951)">Requires Xcode 14 or greater</text>
  <text id="descriptive-name" style="stroke:none;fill:black;font-family:sans-serif;font-size:13;text-anchor:end;" transform="matrix(1 0 0 1 3036 1969)">Generated from brave.zzz</text>
  <text style="stroke:none;fill:black;font-family:sans-serif;font-size:13;text-anchor:end;" transform="matrix(1 0 0 1 3036 1987)">Typeset at 100 points</text>
  <text style="stroke:none;fill:black;font-family:sans-serif;font-size:13;" transform="matrix(1 0 0 1 263 726)">Small</text>
  <text style="stroke:none;fill:black;font-family:sans-serif;font-size:13;" transform="matrix(1 0 0 1 263 1156)">Medium</text>
  <text style="stroke:none;fill:black;font-family:sans-serif;font-size:13;" transform="matrix(1 0 0 1 263 1586)">Large</text>
 </g>
 <g id="Guides">
  <g id="H-reference" style="fill:#27AAE1;stroke:none;" transform="matrix(1 0 0 1 339 696)">
   <path d="M0.993654 0L3.63775 0L29.3281-67.1323L30.0303-67.1323L30.0303-70.459L28.1226-70.459ZM11.6885-24.4799L46.9815-24.4799L46.2315-26.7285L12.4385-26.7285ZM55.1196 0L57.7637 0L30.6382-70.459L29.4326-70.459L29.4326-67.1323Z"/>
  </g>
  <line id="Baseline-S" style="fill:none;stroke:#27AAE1;opacity:1;stroke-width:0.5;" x1="263" x2="3036" y1="696" y2="696"/>
  <line id="Capline-S" style="fill:none;stroke:#27AAE1;opacity:1;stroke-width:0.5;" x1="263" x2="3036" y1="625.541" y2="625.541"/>
  <g id="H-reference" style="fill:#27AAE1;stroke:none;" transform="matrix(1 0 0 1 339 1126)">
   <path d="M0.993654 0L3.63775 0L29.3281-67.1323L30.0303-67.1323L30.0303-70.459L28.1226-70.459ZM11.6885-24.4799L46.9815-24.4799L46.2315-26.7285L12.4385-26.7285ZM55.1196 0L57.7637 0L30.6382-70.459L29.4326-70.459L29.4326-67.1323Z"/>
  </g>
  <line id="Baseline-M" style="fill:none;stroke:#27AAE1;opacity:1;stroke-width:0.5;" x1="263" x2="3036" y1="1126" y2="1126"/>
  <line id="Capline-M" style="fill:none;stroke:#27AAE1;opacity:1;stroke-width:0.5;" x1="263" x2="3036" y1="1055.54" y2="1055.54"/>
  <g id="H-reference" style="fill:#27AAE1;stroke:none;" transform="matrix(1 0 0 1 339 1556)">
   <path d="M0.993654 0L3.63775 0L29.3281-67.1323L30.0303-67.1323L30.0303-70.459L28.1226-70.459ZM11.6885-24.4799L46.9815-24.4799L46.2315-26.7285L12.4385-26.7285ZM55.1196 0L57.7637 0L30.6382-70.459L29.4326-70.459L29.4326-67.1323Z"/>
  </g>
  <line id="Baseline-L" style="fill:none;stroke:#27AAE1;opacity:1;stroke-width:0.5;" x1="263" x2="3036" y1="1556" y2="1556"/>
  <line id="Capline-L" style="fill:none;stroke:#27AAE1;opacity:1;stroke-width:0.5;" x1="263" x2="3036" y1="1485.54" y2="1485.54"/>
  <line id="left-margin-Regular-M" style="fill:none;stroke:#00AEEF;stroke-width:0.5;opacity:1.0;" x1="1389.82" x2="1389.82" y1="1030.79" y2="1150.12"/>
  <line id="right-margin-Regular-M" style="fill:none;stroke:#00AEEF;stroke-width:0.5;opacity:1.0;" x1="1509.87" x2="1509.87" y1="1030.79" y2="1150.12"/>
 </g>
 <g id="Symbols">
  <g id="Regular-L" transform="matrix(6.45 0 0 6.45 1372.2675 1443)">
    <defs><clipPath id="clip-1"><rect x="0" y="0" width="24" height="24" fill="none"></rect></clipPath></defs>
<g clip-path="url(#clip-1)" fill="none" fill-rule="nonzero" stroke="none" stroke-width="1" stroke-linecap="butt" stroke-linejoin="miter" stroke-miterlimit="10" stroke-dasharray="" stroke-dashoffset="0" font-family="none" font-weight="none" font-size="none" text-anchor="none" style="mix-blend-mode: normal"><path d="M7.13,11.925c-0.04605,0.80493 0.56907,1.49482 1.374,1.541h0.08c0.7944,-0.00071 1.44203,-0.63725 1.45645,-1.43152c0.01442,-0.79427 -0.60966,-1.45391 -1.40351,-1.48347c-0.79385,-0.02956 -1.46526,0.58185 -1.50994,1.37499zM1.697,11.555c-0.25957,-0.01464 -0.48186,0.18393 -0.4965,0.4435c-0.01464,0.25957 0.18393,0.48186 0.4435,0.4965c0.25957,0.01464 0.48186,-0.18393 0.4965,-0.4435c0.01464,-0.25957 -0.18393,-0.48186 -0.4435,-0.4965M7.038,3.467c0.15249,-0.07524 0.25259,-0.22682 0.26189,-0.39661c0.00931,-0.16978 -0.07363,-0.3314 -0.21698,-0.42286c-0.14335,-0.09145 -0.32487,-0.09854 -0.47491,-0.01853c-0.22699,0.12102 -0.31489,0.40178 -0.19745,0.63064c0.11744,0.22886 0.39677,0.32118 0.62745,0.20736M8.517,6.046c0.23789,-0.11374 0.39569,-0.34723 0.4125,-0.61038c0.01681,-0.26315 -0.10999,-0.51482 -0.33148,-0.65791c-0.22149,-0.14309 -0.50304,-0.15522 -0.73601,-0.03171c-0.35004,0.18556 -0.48743,0.61697 -0.30916,0.97078c0.17827,0.35381 0.60673,0.50011 0.96416,0.32922M3.541,7.82c0.27725,0.18198 0.64952,0.10475 0.8315,-0.1725c0.18198,-0.27725 0.10475,-0.64952 -0.1725,-0.8315c-0.27725,-0.18225 -0.64975,-0.10525 -0.832,0.172c-0.18225,0.27725 -0.10525,0.64975 0.172,0.832M4.427,11.29c-0.40179,-0.02237 -0.74563,0.28521 -0.768,0.687c-0.02237,0.40179 0.28521,0.74563 0.687,0.768c0.40179,0.02237 0.74563,-0.28521 0.768,-0.687c0.02237,-0.40179 -0.28521,-0.74563 -0.687,-0.768M3.62,16.183c-0.20044,0.09123 -0.3348,0.28494 -0.35001,0.50464c-0.01521,0.2197 0.09116,0.43008 0.27711,0.54807c0.18595,0.11799 0.4216,0.12462 0.6139,0.01728c0.27811,-0.15802 0.38336,-0.50643 0.23924,-0.792c-0.14412,-0.28557 -0.48692,-0.40786 -0.77924,-0.278M6.45,9.786c0.256,0.17367 0.58572,0.19589 0.86271,0.05815c0.27699,-0.13774 0.45825,-0.41406 0.47426,-0.72299c0.01601,-0.30893 -0.13571,-0.60251 -0.39697,-0.76815c-0.39536,-0.25066 -0.91871,-0.13769 -1.17547,0.25374c-0.25676,0.39143 -0.15193,0.91646 0.23547,1.17926M15.426,5.988c0.2179,0.1556 0.50357,0.17922 0.74407,0.06153c0.2405,-0.11769 0.39713,-0.35775 0.40797,-0.62528c0.01084,-0.26753 -0.12585,-0.51948 -0.35604,-0.65624c-0.3359,-0.19957 -0.7694,-0.09884 -0.9829,0.22838c-0.2135,0.32722 -0.13106,0.76458 0.1869,0.99162M16.92,3.418c0.14077,0.09494 0.32175,0.10676 0.47368,0.03094c0.15193,-0.07582 0.25128,-0.22755 0.26005,-0.39713c0.00876,-0.16957 -0.07443,-0.33073 -0.21773,-0.42181c-0.2176,-0.14277 -0.50973,-0.0821 -0.6525,0.1355c-0.14277,0.2176 -0.0821,0.50973 0.1355,0.6525M15.54,10.538c-0.80357,-0.04612 -1.49238,0.56793 -1.5385,1.3715c-0.04612,0.80357 0.56793,1.49238 1.3715,1.5385h0.085c0.77955,-0.01249 1.41112,-0.63643 1.43308,-1.41577c0.02196,-0.77934 -0.57347,-1.43786 -1.35108,-1.49423M8.996,9.685c0.24631,0.49306 0.75085,0.80384 1.302,0.802c0.65228,-0.0003 1.225,-0.43381 1.40238,-1.06151c0.17738,-0.6277 -0.08373,-1.29684 -0.63938,-1.63849c-0.5554,-0.34172 -1.27018,-0.27308 -1.7504,0.1681c-0.48022,0.44117 -0.6091,1.14758 -0.3156,1.7299M20.422,7.818c0.19827,-0.09244 0.33051,-0.28546 0.34512,-0.50373c0.01461,-0.21827 -0.09073,-0.42719 -0.27491,-0.54523c-0.18418,-0.11804 -0.418,-0.12649 -0.61021,-0.02205c-0.27811,0.15802 -0.38336,0.50643 -0.23924,0.792c0.14412,0.28557 0.48692,0.40786 0.77924,0.278M16.727,8.282c-0.28524,0.1306 -0.47633,0.40662 -0.49816,0.71958c-0.02183,0.31296 0.12909,0.61283 0.39344,0.78177c0.26435,0.16893 0.59988,0.17993 0.87472,0.02865c0.40388,-0.22229 0.55953,-0.72425 0.35229,-1.13605c-0.20725,-0.4118 -0.70313,-0.58586 -1.12229,-0.39395M11.967,3.198c0.21543,0.01459 0.42208,-0.0877 0.54112,-0.26784c0.11904,-0.18014 0.13211,-0.41036 0.03422,-0.60281c-0.09789,-0.19246 -0.29164,-0.31747 -0.50734,-0.32735c-0.32847,-0.01504 -0.60786,0.23709 -0.62649,0.56537c-0.01863,0.32828 0.23043,0.61041 0.55849,0.63263M11.96,6.972c0.31274,0.02985 0.61675,-0.11382 0.79224,-0.3744c0.17549,-0.26058 0.19434,-0.59629 0.04912,-0.87488c-0.14522,-0.27858 -0.43124,-0.45538 -0.74536,-0.46072c-0.46022,-0.00783 -0.84444,0.34928 -0.87024,0.80884c-0.0258,0.45956 0.31603,0.85743 0.77424,0.90116M7.318,15.718c0.27898,-0.13465 0.46358,-0.40938 0.48283,-0.71856c0.01925,-0.30918 -0.12985,-0.60468 -0.38998,-0.77289c-0.26013,-0.16821 -0.59078,-0.18295 -0.86484,-0.03856c-0.41353,0.21788 -0.5762,0.72695 -0.36564,1.14426c0.21056,0.41731 0.71668,0.58892 1.13764,0.38574M12.514,8.222c-0.29499,0.43536 -0.33248,0.99591 -0.09809,1.46667c0.23439,0.47077 0.70428,0.77869 1.22948,0.80569c0.5252,0.027 1.02419,-0.23112 1.30562,-0.67537c0.42594,-0.67236 0.2335,-1.56211 -0.43222,-1.99836c-0.66571,-0.43625 -1.55832,-0.25755 -2.00478,0.40136M15.047,14.316c-0.32278,-0.6419 -1.06507,-0.95297 -1.74904,-0.73296c-0.68397,0.22001 -1.10571,0.90549 -0.99373,1.6152c0.11198,0.70971 0.72429,1.23204 1.44277,1.23076c0.50562,-0.00055 0.97485,-0.26302 1.23995,-0.69357c0.2651,-0.43055 0.2882,-0.96771 0.06105,-1.41943M17.594,14.214c-0.39544,-0.25957 -0.92643,-0.14944 -1.186,0.246c-0.25957,0.39544 -0.14944,0.92643 0.246,1.186c0.39544,0.25957 0.92643,0.14944 1.186,-0.246c0.25957,-0.39544 0.14944,-0.92643 -0.246,-1.186M20.384,12.025c0.02309,-0.26442 -0.09955,-0.52045 -0.32007,-0.66818c-0.22052,-0.14772 -0.50396,-0.16372 -0.73971,-0.04175c-0.23574,0.12197 -0.38642,0.36258 -0.39322,0.62792c-0.01008,0.39322 0.29402,0.72334 0.68674,0.7455c0.39273,0.02216 0.73203,-0.27164 0.76626,-0.6635M22.4,11.507c-0.25957,-0.01491 -0.48209,0.18343 -0.497,0.443c-0.01491,0.25957 0.18343,0.48209 0.443,0.497c0.25957,0.01491 0.48209,-0.18343 0.497,-0.443c0.01491,-0.25957 -0.18343,-0.48209 -0.443,-0.497M20.502,16.18c-0.17913,-0.12795 -0.41395,-0.14753 -0.6118,-0.05102c-0.19785,0.09651 -0.32696,0.29362 -0.33639,0.51355c-0.00943,0.21993 0.10233,0.42737 0.29119,0.54047c0.2756,0.15978 0.62801,0.07632 0.80269,-0.19008c0.17468,-0.2664 0.11071,-0.62287 -0.14569,-0.81192M7.124,20.582c-0.14065,-0.10423 -0.32745,-0.12205 -0.48527,-0.0463c-0.15783,0.07576 -0.26076,0.23264 -0.26741,0.40758c-0.00665,0.17494 0.08407,0.33919 0.23568,0.42672c0.2167,0.12509 0.49336,0.05935 0.63062,-0.14986c0.13726,-0.20921 0.08741,-0.48917 -0.11362,-0.63814M17.005,20.533c-0.15352,0.07385 -0.2552,0.22485 -0.26589,0.39487c-0.0107,0.17002 0.07125,0.33257 0.21431,0.42508c0.14306,0.09251 0.32492,0.10056 0.47558,0.02105c0.22704,-0.11981 0.31632,-0.39937 0.20075,-0.62859c-0.11557,-0.22923 -0.39341,-0.32369 -0.62475,-0.21241M11.53,15.776c0.44128,-0.67379 0.25279,-1.57772 -0.421,-2.019c-0.67379,-0.44128 -1.57772,-0.25279 -2.019,0.421c-0.44128,0.67379 -0.25279,1.57772 0.421,2.019c0.67379,0.44128 1.57772,0.25279 2.019,-0.421M8.617,18.012c-0.33689,-0.22009 -0.78841,-0.12539 -1.0085,0.2115c-0.22009,0.33689 -0.12539,0.78841 0.2115,1.0085c0.33689,0.22009 0.78841,0.12539 1.0085,-0.2115c0.22009,-0.33689 0.12539,-0.78841 -0.2115,-1.0085M12.015,20.802c-0.32999,-0.01905 -0.61295,0.23301 -0.632,0.563c-0.01905,0.32999 0.23301,0.61295 0.563,0.632c0.32999,0.01933 0.61317,-0.23251 0.6325,-0.5625c0.01933,-0.32999 -0.23251,-0.61317 -0.5625,-0.6325M12.022,17.029c-0.31163,-0.02876 -0.6142,0.11443 -0.78954,0.37365c-0.17534,0.25922 -0.19564,0.59335 -0.05296,0.87188c0.14267,0.27854 0.42569,0.4573 0.73851,0.46647c0.46319,0.01358 0.85347,-0.34307 0.88156,-0.80561c0.0281,-0.46253 -0.31614,-0.8638 -0.77756,-0.90639M15.526,17.954c-0.24344,0.11151 -0.40629,0.34734 -0.42434,0.61449c-0.01804,0.26715 0.11162,0.52274 0.33785,0.66597c0.22623,0.14323 0.51272,0.15111 0.74649,0.02053c0.33626,-0.19381 0.46208,-0.61686 0.28638,-0.96293c-0.1757,-0.34607 -0.59148,-0.49416 -0.94638,-0.33707" fill="#62757e"></path></g>
  </g>
  <g id="Regular-M" transform="matrix(5 0 0 5 1389.82 1030)">
    <defs><clipPath id="clip-1"><rect x="0" y="0" width="24" height="24" fill="none"></rect></clipPath></defs>
<g clip-path="url(#clip-1)" fill="none" fill-rule="nonzero" stroke="none" stroke-width="1" stroke-linecap="butt" stroke-linejoin="miter" stroke-miterlimit="10" stroke-dasharray="" stroke-dashoffset="0" font-family="none" font-weight="none" font-size="none" text-anchor="none" style="mix-blend-mode: normal"><path d="M7.13,11.925c-0.04605,0.80493 0.56907,1.49482 1.374,1.541h0.08c0.7944,-0.00071 1.44203,-0.63725 1.45645,-1.43152c0.01442,-0.79427 -0.60966,-1.45391 -1.40351,-1.48347c-0.79385,-0.02956 -1.46526,0.58185 -1.50994,1.37499zM1.697,11.555c-0.25957,-0.01464 -0.48186,0.18393 -0.4965,0.4435c-0.01464,0.25957 0.18393,0.48186 0.4435,0.4965c0.25957,0.01464 0.48186,-0.18393 0.4965,-0.4435c0.01464,-0.25957 -0.18393,-0.48186 -0.4435,-0.4965M7.038,3.467c0.15249,-0.07524 0.25259,-0.22682 0.26189,-0.39661c0.00931,-0.16978 -0.07363,-0.3314 -0.21698,-0.42286c-0.14335,-0.09145 -0.32487,-0.09854 -0.47491,-0.01853c-0.22699,0.12102 -0.31489,0.40178 -0.19745,0.63064c0.11744,0.22886 0.39677,0.32118 0.62745,0.20736M8.517,6.046c0.23789,-0.11374 0.39569,-0.34723 0.4125,-0.61038c0.01681,-0.26315 -0.10999,-0.51482 -0.33148,-0.65791c-0.22149,-0.14309 -0.50304,-0.15522 -0.73601,-0.03171c-0.35004,0.18556 -0.48743,0.61697 -0.30916,0.97078c0.17827,0.35381 0.60673,0.50011 0.96416,0.32922M3.541,7.82c0.27725,0.18198 0.64952,0.10475 0.8315,-0.1725c0.18198,-0.27725 0.10475,-0.64952 -0.1725,-0.8315c-0.27725,-0.18225 -0.64975,-0.10525 -0.832,0.172c-0.18225,0.27725 -0.10525,0.64975 0.172,0.832M4.427,11.29c-0.40179,-0.02237 -0.74563,0.28521 -0.768,0.687c-0.02237,0.40179 0.28521,0.74563 0.687,0.768c0.40179,0.02237 0.74563,-0.28521 0.768,-0.687c0.02237,-0.40179 -0.28521,-0.74563 -0.687,-0.768M3.62,16.183c-0.20044,0.09123 -0.3348,0.28494 -0.35001,0.50464c-0.01521,0.2197 0.09116,0.43008 0.27711,0.54807c0.18595,0.11799 0.4216,0.12462 0.6139,0.01728c0.27811,-0.15802 0.38336,-0.50643 0.23924,-0.792c-0.14412,-0.28557 -0.48692,-0.40786 -0.77924,-0.278M6.45,9.786c0.256,0.17367 0.58572,0.19589 0.86271,0.05815c0.27699,-0.13774 0.45825,-0.41406 0.47426,-0.72299c0.01601,-0.30893 -0.13571,-0.60251 -0.39697,-0.76815c-0.39536,-0.25066 -0.91871,-0.13769 -1.17547,0.25374c-0.25676,0.39143 -0.15193,0.91646 0.23547,1.17926M15.426,5.988c0.2179,0.1556 0.50357,0.17922 0.74407,0.06153c0.2405,-0.11769 0.39713,-0.35775 0.40797,-0.62528c0.01084,-0.26753 -0.12585,-0.51948 -0.35604,-0.65624c-0.3359,-0.19957 -0.7694,-0.09884 -0.9829,0.22838c-0.2135,0.32722 -0.13106,0.76458 0.1869,0.99162M16.92,3.418c0.14077,0.09494 0.32175,0.10676 0.47368,0.03094c0.15193,-0.07582 0.25128,-0.22755 0.26005,-0.39713c0.00876,-0.16957 -0.07443,-0.33073 -0.21773,-0.42181c-0.2176,-0.14277 -0.50973,-0.0821 -0.6525,0.1355c-0.14277,0.2176 -0.0821,0.50973 0.1355,0.6525M15.54,10.538c-0.80357,-0.04612 -1.49238,0.56793 -1.5385,1.3715c-0.04612,0.80357 0.56793,1.49238 1.3715,1.5385h0.085c0.77955,-0.01249 1.41112,-0.63643 1.43308,-1.41577c0.02196,-0.77934 -0.57347,-1.43786 -1.35108,-1.49423M8.996,9.685c0.24631,0.49306 0.75085,0.80384 1.302,0.802c0.65228,-0.0003 1.225,-0.43381 1.40238,-1.06151c0.17738,-0.6277 -0.08373,-1.29684 -0.63938,-1.63849c-0.5554,-0.34172 -1.27018,-0.27308 -1.7504,0.1681c-0.48022,0.44117 -0.6091,1.14758 -0.3156,1.7299M20.422,7.818c0.19827,-0.09244 0.33051,-0.28546 0.34512,-0.50373c0.01461,-0.21827 -0.09073,-0.42719 -0.27491,-0.54523c-0.18418,-0.11804 -0.418,-0.12649 -0.61021,-0.02205c-0.27811,0.15802 -0.38336,0.50643 -0.23924,0.792c0.14412,0.28557 0.48692,0.40786 0.77924,0.278M16.727,8.282c-0.28524,0.1306 -0.47633,0.40662 -0.49816,0.71958c-0.02183,0.31296 0.12909,0.61283 0.39344,0.78177c0.26435,0.16893 0.59988,0.17993 0.87472,0.02865c0.40388,-0.22229 0.55953,-0.72425 0.35229,-1.13605c-0.20725,-0.4118 -0.70313,-0.58586 -1.12229,-0.39395M11.967,3.198c0.21543,0.01459 0.42208,-0.0877 0.54112,-0.26784c0.11904,-0.18014 0.13211,-0.41036 0.03422,-0.60281c-0.09789,-0.19246 -0.29164,-0.31747 -0.50734,-0.32735c-0.32847,-0.01504 -0.60786,0.23709 -0.62649,0.56537c-0.01863,0.32828 0.23043,0.61041 0.55849,0.63263M11.96,6.972c0.31274,0.02985 0.61675,-0.11382 0.79224,-0.3744c0.17549,-0.26058 0.19434,-0.59629 0.04912,-0.87488c-0.14522,-0.27858 -0.43124,-0.45538 -0.74536,-0.46072c-0.46022,-0.00783 -0.84444,0.34928 -0.87024,0.80884c-0.0258,0.45956 0.31603,0.85743 0.77424,0.90116M7.318,15.718c0.27898,-0.13465 0.46358,-0.40938 0.48283,-0.71856c0.01925,-0.30918 -0.12985,-0.60468 -0.38998,-0.77289c-0.26013,-0.16821 -0.59078,-0.18295 -0.86484,-0.03856c-0.41353,0.21788 -0.5762,0.72695 -0.36564,1.14426c0.21056,0.41731 0.71668,0.58892 1.13764,0.38574M12.514,8.222c-0.29499,0.43536 -0.33248,0.99591 -0.09809,1.46667c0.23439,0.47077 0.70428,0.77869 1.22948,0.80569c0.5252,0.027 1.02419,-0.23112 1.30562,-0.67537c0.42594,-0.67236 0.2335,-1.56211 -0.43222,-1.99836c-0.66571,-0.43625 -1.55832,-0.25755 -2.00478,0.40136M15.047,14.316c-0.32278,-0.6419 -1.06507,-0.95297 -1.74904,-0.73296c-0.68397,0.22001 -1.10571,0.90549 -0.99373,1.6152c0.11198,0.70971 0.72429,1.23204 1.44277,1.23076c0.50562,-0.00055 0.97485,-0.26302 1.23995,-0.69357c0.2651,-0.43055 0.2882,-0.96771 0.06105,-1.41943M17.594,14.214c-0.39544,-0.25957 -0.92643,-0.14944 -1.186,0.246c-0.25957,0.39544 -0.14944,0.92643 0.246,1.186c0.39544,0.25957 0.92643,0.14944 1.186,-0.246c0.25957,-0.39544 0.14944,-0.92643 -0.246,-1.186M20.384,12.025c0.02309,-0.26442 -0.09955,-0.52045 -0.32007,-0.66818c-0.22052,-0.14772 -0.50396,-0.16372 -0.73971,-0.04175c-0.23574,0.12197 -0.38642,0.36258 -0.39322,0.62792c-0.01008,0.39322 0.29402,0.72334 0.68674,0.7455c0.39273,0.02216 0.73203,-0.27164 0.76626,-0.6635M22.4,11.507c-0.25957,-0.01491 -0.48209,0.18343 -0.497,0.443c-0.01491,0.25957 0.18343,0.48209 0.443,0.497c0.25957,0.01491 0.48209,-0.18343 0.497,-0.443c0.01491,-0.25957 -0.18343,-0.48209 -0.443,-0.497M20.502,16.18c-0.17913,-0.12795 -0.41395,-0.14753 -0.6118,-0.05102c-0.19785,0.09651 -0.32696,0.29362 -0.33639,0.51355c-0.00943,0.21993 0.10233,0.42737 0.29119,0.54047c0.2756,0.15978 0.62801,0.07632 0.80269,-0.19008c0.17468,-0.2664 0.11071,-0.62287 -0.14569,-0.81192M7.124,20.582c-0.14065,-0.10423 -0.32745,-0.12205 -0.48527,-0.0463c-0.15783,0.07576 -0.26076,0.23264 -0.26741,0.40758c-0.00665,0.17494 0.08407,0.33919 0.23568,0.42672c0.2167,0.12509 0.49336,0.05935 0.63062,-0.14986c0.13726,-0.20921 0.08741,-0.48917 -0.11362,-0.63814M17.005,20.533c-0.15352,0.07385 -0.2552,0.22485 -0.26589,0.39487c-0.0107,0.17002 0.07125,0.33257 0.21431,0.42508c0.14306,0.09251 0.32492,0.10056 0.47558,0.02105c0.22704,-0.11981 0.31632,-0.39937 0.20075,-0.62859c-0.11557,-0.22923 -0.39341,-0.32369 -0.62475,-0.21241M11.53,15.776c0.44128,-0.67379 0.25279,-1.57772 -0.421,-2.019c-0.67379,-0.44128 -1.57772,-0.25279 -2.019,0.421c-0.44128,0.67379 -0.25279,1.57772 0.421,2.019c0.67379,0.44128 1.57772,0.25279 2.019,-0.421M8.617,18.012c-0.33689,-0.22009 -0.78841,-0.12539 -1.0085,0.2115c-0.22009,0.33689 -0.12539,0.78841 0.2115,1.0085c0.33689,0.22009 0.78841,0.12539 1.0085,-0.2115c0.22009,-0.33689 0.12539,-0.78841 -0.2115,-1.0085M12.015,20.802c-0.32999,-0.01905 -0.61295,0.23301 -0.632,0.563c-0.01905,0.32999 0.23301,0.61295 0.563,0.632c0.32999,0.01933 0.61317,-0.23251 0.6325,-0.5625c0.01933,-0.32999 -0.23251,-0.61317 -0.5625,-0.6325M12.022,17.029c-0.31163,-0.02876 -0.6142,0.11443 -0.78954,0.37365c-0.17534,0.25922 -0.19564,0.59335 -0.05296,0.87188c0.14267,0.27854 0.42569,0.4573 0.73851,0.46647c0.46319,0.01358 0.85347,-0.34307 0.88156,-0.80561c0.0281,-0.46253 -0.31614,-0.8638 -0.77756,-0.90639M15.526,17.954c-0.24344,0.11151 -0.40629,0.34734 -0.42434,0.61449c-0.01804,0.26715 0.11162,0.52274 0.33785,0.66597c0.22623,0.14323 0.51272,0.15111 0.74649,0.02053c0.33626,-0.19381 0.46208,-0.61686 0.28638,-0.96293c-0.1757,-0.34607 -0.59148,-0.49416 -0.94638,-0.33707" fill="#62757e"></path></g>
  </g>
  <g id="Regular-S" transform="matrix(3.915 0 0 3.915 1402.75 614)">
    <defs><clipPath id="clip-1"><rect x="0" y="0" width="24" height="24" fill="none"></rect></clipPath></defs>
<g clip-path="url(#clip-1)" fill="none" fill-rule="nonzero" stroke="none" stroke-width="1" stroke-linecap="butt" stroke-linejoin="miter" stroke-miterlimit="10" stroke-dasharray="" stroke-dashoffset="0" font-family="none" font-weight="none" font-size="none" text-anchor="none" style="mix-blend-mode: normal"><path d="M7.13,11.925c-0.04605,0.80493 0.56907,1.49482 1.374,1.541h0.08c0.7944,-0.00071 1.44203,-0.63725 1.45645,-1.43152c0.01442,-0.79427 -0.60966,-1.45391 -1.40351,-1.48347c-0.79385,-0.02956 -1.46526,0.58185 -1.50994,1.37499zM1.697,11.555c-0.25957,-0.01464 -0.48186,0.18393 -0.4965,0.4435c-0.01464,0.25957 0.18393,0.48186 0.4435,0.4965c0.25957,0.01464 0.48186,-0.18393 0.4965,-0.4435c0.01464,-0.25957 -0.18393,-0.48186 -0.4435,-0.4965M7.038,3.467c0.15249,-0.07524 0.25259,-0.22682 0.26189,-0.39661c0.00931,-0.16978 -0.07363,-0.3314 -0.21698,-0.42286c-0.14335,-0.09145 -0.32487,-0.09854 -0.47491,-0.01853c-0.22699,0.12102 -0.31489,0.40178 -0.19745,0.63064c0.11744,0.22886 0.39677,0.32118 0.62745,0.20736M8.517,6.046c0.23789,-0.11374 0.39569,-0.34723 0.4125,-0.61038c0.01681,-0.26315 -0.10999,-0.51482 -0.33148,-0.65791c-0.22149,-0.14309 -0.50304,-0.15522 -0.73601,-0.03171c-0.35004,0.18556 -0.48743,0.61697 -0.30916,0.97078c0.17827,0.35381 0.60673,0.50011 0.96416,0.32922M3.541,7.82c0.27725,0.18198 0.64952,0.10475 0.8315,-0.1725c0.18198,-0.27725 0.10475,-0.64952 -0.1725,-0.8315c-0.27725,-0.18225 -0.64975,-0.10525 -0.832,0.172c-0.18225,0.27725 -0.10525,0.64975 0.172,0.832M4.427,11.29c-0.40179,-0.02237 -0.74563,0.28521 -0.768,0.687c-0.02237,0.40179 0.28521,0.74563 0.687,0.768c0.40179,0.02237 0.74563,-0.28521 0.768,-0.687c0.02237,-0.40179 -0.28521,-0.74563 -0.687,-0.768M3.62,16.183c-0.20044,0.09123 -0.3348,0.28494 -0.35001,0.50464c-0.01521,0.2197 0.09116,0.43008 0.27711,0.54807c0.18595,0.11799 0.4216,0.12462 0.6139,0.01728c0.27811,-0.15802 0.38336,-0.50643 0.23924,-0.792c-0.14412,-0.28557 -0.48692,-0.40786 -0.77924,-0.278M6.45,9.786c0.256,0.17367 0.58572,0.19589 0.86271,0.05815c0.27699,-0.13774 0.45825,-0.41406 0.47426,-0.72299c0.01601,-0.30893 -0.13571,-0.60251 -0.39697,-0.76815c-0.39536,-0.25066 -0.91871,-0.13769 -1.17547,0.25374c-0.25676,0.39143 -0.15193,0.91646 0.23547,1.17926M15.426,5.988c0.2179,0.1556 0.50357,0.17922 0.74407,0.06153c0.2405,-0.11769 0.39713,-0.35775 0.40797,-0.62528c0.01084,-0.26753 -0.12585,-0.51948 -0.35604,-0.65624c-0.3359,-0.19957 -0.7694,-0.09884 -0.9829,0.22838c-0.2135,0.32722 -0.13106,0.76458 0.1869,0.99162M16.92,3.418c0.14077,0.09494 0.32175,0.10676 0.47368,0.03094c0.15193,-0.07582 0.25128,-0.22755 0.26005,-0.39713c0.00876,-0.16957 -0.07443,-0.33073 -0.21773,-0.42181c-0.2176,-0.14277 -0.50973,-0.0821 -0.6525,0.1355c-0.14277,0.2176 -0.0821,0.50973 0.1355,0.6525M15.54,10.538c-0.80357,-0.04612 -1.49238,0.56793 -1.5385,1.3715c-0.04612,0.80357 0.56793,1.49238 1.3715,1.5385h0.085c0.77955,-0.01249 1.41112,-0.63643 1.43308,-1.41577c0.02196,-0.77934 -0.57347,-1.43786 -1.35108,-1.49423M8.996,9.685c0.24631,0.49306 0.75085,0.80384 1.302,0.802c0.65228,-0.0003 1.225,-0.43381 1.40238,-1.06151c0.17738,-0.6277 -0.08373,-1.29684 -0.63938,-1.63849c-0.5554,-0.34172 -1.27018,-0.27308 -1.7504,0.1681c-0.48022,0.44117 -0.6091,1.14758 -0.3156,1.7299M20.422,7.818c0.19827,-0.09244 0.33051,-0.28546 0.34512,-0.50373c0.01461,-0.21827 -0.09073,-0.42719 -0.27491,-0.54523c-0.18418,-0.11804 -0.418,-0.12649 -0.61021,-0.02205c-0.27811,0.15802 -0.38336,0.50643 -0.23924,0.792c0.14412,0.28557 0.48692,0.40786 0.77924,0.278M16.727,8.282c-0.28524,0.1306 -0.47633,0.40662 -0.49816,0.71958c-0.02183,0.31296 0.12909,0.61283 0.39344,0.78177c0.26435,0.16893 0.59988,0.17993 0.87472,0.02865c0.40388,-0.22229 0.55953,-0.72425 0.35229,-1.13605c-0.20725,-0.4118 -0.70313,-0.58586 -1.12229,-0.39395M11.967,3.198c0.21543,0.01459 0.42208,-0.0877 0.54112,-0.26784c0.11904,-0.18014 0.13211,-0.41036 0.03422,-0.60281c-0.09789,-0.19246 -0.29164,-0.31747 -0.50734,-0.32735c-0.32847,-0.01504 -0.60786,0.23709 -0.62649,0.56537c-0.01863,0.32828 0.23043,0.61041 0.55849,0.63263M11.96,6.972c0.31274,0.02985 0.61675,-0.11382 0.79224,-0.3744c0.17549,-0.26058 0.19434,-0.59629 0.04912,-0.87488c-0.14522,-0.27858 -0.43124,-0.45538 -0.74536,-0.46072c-0.46022,-0.00783 -0.84444,0.34928 -0.87024,0.80884c-0.0258,0.45956 0.31603,0.85743 0.77424,0.90116M7.318,15.718c0.27898,-0.13465 0.46358,-0.40938 0.48283,-0.71856c0.01925,-0.30918 -0.12985,-0.60468 -0.38998,-0.77289c-0.26013,-0.16821 -0.59078,-0.18295 -0.86484,-0.03856c-0.41353,0.21788 -0.5762,0.72695 -0.36564,1.14426c0.21056,0.41731 0.71668,0.58892 1.13764,0.38574M12.514,8.222c-0.29499,0.43536 -0.33248,0.99591 -0.09809,1.46667c0.23439,0.47077 0.70428,0.77869 1.22948,0.80569c0.5252,0.027 1.02419,-0.23112 1.30562,-0.67537c0.42594,-0.67236 0.2335,-1.56211 -0.43222,-1.99836c-0.66571,-0.43625 -1.55832,-0.25755 -2.00478,0.40136M15.047,14.316c-0.32278,-0.6419 -1.06507,-0.95297 -1.74904,-0.73296c-0.68397,0.22001 -1.10571,0.90549 -0.99373,1.6152c0.11198,0.70971 0.72429,1.23204 1.44277,1.23076c0.50562,-0.00055 0.97485,-0.26302 1.23995,-0.69357c0.2651,-0.43055 0.2882,-0.96771 0.06105,-1.41943M17.594,14.214c-0.39544,-0.25957 -0.92643,-0.14944 -1.186,0.246c-0.25957,0.39544 -0.14944,0.92643 0.246,1.186c0.39544,0.25957 0.92643,0.14944 1.186,-0.246c0.25957,-0.39544 0.14944,-0.92643 -0.246,-1.186M20.384,12.025c0.02309,-0.26442 -0.09955,-0.52045 -0.32007,-0.66818c-0.22052,-0.14772 -0.50396,-0.16372 -0.73971,-0.04175c-0.23574,0.12197 -0.38642,0.36258 -0.39322,0.62792c-0.01008,0.39322 0.29402,0.72334 0.68674,0.7455c0.39273,0.02216 0.73203,-0.27164 0.76626,-0.6635M22.4,11.507c-0.25957,-0.01491 -0.48209,0.18343 -0.497,0.443c-0.01491,0.25957 0.18343,0.48209 0.443,0.497c0.25957,0.01491 0.48209,-0.18343 0.497,-0.443c0.01491,-0.25957 -0.18343,-0.48209 -0.443,-0.497M20.502,16.18c-0.17913,-0.12795 -0.41395,-0.14753 -0.6118,-0.05102c-0.19785,0.09651 -0.32696,0.29362 -0.33639,0.51355c-0.00943,0.21993 0.10233,0.42737 0.29119,0.54047c0.2756,0.15978 0.62801,0.07632 0.80269,-0.19008c0.17468,-0.2664 0.11071,-0.62287 -0.14569,-0.81192M7.124,20.582c-0.14065,-0.10423 -0.32745,-0.12205 -0.48527,-0.0463c-0.15783,0.07576 -0.26076,0.23264 -0.26741,0.40758c-0.00665,0.17494 0.08407,0.33919 0.23568,0.42672c0.2167,0.12509 0.49336,0.05935 0.63062,-0.14986c0.13726,-0.20921 0.08741,-0.48917 -0.11362,-0.63814M17.005,20.533c-0.15352,0.07385 -0.2552,0.22485 -0.26589,0.39487c-0.0107,0.17002 0.07125,0.33257 0.21431,0.42508c0.14306,0.09251 0.32492,0.10056 0.47558,0.02105c0.22704,-0.11981 0.31632,-0.39937 0.20075,-0.62859c-0.11557,-0.22923 -0.39341,-0.32369 -0.62475,-0.21241M11.53,15.776c0.44128,-0.67379 0.25279,-1.57772 -0.421,-2.019c-0.67379,-0.44128 -1.57772,-0.25279 -2.019,0.421c-0.44128,0.67379 -0.25279,1.57772 0.421,2.019c0.67379,0.44128 1.57772,0.25279 2.019,-0.421M8.617,18.012c-0.33689,-0.22009 -0.78841,-0.12539 -1.0085,0.2115c-0.22009,0.33689 -0.12539,0.78841 0.2115,1.0085c0.33689,0.22009 0.78841,0.12539 1.0085,-0.2115c0.22009,-0.33689 0.12539,-0.78841 -0.2115,-1.0085M12.015,20.802c-0.32999,-0.01905 -0.61295,0.23301 -0.632,0.563c-0.01905,0.32999 0.23301,0.61295 0.563,0.632c0.32999,0.01933 0.61317,-0.23251 0.6325,-0.5625c0.01933,-0.32999 -0.23251,-0.61317 -0.5625,-0.6325M12.022,17.029c-0.31163,-0.02876 -0.6142,0.11443 -0.78954,0.37365c-0.17534,0.25922 -0.19564,0.59335 -0.05296,0.87188c0.14267,0.27854 0.42569,0.4573 0.73851,0.46647c0.46319,0.01358 0.85347,-0.34307 0.88156,-0.80561c0.0281,-0.46253 -0.31614,-0.8638 -0.77756,-0.90639M15.526,17.954c-0.24344,0.11151 -0.40629,0.34734 -0.42434,0.61449c-0.01804,0.26715 0.11162,0.52274 0.33785,0.66597c0.22623,0.14323 0.51272,0.15111 0.74649,0.02053c0.33626,-0.19381 0.46208,-0.61686 0.28638,-0.96293c-0.1757,-0.34607 -0.59148,-0.49416 -0.94638,-0.33707" fill="#62757e"></path></g>
  </g>
 </g>
</svg>
