<?xml version="1.0" encoding="UTF-8"?>
<!--Generator: Apple Native CoreSVG 175.5-->
<!DOCTYPE svg
PUBLIC "-//W3C//DTD SVG 1.1//EN"
       "http://www.w3.org/Graphics/SVG/1.1/DTD/svg11.dtd">
<svg version="1.1" xmlns="http://www.w3.org/2000/svg" xmlns:xlink="http://www.w3.org/1999/xlink" width="3300" height="2200">
 <!--glyph: "", point size: 100.0, font version: "18.0d12e2", template writer version: "101"-->
 <g id="Notes">
  <rect height="2200" id="artboard" style="fill:white;opacity:1" width="3300" x="0" y="0"/>
  <line style="fill:none;stroke:black;opacity:1;stroke-width:0.5;" x1="263" x2="3036" y1="292" y2="292"/>
  <text style="stroke:none;fill:black;font-family:sans-serif;font-size:13;font-weight:bold;" transform="matrix(1 0 0 1 263 322)">Weight/Scale Variations</text>
  <text style="stroke:none;fill:black;font-family:sans-serif;font-size:13;text-anchor:middle;" transform="matrix(1 0 0 1 559.711 322)">Ultralight</text>
  <text style="stroke:none;fill:black;font-family:sans-serif;font-size:13;text-anchor:middle;" transform="matrix(1 0 0 1 856.422 322)">Thin</text>
  <text style="stroke:none;fill:black;font-family:sans-serif;font-size:13;text-anchor:middle;" transform="matrix(1 0 0 1 1153.13 322)">Light</text>
  <text style="stroke:none;fill:black;font-family:sans-serif;font-size:13;text-anchor:middle;" transform="matrix(1 0 0 1 1449.84 322)">Regular</text>
  <text style="stroke:none;fill:black;font-family:sans-serif;font-size:13;text-anchor:middle;" transform="matrix(1 0 0 1 1746.56 322)">Medium</text>
  <text style="stroke:none;fill:black;font-family:sans-serif;font-size:13;text-anchor:middle;" transform="matrix(1 0 0 1 2043.27 322)">Semibold</text>
  <text style="stroke:none;fill:black;font-family:sans-serif;font-size:13;text-anchor:middle;" transform="matrix(1 0 0 1 2339.98 322)">Bold</text>
  <text style="stroke:none;fill:black;font-family:sans-serif;font-size:13;text-anchor:middle;" transform="matrix(1 0 0 1 2636.69 322)">Heavy</text>
  <text style="stroke:none;fill:black;font-family:sans-serif;font-size:13;text-anchor:middle;" transform="matrix(1 0 0 1 2933.4 322)">Black</text>
  <line style="fill:none;stroke:black;opacity:1;stroke-width:0.5;" x1="263" x2="3036" y1="1903" y2="1903"/>
  <g transform="matrix(1 0 0 1 263 1933)">
   <path d="M9.24805 0.830078C13.5547 0.830078 17.1387-2.74414 17.1387-7.05078C17.1387-11.3574 13.5449-14.9316 9.23828-14.9316C4.94141-14.9316 1.36719-11.3574 1.36719-7.05078C1.36719-2.74414 4.95117 0.830078 9.24805 0.830078ZM9.24805-0.654297C5.70312-0.654297 2.87109-3.49609 2.87109-7.05078C2.87109-10.6055 5.69336-13.4473 9.23828-13.4473C12.793-13.4473 15.6445-10.6055 15.6445-7.05078C15.6445-3.49609 12.8027-0.654297 9.24805-0.654297ZM5.6543-7.05078C5.6543-6.62109 5.95703-6.32812 6.40625-6.32812L8.50586-6.32812L8.50586-4.20898C8.50586-3.76953 8.79883-3.4668 9.22852-3.4668C9.67773-3.4668 9.9707-3.76953 9.9707-4.20898L9.9707-6.32812L12.0898-6.32812C12.5293-6.32812 12.832-6.62109 12.832-7.05078C12.832-7.49023 12.5293-7.79297 12.0898-7.79297L9.9707-7.79297L9.9707-9.90234C9.9707-10.3516 9.67773-10.6543 9.22852-10.6543C8.79883-10.6543 8.50586-10.3516 8.50586-9.90234L8.50586-7.79297L6.40625-7.79297C5.95703-7.79297 5.6543-7.49023 5.6543-7.05078Z"/>
  </g>
  <g transform="matrix(1 0 0 1 281.867 1933)">
   <path d="M11.709 2.91016C17.1582 2.91016 21.6699-1.61133 21.6699-7.05078C21.6699-12.5 17.1484-17.0117 11.6992-17.0117C6.25977-17.0117 1.74805-12.5 1.74805-7.05078C1.74805-1.61133 6.26953 2.91016 11.709 2.91016ZM11.709 1.25C7.09961 1.25 3.41797-2.44141 3.41797-7.05078C3.41797-11.6602 7.08984-15.3516 11.6992-15.3516C16.3086-15.3516 20.0098-11.6602 20.0098-7.05078C20.0098-2.44141 16.3184 1.25 11.709 1.25ZM7.17773-7.05078C7.17773-6.57227 7.50977-6.25 8.00781-6.25L10.8789-6.25L10.8789-3.36914C10.8789-2.88086 11.2109-2.53906 11.6895-2.53906C12.1777-2.53906 12.5195-2.87109 12.5195-3.36914L12.5195-6.25L15.4004-6.25C15.8887-6.25 16.2305-6.57227 16.2305-7.05078C16.2305-7.53906 15.8887-7.88086 15.4004-7.88086L12.5195-7.88086L12.5195-10.752C12.5195-11.25 12.1777-11.5918 11.6895-11.5918C11.2109-11.5918 10.8789-11.25 10.8789-10.752L10.8789-7.88086L8.00781-7.88086C7.50977-7.88086 7.17773-7.53906 7.17773-7.05078Z"/>
  </g>
  <g transform="matrix(1 0 0 1 305.646 1933)">
   <path d="M14.9707 5.66406C21.9336 5.66406 27.6953-0.0976562 27.6953-7.05078C27.6953-14.0137 21.9238-19.7754 14.9609-19.7754C8.00781-19.7754 2.25586-14.0137 2.25586-7.05078C2.25586-0.0976562 8.01758 5.66406 14.9707 5.66406ZM14.9707 3.84766C8.93555 3.84766 4.08203-1.01562 4.08203-7.05078C4.08203-13.0957 8.92578-17.9492 14.9609-17.9492C21.0059-17.9492 25.8691-13.0957 25.8691-7.05078C25.8691-1.01562 21.0156 3.84766 14.9707 3.84766ZM9.19922-7.05078C9.19922-6.5332 9.57031-6.17188 10.1172-6.17188L14.0625-6.17188L14.0625-2.2168C14.0625-1.67969 14.4336-1.29883 14.9512-1.29883C15.4883-1.29883 15.8594-1.66992 15.8594-2.2168L15.8594-6.17188L19.8145-6.17188C20.3516-6.17188 20.7324-6.5332 20.7324-7.05078C20.7324-7.59766 20.3613-7.96875 19.8145-7.96875L15.8594-7.96875L15.8594-11.9141C15.8594-12.4609 15.4883-12.8418 14.9512-12.8418C14.4336-12.8418 14.0625-12.4609 14.0625-11.9141L14.0625-7.96875L10.1172-7.96875C9.57031-7.96875 9.19922-7.59766 9.19922-7.05078Z"/>
  </g>
  <text style="stroke:none;fill:black;font-family:sans-serif;font-size:13;font-weight:bold;" transform="matrix(1 0 0 1 263 1953)">Design Variations</text>
  <text style="stroke:none;fill:black;font-family:sans-serif;font-size:13;" transform="matrix(1 0 0 1 263 1971)">Symbols are supported in up to nine weights and three scales.</text>
  <text style="stroke:none;fill:black;font-family:sans-serif;font-size:13;" transform="matrix(1 0 0 1 263 1989)">For optimal layout with text and other symbols, vertically align</text>
  <text style="stroke:none;fill:black;font-family:sans-serif;font-size:13;" transform="matrix(1 0 0 1 263 2007)">symbols with the adjacent text.</text>
  <line style="fill:none;stroke:#00AEEF;stroke-width:0.5;opacity:1.0;" x1="776" x2="776" y1="1919" y2="1933"/>
  <g transform="matrix(1 0 0 1 776 1933)">
   <path d="M3.31055 0.15625C3.82812 0.15625 4.08203-0.0390625 4.26758-0.585938L5.52734-4.0332L11.2891-4.0332L12.5488-0.585938C12.7344-0.0390625 12.9883 0.15625 13.4961 0.15625C14.0137 0.15625 14.3457-0.15625 14.3457-0.644531C14.3457-0.810547 14.3164-0.966797 14.2383-1.17188L9.6582-13.3691C9.43359-13.9648 9.0332-14.2676 8.4082-14.2676C7.80273-14.2676 7.39258-13.9746 7.17773-13.3789L2.59766-1.16211C2.51953-0.957031 2.49023-0.800781 2.49023-0.634766C2.49023-0.146484 2.80273 0.15625 3.31055 0.15625ZM6.00586-5.51758L8.37891-12.0898L8.42773-12.0898L10.8008-5.51758Z"/>
  </g>
  <line style="fill:none;stroke:#00AEEF;stroke-width:0.5;opacity:1.0;" x1="793.197" x2="793.197" y1="1919" y2="1933"/>
  <text style="stroke:none;fill:black;font-family:sans-serif;font-size:13;font-weight:bold;" transform="matrix(1 0 0 1 776 1953)">Margins</text>
  <text style="stroke:none;fill:black;font-family:sans-serif;font-size:13;" transform="matrix(1 0 0 1 776 1971)">Leading and trailing margins on the left and right side of each symbol</text>
  <text style="stroke:none;fill:black;font-family:sans-serif;font-size:13;" transform="matrix(1 0 0 1 776 1989)">can be adjusted by modifying the x-location of the margin guidelines.</text>
  <text style="stroke:none;fill:black;font-family:sans-serif;font-size:13;" transform="matrix(1 0 0 1 776 2007)">Modifications are automatically applied proportionally to all</text>
  <text style="stroke:none;fill:black;font-family:sans-serif;font-size:13;" transform="matrix(1 0 0 1 776 2025)">scales and weights.</text>
  <g transform="matrix(1 0 0 1 1289 1933)">
   <path d="M2.8418 1.86523L4.54102 3.57422C5.40039 4.44336 6.38672 4.38477 7.31445 3.35938L18.0078-8.42773L17.041-9.4043L6.42578 2.27539C6.07422 2.67578 5.74219 2.77344 5.27344 2.30469L4.10156 1.14258C3.63281 0.683594 3.74023 0.341797 4.14062-0.0195312L15.6152-10.8203L14.6387-11.7871L3.04688-0.898438C2.06055 0.0195312 1.98242 0.996094 2.8418 1.86523ZM9.25781-16.3281C8.83789-15.918 8.80859-15.3418 9.04297-14.9512C9.27734-14.5898 9.73633-14.3555 10.3809-14.5215C11.8457-14.8633 13.3691-14.9219 14.7949-13.9844L14.209-12.5293C13.8672-11.6992 14.043-11.1133 14.5801-10.5664L16.875-8.25195C17.3633-7.76367 17.7734-7.74414 18.3398-7.8418L19.4043-8.03711L20.0684-7.36328L20.0293-6.80664C19.9902-6.30859 20.1172-5.92773 20.6055-5.44922L21.3672-4.70703C21.8457-4.22852 22.4609-4.19922 22.9297-4.66797L25.8398-7.58789C26.3086-8.05664 26.2891-8.65234 25.8105-9.13086L25.0391-9.89258C24.5605-10.3711 24.1895-10.5273 23.7109-10.4883L23.1348-10.4395L22.4902-11.0742L22.7344-12.1973C22.8613-12.7637 22.7051-13.2031 22.1191-13.7891L19.9219-15.9766C16.582-19.2969 12.1484-19.2188 9.25781-16.3281ZM10.752-15.957C13.1836-17.7344 16.4746-17.4316 18.7012-15.2051L21.1328-12.793C21.3672-12.5586 21.4062-12.373 21.3379-12.0312L21.0156-10.5469L22.5195-9.0625L23.5059-9.12109C23.7598-9.13086 23.8379-9.11133 24.0332-8.91602L24.6094-8.33984L22.168-5.89844L21.5918-6.47461C21.3965-6.66992 21.3672-6.74805 21.377-7.01172L21.4453-7.98828L19.9512-9.47266L18.4277-9.21875C18.1055-9.15039 17.959-9.17969 17.7148-9.41406L15.7129-11.416C15.459-11.6504 15.4297-11.8164 15.5859-12.1875L16.4648-14.2773C14.9023-15.7324 12.8711-16.3574 10.8398-15.7617C10.6836-15.7227 10.625-15.8496 10.752-15.957Z"/>
  </g>
  <text style="stroke:none;fill:black;font-family:sans-serif;font-size:13;font-weight:bold;" transform="matrix(1 0 0 1 1289 1953)">Exporting</text>
  <text style="stroke:none;fill:black;font-family:sans-serif;font-size:13;" transform="matrix(1 0 0 1 1289 1971)">Symbols should be outlined when exporting to ensure the</text>
  <text style="stroke:none;fill:black;font-family:sans-serif;font-size:13;" transform="matrix(1 0 0 1 1289 1989)">design is preserved when submitting to Xcode.</text>
  <text id="template-version" style="stroke:none;fill:black;font-family:sans-serif;font-size:13;text-anchor:end;" transform="matrix(1 0 0 1 3036 1933)">Template v.4.0</text>
  <text style="stroke:none;fill:black;font-family:sans-serif;font-size:13;text-anchor:end;" transform="matrix(1 0 0 1 3036 1951)">Requires Xcode 14 or greater</text>
  <text id="descriptive-name" style="stroke:none;fill:black;font-family:sans-serif;font-size:13;text-anchor:end;" transform="matrix(1 0 0 1 3036 1969)">Generated from brave.zzz</text>
  <text style="stroke:none;fill:black;font-family:sans-serif;font-size:13;text-anchor:end;" transform="matrix(1 0 0 1 3036 1987)">Typeset at 100 points</text>
  <text style="stroke:none;fill:black;font-family:sans-serif;font-size:13;" transform="matrix(1 0 0 1 263 726)">Small</text>
  <text style="stroke:none;fill:black;font-family:sans-serif;font-size:13;" transform="matrix(1 0 0 1 263 1156)">Medium</text>
  <text style="stroke:none;fill:black;font-family:sans-serif;font-size:13;" transform="matrix(1 0 0 1 263 1586)">Large</text>
 </g>
 <g id="Guides">
  <g id="H-reference" style="fill:#27AAE1;stroke:none;" transform="matrix(1 0 0 1 339 696)">
   <path d="M0.993654 0L3.63775 0L29.3281-67.1323L30.0303-67.1323L30.0303-70.459L28.1226-70.459ZM11.6885-24.4799L46.9815-24.4799L46.2315-26.7285L12.4385-26.7285ZM55.1196 0L57.7637 0L30.6382-70.459L29.4326-70.459L29.4326-67.1323Z"/>
  </g>
  <line id="Baseline-S" style="fill:none;stroke:#27AAE1;opacity:1;stroke-width:0.5;" x1="263" x2="3036" y1="696" y2="696"/>
  <line id="Capline-S" style="fill:none;stroke:#27AAE1;opacity:1;stroke-width:0.5;" x1="263" x2="3036" y1="625.541" y2="625.541"/>
  <g id="H-reference" style="fill:#27AAE1;stroke:none;" transform="matrix(1 0 0 1 339 1126)">
   <path d="M0.993654 0L3.63775 0L29.3281-67.1323L30.0303-67.1323L30.0303-70.459L28.1226-70.459ZM11.6885-24.4799L46.9815-24.4799L46.2315-26.7285L12.4385-26.7285ZM55.1196 0L57.7637 0L30.6382-70.459L29.4326-70.459L29.4326-67.1323Z"/>
  </g>
  <line id="Baseline-M" style="fill:none;stroke:#27AAE1;opacity:1;stroke-width:0.5;" x1="263" x2="3036" y1="1126" y2="1126"/>
  <line id="Capline-M" style="fill:none;stroke:#27AAE1;opacity:1;stroke-width:0.5;" x1="263" x2="3036" y1="1055.54" y2="1055.54"/>
  <g id="H-reference" style="fill:#27AAE1;stroke:none;" transform="matrix(1 0 0 1 339 1556)">
   <path d="M0.993654 0L3.63775 0L29.3281-67.1323L30.0303-67.1323L30.0303-70.459L28.1226-70.459ZM11.6885-24.4799L46.9815-24.4799L46.2315-26.7285L12.4385-26.7285ZM55.1196 0L57.7637 0L30.6382-70.459L29.4326-70.459L29.4326-67.1323Z"/>
  </g>
  <line id="Baseline-L" style="fill:none;stroke:#27AAE1;opacity:1;stroke-width:0.5;" x1="263" x2="3036" y1="1556" y2="1556"/>
  <line id="Capline-L" style="fill:none;stroke:#27AAE1;opacity:1;stroke-width:0.5;" x1="263" x2="3036" y1="1485.54" y2="1485.54"/>
  <line id="left-margin-Regular-M" style="fill:none;stroke:#00AEEF;stroke-width:0.5;opacity:1.0;" x1="1389.82" x2="1389.82" y1="1030.79" y2="1150.12"/>
  <line id="right-margin-Regular-M" style="fill:none;stroke:#00AEEF;stroke-width:0.5;opacity:1.0;" x1="1509.87" x2="1509.87" y1="1030.79" y2="1150.12"/>
 </g>
 <g id="Symbols">
  <g id="Regular-L" transform="matrix(6.45 0 0 6.45 1372.2675 1443)">
    <defs><clipPath id="clip-1"><rect x="0" y="0" width="24" height="24" fill="none" fill-rule="nonzero"></rect></clipPath></defs>
<g clip-path="url(#clip-1)" fill="none" fill-rule="none" stroke="none" stroke-width="1" stroke-linecap="butt" stroke-linejoin="miter" stroke-miterlimit="10" stroke-dasharray="" stroke-dashoffset="0" font-family="none" font-weight="none" font-size="none" text-anchor="none" style="mix-blend-mode: normal"><path d="M21.298,12.15c-0.45444,0.07198 -0.88133,-0.23767 -0.954,-0.692c-0.144,-0.897 -0.451,-1.912 -0.802,-2.647c-0.17288,-0.4103 0.00702,-0.88404 0.40866,-1.07618c0.40164,-0.19214 0.88338,-0.0349 1.09434,0.35718c0.421,0.883 0.775,2.043 0.944,3.104c0.07266,0.45413 -0.23603,0.88137 -0.69,0.955zM19.061,7.17c-0.25726,-0.0001 -0.50007,-0.11893 -0.658,-0.322c-1.55187,-2.01076 -3.95003,-3.18619 -6.49,-3.181c-1.354,0 -2.626,0.282 -3.78,0.839c-0.41101,0.18059 -0.89122,0.00344 -1.08648,-0.40081c-0.19526,-0.40425 -0.03549,-0.89052 0.36148,-1.10019c1.383,-0.667 2.899,-1.005 4.505,-1.005c3.05449,-0.00698 5.93884,1.40564 7.806,3.823c0.19468,0.25159 0.22949,0.59193 0.08978,0.87772c-0.13971,0.28579 -0.42967,0.46737 -0.74778,0.46828zM10.393,6.045c0.09015,0.20192 0.09621,0.43141 0.01684,0.63781c-0.07937,0.20639 -0.23763,0.3727 -0.43984,0.46219c-1.93,0.855 -3.277,2.856 -3.277,4.866c0,0.291 0.006,0.553 0.016,0.79c0.0092,0.22124 -0.06995,0.43706 -0.22002,0.59988c-0.15007,0.16282 -0.35873,0.25928 -0.57998,0.26812h-0.034c-0.44708,-0.00019 -0.81429,-0.35327 -0.832,-0.8c-0.01,-0.257 -0.017,-0.542 -0.017,-0.857c0,-2.65 1.755,-5.279 4.268,-6.393c0.2022,-0.08975 0.43179,-0.09538 0.63815,-0.01565c0.20635,0.07973 0.37252,0.23827 0.46185,0.44065zM3.666,11.988c0,1.159 0.132,1.87 0.27,2.625c0.116,0.63 0.236,1.283 0.297,2.216c0.02969,0.45909 -0.31796,0.85552 -0.777,0.886l-0.055,0.002c-0.43935,-0.00016 -0.80305,-0.34154 -0.831,-0.78c-0.04763,-0.67981 -0.13881,-1.35586 -0.273,-2.024c-0.147,-0.793 -0.297,-1.613 -0.297,-2.925c0,-2.973 1.12,-5.626 3.155,-7.47c0.34104,-0.309 0.868,-0.28304 1.177,0.058c0.309,0.34104 0.28304,0.868 -0.058,1.177c-1.682,1.524 -2.608,3.738 -2.608,6.235zM5.536,18.585c0.135,-0.4 0.223,-0.665 0.223,-1.076c0,-0.771 -0.132,-1.259 -0.26,-1.73l-0.09,-0.34c-0.10031,-0.44304 0.17238,-0.88487 0.61337,-0.99383c0.44099,-0.10895 0.88808,0.15505 1.00563,0.59383l0.08,0.303c0.141,0.523 0.318,1.175 0.318,2.167c0,0.683 -0.157,1.153 -0.31,1.606c-0.06,0.183 -0.127,0.382 -0.191,0.618c-0.13283,0.4276 -0.5796,0.67402 -1.01213,0.55823c-0.43253,-0.11579 -0.69644,-0.55246 -0.59787,-0.98923c0.073,-0.274 0.15,-0.505 0.221,-0.717zM8.221,20.273c0.355,-0.785 0.589,-1.304 0.589,-2.62c0,-1.904 -0.204,-2.587 -0.402,-3.247c-0.175,-0.584 -0.355,-1.185 -0.355,-2.394c0,-2.219 1.66,-3.893 3.86,-3.893c0.256,0 0.511,0.024 0.757,0.068c0.45287,0.08174 0.75374,0.51513 0.672,0.968c-0.08174,0.45287 -0.51513,0.75374 -0.968,0.672c-0.1522,-0.02681 -0.30646,-0.0402 -0.461,-0.04c-1.291,0 -2.193,0.915 -2.193,2.225c0,0.964 0.125,1.385 0.284,1.915c0.222,0.74 0.472,1.577 0.472,3.726c0,1.675 -0.358,2.467 -0.736,3.305c-0.069,0.153 -0.14,0.311 -0.212,0.483c-0.18314,0.41823 -0.66852,0.61147 -1.08899,0.43353c-0.42047,-0.17793 -0.61971,-0.66089 -0.44701,-1.08353c0.078,-0.184 0.155,-0.354 0.23,-0.518zM12.67,17.195h-0.008c-0.45983,-0.0044 -0.82933,-0.38016 -0.826,-0.84c0.02,-2.232 -0.619,-3.843 -0.691,-4.02l0.768,-0.323l0.794,-0.252c0.12,0.28 0.819,2.103 0.796,4.61c-0.00493,0.4567 -0.37628,0.82448 -0.833,0.825zM11.864,18.788c0.05523,-0.45674 0.47026,-0.78223 0.927,-0.727c0.45674,0.05523 0.78223,0.47026 0.727,0.927c-0.22,1.83 -0.866,2.608 -0.993,2.745c-0.30845,0.34159 -0.83541,0.36845 -1.177,0.06c-0.34159,-0.30845 -0.36845,-0.83541 -0.06,-1.177c0.027,-0.035 0.423,-0.56 0.575,-1.828zM15.333,9.928c0.38,0.565 0.644,1.254 0.786,2.047l0.047,0.263c0.313,1.729 0.607,3.361 0.052,7.064c-0.003,0.015 -0.246,1.554 -0.6,2.218c-0.13214,0.27671 -0.40547,0.45859 -0.71175,0.47361c-0.30628,0.01502 -0.59609,-0.13925 -0.75467,-0.4017c-0.15858,-0.26246 -0.16034,-0.59077 -0.00459,-0.85491c0.124,-0.234 0.34,-1.136 0.423,-1.683c0.514,-3.43 0.256,-4.862 -0.044,-6.52l-0.047,-0.266c-0.1,-0.564 -0.279,-1.037 -0.53,-1.409c-0.24239,-0.38173 -0.13643,-0.88709 0.2389,-1.1393c0.37532,-0.2522 0.88326,-0.15937 1.1451,0.2093zM12.071,6.728c-0.44857,-0.04563 -0.77965,-0.43951 -0.74747,-0.88924c0.03218,-0.44973 0.41597,-0.79246 0.86647,-0.77376c3.943,0.282 6.006,2.973 6.622,5.397l0.06,0.232c0.512,2.018 0.726,2.854 0.685,5.323c-0.01779,1.29172 -0.18558,2.577 -0.5,3.83c-0.12942,0.42913 -0.57488,0.67922 -1.00863,0.56628c-0.43375,-0.11294 -0.70067,-0.54853 -0.60437,-0.98628c0.155,-0.598 0.42,-1.839 0.446,-3.437c0.037,-2.247 -0.133,-2.912 -0.634,-4.885l-0.06,-0.232c-0.472,-1.861 -2.066,-3.927 -5.125,-4.145z" fill="#62757e" fill-rule="nonzero"></path></g>
  </g>
  <g id="Regular-M" transform="matrix(5 0 0 5 1389.82 1030)">
    <defs><clipPath id="clip-1"><rect x="0" y="0" width="24" height="24" fill="none" fill-rule="nonzero"></rect></clipPath></defs>
<g clip-path="url(#clip-1)" fill="none" fill-rule="none" stroke="none" stroke-width="1" stroke-linecap="butt" stroke-linejoin="miter" stroke-miterlimit="10" stroke-dasharray="" stroke-dashoffset="0" font-family="none" font-weight="none" font-size="none" text-anchor="none" style="mix-blend-mode: normal"><path d="M21.298,12.15c-0.45444,0.07198 -0.88133,-0.23767 -0.954,-0.692c-0.144,-0.897 -0.451,-1.912 -0.802,-2.647c-0.17288,-0.4103 0.00702,-0.88404 0.40866,-1.07618c0.40164,-0.19214 0.88338,-0.0349 1.09434,0.35718c0.421,0.883 0.775,2.043 0.944,3.104c0.07266,0.45413 -0.23603,0.88137 -0.69,0.955zM19.061,7.17c-0.25726,-0.0001 -0.50007,-0.11893 -0.658,-0.322c-1.55187,-2.01076 -3.95003,-3.18619 -6.49,-3.181c-1.354,0 -2.626,0.282 -3.78,0.839c-0.41101,0.18059 -0.89122,0.00344 -1.08648,-0.40081c-0.19526,-0.40425 -0.03549,-0.89052 0.36148,-1.10019c1.383,-0.667 2.899,-1.005 4.505,-1.005c3.05449,-0.00698 5.93884,1.40564 7.806,3.823c0.19468,0.25159 0.22949,0.59193 0.08978,0.87772c-0.13971,0.28579 -0.42967,0.46737 -0.74778,0.46828zM10.393,6.045c0.09015,0.20192 0.09621,0.43141 0.01684,0.63781c-0.07937,0.20639 -0.23763,0.3727 -0.43984,0.46219c-1.93,0.855 -3.277,2.856 -3.277,4.866c0,0.291 0.006,0.553 0.016,0.79c0.0092,0.22124 -0.06995,0.43706 -0.22002,0.59988c-0.15007,0.16282 -0.35873,0.25928 -0.57998,0.26812h-0.034c-0.44708,-0.00019 -0.81429,-0.35327 -0.832,-0.8c-0.01,-0.257 -0.017,-0.542 -0.017,-0.857c0,-2.65 1.755,-5.279 4.268,-6.393c0.2022,-0.08975 0.43179,-0.09538 0.63815,-0.01565c0.20635,0.07973 0.37252,0.23827 0.46185,0.44065zM3.666,11.988c0,1.159 0.132,1.87 0.27,2.625c0.116,0.63 0.236,1.283 0.297,2.216c0.02969,0.45909 -0.31796,0.85552 -0.777,0.886l-0.055,0.002c-0.43935,-0.00016 -0.80305,-0.34154 -0.831,-0.78c-0.04763,-0.67981 -0.13881,-1.35586 -0.273,-2.024c-0.147,-0.793 -0.297,-1.613 -0.297,-2.925c0,-2.973 1.12,-5.626 3.155,-7.47c0.34104,-0.309 0.868,-0.28304 1.177,0.058c0.309,0.34104 0.28304,0.868 -0.058,1.177c-1.682,1.524 -2.608,3.738 -2.608,6.235zM5.536,18.585c0.135,-0.4 0.223,-0.665 0.223,-1.076c0,-0.771 -0.132,-1.259 -0.26,-1.73l-0.09,-0.34c-0.10031,-0.44304 0.17238,-0.88487 0.61337,-0.99383c0.44099,-0.10895 0.88808,0.15505 1.00563,0.59383l0.08,0.303c0.141,0.523 0.318,1.175 0.318,2.167c0,0.683 -0.157,1.153 -0.31,1.606c-0.06,0.183 -0.127,0.382 -0.191,0.618c-0.13283,0.4276 -0.5796,0.67402 -1.01213,0.55823c-0.43253,-0.11579 -0.69644,-0.55246 -0.59787,-0.98923c0.073,-0.274 0.15,-0.505 0.221,-0.717zM8.221,20.273c0.355,-0.785 0.589,-1.304 0.589,-2.62c0,-1.904 -0.204,-2.587 -0.402,-3.247c-0.175,-0.584 -0.355,-1.185 -0.355,-2.394c0,-2.219 1.66,-3.893 3.86,-3.893c0.256,0 0.511,0.024 0.757,0.068c0.45287,0.08174 0.75374,0.51513 0.672,0.968c-0.08174,0.45287 -0.51513,0.75374 -0.968,0.672c-0.1522,-0.02681 -0.30646,-0.0402 -0.461,-0.04c-1.291,0 -2.193,0.915 -2.193,2.225c0,0.964 0.125,1.385 0.284,1.915c0.222,0.74 0.472,1.577 0.472,3.726c0,1.675 -0.358,2.467 -0.736,3.305c-0.069,0.153 -0.14,0.311 -0.212,0.483c-0.18314,0.41823 -0.66852,0.61147 -1.08899,0.43353c-0.42047,-0.17793 -0.61971,-0.66089 -0.44701,-1.08353c0.078,-0.184 0.155,-0.354 0.23,-0.518zM12.67,17.195h-0.008c-0.45983,-0.0044 -0.82933,-0.38016 -0.826,-0.84c0.02,-2.232 -0.619,-3.843 -0.691,-4.02l0.768,-0.323l0.794,-0.252c0.12,0.28 0.819,2.103 0.796,4.61c-0.00493,0.4567 -0.37628,0.82448 -0.833,0.825zM11.864,18.788c0.05523,-0.45674 0.47026,-0.78223 0.927,-0.727c0.45674,0.05523 0.78223,0.47026 0.727,0.927c-0.22,1.83 -0.866,2.608 -0.993,2.745c-0.30845,0.34159 -0.83541,0.36845 -1.177,0.06c-0.34159,-0.30845 -0.36845,-0.83541 -0.06,-1.177c0.027,-0.035 0.423,-0.56 0.575,-1.828zM15.333,9.928c0.38,0.565 0.644,1.254 0.786,2.047l0.047,0.263c0.313,1.729 0.607,3.361 0.052,7.064c-0.003,0.015 -0.246,1.554 -0.6,2.218c-0.13214,0.27671 -0.40547,0.45859 -0.71175,0.47361c-0.30628,0.01502 -0.59609,-0.13925 -0.75467,-0.4017c-0.15858,-0.26246 -0.16034,-0.59077 -0.00459,-0.85491c0.124,-0.234 0.34,-1.136 0.423,-1.683c0.514,-3.43 0.256,-4.862 -0.044,-6.52l-0.047,-0.266c-0.1,-0.564 -0.279,-1.037 -0.53,-1.409c-0.24239,-0.38173 -0.13643,-0.88709 0.2389,-1.1393c0.37532,-0.2522 0.88326,-0.15937 1.1451,0.2093zM12.071,6.728c-0.44857,-0.04563 -0.77965,-0.43951 -0.74747,-0.88924c0.03218,-0.44973 0.41597,-0.79246 0.86647,-0.77376c3.943,0.282 6.006,2.973 6.622,5.397l0.06,0.232c0.512,2.018 0.726,2.854 0.685,5.323c-0.01779,1.29172 -0.18558,2.577 -0.5,3.83c-0.12942,0.42913 -0.57488,0.67922 -1.00863,0.56628c-0.43375,-0.11294 -0.70067,-0.54853 -0.60437,-0.98628c0.155,-0.598 0.42,-1.839 0.446,-3.437c0.037,-2.247 -0.133,-2.912 -0.634,-4.885l-0.06,-0.232c-0.472,-1.861 -2.066,-3.927 -5.125,-4.145z" fill="#62757e" fill-rule="nonzero"></path></g>
  </g>
  <g id="Regular-S" transform="matrix(3.915 0 0 3.915 1402.75 614)">
    <defs><clipPath id="clip-1"><rect x="0" y="0" width="24" height="24" fill="none" fill-rule="nonzero"></rect></clipPath></defs>
<g clip-path="url(#clip-1)" fill="none" fill-rule="none" stroke="none" stroke-width="1" stroke-linecap="butt" stroke-linejoin="miter" stroke-miterlimit="10" stroke-dasharray="" stroke-dashoffset="0" font-family="none" font-weight="none" font-size="none" text-anchor="none" style="mix-blend-mode: normal"><path d="M21.298,12.15c-0.45444,0.07198 -0.88133,-0.23767 -0.954,-0.692c-0.144,-0.897 -0.451,-1.912 -0.802,-2.647c-0.17288,-0.4103 0.00702,-0.88404 0.40866,-1.07618c0.40164,-0.19214 0.88338,-0.0349 1.09434,0.35718c0.421,0.883 0.775,2.043 0.944,3.104c0.07266,0.45413 -0.23603,0.88137 -0.69,0.955zM19.061,7.17c-0.25726,-0.0001 -0.50007,-0.11893 -0.658,-0.322c-1.55187,-2.01076 -3.95003,-3.18619 -6.49,-3.181c-1.354,0 -2.626,0.282 -3.78,0.839c-0.41101,0.18059 -0.89122,0.00344 -1.08648,-0.40081c-0.19526,-0.40425 -0.03549,-0.89052 0.36148,-1.10019c1.383,-0.667 2.899,-1.005 4.505,-1.005c3.05449,-0.00698 5.93884,1.40564 7.806,3.823c0.19468,0.25159 0.22949,0.59193 0.08978,0.87772c-0.13971,0.28579 -0.42967,0.46737 -0.74778,0.46828zM10.393,6.045c0.09015,0.20192 0.09621,0.43141 0.01684,0.63781c-0.07937,0.20639 -0.23763,0.3727 -0.43984,0.46219c-1.93,0.855 -3.277,2.856 -3.277,4.866c0,0.291 0.006,0.553 0.016,0.79c0.0092,0.22124 -0.06995,0.43706 -0.22002,0.59988c-0.15007,0.16282 -0.35873,0.25928 -0.57998,0.26812h-0.034c-0.44708,-0.00019 -0.81429,-0.35327 -0.832,-0.8c-0.01,-0.257 -0.017,-0.542 -0.017,-0.857c0,-2.65 1.755,-5.279 4.268,-6.393c0.2022,-0.08975 0.43179,-0.09538 0.63815,-0.01565c0.20635,0.07973 0.37252,0.23827 0.46185,0.44065zM3.666,11.988c0,1.159 0.132,1.87 0.27,2.625c0.116,0.63 0.236,1.283 0.297,2.216c0.02969,0.45909 -0.31796,0.85552 -0.777,0.886l-0.055,0.002c-0.43935,-0.00016 -0.80305,-0.34154 -0.831,-0.78c-0.04763,-0.67981 -0.13881,-1.35586 -0.273,-2.024c-0.147,-0.793 -0.297,-1.613 -0.297,-2.925c0,-2.973 1.12,-5.626 3.155,-7.47c0.34104,-0.309 0.868,-0.28304 1.177,0.058c0.309,0.34104 0.28304,0.868 -0.058,1.177c-1.682,1.524 -2.608,3.738 -2.608,6.235zM5.536,18.585c0.135,-0.4 0.223,-0.665 0.223,-1.076c0,-0.771 -0.132,-1.259 -0.26,-1.73l-0.09,-0.34c-0.10031,-0.44304 0.17238,-0.88487 0.61337,-0.99383c0.44099,-0.10895 0.88808,0.15505 1.00563,0.59383l0.08,0.303c0.141,0.523 0.318,1.175 0.318,2.167c0,0.683 -0.157,1.153 -0.31,1.606c-0.06,0.183 -0.127,0.382 -0.191,0.618c-0.13283,0.4276 -0.5796,0.67402 -1.01213,0.55823c-0.43253,-0.11579 -0.69644,-0.55246 -0.59787,-0.98923c0.073,-0.274 0.15,-0.505 0.221,-0.717zM8.221,20.273c0.355,-0.785 0.589,-1.304 0.589,-2.62c0,-1.904 -0.204,-2.587 -0.402,-3.247c-0.175,-0.584 -0.355,-1.185 -0.355,-2.394c0,-2.219 1.66,-3.893 3.86,-3.893c0.256,0 0.511,0.024 0.757,0.068c0.45287,0.08174 0.75374,0.51513 0.672,0.968c-0.08174,0.45287 -0.51513,0.75374 -0.968,0.672c-0.1522,-0.02681 -0.30646,-0.0402 -0.461,-0.04c-1.291,0 -2.193,0.915 -2.193,2.225c0,0.964 0.125,1.385 0.284,1.915c0.222,0.74 0.472,1.577 0.472,3.726c0,1.675 -0.358,2.467 -0.736,3.305c-0.069,0.153 -0.14,0.311 -0.212,0.483c-0.18314,0.41823 -0.66852,0.61147 -1.08899,0.43353c-0.42047,-0.17793 -0.61971,-0.66089 -0.44701,-1.08353c0.078,-0.184 0.155,-0.354 0.23,-0.518zM12.67,17.195h-0.008c-0.45983,-0.0044 -0.82933,-0.38016 -0.826,-0.84c0.02,-2.232 -0.619,-3.843 -0.691,-4.02l0.768,-0.323l0.794,-0.252c0.12,0.28 0.819,2.103 0.796,4.61c-0.00493,0.4567 -0.37628,0.82448 -0.833,0.825zM11.864,18.788c0.05523,-0.45674 0.47026,-0.78223 0.927,-0.727c0.45674,0.05523 0.78223,0.47026 0.727,0.927c-0.22,1.83 -0.866,2.608 -0.993,2.745c-0.30845,0.34159 -0.83541,0.36845 -1.177,0.06c-0.34159,-0.30845 -0.36845,-0.83541 -0.06,-1.177c0.027,-0.035 0.423,-0.56 0.575,-1.828zM15.333,9.928c0.38,0.565 0.644,1.254 0.786,2.047l0.047,0.263c0.313,1.729 0.607,3.361 0.052,7.064c-0.003,0.015 -0.246,1.554 -0.6,2.218c-0.13214,0.27671 -0.40547,0.45859 -0.71175,0.47361c-0.30628,0.01502 -0.59609,-0.13925 -0.75467,-0.4017c-0.15858,-0.26246 -0.16034,-0.59077 -0.00459,-0.85491c0.124,-0.234 0.34,-1.136 0.423,-1.683c0.514,-3.43 0.256,-4.862 -0.044,-6.52l-0.047,-0.266c-0.1,-0.564 -0.279,-1.037 -0.53,-1.409c-0.24239,-0.38173 -0.13643,-0.88709 0.2389,-1.1393c0.37532,-0.2522 0.88326,-0.15937 1.1451,0.2093zM12.071,6.728c-0.44857,-0.04563 -0.77965,-0.43951 -0.74747,-0.88924c0.03218,-0.44973 0.41597,-0.79246 0.86647,-0.77376c3.943,0.282 6.006,2.973 6.622,5.397l0.06,0.232c0.512,2.018 0.726,2.854 0.685,5.323c-0.01779,1.29172 -0.18558,2.577 -0.5,3.83c-0.12942,0.42913 -0.57488,0.67922 -1.00863,0.56628c-0.43375,-0.11294 -0.70067,-0.54853 -0.60437,-0.98628c0.155,-0.598 0.42,-1.839 0.446,-3.437c0.037,-2.247 -0.133,-2.912 -0.634,-4.885l-0.06,-0.232c-0.472,-1.861 -2.066,-3.927 -5.125,-4.145z" fill="#62757e" fill-rule="nonzero"></path></g>
  </g>
 </g>
</svg>
