<?xml version="1.0" encoding="UTF-8"?>
<!--Generator: Apple Native CoreSVG 175.5-->
<!DOCTYPE svg
PUBLIC "-//W3C//DTD SVG 1.1//EN"
       "http://www.w3.org/Graphics/SVG/1.1/DTD/svg11.dtd">
<svg version="1.1" xmlns="http://www.w3.org/2000/svg" xmlns:xlink="http://www.w3.org/1999/xlink" width="3300" height="2200">
 <!--glyph: "", point size: 100.0, font version: "18.0d12e2", template writer version: "101"-->
 <g id="Notes">
  <rect height="2200" id="artboard" style="fill:white;opacity:1" width="3300" x="0" y="0"/>
  <line style="fill:none;stroke:black;opacity:1;stroke-width:0.5;" x1="263" x2="3036" y1="292" y2="292"/>
  <text style="stroke:none;fill:black;font-family:sans-serif;font-size:13;font-weight:bold;" transform="matrix(1 0 0 1 263 322)">Weight/Scale Variations</text>
  <text style="stroke:none;fill:black;font-family:sans-serif;font-size:13;text-anchor:middle;" transform="matrix(1 0 0 1 559.711 322)">Ultralight</text>
  <text style="stroke:none;fill:black;font-family:sans-serif;font-size:13;text-anchor:middle;" transform="matrix(1 0 0 1 856.422 322)">Thin</text>
  <text style="stroke:none;fill:black;font-family:sans-serif;font-size:13;text-anchor:middle;" transform="matrix(1 0 0 1 1153.13 322)">Light</text>
  <text style="stroke:none;fill:black;font-family:sans-serif;font-size:13;text-anchor:middle;" transform="matrix(1 0 0 1 1449.84 322)">Regular</text>
  <text style="stroke:none;fill:black;font-family:sans-serif;font-size:13;text-anchor:middle;" transform="matrix(1 0 0 1 1746.56 322)">Medium</text>
  <text style="stroke:none;fill:black;font-family:sans-serif;font-size:13;text-anchor:middle;" transform="matrix(1 0 0 1 2043.27 322)">Semibold</text>
  <text style="stroke:none;fill:black;font-family:sans-serif;font-size:13;text-anchor:middle;" transform="matrix(1 0 0 1 2339.98 322)">Bold</text>
  <text style="stroke:none;fill:black;font-family:sans-serif;font-size:13;text-anchor:middle;" transform="matrix(1 0 0 1 2636.69 322)">Heavy</text>
  <text style="stroke:none;fill:black;font-family:sans-serif;font-size:13;text-anchor:middle;" transform="matrix(1 0 0 1 2933.4 322)">Black</text>
  <line style="fill:none;stroke:black;opacity:1;stroke-width:0.5;" x1="263" x2="3036" y1="1903" y2="1903"/>
  <g transform="matrix(1 0 0 1 263 1933)">
   <path d="M9.24805 0.830078C13.5547 0.830078 17.1387-2.74414 17.1387-7.05078C17.1387-11.3574 13.5449-14.9316 9.23828-14.9316C4.94141-14.9316 1.36719-11.3574 1.36719-7.05078C1.36719-2.74414 4.95117 0.830078 9.24805 0.830078ZM9.24805-0.654297C5.70312-0.654297 2.87109-3.49609 2.87109-7.05078C2.87109-10.6055 5.69336-13.4473 9.23828-13.4473C12.793-13.4473 15.6445-10.6055 15.6445-7.05078C15.6445-3.49609 12.8027-0.654297 9.24805-0.654297ZM5.6543-7.05078C5.6543-6.62109 5.95703-6.32812 6.40625-6.32812L8.50586-6.32812L8.50586-4.20898C8.50586-3.76953 8.79883-3.4668 9.22852-3.4668C9.67773-3.4668 9.9707-3.76953 9.9707-4.20898L9.9707-6.32812L12.0898-6.32812C12.5293-6.32812 12.832-6.62109 12.832-7.05078C12.832-7.49023 12.5293-7.79297 12.0898-7.79297L9.9707-7.79297L9.9707-9.90234C9.9707-10.3516 9.67773-10.6543 9.22852-10.6543C8.79883-10.6543 8.50586-10.3516 8.50586-9.90234L8.50586-7.79297L6.40625-7.79297C5.95703-7.79297 5.6543-7.49023 5.6543-7.05078Z"/>
  </g>
  <g transform="matrix(1 0 0 1 281.867 1933)">
   <path d="M11.709 2.91016C17.1582 2.91016 21.6699-1.61133 21.6699-7.05078C21.6699-12.5 17.1484-17.0117 11.6992-17.0117C6.25977-17.0117 1.74805-12.5 1.74805-7.05078C1.74805-1.61133 6.26953 2.91016 11.709 2.91016ZM11.709 1.25C7.09961 1.25 3.41797-2.44141 3.41797-7.05078C3.41797-11.6602 7.08984-15.3516 11.6992-15.3516C16.3086-15.3516 20.0098-11.6602 20.0098-7.05078C20.0098-2.44141 16.3184 1.25 11.709 1.25ZM7.17773-7.05078C7.17773-6.57227 7.50977-6.25 8.00781-6.25L10.8789-6.25L10.8789-3.36914C10.8789-2.88086 11.2109-2.53906 11.6895-2.53906C12.1777-2.53906 12.5195-2.87109 12.5195-3.36914L12.5195-6.25L15.4004-6.25C15.8887-6.25 16.2305-6.57227 16.2305-7.05078C16.2305-7.53906 15.8887-7.88086 15.4004-7.88086L12.5195-7.88086L12.5195-10.752C12.5195-11.25 12.1777-11.5918 11.6895-11.5918C11.2109-11.5918 10.8789-11.25 10.8789-10.752L10.8789-7.88086L8.00781-7.88086C7.50977-7.88086 7.17773-7.53906 7.17773-7.05078Z"/>
  </g>
  <g transform="matrix(1 0 0 1 305.646 1933)">
   <path d="M14.9707 5.66406C21.9336 5.66406 27.6953-0.0976562 27.6953-7.05078C27.6953-14.0137 21.9238-19.7754 14.9609-19.7754C8.00781-19.7754 2.25586-14.0137 2.25586-7.05078C2.25586-0.0976562 8.01758 5.66406 14.9707 5.66406ZM14.9707 3.84766C8.93555 3.84766 4.08203-1.01562 4.08203-7.05078C4.08203-13.0957 8.92578-17.9492 14.9609-17.9492C21.0059-17.9492 25.8691-13.0957 25.8691-7.05078C25.8691-1.01562 21.0156 3.84766 14.9707 3.84766ZM9.19922-7.05078C9.19922-6.5332 9.57031-6.17188 10.1172-6.17188L14.0625-6.17188L14.0625-2.2168C14.0625-1.67969 14.4336-1.29883 14.9512-1.29883C15.4883-1.29883 15.8594-1.66992 15.8594-2.2168L15.8594-6.17188L19.8145-6.17188C20.3516-6.17188 20.7324-6.5332 20.7324-7.05078C20.7324-7.59766 20.3613-7.96875 19.8145-7.96875L15.8594-7.96875L15.8594-11.9141C15.8594-12.4609 15.4883-12.8418 14.9512-12.8418C14.4336-12.8418 14.0625-12.4609 14.0625-11.9141L14.0625-7.96875L10.1172-7.96875C9.57031-7.96875 9.19922-7.59766 9.19922-7.05078Z"/>
  </g>
  <text style="stroke:none;fill:black;font-family:sans-serif;font-size:13;font-weight:bold;" transform="matrix(1 0 0 1 263 1953)">Design Variations</text>
  <text style="stroke:none;fill:black;font-family:sans-serif;font-size:13;" transform="matrix(1 0 0 1 263 1971)">Symbols are supported in up to nine weights and three scales.</text>
  <text style="stroke:none;fill:black;font-family:sans-serif;font-size:13;" transform="matrix(1 0 0 1 263 1989)">For optimal layout with text and other symbols, vertically align</text>
  <text style="stroke:none;fill:black;font-family:sans-serif;font-size:13;" transform="matrix(1 0 0 1 263 2007)">symbols with the adjacent text.</text>
  <line style="fill:none;stroke:#00AEEF;stroke-width:0.5;opacity:1.0;" x1="776" x2="776" y1="1919" y2="1933"/>
  <g transform="matrix(1 0 0 1 776 1933)">
   <path d="M3.31055 0.15625C3.82812 0.15625 4.08203-0.0390625 4.26758-0.585938L5.52734-4.0332L11.2891-4.0332L12.5488-0.585938C12.7344-0.0390625 12.9883 0.15625 13.4961 0.15625C14.0137 0.15625 14.3457-0.15625 14.3457-0.644531C14.3457-0.810547 14.3164-0.966797 14.2383-1.17188L9.6582-13.3691C9.43359-13.9648 9.0332-14.2676 8.4082-14.2676C7.80273-14.2676 7.39258-13.9746 7.17773-13.3789L2.59766-1.16211C2.51953-0.957031 2.49023-0.800781 2.49023-0.634766C2.49023-0.146484 2.80273 0.15625 3.31055 0.15625ZM6.00586-5.51758L8.37891-12.0898L8.42773-12.0898L10.8008-5.51758Z"/>
  </g>
  <line style="fill:none;stroke:#00AEEF;stroke-width:0.5;opacity:1.0;" x1="793.197" x2="793.197" y1="1919" y2="1933"/>
  <text style="stroke:none;fill:black;font-family:sans-serif;font-size:13;font-weight:bold;" transform="matrix(1 0 0 1 776 1953)">Margins</text>
  <text style="stroke:none;fill:black;font-family:sans-serif;font-size:13;" transform="matrix(1 0 0 1 776 1971)">Leading and trailing margins on the left and right side of each symbol</text>
  <text style="stroke:none;fill:black;font-family:sans-serif;font-size:13;" transform="matrix(1 0 0 1 776 1989)">can be adjusted by modifying the x-location of the margin guidelines.</text>
  <text style="stroke:none;fill:black;font-family:sans-serif;font-size:13;" transform="matrix(1 0 0 1 776 2007)">Modifications are automatically applied proportionally to all</text>
  <text style="stroke:none;fill:black;font-family:sans-serif;font-size:13;" transform="matrix(1 0 0 1 776 2025)">scales and weights.</text>
  <g transform="matrix(1 0 0 1 1289 1933)">
   <path d="M2.8418 1.86523L4.54102 3.57422C5.40039 4.44336 6.38672 4.38477 7.31445 3.35938L18.0078-8.42773L17.041-9.4043L6.42578 2.27539C6.07422 2.67578 5.74219 2.77344 5.27344 2.30469L4.10156 1.14258C3.63281 0.683594 3.74023 0.341797 4.14062-0.0195312L15.6152-10.8203L14.6387-11.7871L3.04688-0.898438C2.06055 0.0195312 1.98242 0.996094 2.8418 1.86523ZM9.25781-16.3281C8.83789-15.918 8.80859-15.3418 9.04297-14.9512C9.27734-14.5898 9.73633-14.3555 10.3809-14.5215C11.8457-14.8633 13.3691-14.9219 14.7949-13.9844L14.209-12.5293C13.8672-11.6992 14.043-11.1133 14.5801-10.5664L16.875-8.25195C17.3633-7.76367 17.7734-7.74414 18.3398-7.8418L19.4043-8.03711L20.0684-7.36328L20.0293-6.80664C19.9902-6.30859 20.1172-5.92773 20.6055-5.44922L21.3672-4.70703C21.8457-4.22852 22.4609-4.19922 22.9297-4.66797L25.8398-7.58789C26.3086-8.05664 26.2891-8.65234 25.8105-9.13086L25.0391-9.89258C24.5605-10.3711 24.1895-10.5273 23.7109-10.4883L23.1348-10.4395L22.4902-11.0742L22.7344-12.1973C22.8613-12.7637 22.7051-13.2031 22.1191-13.7891L19.9219-15.9766C16.582-19.2969 12.1484-19.2188 9.25781-16.3281ZM10.752-15.957C13.1836-17.7344 16.4746-17.4316 18.7012-15.2051L21.1328-12.793C21.3672-12.5586 21.4062-12.373 21.3379-12.0312L21.0156-10.5469L22.5195-9.0625L23.5059-9.12109C23.7598-9.13086 23.8379-9.11133 24.0332-8.91602L24.6094-8.33984L22.168-5.89844L21.5918-6.47461C21.3965-6.66992 21.3672-6.74805 21.377-7.01172L21.4453-7.98828L19.9512-9.47266L18.4277-9.21875C18.1055-9.15039 17.959-9.17969 17.7148-9.41406L15.7129-11.416C15.459-11.6504 15.4297-11.8164 15.5859-12.1875L16.4648-14.2773C14.9023-15.7324 12.8711-16.3574 10.8398-15.7617C10.6836-15.7227 10.625-15.8496 10.752-15.957Z"/>
  </g>
  <text style="stroke:none;fill:black;font-family:sans-serif;font-size:13;font-weight:bold;" transform="matrix(1 0 0 1 1289 1953)">Exporting</text>
  <text style="stroke:none;fill:black;font-family:sans-serif;font-size:13;" transform="matrix(1 0 0 1 1289 1971)">Symbols should be outlined when exporting to ensure the</text>
  <text style="stroke:none;fill:black;font-family:sans-serif;font-size:13;" transform="matrix(1 0 0 1 1289 1989)">design is preserved when submitting to Xcode.</text>
  <text id="template-version" style="stroke:none;fill:black;font-family:sans-serif;font-size:13;text-anchor:end;" transform="matrix(1 0 0 1 3036 1933)">Template v.4.0</text>
  <text style="stroke:none;fill:black;font-family:sans-serif;font-size:13;text-anchor:end;" transform="matrix(1 0 0 1 3036 1951)">Requires Xcode 14 or greater</text>
  <text id="descriptive-name" style="stroke:none;fill:black;font-family:sans-serif;font-size:13;text-anchor:end;" transform="matrix(1 0 0 1 3036 1969)">Generated from brave.zzz</text>
  <text style="stroke:none;fill:black;font-family:sans-serif;font-size:13;text-anchor:end;" transform="matrix(1 0 0 1 3036 1987)">Typeset at 100 points</text>
  <text style="stroke:none;fill:black;font-family:sans-serif;font-size:13;" transform="matrix(1 0 0 1 263 726)">Small</text>
  <text style="stroke:none;fill:black;font-family:sans-serif;font-size:13;" transform="matrix(1 0 0 1 263 1156)">Medium</text>
  <text style="stroke:none;fill:black;font-family:sans-serif;font-size:13;" transform="matrix(1 0 0 1 263 1586)">Large</text>
 </g>
 <g id="Guides">
  <g id="H-reference" style="fill:#27AAE1;stroke:none;" transform="matrix(1 0 0 1 339 696)">
   <path d="M0.993654 0L3.63775 0L29.3281-67.1323L30.0303-67.1323L30.0303-70.459L28.1226-70.459ZM11.6885-24.4799L46.9815-24.4799L46.2315-26.7285L12.4385-26.7285ZM55.1196 0L57.7637 0L30.6382-70.459L29.4326-70.459L29.4326-67.1323Z"/>
  </g>
  <line id="Baseline-S" style="fill:none;stroke:#27AAE1;opacity:1;stroke-width:0.5;" x1="263" x2="3036" y1="696" y2="696"/>
  <line id="Capline-S" style="fill:none;stroke:#27AAE1;opacity:1;stroke-width:0.5;" x1="263" x2="3036" y1="625.541" y2="625.541"/>
  <g id="H-reference" style="fill:#27AAE1;stroke:none;" transform="matrix(1 0 0 1 339 1126)">
   <path d="M0.993654 0L3.63775 0L29.3281-67.1323L30.0303-67.1323L30.0303-70.459L28.1226-70.459ZM11.6885-24.4799L46.9815-24.4799L46.2315-26.7285L12.4385-26.7285ZM55.1196 0L57.7637 0L30.6382-70.459L29.4326-70.459L29.4326-67.1323Z"/>
  </g>
  <line id="Baseline-M" style="fill:none;stroke:#27AAE1;opacity:1;stroke-width:0.5;" x1="263" x2="3036" y1="1126" y2="1126"/>
  <line id="Capline-M" style="fill:none;stroke:#27AAE1;opacity:1;stroke-width:0.5;" x1="263" x2="3036" y1="1055.54" y2="1055.54"/>
  <g id="H-reference" style="fill:#27AAE1;stroke:none;" transform="matrix(1 0 0 1 339 1556)">
   <path d="M0.993654 0L3.63775 0L29.3281-67.1323L30.0303-67.1323L30.0303-70.459L28.1226-70.459ZM11.6885-24.4799L46.9815-24.4799L46.2315-26.7285L12.4385-26.7285ZM55.1196 0L57.7637 0L30.6382-70.459L29.4326-70.459L29.4326-67.1323Z"/>
  </g>
  <line id="Baseline-L" style="fill:none;stroke:#27AAE1;opacity:1;stroke-width:0.5;" x1="263" x2="3036" y1="1556" y2="1556"/>
  <line id="Capline-L" style="fill:none;stroke:#27AAE1;opacity:1;stroke-width:0.5;" x1="263" x2="3036" y1="1485.54" y2="1485.54"/>
  <line id="left-margin-Regular-M" style="fill:none;stroke:#00AEEF;stroke-width:0.5;opacity:1.0;" x1="1389.82" x2="1389.82" y1="1030.79" y2="1150.12"/>
  <line id="right-margin-Regular-M" style="fill:none;stroke:#00AEEF;stroke-width:0.5;opacity:1.0;" x1="1509.87" x2="1509.87" y1="1030.79" y2="1150.12"/>
 </g>
 <g id="Symbols">
  <g id="Regular-L" transform="matrix(6.45 0 0 6.45 1372.2675 1443)">
    <defs><clipPath id="clip-1"><rect x="0" y="0" width="24" height="24" fill="none" fill-rule="nonzero"></rect></clipPath></defs>
<g clip-path="url(#clip-1)" fill="none" fill-rule="none" stroke="none" stroke-width="1" stroke-linecap="butt" stroke-linejoin="miter" stroke-miterlimit="10" stroke-dasharray="" stroke-dashoffset="0" font-family="none" font-weight="none" font-size="none" text-anchor="none" style="mix-blend-mode: normal"><path d="M12,3.818c-0.29467,0 -0.585,0.01333 -0.871,0.04c-0.29907,0.04294 -0.59746,-0.08247 -0.77605,-0.32617c-0.17859,-0.2437 -0.20831,-0.56601 -0.07728,-0.83826c0.13103,-0.27225 0.40146,-0.4501 0.70334,-0.46257c0.67891,-0.0619 1.36203,-0.06223 2.041,-0.001c0.30212,0.01196 0.573,0.18959 0.70438,0.4619c0.13138,0.27231 0.10184,0.59489 -0.07682,0.83881c-0.17866,0.24392 -0.4773,0.3694 -0.77656,0.32628c-0.28961,-0.02599 -0.58022,-0.03934 -0.871,-0.04M14.938,3.391c0.16575,-0.42133 0.64161,-0.6286 1.063,-0.463c0.645,0.252 1.258,0.563 1.828,0.926c0.18343,0.11608 0.31297,0.30054 0.35991,0.51248c0.04693,0.21194 0.00737,0.43385 -0.10991,0.61652c-0.11734,0.18316 -0.30264,0.31219 -0.51513,0.3587c-0.21249,0.04651 -0.43475,0.00669 -0.61787,-0.1107c-0.48807,-0.30926 -1.00479,-0.5708 -1.543,-0.781c-0.20266,-0.07836 -0.36569,-0.23431 -0.45298,-0.43328c-0.08729,-0.19897 -0.09161,-0.42454 -0.01202,-0.62672M9.062,3.39c0.07928,0.20206 0.07479,0.42737 -0.01248,0.62611c-0.08726,0.19874 -0.25011,0.35452 -0.45252,0.43289c-0.53821,0.2102 -1.05493,0.47174 -1.543,0.781c-0.38114,0.24377 -0.8877,0.1328 -1.132,-0.248c-0.11737,-0.18255 -0.15708,-0.40437 -0.11034,-0.61629c0.04674,-0.21193 0.17608,-0.39646 0.35934,-0.51271c0.57,-0.363 1.183,-0.674 1.828,-0.926c0.42139,-0.1656 0.89725,0.04167 1.063,0.463M5.012,5.775c0.16723,0.13791 0.27263,0.33676 0.2929,0.55256c0.02027,0.21581 -0.04627,0.4308 -0.1849,0.59744c-0.365,0.43775 -0.68026,0.91467 -0.94,1.422c-0.20573,0.40344 -0.69956,0.56372 -1.103,0.358c-0.19381,-0.09765 -0.34074,-0.26848 -0.4083,-0.47472c-0.06756,-0.20624 -0.05018,-0.43089 0.0483,-0.62428c0.31483,-0.61489 0.69719,-1.19279 1.14,-1.723c0.1388,-0.16755 0.3385,-0.27306 0.55512,-0.29332c0.21663,-0.02026 0.43242,0.04641 0.59988,0.18532M18.988,5.775c0.16746,-0.13891 0.38325,-0.20558 0.59988,-0.18532c0.21663,0.02026 0.41632,0.12577 0.55512,0.29332c0.44281,0.53021 0.82517,1.10811 1.14,1.723c0.09879,0.19349 0.11635,0.41839 0.04877,0.62487c-0.06757,0.20648 -0.2147,0.37748 -0.40877,0.47513c-0.40347,0.2049 -0.89665,0.04423 -1.102,-0.359c-0.2598,-0.50698 -0.57507,-0.98356 -0.94,-1.421c-0.13874,-0.16651 -0.20545,-0.38142 -0.18537,-0.59723c0.02008,-0.2158 0.12529,-0.41472 0.29237,-0.55277M21.278,9.86c0.44881,-0.05286 0.85579,0.26735 0.91,0.716c0.04133,0.34067 0.062,0.68633 0.062,1.037c0.00062,0.37239 -0.02847,0.74424 -0.087,1.112c-0.0736,0.44424 -0.49166,0.74601 -0.93648,0.67599c-0.44482,-0.07002 -0.74995,-0.48563 -0.68352,-0.93099c0.04466,-0.28348 0.06706,-0.57002 0.067,-0.857c0,-0.28667 -0.01667,-0.56833 -0.05,-0.845c-0.05163,-0.44877 0.26942,-0.85477 0.718,-0.908M2.722,9.86c0.45,0.054 0.771,0.46 0.718,0.908c-0.07178,0.60795 -0.06573,1.22258 0.018,1.829c0.06186,0.44873 -0.25177,0.86264 -0.7005,0.9245c-0.44873,0.06186 -0.86264,-0.25177 -0.9245,-0.7005c-0.10315,-0.74432 -0.11055,-1.4988 -0.022,-2.245c0.0542,-0.44909 0.46183,-0.76946 0.911,-0.716M20.714,14.65c0.377,0.248 0.48,0.755 0.23,1.132c-0.40161,0.59969 -0.86957,1.15219 -1.395,1.647c-0.15774,0.14998 -0.36863,0.23109 -0.58622,0.22546c-0.21758,-0.00563 -0.424,-0.09753 -0.57378,-0.25546c-0.14968,-0.15689 -0.23066,-0.36697 -0.22503,-0.58373c0.00563,-0.21677 0.09741,-0.42235 0.25503,-0.57127c0.43585,-0.41025 0.82428,-0.86811 1.158,-1.365c0.25033,-0.377 0.75874,-0.47993 1.136,-0.23M3.325,15.09c0.38717,-0.23459 0.8912,-0.11104 1.126,0.276c0.172,0.282 0.362,0.55333 0.57,0.814c0.1355,0.16927 0.19796,0.38557 0.17356,0.60101c-0.0244,0.21545 -0.13364,0.4123 -0.30356,0.54699c-0.35405,0.28208 -0.86971,0.22389 -1.152,-0.13c-0.2517,-0.31258 -0.48222,-0.64165 -0.69,-0.985c-0.11278,-0.1854 -0.14707,-0.40809 -0.09527,-0.61883c0.05179,-0.21074 0.1854,-0.39217 0.37127,-0.50417M17.292,18.168c0.10186,0.19154 0.12325,0.41576 0.05945,0.6231c-0.0638,0.20735 -0.20754,0.38075 -0.39945,0.4819c-0.62266,0.3301 -1.27113,0.60902 -1.939,0.834c-0.42719,0.1458 -0.8917,-0.08231 -1.0375,-0.5095c-0.1458,-0.42719 0.08231,-0.8917 0.5095,-1.0375c0.59,-0.2 1.16,-0.445 1.698,-0.73c0.19199,-0.1025 0.41686,-0.12447 0.62506,-0.06108c0.2082,0.0634 0.38266,0.20697 0.48494,0.39908M5.705,18.748c0.42328,0.15777 0.63925,0.62815 0.483,1.052c-0.04952,0.13017 -0.10355,0.25859 -0.162,0.385c0.40172,0.08106 0.68146,0.44689 0.65441,0.85582c-0.02704,0.40893 -0.35252,0.73473 -0.76141,0.76218c-0.49009,0.03073 -0.98211,0.00117 -1.465,-0.088c-0.2889,-0.04974 -0.52883,-0.25081 -0.62833,-0.52656c-0.0995,-0.27575 -0.04324,-0.58369 0.14733,-0.80644c0.058,-0.06733 0.11367,-0.13733 0.167,-0.21c0.08655,-0.11888 0.20419,-0.21161 0.34,-0.268c-0.01677,-0.14555 0.00675,-0.29291 0.068,-0.426c0.03667,-0.08133 0.071,-0.164 0.103,-0.248c0.15857,-0.42357 0.63014,-0.63877 1.054,-0.481M12.664,19.876c0.03691,0.45009 -0.29706,0.84531 -0.747,0.884c-0.35248,0.03095 -0.70616,0.0463 -1.06,0.046c-0.402,0 -0.77,0.04 -1.122,0.105c-0.44376,0.08201 -0.86999,-0.21124 -0.952,-0.655c-0.08201,-0.44376 0.21124,-0.86999 0.655,-0.952c0.436,-0.08 0.904,-0.132 1.418,-0.132c0.30667,0 0.61333,-0.01333 0.92,-0.04c0.45052,-0.03929 0.8478,0.29356 0.888,0.744" fill="#62757e" fill-rule="nonzero"></path></g>
  </g>
  <g id="Regular-M" transform="matrix(5 0 0 5 1389.82 1030)">
    <defs><clipPath id="clip-1"><rect x="0" y="0" width="24" height="24" fill="none" fill-rule="nonzero"></rect></clipPath></defs>
<g clip-path="url(#clip-1)" fill="none" fill-rule="none" stroke="none" stroke-width="1" stroke-linecap="butt" stroke-linejoin="miter" stroke-miterlimit="10" stroke-dasharray="" stroke-dashoffset="0" font-family="none" font-weight="none" font-size="none" text-anchor="none" style="mix-blend-mode: normal"><path d="M12,3.818c-0.29467,0 -0.585,0.01333 -0.871,0.04c-0.29907,0.04294 -0.59746,-0.08247 -0.77605,-0.32617c-0.17859,-0.2437 -0.20831,-0.56601 -0.07728,-0.83826c0.13103,-0.27225 0.40146,-0.4501 0.70334,-0.46257c0.67891,-0.0619 1.36203,-0.06223 2.041,-0.001c0.30212,0.01196 0.573,0.18959 0.70438,0.4619c0.13138,0.27231 0.10184,0.59489 -0.07682,0.83881c-0.17866,0.24392 -0.4773,0.3694 -0.77656,0.32628c-0.28961,-0.02599 -0.58022,-0.03934 -0.871,-0.04M14.938,3.391c0.16575,-0.42133 0.64161,-0.6286 1.063,-0.463c0.645,0.252 1.258,0.563 1.828,0.926c0.18343,0.11608 0.31297,0.30054 0.35991,0.51248c0.04693,0.21194 0.00737,0.43385 -0.10991,0.61652c-0.11734,0.18316 -0.30264,0.31219 -0.51513,0.3587c-0.21249,0.04651 -0.43475,0.00669 -0.61787,-0.1107c-0.48807,-0.30926 -1.00479,-0.5708 -1.543,-0.781c-0.20266,-0.07836 -0.36569,-0.23431 -0.45298,-0.43328c-0.08729,-0.19897 -0.09161,-0.42454 -0.01202,-0.62672M9.062,3.39c0.07928,0.20206 0.07479,0.42737 -0.01248,0.62611c-0.08726,0.19874 -0.25011,0.35452 -0.45252,0.43289c-0.53821,0.2102 -1.05493,0.47174 -1.543,0.781c-0.38114,0.24377 -0.8877,0.1328 -1.132,-0.248c-0.11737,-0.18255 -0.15708,-0.40437 -0.11034,-0.61629c0.04674,-0.21193 0.17608,-0.39646 0.35934,-0.51271c0.57,-0.363 1.183,-0.674 1.828,-0.926c0.42139,-0.1656 0.89725,0.04167 1.063,0.463M5.012,5.775c0.16723,0.13791 0.27263,0.33676 0.2929,0.55256c0.02027,0.21581 -0.04627,0.4308 -0.1849,0.59744c-0.365,0.43775 -0.68026,0.91467 -0.94,1.422c-0.20573,0.40344 -0.69956,0.56372 -1.103,0.358c-0.19381,-0.09765 -0.34074,-0.26848 -0.4083,-0.47472c-0.06756,-0.20624 -0.05018,-0.43089 0.0483,-0.62428c0.31483,-0.61489 0.69719,-1.19279 1.14,-1.723c0.1388,-0.16755 0.3385,-0.27306 0.55512,-0.29332c0.21663,-0.02026 0.43242,0.04641 0.59988,0.18532M18.988,5.775c0.16746,-0.13891 0.38325,-0.20558 0.59988,-0.18532c0.21663,0.02026 0.41632,0.12577 0.55512,0.29332c0.44281,0.53021 0.82517,1.10811 1.14,1.723c0.09879,0.19349 0.11635,0.41839 0.04877,0.62487c-0.06757,0.20648 -0.2147,0.37748 -0.40877,0.47513c-0.40347,0.2049 -0.89665,0.04423 -1.102,-0.359c-0.2598,-0.50698 -0.57507,-0.98356 -0.94,-1.421c-0.13874,-0.16651 -0.20545,-0.38142 -0.18537,-0.59723c0.02008,-0.2158 0.12529,-0.41472 0.29237,-0.55277M21.278,9.86c0.44881,-0.05286 0.85579,0.26735 0.91,0.716c0.04133,0.34067 0.062,0.68633 0.062,1.037c0.00062,0.37239 -0.02847,0.74424 -0.087,1.112c-0.0736,0.44424 -0.49166,0.74601 -0.93648,0.67599c-0.44482,-0.07002 -0.74995,-0.48563 -0.68352,-0.93099c0.04466,-0.28348 0.06706,-0.57002 0.067,-0.857c0,-0.28667 -0.01667,-0.56833 -0.05,-0.845c-0.05163,-0.44877 0.26942,-0.85477 0.718,-0.908M2.722,9.86c0.45,0.054 0.771,0.46 0.718,0.908c-0.07178,0.60795 -0.06573,1.22258 0.018,1.829c0.06186,0.44873 -0.25177,0.86264 -0.7005,0.9245c-0.44873,0.06186 -0.86264,-0.25177 -0.9245,-0.7005c-0.10315,-0.74432 -0.11055,-1.4988 -0.022,-2.245c0.0542,-0.44909 0.46183,-0.76946 0.911,-0.716M20.714,14.65c0.377,0.248 0.48,0.755 0.23,1.132c-0.40161,0.59969 -0.86957,1.15219 -1.395,1.647c-0.15774,0.14998 -0.36863,0.23109 -0.58622,0.22546c-0.21758,-0.00563 -0.424,-0.09753 -0.57378,-0.25546c-0.14968,-0.15689 -0.23066,-0.36697 -0.22503,-0.58373c0.00563,-0.21677 0.09741,-0.42235 0.25503,-0.57127c0.43585,-0.41025 0.82428,-0.86811 1.158,-1.365c0.25033,-0.377 0.75874,-0.47993 1.136,-0.23M3.325,15.09c0.38717,-0.23459 0.8912,-0.11104 1.126,0.276c0.172,0.282 0.362,0.55333 0.57,0.814c0.1355,0.16927 0.19796,0.38557 0.17356,0.60101c-0.0244,0.21545 -0.13364,0.4123 -0.30356,0.54699c-0.35405,0.28208 -0.86971,0.22389 -1.152,-0.13c-0.2517,-0.31258 -0.48222,-0.64165 -0.69,-0.985c-0.11278,-0.1854 -0.14707,-0.40809 -0.09527,-0.61883c0.05179,-0.21074 0.1854,-0.39217 0.37127,-0.50417M17.292,18.168c0.10186,0.19154 0.12325,0.41576 0.05945,0.6231c-0.0638,0.20735 -0.20754,0.38075 -0.39945,0.4819c-0.62266,0.3301 -1.27113,0.60902 -1.939,0.834c-0.42719,0.1458 -0.8917,-0.08231 -1.0375,-0.5095c-0.1458,-0.42719 0.08231,-0.8917 0.5095,-1.0375c0.59,-0.2 1.16,-0.445 1.698,-0.73c0.19199,-0.1025 0.41686,-0.12447 0.62506,-0.06108c0.2082,0.0634 0.38266,0.20697 0.48494,0.39908M5.705,18.748c0.42328,0.15777 0.63925,0.62815 0.483,1.052c-0.04952,0.13017 -0.10355,0.25859 -0.162,0.385c0.40172,0.08106 0.68146,0.44689 0.65441,0.85582c-0.02704,0.40893 -0.35252,0.73473 -0.76141,0.76218c-0.49009,0.03073 -0.98211,0.00117 -1.465,-0.088c-0.2889,-0.04974 -0.52883,-0.25081 -0.62833,-0.52656c-0.0995,-0.27575 -0.04324,-0.58369 0.14733,-0.80644c0.058,-0.06733 0.11367,-0.13733 0.167,-0.21c0.08655,-0.11888 0.20419,-0.21161 0.34,-0.268c-0.01677,-0.14555 0.00675,-0.29291 0.068,-0.426c0.03667,-0.08133 0.071,-0.164 0.103,-0.248c0.15857,-0.42357 0.63014,-0.63877 1.054,-0.481M12.664,19.876c0.03691,0.45009 -0.29706,0.84531 -0.747,0.884c-0.35248,0.03095 -0.70616,0.0463 -1.06,0.046c-0.402,0 -0.77,0.04 -1.122,0.105c-0.44376,0.08201 -0.86999,-0.21124 -0.952,-0.655c-0.08201,-0.44376 0.21124,-0.86999 0.655,-0.952c0.436,-0.08 0.904,-0.132 1.418,-0.132c0.30667,0 0.61333,-0.01333 0.92,-0.04c0.45052,-0.03929 0.8478,0.29356 0.888,0.744" fill="#62757e" fill-rule="nonzero"></path></g>
  </g>
  <g id="Regular-S" transform="matrix(3.915 0 0 3.915 1402.75 614)">
    <defs><clipPath id="clip-1"><rect x="0" y="0" width="24" height="24" fill="none" fill-rule="nonzero"></rect></clipPath></defs>
<g clip-path="url(#clip-1)" fill="none" fill-rule="none" stroke="none" stroke-width="1" stroke-linecap="butt" stroke-linejoin="miter" stroke-miterlimit="10" stroke-dasharray="" stroke-dashoffset="0" font-family="none" font-weight="none" font-size="none" text-anchor="none" style="mix-blend-mode: normal"><path d="M12,3.818c-0.29467,0 -0.585,0.01333 -0.871,0.04c-0.29907,0.04294 -0.59746,-0.08247 -0.77605,-0.32617c-0.17859,-0.2437 -0.20831,-0.56601 -0.07728,-0.83826c0.13103,-0.27225 0.40146,-0.4501 0.70334,-0.46257c0.67891,-0.0619 1.36203,-0.06223 2.041,-0.001c0.30212,0.01196 0.573,0.18959 0.70438,0.4619c0.13138,0.27231 0.10184,0.59489 -0.07682,0.83881c-0.17866,0.24392 -0.4773,0.3694 -0.77656,0.32628c-0.28961,-0.02599 -0.58022,-0.03934 -0.871,-0.04M14.938,3.391c0.16575,-0.42133 0.64161,-0.6286 1.063,-0.463c0.645,0.252 1.258,0.563 1.828,0.926c0.18343,0.11608 0.31297,0.30054 0.35991,0.51248c0.04693,0.21194 0.00737,0.43385 -0.10991,0.61652c-0.11734,0.18316 -0.30264,0.31219 -0.51513,0.3587c-0.21249,0.04651 -0.43475,0.00669 -0.61787,-0.1107c-0.48807,-0.30926 -1.00479,-0.5708 -1.543,-0.781c-0.20266,-0.07836 -0.36569,-0.23431 -0.45298,-0.43328c-0.08729,-0.19897 -0.09161,-0.42454 -0.01202,-0.62672M9.062,3.39c0.07928,0.20206 0.07479,0.42737 -0.01248,0.62611c-0.08726,0.19874 -0.25011,0.35452 -0.45252,0.43289c-0.53821,0.2102 -1.05493,0.47174 -1.543,0.781c-0.38114,0.24377 -0.8877,0.1328 -1.132,-0.248c-0.11737,-0.18255 -0.15708,-0.40437 -0.11034,-0.61629c0.04674,-0.21193 0.17608,-0.39646 0.35934,-0.51271c0.57,-0.363 1.183,-0.674 1.828,-0.926c0.42139,-0.1656 0.89725,0.04167 1.063,0.463M5.012,5.775c0.16723,0.13791 0.27263,0.33676 0.2929,0.55256c0.02027,0.21581 -0.04627,0.4308 -0.1849,0.59744c-0.365,0.43775 -0.68026,0.91467 -0.94,1.422c-0.20573,0.40344 -0.69956,0.56372 -1.103,0.358c-0.19381,-0.09765 -0.34074,-0.26848 -0.4083,-0.47472c-0.06756,-0.20624 -0.05018,-0.43089 0.0483,-0.62428c0.31483,-0.61489 0.69719,-1.19279 1.14,-1.723c0.1388,-0.16755 0.3385,-0.27306 0.55512,-0.29332c0.21663,-0.02026 0.43242,0.04641 0.59988,0.18532M18.988,5.775c0.16746,-0.13891 0.38325,-0.20558 0.59988,-0.18532c0.21663,0.02026 0.41632,0.12577 0.55512,0.29332c0.44281,0.53021 0.82517,1.10811 1.14,1.723c0.09879,0.19349 0.11635,0.41839 0.04877,0.62487c-0.06757,0.20648 -0.2147,0.37748 -0.40877,0.47513c-0.40347,0.2049 -0.89665,0.04423 -1.102,-0.359c-0.2598,-0.50698 -0.57507,-0.98356 -0.94,-1.421c-0.13874,-0.16651 -0.20545,-0.38142 -0.18537,-0.59723c0.02008,-0.2158 0.12529,-0.41472 0.29237,-0.55277M21.278,9.86c0.44881,-0.05286 0.85579,0.26735 0.91,0.716c0.04133,0.34067 0.062,0.68633 0.062,1.037c0.00062,0.37239 -0.02847,0.74424 -0.087,1.112c-0.0736,0.44424 -0.49166,0.74601 -0.93648,0.67599c-0.44482,-0.07002 -0.74995,-0.48563 -0.68352,-0.93099c0.04466,-0.28348 0.06706,-0.57002 0.067,-0.857c0,-0.28667 -0.01667,-0.56833 -0.05,-0.845c-0.05163,-0.44877 0.26942,-0.85477 0.718,-0.908M2.722,9.86c0.45,0.054 0.771,0.46 0.718,0.908c-0.07178,0.60795 -0.06573,1.22258 0.018,1.829c0.06186,0.44873 -0.25177,0.86264 -0.7005,0.9245c-0.44873,0.06186 -0.86264,-0.25177 -0.9245,-0.7005c-0.10315,-0.74432 -0.11055,-1.4988 -0.022,-2.245c0.0542,-0.44909 0.46183,-0.76946 0.911,-0.716M20.714,14.65c0.377,0.248 0.48,0.755 0.23,1.132c-0.40161,0.59969 -0.86957,1.15219 -1.395,1.647c-0.15774,0.14998 -0.36863,0.23109 -0.58622,0.22546c-0.21758,-0.00563 -0.424,-0.09753 -0.57378,-0.25546c-0.14968,-0.15689 -0.23066,-0.36697 -0.22503,-0.58373c0.00563,-0.21677 0.09741,-0.42235 0.25503,-0.57127c0.43585,-0.41025 0.82428,-0.86811 1.158,-1.365c0.25033,-0.377 0.75874,-0.47993 1.136,-0.23M3.325,15.09c0.38717,-0.23459 0.8912,-0.11104 1.126,0.276c0.172,0.282 0.362,0.55333 0.57,0.814c0.1355,0.16927 0.19796,0.38557 0.17356,0.60101c-0.0244,0.21545 -0.13364,0.4123 -0.30356,0.54699c-0.35405,0.28208 -0.86971,0.22389 -1.152,-0.13c-0.2517,-0.31258 -0.48222,-0.64165 -0.69,-0.985c-0.11278,-0.1854 -0.14707,-0.40809 -0.09527,-0.61883c0.05179,-0.21074 0.1854,-0.39217 0.37127,-0.50417M17.292,18.168c0.10186,0.19154 0.12325,0.41576 0.05945,0.6231c-0.0638,0.20735 -0.20754,0.38075 -0.39945,0.4819c-0.62266,0.3301 -1.27113,0.60902 -1.939,0.834c-0.42719,0.1458 -0.8917,-0.08231 -1.0375,-0.5095c-0.1458,-0.42719 0.08231,-0.8917 0.5095,-1.0375c0.59,-0.2 1.16,-0.445 1.698,-0.73c0.19199,-0.1025 0.41686,-0.12447 0.62506,-0.06108c0.2082,0.0634 0.38266,0.20697 0.48494,0.39908M5.705,18.748c0.42328,0.15777 0.63925,0.62815 0.483,1.052c-0.04952,0.13017 -0.10355,0.25859 -0.162,0.385c0.40172,0.08106 0.68146,0.44689 0.65441,0.85582c-0.02704,0.40893 -0.35252,0.73473 -0.76141,0.76218c-0.49009,0.03073 -0.98211,0.00117 -1.465,-0.088c-0.2889,-0.04974 -0.52883,-0.25081 -0.62833,-0.52656c-0.0995,-0.27575 -0.04324,-0.58369 0.14733,-0.80644c0.058,-0.06733 0.11367,-0.13733 0.167,-0.21c0.08655,-0.11888 0.20419,-0.21161 0.34,-0.268c-0.01677,-0.14555 0.00675,-0.29291 0.068,-0.426c0.03667,-0.08133 0.071,-0.164 0.103,-0.248c0.15857,-0.42357 0.63014,-0.63877 1.054,-0.481M12.664,19.876c0.03691,0.45009 -0.29706,0.84531 -0.747,0.884c-0.35248,0.03095 -0.70616,0.0463 -1.06,0.046c-0.402,0 -0.77,0.04 -1.122,0.105c-0.44376,0.08201 -0.86999,-0.21124 -0.952,-0.655c-0.08201,-0.44376 0.21124,-0.86999 0.655,-0.952c0.436,-0.08 0.904,-0.132 1.418,-0.132c0.30667,0 0.61333,-0.01333 0.92,-0.04c0.45052,-0.03929 0.8478,0.29356 0.888,0.744" fill="#62757e" fill-rule="nonzero"></path></g>
  </g>
 </g>
</svg>
