<?xml version="1.0" encoding="UTF-8"?>
<!--Generator: Apple Native CoreSVG 175.5-->
<!DOCTYPE svg
PUBLIC "-//W3C//DTD SVG 1.1//EN"
       "http://www.w3.org/Graphics/SVG/1.1/DTD/svg11.dtd">
<svg version="1.1" xmlns="http://www.w3.org/2000/svg" xmlns:xlink="http://www.w3.org/1999/xlink" width="3300" height="2200">
 <!--glyph: "", point size: 100.0, font version: "18.0d12e2", template writer version: "101"-->
 <g id="Notes">
  <rect height="2200" id="artboard" style="fill:white;opacity:1" width="3300" x="0" y="0"/>
  <line style="fill:none;stroke:black;opacity:1;stroke-width:0.5;" x1="263" x2="3036" y1="292" y2="292"/>
  <text style="stroke:none;fill:black;font-family:sans-serif;font-size:13;font-weight:bold;" transform="matrix(1 0 0 1 263 322)">Weight/Scale Variations</text>
  <text style="stroke:none;fill:black;font-family:sans-serif;font-size:13;text-anchor:middle;" transform="matrix(1 0 0 1 559.711 322)">Ultralight</text>
  <text style="stroke:none;fill:black;font-family:sans-serif;font-size:13;text-anchor:middle;" transform="matrix(1 0 0 1 856.422 322)">Thin</text>
  <text style="stroke:none;fill:black;font-family:sans-serif;font-size:13;text-anchor:middle;" transform="matrix(1 0 0 1 1153.13 322)">Light</text>
  <text style="stroke:none;fill:black;font-family:sans-serif;font-size:13;text-anchor:middle;" transform="matrix(1 0 0 1 1449.84 322)">Regular</text>
  <text style="stroke:none;fill:black;font-family:sans-serif;font-size:13;text-anchor:middle;" transform="matrix(1 0 0 1 1746.56 322)">Medium</text>
  <text style="stroke:none;fill:black;font-family:sans-serif;font-size:13;text-anchor:middle;" transform="matrix(1 0 0 1 2043.27 322)">Semibold</text>
  <text style="stroke:none;fill:black;font-family:sans-serif;font-size:13;text-anchor:middle;" transform="matrix(1 0 0 1 2339.98 322)">Bold</text>
  <text style="stroke:none;fill:black;font-family:sans-serif;font-size:13;text-anchor:middle;" transform="matrix(1 0 0 1 2636.69 322)">Heavy</text>
  <text style="stroke:none;fill:black;font-family:sans-serif;font-size:13;text-anchor:middle;" transform="matrix(1 0 0 1 2933.4 322)">Black</text>
  <line style="fill:none;stroke:black;opacity:1;stroke-width:0.5;" x1="263" x2="3036" y1="1903" y2="1903"/>
  <g transform="matrix(1 0 0 1 263 1933)">
   <path d="M9.24805 0.830078C13.5547 0.830078 17.1387-2.74414 17.1387-7.05078C17.1387-11.3574 13.5449-14.9316 9.23828-14.9316C4.94141-14.9316 1.36719-11.3574 1.36719-7.05078C1.36719-2.74414 4.95117 0.830078 9.24805 0.830078ZM9.24805-0.654297C5.70312-0.654297 2.87109-3.49609 2.87109-7.05078C2.87109-10.6055 5.69336-13.4473 9.23828-13.4473C12.793-13.4473 15.6445-10.6055 15.6445-7.05078C15.6445-3.49609 12.8027-0.654297 9.24805-0.654297ZM5.6543-7.05078C5.6543-6.62109 5.95703-6.32812 6.40625-6.32812L8.50586-6.32812L8.50586-4.20898C8.50586-3.76953 8.79883-3.4668 9.22852-3.4668C9.67773-3.4668 9.9707-3.76953 9.9707-4.20898L9.9707-6.32812L12.0898-6.32812C12.5293-6.32812 12.832-6.62109 12.832-7.05078C12.832-7.49023 12.5293-7.79297 12.0898-7.79297L9.9707-7.79297L9.9707-9.90234C9.9707-10.3516 9.67773-10.6543 9.22852-10.6543C8.79883-10.6543 8.50586-10.3516 8.50586-9.90234L8.50586-7.79297L6.40625-7.79297C5.95703-7.79297 5.6543-7.49023 5.6543-7.05078Z"/>
  </g>
  <g transform="matrix(1 0 0 1 281.867 1933)">
   <path d="M11.709 2.91016C17.1582 2.91016 21.6699-1.61133 21.6699-7.05078C21.6699-12.5 17.1484-17.0117 11.6992-17.0117C6.25977-17.0117 1.74805-12.5 1.74805-7.05078C1.74805-1.61133 6.26953 2.91016 11.709 2.91016ZM11.709 1.25C7.09961 1.25 3.41797-2.44141 3.41797-7.05078C3.41797-11.6602 7.08984-15.3516 11.6992-15.3516C16.3086-15.3516 20.0098-11.6602 20.0098-7.05078C20.0098-2.44141 16.3184 1.25 11.709 1.25ZM7.17773-7.05078C7.17773-6.57227 7.50977-6.25 8.00781-6.25L10.8789-6.25L10.8789-3.36914C10.8789-2.88086 11.2109-2.53906 11.6895-2.53906C12.1777-2.53906 12.5195-2.87109 12.5195-3.36914L12.5195-6.25L15.4004-6.25C15.8887-6.25 16.2305-6.57227 16.2305-7.05078C16.2305-7.53906 15.8887-7.88086 15.4004-7.88086L12.5195-7.88086L12.5195-10.752C12.5195-11.25 12.1777-11.5918 11.6895-11.5918C11.2109-11.5918 10.8789-11.25 10.8789-10.752L10.8789-7.88086L8.00781-7.88086C7.50977-7.88086 7.17773-7.53906 7.17773-7.05078Z"/>
  </g>
  <g transform="matrix(1 0 0 1 305.646 1933)">
   <path d="M14.9707 5.66406C21.9336 5.66406 27.6953-0.0976562 27.6953-7.05078C27.6953-14.0137 21.9238-19.7754 14.9609-19.7754C8.00781-19.7754 2.25586-14.0137 2.25586-7.05078C2.25586-0.0976562 8.01758 5.66406 14.9707 5.66406ZM14.9707 3.84766C8.93555 3.84766 4.08203-1.01562 4.08203-7.05078C4.08203-13.0957 8.92578-17.9492 14.9609-17.9492C21.0059-17.9492 25.8691-13.0957 25.8691-7.05078C25.8691-1.01562 21.0156 3.84766 14.9707 3.84766ZM9.19922-7.05078C9.19922-6.5332 9.57031-6.17188 10.1172-6.17188L14.0625-6.17188L14.0625-2.2168C14.0625-1.67969 14.4336-1.29883 14.9512-1.29883C15.4883-1.29883 15.8594-1.66992 15.8594-2.2168L15.8594-6.17188L19.8145-6.17188C20.3516-6.17188 20.7324-6.5332 20.7324-7.05078C20.7324-7.59766 20.3613-7.96875 19.8145-7.96875L15.8594-7.96875L15.8594-11.9141C15.8594-12.4609 15.4883-12.8418 14.9512-12.8418C14.4336-12.8418 14.0625-12.4609 14.0625-11.9141L14.0625-7.96875L10.1172-7.96875C9.57031-7.96875 9.19922-7.59766 9.19922-7.05078Z"/>
  </g>
  <text style="stroke:none;fill:black;font-family:sans-serif;font-size:13;font-weight:bold;" transform="matrix(1 0 0 1 263 1953)">Design Variations</text>
  <text style="stroke:none;fill:black;font-family:sans-serif;font-size:13;" transform="matrix(1 0 0 1 263 1971)">Symbols are supported in up to nine weights and three scales.</text>
  <text style="stroke:none;fill:black;font-family:sans-serif;font-size:13;" transform="matrix(1 0 0 1 263 1989)">For optimal layout with text and other symbols, vertically align</text>
  <text style="stroke:none;fill:black;font-family:sans-serif;font-size:13;" transform="matrix(1 0 0 1 263 2007)">symbols with the adjacent text.</text>
  <line style="fill:none;stroke:#00AEEF;stroke-width:0.5;opacity:1.0;" x1="776" x2="776" y1="1919" y2="1933"/>
  <g transform="matrix(1 0 0 1 776 1933)">
   <path d="M3.31055 0.15625C3.82812 0.15625 4.08203-0.0390625 4.26758-0.585938L5.52734-4.0332L11.2891-4.0332L12.5488-0.585938C12.7344-0.0390625 12.9883 0.15625 13.4961 0.15625C14.0137 0.15625 14.3457-0.15625 14.3457-0.644531C14.3457-0.810547 14.3164-0.966797 14.2383-1.17188L9.6582-13.3691C9.43359-13.9648 9.0332-14.2676 8.4082-14.2676C7.80273-14.2676 7.39258-13.9746 7.17773-13.3789L2.59766-1.16211C2.51953-0.957031 2.49023-0.800781 2.49023-0.634766C2.49023-0.146484 2.80273 0.15625 3.31055 0.15625ZM6.00586-5.51758L8.37891-12.0898L8.42773-12.0898L10.8008-5.51758Z"/>
  </g>
  <line style="fill:none;stroke:#00AEEF;stroke-width:0.5;opacity:1.0;" x1="793.197" x2="793.197" y1="1919" y2="1933"/>
  <text style="stroke:none;fill:black;font-family:sans-serif;font-size:13;font-weight:bold;" transform="matrix(1 0 0 1 776 1953)">Margins</text>
  <text style="stroke:none;fill:black;font-family:sans-serif;font-size:13;" transform="matrix(1 0 0 1 776 1971)">Leading and trailing margins on the left and right side of each symbol</text>
  <text style="stroke:none;fill:black;font-family:sans-serif;font-size:13;" transform="matrix(1 0 0 1 776 1989)">can be adjusted by modifying the x-location of the margin guidelines.</text>
  <text style="stroke:none;fill:black;font-family:sans-serif;font-size:13;" transform="matrix(1 0 0 1 776 2007)">Modifications are automatically applied proportionally to all</text>
  <text style="stroke:none;fill:black;font-family:sans-serif;font-size:13;" transform="matrix(1 0 0 1 776 2025)">scales and weights.</text>
  <g transform="matrix(1 0 0 1 1289 1933)">
   <path d="M2.8418 1.86523L4.54102 3.57422C5.40039 4.44336 6.38672 4.38477 7.31445 3.35938L18.0078-8.42773L17.041-9.4043L6.42578 2.27539C6.07422 2.67578 5.74219 2.77344 5.27344 2.30469L4.10156 1.14258C3.63281 0.683594 3.74023 0.341797 4.14062-0.0195312L15.6152-10.8203L14.6387-11.7871L3.04688-0.898438C2.06055 0.0195312 1.98242 0.996094 2.8418 1.86523ZM9.25781-16.3281C8.83789-15.918 8.80859-15.3418 9.04297-14.9512C9.27734-14.5898 9.73633-14.3555 10.3809-14.5215C11.8457-14.8633 13.3691-14.9219 14.7949-13.9844L14.209-12.5293C13.8672-11.6992 14.043-11.1133 14.5801-10.5664L16.875-8.25195C17.3633-7.76367 17.7734-7.74414 18.3398-7.8418L19.4043-8.03711L20.0684-7.36328L20.0293-6.80664C19.9902-6.30859 20.1172-5.92773 20.6055-5.44922L21.3672-4.70703C21.8457-4.22852 22.4609-4.19922 22.9297-4.66797L25.8398-7.58789C26.3086-8.05664 26.2891-8.65234 25.8105-9.13086L25.0391-9.89258C24.5605-10.3711 24.1895-10.5273 23.7109-10.4883L23.1348-10.4395L22.4902-11.0742L22.7344-12.1973C22.8613-12.7637 22.7051-13.2031 22.1191-13.7891L19.9219-15.9766C16.582-19.2969 12.1484-19.2188 9.25781-16.3281ZM10.752-15.957C13.1836-17.7344 16.4746-17.4316 18.7012-15.2051L21.1328-12.793C21.3672-12.5586 21.4062-12.373 21.3379-12.0312L21.0156-10.5469L22.5195-9.0625L23.5059-9.12109C23.7598-9.13086 23.8379-9.11133 24.0332-8.91602L24.6094-8.33984L22.168-5.89844L21.5918-6.47461C21.3965-6.66992 21.3672-6.74805 21.377-7.01172L21.4453-7.98828L19.9512-9.47266L18.4277-9.21875C18.1055-9.15039 17.959-9.17969 17.7148-9.41406L15.7129-11.416C15.459-11.6504 15.4297-11.8164 15.5859-12.1875L16.4648-14.2773C14.9023-15.7324 12.8711-16.3574 10.8398-15.7617C10.6836-15.7227 10.625-15.8496 10.752-15.957Z"/>
  </g>
  <text style="stroke:none;fill:black;font-family:sans-serif;font-size:13;font-weight:bold;" transform="matrix(1 0 0 1 1289 1953)">Exporting</text>
  <text style="stroke:none;fill:black;font-family:sans-serif;font-size:13;" transform="matrix(1 0 0 1 1289 1971)">Symbols should be outlined when exporting to ensure the</text>
  <text style="stroke:none;fill:black;font-family:sans-serif;font-size:13;" transform="matrix(1 0 0 1 1289 1989)">design is preserved when submitting to Xcode.</text>
  <text id="template-version" style="stroke:none;fill:black;font-family:sans-serif;font-size:13;text-anchor:end;" transform="matrix(1 0 0 1 3036 1933)">Template v.4.0</text>
  <text style="stroke:none;fill:black;font-family:sans-serif;font-size:13;text-anchor:end;" transform="matrix(1 0 0 1 3036 1951)">Requires Xcode 14 or greater</text>
  <text id="descriptive-name" style="stroke:none;fill:black;font-family:sans-serif;font-size:13;text-anchor:end;" transform="matrix(1 0 0 1 3036 1969)">Generated from brave.zzz</text>
  <text style="stroke:none;fill:black;font-family:sans-serif;font-size:13;text-anchor:end;" transform="matrix(1 0 0 1 3036 1987)">Typeset at 100 points</text>
  <text style="stroke:none;fill:black;font-family:sans-serif;font-size:13;" transform="matrix(1 0 0 1 263 726)">Small</text>
  <text style="stroke:none;fill:black;font-family:sans-serif;font-size:13;" transform="matrix(1 0 0 1 263 1156)">Medium</text>
  <text style="stroke:none;fill:black;font-family:sans-serif;font-size:13;" transform="matrix(1 0 0 1 263 1586)">Large</text>
 </g>
 <g id="Guides">
  <g id="H-reference" style="fill:#27AAE1;stroke:none;" transform="matrix(1 0 0 1 339 696)">
   <path d="M0.993654 0L3.63775 0L29.3281-67.1323L30.0303-67.1323L30.0303-70.459L28.1226-70.459ZM11.6885-24.4799L46.9815-24.4799L46.2315-26.7285L12.4385-26.7285ZM55.1196 0L57.7637 0L30.6382-70.459L29.4326-70.459L29.4326-67.1323Z"/>
  </g>
  <line id="Baseline-S" style="fill:none;stroke:#27AAE1;opacity:1;stroke-width:0.5;" x1="263" x2="3036" y1="696" y2="696"/>
  <line id="Capline-S" style="fill:none;stroke:#27AAE1;opacity:1;stroke-width:0.5;" x1="263" x2="3036" y1="625.541" y2="625.541"/>
  <g id="H-reference" style="fill:#27AAE1;stroke:none;" transform="matrix(1 0 0 1 339 1126)">
   <path d="M0.993654 0L3.63775 0L29.3281-67.1323L30.0303-67.1323L30.0303-70.459L28.1226-70.459ZM11.6885-24.4799L46.9815-24.4799L46.2315-26.7285L12.4385-26.7285ZM55.1196 0L57.7637 0L30.6382-70.459L29.4326-70.459L29.4326-67.1323Z"/>
  </g>
  <line id="Baseline-M" style="fill:none;stroke:#27AAE1;opacity:1;stroke-width:0.5;" x1="263" x2="3036" y1="1126" y2="1126"/>
  <line id="Capline-M" style="fill:none;stroke:#27AAE1;opacity:1;stroke-width:0.5;" x1="263" x2="3036" y1="1055.54" y2="1055.54"/>
  <g id="H-reference" style="fill:#27AAE1;stroke:none;" transform="matrix(1 0 0 1 339 1556)">
   <path d="M0.993654 0L3.63775 0L29.3281-67.1323L30.0303-67.1323L30.0303-70.459L28.1226-70.459ZM11.6885-24.4799L46.9815-24.4799L46.2315-26.7285L12.4385-26.7285ZM55.1196 0L57.7637 0L30.6382-70.459L29.4326-70.459L29.4326-67.1323Z"/>
  </g>
  <line id="Baseline-L" style="fill:none;stroke:#27AAE1;opacity:1;stroke-width:0.5;" x1="263" x2="3036" y1="1556" y2="1556"/>
  <line id="Capline-L" style="fill:none;stroke:#27AAE1;opacity:1;stroke-width:0.5;" x1="263" x2="3036" y1="1485.54" y2="1485.54"/>
  <line id="left-margin-Regular-M" style="fill:none;stroke:#00AEEF;stroke-width:0.5;opacity:1.0;" x1="1389.82" x2="1389.82" y1="1030.79" y2="1150.12"/>
  <line id="right-margin-Regular-M" style="fill:none;stroke:#00AEEF;stroke-width:0.5;opacity:1.0;" x1="1509.87" x2="1509.87" y1="1030.79" y2="1150.12"/>
 </g>
 <g id="Symbols">
  <g id="Regular-L" transform="matrix(6.45 0 0 6.45 1372.2675 1443)">
    <defs><clipPath id="clip-1"><rect x="0" y="0" width="24" height="24" fill="none" fill-rule="nonzero"></rect></clipPath></defs>
<g clip-path="url(#clip-1)" fill="none" fill-rule="none" stroke="none" stroke-width="1" stroke-linecap="butt" stroke-linejoin="miter" stroke-miterlimit="10" stroke-dasharray="" stroke-dashoffset="0" font-family="none" font-weight="none" font-size="none" text-anchor="none" style="mix-blend-mode: normal"><path d="M21.938,5.647l-1.222,3c-0.10211,0.2505 -0.3195,0.43582 -0.583,0.497l-2.64,0.614c0.257,0.445 0.462,0.928 0.64,1.425c0.065,0.001 0.13,-0.005 0.197,0.013l3.056,0.833c0.42803,0.13413 0.6733,0.58278 0.55517,1.01549c-0.11814,0.43271 -0.55737,0.69449 -0.99417,0.59251l-2.359,-0.643c0.052,0.385 0.079,0.776 0.079,1.173c-0.00417,0.78449 -0.15054,1.56173 -0.432,2.294c-0.01292,0.03439 -0.02829,0.06781 -0.046,0.1l-0.438,0.817c-0.2176,0.40538 -0.72262,0.5576 -1.128,0.34c-0.40538,-0.2176 -0.5576,-0.72262 -0.34,-1.128l0.41,-0.767c0.19893,-0.52965 0.30286,-1.09024 0.307,-1.656c0,-2.238 -0.991,-4.306 -2.586,-5.399c-0.062,-0.041 -0.103,-0.099 -0.15,-0.153c-0.35563,0.12848 -0.75301,-0.00287 -0.962,-0.318c-0.12073,-0.18511 -0.16295,-0.4106 -0.11738,-0.62684c0.04557,-0.21625 0.17521,-0.40552 0.36038,-0.52616c0.043,-0.029 0.122,-0.159 0.122,-0.31c0,-0.602 -1.165,-0.667 -1.667,-0.667c-0.502,0 -1.666,0.065 -1.666,0.667c0,0.153 0.07,0.287 0.108,0.312c0.37,0.256 0.489,0.776 0.244,1.153c-0.1518,0.23885 -0.41401,0.38482 -0.697,0.388c-0.085,0 -0.169,-0.043 -0.254,-0.072c-0.046,0.055 -0.088,0.112 -0.15,0.155c-1.595,1.09 -2.585,3.158 -2.585,5.397c0,3.396 4.02,6.166 5,6.166c0.03,0 0.2,-0.007 0.542,-0.147c0.42442,-0.16411 0.90204,0.04228 1.07339,0.46383c0.17135,0.42155 -0.02684,0.90263 -0.44539,1.08117c-0.44,0.178 -0.834,0.269 -1.17,0.269c-1.493,0 -4.818,-2.2 -6.122,-5.29l-1.2,0.278l-1.065,2.807c-0.16292,0.43051 -0.64399,0.64742 -1.0745,0.4845c-0.43051,-0.16292 -0.64742,-0.64399 -0.4845,-1.0745l1.223,-3.223c0.09908,-0.25968 0.32045,-0.45334 0.591,-0.517l1.546,-0.358c-0.0509,-0.3108 -0.07765,-0.62507 -0.08,-0.94c0,-0.397 0.026,-0.788 0.078,-1.173l-2.36,0.643c-0.44404,0.12123 -0.90227,-0.14046 -1.0235,-0.5845c-0.12123,-0.44404 0.14046,-0.90227 0.5845,-1.0235l3.057,-0.833c0.067,-0.02 0.132,-0.013 0.197,-0.014c0.178,-0.497 0.383,-0.979 0.64,-1.424l-2.64,-0.614c-0.26352,-0.06051 -0.48105,-0.24558 -0.583,-0.496l-1.222,-3c-0.17369,-0.42609 0.03091,-0.91231 0.457,-1.086c0.42609,-0.17369 0.91231,0.03091 1.086,0.457l1.06,2.6l2.862,0.666c0.023,0.005 0.04,0.02 0.062,0.028c0.325,-0.34 0.672,-0.656 1.056,-0.918c0.027,-0.018 0.058,-0.022 0.085,-0.037c-0.04179,-0.17154 -0.06294,-0.34745 -0.063,-0.524c0,-0.342 0.095,-1.17 0.922,-1.741c-0.01,-0.032 -0.032,-0.058 -0.038,-0.092c-0.14931,-0.73546 0.03925,-1.4991 0.51373,-2.08053c0.47448,-0.58143 1.18481,-0.91928 1.93527,-0.92047c1.37993,0.00055 2.49845,1.11907 2.499,2.499c0,0.202 -0.027,0.404 -0.077,0.603c0.7255,0.49957 1.06212,1.39882 0.843,2.252c0.03,0.015 0.063,0.02 0.09,0.038c0.383,0.263 0.73,0.58 1.055,0.92c0.022,-0.007 0.04,-0.023 0.063,-0.028l2.861,-0.666l1.06,-2.6c0.17342,-0.42636 0.65964,-0.63142 1.086,-0.458c0.42636,0.17342 0.63142,0.65964 0.458,1.086zM12,3.667c-0.45982,0.00055 -0.83245,0.37318 -0.833,0.833c0,0.022 0.005,0.042 0.007,0.063c0.255,-0.033 0.517,-0.063 0.826,-0.063c0.31,0 0.57,0.03 0.826,0.063c0.001,-0.021 0.007,-0.042 0.007,-0.063c-0.00055,-0.45982 -0.37318,-0.83245 -0.833,-0.833zM13.834,18.167c0.13233,-0.17697 0.32962,-0.29403 0.54836,-0.32536c0.21874,-0.03133 0.44096,0.02565 0.61764,0.15836l2.607,1.956l2.852,-4.565c0.24411,-0.39047 0.75853,-0.50911 1.149,-0.265c0.39047,0.24411 0.50911,0.75853 0.265,1.149l-3.333,5.333c-0.12338,0.19796 -0.32419,0.33504 -0.5535,0.37782c-0.22931,0.04278 -0.46604,-0.01266 -0.6525,-0.15282l-3.334,-2.5c-0.17652,-0.13246 -0.29319,-0.32963 -0.32432,-0.54811c-0.03113,-0.21849 0.02582,-0.44039 0.15832,-0.61689z" fill="#62757e" fill-rule="nonzero"></path></g>
  </g>
  <g id="Regular-M" transform="matrix(5 0 0 5 1389.82 1030)">
    <defs><clipPath id="clip-1"><rect x="0" y="0" width="24" height="24" fill="none" fill-rule="nonzero"></rect></clipPath></defs>
<g clip-path="url(#clip-1)" fill="none" fill-rule="none" stroke="none" stroke-width="1" stroke-linecap="butt" stroke-linejoin="miter" stroke-miterlimit="10" stroke-dasharray="" stroke-dashoffset="0" font-family="none" font-weight="none" font-size="none" text-anchor="none" style="mix-blend-mode: normal"><path d="M21.938,5.647l-1.222,3c-0.10211,0.2505 -0.3195,0.43582 -0.583,0.497l-2.64,0.614c0.257,0.445 0.462,0.928 0.64,1.425c0.065,0.001 0.13,-0.005 0.197,0.013l3.056,0.833c0.42803,0.13413 0.6733,0.58278 0.55517,1.01549c-0.11814,0.43271 -0.55737,0.69449 -0.99417,0.59251l-2.359,-0.643c0.052,0.385 0.079,0.776 0.079,1.173c-0.00417,0.78449 -0.15054,1.56173 -0.432,2.294c-0.01292,0.03439 -0.02829,0.06781 -0.046,0.1l-0.438,0.817c-0.2176,0.40538 -0.72262,0.5576 -1.128,0.34c-0.40538,-0.2176 -0.5576,-0.72262 -0.34,-1.128l0.41,-0.767c0.19893,-0.52965 0.30286,-1.09024 0.307,-1.656c0,-2.238 -0.991,-4.306 -2.586,-5.399c-0.062,-0.041 -0.103,-0.099 -0.15,-0.153c-0.35563,0.12848 -0.75301,-0.00287 -0.962,-0.318c-0.12073,-0.18511 -0.16295,-0.4106 -0.11738,-0.62684c0.04557,-0.21625 0.17521,-0.40552 0.36038,-0.52616c0.043,-0.029 0.122,-0.159 0.122,-0.31c0,-0.602 -1.165,-0.667 -1.667,-0.667c-0.502,0 -1.666,0.065 -1.666,0.667c0,0.153 0.07,0.287 0.108,0.312c0.37,0.256 0.489,0.776 0.244,1.153c-0.1518,0.23885 -0.41401,0.38482 -0.697,0.388c-0.085,0 -0.169,-0.043 -0.254,-0.072c-0.046,0.055 -0.088,0.112 -0.15,0.155c-1.595,1.09 -2.585,3.158 -2.585,5.397c0,3.396 4.02,6.166 5,6.166c0.03,0 0.2,-0.007 0.542,-0.147c0.42442,-0.16411 0.90204,0.04228 1.07339,0.46383c0.17135,0.42155 -0.02684,0.90263 -0.44539,1.08117c-0.44,0.178 -0.834,0.269 -1.17,0.269c-1.493,0 -4.818,-2.2 -6.122,-5.29l-1.2,0.278l-1.065,2.807c-0.16292,0.43051 -0.64399,0.64742 -1.0745,0.4845c-0.43051,-0.16292 -0.64742,-0.64399 -0.4845,-1.0745l1.223,-3.223c0.09908,-0.25968 0.32045,-0.45334 0.591,-0.517l1.546,-0.358c-0.0509,-0.3108 -0.07765,-0.62507 -0.08,-0.94c0,-0.397 0.026,-0.788 0.078,-1.173l-2.36,0.643c-0.44404,0.12123 -0.90227,-0.14046 -1.0235,-0.5845c-0.12123,-0.44404 0.14046,-0.90227 0.5845,-1.0235l3.057,-0.833c0.067,-0.02 0.132,-0.013 0.197,-0.014c0.178,-0.497 0.383,-0.979 0.64,-1.424l-2.64,-0.614c-0.26352,-0.06051 -0.48105,-0.24558 -0.583,-0.496l-1.222,-3c-0.17369,-0.42609 0.03091,-0.91231 0.457,-1.086c0.42609,-0.17369 0.91231,0.03091 1.086,0.457l1.06,2.6l2.862,0.666c0.023,0.005 0.04,0.02 0.062,0.028c0.325,-0.34 0.672,-0.656 1.056,-0.918c0.027,-0.018 0.058,-0.022 0.085,-0.037c-0.04179,-0.17154 -0.06294,-0.34745 -0.063,-0.524c0,-0.342 0.095,-1.17 0.922,-1.741c-0.01,-0.032 -0.032,-0.058 -0.038,-0.092c-0.14931,-0.73546 0.03925,-1.4991 0.51373,-2.08053c0.47448,-0.58143 1.18481,-0.91928 1.93527,-0.92047c1.37993,0.00055 2.49845,1.11907 2.499,2.499c0,0.202 -0.027,0.404 -0.077,0.603c0.7255,0.49957 1.06212,1.39882 0.843,2.252c0.03,0.015 0.063,0.02 0.09,0.038c0.383,0.263 0.73,0.58 1.055,0.92c0.022,-0.007 0.04,-0.023 0.063,-0.028l2.861,-0.666l1.06,-2.6c0.17342,-0.42636 0.65964,-0.63142 1.086,-0.458c0.42636,0.17342 0.63142,0.65964 0.458,1.086zM12,3.667c-0.45982,0.00055 -0.83245,0.37318 -0.833,0.833c0,0.022 0.005,0.042 0.007,0.063c0.255,-0.033 0.517,-0.063 0.826,-0.063c0.31,0 0.57,0.03 0.826,0.063c0.001,-0.021 0.007,-0.042 0.007,-0.063c-0.00055,-0.45982 -0.37318,-0.83245 -0.833,-0.833zM13.834,18.167c0.13233,-0.17697 0.32962,-0.29403 0.54836,-0.32536c0.21874,-0.03133 0.44096,0.02565 0.61764,0.15836l2.607,1.956l2.852,-4.565c0.24411,-0.39047 0.75853,-0.50911 1.149,-0.265c0.39047,0.24411 0.50911,0.75853 0.265,1.149l-3.333,5.333c-0.12338,0.19796 -0.32419,0.33504 -0.5535,0.37782c-0.22931,0.04278 -0.46604,-0.01266 -0.6525,-0.15282l-3.334,-2.5c-0.17652,-0.13246 -0.29319,-0.32963 -0.32432,-0.54811c-0.03113,-0.21849 0.02582,-0.44039 0.15832,-0.61689z" fill="#62757e" fill-rule="nonzero"></path></g>
  </g>
  <g id="Regular-S" transform="matrix(3.915 0 0 3.915 1402.75 614)">
    <defs><clipPath id="clip-1"><rect x="0" y="0" width="24" height="24" fill="none" fill-rule="nonzero"></rect></clipPath></defs>
<g clip-path="url(#clip-1)" fill="none" fill-rule="none" stroke="none" stroke-width="1" stroke-linecap="butt" stroke-linejoin="miter" stroke-miterlimit="10" stroke-dasharray="" stroke-dashoffset="0" font-family="none" font-weight="none" font-size="none" text-anchor="none" style="mix-blend-mode: normal"><path d="M21.938,5.647l-1.222,3c-0.10211,0.2505 -0.3195,0.43582 -0.583,0.497l-2.64,0.614c0.257,0.445 0.462,0.928 0.64,1.425c0.065,0.001 0.13,-0.005 0.197,0.013l3.056,0.833c0.42803,0.13413 0.6733,0.58278 0.55517,1.01549c-0.11814,0.43271 -0.55737,0.69449 -0.99417,0.59251l-2.359,-0.643c0.052,0.385 0.079,0.776 0.079,1.173c-0.00417,0.78449 -0.15054,1.56173 -0.432,2.294c-0.01292,0.03439 -0.02829,0.06781 -0.046,0.1l-0.438,0.817c-0.2176,0.40538 -0.72262,0.5576 -1.128,0.34c-0.40538,-0.2176 -0.5576,-0.72262 -0.34,-1.128l0.41,-0.767c0.19893,-0.52965 0.30286,-1.09024 0.307,-1.656c0,-2.238 -0.991,-4.306 -2.586,-5.399c-0.062,-0.041 -0.103,-0.099 -0.15,-0.153c-0.35563,0.12848 -0.75301,-0.00287 -0.962,-0.318c-0.12073,-0.18511 -0.16295,-0.4106 -0.11738,-0.62684c0.04557,-0.21625 0.17521,-0.40552 0.36038,-0.52616c0.043,-0.029 0.122,-0.159 0.122,-0.31c0,-0.602 -1.165,-0.667 -1.667,-0.667c-0.502,0 -1.666,0.065 -1.666,0.667c0,0.153 0.07,0.287 0.108,0.312c0.37,0.256 0.489,0.776 0.244,1.153c-0.1518,0.23885 -0.41401,0.38482 -0.697,0.388c-0.085,0 -0.169,-0.043 -0.254,-0.072c-0.046,0.055 -0.088,0.112 -0.15,0.155c-1.595,1.09 -2.585,3.158 -2.585,5.397c0,3.396 4.02,6.166 5,6.166c0.03,0 0.2,-0.007 0.542,-0.147c0.42442,-0.16411 0.90204,0.04228 1.07339,0.46383c0.17135,0.42155 -0.02684,0.90263 -0.44539,1.08117c-0.44,0.178 -0.834,0.269 -1.17,0.269c-1.493,0 -4.818,-2.2 -6.122,-5.29l-1.2,0.278l-1.065,2.807c-0.16292,0.43051 -0.64399,0.64742 -1.0745,0.4845c-0.43051,-0.16292 -0.64742,-0.64399 -0.4845,-1.0745l1.223,-3.223c0.09908,-0.25968 0.32045,-0.45334 0.591,-0.517l1.546,-0.358c-0.0509,-0.3108 -0.07765,-0.62507 -0.08,-0.94c0,-0.397 0.026,-0.788 0.078,-1.173l-2.36,0.643c-0.44404,0.12123 -0.90227,-0.14046 -1.0235,-0.5845c-0.12123,-0.44404 0.14046,-0.90227 0.5845,-1.0235l3.057,-0.833c0.067,-0.02 0.132,-0.013 0.197,-0.014c0.178,-0.497 0.383,-0.979 0.64,-1.424l-2.64,-0.614c-0.26352,-0.06051 -0.48105,-0.24558 -0.583,-0.496l-1.222,-3c-0.17369,-0.42609 0.03091,-0.91231 0.457,-1.086c0.42609,-0.17369 0.91231,0.03091 1.086,0.457l1.06,2.6l2.862,0.666c0.023,0.005 0.04,0.02 0.062,0.028c0.325,-0.34 0.672,-0.656 1.056,-0.918c0.027,-0.018 0.058,-0.022 0.085,-0.037c-0.04179,-0.17154 -0.06294,-0.34745 -0.063,-0.524c0,-0.342 0.095,-1.17 0.922,-1.741c-0.01,-0.032 -0.032,-0.058 -0.038,-0.092c-0.14931,-0.73546 0.03925,-1.4991 0.51373,-2.08053c0.47448,-0.58143 1.18481,-0.91928 1.93527,-0.92047c1.37993,0.00055 2.49845,1.11907 2.499,2.499c0,0.202 -0.027,0.404 -0.077,0.603c0.7255,0.49957 1.06212,1.39882 0.843,2.252c0.03,0.015 0.063,0.02 0.09,0.038c0.383,0.263 0.73,0.58 1.055,0.92c0.022,-0.007 0.04,-0.023 0.063,-0.028l2.861,-0.666l1.06,-2.6c0.17342,-0.42636 0.65964,-0.63142 1.086,-0.458c0.42636,0.17342 0.63142,0.65964 0.458,1.086zM12,3.667c-0.45982,0.00055 -0.83245,0.37318 -0.833,0.833c0,0.022 0.005,0.042 0.007,0.063c0.255,-0.033 0.517,-0.063 0.826,-0.063c0.31,0 0.57,0.03 0.826,0.063c0.001,-0.021 0.007,-0.042 0.007,-0.063c-0.00055,-0.45982 -0.37318,-0.83245 -0.833,-0.833zM13.834,18.167c0.13233,-0.17697 0.32962,-0.29403 0.54836,-0.32536c0.21874,-0.03133 0.44096,0.02565 0.61764,0.15836l2.607,1.956l2.852,-4.565c0.24411,-0.39047 0.75853,-0.50911 1.149,-0.265c0.39047,0.24411 0.50911,0.75853 0.265,1.149l-3.333,5.333c-0.12338,0.19796 -0.32419,0.33504 -0.5535,0.37782c-0.22931,0.04278 -0.46604,-0.01266 -0.6525,-0.15282l-3.334,-2.5c-0.17652,-0.13246 -0.29319,-0.32963 -0.32432,-0.54811c-0.03113,-0.21849 0.02582,-0.44039 0.15832,-0.61689z" fill="#62757e" fill-rule="nonzero"></path></g>
  </g>
 </g>
</svg>
