<?xml version="1.0" encoding="UTF-8"?>
<!--Generator: Apple Native CoreSVG 175.5-->
<!DOCTYPE svg
PUBLIC "-//W3C//DTD SVG 1.1//EN"
       "http://www.w3.org/Graphics/SVG/1.1/DTD/svg11.dtd">
<svg version="1.1" xmlns="http://www.w3.org/2000/svg" xmlns:xlink="http://www.w3.org/1999/xlink" width="3300" height="2200">
 <!--glyph: "", point size: 100.0, font version: "18.0d12e2", template writer version: "101"-->
 <g id="Notes">
  <rect height="2200" id="artboard" style="fill:white;opacity:1" width="3300" x="0" y="0"/>
  <line style="fill:none;stroke:black;opacity:1;stroke-width:0.5;" x1="263" x2="3036" y1="292" y2="292"/>
  <text style="stroke:none;fill:black;font-family:sans-serif;font-size:13;font-weight:bold;" transform="matrix(1 0 0 1 263 322)">Weight/Scale Variations</text>
  <text style="stroke:none;fill:black;font-family:sans-serif;font-size:13;text-anchor:middle;" transform="matrix(1 0 0 1 559.711 322)">Ultralight</text>
  <text style="stroke:none;fill:black;font-family:sans-serif;font-size:13;text-anchor:middle;" transform="matrix(1 0 0 1 856.422 322)">Thin</text>
  <text style="stroke:none;fill:black;font-family:sans-serif;font-size:13;text-anchor:middle;" transform="matrix(1 0 0 1 1153.13 322)">Light</text>
  <text style="stroke:none;fill:black;font-family:sans-serif;font-size:13;text-anchor:middle;" transform="matrix(1 0 0 1 1449.84 322)">Regular</text>
  <text style="stroke:none;fill:black;font-family:sans-serif;font-size:13;text-anchor:middle;" transform="matrix(1 0 0 1 1746.56 322)">Medium</text>
  <text style="stroke:none;fill:black;font-family:sans-serif;font-size:13;text-anchor:middle;" transform="matrix(1 0 0 1 2043.27 322)">Semibold</text>
  <text style="stroke:none;fill:black;font-family:sans-serif;font-size:13;text-anchor:middle;" transform="matrix(1 0 0 1 2339.98 322)">Bold</text>
  <text style="stroke:none;fill:black;font-family:sans-serif;font-size:13;text-anchor:middle;" transform="matrix(1 0 0 1 2636.69 322)">Heavy</text>
  <text style="stroke:none;fill:black;font-family:sans-serif;font-size:13;text-anchor:middle;" transform="matrix(1 0 0 1 2933.4 322)">Black</text>
  <line style="fill:none;stroke:black;opacity:1;stroke-width:0.5;" x1="263" x2="3036" y1="1903" y2="1903"/>
  <g transform="matrix(1 0 0 1 263 1933)">
   <path d="M9.24805 0.830078C13.5547 0.830078 17.1387-2.74414 17.1387-7.05078C17.1387-11.3574 13.5449-14.9316 9.23828-14.9316C4.94141-14.9316 1.36719-11.3574 1.36719-7.05078C1.36719-2.74414 4.95117 0.830078 9.24805 0.830078ZM9.24805-0.654297C5.70312-0.654297 2.87109-3.49609 2.87109-7.05078C2.87109-10.6055 5.69336-13.4473 9.23828-13.4473C12.793-13.4473 15.6445-10.6055 15.6445-7.05078C15.6445-3.49609 12.8027-0.654297 9.24805-0.654297ZM5.6543-7.05078C5.6543-6.62109 5.95703-6.32812 6.40625-6.32812L8.50586-6.32812L8.50586-4.20898C8.50586-3.76953 8.79883-3.4668 9.22852-3.4668C9.67773-3.4668 9.9707-3.76953 9.9707-4.20898L9.9707-6.32812L12.0898-6.32812C12.5293-6.32812 12.832-6.62109 12.832-7.05078C12.832-7.49023 12.5293-7.79297 12.0898-7.79297L9.9707-7.79297L9.9707-9.90234C9.9707-10.3516 9.67773-10.6543 9.22852-10.6543C8.79883-10.6543 8.50586-10.3516 8.50586-9.90234L8.50586-7.79297L6.40625-7.79297C5.95703-7.79297 5.6543-7.49023 5.6543-7.05078Z"/>
  </g>
  <g transform="matrix(1 0 0 1 281.867 1933)">
   <path d="M11.709 2.91016C17.1582 2.91016 21.6699-1.61133 21.6699-7.05078C21.6699-12.5 17.1484-17.0117 11.6992-17.0117C6.25977-17.0117 1.74805-12.5 1.74805-7.05078C1.74805-1.61133 6.26953 2.91016 11.709 2.91016ZM11.709 1.25C7.09961 1.25 3.41797-2.44141 3.41797-7.05078C3.41797-11.6602 7.08984-15.3516 11.6992-15.3516C16.3086-15.3516 20.0098-11.6602 20.0098-7.05078C20.0098-2.44141 16.3184 1.25 11.709 1.25ZM7.17773-7.05078C7.17773-6.57227 7.50977-6.25 8.00781-6.25L10.8789-6.25L10.8789-3.36914C10.8789-2.88086 11.2109-2.53906 11.6895-2.53906C12.1777-2.53906 12.5195-2.87109 12.5195-3.36914L12.5195-6.25L15.4004-6.25C15.8887-6.25 16.2305-6.57227 16.2305-7.05078C16.2305-7.53906 15.8887-7.88086 15.4004-7.88086L12.5195-7.88086L12.5195-10.752C12.5195-11.25 12.1777-11.5918 11.6895-11.5918C11.2109-11.5918 10.8789-11.25 10.8789-10.752L10.8789-7.88086L8.00781-7.88086C7.50977-7.88086 7.17773-7.53906 7.17773-7.05078Z"/>
  </g>
  <g transform="matrix(1 0 0 1 305.646 1933)">
   <path d="M14.9707 5.66406C21.9336 5.66406 27.6953-0.0976562 27.6953-7.05078C27.6953-14.0137 21.9238-19.7754 14.9609-19.7754C8.00781-19.7754 2.25586-14.0137 2.25586-7.05078C2.25586-0.0976562 8.01758 5.66406 14.9707 5.66406ZM14.9707 3.84766C8.93555 3.84766 4.08203-1.01562 4.08203-7.05078C4.08203-13.0957 8.92578-17.9492 14.9609-17.9492C21.0059-17.9492 25.8691-13.0957 25.8691-7.05078C25.8691-1.01562 21.0156 3.84766 14.9707 3.84766ZM9.19922-7.05078C9.19922-6.5332 9.57031-6.17188 10.1172-6.17188L14.0625-6.17188L14.0625-2.2168C14.0625-1.67969 14.4336-1.29883 14.9512-1.29883C15.4883-1.29883 15.8594-1.66992 15.8594-2.2168L15.8594-6.17188L19.8145-6.17188C20.3516-6.17188 20.7324-6.5332 20.7324-7.05078C20.7324-7.59766 20.3613-7.96875 19.8145-7.96875L15.8594-7.96875L15.8594-11.9141C15.8594-12.4609 15.4883-12.8418 14.9512-12.8418C14.4336-12.8418 14.0625-12.4609 14.0625-11.9141L14.0625-7.96875L10.1172-7.96875C9.57031-7.96875 9.19922-7.59766 9.19922-7.05078Z"/>
  </g>
  <text style="stroke:none;fill:black;font-family:sans-serif;font-size:13;font-weight:bold;" transform="matrix(1 0 0 1 263 1953)">Design Variations</text>
  <text style="stroke:none;fill:black;font-family:sans-serif;font-size:13;" transform="matrix(1 0 0 1 263 1971)">Symbols are supported in up to nine weights and three scales.</text>
  <text style="stroke:none;fill:black;font-family:sans-serif;font-size:13;" transform="matrix(1 0 0 1 263 1989)">For optimal layout with text and other symbols, vertically align</text>
  <text style="stroke:none;fill:black;font-family:sans-serif;font-size:13;" transform="matrix(1 0 0 1 263 2007)">symbols with the adjacent text.</text>
  <line style="fill:none;stroke:#00AEEF;stroke-width:0.5;opacity:1.0;" x1="776" x2="776" y1="1919" y2="1933"/>
  <g transform="matrix(1 0 0 1 776 1933)">
   <path d="M3.31055 0.15625C3.82812 0.15625 4.08203-0.0390625 4.26758-0.585938L5.52734-4.0332L11.2891-4.0332L12.5488-0.585938C12.7344-0.0390625 12.9883 0.15625 13.4961 0.15625C14.0137 0.15625 14.3457-0.15625 14.3457-0.644531C14.3457-0.810547 14.3164-0.966797 14.2383-1.17188L9.6582-13.3691C9.43359-13.9648 9.0332-14.2676 8.4082-14.2676C7.80273-14.2676 7.39258-13.9746 7.17773-13.3789L2.59766-1.16211C2.51953-0.957031 2.49023-0.800781 2.49023-0.634766C2.49023-0.146484 2.80273 0.15625 3.31055 0.15625ZM6.00586-5.51758L8.37891-12.0898L8.42773-12.0898L10.8008-5.51758Z"/>
  </g>
  <line style="fill:none;stroke:#00AEEF;stroke-width:0.5;opacity:1.0;" x1="793.197" x2="793.197" y1="1919" y2="1933"/>
  <text style="stroke:none;fill:black;font-family:sans-serif;font-size:13;font-weight:bold;" transform="matrix(1 0 0 1 776 1953)">Margins</text>
  <text style="stroke:none;fill:black;font-family:sans-serif;font-size:13;" transform="matrix(1 0 0 1 776 1971)">Leading and trailing margins on the left and right side of each symbol</text>
  <text style="stroke:none;fill:black;font-family:sans-serif;font-size:13;" transform="matrix(1 0 0 1 776 1989)">can be adjusted by modifying the x-location of the margin guidelines.</text>
  <text style="stroke:none;fill:black;font-family:sans-serif;font-size:13;" transform="matrix(1 0 0 1 776 2007)">Modifications are automatically applied proportionally to all</text>
  <text style="stroke:none;fill:black;font-family:sans-serif;font-size:13;" transform="matrix(1 0 0 1 776 2025)">scales and weights.</text>
  <g transform="matrix(1 0 0 1 1289 1933)">
   <path d="M2.8418 1.86523L4.54102 3.57422C5.40039 4.44336 6.38672 4.38477 7.31445 3.35938L18.0078-8.42773L17.041-9.4043L6.42578 2.27539C6.07422 2.67578 5.74219 2.77344 5.27344 2.30469L4.10156 1.14258C3.63281 0.683594 3.74023 0.341797 4.14062-0.0195312L15.6152-10.8203L14.6387-11.7871L3.04688-0.898438C2.06055 0.0195312 1.98242 0.996094 2.8418 1.86523ZM9.25781-16.3281C8.83789-15.918 8.80859-15.3418 9.04297-14.9512C9.27734-14.5898 9.73633-14.3555 10.3809-14.5215C11.8457-14.8633 13.3691-14.9219 14.7949-13.9844L14.209-12.5293C13.8672-11.6992 14.043-11.1133 14.5801-10.5664L16.875-8.25195C17.3633-7.76367 17.7734-7.74414 18.3398-7.8418L19.4043-8.03711L20.0684-7.36328L20.0293-6.80664C19.9902-6.30859 20.1172-5.92773 20.6055-5.44922L21.3672-4.70703C21.8457-4.22852 22.4609-4.19922 22.9297-4.66797L25.8398-7.58789C26.3086-8.05664 26.2891-8.65234 25.8105-9.13086L25.0391-9.89258C24.5605-10.3711 24.1895-10.5273 23.7109-10.4883L23.1348-10.4395L22.4902-11.0742L22.7344-12.1973C22.8613-12.7637 22.7051-13.2031 22.1191-13.7891L19.9219-15.9766C16.582-19.2969 12.1484-19.2188 9.25781-16.3281ZM10.752-15.957C13.1836-17.7344 16.4746-17.4316 18.7012-15.2051L21.1328-12.793C21.3672-12.5586 21.4062-12.373 21.3379-12.0312L21.0156-10.5469L22.5195-9.0625L23.5059-9.12109C23.7598-9.13086 23.8379-9.11133 24.0332-8.91602L24.6094-8.33984L22.168-5.89844L21.5918-6.47461C21.3965-6.66992 21.3672-6.74805 21.377-7.01172L21.4453-7.98828L19.9512-9.47266L18.4277-9.21875C18.1055-9.15039 17.959-9.17969 17.7148-9.41406L15.7129-11.416C15.459-11.6504 15.4297-11.8164 15.5859-12.1875L16.4648-14.2773C14.9023-15.7324 12.8711-16.3574 10.8398-15.7617C10.6836-15.7227 10.625-15.8496 10.752-15.957Z"/>
  </g>
  <text style="stroke:none;fill:black;font-family:sans-serif;font-size:13;font-weight:bold;" transform="matrix(1 0 0 1 1289 1953)">Exporting</text>
  <text style="stroke:none;fill:black;font-family:sans-serif;font-size:13;" transform="matrix(1 0 0 1 1289 1971)">Symbols should be outlined when exporting to ensure the</text>
  <text style="stroke:none;fill:black;font-family:sans-serif;font-size:13;" transform="matrix(1 0 0 1 1289 1989)">design is preserved when submitting to Xcode.</text>
  <text id="template-version" style="stroke:none;fill:black;font-family:sans-serif;font-size:13;text-anchor:end;" transform="matrix(1 0 0 1 3036 1933)">Template v.4.0</text>
  <text style="stroke:none;fill:black;font-family:sans-serif;font-size:13;text-anchor:end;" transform="matrix(1 0 0 1 3036 1951)">Requires Xcode 14 or greater</text>
  <text id="descriptive-name" style="stroke:none;fill:black;font-family:sans-serif;font-size:13;text-anchor:end;" transform="matrix(1 0 0 1 3036 1969)">Generated from brave.zzz</text>
  <text style="stroke:none;fill:black;font-family:sans-serif;font-size:13;text-anchor:end;" transform="matrix(1 0 0 1 3036 1987)">Typeset at 100 points</text>
  <text style="stroke:none;fill:black;font-family:sans-serif;font-size:13;" transform="matrix(1 0 0 1 263 726)">Small</text>
  <text style="stroke:none;fill:black;font-family:sans-serif;font-size:13;" transform="matrix(1 0 0 1 263 1156)">Medium</text>
  <text style="stroke:none;fill:black;font-family:sans-serif;font-size:13;" transform="matrix(1 0 0 1 263 1586)">Large</text>
 </g>
 <g id="Guides">
  <g id="H-reference" style="fill:#27AAE1;stroke:none;" transform="matrix(1 0 0 1 339 696)">
   <path d="M0.993654 0L3.63775 0L29.3281-67.1323L30.0303-67.1323L30.0303-70.459L28.1226-70.459ZM11.6885-24.4799L46.9815-24.4799L46.2315-26.7285L12.4385-26.7285ZM55.1196 0L57.7637 0L30.6382-70.459L29.4326-70.459L29.4326-67.1323Z"/>
  </g>
  <line id="Baseline-S" style="fill:none;stroke:#27AAE1;opacity:1;stroke-width:0.5;" x1="263" x2="3036" y1="696" y2="696"/>
  <line id="Capline-S" style="fill:none;stroke:#27AAE1;opacity:1;stroke-width:0.5;" x1="263" x2="3036" y1="625.541" y2="625.541"/>
  <g id="H-reference" style="fill:#27AAE1;stroke:none;" transform="matrix(1 0 0 1 339 1126)">
   <path d="M0.993654 0L3.63775 0L29.3281-67.1323L30.0303-67.1323L30.0303-70.459L28.1226-70.459ZM11.6885-24.4799L46.9815-24.4799L46.2315-26.7285L12.4385-26.7285ZM55.1196 0L57.7637 0L30.6382-70.459L29.4326-70.459L29.4326-67.1323Z"/>
  </g>
  <line id="Baseline-M" style="fill:none;stroke:#27AAE1;opacity:1;stroke-width:0.5;" x1="263" x2="3036" y1="1126" y2="1126"/>
  <line id="Capline-M" style="fill:none;stroke:#27AAE1;opacity:1;stroke-width:0.5;" x1="263" x2="3036" y1="1055.54" y2="1055.54"/>
  <g id="H-reference" style="fill:#27AAE1;stroke:none;" transform="matrix(1 0 0 1 339 1556)">
   <path d="M0.993654 0L3.63775 0L29.3281-67.1323L30.0303-67.1323L30.0303-70.459L28.1226-70.459ZM11.6885-24.4799L46.9815-24.4799L46.2315-26.7285L12.4385-26.7285ZM55.1196 0L57.7637 0L30.6382-70.459L29.4326-70.459L29.4326-67.1323Z"/>
  </g>
  <line id="Baseline-L" style="fill:none;stroke:#27AAE1;opacity:1;stroke-width:0.5;" x1="263" x2="3036" y1="1556" y2="1556"/>
  <line id="Capline-L" style="fill:none;stroke:#27AAE1;opacity:1;stroke-width:0.5;" x1="263" x2="3036" y1="1485.54" y2="1485.54"/>
  <line id="left-margin-Regular-M" style="fill:none;stroke:#00AEEF;stroke-width:0.5;opacity:1.0;" x1="1389.82" x2="1389.82" y1="1030.79" y2="1150.12"/>
  <line id="right-margin-Regular-M" style="fill:none;stroke:#00AEEF;stroke-width:0.5;opacity:1.0;" x1="1509.87" x2="1509.87" y1="1030.79" y2="1150.12"/>
 </g>
 <g id="Symbols">
  <g id="Regular-L" transform="matrix(6.45 0 0 6.45 1372.2675 1443)">
    <defs><clipPath id="clip-1"><rect x="0" y="0" width="24" height="24" fill="none"></rect></clipPath></defs>
<g clip-path="url(#clip-1)" fill="none" fill-rule="nonzero" stroke="none" stroke-width="1" stroke-linecap="butt" stroke-linejoin="miter" stroke-miterlimit="10" stroke-dasharray="" stroke-dashoffset="0" font-family="none" font-weight="none" font-size="none" text-anchor="none" style="mix-blend-mode: normal"><path d="M12.015,20.801c0.24232,0.01405 0.45231,0.17273 0.532,0.402c0.0863,0.24918 -0.00051,0.5255 -0.21382,0.68055c-0.21331,0.15505 -0.50292,0.15237 -0.71332,-0.00662c-0.21039,-0.15898 -0.29207,-0.43686 -0.20116,-0.6844c0.09091,-0.24754 0.33301,-0.40651 0.5963,-0.39154M7.125,20.581c0.21664,0.14424 0.27646,0.43618 0.134,0.654c-0.09615,0.14777 -0.26691,0.22931 -0.44227,0.21118c-0.17536,-0.01813 -0.32584,-0.13287 -0.38973,-0.29718l0.61,-0.61c0.03067,0.01067 0.05967,0.025 0.087,0.043M17.181,20.484c0.18932,-0.01145 0.36763,0.08966 0.455,0.258c0.08649,0.17005 0.06159,0.37552 -0.063,0.52c-0.09256,0.10627 -0.2276,0.16585 -0.36849,0.16256c-0.14089,-0.00329 -0.27301,-0.06909 -0.36051,-0.17956c-0.10578,-0.13742 -0.12788,-0.32171 -0.05758,-0.48025c0.0703,-0.15853 0.22171,-0.26589 0.39458,-0.27975M19.399,3.4c0.21125,-0.22998 0.5316,-0.32561 0.83435,-0.24906c0.30275,0.07655 0.53915,0.31295 0.6157,0.6157c0.07655,0.30275 -0.01907,0.6231 -0.24906,0.83435l-16,16c-0.3354,0.30808 -0.85402,0.29708 -1.17605,-0.02495c-0.32203,-0.32203 -0.33303,-0.84065 -0.02495,-1.17605l3.59,-3.59c-0.25474,0.01604 -0.50344,-0.08191 -0.67883,-0.26735c-0.17539,-0.18544 -0.25935,-0.4392 -0.22917,-0.69265c0.07083,-0.44757 0.4775,-0.7629 0.92861,-0.72004c0.45111,0.04286 0.79112,0.42913 0.77639,0.88204l4.939,-4.938l-0.066,-0.066c-0.30375,-0.33153 -0.4378,-0.78453 -0.36337,-1.22796c0.07443,-0.44344 0.34903,-0.82785 0.74437,-1.04204c0.50938,-0.27336 1.13207,-0.22042 1.588,0.135c0.056,0.04333 0.10767,0.09033 0.155,0.141zM8.944,18.633c-0.00431,0.28708 -0.1765,0.54497 -0.44,0.659c-0.08678,0.03622 -0.17997,0.05459 -0.274,0.054zM15.799,17.877c0.29332,-0.02209 0.57125,0.13402 0.705,0.396c0.14582,0.28626 0.08706,0.63424 -0.14468,0.85674c-0.23174,0.2225 -0.58181,0.26708 -0.86191,0.10974c-0.2801,-0.15733 -0.42419,-0.47948 -0.35476,-0.79315c0.06943,-0.31367 0.33602,-0.54491 0.65635,-0.56934M12.021,17.029c0.47276,0.02817 0.83317,0.43424 0.805,0.907c-0.02817,0.47276 -0.43424,0.83317 -0.907,0.805c-0.47276,-0.02817 -0.83317,-0.43424 -0.805,-0.907c0.02817,-0.47276 0.43424,-0.83317 0.907,-0.805M3.846,16.121c0.24163,-0.01811 0.47043,0.11089 0.58,0.327c0.08002,0.16058 0.08437,0.34845 0.01188,0.51257c-0.07249,0.16412 -0.21429,0.28743 -0.38688,0.33643c-0.22044,0.06216 -0.45704,-0.00661 -0.60982,-0.17724c-0.15278,-0.17063 -0.1951,-0.41336 -0.10906,-0.62563c0.08604,-0.21226 0.28541,-0.35703 0.51388,-0.37313M20.167,16.083c0.28612,-0.00274 0.53436,0.19694 0.593,0.477c0.05817,0.27983 -0.08911,0.56185 -0.352,0.674c-0.16541,0.06948 -0.35319,0.06156 -0.51217,-0.02161c-0.15897,-0.08316 -0.27257,-0.2329 -0.30983,-0.40839c-0.03615,-0.17551 0.00804,-0.35798 0.12047,-0.49751c0.11243,-0.13953 0.28135,-0.2215 0.46053,-0.22349M14.032,13.545c0.43895,0.08766 0.81343,0.37184 1.016,0.771c0.28875,0.57721 0.16396,1.27554 -0.30682,1.71702c-0.47079,0.44148 -1.1757,0.52119 -1.73318,0.19598c-0.35705,-0.2115 -0.60723,-0.56495 -0.688,-0.972zM17.117,14.074c0.47331,-0.00414 0.86036,0.37619 0.8645,0.8495c0.00414,0.47331 -0.37619,0.86036 -0.8495,0.8645c-0.47331,0.00414 -0.86036,-0.37619 -0.8645,-0.8495c-0.00414,-0.47331 0.37619,-0.86036 0.8495,-0.8645M8.08,10.64c0.54658,-0.19881 1.15902,-0.05424 1.559,0.368c0.39939,0.42296 0.50914,1.04287 0.27922,1.57724c-0.22992,0.53437 -0.75549,0.88093 -1.33722,0.88176h-0.079c-0.80457,-0.0483 -1.41852,-0.73826 -1.373,-1.543l-0.004,0.001c0.03416,-0.58025 0.40926,-1.08496 0.955,-1.285M16.548,11.027c0.27962,0.31827 0.4072,0.74231 0.34962,1.16204c-0.05758,0.41973 -0.29463,0.79374 -0.64962,1.02496c-0.23598,0.1526 -0.51098,0.23385 -0.792,0.234h-0.085c-0.32577,-0.01957 -0.63559,-0.14772 -0.88,-0.364zM4.426,11.29c0.40103,0.02363 0.70761,0.36685 0.686,0.768c-0.02272,0.40138 -0.3665,0.70836 -0.76788,0.6857c-0.40138,-0.02267 -0.70841,-0.3664 -0.68581,-0.76778c0.02261,-0.40139 0.36629,-0.70847 0.76768,-0.68591M19.555,11.263c0.32725,-0.04718 0.64527,0.13178 0.77478,0.43599c0.12951,0.30421 0.03807,0.65749 -0.22277,0.86066c-0.26084,0.20318 -0.62575,0.20537 -0.88901,0.00535c-0.1733,-0.13156 -0.27888,-0.33356 -0.28797,-0.55094c-0.00909,-0.21738 0.07926,-0.42749 0.24097,-0.57306c0.10761,-0.09595 0.24123,-0.15789 0.384,-0.178M1.695,11.555c0.2594,0.01557 0.45765,0.23749 0.444,0.497c-0.0153,0.25892 -0.23746,0.4565 -0.49639,0.44148c-0.25894,-0.01502 -0.45676,-0.23696 -0.44203,-0.49591c0.01473,-0.25895 0.23645,-0.45702 0.49542,-0.44257M22.4,11.507c0.2589,0.01715 0.45613,0.23887 0.443,0.498c-0.01087,0.19072 -0.13562,0.35609 -0.31603,0.41891c-0.18041,0.06282 -0.38089,0.01069 -0.50786,-0.13204c-0.12697,-0.14273 -0.15538,-0.34792 -0.07198,-0.51979c0.08341,-0.17186 0.26218,-0.27651 0.45287,-0.26508M10.296,7.574c0.66446,-0.00347 1.24686,0.44364 1.41516,1.08645c0.1683,0.6428 -0.12026,1.31796 -0.70116,1.64055c-0.34733,0.19388 -0.75873,0.23764 -1.13907,0.12118c-0.38034,-0.11646 -0.6967,-0.38307 -0.87593,-0.73818c-0.34764,-0.69686 -0.08715,-1.54391 0.592,-1.925c0.21706,-0.1211 0.46144,-0.18478 0.71,-0.185M7.08,8.227c0.25138,0.04904 0.46782,0.20758 0.59041,0.43245c0.12259,0.22488 0.13857,0.49269 0.04359,0.73055c-0.16953,0.41769 -0.63394,0.63232 -1.06193,0.49079c-0.42798,-0.14154 -0.67286,-0.59074 -0.55994,-1.02714c0.11292,-0.43641 0.54494,-0.71046 0.98786,-0.62664M3.982,6.73c0.17598,0.03429 0.32751,0.14523 0.41336,0.30262c0.08585,0.15739 0.09708,0.34486 0.03064,0.51138c-0.06746,0.16661 -0.20607,0.2942 -0.37769,0.34766c-0.17162,0.05346 -0.35816,0.02716 -0.50831,-0.07166c-0.27604,-0.18224 -0.35252,-0.55349 -0.171,-0.83c0.13308,-0.2025 0.37491,-0.30507 0.613,-0.26M20.638,6.935c0.15018,0.21068 0.14811,0.49397 -0.00511,0.70244c-0.15323,0.20847 -0.42298,0.295 -0.66889,0.21456c-0.0561,-0.01942 -0.10901,-0.04705 -0.157,-0.082l0.794,-0.793c0.01333,-0.01333 0.02567,-0.02733 0.037,-0.042M11.726,5.308c0.32671,-0.11246 0.68899,-0.01798 0.91917,0.23971c0.23017,0.25769 0.28332,0.6283 0.13483,0.94029c-0.16733,0.35158 -0.55042,0.5464 -0.93309,0.47454c-0.38267,-0.07186 -0.66898,-0.3924 -0.69736,-0.78073c-0.02838,-0.38833 0.20829,-0.74708 0.57645,-0.87381M7.994,4.696c0.28359,-0.0781 0.58635,0.02164 0.768,0.253c0.19758,0.25261 0.20659,0.60475 0.02218,0.86713c-0.18441,0.26238 -0.51879,0.37318 -0.82339,0.27283c-0.3046,-0.10034 -0.50765,-0.38819 -0.50001,-0.7088c0.00764,-0.32061 0.22419,-0.59845 0.53322,-0.68417M15.958,4.663c0.21411,0.04086 0.39875,0.17527 0.50344,0.36645c0.10469,0.19118 0.11846,0.41915 0.03756,0.62155c-0.14361,0.35558 -0.53845,0.53879 -0.9027,0.41885c-0.36425,-0.11994 -0.57301,-0.50188 -0.47727,-0.87323c0.09574,-0.37135 0.46314,-0.60475 0.83997,-0.53362M6.697,2.593c0.23075,-0.05726 0.46814,0.06567 0.55456,0.28716c0.08642,0.22149 -0.005,0.4727 -0.21356,0.58684c-0.2337,0.11704 -0.51806,0.02374 -0.637,-0.209c-0.06236,-0.12612 -0.06534,-0.27346 -0.00813,-0.40199c0.05721,-0.12854 0.16868,-0.22493 0.30413,-0.26301M17.265,2.56c0.18633,0.0375 0.33299,0.18141 0.374,0.367c0.0533,0.25488 -0.11012,0.5047 -0.365,0.558c-0.25488,0.0533 -0.5047,-0.11012 -0.558,-0.365c-0.03152,-0.15404 0.01557,-0.31366 0.12564,-0.42594c0.11007,-0.11227 0.26873,-0.16252 0.42336,-0.13406M11.802,2.034c0.22909,-0.08048 0.48409,-0.01495 0.646,0.166c0.11873,0.13429 0.17145,0.3145 0.1438,0.49161c-0.02765,0.17711 -0.13278,0.33268 -0.2868,0.42439c-0.2465,0.1453 -0.5613,0.09632 -0.752,-0.117c-0.13298,-0.14952 -0.18266,-0.3555 -0.13248,-0.5492c0.05018,-0.19371 0.19363,-0.34965 0.38248,-0.4158" fill="#62757e"></path></g>
  </g>
  <g id="Regular-M" transform="matrix(5 0 0 5 1389.82 1030)">
    <defs><clipPath id="clip-1"><rect x="0" y="0" width="24" height="24" fill="none"></rect></clipPath></defs>
<g clip-path="url(#clip-1)" fill="none" fill-rule="nonzero" stroke="none" stroke-width="1" stroke-linecap="butt" stroke-linejoin="miter" stroke-miterlimit="10" stroke-dasharray="" stroke-dashoffset="0" font-family="none" font-weight="none" font-size="none" text-anchor="none" style="mix-blend-mode: normal"><path d="M12.015,20.801c0.24232,0.01405 0.45231,0.17273 0.532,0.402c0.0863,0.24918 -0.00051,0.5255 -0.21382,0.68055c-0.21331,0.15505 -0.50292,0.15237 -0.71332,-0.00662c-0.21039,-0.15898 -0.29207,-0.43686 -0.20116,-0.6844c0.09091,-0.24754 0.33301,-0.40651 0.5963,-0.39154M7.125,20.581c0.21664,0.14424 0.27646,0.43618 0.134,0.654c-0.09615,0.14777 -0.26691,0.22931 -0.44227,0.21118c-0.17536,-0.01813 -0.32584,-0.13287 -0.38973,-0.29718l0.61,-0.61c0.03067,0.01067 0.05967,0.025 0.087,0.043M17.181,20.484c0.18932,-0.01145 0.36763,0.08966 0.455,0.258c0.08649,0.17005 0.06159,0.37552 -0.063,0.52c-0.09256,0.10627 -0.2276,0.16585 -0.36849,0.16256c-0.14089,-0.00329 -0.27301,-0.06909 -0.36051,-0.17956c-0.10578,-0.13742 -0.12788,-0.32171 -0.05758,-0.48025c0.0703,-0.15853 0.22171,-0.26589 0.39458,-0.27975M19.399,3.4c0.21125,-0.22998 0.5316,-0.32561 0.83435,-0.24906c0.30275,0.07655 0.53915,0.31295 0.6157,0.6157c0.07655,0.30275 -0.01907,0.6231 -0.24906,0.83435l-16,16c-0.3354,0.30808 -0.85402,0.29708 -1.17605,-0.02495c-0.32203,-0.32203 -0.33303,-0.84065 -0.02495,-1.17605l3.59,-3.59c-0.25474,0.01604 -0.50344,-0.08191 -0.67883,-0.26735c-0.17539,-0.18544 -0.25935,-0.4392 -0.22917,-0.69265c0.07083,-0.44757 0.4775,-0.7629 0.92861,-0.72004c0.45111,0.04286 0.79112,0.42913 0.77639,0.88204l4.939,-4.938l-0.066,-0.066c-0.30375,-0.33153 -0.4378,-0.78453 -0.36337,-1.22796c0.07443,-0.44344 0.34903,-0.82785 0.74437,-1.04204c0.50938,-0.27336 1.13207,-0.22042 1.588,0.135c0.056,0.04333 0.10767,0.09033 0.155,0.141zM8.944,18.633c-0.00431,0.28708 -0.1765,0.54497 -0.44,0.659c-0.08678,0.03622 -0.17997,0.05459 -0.274,0.054zM15.799,17.877c0.29332,-0.02209 0.57125,0.13402 0.705,0.396c0.14582,0.28626 0.08706,0.63424 -0.14468,0.85674c-0.23174,0.2225 -0.58181,0.26708 -0.86191,0.10974c-0.2801,-0.15733 -0.42419,-0.47948 -0.35476,-0.79315c0.06943,-0.31367 0.33602,-0.54491 0.65635,-0.56934M12.021,17.029c0.47276,0.02817 0.83317,0.43424 0.805,0.907c-0.02817,0.47276 -0.43424,0.83317 -0.907,0.805c-0.47276,-0.02817 -0.83317,-0.43424 -0.805,-0.907c0.02817,-0.47276 0.43424,-0.83317 0.907,-0.805M3.846,16.121c0.24163,-0.01811 0.47043,0.11089 0.58,0.327c0.08002,0.16058 0.08437,0.34845 0.01188,0.51257c-0.07249,0.16412 -0.21429,0.28743 -0.38688,0.33643c-0.22044,0.06216 -0.45704,-0.00661 -0.60982,-0.17724c-0.15278,-0.17063 -0.1951,-0.41336 -0.10906,-0.62563c0.08604,-0.21226 0.28541,-0.35703 0.51388,-0.37313M20.167,16.083c0.28612,-0.00274 0.53436,0.19694 0.593,0.477c0.05817,0.27983 -0.08911,0.56185 -0.352,0.674c-0.16541,0.06948 -0.35319,0.06156 -0.51217,-0.02161c-0.15897,-0.08316 -0.27257,-0.2329 -0.30983,-0.40839c-0.03615,-0.17551 0.00804,-0.35798 0.12047,-0.49751c0.11243,-0.13953 0.28135,-0.2215 0.46053,-0.22349M14.032,13.545c0.43895,0.08766 0.81343,0.37184 1.016,0.771c0.28875,0.57721 0.16396,1.27554 -0.30682,1.71702c-0.47079,0.44148 -1.1757,0.52119 -1.73318,0.19598c-0.35705,-0.2115 -0.60723,-0.56495 -0.688,-0.972zM17.117,14.074c0.47331,-0.00414 0.86036,0.37619 0.8645,0.8495c0.00414,0.47331 -0.37619,0.86036 -0.8495,0.8645c-0.47331,0.00414 -0.86036,-0.37619 -0.8645,-0.8495c-0.00414,-0.47331 0.37619,-0.86036 0.8495,-0.8645M8.08,10.64c0.54658,-0.19881 1.15902,-0.05424 1.559,0.368c0.39939,0.42296 0.50914,1.04287 0.27922,1.57724c-0.22992,0.53437 -0.75549,0.88093 -1.33722,0.88176h-0.079c-0.80457,-0.0483 -1.41852,-0.73826 -1.373,-1.543l-0.004,0.001c0.03416,-0.58025 0.40926,-1.08496 0.955,-1.285M16.548,11.027c0.27962,0.31827 0.4072,0.74231 0.34962,1.16204c-0.05758,0.41973 -0.29463,0.79374 -0.64962,1.02496c-0.23598,0.1526 -0.51098,0.23385 -0.792,0.234h-0.085c-0.32577,-0.01957 -0.63559,-0.14772 -0.88,-0.364zM4.426,11.29c0.40103,0.02363 0.70761,0.36685 0.686,0.768c-0.02272,0.40138 -0.3665,0.70836 -0.76788,0.6857c-0.40138,-0.02267 -0.70841,-0.3664 -0.68581,-0.76778c0.02261,-0.40139 0.36629,-0.70847 0.76768,-0.68591M19.555,11.263c0.32725,-0.04718 0.64527,0.13178 0.77478,0.43599c0.12951,0.30421 0.03807,0.65749 -0.22277,0.86066c-0.26084,0.20318 -0.62575,0.20537 -0.88901,0.00535c-0.1733,-0.13156 -0.27888,-0.33356 -0.28797,-0.55094c-0.00909,-0.21738 0.07926,-0.42749 0.24097,-0.57306c0.10761,-0.09595 0.24123,-0.15789 0.384,-0.178M1.695,11.555c0.2594,0.01557 0.45765,0.23749 0.444,0.497c-0.0153,0.25892 -0.23746,0.4565 -0.49639,0.44148c-0.25894,-0.01502 -0.45676,-0.23696 -0.44203,-0.49591c0.01473,-0.25895 0.23645,-0.45702 0.49542,-0.44257M22.4,11.507c0.2589,0.01715 0.45613,0.23887 0.443,0.498c-0.01087,0.19072 -0.13562,0.35609 -0.31603,0.41891c-0.18041,0.06282 -0.38089,0.01069 -0.50786,-0.13204c-0.12697,-0.14273 -0.15538,-0.34792 -0.07198,-0.51979c0.08341,-0.17186 0.26218,-0.27651 0.45287,-0.26508M10.296,7.574c0.66446,-0.00347 1.24686,0.44364 1.41516,1.08645c0.1683,0.6428 -0.12026,1.31796 -0.70116,1.64055c-0.34733,0.19388 -0.75873,0.23764 -1.13907,0.12118c-0.38034,-0.11646 -0.6967,-0.38307 -0.87593,-0.73818c-0.34764,-0.69686 -0.08715,-1.54391 0.592,-1.925c0.21706,-0.1211 0.46144,-0.18478 0.71,-0.185M7.08,8.227c0.25138,0.04904 0.46782,0.20758 0.59041,0.43245c0.12259,0.22488 0.13857,0.49269 0.04359,0.73055c-0.16953,0.41769 -0.63394,0.63232 -1.06193,0.49079c-0.42798,-0.14154 -0.67286,-0.59074 -0.55994,-1.02714c0.11292,-0.43641 0.54494,-0.71046 0.98786,-0.62664M3.982,6.73c0.17598,0.03429 0.32751,0.14523 0.41336,0.30262c0.08585,0.15739 0.09708,0.34486 0.03064,0.51138c-0.06746,0.16661 -0.20607,0.2942 -0.37769,0.34766c-0.17162,0.05346 -0.35816,0.02716 -0.50831,-0.07166c-0.27604,-0.18224 -0.35252,-0.55349 -0.171,-0.83c0.13308,-0.2025 0.37491,-0.30507 0.613,-0.26M20.638,6.935c0.15018,0.21068 0.14811,0.49397 -0.00511,0.70244c-0.15323,0.20847 -0.42298,0.295 -0.66889,0.21456c-0.0561,-0.01942 -0.10901,-0.04705 -0.157,-0.082l0.794,-0.793c0.01333,-0.01333 0.02567,-0.02733 0.037,-0.042M11.726,5.308c0.32671,-0.11246 0.68899,-0.01798 0.91917,0.23971c0.23017,0.25769 0.28332,0.6283 0.13483,0.94029c-0.16733,0.35158 -0.55042,0.5464 -0.93309,0.47454c-0.38267,-0.07186 -0.66898,-0.3924 -0.69736,-0.78073c-0.02838,-0.38833 0.20829,-0.74708 0.57645,-0.87381M7.994,4.696c0.28359,-0.0781 0.58635,0.02164 0.768,0.253c0.19758,0.25261 0.20659,0.60475 0.02218,0.86713c-0.18441,0.26238 -0.51879,0.37318 -0.82339,0.27283c-0.3046,-0.10034 -0.50765,-0.38819 -0.50001,-0.7088c0.00764,-0.32061 0.22419,-0.59845 0.53322,-0.68417M15.958,4.663c0.21411,0.04086 0.39875,0.17527 0.50344,0.36645c0.10469,0.19118 0.11846,0.41915 0.03756,0.62155c-0.14361,0.35558 -0.53845,0.53879 -0.9027,0.41885c-0.36425,-0.11994 -0.57301,-0.50188 -0.47727,-0.87323c0.09574,-0.37135 0.46314,-0.60475 0.83997,-0.53362M6.697,2.593c0.23075,-0.05726 0.46814,0.06567 0.55456,0.28716c0.08642,0.22149 -0.005,0.4727 -0.21356,0.58684c-0.2337,0.11704 -0.51806,0.02374 -0.637,-0.209c-0.06236,-0.12612 -0.06534,-0.27346 -0.00813,-0.40199c0.05721,-0.12854 0.16868,-0.22493 0.30413,-0.26301M17.265,2.56c0.18633,0.0375 0.33299,0.18141 0.374,0.367c0.0533,0.25488 -0.11012,0.5047 -0.365,0.558c-0.25488,0.0533 -0.5047,-0.11012 -0.558,-0.365c-0.03152,-0.15404 0.01557,-0.31366 0.12564,-0.42594c0.11007,-0.11227 0.26873,-0.16252 0.42336,-0.13406M11.802,2.034c0.22909,-0.08048 0.48409,-0.01495 0.646,0.166c0.11873,0.13429 0.17145,0.3145 0.1438,0.49161c-0.02765,0.17711 -0.13278,0.33268 -0.2868,0.42439c-0.2465,0.1453 -0.5613,0.09632 -0.752,-0.117c-0.13298,-0.14952 -0.18266,-0.3555 -0.13248,-0.5492c0.05018,-0.19371 0.19363,-0.34965 0.38248,-0.4158" fill="#62757e"></path></g>
  </g>
  <g id="Regular-S" transform="matrix(3.915 0 0 3.915 1402.75 614)">
    <defs><clipPath id="clip-1"><rect x="0" y="0" width="24" height="24" fill="none"></rect></clipPath></defs>
<g clip-path="url(#clip-1)" fill="none" fill-rule="nonzero" stroke="none" stroke-width="1" stroke-linecap="butt" stroke-linejoin="miter" stroke-miterlimit="10" stroke-dasharray="" stroke-dashoffset="0" font-family="none" font-weight="none" font-size="none" text-anchor="none" style="mix-blend-mode: normal"><path d="M12.015,20.801c0.24232,0.01405 0.45231,0.17273 0.532,0.402c0.0863,0.24918 -0.00051,0.5255 -0.21382,0.68055c-0.21331,0.15505 -0.50292,0.15237 -0.71332,-0.00662c-0.21039,-0.15898 -0.29207,-0.43686 -0.20116,-0.6844c0.09091,-0.24754 0.33301,-0.40651 0.5963,-0.39154M7.125,20.581c0.21664,0.14424 0.27646,0.43618 0.134,0.654c-0.09615,0.14777 -0.26691,0.22931 -0.44227,0.21118c-0.17536,-0.01813 -0.32584,-0.13287 -0.38973,-0.29718l0.61,-0.61c0.03067,0.01067 0.05967,0.025 0.087,0.043M17.181,20.484c0.18932,-0.01145 0.36763,0.08966 0.455,0.258c0.08649,0.17005 0.06159,0.37552 -0.063,0.52c-0.09256,0.10627 -0.2276,0.16585 -0.36849,0.16256c-0.14089,-0.00329 -0.27301,-0.06909 -0.36051,-0.17956c-0.10578,-0.13742 -0.12788,-0.32171 -0.05758,-0.48025c0.0703,-0.15853 0.22171,-0.26589 0.39458,-0.27975M19.399,3.4c0.21125,-0.22998 0.5316,-0.32561 0.83435,-0.24906c0.30275,0.07655 0.53915,0.31295 0.6157,0.6157c0.07655,0.30275 -0.01907,0.6231 -0.24906,0.83435l-16,16c-0.3354,0.30808 -0.85402,0.29708 -1.17605,-0.02495c-0.32203,-0.32203 -0.33303,-0.84065 -0.02495,-1.17605l3.59,-3.59c-0.25474,0.01604 -0.50344,-0.08191 -0.67883,-0.26735c-0.17539,-0.18544 -0.25935,-0.4392 -0.22917,-0.69265c0.07083,-0.44757 0.4775,-0.7629 0.92861,-0.72004c0.45111,0.04286 0.79112,0.42913 0.77639,0.88204l4.939,-4.938l-0.066,-0.066c-0.30375,-0.33153 -0.4378,-0.78453 -0.36337,-1.22796c0.07443,-0.44344 0.34903,-0.82785 0.74437,-1.04204c0.50938,-0.27336 1.13207,-0.22042 1.588,0.135c0.056,0.04333 0.10767,0.09033 0.155,0.141zM8.944,18.633c-0.00431,0.28708 -0.1765,0.54497 -0.44,0.659c-0.08678,0.03622 -0.17997,0.05459 -0.274,0.054zM15.799,17.877c0.29332,-0.02209 0.57125,0.13402 0.705,0.396c0.14582,0.28626 0.08706,0.63424 -0.14468,0.85674c-0.23174,0.2225 -0.58181,0.26708 -0.86191,0.10974c-0.2801,-0.15733 -0.42419,-0.47948 -0.35476,-0.79315c0.06943,-0.31367 0.33602,-0.54491 0.65635,-0.56934M12.021,17.029c0.47276,0.02817 0.83317,0.43424 0.805,0.907c-0.02817,0.47276 -0.43424,0.83317 -0.907,0.805c-0.47276,-0.02817 -0.83317,-0.43424 -0.805,-0.907c0.02817,-0.47276 0.43424,-0.83317 0.907,-0.805M3.846,16.121c0.24163,-0.01811 0.47043,0.11089 0.58,0.327c0.08002,0.16058 0.08437,0.34845 0.01188,0.51257c-0.07249,0.16412 -0.21429,0.28743 -0.38688,0.33643c-0.22044,0.06216 -0.45704,-0.00661 -0.60982,-0.17724c-0.15278,-0.17063 -0.1951,-0.41336 -0.10906,-0.62563c0.08604,-0.21226 0.28541,-0.35703 0.51388,-0.37313M20.167,16.083c0.28612,-0.00274 0.53436,0.19694 0.593,0.477c0.05817,0.27983 -0.08911,0.56185 -0.352,0.674c-0.16541,0.06948 -0.35319,0.06156 -0.51217,-0.02161c-0.15897,-0.08316 -0.27257,-0.2329 -0.30983,-0.40839c-0.03615,-0.17551 0.00804,-0.35798 0.12047,-0.49751c0.11243,-0.13953 0.28135,-0.2215 0.46053,-0.22349M14.032,13.545c0.43895,0.08766 0.81343,0.37184 1.016,0.771c0.28875,0.57721 0.16396,1.27554 -0.30682,1.71702c-0.47079,0.44148 -1.1757,0.52119 -1.73318,0.19598c-0.35705,-0.2115 -0.60723,-0.56495 -0.688,-0.972zM17.117,14.074c0.47331,-0.00414 0.86036,0.37619 0.8645,0.8495c0.00414,0.47331 -0.37619,0.86036 -0.8495,0.8645c-0.47331,0.00414 -0.86036,-0.37619 -0.8645,-0.8495c-0.00414,-0.47331 0.37619,-0.86036 0.8495,-0.8645M8.08,10.64c0.54658,-0.19881 1.15902,-0.05424 1.559,0.368c0.39939,0.42296 0.50914,1.04287 0.27922,1.57724c-0.22992,0.53437 -0.75549,0.88093 -1.33722,0.88176h-0.079c-0.80457,-0.0483 -1.41852,-0.73826 -1.373,-1.543l-0.004,0.001c0.03416,-0.58025 0.40926,-1.08496 0.955,-1.285M16.548,11.027c0.27962,0.31827 0.4072,0.74231 0.34962,1.16204c-0.05758,0.41973 -0.29463,0.79374 -0.64962,1.02496c-0.23598,0.1526 -0.51098,0.23385 -0.792,0.234h-0.085c-0.32577,-0.01957 -0.63559,-0.14772 -0.88,-0.364zM4.426,11.29c0.40103,0.02363 0.70761,0.36685 0.686,0.768c-0.02272,0.40138 -0.3665,0.70836 -0.76788,0.6857c-0.40138,-0.02267 -0.70841,-0.3664 -0.68581,-0.76778c0.02261,-0.40139 0.36629,-0.70847 0.76768,-0.68591M19.555,11.263c0.32725,-0.04718 0.64527,0.13178 0.77478,0.43599c0.12951,0.30421 0.03807,0.65749 -0.22277,0.86066c-0.26084,0.20318 -0.62575,0.20537 -0.88901,0.00535c-0.1733,-0.13156 -0.27888,-0.33356 -0.28797,-0.55094c-0.00909,-0.21738 0.07926,-0.42749 0.24097,-0.57306c0.10761,-0.09595 0.24123,-0.15789 0.384,-0.178M1.695,11.555c0.2594,0.01557 0.45765,0.23749 0.444,0.497c-0.0153,0.25892 -0.23746,0.4565 -0.49639,0.44148c-0.25894,-0.01502 -0.45676,-0.23696 -0.44203,-0.49591c0.01473,-0.25895 0.23645,-0.45702 0.49542,-0.44257M22.4,11.507c0.2589,0.01715 0.45613,0.23887 0.443,0.498c-0.01087,0.19072 -0.13562,0.35609 -0.31603,0.41891c-0.18041,0.06282 -0.38089,0.01069 -0.50786,-0.13204c-0.12697,-0.14273 -0.15538,-0.34792 -0.07198,-0.51979c0.08341,-0.17186 0.26218,-0.27651 0.45287,-0.26508M10.296,7.574c0.66446,-0.00347 1.24686,0.44364 1.41516,1.08645c0.1683,0.6428 -0.12026,1.31796 -0.70116,1.64055c-0.34733,0.19388 -0.75873,0.23764 -1.13907,0.12118c-0.38034,-0.11646 -0.6967,-0.38307 -0.87593,-0.73818c-0.34764,-0.69686 -0.08715,-1.54391 0.592,-1.925c0.21706,-0.1211 0.46144,-0.18478 0.71,-0.185M7.08,8.227c0.25138,0.04904 0.46782,0.20758 0.59041,0.43245c0.12259,0.22488 0.13857,0.49269 0.04359,0.73055c-0.16953,0.41769 -0.63394,0.63232 -1.06193,0.49079c-0.42798,-0.14154 -0.67286,-0.59074 -0.55994,-1.02714c0.11292,-0.43641 0.54494,-0.71046 0.98786,-0.62664M3.982,6.73c0.17598,0.03429 0.32751,0.14523 0.41336,0.30262c0.08585,0.15739 0.09708,0.34486 0.03064,0.51138c-0.06746,0.16661 -0.20607,0.2942 -0.37769,0.34766c-0.17162,0.05346 -0.35816,0.02716 -0.50831,-0.07166c-0.27604,-0.18224 -0.35252,-0.55349 -0.171,-0.83c0.13308,-0.2025 0.37491,-0.30507 0.613,-0.26M20.638,6.935c0.15018,0.21068 0.14811,0.49397 -0.00511,0.70244c-0.15323,0.20847 -0.42298,0.295 -0.66889,0.21456c-0.0561,-0.01942 -0.10901,-0.04705 -0.157,-0.082l0.794,-0.793c0.01333,-0.01333 0.02567,-0.02733 0.037,-0.042M11.726,5.308c0.32671,-0.11246 0.68899,-0.01798 0.91917,0.23971c0.23017,0.25769 0.28332,0.6283 0.13483,0.94029c-0.16733,0.35158 -0.55042,0.5464 -0.93309,0.47454c-0.38267,-0.07186 -0.66898,-0.3924 -0.69736,-0.78073c-0.02838,-0.38833 0.20829,-0.74708 0.57645,-0.87381M7.994,4.696c0.28359,-0.0781 0.58635,0.02164 0.768,0.253c0.19758,0.25261 0.20659,0.60475 0.02218,0.86713c-0.18441,0.26238 -0.51879,0.37318 -0.82339,0.27283c-0.3046,-0.10034 -0.50765,-0.38819 -0.50001,-0.7088c0.00764,-0.32061 0.22419,-0.59845 0.53322,-0.68417M15.958,4.663c0.21411,0.04086 0.39875,0.17527 0.50344,0.36645c0.10469,0.19118 0.11846,0.41915 0.03756,0.62155c-0.14361,0.35558 -0.53845,0.53879 -0.9027,0.41885c-0.36425,-0.11994 -0.57301,-0.50188 -0.47727,-0.87323c0.09574,-0.37135 0.46314,-0.60475 0.83997,-0.53362M6.697,2.593c0.23075,-0.05726 0.46814,0.06567 0.55456,0.28716c0.08642,0.22149 -0.005,0.4727 -0.21356,0.58684c-0.2337,0.11704 -0.51806,0.02374 -0.637,-0.209c-0.06236,-0.12612 -0.06534,-0.27346 -0.00813,-0.40199c0.05721,-0.12854 0.16868,-0.22493 0.30413,-0.26301M17.265,2.56c0.18633,0.0375 0.33299,0.18141 0.374,0.367c0.0533,0.25488 -0.11012,0.5047 -0.365,0.558c-0.25488,0.0533 -0.5047,-0.11012 -0.558,-0.365c-0.03152,-0.15404 0.01557,-0.31366 0.12564,-0.42594c0.11007,-0.11227 0.26873,-0.16252 0.42336,-0.13406M11.802,2.034c0.22909,-0.08048 0.48409,-0.01495 0.646,0.166c0.11873,0.13429 0.17145,0.3145 0.1438,0.49161c-0.02765,0.17711 -0.13278,0.33268 -0.2868,0.42439c-0.2465,0.1453 -0.5613,0.09632 -0.752,-0.117c-0.13298,-0.14952 -0.18266,-0.3555 -0.13248,-0.5492c0.05018,-0.19371 0.19363,-0.34965 0.38248,-0.4158" fill="#62757e"></path></g>
  </g>
 </g>
</svg>
