<?xml version="1.0" encoding="UTF-8"?>
<!--Generator: Apple Native CoreSVG 175.5-->
<!DOCTYPE svg
PUBLIC "-//W3C//DTD SVG 1.1//EN"
       "http://www.w3.org/Graphics/SVG/1.1/DTD/svg11.dtd">
<svg version="1.1" xmlns="http://www.w3.org/2000/svg" xmlns:xlink="http://www.w3.org/1999/xlink" width="3300" height="2200">
 <!--glyph: "", point size: 100.0, font version: "18.0d12e2", template writer version: "101"-->
 <g id="Notes">
  <rect height="2200" id="artboard" style="fill:white;opacity:1" width="3300" x="0" y="0"/>
  <line style="fill:none;stroke:black;opacity:1;stroke-width:0.5;" x1="263" x2="3036" y1="292" y2="292"/>
  <text style="stroke:none;fill:black;font-family:sans-serif;font-size:13;font-weight:bold;" transform="matrix(1 0 0 1 263 322)">Weight/Scale Variations</text>
  <text style="stroke:none;fill:black;font-family:sans-serif;font-size:13;text-anchor:middle;" transform="matrix(1 0 0 1 559.711 322)">Ultralight</text>
  <text style="stroke:none;fill:black;font-family:sans-serif;font-size:13;text-anchor:middle;" transform="matrix(1 0 0 1 856.422 322)">Thin</text>
  <text style="stroke:none;fill:black;font-family:sans-serif;font-size:13;text-anchor:middle;" transform="matrix(1 0 0 1 1153.13 322)">Light</text>
  <text style="stroke:none;fill:black;font-family:sans-serif;font-size:13;text-anchor:middle;" transform="matrix(1 0 0 1 1449.84 322)">Regular</text>
  <text style="stroke:none;fill:black;font-family:sans-serif;font-size:13;text-anchor:middle;" transform="matrix(1 0 0 1 1746.56 322)">Medium</text>
  <text style="stroke:none;fill:black;font-family:sans-serif;font-size:13;text-anchor:middle;" transform="matrix(1 0 0 1 2043.27 322)">Semibold</text>
  <text style="stroke:none;fill:black;font-family:sans-serif;font-size:13;text-anchor:middle;" transform="matrix(1 0 0 1 2339.98 322)">Bold</text>
  <text style="stroke:none;fill:black;font-family:sans-serif;font-size:13;text-anchor:middle;" transform="matrix(1 0 0 1 2636.69 322)">Heavy</text>
  <text style="stroke:none;fill:black;font-family:sans-serif;font-size:13;text-anchor:middle;" transform="matrix(1 0 0 1 2933.4 322)">Black</text>
  <line style="fill:none;stroke:black;opacity:1;stroke-width:0.5;" x1="263" x2="3036" y1="1903" y2="1903"/>
  <g transform="matrix(1 0 0 1 263 1933)">
   <path d="M9.24805 0.830078C13.5547 0.830078 17.1387-2.74414 17.1387-7.05078C17.1387-11.3574 13.5449-14.9316 9.23828-14.9316C4.94141-14.9316 1.36719-11.3574 1.36719-7.05078C1.36719-2.74414 4.95117 0.830078 9.24805 0.830078ZM9.24805-0.654297C5.70312-0.654297 2.87109-3.49609 2.87109-7.05078C2.87109-10.6055 5.69336-13.4473 9.23828-13.4473C12.793-13.4473 15.6445-10.6055 15.6445-7.05078C15.6445-3.49609 12.8027-0.654297 9.24805-0.654297ZM5.6543-7.05078C5.6543-6.62109 5.95703-6.32812 6.40625-6.32812L8.50586-6.32812L8.50586-4.20898C8.50586-3.76953 8.79883-3.4668 9.22852-3.4668C9.67773-3.4668 9.9707-3.76953 9.9707-4.20898L9.9707-6.32812L12.0898-6.32812C12.5293-6.32812 12.832-6.62109 12.832-7.05078C12.832-7.49023 12.5293-7.79297 12.0898-7.79297L9.9707-7.79297L9.9707-9.90234C9.9707-10.3516 9.67773-10.6543 9.22852-10.6543C8.79883-10.6543 8.50586-10.3516 8.50586-9.90234L8.50586-7.79297L6.40625-7.79297C5.95703-7.79297 5.6543-7.49023 5.6543-7.05078Z"/>
  </g>
  <g transform="matrix(1 0 0 1 281.867 1933)">
   <path d="M11.709 2.91016C17.1582 2.91016 21.6699-1.61133 21.6699-7.05078C21.6699-12.5 17.1484-17.0117 11.6992-17.0117C6.25977-17.0117 1.74805-12.5 1.74805-7.05078C1.74805-1.61133 6.26953 2.91016 11.709 2.91016ZM11.709 1.25C7.09961 1.25 3.41797-2.44141 3.41797-7.05078C3.41797-11.6602 7.08984-15.3516 11.6992-15.3516C16.3086-15.3516 20.0098-11.6602 20.0098-7.05078C20.0098-2.44141 16.3184 1.25 11.709 1.25ZM7.17773-7.05078C7.17773-6.57227 7.50977-6.25 8.00781-6.25L10.8789-6.25L10.8789-3.36914C10.8789-2.88086 11.2109-2.53906 11.6895-2.53906C12.1777-2.53906 12.5195-2.87109 12.5195-3.36914L12.5195-6.25L15.4004-6.25C15.8887-6.25 16.2305-6.57227 16.2305-7.05078C16.2305-7.53906 15.8887-7.88086 15.4004-7.88086L12.5195-7.88086L12.5195-10.752C12.5195-11.25 12.1777-11.5918 11.6895-11.5918C11.2109-11.5918 10.8789-11.25 10.8789-10.752L10.8789-7.88086L8.00781-7.88086C7.50977-7.88086 7.17773-7.53906 7.17773-7.05078Z"/>
  </g>
  <g transform="matrix(1 0 0 1 305.646 1933)">
   <path d="M14.9707 5.66406C21.9336 5.66406 27.6953-0.0976562 27.6953-7.05078C27.6953-14.0137 21.9238-19.7754 14.9609-19.7754C8.00781-19.7754 2.25586-14.0137 2.25586-7.05078C2.25586-0.0976562 8.01758 5.66406 14.9707 5.66406ZM14.9707 3.84766C8.93555 3.84766 4.08203-1.01562 4.08203-7.05078C4.08203-13.0957 8.92578-17.9492 14.9609-17.9492C21.0059-17.9492 25.8691-13.0957 25.8691-7.05078C25.8691-1.01562 21.0156 3.84766 14.9707 3.84766ZM9.19922-7.05078C9.19922-6.5332 9.57031-6.17188 10.1172-6.17188L14.0625-6.17188L14.0625-2.2168C14.0625-1.67969 14.4336-1.29883 14.9512-1.29883C15.4883-1.29883 15.8594-1.66992 15.8594-2.2168L15.8594-6.17188L19.8145-6.17188C20.3516-6.17188 20.7324-6.5332 20.7324-7.05078C20.7324-7.59766 20.3613-7.96875 19.8145-7.96875L15.8594-7.96875L15.8594-11.9141C15.8594-12.4609 15.4883-12.8418 14.9512-12.8418C14.4336-12.8418 14.0625-12.4609 14.0625-11.9141L14.0625-7.96875L10.1172-7.96875C9.57031-7.96875 9.19922-7.59766 9.19922-7.05078Z"/>
  </g>
  <text style="stroke:none;fill:black;font-family:sans-serif;font-size:13;font-weight:bold;" transform="matrix(1 0 0 1 263 1953)">Design Variations</text>
  <text style="stroke:none;fill:black;font-family:sans-serif;font-size:13;" transform="matrix(1 0 0 1 263 1971)">Symbols are supported in up to nine weights and three scales.</text>
  <text style="stroke:none;fill:black;font-family:sans-serif;font-size:13;" transform="matrix(1 0 0 1 263 1989)">For optimal layout with text and other symbols, vertically align</text>
  <text style="stroke:none;fill:black;font-family:sans-serif;font-size:13;" transform="matrix(1 0 0 1 263 2007)">symbols with the adjacent text.</text>
  <line style="fill:none;stroke:#00AEEF;stroke-width:0.5;opacity:1.0;" x1="776" x2="776" y1="1919" y2="1933"/>
  <g transform="matrix(1 0 0 1 776 1933)">
   <path d="M3.31055 0.15625C3.82812 0.15625 4.08203-0.0390625 4.26758-0.585938L5.52734-4.0332L11.2891-4.0332L12.5488-0.585938C12.7344-0.0390625 12.9883 0.15625 13.4961 0.15625C14.0137 0.15625 14.3457-0.15625 14.3457-0.644531C14.3457-0.810547 14.3164-0.966797 14.2383-1.17188L9.6582-13.3691C9.43359-13.9648 9.0332-14.2676 8.4082-14.2676C7.80273-14.2676 7.39258-13.9746 7.17773-13.3789L2.59766-1.16211C2.51953-0.957031 2.49023-0.800781 2.49023-0.634766C2.49023-0.146484 2.80273 0.15625 3.31055 0.15625ZM6.00586-5.51758L8.37891-12.0898L8.42773-12.0898L10.8008-5.51758Z"/>
  </g>
  <line style="fill:none;stroke:#00AEEF;stroke-width:0.5;opacity:1.0;" x1="793.197" x2="793.197" y1="1919" y2="1933"/>
  <text style="stroke:none;fill:black;font-family:sans-serif;font-size:13;font-weight:bold;" transform="matrix(1 0 0 1 776 1953)">Margins</text>
  <text style="stroke:none;fill:black;font-family:sans-serif;font-size:13;" transform="matrix(1 0 0 1 776 1971)">Leading and trailing margins on the left and right side of each symbol</text>
  <text style="stroke:none;fill:black;font-family:sans-serif;font-size:13;" transform="matrix(1 0 0 1 776 1989)">can be adjusted by modifying the x-location of the margin guidelines.</text>
  <text style="stroke:none;fill:black;font-family:sans-serif;font-size:13;" transform="matrix(1 0 0 1 776 2007)">Modifications are automatically applied proportionally to all</text>
  <text style="stroke:none;fill:black;font-family:sans-serif;font-size:13;" transform="matrix(1 0 0 1 776 2025)">scales and weights.</text>
  <g transform="matrix(1 0 0 1 1289 1933)">
   <path d="M2.8418 1.86523L4.54102 3.57422C5.40039 4.44336 6.38672 4.38477 7.31445 3.35938L18.0078-8.42773L17.041-9.4043L6.42578 2.27539C6.07422 2.67578 5.74219 2.77344 5.27344 2.30469L4.10156 1.14258C3.63281 0.683594 3.74023 0.341797 4.14062-0.0195312L15.6152-10.8203L14.6387-11.7871L3.04688-0.898438C2.06055 0.0195312 1.98242 0.996094 2.8418 1.86523ZM9.25781-16.3281C8.83789-15.918 8.80859-15.3418 9.04297-14.9512C9.27734-14.5898 9.73633-14.3555 10.3809-14.5215C11.8457-14.8633 13.3691-14.9219 14.7949-13.9844L14.209-12.5293C13.8672-11.6992 14.043-11.1133 14.5801-10.5664L16.875-8.25195C17.3633-7.76367 17.7734-7.74414 18.3398-7.8418L19.4043-8.03711L20.0684-7.36328L20.0293-6.80664C19.9902-6.30859 20.1172-5.92773 20.6055-5.44922L21.3672-4.70703C21.8457-4.22852 22.4609-4.19922 22.9297-4.66797L25.8398-7.58789C26.3086-8.05664 26.2891-8.65234 25.8105-9.13086L25.0391-9.89258C24.5605-10.3711 24.1895-10.5273 23.7109-10.4883L23.1348-10.4395L22.4902-11.0742L22.7344-12.1973C22.8613-12.7637 22.7051-13.2031 22.1191-13.7891L19.9219-15.9766C16.582-19.2969 12.1484-19.2188 9.25781-16.3281ZM10.752-15.957C13.1836-17.7344 16.4746-17.4316 18.7012-15.2051L21.1328-12.793C21.3672-12.5586 21.4062-12.373 21.3379-12.0312L21.0156-10.5469L22.5195-9.0625L23.5059-9.12109C23.7598-9.13086 23.8379-9.11133 24.0332-8.91602L24.6094-8.33984L22.168-5.89844L21.5918-6.47461C21.3965-6.66992 21.3672-6.74805 21.377-7.01172L21.4453-7.98828L19.9512-9.47266L18.4277-9.21875C18.1055-9.15039 17.959-9.17969 17.7148-9.41406L15.7129-11.416C15.459-11.6504 15.4297-11.8164 15.5859-12.1875L16.4648-14.2773C14.9023-15.7324 12.8711-16.3574 10.8398-15.7617C10.6836-15.7227 10.625-15.8496 10.752-15.957Z"/>
  </g>
  <text style="stroke:none;fill:black;font-family:sans-serif;font-size:13;font-weight:bold;" transform="matrix(1 0 0 1 1289 1953)">Exporting</text>
  <text style="stroke:none;fill:black;font-family:sans-serif;font-size:13;" transform="matrix(1 0 0 1 1289 1971)">Symbols should be outlined when exporting to ensure the</text>
  <text style="stroke:none;fill:black;font-family:sans-serif;font-size:13;" transform="matrix(1 0 0 1 1289 1989)">design is preserved when submitting to Xcode.</text>
  <text id="template-version" style="stroke:none;fill:black;font-family:sans-serif;font-size:13;text-anchor:end;" transform="matrix(1 0 0 1 3036 1933)">Template v.4.0</text>
  <text style="stroke:none;fill:black;font-family:sans-serif;font-size:13;text-anchor:end;" transform="matrix(1 0 0 1 3036 1951)">Requires Xcode 14 or greater</text>
  <text id="descriptive-name" style="stroke:none;fill:black;font-family:sans-serif;font-size:13;text-anchor:end;" transform="matrix(1 0 0 1 3036 1969)">Generated from brave.zzz</text>
  <text style="stroke:none;fill:black;font-family:sans-serif;font-size:13;text-anchor:end;" transform="matrix(1 0 0 1 3036 1987)">Typeset at 100 points</text>
  <text style="stroke:none;fill:black;font-family:sans-serif;font-size:13;" transform="matrix(1 0 0 1 263 726)">Small</text>
  <text style="stroke:none;fill:black;font-family:sans-serif;font-size:13;" transform="matrix(1 0 0 1 263 1156)">Medium</text>
  <text style="stroke:none;fill:black;font-family:sans-serif;font-size:13;" transform="matrix(1 0 0 1 263 1586)">Large</text>
 </g>
 <g id="Guides">
  <g id="H-reference" style="fill:#27AAE1;stroke:none;" transform="matrix(1 0 0 1 339 696)">
   <path d="M0.993654 0L3.63775 0L29.3281-67.1323L30.0303-67.1323L30.0303-70.459L28.1226-70.459ZM11.6885-24.4799L46.9815-24.4799L46.2315-26.7285L12.4385-26.7285ZM55.1196 0L57.7637 0L30.6382-70.459L29.4326-70.459L29.4326-67.1323Z"/>
  </g>
  <line id="Baseline-S" style="fill:none;stroke:#27AAE1;opacity:1;stroke-width:0.5;" x1="263" x2="3036" y1="696" y2="696"/>
  <line id="Capline-S" style="fill:none;stroke:#27AAE1;opacity:1;stroke-width:0.5;" x1="263" x2="3036" y1="625.541" y2="625.541"/>
  <g id="H-reference" style="fill:#27AAE1;stroke:none;" transform="matrix(1 0 0 1 339 1126)">
   <path d="M0.993654 0L3.63775 0L29.3281-67.1323L30.0303-67.1323L30.0303-70.459L28.1226-70.459ZM11.6885-24.4799L46.9815-24.4799L46.2315-26.7285L12.4385-26.7285ZM55.1196 0L57.7637 0L30.6382-70.459L29.4326-70.459L29.4326-67.1323Z"/>
  </g>
  <line id="Baseline-M" style="fill:none;stroke:#27AAE1;opacity:1;stroke-width:0.5;" x1="263" x2="3036" y1="1126" y2="1126"/>
  <line id="Capline-M" style="fill:none;stroke:#27AAE1;opacity:1;stroke-width:0.5;" x1="263" x2="3036" y1="1055.54" y2="1055.54"/>
  <g id="H-reference" style="fill:#27AAE1;stroke:none;" transform="matrix(1 0 0 1 339 1556)">
   <path d="M0.993654 0L3.63775 0L29.3281-67.1323L30.0303-67.1323L30.0303-70.459L28.1226-70.459ZM11.6885-24.4799L46.9815-24.4799L46.2315-26.7285L12.4385-26.7285ZM55.1196 0L57.7637 0L30.6382-70.459L29.4326-70.459L29.4326-67.1323Z"/>
  </g>
  <line id="Baseline-L" style="fill:none;stroke:#27AAE1;opacity:1;stroke-width:0.5;" x1="263" x2="3036" y1="1556" y2="1556"/>
  <line id="Capline-L" style="fill:none;stroke:#27AAE1;opacity:1;stroke-width:0.5;" x1="263" x2="3036" y1="1485.54" y2="1485.54"/>
  <line id="left-margin-Regular-M" style="fill:none;stroke:#00AEEF;stroke-width:0.5;opacity:1.0;" x1="1389.82" x2="1389.82" y1="1030.79" y2="1150.12"/>
  <line id="right-margin-Regular-M" style="fill:none;stroke:#00AEEF;stroke-width:0.5;opacity:1.0;" x1="1509.87" x2="1509.87" y1="1030.79" y2="1150.12"/>
 </g>
 <g id="Symbols">
  <g id="Regular-L" transform="matrix(6.45 0 0 6.45 1372.2675 1443)">
    <defs><clipPath id="clip-1"><rect x="0" y="0" width="24" height="24" fill="none" fill-rule="nonzero"></rect></clipPath></defs>
<g clip-path="url(#clip-1)" fill="none" fill-rule="none" stroke="none" stroke-width="1" stroke-linecap="butt" stroke-linejoin="miter" stroke-miterlimit="10" stroke-dasharray="" stroke-dashoffset="0" font-family="none" font-weight="none" font-size="none" text-anchor="none" style="mix-blend-mode: normal"><path d="M20.69,8.47l-0.629,-1.675l0.438,-0.962c0.05612,-0.12439 0.02856,-0.27058 -0.069,-0.366l-1.188,-1.18c-0.52548,-0.5167 -1.29767,-0.69243 -1.995,-0.454l-0.332,0.113l-1.737,-1.946h-6.385l-1.713,1.97l-0.323,-0.112c-0.70381,-0.24317 -1.48466,-0.06474 -2.013,0.46l-1.21,1.2c-0.07782,0.07618 -0.09943,0.19302 -0.054,0.292l0.456,0.998l-0.625,1.674l0.405,1.51l1.844,6.878c0.21533,0.79684 0.70512,1.49204 1.383,1.963c0,0 2.24,1.549 4.45,2.956c0.195,0.124 0.398,0.214 0.617,0.21c0.218,0.004 0.421,-0.086 0.615,-0.21c1.49836,-0.96306 2.98089,-1.95053 4.447,-2.962c0.6772,-0.47234 1.16592,-1.16858 1.38,-1.966l1.836,-6.88l0.404,-1.512z" fill="#666d89" fill-rule="nonzero"></path><path d="M18.728,8.801l-0.03,0.09l-0.045,0.16c-0.122,0.15 -0.38,0.437 -0.573,0.638l-1.773,1.848c-0.193,0.201 -0.302,0.453 -0.192,0.707l0.24,0.578c0.109,0.254 0.12,0.674 0.014,0.956c-0.107,0.287 -0.291,0.54 -0.533,0.734l-0.185,0.148c-0.25057,0.17842 -0.57491,0.21651 -0.86,0.101l-0.816,-0.38c-0.3022,-0.14913 -0.58553,-0.33376 -0.844,-0.55l-0.773,-0.681c-0.07208,-0.06291 -0.115,-0.15279 -0.11859,-0.2484c-0.0036,-0.09561 0.03244,-0.18846 0.09959,-0.2566l1.883,-1.245c0.233,-0.154 0.357,-0.44 0.224,-0.683l-0.67,-1.194c-0.132,-0.243 -0.185,-0.567 -0.117,-0.719c0.068,-0.152 0.339,-0.356 0.602,-0.454l2.185,-0.796c0.264,-0.097 0.25,-0.198 -0.031,-0.224l-1.396,-0.102c-0.28,-0.026 -0.486,0.014 -0.758,0.088l-1.056,0.257c-0.272,0.074 -0.329,0.357 -0.278,0.628l0.436,2.317c0.05,0.271 0.076,0.545 0.055,0.607c-0.02,0.063 -0.261,0.164 -0.536,0.225l-0.362,0.08c-0.33029,0.06155 -0.66888,0.06392 -1,0.007l-0.437,-0.091c-0.276,-0.058 -0.518,-0.156 -0.539,-0.219c-0.02,-0.063 0.005,-0.336 0.056,-0.607l0.433,-2.318c0.05,-0.271 -0.007,-0.554 -0.278,-0.628l-1.057,-0.254c-0.272,-0.074 -0.478,-0.113 -0.758,-0.087l-1.396,0.103c-0.28,0.026 -0.295,0.127 -0.031,0.224l2.186,0.794c0.263,0.097 0.535,0.301 0.603,0.453c0.068,0.152 0.015,0.476 -0.117,0.72l-0.668,1.193c-0.132,0.244 -0.009,0.53 0.225,0.683l1.884,1.243c0.06755,0.06787 0.10395,0.16071 0.10054,0.2564c-0.00341,0.0957 -0.04633,0.1857 -0.11854,0.2486l-0.773,0.682c-0.25778,0.21674 -0.54043,0.40204 -0.842,0.552l-0.817,0.381c-0.28497,0.11542 -0.60911,0.07773 -0.86,-0.1l-0.184,-0.148c-0.24678,-0.19755 -0.4346,-0.45905 -0.543,-0.756c-0.09614,-0.30486 -0.0884,-0.63301 0.022,-0.933l0.24,-0.578c0.109,-0.255 0,-0.507 -0.194,-0.708l-1.775,-1.847c-0.193,-0.2 -0.451,-0.487 -0.574,-0.636l-0.046,-0.16l-0.029,-0.09c-0.002,-0.104 0.035,-0.433 0.078,-0.522c0.043,-0.088 0.207,-0.348 0.365,-0.577l0.38,-0.55c0.157,-0.23 0.43,-0.593 0.606,-0.808l0.557,-0.684c0.175,-0.216 0.325,-0.392 0.347,-0.39c0.001,-0.002 0.229,0.04 0.505,0.092l0.844,0.158l0.678,0.127c0.096,0.018 0.395,-0.037 0.663,-0.122l0.606,-0.192c0.268,-0.086 0.675,-0.198 0.904,-0.25l0.212,0.003l0.212,-0.003c0.23,0.052 0.636,0.163 0.904,0.248l0.607,0.192c0.268,0.085 0.566,0.14 0.663,0.122l0.56,-0.106l0.118,-0.022l0.843,-0.16c0.277,-0.052 0.504,-0.094 0.52,-0.093c0.008,0 0.157,0.174 0.333,0.39l0.558,0.683c0.176,0.216 0.449,0.579 0.607,0.807l0.38,0.55c0.159,0.229 0.406,0.644 0.42,0.739c0.01775,0.11916 0.02611,0.23953 0.025,0.36zM12.093,14.317c0.025,0 0.258,0.086 0.518,0.192l0.242,0.098c0.26,0.106 0.679,0.294 0.93,0.419l0.713,0.354c0.25,0.125 0.269,0.359 0.04,0.52l-0.608,0.425c-0.23,0.16 -0.59,0.44 -0.8,0.62l-0.767,0.655c-0.22034,0.18001 -0.53671,0.18084 -0.758,0.002c-0.206,-0.178 -0.548,-0.47 -0.76,-0.65c-0.25892,-0.21543 -0.52647,-0.42027 -0.802,-0.614l-0.606,-0.42c-0.23,-0.158 -0.214,-0.393 0.036,-0.52l0.716,-0.366c0.25,-0.127 0.667,-0.318 0.928,-0.424l0.241,-0.098c0.16911,-0.07351 0.34202,-0.13793 0.518,-0.193h0.22z" fill="#ffffff" fill-rule="nonzero"></path></g>
  </g>
  <g id="Regular-M" transform="matrix(5 0 0 5 1389.82 1030)">
    <defs><clipPath id="clip-1"><rect x="0" y="0" width="24" height="24" fill="none" fill-rule="nonzero"></rect></clipPath></defs>
<g clip-path="url(#clip-1)" fill="none" fill-rule="none" stroke="none" stroke-width="1" stroke-linecap="butt" stroke-linejoin="miter" stroke-miterlimit="10" stroke-dasharray="" stroke-dashoffset="0" font-family="none" font-weight="none" font-size="none" text-anchor="none" style="mix-blend-mode: normal"><path d="M20.69,8.47l-0.629,-1.675l0.438,-0.962c0.05612,-0.12439 0.02856,-0.27058 -0.069,-0.366l-1.188,-1.18c-0.52548,-0.5167 -1.29767,-0.69243 -1.995,-0.454l-0.332,0.113l-1.737,-1.946h-6.385l-1.713,1.97l-0.323,-0.112c-0.70381,-0.24317 -1.48466,-0.06474 -2.013,0.46l-1.21,1.2c-0.07782,0.07618 -0.09943,0.19302 -0.054,0.292l0.456,0.998l-0.625,1.674l0.405,1.51l1.844,6.878c0.21533,0.79684 0.70512,1.49204 1.383,1.963c0,0 2.24,1.549 4.45,2.956c0.195,0.124 0.398,0.214 0.617,0.21c0.218,0.004 0.421,-0.086 0.615,-0.21c1.49836,-0.96306 2.98089,-1.95053 4.447,-2.962c0.6772,-0.47234 1.16592,-1.16858 1.38,-1.966l1.836,-6.88l0.404,-1.512z" fill="#666d89" fill-rule="nonzero"></path><path d="M18.728,8.801l-0.03,0.09l-0.045,0.16c-0.122,0.15 -0.38,0.437 -0.573,0.638l-1.773,1.848c-0.193,0.201 -0.302,0.453 -0.192,0.707l0.24,0.578c0.109,0.254 0.12,0.674 0.014,0.956c-0.107,0.287 -0.291,0.54 -0.533,0.734l-0.185,0.148c-0.25057,0.17842 -0.57491,0.21651 -0.86,0.101l-0.816,-0.38c-0.3022,-0.14913 -0.58553,-0.33376 -0.844,-0.55l-0.773,-0.681c-0.07208,-0.06291 -0.115,-0.15279 -0.11859,-0.2484c-0.0036,-0.09561 0.03244,-0.18846 0.09959,-0.2566l1.883,-1.245c0.233,-0.154 0.357,-0.44 0.224,-0.683l-0.67,-1.194c-0.132,-0.243 -0.185,-0.567 -0.117,-0.719c0.068,-0.152 0.339,-0.356 0.602,-0.454l2.185,-0.796c0.264,-0.097 0.25,-0.198 -0.031,-0.224l-1.396,-0.102c-0.28,-0.026 -0.486,0.014 -0.758,0.088l-1.056,0.257c-0.272,0.074 -0.329,0.357 -0.278,0.628l0.436,2.317c0.05,0.271 0.076,0.545 0.055,0.607c-0.02,0.063 -0.261,0.164 -0.536,0.225l-0.362,0.08c-0.33029,0.06155 -0.66888,0.06392 -1,0.007l-0.437,-0.091c-0.276,-0.058 -0.518,-0.156 -0.539,-0.219c-0.02,-0.063 0.005,-0.336 0.056,-0.607l0.433,-2.318c0.05,-0.271 -0.007,-0.554 -0.278,-0.628l-1.057,-0.254c-0.272,-0.074 -0.478,-0.113 -0.758,-0.087l-1.396,0.103c-0.28,0.026 -0.295,0.127 -0.031,0.224l2.186,0.794c0.263,0.097 0.535,0.301 0.603,0.453c0.068,0.152 0.015,0.476 -0.117,0.72l-0.668,1.193c-0.132,0.244 -0.009,0.53 0.225,0.683l1.884,1.243c0.06755,0.06787 0.10395,0.16071 0.10054,0.2564c-0.00341,0.0957 -0.04633,0.1857 -0.11854,0.2486l-0.773,0.682c-0.25778,0.21674 -0.54043,0.40204 -0.842,0.552l-0.817,0.381c-0.28497,0.11542 -0.60911,0.07773 -0.86,-0.1l-0.184,-0.148c-0.24678,-0.19755 -0.4346,-0.45905 -0.543,-0.756c-0.09614,-0.30486 -0.0884,-0.63301 0.022,-0.933l0.24,-0.578c0.109,-0.255 0,-0.507 -0.194,-0.708l-1.775,-1.847c-0.193,-0.2 -0.451,-0.487 -0.574,-0.636l-0.046,-0.16l-0.029,-0.09c-0.002,-0.104 0.035,-0.433 0.078,-0.522c0.043,-0.088 0.207,-0.348 0.365,-0.577l0.38,-0.55c0.157,-0.23 0.43,-0.593 0.606,-0.808l0.557,-0.684c0.175,-0.216 0.325,-0.392 0.347,-0.39c0.001,-0.002 0.229,0.04 0.505,0.092l0.844,0.158l0.678,0.127c0.096,0.018 0.395,-0.037 0.663,-0.122l0.606,-0.192c0.268,-0.086 0.675,-0.198 0.904,-0.25l0.212,0.003l0.212,-0.003c0.23,0.052 0.636,0.163 0.904,0.248l0.607,0.192c0.268,0.085 0.566,0.14 0.663,0.122l0.56,-0.106l0.118,-0.022l0.843,-0.16c0.277,-0.052 0.504,-0.094 0.52,-0.093c0.008,0 0.157,0.174 0.333,0.39l0.558,0.683c0.176,0.216 0.449,0.579 0.607,0.807l0.38,0.55c0.159,0.229 0.406,0.644 0.42,0.739c0.01775,0.11916 0.02611,0.23953 0.025,0.36zM12.093,14.317c0.025,0 0.258,0.086 0.518,0.192l0.242,0.098c0.26,0.106 0.679,0.294 0.93,0.419l0.713,0.354c0.25,0.125 0.269,0.359 0.04,0.52l-0.608,0.425c-0.23,0.16 -0.59,0.44 -0.8,0.62l-0.767,0.655c-0.22034,0.18001 -0.53671,0.18084 -0.758,0.002c-0.206,-0.178 -0.548,-0.47 -0.76,-0.65c-0.25892,-0.21543 -0.52647,-0.42027 -0.802,-0.614l-0.606,-0.42c-0.23,-0.158 -0.214,-0.393 0.036,-0.52l0.716,-0.366c0.25,-0.127 0.667,-0.318 0.928,-0.424l0.241,-0.098c0.16911,-0.07351 0.34202,-0.13793 0.518,-0.193h0.22z" fill="#ffffff" fill-rule="nonzero"></path></g>
  </g>
  <g id="Regular-S" transform="matrix(3.915 0 0 3.915 1402.75 614)">
    <defs><clipPath id="clip-1"><rect x="0" y="0" width="24" height="24" fill="none" fill-rule="nonzero"></rect></clipPath></defs>
<g clip-path="url(#clip-1)" fill="none" fill-rule="none" stroke="none" stroke-width="1" stroke-linecap="butt" stroke-linejoin="miter" stroke-miterlimit="10" stroke-dasharray="" stroke-dashoffset="0" font-family="none" font-weight="none" font-size="none" text-anchor="none" style="mix-blend-mode: normal"><path d="M20.69,8.47l-0.629,-1.675l0.438,-0.962c0.05612,-0.12439 0.02856,-0.27058 -0.069,-0.366l-1.188,-1.18c-0.52548,-0.5167 -1.29767,-0.69243 -1.995,-0.454l-0.332,0.113l-1.737,-1.946h-6.385l-1.713,1.97l-0.323,-0.112c-0.70381,-0.24317 -1.48466,-0.06474 -2.013,0.46l-1.21,1.2c-0.07782,0.07618 -0.09943,0.19302 -0.054,0.292l0.456,0.998l-0.625,1.674l0.405,1.51l1.844,6.878c0.21533,0.79684 0.70512,1.49204 1.383,1.963c0,0 2.24,1.549 4.45,2.956c0.195,0.124 0.398,0.214 0.617,0.21c0.218,0.004 0.421,-0.086 0.615,-0.21c1.49836,-0.96306 2.98089,-1.95053 4.447,-2.962c0.6772,-0.47234 1.16592,-1.16858 1.38,-1.966l1.836,-6.88l0.404,-1.512z" fill="#666d89" fill-rule="nonzero"></path><path d="M18.728,8.801l-0.03,0.09l-0.045,0.16c-0.122,0.15 -0.38,0.437 -0.573,0.638l-1.773,1.848c-0.193,0.201 -0.302,0.453 -0.192,0.707l0.24,0.578c0.109,0.254 0.12,0.674 0.014,0.956c-0.107,0.287 -0.291,0.54 -0.533,0.734l-0.185,0.148c-0.25057,0.17842 -0.57491,0.21651 -0.86,0.101l-0.816,-0.38c-0.3022,-0.14913 -0.58553,-0.33376 -0.844,-0.55l-0.773,-0.681c-0.07208,-0.06291 -0.115,-0.15279 -0.11859,-0.2484c-0.0036,-0.09561 0.03244,-0.18846 0.09959,-0.2566l1.883,-1.245c0.233,-0.154 0.357,-0.44 0.224,-0.683l-0.67,-1.194c-0.132,-0.243 -0.185,-0.567 -0.117,-0.719c0.068,-0.152 0.339,-0.356 0.602,-0.454l2.185,-0.796c0.264,-0.097 0.25,-0.198 -0.031,-0.224l-1.396,-0.102c-0.28,-0.026 -0.486,0.014 -0.758,0.088l-1.056,0.257c-0.272,0.074 -0.329,0.357 -0.278,0.628l0.436,2.317c0.05,0.271 0.076,0.545 0.055,0.607c-0.02,0.063 -0.261,0.164 -0.536,0.225l-0.362,0.08c-0.33029,0.06155 -0.66888,0.06392 -1,0.007l-0.437,-0.091c-0.276,-0.058 -0.518,-0.156 -0.539,-0.219c-0.02,-0.063 0.005,-0.336 0.056,-0.607l0.433,-2.318c0.05,-0.271 -0.007,-0.554 -0.278,-0.628l-1.057,-0.254c-0.272,-0.074 -0.478,-0.113 -0.758,-0.087l-1.396,0.103c-0.28,0.026 -0.295,0.127 -0.031,0.224l2.186,0.794c0.263,0.097 0.535,0.301 0.603,0.453c0.068,0.152 0.015,0.476 -0.117,0.72l-0.668,1.193c-0.132,0.244 -0.009,0.53 0.225,0.683l1.884,1.243c0.06755,0.06787 0.10395,0.16071 0.10054,0.2564c-0.00341,0.0957 -0.04633,0.1857 -0.11854,0.2486l-0.773,0.682c-0.25778,0.21674 -0.54043,0.40204 -0.842,0.552l-0.817,0.381c-0.28497,0.11542 -0.60911,0.07773 -0.86,-0.1l-0.184,-0.148c-0.24678,-0.19755 -0.4346,-0.45905 -0.543,-0.756c-0.09614,-0.30486 -0.0884,-0.63301 0.022,-0.933l0.24,-0.578c0.109,-0.255 0,-0.507 -0.194,-0.708l-1.775,-1.847c-0.193,-0.2 -0.451,-0.487 -0.574,-0.636l-0.046,-0.16l-0.029,-0.09c-0.002,-0.104 0.035,-0.433 0.078,-0.522c0.043,-0.088 0.207,-0.348 0.365,-0.577l0.38,-0.55c0.157,-0.23 0.43,-0.593 0.606,-0.808l0.557,-0.684c0.175,-0.216 0.325,-0.392 0.347,-0.39c0.001,-0.002 0.229,0.04 0.505,0.092l0.844,0.158l0.678,0.127c0.096,0.018 0.395,-0.037 0.663,-0.122l0.606,-0.192c0.268,-0.086 0.675,-0.198 0.904,-0.25l0.212,0.003l0.212,-0.003c0.23,0.052 0.636,0.163 0.904,0.248l0.607,0.192c0.268,0.085 0.566,0.14 0.663,0.122l0.56,-0.106l0.118,-0.022l0.843,-0.16c0.277,-0.052 0.504,-0.094 0.52,-0.093c0.008,0 0.157,0.174 0.333,0.39l0.558,0.683c0.176,0.216 0.449,0.579 0.607,0.807l0.38,0.55c0.159,0.229 0.406,0.644 0.42,0.739c0.01775,0.11916 0.02611,0.23953 0.025,0.36zM12.093,14.317c0.025,0 0.258,0.086 0.518,0.192l0.242,0.098c0.26,0.106 0.679,0.294 0.93,0.419l0.713,0.354c0.25,0.125 0.269,0.359 0.04,0.52l-0.608,0.425c-0.23,0.16 -0.59,0.44 -0.8,0.62l-0.767,0.655c-0.22034,0.18001 -0.53671,0.18084 -0.758,0.002c-0.206,-0.178 -0.548,-0.47 -0.76,-0.65c-0.25892,-0.21543 -0.52647,-0.42027 -0.802,-0.614l-0.606,-0.42c-0.23,-0.158 -0.214,-0.393 0.036,-0.52l0.716,-0.366c0.25,-0.127 0.667,-0.318 0.928,-0.424l0.241,-0.098c0.16911,-0.07351 0.34202,-0.13793 0.518,-0.193h0.22z" fill="#ffffff" fill-rule="nonzero"></path></g>
  </g>
 </g>
</svg>
