<?xml version="1.0" encoding="UTF-8"?>
<!--Generator: Apple Native CoreSVG 175.5-->
<!DOCTYPE svg
PUBLIC "-//W3C//DTD SVG 1.1//EN"
       "http://www.w3.org/Graphics/SVG/1.1/DTD/svg11.dtd">
<svg version="1.1" xmlns="http://www.w3.org/2000/svg" xmlns:xlink="http://www.w3.org/1999/xlink" width="3300" height="2200">
 <!--glyph: "", point size: 100.0, font version: "18.0d12e2", template writer version: "101"-->
 <g id="Notes">
  <rect height="2200" id="artboard" style="fill:white;opacity:1" width="3300" x="0" y="0"/>
  <line style="fill:none;stroke:black;opacity:1;stroke-width:0.5;" x1="263" x2="3036" y1="292" y2="292"/>
  <text style="stroke:none;fill:black;font-family:sans-serif;font-size:13;font-weight:bold;" transform="matrix(1 0 0 1 263 322)">Weight/Scale Variations</text>
  <text style="stroke:none;fill:black;font-family:sans-serif;font-size:13;text-anchor:middle;" transform="matrix(1 0 0 1 559.711 322)">Ultralight</text>
  <text style="stroke:none;fill:black;font-family:sans-serif;font-size:13;text-anchor:middle;" transform="matrix(1 0 0 1 856.422 322)">Thin</text>
  <text style="stroke:none;fill:black;font-family:sans-serif;font-size:13;text-anchor:middle;" transform="matrix(1 0 0 1 1153.13 322)">Light</text>
  <text style="stroke:none;fill:black;font-family:sans-serif;font-size:13;text-anchor:middle;" transform="matrix(1 0 0 1 1449.84 322)">Regular</text>
  <text style="stroke:none;fill:black;font-family:sans-serif;font-size:13;text-anchor:middle;" transform="matrix(1 0 0 1 1746.56 322)">Medium</text>
  <text style="stroke:none;fill:black;font-family:sans-serif;font-size:13;text-anchor:middle;" transform="matrix(1 0 0 1 2043.27 322)">Semibold</text>
  <text style="stroke:none;fill:black;font-family:sans-serif;font-size:13;text-anchor:middle;" transform="matrix(1 0 0 1 2339.98 322)">Bold</text>
  <text style="stroke:none;fill:black;font-family:sans-serif;font-size:13;text-anchor:middle;" transform="matrix(1 0 0 1 2636.69 322)">Heavy</text>
  <text style="stroke:none;fill:black;font-family:sans-serif;font-size:13;text-anchor:middle;" transform="matrix(1 0 0 1 2933.4 322)">Black</text>
  <line style="fill:none;stroke:black;opacity:1;stroke-width:0.5;" x1="263" x2="3036" y1="1903" y2="1903"/>
  <g transform="matrix(1 0 0 1 263 1933)">
   <path d="M9.24805 0.830078C13.5547 0.830078 17.1387-2.74414 17.1387-7.05078C17.1387-11.3574 13.5449-14.9316 9.23828-14.9316C4.94141-14.9316 1.36719-11.3574 1.36719-7.05078C1.36719-2.74414 4.95117 0.830078 9.24805 0.830078ZM9.24805-0.654297C5.70312-0.654297 2.87109-3.49609 2.87109-7.05078C2.87109-10.6055 5.69336-13.4473 9.23828-13.4473C12.793-13.4473 15.6445-10.6055 15.6445-7.05078C15.6445-3.49609 12.8027-0.654297 9.24805-0.654297ZM5.6543-7.05078C5.6543-6.62109 5.95703-6.32812 6.40625-6.32812L8.50586-6.32812L8.50586-4.20898C8.50586-3.76953 8.79883-3.4668 9.22852-3.4668C9.67773-3.4668 9.9707-3.76953 9.9707-4.20898L9.9707-6.32812L12.0898-6.32812C12.5293-6.32812 12.832-6.62109 12.832-7.05078C12.832-7.49023 12.5293-7.79297 12.0898-7.79297L9.9707-7.79297L9.9707-9.90234C9.9707-10.3516 9.67773-10.6543 9.22852-10.6543C8.79883-10.6543 8.50586-10.3516 8.50586-9.90234L8.50586-7.79297L6.40625-7.79297C5.95703-7.79297 5.6543-7.49023 5.6543-7.05078Z"/>
  </g>
  <g transform="matrix(1 0 0 1 281.867 1933)">
   <path d="M11.709 2.91016C17.1582 2.91016 21.6699-1.61133 21.6699-7.05078C21.6699-12.5 17.1484-17.0117 11.6992-17.0117C6.25977-17.0117 1.74805-12.5 1.74805-7.05078C1.74805-1.61133 6.26953 2.91016 11.709 2.91016ZM11.709 1.25C7.09961 1.25 3.41797-2.44141 3.41797-7.05078C3.41797-11.6602 7.08984-15.3516 11.6992-15.3516C16.3086-15.3516 20.0098-11.6602 20.0098-7.05078C20.0098-2.44141 16.3184 1.25 11.709 1.25ZM7.17773-7.05078C7.17773-6.57227 7.50977-6.25 8.00781-6.25L10.8789-6.25L10.8789-3.36914C10.8789-2.88086 11.2109-2.53906 11.6895-2.53906C12.1777-2.53906 12.5195-2.87109 12.5195-3.36914L12.5195-6.25L15.4004-6.25C15.8887-6.25 16.2305-6.57227 16.2305-7.05078C16.2305-7.53906 15.8887-7.88086 15.4004-7.88086L12.5195-7.88086L12.5195-10.752C12.5195-11.25 12.1777-11.5918 11.6895-11.5918C11.2109-11.5918 10.8789-11.25 10.8789-10.752L10.8789-7.88086L8.00781-7.88086C7.50977-7.88086 7.17773-7.53906 7.17773-7.05078Z"/>
  </g>
  <g transform="matrix(1 0 0 1 305.646 1933)">
   <path d="M14.9707 5.66406C21.9336 5.66406 27.6953-0.0976562 27.6953-7.05078C27.6953-14.0137 21.9238-19.7754 14.9609-19.7754C8.00781-19.7754 2.25586-14.0137 2.25586-7.05078C2.25586-0.0976562 8.01758 5.66406 14.9707 5.66406ZM14.9707 3.84766C8.93555 3.84766 4.08203-1.01562 4.08203-7.05078C4.08203-13.0957 8.92578-17.9492 14.9609-17.9492C21.0059-17.9492 25.8691-13.0957 25.8691-7.05078C25.8691-1.01562 21.0156 3.84766 14.9707 3.84766ZM9.19922-7.05078C9.19922-6.5332 9.57031-6.17188 10.1172-6.17188L14.0625-6.17188L14.0625-2.2168C14.0625-1.67969 14.4336-1.29883 14.9512-1.29883C15.4883-1.29883 15.8594-1.66992 15.8594-2.2168L15.8594-6.17188L19.8145-6.17188C20.3516-6.17188 20.7324-6.5332 20.7324-7.05078C20.7324-7.59766 20.3613-7.96875 19.8145-7.96875L15.8594-7.96875L15.8594-11.9141C15.8594-12.4609 15.4883-12.8418 14.9512-12.8418C14.4336-12.8418 14.0625-12.4609 14.0625-11.9141L14.0625-7.96875L10.1172-7.96875C9.57031-7.96875 9.19922-7.59766 9.19922-7.05078Z"/>
  </g>
  <text style="stroke:none;fill:black;font-family:sans-serif;font-size:13;font-weight:bold;" transform="matrix(1 0 0 1 263 1953)">Design Variations</text>
  <text style="stroke:none;fill:black;font-family:sans-serif;font-size:13;" transform="matrix(1 0 0 1 263 1971)">Symbols are supported in up to nine weights and three scales.</text>
  <text style="stroke:none;fill:black;font-family:sans-serif;font-size:13;" transform="matrix(1 0 0 1 263 1989)">For optimal layout with text and other symbols, vertically align</text>
  <text style="stroke:none;fill:black;font-family:sans-serif;font-size:13;" transform="matrix(1 0 0 1 263 2007)">symbols with the adjacent text.</text>
  <line style="fill:none;stroke:#00AEEF;stroke-width:0.5;opacity:1.0;" x1="776" x2="776" y1="1919" y2="1933"/>
  <g transform="matrix(1 0 0 1 776 1933)">
   <path d="M3.31055 0.15625C3.82812 0.15625 4.08203-0.0390625 4.26758-0.585938L5.52734-4.0332L11.2891-4.0332L12.5488-0.585938C12.7344-0.0390625 12.9883 0.15625 13.4961 0.15625C14.0137 0.15625 14.3457-0.15625 14.3457-0.644531C14.3457-0.810547 14.3164-0.966797 14.2383-1.17188L9.6582-13.3691C9.43359-13.9648 9.0332-14.2676 8.4082-14.2676C7.80273-14.2676 7.39258-13.9746 7.17773-13.3789L2.59766-1.16211C2.51953-0.957031 2.49023-0.800781 2.49023-0.634766C2.49023-0.146484 2.80273 0.15625 3.31055 0.15625ZM6.00586-5.51758L8.37891-12.0898L8.42773-12.0898L10.8008-5.51758Z"/>
  </g>
  <line style="fill:none;stroke:#00AEEF;stroke-width:0.5;opacity:1.0;" x1="793.197" x2="793.197" y1="1919" y2="1933"/>
  <text style="stroke:none;fill:black;font-family:sans-serif;font-size:13;font-weight:bold;" transform="matrix(1 0 0 1 776 1953)">Margins</text>
  <text style="stroke:none;fill:black;font-family:sans-serif;font-size:13;" transform="matrix(1 0 0 1 776 1971)">Leading and trailing margins on the left and right side of each symbol</text>
  <text style="stroke:none;fill:black;font-family:sans-serif;font-size:13;" transform="matrix(1 0 0 1 776 1989)">can be adjusted by modifying the x-location of the margin guidelines.</text>
  <text style="stroke:none;fill:black;font-family:sans-serif;font-size:13;" transform="matrix(1 0 0 1 776 2007)">Modifications are automatically applied proportionally to all</text>
  <text style="stroke:none;fill:black;font-family:sans-serif;font-size:13;" transform="matrix(1 0 0 1 776 2025)">scales and weights.</text>
  <g transform="matrix(1 0 0 1 1289 1933)">
   <path d="M2.8418 1.86523L4.54102 3.57422C5.40039 4.44336 6.38672 4.38477 7.31445 3.35938L18.0078-8.42773L17.041-9.4043L6.42578 2.27539C6.07422 2.67578 5.74219 2.77344 5.27344 2.30469L4.10156 1.14258C3.63281 0.683594 3.74023 0.341797 4.14062-0.0195312L15.6152-10.8203L14.6387-11.7871L3.04688-0.898438C2.06055 0.0195312 1.98242 0.996094 2.8418 1.86523ZM9.25781-16.3281C8.83789-15.918 8.80859-15.3418 9.04297-14.9512C9.27734-14.5898 9.73633-14.3555 10.3809-14.5215C11.8457-14.8633 13.3691-14.9219 14.7949-13.9844L14.209-12.5293C13.8672-11.6992 14.043-11.1133 14.5801-10.5664L16.875-8.25195C17.3633-7.76367 17.7734-7.74414 18.3398-7.8418L19.4043-8.03711L20.0684-7.36328L20.0293-6.80664C19.9902-6.30859 20.1172-5.92773 20.6055-5.44922L21.3672-4.70703C21.8457-4.22852 22.4609-4.19922 22.9297-4.66797L25.8398-7.58789C26.3086-8.05664 26.2891-8.65234 25.8105-9.13086L25.0391-9.89258C24.5605-10.3711 24.1895-10.5273 23.7109-10.4883L23.1348-10.4395L22.4902-11.0742L22.7344-12.1973C22.8613-12.7637 22.7051-13.2031 22.1191-13.7891L19.9219-15.9766C16.582-19.2969 12.1484-19.2188 9.25781-16.3281ZM10.752-15.957C13.1836-17.7344 16.4746-17.4316 18.7012-15.2051L21.1328-12.793C21.3672-12.5586 21.4062-12.373 21.3379-12.0312L21.0156-10.5469L22.5195-9.0625L23.5059-9.12109C23.7598-9.13086 23.8379-9.11133 24.0332-8.91602L24.6094-8.33984L22.168-5.89844L21.5918-6.47461C21.3965-6.66992 21.3672-6.74805 21.377-7.01172L21.4453-7.98828L19.9512-9.47266L18.4277-9.21875C18.1055-9.15039 17.959-9.17969 17.7148-9.41406L15.7129-11.416C15.459-11.6504 15.4297-11.8164 15.5859-12.1875L16.4648-14.2773C14.9023-15.7324 12.8711-16.3574 10.8398-15.7617C10.6836-15.7227 10.625-15.8496 10.752-15.957Z"/>
  </g>
  <text style="stroke:none;fill:black;font-family:sans-serif;font-size:13;font-weight:bold;" transform="matrix(1 0 0 1 1289 1953)">Exporting</text>
  <text style="stroke:none;fill:black;font-family:sans-serif;font-size:13;" transform="matrix(1 0 0 1 1289 1971)">Symbols should be outlined when exporting to ensure the</text>
  <text style="stroke:none;fill:black;font-family:sans-serif;font-size:13;" transform="matrix(1 0 0 1 1289 1989)">design is preserved when submitting to Xcode.</text>
  <text id="template-version" style="stroke:none;fill:black;font-family:sans-serif;font-size:13;text-anchor:end;" transform="matrix(1 0 0 1 3036 1933)">Template v.4.0</text>
  <text style="stroke:none;fill:black;font-family:sans-serif;font-size:13;text-anchor:end;" transform="matrix(1 0 0 1 3036 1951)">Requires Xcode 14 or greater</text>
  <text id="descriptive-name" style="stroke:none;fill:black;font-family:sans-serif;font-size:13;text-anchor:end;" transform="matrix(1 0 0 1 3036 1969)">Generated from brave.zzz</text>
  <text style="stroke:none;fill:black;font-family:sans-serif;font-size:13;text-anchor:end;" transform="matrix(1 0 0 1 3036 1987)">Typeset at 100 points</text>
  <text style="stroke:none;fill:black;font-family:sans-serif;font-size:13;" transform="matrix(1 0 0 1 263 726)">Small</text>
  <text style="stroke:none;fill:black;font-family:sans-serif;font-size:13;" transform="matrix(1 0 0 1 263 1156)">Medium</text>
  <text style="stroke:none;fill:black;font-family:sans-serif;font-size:13;" transform="matrix(1 0 0 1 263 1586)">Large</text>
 </g>
 <g id="Guides">
  <g id="H-reference" style="fill:#27AAE1;stroke:none;" transform="matrix(1 0 0 1 339 696)">
   <path d="M0.993654 0L3.63775 0L29.3281-67.1323L30.0303-67.1323L30.0303-70.459L28.1226-70.459ZM11.6885-24.4799L46.9815-24.4799L46.2315-26.7285L12.4385-26.7285ZM55.1196 0L57.7637 0L30.6382-70.459L29.4326-70.459L29.4326-67.1323Z"/>
  </g>
  <line id="Baseline-S" style="fill:none;stroke:#27AAE1;opacity:1;stroke-width:0.5;" x1="263" x2="3036" y1="696" y2="696"/>
  <line id="Capline-S" style="fill:none;stroke:#27AAE1;opacity:1;stroke-width:0.5;" x1="263" x2="3036" y1="625.541" y2="625.541"/>
  <g id="H-reference" style="fill:#27AAE1;stroke:none;" transform="matrix(1 0 0 1 339 1126)">
   <path d="M0.993654 0L3.63775 0L29.3281-67.1323L30.0303-67.1323L30.0303-70.459L28.1226-70.459ZM11.6885-24.4799L46.9815-24.4799L46.2315-26.7285L12.4385-26.7285ZM55.1196 0L57.7637 0L30.6382-70.459L29.4326-70.459L29.4326-67.1323Z"/>
  </g>
  <line id="Baseline-M" style="fill:none;stroke:#27AAE1;opacity:1;stroke-width:0.5;" x1="263" x2="3036" y1="1126" y2="1126"/>
  <line id="Capline-M" style="fill:none;stroke:#27AAE1;opacity:1;stroke-width:0.5;" x1="263" x2="3036" y1="1055.54" y2="1055.54"/>
  <g id="H-reference" style="fill:#27AAE1;stroke:none;" transform="matrix(1 0 0 1 339 1556)">
   <path d="M0.993654 0L3.63775 0L29.3281-67.1323L30.0303-67.1323L30.0303-70.459L28.1226-70.459ZM11.6885-24.4799L46.9815-24.4799L46.2315-26.7285L12.4385-26.7285ZM55.1196 0L57.7637 0L30.6382-70.459L29.4326-70.459L29.4326-67.1323Z"/>
  </g>
  <line id="Baseline-L" style="fill:none;stroke:#27AAE1;opacity:1;stroke-width:0.5;" x1="263" x2="3036" y1="1556" y2="1556"/>
  <line id="Capline-L" style="fill:none;stroke:#27AAE1;opacity:1;stroke-width:0.5;" x1="263" x2="3036" y1="1485.54" y2="1485.54"/>
  <line id="left-margin-Regular-M" style="fill:none;stroke:#00AEEF;stroke-width:0.5;opacity:1.0;" x1="1389.82" x2="1389.82" y1="1030.79" y2="1150.12"/>
  <line id="right-margin-Regular-M" style="fill:none;stroke:#00AEEF;stroke-width:0.5;opacity:1.0;" x1="1509.87" x2="1509.87" y1="1030.79" y2="1150.12"/>
 </g>
 <g id="Symbols">
  <g id="Regular-L" transform="matrix(6.45 0 0 6.45 1372.2675 1443)">
    <defs><clipPath id="clip-1"><rect x="0" y="0" width="24" height="24" fill="none" fill-rule="nonzero"></rect></clipPath></defs>
<g clip-path="url(#clip-1)" fill="none" fill-rule="none" stroke="none" stroke-width="1" stroke-linecap="butt" stroke-linejoin="miter" stroke-miterlimit="10" stroke-dasharray="" stroke-dashoffset="0" font-family="none" font-weight="none" font-size="none" text-anchor="none" style="mix-blend-mode: normal"><path d="M19.652,13.005c0.067,0.171 0.19,0.312 0.334,0.427c0.054,0.043 0.106,0.088 0.157,0.136c0.188,0.178 0.417,0.344 0.67,0.286c0.135,-0.03 0.277,-0.088 0.424,-0.18c0.08426,-0.04756 0.12122,-0.14949 0.087,-0.24l-0.119,-0.27c-0.05306,-0.12825 -0.08643,-0.26378 -0.099,-0.402l-0.006,-0.053c-0.00484,-0.04061 -0.00918,-0.08128 -0.013,-0.122v-0.099c-0.00007,-0.01665 -0.00277,-0.03319 -0.008,-0.049l-0.008,-0.026c-0.01149,-0.04545 -0.02897,-0.08917 -0.052,-0.13c-0.034,-0.057 -0.067,-0.116 -0.101,-0.176c-0.03339,-0.05869 -0.06739,-0.11702 -0.102,-0.175l-0.102,-0.17c-0.05742,-0.12728 -0.12151,-0.25146 -0.192,-0.372l-0.056,-0.113c-0.08096,-0.12755 -0.16431,-0.25357 -0.25,-0.378l-0.064,-0.094c-0.03163,-0.04683 -0.05907,-0.09635 -0.082,-0.148l-0.01,-0.024l-0.204,-0.373l-0.184,-0.367c-0.0281,-0.05607 -0.05087,-0.11466 -0.068,-0.175l-0.121,-0.43c-0.02865,-0.07865 -0.05899,-0.15666 -0.091,-0.234c-0.024,-0.06 -0.047,-0.116 -0.067,-0.172l-0.068,-0.17c-0.02322,-0.05859 -0.0579,-0.11197 -0.102,-0.157c-0.06635,-0.06161 -0.13202,-0.12395 -0.197,-0.187l-0.131,-0.124c-0.04416,-0.04115 -0.08191,-0.08868 -0.112,-0.141c-0.0493,-0.08844 -0.10269,-0.17453 -0.16,-0.258c-0.02223,-0.03452 -0.04423,-0.06919 -0.066,-0.104c-0.03172,-0.04698 -0.06862,-0.09025 -0.11,-0.129l-0.041,-0.039c-0.15147,-0.14026 -0.25413,-0.32526 -0.293,-0.528l-0.03,-0.162c-0.0192,-0.10066 -0.07125,-0.1921 -0.148,-0.26c-0.09885,-0.08992 -0.20057,-0.17663 -0.305,-0.26c-0.05993,-0.05264 -0.11241,-0.1132 -0.156,-0.18l-0.063,-0.096l-0.001,-0.001l-0.087,-0.133c-0.02832,-0.04307 -0.05339,-0.0882 -0.075,-0.135l-0.035,-0.076c-0.05013,-0.11237 -0.10181,-0.22405 -0.155,-0.335c-0.014,-0.03 -0.028,-0.062 -0.048,-0.09c-0.00697,-0.00957 -0.01466,-0.0186 -0.023,-0.027l-0.373,-0.43l-0.288,-0.401c-0.0446,-0.0636 -0.10013,-0.11879 -0.164,-0.163c-0.06294,-0.03493 -0.12528,-0.07094 -0.187,-0.108c-0.06139,-0.03672 -0.1234,-0.07239 -0.186,-0.107c-0.02218,-0.01498 -0.04064,-0.03481 -0.054,-0.058l-0.217,-0.371l-0.054,-0.07c-0.03779,-0.04447 -0.08153,-0.0835 -0.13,-0.116l-0.042,-0.029c-0.04388,-0.03329 -0.08722,-0.0673 -0.13,-0.102l-0.058,-0.046c-0.04721,-0.03678 -0.08693,-0.08226 -0.117,-0.134l-0.069,-0.135c-0.03842,-0.07396 -0.07543,-0.14864 -0.111,-0.224c-0.00801,-0.01686 -0.01703,-0.03322 -0.027,-0.049l-0.005,-0.008c-0.02718,-0.03971 -0.05946,-0.07569 -0.096,-0.107l-0.029,-0.027l-0.34,-0.331l-0.359,-0.391c-0.03146,-0.03537 -0.06667,-0.06722 -0.105,-0.095l-0.18,-0.113l-0.181,-0.113l-0.093,-0.056l-0.03,-0.018l-0.01,-0.007c-0.01203,-0.00721 -0.02438,-0.01388 -0.037,-0.02l-0.397,-0.166c-0.00634,-0.00264 -0.01313,-0.004 -0.02,-0.004c-0.01496,-0.00023 -0.02912,-0.00676 -0.039,-0.018c-0.06176,-0.06672 -0.12827,-0.12888 -0.199,-0.186l-0.097,-0.082c-0.03331,-0.02786 -0.06472,-0.05793 -0.094,-0.09l-0.148,-0.166l-0.102,-0.102c-0.08622,-0.08897 -0.20323,-0.14156 -0.327,-0.147c-0.17774,-0.00269 -0.34018,0.10019 -0.41372,0.26202c-0.07354,0.16183 -0.0442,0.35186 0.07472,0.48398l0.113,0.124c0.028,0.034 0.06,0.068 0.09,0.102c0.03108,0.03269 0.06109,0.06638 0.09,0.101l0.181,0.18c0.034,0.035 0.071,0.069 0.108,0.103l0.034,0.031c0.04856,0.04587 0.08852,0.10006 0.118,0.16l0.054,0.097c0.049,0.088 0.097,0.174 0.138,0.265l0.271,0.52c0.03906,0.07816 0.10263,0.14138 0.181,0.18c0.21762,0.12329 0.37893,0.32619 0.45,0.566l0.013,0.045c0.01973,0.0559 0.04662,0.10901 0.08,0.158c0.078,0.09 0.146,0.18 0.214,0.27l0.113,0.148c0.04576,0.06655 0.11389,0.11446 0.192,0.135l0.076,0.03c0.177,0.07 0.303,0.222 0.353,0.405l0.023,0.085c0.03289,0.11779 0.10941,0.21862 0.214,0.282l0.147,0.08c0.10759,0.06378 0.18098,0.17238 0.2,0.296l0.038,0.234c0.022,0.147 0.112,0.26 0.237,0.328l0.262,0.139c0.07784,0.04274 0.13911,0.11034 0.174,0.192l0.027,0.064l0.068,0.181c0.02401,0.06747 0.06709,0.12653 0.124,0.17c0.062,0.056 0.128,0.113 0.193,0.17l0.136,0.12c0.03671,0.03227 0.07081,0.06737 0.102,0.105l0.055,0.068c0.09055,0.1171 0.14447,0.25835 0.155,0.406l0.026,0.283c0.01457,0.13734 0.08881,0.26131 0.203,0.339l0.226,0.146c0.102,0.06764 0.18251,0.16306 0.232,0.275l0.039,0.087l0.056,0.124c0.08,0.181 0.147,0.34 0.215,0.509c0.034,0.09 0.102,0.17 0.192,0.226l0.045,0.033l0.112,0.066c0.163,0.097 0.295,0.24 0.38,0.41l0.062,0.123l0.158,0.286c0.052,0.095 0.09,0.198 0.104,0.306l0.005,0.039c0.008,0.06 0.016,0.12 0.026,0.182l0.007,0.036l0.008,0.052c0.00874,0.0721 0.03078,0.14195 0.065,0.206c0.045,0.08 0.09,0.156 0.135,0.232l0.136,0.231c0.015,0.03 0.039,0.055 0.062,0.08c0.01,0.01 0.021,0.021 0.03,0.033l0.02,0.023c0.066,0.087 0.127,0.16 0.185,0.231c0.033,0.04 0.066,0.079 0.098,0.12l0.09,0.135l0.085,0.13l0.043,0.065c0.02787,0.04282 0.05196,0.088 0.072,0.135l0.004,0.009zM14.896,15.242c0.069,0.19 0.282,0.28 0.477,0.231l0.13,-0.029c0.06371,-0.0118 0.12472,-0.03519 0.18,-0.069l0.045,-0.027c0.197,-0.123 0.316,-0.335 0.368,-0.562c0.036,-0.156 0.088,-0.307 0.152,-0.451c0.00943,-0.02005 0.01086,-0.04294 0.004,-0.064l-0.03,-0.097v-0.001c-0.03035,-0.09487 -0.05802,-0.19058 -0.083,-0.287l-0.017,-0.06c-0.01803,-0.06481 -0.03041,-0.13105 -0.037,-0.198c-0.01081,-0.10132 -0.02415,-0.20235 -0.04,-0.303c-0.00512,-0.03242 -0.0078,-0.06518 -0.008,-0.098c0.00002,-0.05738 -0.00737,-0.11452 -0.022,-0.17c-0.04923,-0.18938 -0.09457,-0.37976 -0.136,-0.571c-0.01052,-0.05693 -0.03339,-0.11086 -0.067,-0.158l-0.046,-0.057c-0.03212,-0.04525 -0.06412,-0.09058 -0.096,-0.136l-0.13,-0.182c-0.05891,-0.0813 -0.10605,-0.17051 -0.14,-0.265l-0.006,-0.016c-0.029,-0.062 -0.054,-0.127 -0.08,-0.191c-0.03105,-0.08042 -0.06473,-0.15979 -0.101,-0.238l-0.016,-0.026c-0.01124,-0.02065 -0.02359,-0.04068 -0.037,-0.06l-0.096,-0.133c-0.11642,-0.1591 -0.18322,-0.34905 -0.192,-0.546l-0.01,-0.229c0,-0.09 -0.033,-0.18 -0.09,-0.26c-0.08773,-0.12158 -0.18186,-0.23842 -0.282,-0.35l-0.023,-0.027c-0.05264,-0.06435 -0.09667,-0.13528 -0.131,-0.211l-0.06,-0.132v-0.003h-0.001l-0.082,-0.182c-0.02044,-0.04409 -0.03781,-0.08953 -0.052,-0.136l-0.013,-0.043c-0.02533,-0.09411 -0.05334,-0.18748 -0.084,-0.28v-0.001l-0.047,-0.152l-0.009,-0.036c-0.00364,-0.02434 -0.01106,-0.04796 -0.022,-0.07l-0.029,-0.041c-0.00924,-0.01227 -0.01791,-0.02495 -0.026,-0.038l-0.302,-0.5l-0.265,-0.508c-0.0308,-0.05965 -0.07136,-0.11373 -0.12,-0.16c-0.11765,-0.10408 -0.23769,-0.20544 -0.36,-0.304c-0.03755,-0.03696 -0.06715,-0.0812 -0.087,-0.13l-0.174,-0.435c-0.02531,-0.05733 -0.05902,-0.11058 -0.1,-0.158c-0.10565,-0.13928 -0.20059,-0.28637 -0.284,-0.44l-0.27,-0.51l-0.002,-0.003c-0.00549,-0.0103 -0.0115,-0.02031 -0.018,-0.03l-0.013,-0.02c-0.01197,-0.0201 -0.02465,-0.03978 -0.038,-0.059l-0.348,-0.474c-0.035,-0.064 -0.084,-0.137 -0.134,-0.212c-0.03125,-0.04594 -0.06192,-0.09228 -0.092,-0.139l-0.073,-0.114c-0.02819,-0.0441 -0.06068,-0.08531 -0.097,-0.123l-0.462,-0.43l-0.398,-0.32c-0.04347,-0.03489 -0.08394,-0.07336 -0.121,-0.115l-0.222,-0.25c-0.04763,-0.05513 -0.09077,-0.11398 -0.129,-0.176l-0.034,-0.053c-0.03164,-0.04797 -0.06166,-0.097 -0.09,-0.147l-0.068,-0.113c-0.13677,-0.2056 -0.41191,-0.26576 -0.622,-0.136c-0.21006,0.13289 -0.27499,0.40953 -0.146,0.622l0.079,0.124c0.056,0.09 0.113,0.18 0.169,0.282l0.226,0.509c0.056,0.135 0.147,0.26 0.226,0.361c0.04086,0.04791 0.07516,0.10104 0.102,0.158c0.079,0.204 0.146,0.396 0.214,0.588c0.023,0.079 0.08,0.147 0.136,0.203l0.135,0.113c0.04,0.034 0.08,0.065 0.119,0.096c0.077,0.061 0.127,0.15 0.143,0.247l0.05,0.307c0.00998,0.06144 0.03062,0.12067 0.061,0.175l0.305,0.53c0.034,0.057 0.08,0.114 0.147,0.148c0.068,0.045 0.133,0.09 0.198,0.135c0.125,0.087 0.21,0.222 0.234,0.373l0.031,0.203c0.01111,0.10963 0.0637,0.21087 0.147,0.283l0.147,0.124c0.12437,0.10623 0.19478,0.26246 0.192,0.426v0.148c0,0.054 0.003,0.108 0.017,0.16c0.02536,0.10201 0.08286,0.19317 0.164,0.26c0.067,0.057 0.135,0.11 0.203,0.164c0.133,0.106 0.23,0.25 0.265,0.417l0.017,0.086l0.034,0.124c0.01253,0.0623 0.03998,0.12063 0.08,0.17c0.061,0.078 0.12,0.155 0.18,0.23l0.136,0.175c0.03,0.038 0.057,0.079 0.081,0.121l0.054,0.095l0.02,0.035c0.074,0.13 0.101,0.28 0.095,0.429l-0.013,0.315c-0.00138,0.12637 0.04713,0.24818 0.135,0.339l0.293,0.293c0.0602,0.05932 0.10366,0.13349 0.126,0.215c0.01,0.043 0.022,0.085 0.033,0.125l0.057,0.214l0.022,0.09c0.038,0.148 0.074,0.29 0.102,0.441c0.02587,0.10465 0.07626,0.20165 0.147,0.283c0.113,0.113 0.497,0.711 0.553,0.858l0.08,0.215c0.022,0.067 0.044,0.134 0.067,0.198c0.02227,0.0633 0.03376,0.12989 0.034,0.197c0,0.147 0,0.294 -0.011,0.44c0,0.057 0,0.114 0.022,0.17zM12.684,19.376c0.01337,0.00305 0.0274,-0.00017 0.03811,-0.00874c0.01071,-0.00857 0.01693,-0.02155 0.01689,-0.03526v-0.11c0,-0.01 -0.001,-0.02 -0.004,-0.03l-0.053,-0.222c-0.01737,-0.07366 -0.03604,-0.147 -0.056,-0.22c-0.02031,-0.07299 -0.03931,-0.14633 -0.057,-0.22l-0.124,-0.622l-0.226,-0.712l-0.147,-0.62c-0.02691,-0.14031 -0.05692,-0.28001 -0.09,-0.419l-0.017,-0.09c-0.01123,-0.06069 -0.01692,-0.12228 -0.017,-0.184c0,-0.108 -0.002,-0.22 -0.011,-0.325v-0.203c-0.02961,-0.228 -0.06161,-0.45568 -0.096,-0.683c-0.004,-0.034 -0.007,-0.069 -0.02,-0.102c-0.01127,-0.0296 -0.02533,-0.05806 -0.042,-0.085l-0.068,-0.113c-0.04442,-0.0784 -0.08776,-0.1574 -0.13,-0.237c-0.025,-0.047 -0.05,-0.095 -0.077,-0.142c-0.03488,-0.06334 -0.06336,-0.13 -0.085,-0.199l-0.024,-0.077c-0.02272,-0.06914 -0.04372,-0.13883 -0.063,-0.209c-0.01402,-0.05085 -0.02868,-0.10152 -0.044,-0.152l-0.01,-0.035c-0.00518,-0.02704 -0.01392,-0.05327 -0.026,-0.078c-0.00486,-0.00957 -0.00953,-0.01924 -0.014,-0.029l-0.02,-0.039l-0.138,-0.248c-0.08462,-0.14743 -0.12458,-0.31628 -0.115,-0.486c0.002,-0.041 0.006,-0.084 0.01,-0.127l0.002,-0.032v-0.158c0,-0.09 -0.012,-0.17 -0.057,-0.248c-0.102,-0.17 -0.203,-0.34 -0.305,-0.497c-0.02987,-0.04526 -0.05342,-0.09438 -0.07,-0.146c-0.026,-0.08 -0.052,-0.154 -0.077,-0.227c-0.0312,-0.08993 -0.0612,-0.18027 -0.09,-0.271l-0.045,-0.192l-0.051,-0.226v-0.003l-0.033,-0.143l-0.007,-0.034c-0.009,-0.043 -0.017,-0.085 -0.038,-0.123l-0.007,-0.013l-0.294,-0.622l-0.046,-0.114c-0.03819,-0.09332 -0.07552,-0.18699 -0.112,-0.281l-0.075,-0.187c-0.02316,-0.05866 -0.05483,-0.11358 -0.094,-0.163c-0.113,-0.132 -0.226,-0.264 -0.346,-0.396c-0.04737,-0.05204 -0.08346,-0.11333 -0.106,-0.18c-0.05206,-0.18373 -0.10875,-0.36612 -0.17,-0.547c-0.01691,-0.03101 -0.03702,-0.06017 -0.06,-0.087l-0.03,-0.04l-0.205,-0.28c-0.07365,-0.10138 -0.12758,-0.2157 -0.159,-0.337l-0.102,-0.394c-0.0123,-0.04676 -0.03045,-0.09178 -0.054,-0.134l-0.237,-0.407l-0.124,-0.203l-0.147,-0.283l-0.158,-0.295c-0.01921,-0.03556 -0.042,-0.06906 -0.068,-0.1l-0.147,-0.17c-0.09887,-0.12267 -0.20057,-0.24303 -0.305,-0.361l-0.388,-0.353c-0.07183,-0.06593 -0.1344,-0.14128 -0.186,-0.224l-0.024,-0.039c-0.03464,-0.05427 -0.06864,-0.10894 -0.102,-0.164l-0.124,-0.203l-0.102,-0.214l-0.136,-0.26c-0.10022,-0.18253 -0.31117,-0.27422 -0.513,-0.223c-0.06075,0.01975 -0.11664,0.05212 -0.164,0.095c-0.16158,0.13741 -0.20825,0.36749 -0.113,0.557l0.124,0.237l0.113,0.226l0.135,0.237c0.052,0.085 0.103,0.17 0.149,0.256c0.03,0.055 0.052,0.114 0.07,0.174l0.143,0.508c0.045,0.147 0.079,0.282 0.113,0.43l0.056,0.225c0.02258,0.06944 0.0571,0.13442 0.102,0.192l0.249,0.26l0.103,0.112c0.02,0.022 0.032,0.052 0.032,0.083l0.001,0.017c0.02266,0.16897 0.03867,0.33877 0.048,0.509c0.008,0.051 0.033,0.098 0.057,0.145c0.01,0.02 0.021,0.041 0.03,0.062l0.208,0.466c0.02936,0.06885 0.06991,0.13238 0.12,0.188c0.067,0.067 0.138,0.132 0.208,0.197c0.13277,0.12823 0.21359,0.30091 0.227,0.485l0.005,0.052v0.158c0.01166,0.0991 0.0508,0.19297 0.113,0.271c0.056,0.068 0.116,0.136 0.175,0.203c0.114,0.13 0.176,0.299 0.161,0.472l-0.005,0.064l-0.015,0.187c0,0.125 0.034,0.249 0.113,0.34l0.3,0.332c0.07,0.078 0.113,0.175 0.13,0.277c0.008,0.054 0.016,0.108 0.022,0.159l0.02,0.121l0.007,0.045c0.005,0.04 0.01,0.08 0.025,0.117l0.02,0.047c0.01251,0.02825 0.02687,0.05565 0.043,0.082c0.105,0.169 0.209,0.346 0.303,0.514l0.056,0.124c0.027,0.074 0.058,0.143 0.088,0.21c0.04,0.092 0.053,0.192 0.041,0.291c-0.017,0.141 -0.036,0.28 -0.06,0.414c-0.02186,0.12076 0.01112,0.24498 0.09,0.339l0.28,0.374c0.06,0.08 0.098,0.176 0.115,0.276c0.008,0.05 0.017,0.101 0.023,0.152l0.033,0.226c0.03,0.152 0.052,0.313 0.072,0.466l0.008,0.054c-0.00641,0.12656 0.03379,0.25108 0.113,0.35c0.067,0.085 0.135,0.166 0.203,0.248v0.001l0.13,0.158c0.04828,0.0587 0.08126,0.12844 0.096,0.203c0.034,0.136 0.056,0.271 0.079,0.407l0.056,0.248l0.042,0.178c0.02471,0.10646 0.03181,0.21625 0.021,0.325l-0.035,0.364c-0.00787,0.0686 -0.00585,0.13797 0.006,0.206l0.158,0.633l0.26,0.678l0.04,0.126c0.024,0.08 0.051,0.166 0.073,0.247l0.025,0.079c0.02093,0.06736 0.03467,0.13675 0.041,0.207l0.025,0.267l0.02,0.2l0.003,0.037c0.00441,0.03548 0.01384,0.07016 0.028,0.103l0.015,0.042l0.04,0.138c0.02,0.067 0.04,0.135 0.063,0.203l0.011,0.043c0.023,0.084 0.034,0.17 0.034,0.258v0.445l0.057,0.677c-0.00024,0.03757 0.00311,0.07507 0.01,0.112l0.012,0.07c0.034,0.169 0.068,0.338 0.09,0.508c0,0.037 0.012,0.072 0.024,0.107l0.008,0.027l0.07,0.227l0.08,0.282c0.05852,0.19423 0.23714,0.32738 0.44,0.328h0.034c0.21157,-0.01547 0.38468,-0.1745 0.418,-0.384l0.068,-0.542c0.054,-0.256 0.02,-0.772 -0.048,-1.156c-0.03111,-0.16147 -0.02838,-0.32764 0.008,-0.488c0.02,-0.082 0.04,-0.164 0.062,-0.243c0.01139,-0.05609 0.01139,-0.11391 0,-0.17l-0.034,-0.214c-0.01074,-0.06178 -0.02008,-0.1238 -0.028,-0.186c-0.00659,-0.05077 -0.01392,-0.10144 -0.022,-0.152c-0.00997,-0.05923 -0.00724,-0.1199 0.008,-0.178c0.032,-0.125 0.051,-0.25 0.07,-0.374c0.00194,-0.01203 0.00868,-0.02275 0.01867,-0.02972c0.00999,-0.00697 0.02238,-0.0096 0.03433,-0.00728zM6.808,15.818l-0.056,-0.237c-0.017,-0.062 -0.031,-0.127 -0.046,-0.192c-0.014,-0.065 -0.028,-0.13 -0.045,-0.192l-0.068,-0.485l-0.034,-0.36c-0.00705,-0.06915 -0.00705,-0.13885 0,-0.208l0.006,-0.054l0.017,-0.158l0.013,-0.088c0.00671,-0.04703 0.01005,-0.09449 0.01,-0.142v-0.527c0.0026,-0.06689 -0.01295,-0.13323 -0.045,-0.192l-0.046,-0.102c-0.028,-0.054 -0.053,-0.11 -0.078,-0.164v-0.001l-0.043,-0.09c-0.045,-0.094 -0.08,-0.192 -0.1,-0.294l-0.053,-0.276c-0.00556,-0.02966 -0.01256,-0.05903 -0.021,-0.088l-0.001,-0.006c-0.013,-0.043 -0.03,-0.083 -0.05,-0.123l-0.048,-0.097c-0.06724,-0.14909 -0.08747,-0.31513 -0.058,-0.476l0.034,-0.147c0.023,-0.102 0,-0.215 -0.045,-0.317c-0.051,-0.102 -0.107,-0.204 -0.165,-0.31l-0.035,-0.064c-0.03964,-0.07348 -0.06732,-0.15281 -0.082,-0.235c-0.017,-0.086 -0.034,-0.165 -0.052,-0.243c-0.01098,-0.04936 -0.018,-0.09952 -0.021,-0.15l-0.027,-0.403c-0.00274,-0.05209 -0.01112,-0.10372 -0.025,-0.154l-0.192,-0.53l-0.011,-0.046c-0.022,-0.09 -0.052,-0.213 -0.09,-0.327l-0.034,-0.136c-0.01475,-0.0577 -0.04169,-0.11158 -0.079,-0.158c-0.092,-0.123 -0.185,-0.246 -0.286,-0.361c-0.02,-0.022 -0.03,-0.051 -0.03,-0.081c-0.01661,-0.10179 -0.03395,-0.20346 -0.052,-0.305l-0.007,-0.049c-0.007,-0.043 -0.014,-0.087 -0.03,-0.127c-0.01763,-0.04179 -0.03766,-0.08253 -0.06,-0.122l-0.11,-0.185c-0.07563,-0.12722 -0.12208,-0.26965 -0.136,-0.417l-0.022,-0.236c-0.00367,-0.05154 -0.01548,-0.10216 -0.035,-0.15l-0.169,-0.373l-0.08,-0.169c-0.032,-0.082 -0.066,-0.178 -0.102,-0.278l-0.09,-0.242c-0.008,-0.024 -0.022,-0.047 -0.032,-0.067c-0.009,-0.015 -0.018,-0.031 -0.028,-0.045l-0.045,-0.064c-0.107,-0.152 -0.195,-0.276 -0.29,-0.4l-0.147,-0.17c-0.04,-0.045 -0.082,-0.087 -0.124,-0.13l-0.049,-0.048c-0.051,-0.053 -0.09,-0.116 -0.12,-0.183c-0.057,-0.124 -0.114,-0.237 -0.17,-0.35l-0.147,-0.396c-0.068,-0.181 -0.237,-0.293 -0.429,-0.293c-0.025,0 -0.052,0 -0.079,0.003c-0.0471,0.00761 -0.09247,0.02353 -0.134,0.047c-0.19748,0.10419 -0.28561,0.33978 -0.205,0.548l0.146,0.418c0.05649,0.12281 0.10952,0.2472 0.159,0.373l0.001,0.004c0.03659,0.08755 0.06082,0.17977 0.072,0.274v0.004l0.017,0.148l0.023,0.18c0.022,0.181 0.033,0.362 0.045,0.542c0.00473,0.09169 0.04032,0.17909 0.101,0.248c0.04683,0.05626 0.09316,0.11293 0.139,0.17c0.08029,0.10045 0.11508,0.22983 0.096,0.357c-0.007,0.056 -0.015,0.111 -0.02,0.163c0,0.068 0,0.135 0.011,0.203l0.158,0.52c0.02269,0.06604 0.05725,0.12739 0.102,0.181l0.215,0.223c0.05953,0.05645 0.08563,0.13967 0.069,0.22l-0.013,0.054l-0.022,0.147c-0.02177,0.12418 0.01103,0.25172 0.09,0.35c0.04613,0.05838 0.09147,0.11739 0.136,0.177c0.06471,0.08696 0.08333,0.19986 0.05,0.303l-0.05,0.163c-0.0448,0.14932 -0.01093,0.31118 0.09,0.43l0.079,0.096c0.14633,0.17887 0.22619,0.4029 0.226,0.634v0.016c-0.00419,0.07544 0.0154,0.15028 0.056,0.214l0.216,0.43c0.01452,0.02974 0.02689,0.06049 0.037,0.092c0.05699,0.16216 0.02596,0.34226 -0.082,0.476c-0.13088,0.13823 -0.16705,0.34105 -0.092,0.516l0.37,0.793c0.06173,0.13213 0.09381,0.27616 0.094,0.422v0.197c0.00049,0.09759 0.03201,0.1925 0.09,0.271c0.07806,0.09596 0.1531,0.19434 0.225,0.295l0.065,0.088c0.01695,0.02284 0.02607,0.05055 0.026,0.079c0.00022,0.00841 0.00122,0.01678 0.003,0.025c0.021,0.109 0.032,0.217 0.032,0.315l0.03,0.244c0.01707,0.13722 0.00549,0.27648 -0.034,0.409l-0.064,0.217c-0.02269,0.06987 -0.02269,0.14513 0,0.215c0.011,0.05 0.019,0.104 0.028,0.158c0.00762,0.05296 0.01696,0.10565 0.028,0.158l0.03,0.171c0.00187,0.03575 0.01179,0.07061 0.029,0.102c0.00585,0.01142 0.01119,0.0231 0.016,0.035c0.03719,0.10539 0.07153,0.21176 0.103,0.319l0.025,0.085l0.023,0.067l0.056,0.238l0.024,0.112c0.01445,0.06772 0.02182,0.13676 0.022,0.206v0.358c-0.00005,0.07603 0.00834,0.15182 0.025,0.226l0.025,0.114l0.008,0.033c0.02732,0.12816 0.03273,0.26003 0.016,0.39l-0.003,0.022l-0.016,0.124c-0.006,0.05 -0.01,0.101 -0.01,0.152v0.262l-0.023,0.237v0.008c0.00048,0.04746 0.00348,0.09486 0.009,0.142c0.009,0.081 0.012,0.16 0.016,0.24l0.009,0.153c0.00222,0.06966 0.01093,0.13896 0.026,0.207l0.008,0.041l0.023,0.113l0.045,0.26c0.03537,0.20378 0.20056,0.36003 0.406,0.384h0.046c0.19034,0.0019 0.36147,-0.11566 0.428,-0.294l0.08,-0.214l0.045,-0.113l0.034,-0.102c0.079,-0.169 0.136,-0.463 0.181,-0.881c0.00352,-0.06485 -0.00426,-0.12982 -0.023,-0.192c-0.0298,-0.08708 -0.02369,-0.18244 0.017,-0.265l0.011,-0.023c0.02582,-0.05044 0.05049,-0.10145 0.074,-0.153c0.03239,-0.05867 0.04829,-0.12502 0.046,-0.192v-0.263c0.00129,-0.13203 0.02496,-0.26288 0.07,-0.387c0.026,-0.075 0.051,-0.151 0.076,-0.231c0.02438,-0.06888 0.03226,-0.14252 0.023,-0.215c-0.012,-0.064 -0.022,-0.128 -0.032,-0.192c-0.02,-0.126 -0.04,-0.253 -0.07,-0.38v-0.047c0.00003,-0.00287 -0.00149,-0.00554 -0.00397,-0.00698c-0.00248,-0.00145 -0.00554,-0.00145 -0.00803,-0.00002c-0.005,0.003 -0.012,-0.001 -0.012,-0.007c-0.011,-0.153 -0.022,-0.297 -0.044,-0.44zM17.635,17h-1.667c-0.4491,0.01556 -0.80513,0.38413 -0.80513,0.8335c0,0.44937 0.35603,0.81794 0.80513,0.8335h1.667v1.666c0.02177,0.4442 0.38827,0.79317 0.833,0.79317c0.44473,0 0.81123,-0.34897 0.833,-0.79317v-1.666h1.667c0.4491,-0.01556 0.80513,-0.38413 0.80513,-0.8335c0,-0.44937 -0.35603,-0.81794 -0.80513,-0.8335h-1.667v-1.667c-0.02177,-0.4442 -0.38827,-0.79317 -0.833,-0.79317c-0.44473,0 -0.81123,0.34897 -0.833,0.79317z" fill="#62757e" fill-rule="nonzero"></path></g>
  </g>
  <g id="Regular-M" transform="matrix(5 0 0 5 1389.82 1030)">
    <defs><clipPath id="clip-1"><rect x="0" y="0" width="24" height="24" fill="none" fill-rule="nonzero"></rect></clipPath></defs>
<g clip-path="url(#clip-1)" fill="none" fill-rule="none" stroke="none" stroke-width="1" stroke-linecap="butt" stroke-linejoin="miter" stroke-miterlimit="10" stroke-dasharray="" stroke-dashoffset="0" font-family="none" font-weight="none" font-size="none" text-anchor="none" style="mix-blend-mode: normal"><path d="M19.652,13.005c0.067,0.171 0.19,0.312 0.334,0.427c0.054,0.043 0.106,0.088 0.157,0.136c0.188,0.178 0.417,0.344 0.67,0.286c0.135,-0.03 0.277,-0.088 0.424,-0.18c0.08426,-0.04756 0.12122,-0.14949 0.087,-0.24l-0.119,-0.27c-0.05306,-0.12825 -0.08643,-0.26378 -0.099,-0.402l-0.006,-0.053c-0.00484,-0.04061 -0.00918,-0.08128 -0.013,-0.122v-0.099c-0.00007,-0.01665 -0.00277,-0.03319 -0.008,-0.049l-0.008,-0.026c-0.01149,-0.04545 -0.02897,-0.08917 -0.052,-0.13c-0.034,-0.057 -0.067,-0.116 -0.101,-0.176c-0.03339,-0.05869 -0.06739,-0.11702 -0.102,-0.175l-0.102,-0.17c-0.05742,-0.12728 -0.12151,-0.25146 -0.192,-0.372l-0.056,-0.113c-0.08096,-0.12755 -0.16431,-0.25357 -0.25,-0.378l-0.064,-0.094c-0.03163,-0.04683 -0.05907,-0.09635 -0.082,-0.148l-0.01,-0.024l-0.204,-0.373l-0.184,-0.367c-0.0281,-0.05607 -0.05087,-0.11466 -0.068,-0.175l-0.121,-0.43c-0.02865,-0.07865 -0.05899,-0.15666 -0.091,-0.234c-0.024,-0.06 -0.047,-0.116 -0.067,-0.172l-0.068,-0.17c-0.02322,-0.05859 -0.0579,-0.11197 -0.102,-0.157c-0.06635,-0.06161 -0.13202,-0.12395 -0.197,-0.187l-0.131,-0.124c-0.04416,-0.04115 -0.08191,-0.08868 -0.112,-0.141c-0.0493,-0.08844 -0.10269,-0.17453 -0.16,-0.258c-0.02223,-0.03452 -0.04423,-0.06919 -0.066,-0.104c-0.03172,-0.04698 -0.06862,-0.09025 -0.11,-0.129l-0.041,-0.039c-0.15147,-0.14026 -0.25413,-0.32526 -0.293,-0.528l-0.03,-0.162c-0.0192,-0.10066 -0.07125,-0.1921 -0.148,-0.26c-0.09885,-0.08992 -0.20057,-0.17663 -0.305,-0.26c-0.05993,-0.05264 -0.11241,-0.1132 -0.156,-0.18l-0.063,-0.096l-0.001,-0.001l-0.087,-0.133c-0.02832,-0.04307 -0.05339,-0.0882 -0.075,-0.135l-0.035,-0.076c-0.05013,-0.11237 -0.10181,-0.22405 -0.155,-0.335c-0.014,-0.03 -0.028,-0.062 -0.048,-0.09c-0.00697,-0.00957 -0.01466,-0.0186 -0.023,-0.027l-0.373,-0.43l-0.288,-0.401c-0.0446,-0.0636 -0.10013,-0.11879 -0.164,-0.163c-0.06294,-0.03493 -0.12528,-0.07094 -0.187,-0.108c-0.06139,-0.03672 -0.1234,-0.07239 -0.186,-0.107c-0.02218,-0.01498 -0.04064,-0.03481 -0.054,-0.058l-0.217,-0.371l-0.054,-0.07c-0.03779,-0.04447 -0.08153,-0.0835 -0.13,-0.116l-0.042,-0.029c-0.04388,-0.03329 -0.08722,-0.0673 -0.13,-0.102l-0.058,-0.046c-0.04721,-0.03678 -0.08693,-0.08226 -0.117,-0.134l-0.069,-0.135c-0.03842,-0.07396 -0.07543,-0.14864 -0.111,-0.224c-0.00801,-0.01686 -0.01703,-0.03322 -0.027,-0.049l-0.005,-0.008c-0.02718,-0.03971 -0.05946,-0.07569 -0.096,-0.107l-0.029,-0.027l-0.34,-0.331l-0.359,-0.391c-0.03146,-0.03537 -0.06667,-0.06722 -0.105,-0.095l-0.18,-0.113l-0.181,-0.113l-0.093,-0.056l-0.03,-0.018l-0.01,-0.007c-0.01203,-0.00721 -0.02438,-0.01388 -0.037,-0.02l-0.397,-0.166c-0.00634,-0.00264 -0.01313,-0.004 -0.02,-0.004c-0.01496,-0.00023 -0.02912,-0.00676 -0.039,-0.018c-0.06176,-0.06672 -0.12827,-0.12888 -0.199,-0.186l-0.097,-0.082c-0.03331,-0.02786 -0.06472,-0.05793 -0.094,-0.09l-0.148,-0.166l-0.102,-0.102c-0.08622,-0.08897 -0.20323,-0.14156 -0.327,-0.147c-0.17774,-0.00269 -0.34018,0.10019 -0.41372,0.26202c-0.07354,0.16183 -0.0442,0.35186 0.07472,0.48398l0.113,0.124c0.028,0.034 0.06,0.068 0.09,0.102c0.03108,0.03269 0.06109,0.06638 0.09,0.101l0.181,0.18c0.034,0.035 0.071,0.069 0.108,0.103l0.034,0.031c0.04856,0.04587 0.08852,0.10006 0.118,0.16l0.054,0.097c0.049,0.088 0.097,0.174 0.138,0.265l0.271,0.52c0.03906,0.07816 0.10263,0.14138 0.181,0.18c0.21762,0.12329 0.37893,0.32619 0.45,0.566l0.013,0.045c0.01973,0.0559 0.04662,0.10901 0.08,0.158c0.078,0.09 0.146,0.18 0.214,0.27l0.113,0.148c0.04576,0.06655 0.11389,0.11446 0.192,0.135l0.076,0.03c0.177,0.07 0.303,0.222 0.353,0.405l0.023,0.085c0.03289,0.11779 0.10941,0.21862 0.214,0.282l0.147,0.08c0.10759,0.06378 0.18098,0.17238 0.2,0.296l0.038,0.234c0.022,0.147 0.112,0.26 0.237,0.328l0.262,0.139c0.07784,0.04274 0.13911,0.11034 0.174,0.192l0.027,0.064l0.068,0.181c0.02401,0.06747 0.06709,0.12653 0.124,0.17c0.062,0.056 0.128,0.113 0.193,0.17l0.136,0.12c0.03671,0.03227 0.07081,0.06737 0.102,0.105l0.055,0.068c0.09055,0.1171 0.14447,0.25835 0.155,0.406l0.026,0.283c0.01457,0.13734 0.08881,0.26131 0.203,0.339l0.226,0.146c0.102,0.06764 0.18251,0.16306 0.232,0.275l0.039,0.087l0.056,0.124c0.08,0.181 0.147,0.34 0.215,0.509c0.034,0.09 0.102,0.17 0.192,0.226l0.045,0.033l0.112,0.066c0.163,0.097 0.295,0.24 0.38,0.41l0.062,0.123l0.158,0.286c0.052,0.095 0.09,0.198 0.104,0.306l0.005,0.039c0.008,0.06 0.016,0.12 0.026,0.182l0.007,0.036l0.008,0.052c0.00874,0.0721 0.03078,0.14195 0.065,0.206c0.045,0.08 0.09,0.156 0.135,0.232l0.136,0.231c0.015,0.03 0.039,0.055 0.062,0.08c0.01,0.01 0.021,0.021 0.03,0.033l0.02,0.023c0.066,0.087 0.127,0.16 0.185,0.231c0.033,0.04 0.066,0.079 0.098,0.12l0.09,0.135l0.085,0.13l0.043,0.065c0.02787,0.04282 0.05196,0.088 0.072,0.135l0.004,0.009zM14.896,15.242c0.069,0.19 0.282,0.28 0.477,0.231l0.13,-0.029c0.06371,-0.0118 0.12472,-0.03519 0.18,-0.069l0.045,-0.027c0.197,-0.123 0.316,-0.335 0.368,-0.562c0.036,-0.156 0.088,-0.307 0.152,-0.451c0.00943,-0.02005 0.01086,-0.04294 0.004,-0.064l-0.03,-0.097v-0.001c-0.03035,-0.09487 -0.05802,-0.19058 -0.083,-0.287l-0.017,-0.06c-0.01803,-0.06481 -0.03041,-0.13105 -0.037,-0.198c-0.01081,-0.10132 -0.02415,-0.20235 -0.04,-0.303c-0.00512,-0.03242 -0.0078,-0.06518 -0.008,-0.098c0.00002,-0.05738 -0.00737,-0.11452 -0.022,-0.17c-0.04923,-0.18938 -0.09457,-0.37976 -0.136,-0.571c-0.01052,-0.05693 -0.03339,-0.11086 -0.067,-0.158l-0.046,-0.057c-0.03212,-0.04525 -0.06412,-0.09058 -0.096,-0.136l-0.13,-0.182c-0.05891,-0.0813 -0.10605,-0.17051 -0.14,-0.265l-0.006,-0.016c-0.029,-0.062 -0.054,-0.127 -0.08,-0.191c-0.03105,-0.08042 -0.06473,-0.15979 -0.101,-0.238l-0.016,-0.026c-0.01124,-0.02065 -0.02359,-0.04068 -0.037,-0.06l-0.096,-0.133c-0.11642,-0.1591 -0.18322,-0.34905 -0.192,-0.546l-0.01,-0.229c0,-0.09 -0.033,-0.18 -0.09,-0.26c-0.08773,-0.12158 -0.18186,-0.23842 -0.282,-0.35l-0.023,-0.027c-0.05264,-0.06435 -0.09667,-0.13528 -0.131,-0.211l-0.06,-0.132v-0.003h-0.001l-0.082,-0.182c-0.02044,-0.04409 -0.03781,-0.08953 -0.052,-0.136l-0.013,-0.043c-0.02533,-0.09411 -0.05334,-0.18748 -0.084,-0.28v-0.001l-0.047,-0.152l-0.009,-0.036c-0.00364,-0.02434 -0.01106,-0.04796 -0.022,-0.07l-0.029,-0.041c-0.00924,-0.01227 -0.01791,-0.02495 -0.026,-0.038l-0.302,-0.5l-0.265,-0.508c-0.0308,-0.05965 -0.07136,-0.11373 -0.12,-0.16c-0.11765,-0.10408 -0.23769,-0.20544 -0.36,-0.304c-0.03755,-0.03696 -0.06715,-0.0812 -0.087,-0.13l-0.174,-0.435c-0.02531,-0.05733 -0.05902,-0.11058 -0.1,-0.158c-0.10565,-0.13928 -0.20059,-0.28637 -0.284,-0.44l-0.27,-0.51l-0.002,-0.003c-0.00549,-0.0103 -0.0115,-0.02031 -0.018,-0.03l-0.013,-0.02c-0.01197,-0.0201 -0.02465,-0.03978 -0.038,-0.059l-0.348,-0.474c-0.035,-0.064 -0.084,-0.137 -0.134,-0.212c-0.03125,-0.04594 -0.06192,-0.09228 -0.092,-0.139l-0.073,-0.114c-0.02819,-0.0441 -0.06068,-0.08531 -0.097,-0.123l-0.462,-0.43l-0.398,-0.32c-0.04347,-0.03489 -0.08394,-0.07336 -0.121,-0.115l-0.222,-0.25c-0.04763,-0.05513 -0.09077,-0.11398 -0.129,-0.176l-0.034,-0.053c-0.03164,-0.04797 -0.06166,-0.097 -0.09,-0.147l-0.068,-0.113c-0.13677,-0.2056 -0.41191,-0.26576 -0.622,-0.136c-0.21006,0.13289 -0.27499,0.40953 -0.146,0.622l0.079,0.124c0.056,0.09 0.113,0.18 0.169,0.282l0.226,0.509c0.056,0.135 0.147,0.26 0.226,0.361c0.04086,0.04791 0.07516,0.10104 0.102,0.158c0.079,0.204 0.146,0.396 0.214,0.588c0.023,0.079 0.08,0.147 0.136,0.203l0.135,0.113c0.04,0.034 0.08,0.065 0.119,0.096c0.077,0.061 0.127,0.15 0.143,0.247l0.05,0.307c0.00998,0.06144 0.03062,0.12067 0.061,0.175l0.305,0.53c0.034,0.057 0.08,0.114 0.147,0.148c0.068,0.045 0.133,0.09 0.198,0.135c0.125,0.087 0.21,0.222 0.234,0.373l0.031,0.203c0.01111,0.10963 0.0637,0.21087 0.147,0.283l0.147,0.124c0.12437,0.10623 0.19478,0.26246 0.192,0.426v0.148c0,0.054 0.003,0.108 0.017,0.16c0.02536,0.10201 0.08286,0.19317 0.164,0.26c0.067,0.057 0.135,0.11 0.203,0.164c0.133,0.106 0.23,0.25 0.265,0.417l0.017,0.086l0.034,0.124c0.01253,0.0623 0.03998,0.12063 0.08,0.17c0.061,0.078 0.12,0.155 0.18,0.23l0.136,0.175c0.03,0.038 0.057,0.079 0.081,0.121l0.054,0.095l0.02,0.035c0.074,0.13 0.101,0.28 0.095,0.429l-0.013,0.315c-0.00138,0.12637 0.04713,0.24818 0.135,0.339l0.293,0.293c0.0602,0.05932 0.10366,0.13349 0.126,0.215c0.01,0.043 0.022,0.085 0.033,0.125l0.057,0.214l0.022,0.09c0.038,0.148 0.074,0.29 0.102,0.441c0.02587,0.10465 0.07626,0.20165 0.147,0.283c0.113,0.113 0.497,0.711 0.553,0.858l0.08,0.215c0.022,0.067 0.044,0.134 0.067,0.198c0.02227,0.0633 0.03376,0.12989 0.034,0.197c0,0.147 0,0.294 -0.011,0.44c0,0.057 0,0.114 0.022,0.17zM12.684,19.376c0.01337,0.00305 0.0274,-0.00017 0.03811,-0.00874c0.01071,-0.00857 0.01693,-0.02155 0.01689,-0.03526v-0.11c0,-0.01 -0.001,-0.02 -0.004,-0.03l-0.053,-0.222c-0.01737,-0.07366 -0.03604,-0.147 -0.056,-0.22c-0.02031,-0.07299 -0.03931,-0.14633 -0.057,-0.22l-0.124,-0.622l-0.226,-0.712l-0.147,-0.62c-0.02691,-0.14031 -0.05692,-0.28001 -0.09,-0.419l-0.017,-0.09c-0.01123,-0.06069 -0.01692,-0.12228 -0.017,-0.184c0,-0.108 -0.002,-0.22 -0.011,-0.325v-0.203c-0.02961,-0.228 -0.06161,-0.45568 -0.096,-0.683c-0.004,-0.034 -0.007,-0.069 -0.02,-0.102c-0.01127,-0.0296 -0.02533,-0.05806 -0.042,-0.085l-0.068,-0.113c-0.04442,-0.0784 -0.08776,-0.1574 -0.13,-0.237c-0.025,-0.047 -0.05,-0.095 -0.077,-0.142c-0.03488,-0.06334 -0.06336,-0.13 -0.085,-0.199l-0.024,-0.077c-0.02272,-0.06914 -0.04372,-0.13883 -0.063,-0.209c-0.01402,-0.05085 -0.02868,-0.10152 -0.044,-0.152l-0.01,-0.035c-0.00518,-0.02704 -0.01392,-0.05327 -0.026,-0.078c-0.00486,-0.00957 -0.00953,-0.01924 -0.014,-0.029l-0.02,-0.039l-0.138,-0.248c-0.08462,-0.14743 -0.12458,-0.31628 -0.115,-0.486c0.002,-0.041 0.006,-0.084 0.01,-0.127l0.002,-0.032v-0.158c0,-0.09 -0.012,-0.17 -0.057,-0.248c-0.102,-0.17 -0.203,-0.34 -0.305,-0.497c-0.02987,-0.04526 -0.05342,-0.09438 -0.07,-0.146c-0.026,-0.08 -0.052,-0.154 -0.077,-0.227c-0.0312,-0.08993 -0.0612,-0.18027 -0.09,-0.271l-0.045,-0.192l-0.051,-0.226v-0.003l-0.033,-0.143l-0.007,-0.034c-0.009,-0.043 -0.017,-0.085 -0.038,-0.123l-0.007,-0.013l-0.294,-0.622l-0.046,-0.114c-0.03819,-0.09332 -0.07552,-0.18699 -0.112,-0.281l-0.075,-0.187c-0.02316,-0.05866 -0.05483,-0.11358 -0.094,-0.163c-0.113,-0.132 -0.226,-0.264 -0.346,-0.396c-0.04737,-0.05204 -0.08346,-0.11333 -0.106,-0.18c-0.05206,-0.18373 -0.10875,-0.36612 -0.17,-0.547c-0.01691,-0.03101 -0.03702,-0.06017 -0.06,-0.087l-0.03,-0.04l-0.205,-0.28c-0.07365,-0.10138 -0.12758,-0.2157 -0.159,-0.337l-0.102,-0.394c-0.0123,-0.04676 -0.03045,-0.09178 -0.054,-0.134l-0.237,-0.407l-0.124,-0.203l-0.147,-0.283l-0.158,-0.295c-0.01921,-0.03556 -0.042,-0.06906 -0.068,-0.1l-0.147,-0.17c-0.09887,-0.12267 -0.20057,-0.24303 -0.305,-0.361l-0.388,-0.353c-0.07183,-0.06593 -0.1344,-0.14128 -0.186,-0.224l-0.024,-0.039c-0.03464,-0.05427 -0.06864,-0.10894 -0.102,-0.164l-0.124,-0.203l-0.102,-0.214l-0.136,-0.26c-0.10022,-0.18253 -0.31117,-0.27422 -0.513,-0.223c-0.06075,0.01975 -0.11664,0.05212 -0.164,0.095c-0.16158,0.13741 -0.20825,0.36749 -0.113,0.557l0.124,0.237l0.113,0.226l0.135,0.237c0.052,0.085 0.103,0.17 0.149,0.256c0.03,0.055 0.052,0.114 0.07,0.174l0.143,0.508c0.045,0.147 0.079,0.282 0.113,0.43l0.056,0.225c0.02258,0.06944 0.0571,0.13442 0.102,0.192l0.249,0.26l0.103,0.112c0.02,0.022 0.032,0.052 0.032,0.083l0.001,0.017c0.02266,0.16897 0.03867,0.33877 0.048,0.509c0.008,0.051 0.033,0.098 0.057,0.145c0.01,0.02 0.021,0.041 0.03,0.062l0.208,0.466c0.02936,0.06885 0.06991,0.13238 0.12,0.188c0.067,0.067 0.138,0.132 0.208,0.197c0.13277,0.12823 0.21359,0.30091 0.227,0.485l0.005,0.052v0.158c0.01166,0.0991 0.0508,0.19297 0.113,0.271c0.056,0.068 0.116,0.136 0.175,0.203c0.114,0.13 0.176,0.299 0.161,0.472l-0.005,0.064l-0.015,0.187c0,0.125 0.034,0.249 0.113,0.34l0.3,0.332c0.07,0.078 0.113,0.175 0.13,0.277c0.008,0.054 0.016,0.108 0.022,0.159l0.02,0.121l0.007,0.045c0.005,0.04 0.01,0.08 0.025,0.117l0.02,0.047c0.01251,0.02825 0.02687,0.05565 0.043,0.082c0.105,0.169 0.209,0.346 0.303,0.514l0.056,0.124c0.027,0.074 0.058,0.143 0.088,0.21c0.04,0.092 0.053,0.192 0.041,0.291c-0.017,0.141 -0.036,0.28 -0.06,0.414c-0.02186,0.12076 0.01112,0.24498 0.09,0.339l0.28,0.374c0.06,0.08 0.098,0.176 0.115,0.276c0.008,0.05 0.017,0.101 0.023,0.152l0.033,0.226c0.03,0.152 0.052,0.313 0.072,0.466l0.008,0.054c-0.00641,0.12656 0.03379,0.25108 0.113,0.35c0.067,0.085 0.135,0.166 0.203,0.248v0.001l0.13,0.158c0.04828,0.0587 0.08126,0.12844 0.096,0.203c0.034,0.136 0.056,0.271 0.079,0.407l0.056,0.248l0.042,0.178c0.02471,0.10646 0.03181,0.21625 0.021,0.325l-0.035,0.364c-0.00787,0.0686 -0.00585,0.13797 0.006,0.206l0.158,0.633l0.26,0.678l0.04,0.126c0.024,0.08 0.051,0.166 0.073,0.247l0.025,0.079c0.02093,0.06736 0.03467,0.13675 0.041,0.207l0.025,0.267l0.02,0.2l0.003,0.037c0.00441,0.03548 0.01384,0.07016 0.028,0.103l0.015,0.042l0.04,0.138c0.02,0.067 0.04,0.135 0.063,0.203l0.011,0.043c0.023,0.084 0.034,0.17 0.034,0.258v0.445l0.057,0.677c-0.00024,0.03757 0.00311,0.07507 0.01,0.112l0.012,0.07c0.034,0.169 0.068,0.338 0.09,0.508c0,0.037 0.012,0.072 0.024,0.107l0.008,0.027l0.07,0.227l0.08,0.282c0.05852,0.19423 0.23714,0.32738 0.44,0.328h0.034c0.21157,-0.01547 0.38468,-0.1745 0.418,-0.384l0.068,-0.542c0.054,-0.256 0.02,-0.772 -0.048,-1.156c-0.03111,-0.16147 -0.02838,-0.32764 0.008,-0.488c0.02,-0.082 0.04,-0.164 0.062,-0.243c0.01139,-0.05609 0.01139,-0.11391 0,-0.17l-0.034,-0.214c-0.01074,-0.06178 -0.02008,-0.1238 -0.028,-0.186c-0.00659,-0.05077 -0.01392,-0.10144 -0.022,-0.152c-0.00997,-0.05923 -0.00724,-0.1199 0.008,-0.178c0.032,-0.125 0.051,-0.25 0.07,-0.374c0.00194,-0.01203 0.00868,-0.02275 0.01867,-0.02972c0.00999,-0.00697 0.02238,-0.0096 0.03433,-0.00728zM6.808,15.818l-0.056,-0.237c-0.017,-0.062 -0.031,-0.127 -0.046,-0.192c-0.014,-0.065 -0.028,-0.13 -0.045,-0.192l-0.068,-0.485l-0.034,-0.36c-0.00705,-0.06915 -0.00705,-0.13885 0,-0.208l0.006,-0.054l0.017,-0.158l0.013,-0.088c0.00671,-0.04703 0.01005,-0.09449 0.01,-0.142v-0.527c0.0026,-0.06689 -0.01295,-0.13323 -0.045,-0.192l-0.046,-0.102c-0.028,-0.054 -0.053,-0.11 -0.078,-0.164v-0.001l-0.043,-0.09c-0.045,-0.094 -0.08,-0.192 -0.1,-0.294l-0.053,-0.276c-0.00556,-0.02966 -0.01256,-0.05903 -0.021,-0.088l-0.001,-0.006c-0.013,-0.043 -0.03,-0.083 -0.05,-0.123l-0.048,-0.097c-0.06724,-0.14909 -0.08747,-0.31513 -0.058,-0.476l0.034,-0.147c0.023,-0.102 0,-0.215 -0.045,-0.317c-0.051,-0.102 -0.107,-0.204 -0.165,-0.31l-0.035,-0.064c-0.03964,-0.07348 -0.06732,-0.15281 -0.082,-0.235c-0.017,-0.086 -0.034,-0.165 -0.052,-0.243c-0.01098,-0.04936 -0.018,-0.09952 -0.021,-0.15l-0.027,-0.403c-0.00274,-0.05209 -0.01112,-0.10372 -0.025,-0.154l-0.192,-0.53l-0.011,-0.046c-0.022,-0.09 -0.052,-0.213 -0.09,-0.327l-0.034,-0.136c-0.01475,-0.0577 -0.04169,-0.11158 -0.079,-0.158c-0.092,-0.123 -0.185,-0.246 -0.286,-0.361c-0.02,-0.022 -0.03,-0.051 -0.03,-0.081c-0.01661,-0.10179 -0.03395,-0.20346 -0.052,-0.305l-0.007,-0.049c-0.007,-0.043 -0.014,-0.087 -0.03,-0.127c-0.01763,-0.04179 -0.03766,-0.08253 -0.06,-0.122l-0.11,-0.185c-0.07563,-0.12722 -0.12208,-0.26965 -0.136,-0.417l-0.022,-0.236c-0.00367,-0.05154 -0.01548,-0.10216 -0.035,-0.15l-0.169,-0.373l-0.08,-0.169c-0.032,-0.082 -0.066,-0.178 -0.102,-0.278l-0.09,-0.242c-0.008,-0.024 -0.022,-0.047 -0.032,-0.067c-0.009,-0.015 -0.018,-0.031 -0.028,-0.045l-0.045,-0.064c-0.107,-0.152 -0.195,-0.276 -0.29,-0.4l-0.147,-0.17c-0.04,-0.045 -0.082,-0.087 -0.124,-0.13l-0.049,-0.048c-0.051,-0.053 -0.09,-0.116 -0.12,-0.183c-0.057,-0.124 -0.114,-0.237 -0.17,-0.35l-0.147,-0.396c-0.068,-0.181 -0.237,-0.293 -0.429,-0.293c-0.025,0 -0.052,0 -0.079,0.003c-0.0471,0.00761 -0.09247,0.02353 -0.134,0.047c-0.19748,0.10419 -0.28561,0.33978 -0.205,0.548l0.146,0.418c0.05649,0.12281 0.10952,0.2472 0.159,0.373l0.001,0.004c0.03659,0.08755 0.06082,0.17977 0.072,0.274v0.004l0.017,0.148l0.023,0.18c0.022,0.181 0.033,0.362 0.045,0.542c0.00473,0.09169 0.04032,0.17909 0.101,0.248c0.04683,0.05626 0.09316,0.11293 0.139,0.17c0.08029,0.10045 0.11508,0.22983 0.096,0.357c-0.007,0.056 -0.015,0.111 -0.02,0.163c0,0.068 0,0.135 0.011,0.203l0.158,0.52c0.02269,0.06604 0.05725,0.12739 0.102,0.181l0.215,0.223c0.05953,0.05645 0.08563,0.13967 0.069,0.22l-0.013,0.054l-0.022,0.147c-0.02177,0.12418 0.01103,0.25172 0.09,0.35c0.04613,0.05838 0.09147,0.11739 0.136,0.177c0.06471,0.08696 0.08333,0.19986 0.05,0.303l-0.05,0.163c-0.0448,0.14932 -0.01093,0.31118 0.09,0.43l0.079,0.096c0.14633,0.17887 0.22619,0.4029 0.226,0.634v0.016c-0.00419,0.07544 0.0154,0.15028 0.056,0.214l0.216,0.43c0.01452,0.02974 0.02689,0.06049 0.037,0.092c0.05699,0.16216 0.02596,0.34226 -0.082,0.476c-0.13088,0.13823 -0.16705,0.34105 -0.092,0.516l0.37,0.793c0.06173,0.13213 0.09381,0.27616 0.094,0.422v0.197c0.00049,0.09759 0.03201,0.1925 0.09,0.271c0.07806,0.09596 0.1531,0.19434 0.225,0.295l0.065,0.088c0.01695,0.02284 0.02607,0.05055 0.026,0.079c0.00022,0.00841 0.00122,0.01678 0.003,0.025c0.021,0.109 0.032,0.217 0.032,0.315l0.03,0.244c0.01707,0.13722 0.00549,0.27648 -0.034,0.409l-0.064,0.217c-0.02269,0.06987 -0.02269,0.14513 0,0.215c0.011,0.05 0.019,0.104 0.028,0.158c0.00762,0.05296 0.01696,0.10565 0.028,0.158l0.03,0.171c0.00187,0.03575 0.01179,0.07061 0.029,0.102c0.00585,0.01142 0.01119,0.0231 0.016,0.035c0.03719,0.10539 0.07153,0.21176 0.103,0.319l0.025,0.085l0.023,0.067l0.056,0.238l0.024,0.112c0.01445,0.06772 0.02182,0.13676 0.022,0.206v0.358c-0.00005,0.07603 0.00834,0.15182 0.025,0.226l0.025,0.114l0.008,0.033c0.02732,0.12816 0.03273,0.26003 0.016,0.39l-0.003,0.022l-0.016,0.124c-0.006,0.05 -0.01,0.101 -0.01,0.152v0.262l-0.023,0.237v0.008c0.00048,0.04746 0.00348,0.09486 0.009,0.142c0.009,0.081 0.012,0.16 0.016,0.24l0.009,0.153c0.00222,0.06966 0.01093,0.13896 0.026,0.207l0.008,0.041l0.023,0.113l0.045,0.26c0.03537,0.20378 0.20056,0.36003 0.406,0.384h0.046c0.19034,0.0019 0.36147,-0.11566 0.428,-0.294l0.08,-0.214l0.045,-0.113l0.034,-0.102c0.079,-0.169 0.136,-0.463 0.181,-0.881c0.00352,-0.06485 -0.00426,-0.12982 -0.023,-0.192c-0.0298,-0.08708 -0.02369,-0.18244 0.017,-0.265l0.011,-0.023c0.02582,-0.05044 0.05049,-0.10145 0.074,-0.153c0.03239,-0.05867 0.04829,-0.12502 0.046,-0.192v-0.263c0.00129,-0.13203 0.02496,-0.26288 0.07,-0.387c0.026,-0.075 0.051,-0.151 0.076,-0.231c0.02438,-0.06888 0.03226,-0.14252 0.023,-0.215c-0.012,-0.064 -0.022,-0.128 -0.032,-0.192c-0.02,-0.126 -0.04,-0.253 -0.07,-0.38v-0.047c0.00003,-0.00287 -0.00149,-0.00554 -0.00397,-0.00698c-0.00248,-0.00145 -0.00554,-0.00145 -0.00803,-0.00002c-0.005,0.003 -0.012,-0.001 -0.012,-0.007c-0.011,-0.153 -0.022,-0.297 -0.044,-0.44zM17.635,17h-1.667c-0.4491,0.01556 -0.80513,0.38413 -0.80513,0.8335c0,0.44937 0.35603,0.81794 0.80513,0.8335h1.667v1.666c0.02177,0.4442 0.38827,0.79317 0.833,0.79317c0.44473,0 0.81123,-0.34897 0.833,-0.79317v-1.666h1.667c0.4491,-0.01556 0.80513,-0.38413 0.80513,-0.8335c0,-0.44937 -0.35603,-0.81794 -0.80513,-0.8335h-1.667v-1.667c-0.02177,-0.4442 -0.38827,-0.79317 -0.833,-0.79317c-0.44473,0 -0.81123,0.34897 -0.833,0.79317z" fill="#62757e" fill-rule="nonzero"></path></g>
  </g>
  <g id="Regular-S" transform="matrix(3.915 0 0 3.915 1402.75 614)">
    <defs><clipPath id="clip-1"><rect x="0" y="0" width="24" height="24" fill="none" fill-rule="nonzero"></rect></clipPath></defs>
<g clip-path="url(#clip-1)" fill="none" fill-rule="none" stroke="none" stroke-width="1" stroke-linecap="butt" stroke-linejoin="miter" stroke-miterlimit="10" stroke-dasharray="" stroke-dashoffset="0" font-family="none" font-weight="none" font-size="none" text-anchor="none" style="mix-blend-mode: normal"><path d="M19.652,13.005c0.067,0.171 0.19,0.312 0.334,0.427c0.054,0.043 0.106,0.088 0.157,0.136c0.188,0.178 0.417,0.344 0.67,0.286c0.135,-0.03 0.277,-0.088 0.424,-0.18c0.08426,-0.04756 0.12122,-0.14949 0.087,-0.24l-0.119,-0.27c-0.05306,-0.12825 -0.08643,-0.26378 -0.099,-0.402l-0.006,-0.053c-0.00484,-0.04061 -0.00918,-0.08128 -0.013,-0.122v-0.099c-0.00007,-0.01665 -0.00277,-0.03319 -0.008,-0.049l-0.008,-0.026c-0.01149,-0.04545 -0.02897,-0.08917 -0.052,-0.13c-0.034,-0.057 -0.067,-0.116 -0.101,-0.176c-0.03339,-0.05869 -0.06739,-0.11702 -0.102,-0.175l-0.102,-0.17c-0.05742,-0.12728 -0.12151,-0.25146 -0.192,-0.372l-0.056,-0.113c-0.08096,-0.12755 -0.16431,-0.25357 -0.25,-0.378l-0.064,-0.094c-0.03163,-0.04683 -0.05907,-0.09635 -0.082,-0.148l-0.01,-0.024l-0.204,-0.373l-0.184,-0.367c-0.0281,-0.05607 -0.05087,-0.11466 -0.068,-0.175l-0.121,-0.43c-0.02865,-0.07865 -0.05899,-0.15666 -0.091,-0.234c-0.024,-0.06 -0.047,-0.116 -0.067,-0.172l-0.068,-0.17c-0.02322,-0.05859 -0.0579,-0.11197 -0.102,-0.157c-0.06635,-0.06161 -0.13202,-0.12395 -0.197,-0.187l-0.131,-0.124c-0.04416,-0.04115 -0.08191,-0.08868 -0.112,-0.141c-0.0493,-0.08844 -0.10269,-0.17453 -0.16,-0.258c-0.02223,-0.03452 -0.04423,-0.06919 -0.066,-0.104c-0.03172,-0.04698 -0.06862,-0.09025 -0.11,-0.129l-0.041,-0.039c-0.15147,-0.14026 -0.25413,-0.32526 -0.293,-0.528l-0.03,-0.162c-0.0192,-0.10066 -0.07125,-0.1921 -0.148,-0.26c-0.09885,-0.08992 -0.20057,-0.17663 -0.305,-0.26c-0.05993,-0.05264 -0.11241,-0.1132 -0.156,-0.18l-0.063,-0.096l-0.001,-0.001l-0.087,-0.133c-0.02832,-0.04307 -0.05339,-0.0882 -0.075,-0.135l-0.035,-0.076c-0.05013,-0.11237 -0.10181,-0.22405 -0.155,-0.335c-0.014,-0.03 -0.028,-0.062 -0.048,-0.09c-0.00697,-0.00957 -0.01466,-0.0186 -0.023,-0.027l-0.373,-0.43l-0.288,-0.401c-0.0446,-0.0636 -0.10013,-0.11879 -0.164,-0.163c-0.06294,-0.03493 -0.12528,-0.07094 -0.187,-0.108c-0.06139,-0.03672 -0.1234,-0.07239 -0.186,-0.107c-0.02218,-0.01498 -0.04064,-0.03481 -0.054,-0.058l-0.217,-0.371l-0.054,-0.07c-0.03779,-0.04447 -0.08153,-0.0835 -0.13,-0.116l-0.042,-0.029c-0.04388,-0.03329 -0.08722,-0.0673 -0.13,-0.102l-0.058,-0.046c-0.04721,-0.03678 -0.08693,-0.08226 -0.117,-0.134l-0.069,-0.135c-0.03842,-0.07396 -0.07543,-0.14864 -0.111,-0.224c-0.00801,-0.01686 -0.01703,-0.03322 -0.027,-0.049l-0.005,-0.008c-0.02718,-0.03971 -0.05946,-0.07569 -0.096,-0.107l-0.029,-0.027l-0.34,-0.331l-0.359,-0.391c-0.03146,-0.03537 -0.06667,-0.06722 -0.105,-0.095l-0.18,-0.113l-0.181,-0.113l-0.093,-0.056l-0.03,-0.018l-0.01,-0.007c-0.01203,-0.00721 -0.02438,-0.01388 -0.037,-0.02l-0.397,-0.166c-0.00634,-0.00264 -0.01313,-0.004 -0.02,-0.004c-0.01496,-0.00023 -0.02912,-0.00676 -0.039,-0.018c-0.06176,-0.06672 -0.12827,-0.12888 -0.199,-0.186l-0.097,-0.082c-0.03331,-0.02786 -0.06472,-0.05793 -0.094,-0.09l-0.148,-0.166l-0.102,-0.102c-0.08622,-0.08897 -0.20323,-0.14156 -0.327,-0.147c-0.17774,-0.00269 -0.34018,0.10019 -0.41372,0.26202c-0.07354,0.16183 -0.0442,0.35186 0.07472,0.48398l0.113,0.124c0.028,0.034 0.06,0.068 0.09,0.102c0.03108,0.03269 0.06109,0.06638 0.09,0.101l0.181,0.18c0.034,0.035 0.071,0.069 0.108,0.103l0.034,0.031c0.04856,0.04587 0.08852,0.10006 0.118,0.16l0.054,0.097c0.049,0.088 0.097,0.174 0.138,0.265l0.271,0.52c0.03906,0.07816 0.10263,0.14138 0.181,0.18c0.21762,0.12329 0.37893,0.32619 0.45,0.566l0.013,0.045c0.01973,0.0559 0.04662,0.10901 0.08,0.158c0.078,0.09 0.146,0.18 0.214,0.27l0.113,0.148c0.04576,0.06655 0.11389,0.11446 0.192,0.135l0.076,0.03c0.177,0.07 0.303,0.222 0.353,0.405l0.023,0.085c0.03289,0.11779 0.10941,0.21862 0.214,0.282l0.147,0.08c0.10759,0.06378 0.18098,0.17238 0.2,0.296l0.038,0.234c0.022,0.147 0.112,0.26 0.237,0.328l0.262,0.139c0.07784,0.04274 0.13911,0.11034 0.174,0.192l0.027,0.064l0.068,0.181c0.02401,0.06747 0.06709,0.12653 0.124,0.17c0.062,0.056 0.128,0.113 0.193,0.17l0.136,0.12c0.03671,0.03227 0.07081,0.06737 0.102,0.105l0.055,0.068c0.09055,0.1171 0.14447,0.25835 0.155,0.406l0.026,0.283c0.01457,0.13734 0.08881,0.26131 0.203,0.339l0.226,0.146c0.102,0.06764 0.18251,0.16306 0.232,0.275l0.039,0.087l0.056,0.124c0.08,0.181 0.147,0.34 0.215,0.509c0.034,0.09 0.102,0.17 0.192,0.226l0.045,0.033l0.112,0.066c0.163,0.097 0.295,0.24 0.38,0.41l0.062,0.123l0.158,0.286c0.052,0.095 0.09,0.198 0.104,0.306l0.005,0.039c0.008,0.06 0.016,0.12 0.026,0.182l0.007,0.036l0.008,0.052c0.00874,0.0721 0.03078,0.14195 0.065,0.206c0.045,0.08 0.09,0.156 0.135,0.232l0.136,0.231c0.015,0.03 0.039,0.055 0.062,0.08c0.01,0.01 0.021,0.021 0.03,0.033l0.02,0.023c0.066,0.087 0.127,0.16 0.185,0.231c0.033,0.04 0.066,0.079 0.098,0.12l0.09,0.135l0.085,0.13l0.043,0.065c0.02787,0.04282 0.05196,0.088 0.072,0.135l0.004,0.009zM14.896,15.242c0.069,0.19 0.282,0.28 0.477,0.231l0.13,-0.029c0.06371,-0.0118 0.12472,-0.03519 0.18,-0.069l0.045,-0.027c0.197,-0.123 0.316,-0.335 0.368,-0.562c0.036,-0.156 0.088,-0.307 0.152,-0.451c0.00943,-0.02005 0.01086,-0.04294 0.004,-0.064l-0.03,-0.097v-0.001c-0.03035,-0.09487 -0.05802,-0.19058 -0.083,-0.287l-0.017,-0.06c-0.01803,-0.06481 -0.03041,-0.13105 -0.037,-0.198c-0.01081,-0.10132 -0.02415,-0.20235 -0.04,-0.303c-0.00512,-0.03242 -0.0078,-0.06518 -0.008,-0.098c0.00002,-0.05738 -0.00737,-0.11452 -0.022,-0.17c-0.04923,-0.18938 -0.09457,-0.37976 -0.136,-0.571c-0.01052,-0.05693 -0.03339,-0.11086 -0.067,-0.158l-0.046,-0.057c-0.03212,-0.04525 -0.06412,-0.09058 -0.096,-0.136l-0.13,-0.182c-0.05891,-0.0813 -0.10605,-0.17051 -0.14,-0.265l-0.006,-0.016c-0.029,-0.062 -0.054,-0.127 -0.08,-0.191c-0.03105,-0.08042 -0.06473,-0.15979 -0.101,-0.238l-0.016,-0.026c-0.01124,-0.02065 -0.02359,-0.04068 -0.037,-0.06l-0.096,-0.133c-0.11642,-0.1591 -0.18322,-0.34905 -0.192,-0.546l-0.01,-0.229c0,-0.09 -0.033,-0.18 -0.09,-0.26c-0.08773,-0.12158 -0.18186,-0.23842 -0.282,-0.35l-0.023,-0.027c-0.05264,-0.06435 -0.09667,-0.13528 -0.131,-0.211l-0.06,-0.132v-0.003h-0.001l-0.082,-0.182c-0.02044,-0.04409 -0.03781,-0.08953 -0.052,-0.136l-0.013,-0.043c-0.02533,-0.09411 -0.05334,-0.18748 -0.084,-0.28v-0.001l-0.047,-0.152l-0.009,-0.036c-0.00364,-0.02434 -0.01106,-0.04796 -0.022,-0.07l-0.029,-0.041c-0.00924,-0.01227 -0.01791,-0.02495 -0.026,-0.038l-0.302,-0.5l-0.265,-0.508c-0.0308,-0.05965 -0.07136,-0.11373 -0.12,-0.16c-0.11765,-0.10408 -0.23769,-0.20544 -0.36,-0.304c-0.03755,-0.03696 -0.06715,-0.0812 -0.087,-0.13l-0.174,-0.435c-0.02531,-0.05733 -0.05902,-0.11058 -0.1,-0.158c-0.10565,-0.13928 -0.20059,-0.28637 -0.284,-0.44l-0.27,-0.51l-0.002,-0.003c-0.00549,-0.0103 -0.0115,-0.02031 -0.018,-0.03l-0.013,-0.02c-0.01197,-0.0201 -0.02465,-0.03978 -0.038,-0.059l-0.348,-0.474c-0.035,-0.064 -0.084,-0.137 -0.134,-0.212c-0.03125,-0.04594 -0.06192,-0.09228 -0.092,-0.139l-0.073,-0.114c-0.02819,-0.0441 -0.06068,-0.08531 -0.097,-0.123l-0.462,-0.43l-0.398,-0.32c-0.04347,-0.03489 -0.08394,-0.07336 -0.121,-0.115l-0.222,-0.25c-0.04763,-0.05513 -0.09077,-0.11398 -0.129,-0.176l-0.034,-0.053c-0.03164,-0.04797 -0.06166,-0.097 -0.09,-0.147l-0.068,-0.113c-0.13677,-0.2056 -0.41191,-0.26576 -0.622,-0.136c-0.21006,0.13289 -0.27499,0.40953 -0.146,0.622l0.079,0.124c0.056,0.09 0.113,0.18 0.169,0.282l0.226,0.509c0.056,0.135 0.147,0.26 0.226,0.361c0.04086,0.04791 0.07516,0.10104 0.102,0.158c0.079,0.204 0.146,0.396 0.214,0.588c0.023,0.079 0.08,0.147 0.136,0.203l0.135,0.113c0.04,0.034 0.08,0.065 0.119,0.096c0.077,0.061 0.127,0.15 0.143,0.247l0.05,0.307c0.00998,0.06144 0.03062,0.12067 0.061,0.175l0.305,0.53c0.034,0.057 0.08,0.114 0.147,0.148c0.068,0.045 0.133,0.09 0.198,0.135c0.125,0.087 0.21,0.222 0.234,0.373l0.031,0.203c0.01111,0.10963 0.0637,0.21087 0.147,0.283l0.147,0.124c0.12437,0.10623 0.19478,0.26246 0.192,0.426v0.148c0,0.054 0.003,0.108 0.017,0.16c0.02536,0.10201 0.08286,0.19317 0.164,0.26c0.067,0.057 0.135,0.11 0.203,0.164c0.133,0.106 0.23,0.25 0.265,0.417l0.017,0.086l0.034,0.124c0.01253,0.0623 0.03998,0.12063 0.08,0.17c0.061,0.078 0.12,0.155 0.18,0.23l0.136,0.175c0.03,0.038 0.057,0.079 0.081,0.121l0.054,0.095l0.02,0.035c0.074,0.13 0.101,0.28 0.095,0.429l-0.013,0.315c-0.00138,0.12637 0.04713,0.24818 0.135,0.339l0.293,0.293c0.0602,0.05932 0.10366,0.13349 0.126,0.215c0.01,0.043 0.022,0.085 0.033,0.125l0.057,0.214l0.022,0.09c0.038,0.148 0.074,0.29 0.102,0.441c0.02587,0.10465 0.07626,0.20165 0.147,0.283c0.113,0.113 0.497,0.711 0.553,0.858l0.08,0.215c0.022,0.067 0.044,0.134 0.067,0.198c0.02227,0.0633 0.03376,0.12989 0.034,0.197c0,0.147 0,0.294 -0.011,0.44c0,0.057 0,0.114 0.022,0.17zM12.684,19.376c0.01337,0.00305 0.0274,-0.00017 0.03811,-0.00874c0.01071,-0.00857 0.01693,-0.02155 0.01689,-0.03526v-0.11c0,-0.01 -0.001,-0.02 -0.004,-0.03l-0.053,-0.222c-0.01737,-0.07366 -0.03604,-0.147 -0.056,-0.22c-0.02031,-0.07299 -0.03931,-0.14633 -0.057,-0.22l-0.124,-0.622l-0.226,-0.712l-0.147,-0.62c-0.02691,-0.14031 -0.05692,-0.28001 -0.09,-0.419l-0.017,-0.09c-0.01123,-0.06069 -0.01692,-0.12228 -0.017,-0.184c0,-0.108 -0.002,-0.22 -0.011,-0.325v-0.203c-0.02961,-0.228 -0.06161,-0.45568 -0.096,-0.683c-0.004,-0.034 -0.007,-0.069 -0.02,-0.102c-0.01127,-0.0296 -0.02533,-0.05806 -0.042,-0.085l-0.068,-0.113c-0.04442,-0.0784 -0.08776,-0.1574 -0.13,-0.237c-0.025,-0.047 -0.05,-0.095 -0.077,-0.142c-0.03488,-0.06334 -0.06336,-0.13 -0.085,-0.199l-0.024,-0.077c-0.02272,-0.06914 -0.04372,-0.13883 -0.063,-0.209c-0.01402,-0.05085 -0.02868,-0.10152 -0.044,-0.152l-0.01,-0.035c-0.00518,-0.02704 -0.01392,-0.05327 -0.026,-0.078c-0.00486,-0.00957 -0.00953,-0.01924 -0.014,-0.029l-0.02,-0.039l-0.138,-0.248c-0.08462,-0.14743 -0.12458,-0.31628 -0.115,-0.486c0.002,-0.041 0.006,-0.084 0.01,-0.127l0.002,-0.032v-0.158c0,-0.09 -0.012,-0.17 -0.057,-0.248c-0.102,-0.17 -0.203,-0.34 -0.305,-0.497c-0.02987,-0.04526 -0.05342,-0.09438 -0.07,-0.146c-0.026,-0.08 -0.052,-0.154 -0.077,-0.227c-0.0312,-0.08993 -0.0612,-0.18027 -0.09,-0.271l-0.045,-0.192l-0.051,-0.226v-0.003l-0.033,-0.143l-0.007,-0.034c-0.009,-0.043 -0.017,-0.085 -0.038,-0.123l-0.007,-0.013l-0.294,-0.622l-0.046,-0.114c-0.03819,-0.09332 -0.07552,-0.18699 -0.112,-0.281l-0.075,-0.187c-0.02316,-0.05866 -0.05483,-0.11358 -0.094,-0.163c-0.113,-0.132 -0.226,-0.264 -0.346,-0.396c-0.04737,-0.05204 -0.08346,-0.11333 -0.106,-0.18c-0.05206,-0.18373 -0.10875,-0.36612 -0.17,-0.547c-0.01691,-0.03101 -0.03702,-0.06017 -0.06,-0.087l-0.03,-0.04l-0.205,-0.28c-0.07365,-0.10138 -0.12758,-0.2157 -0.159,-0.337l-0.102,-0.394c-0.0123,-0.04676 -0.03045,-0.09178 -0.054,-0.134l-0.237,-0.407l-0.124,-0.203l-0.147,-0.283l-0.158,-0.295c-0.01921,-0.03556 -0.042,-0.06906 -0.068,-0.1l-0.147,-0.17c-0.09887,-0.12267 -0.20057,-0.24303 -0.305,-0.361l-0.388,-0.353c-0.07183,-0.06593 -0.1344,-0.14128 -0.186,-0.224l-0.024,-0.039c-0.03464,-0.05427 -0.06864,-0.10894 -0.102,-0.164l-0.124,-0.203l-0.102,-0.214l-0.136,-0.26c-0.10022,-0.18253 -0.31117,-0.27422 -0.513,-0.223c-0.06075,0.01975 -0.11664,0.05212 -0.164,0.095c-0.16158,0.13741 -0.20825,0.36749 -0.113,0.557l0.124,0.237l0.113,0.226l0.135,0.237c0.052,0.085 0.103,0.17 0.149,0.256c0.03,0.055 0.052,0.114 0.07,0.174l0.143,0.508c0.045,0.147 0.079,0.282 0.113,0.43l0.056,0.225c0.02258,0.06944 0.0571,0.13442 0.102,0.192l0.249,0.26l0.103,0.112c0.02,0.022 0.032,0.052 0.032,0.083l0.001,0.017c0.02266,0.16897 0.03867,0.33877 0.048,0.509c0.008,0.051 0.033,0.098 0.057,0.145c0.01,0.02 0.021,0.041 0.03,0.062l0.208,0.466c0.02936,0.06885 0.06991,0.13238 0.12,0.188c0.067,0.067 0.138,0.132 0.208,0.197c0.13277,0.12823 0.21359,0.30091 0.227,0.485l0.005,0.052v0.158c0.01166,0.0991 0.0508,0.19297 0.113,0.271c0.056,0.068 0.116,0.136 0.175,0.203c0.114,0.13 0.176,0.299 0.161,0.472l-0.005,0.064l-0.015,0.187c0,0.125 0.034,0.249 0.113,0.34l0.3,0.332c0.07,0.078 0.113,0.175 0.13,0.277c0.008,0.054 0.016,0.108 0.022,0.159l0.02,0.121l0.007,0.045c0.005,0.04 0.01,0.08 0.025,0.117l0.02,0.047c0.01251,0.02825 0.02687,0.05565 0.043,0.082c0.105,0.169 0.209,0.346 0.303,0.514l0.056,0.124c0.027,0.074 0.058,0.143 0.088,0.21c0.04,0.092 0.053,0.192 0.041,0.291c-0.017,0.141 -0.036,0.28 -0.06,0.414c-0.02186,0.12076 0.01112,0.24498 0.09,0.339l0.28,0.374c0.06,0.08 0.098,0.176 0.115,0.276c0.008,0.05 0.017,0.101 0.023,0.152l0.033,0.226c0.03,0.152 0.052,0.313 0.072,0.466l0.008,0.054c-0.00641,0.12656 0.03379,0.25108 0.113,0.35c0.067,0.085 0.135,0.166 0.203,0.248v0.001l0.13,0.158c0.04828,0.0587 0.08126,0.12844 0.096,0.203c0.034,0.136 0.056,0.271 0.079,0.407l0.056,0.248l0.042,0.178c0.02471,0.10646 0.03181,0.21625 0.021,0.325l-0.035,0.364c-0.00787,0.0686 -0.00585,0.13797 0.006,0.206l0.158,0.633l0.26,0.678l0.04,0.126c0.024,0.08 0.051,0.166 0.073,0.247l0.025,0.079c0.02093,0.06736 0.03467,0.13675 0.041,0.207l0.025,0.267l0.02,0.2l0.003,0.037c0.00441,0.03548 0.01384,0.07016 0.028,0.103l0.015,0.042l0.04,0.138c0.02,0.067 0.04,0.135 0.063,0.203l0.011,0.043c0.023,0.084 0.034,0.17 0.034,0.258v0.445l0.057,0.677c-0.00024,0.03757 0.00311,0.07507 0.01,0.112l0.012,0.07c0.034,0.169 0.068,0.338 0.09,0.508c0,0.037 0.012,0.072 0.024,0.107l0.008,0.027l0.07,0.227l0.08,0.282c0.05852,0.19423 0.23714,0.32738 0.44,0.328h0.034c0.21157,-0.01547 0.38468,-0.1745 0.418,-0.384l0.068,-0.542c0.054,-0.256 0.02,-0.772 -0.048,-1.156c-0.03111,-0.16147 -0.02838,-0.32764 0.008,-0.488c0.02,-0.082 0.04,-0.164 0.062,-0.243c0.01139,-0.05609 0.01139,-0.11391 0,-0.17l-0.034,-0.214c-0.01074,-0.06178 -0.02008,-0.1238 -0.028,-0.186c-0.00659,-0.05077 -0.01392,-0.10144 -0.022,-0.152c-0.00997,-0.05923 -0.00724,-0.1199 0.008,-0.178c0.032,-0.125 0.051,-0.25 0.07,-0.374c0.00194,-0.01203 0.00868,-0.02275 0.01867,-0.02972c0.00999,-0.00697 0.02238,-0.0096 0.03433,-0.00728zM6.808,15.818l-0.056,-0.237c-0.017,-0.062 -0.031,-0.127 -0.046,-0.192c-0.014,-0.065 -0.028,-0.13 -0.045,-0.192l-0.068,-0.485l-0.034,-0.36c-0.00705,-0.06915 -0.00705,-0.13885 0,-0.208l0.006,-0.054l0.017,-0.158l0.013,-0.088c0.00671,-0.04703 0.01005,-0.09449 0.01,-0.142v-0.527c0.0026,-0.06689 -0.01295,-0.13323 -0.045,-0.192l-0.046,-0.102c-0.028,-0.054 -0.053,-0.11 -0.078,-0.164v-0.001l-0.043,-0.09c-0.045,-0.094 -0.08,-0.192 -0.1,-0.294l-0.053,-0.276c-0.00556,-0.02966 -0.01256,-0.05903 -0.021,-0.088l-0.001,-0.006c-0.013,-0.043 -0.03,-0.083 -0.05,-0.123l-0.048,-0.097c-0.06724,-0.14909 -0.08747,-0.31513 -0.058,-0.476l0.034,-0.147c0.023,-0.102 0,-0.215 -0.045,-0.317c-0.051,-0.102 -0.107,-0.204 -0.165,-0.31l-0.035,-0.064c-0.03964,-0.07348 -0.06732,-0.15281 -0.082,-0.235c-0.017,-0.086 -0.034,-0.165 -0.052,-0.243c-0.01098,-0.04936 -0.018,-0.09952 -0.021,-0.15l-0.027,-0.403c-0.00274,-0.05209 -0.01112,-0.10372 -0.025,-0.154l-0.192,-0.53l-0.011,-0.046c-0.022,-0.09 -0.052,-0.213 -0.09,-0.327l-0.034,-0.136c-0.01475,-0.0577 -0.04169,-0.11158 -0.079,-0.158c-0.092,-0.123 -0.185,-0.246 -0.286,-0.361c-0.02,-0.022 -0.03,-0.051 -0.03,-0.081c-0.01661,-0.10179 -0.03395,-0.20346 -0.052,-0.305l-0.007,-0.049c-0.007,-0.043 -0.014,-0.087 -0.03,-0.127c-0.01763,-0.04179 -0.03766,-0.08253 -0.06,-0.122l-0.11,-0.185c-0.07563,-0.12722 -0.12208,-0.26965 -0.136,-0.417l-0.022,-0.236c-0.00367,-0.05154 -0.01548,-0.10216 -0.035,-0.15l-0.169,-0.373l-0.08,-0.169c-0.032,-0.082 -0.066,-0.178 -0.102,-0.278l-0.09,-0.242c-0.008,-0.024 -0.022,-0.047 -0.032,-0.067c-0.009,-0.015 -0.018,-0.031 -0.028,-0.045l-0.045,-0.064c-0.107,-0.152 -0.195,-0.276 -0.29,-0.4l-0.147,-0.17c-0.04,-0.045 -0.082,-0.087 -0.124,-0.13l-0.049,-0.048c-0.051,-0.053 -0.09,-0.116 -0.12,-0.183c-0.057,-0.124 -0.114,-0.237 -0.17,-0.35l-0.147,-0.396c-0.068,-0.181 -0.237,-0.293 -0.429,-0.293c-0.025,0 -0.052,0 -0.079,0.003c-0.0471,0.00761 -0.09247,0.02353 -0.134,0.047c-0.19748,0.10419 -0.28561,0.33978 -0.205,0.548l0.146,0.418c0.05649,0.12281 0.10952,0.2472 0.159,0.373l0.001,0.004c0.03659,0.08755 0.06082,0.17977 0.072,0.274v0.004l0.017,0.148l0.023,0.18c0.022,0.181 0.033,0.362 0.045,0.542c0.00473,0.09169 0.04032,0.17909 0.101,0.248c0.04683,0.05626 0.09316,0.11293 0.139,0.17c0.08029,0.10045 0.11508,0.22983 0.096,0.357c-0.007,0.056 -0.015,0.111 -0.02,0.163c0,0.068 0,0.135 0.011,0.203l0.158,0.52c0.02269,0.06604 0.05725,0.12739 0.102,0.181l0.215,0.223c0.05953,0.05645 0.08563,0.13967 0.069,0.22l-0.013,0.054l-0.022,0.147c-0.02177,0.12418 0.01103,0.25172 0.09,0.35c0.04613,0.05838 0.09147,0.11739 0.136,0.177c0.06471,0.08696 0.08333,0.19986 0.05,0.303l-0.05,0.163c-0.0448,0.14932 -0.01093,0.31118 0.09,0.43l0.079,0.096c0.14633,0.17887 0.22619,0.4029 0.226,0.634v0.016c-0.00419,0.07544 0.0154,0.15028 0.056,0.214l0.216,0.43c0.01452,0.02974 0.02689,0.06049 0.037,0.092c0.05699,0.16216 0.02596,0.34226 -0.082,0.476c-0.13088,0.13823 -0.16705,0.34105 -0.092,0.516l0.37,0.793c0.06173,0.13213 0.09381,0.27616 0.094,0.422v0.197c0.00049,0.09759 0.03201,0.1925 0.09,0.271c0.07806,0.09596 0.1531,0.19434 0.225,0.295l0.065,0.088c0.01695,0.02284 0.02607,0.05055 0.026,0.079c0.00022,0.00841 0.00122,0.01678 0.003,0.025c0.021,0.109 0.032,0.217 0.032,0.315l0.03,0.244c0.01707,0.13722 0.00549,0.27648 -0.034,0.409l-0.064,0.217c-0.02269,0.06987 -0.02269,0.14513 0,0.215c0.011,0.05 0.019,0.104 0.028,0.158c0.00762,0.05296 0.01696,0.10565 0.028,0.158l0.03,0.171c0.00187,0.03575 0.01179,0.07061 0.029,0.102c0.00585,0.01142 0.01119,0.0231 0.016,0.035c0.03719,0.10539 0.07153,0.21176 0.103,0.319l0.025,0.085l0.023,0.067l0.056,0.238l0.024,0.112c0.01445,0.06772 0.02182,0.13676 0.022,0.206v0.358c-0.00005,0.07603 0.00834,0.15182 0.025,0.226l0.025,0.114l0.008,0.033c0.02732,0.12816 0.03273,0.26003 0.016,0.39l-0.003,0.022l-0.016,0.124c-0.006,0.05 -0.01,0.101 -0.01,0.152v0.262l-0.023,0.237v0.008c0.00048,0.04746 0.00348,0.09486 0.009,0.142c0.009,0.081 0.012,0.16 0.016,0.24l0.009,0.153c0.00222,0.06966 0.01093,0.13896 0.026,0.207l0.008,0.041l0.023,0.113l0.045,0.26c0.03537,0.20378 0.20056,0.36003 0.406,0.384h0.046c0.19034,0.0019 0.36147,-0.11566 0.428,-0.294l0.08,-0.214l0.045,-0.113l0.034,-0.102c0.079,-0.169 0.136,-0.463 0.181,-0.881c0.00352,-0.06485 -0.00426,-0.12982 -0.023,-0.192c-0.0298,-0.08708 -0.02369,-0.18244 0.017,-0.265l0.011,-0.023c0.02582,-0.05044 0.05049,-0.10145 0.074,-0.153c0.03239,-0.05867 0.04829,-0.12502 0.046,-0.192v-0.263c0.00129,-0.13203 0.02496,-0.26288 0.07,-0.387c0.026,-0.075 0.051,-0.151 0.076,-0.231c0.02438,-0.06888 0.03226,-0.14252 0.023,-0.215c-0.012,-0.064 -0.022,-0.128 -0.032,-0.192c-0.02,-0.126 -0.04,-0.253 -0.07,-0.38v-0.047c0.00003,-0.00287 -0.00149,-0.00554 -0.00397,-0.00698c-0.00248,-0.00145 -0.00554,-0.00145 -0.00803,-0.00002c-0.005,0.003 -0.012,-0.001 -0.012,-0.007c-0.011,-0.153 -0.022,-0.297 -0.044,-0.44zM17.635,17h-1.667c-0.4491,0.01556 -0.80513,0.38413 -0.80513,0.8335c0,0.44937 0.35603,0.81794 0.80513,0.8335h1.667v1.666c0.02177,0.4442 0.38827,0.79317 0.833,0.79317c0.44473,0 0.81123,-0.34897 0.833,-0.79317v-1.666h1.667c0.4491,-0.01556 0.80513,-0.38413 0.80513,-0.8335c0,-0.44937 -0.35603,-0.81794 -0.80513,-0.8335h-1.667v-1.667c-0.02177,-0.4442 -0.38827,-0.79317 -0.833,-0.79317c-0.44473,0 -0.81123,0.34897 -0.833,0.79317z" fill="#62757e" fill-rule="nonzero"></path></g>
  </g>
 </g>
</svg>
