<?xml version="1.0" encoding="UTF-8"?>
<!--Generator: Apple Native CoreSVG 175.5-->
<!DOCTYPE svg
PUBLIC "-//W3C//DTD SVG 1.1//EN"
       "http://www.w3.org/Graphics/SVG/1.1/DTD/svg11.dtd">
<svg version="1.1" xmlns="http://www.w3.org/2000/svg" xmlns:xlink="http://www.w3.org/1999/xlink" width="3300" height="2200">
 <!--glyph: "", point size: 100.0, font version: "18.0d12e2", template writer version: "101"-->
 <g id="Notes">
  <rect height="2200" id="artboard" style="fill:white;opacity:1" width="3300" x="0" y="0"/>
  <line style="fill:none;stroke:black;opacity:1;stroke-width:0.5;" x1="263" x2="3036" y1="292" y2="292"/>
  <text style="stroke:none;fill:black;font-family:sans-serif;font-size:13;font-weight:bold;" transform="matrix(1 0 0 1 263 322)">Weight/Scale Variations</text>
  <text style="stroke:none;fill:black;font-family:sans-serif;font-size:13;text-anchor:middle;" transform="matrix(1 0 0 1 559.711 322)">Ultralight</text>
  <text style="stroke:none;fill:black;font-family:sans-serif;font-size:13;text-anchor:middle;" transform="matrix(1 0 0 1 856.422 322)">Thin</text>
  <text style="stroke:none;fill:black;font-family:sans-serif;font-size:13;text-anchor:middle;" transform="matrix(1 0 0 1 1153.13 322)">Light</text>
  <text style="stroke:none;fill:black;font-family:sans-serif;font-size:13;text-anchor:middle;" transform="matrix(1 0 0 1 1449.84 322)">Regular</text>
  <text style="stroke:none;fill:black;font-family:sans-serif;font-size:13;text-anchor:middle;" transform="matrix(1 0 0 1 1746.56 322)">Medium</text>
  <text style="stroke:none;fill:black;font-family:sans-serif;font-size:13;text-anchor:middle;" transform="matrix(1 0 0 1 2043.27 322)">Semibold</text>
  <text style="stroke:none;fill:black;font-family:sans-serif;font-size:13;text-anchor:middle;" transform="matrix(1 0 0 1 2339.98 322)">Bold</text>
  <text style="stroke:none;fill:black;font-family:sans-serif;font-size:13;text-anchor:middle;" transform="matrix(1 0 0 1 2636.69 322)">Heavy</text>
  <text style="stroke:none;fill:black;font-family:sans-serif;font-size:13;text-anchor:middle;" transform="matrix(1 0 0 1 2933.4 322)">Black</text>
  <line style="fill:none;stroke:black;opacity:1;stroke-width:0.5;" x1="263" x2="3036" y1="1903" y2="1903"/>
  <g transform="matrix(1 0 0 1 263 1933)">
   <path d="M9.24805 0.830078C13.5547 0.830078 17.1387-2.74414 17.1387-7.05078C17.1387-11.3574 13.5449-14.9316 9.23828-14.9316C4.94141-14.9316 1.36719-11.3574 1.36719-7.05078C1.36719-2.74414 4.95117 0.830078 9.24805 0.830078ZM9.24805-0.654297C5.70312-0.654297 2.87109-3.49609 2.87109-7.05078C2.87109-10.6055 5.69336-13.4473 9.23828-13.4473C12.793-13.4473 15.6445-10.6055 15.6445-7.05078C15.6445-3.49609 12.8027-0.654297 9.24805-0.654297ZM5.6543-7.05078C5.6543-6.62109 5.95703-6.32812 6.40625-6.32812L8.50586-6.32812L8.50586-4.20898C8.50586-3.76953 8.79883-3.4668 9.22852-3.4668C9.67773-3.4668 9.9707-3.76953 9.9707-4.20898L9.9707-6.32812L12.0898-6.32812C12.5293-6.32812 12.832-6.62109 12.832-7.05078C12.832-7.49023 12.5293-7.79297 12.0898-7.79297L9.9707-7.79297L9.9707-9.90234C9.9707-10.3516 9.67773-10.6543 9.22852-10.6543C8.79883-10.6543 8.50586-10.3516 8.50586-9.90234L8.50586-7.79297L6.40625-7.79297C5.95703-7.79297 5.6543-7.49023 5.6543-7.05078Z"/>
  </g>
  <g transform="matrix(1 0 0 1 281.867 1933)">
   <path d="M11.709 2.91016C17.1582 2.91016 21.6699-1.61133 21.6699-7.05078C21.6699-12.5 17.1484-17.0117 11.6992-17.0117C6.25977-17.0117 1.74805-12.5 1.74805-7.05078C1.74805-1.61133 6.26953 2.91016 11.709 2.91016ZM11.709 1.25C7.09961 1.25 3.41797-2.44141 3.41797-7.05078C3.41797-11.6602 7.08984-15.3516 11.6992-15.3516C16.3086-15.3516 20.0098-11.6602 20.0098-7.05078C20.0098-2.44141 16.3184 1.25 11.709 1.25ZM7.17773-7.05078C7.17773-6.57227 7.50977-6.25 8.00781-6.25L10.8789-6.25L10.8789-3.36914C10.8789-2.88086 11.2109-2.53906 11.6895-2.53906C12.1777-2.53906 12.5195-2.87109 12.5195-3.36914L12.5195-6.25L15.4004-6.25C15.8887-6.25 16.2305-6.57227 16.2305-7.05078C16.2305-7.53906 15.8887-7.88086 15.4004-7.88086L12.5195-7.88086L12.5195-10.752C12.5195-11.25 12.1777-11.5918 11.6895-11.5918C11.2109-11.5918 10.8789-11.25 10.8789-10.752L10.8789-7.88086L8.00781-7.88086C7.50977-7.88086 7.17773-7.53906 7.17773-7.05078Z"/>
  </g>
  <g transform="matrix(1 0 0 1 305.646 1933)">
   <path d="M14.9707 5.66406C21.9336 5.66406 27.6953-0.0976562 27.6953-7.05078C27.6953-14.0137 21.9238-19.7754 14.9609-19.7754C8.00781-19.7754 2.25586-14.0137 2.25586-7.05078C2.25586-0.0976562 8.01758 5.66406 14.9707 5.66406ZM14.9707 3.84766C8.93555 3.84766 4.08203-1.01562 4.08203-7.05078C4.08203-13.0957 8.92578-17.9492 14.9609-17.9492C21.0059-17.9492 25.8691-13.0957 25.8691-7.05078C25.8691-1.01562 21.0156 3.84766 14.9707 3.84766ZM9.19922-7.05078C9.19922-6.5332 9.57031-6.17188 10.1172-6.17188L14.0625-6.17188L14.0625-2.2168C14.0625-1.67969 14.4336-1.29883 14.9512-1.29883C15.4883-1.29883 15.8594-1.66992 15.8594-2.2168L15.8594-6.17188L19.8145-6.17188C20.3516-6.17188 20.7324-6.5332 20.7324-7.05078C20.7324-7.59766 20.3613-7.96875 19.8145-7.96875L15.8594-7.96875L15.8594-11.9141C15.8594-12.4609 15.4883-12.8418 14.9512-12.8418C14.4336-12.8418 14.0625-12.4609 14.0625-11.9141L14.0625-7.96875L10.1172-7.96875C9.57031-7.96875 9.19922-7.59766 9.19922-7.05078Z"/>
  </g>
  <text style="stroke:none;fill:black;font-family:sans-serif;font-size:13;font-weight:bold;" transform="matrix(1 0 0 1 263 1953)">Design Variations</text>
  <text style="stroke:none;fill:black;font-family:sans-serif;font-size:13;" transform="matrix(1 0 0 1 263 1971)">Symbols are supported in up to nine weights and three scales.</text>
  <text style="stroke:none;fill:black;font-family:sans-serif;font-size:13;" transform="matrix(1 0 0 1 263 1989)">For optimal layout with text and other symbols, vertically align</text>
  <text style="stroke:none;fill:black;font-family:sans-serif;font-size:13;" transform="matrix(1 0 0 1 263 2007)">symbols with the adjacent text.</text>
  <line style="fill:none;stroke:#00AEEF;stroke-width:0.5;opacity:1.0;" x1="776" x2="776" y1="1919" y2="1933"/>
  <g transform="matrix(1 0 0 1 776 1933)">
   <path d="M3.31055 0.15625C3.82812 0.15625 4.08203-0.0390625 4.26758-0.585938L5.52734-4.0332L11.2891-4.0332L12.5488-0.585938C12.7344-0.0390625 12.9883 0.15625 13.4961 0.15625C14.0137 0.15625 14.3457-0.15625 14.3457-0.644531C14.3457-0.810547 14.3164-0.966797 14.2383-1.17188L9.6582-13.3691C9.43359-13.9648 9.0332-14.2676 8.4082-14.2676C7.80273-14.2676 7.39258-13.9746 7.17773-13.3789L2.59766-1.16211C2.51953-0.957031 2.49023-0.800781 2.49023-0.634766C2.49023-0.146484 2.80273 0.15625 3.31055 0.15625ZM6.00586-5.51758L8.37891-12.0898L8.42773-12.0898L10.8008-5.51758Z"/>
  </g>
  <line style="fill:none;stroke:#00AEEF;stroke-width:0.5;opacity:1.0;" x1="793.197" x2="793.197" y1="1919" y2="1933"/>
  <text style="stroke:none;fill:black;font-family:sans-serif;font-size:13;font-weight:bold;" transform="matrix(1 0 0 1 776 1953)">Margins</text>
  <text style="stroke:none;fill:black;font-family:sans-serif;font-size:13;" transform="matrix(1 0 0 1 776 1971)">Leading and trailing margins on the left and right side of each symbol</text>
  <text style="stroke:none;fill:black;font-family:sans-serif;font-size:13;" transform="matrix(1 0 0 1 776 1989)">can be adjusted by modifying the x-location of the margin guidelines.</text>
  <text style="stroke:none;fill:black;font-family:sans-serif;font-size:13;" transform="matrix(1 0 0 1 776 2007)">Modifications are automatically applied proportionally to all</text>
  <text style="stroke:none;fill:black;font-family:sans-serif;font-size:13;" transform="matrix(1 0 0 1 776 2025)">scales and weights.</text>
  <g transform="matrix(1 0 0 1 1289 1933)">
   <path d="M2.8418 1.86523L4.54102 3.57422C5.40039 4.44336 6.38672 4.38477 7.31445 3.35938L18.0078-8.42773L17.041-9.4043L6.42578 2.27539C6.07422 2.67578 5.74219 2.77344 5.27344 2.30469L4.10156 1.14258C3.63281 0.683594 3.74023 0.341797 4.14062-0.0195312L15.6152-10.8203L14.6387-11.7871L3.04688-0.898438C2.06055 0.0195312 1.98242 0.996094 2.8418 1.86523ZM9.25781-16.3281C8.83789-15.918 8.80859-15.3418 9.04297-14.9512C9.27734-14.5898 9.73633-14.3555 10.3809-14.5215C11.8457-14.8633 13.3691-14.9219 14.7949-13.9844L14.209-12.5293C13.8672-11.6992 14.043-11.1133 14.5801-10.5664L16.875-8.25195C17.3633-7.76367 17.7734-7.74414 18.3398-7.8418L19.4043-8.03711L20.0684-7.36328L20.0293-6.80664C19.9902-6.30859 20.1172-5.92773 20.6055-5.44922L21.3672-4.70703C21.8457-4.22852 22.4609-4.19922 22.9297-4.66797L25.8398-7.58789C26.3086-8.05664 26.2891-8.65234 25.8105-9.13086L25.0391-9.89258C24.5605-10.3711 24.1895-10.5273 23.7109-10.4883L23.1348-10.4395L22.4902-11.0742L22.7344-12.1973C22.8613-12.7637 22.7051-13.2031 22.1191-13.7891L19.9219-15.9766C16.582-19.2969 12.1484-19.2188 9.25781-16.3281ZM10.752-15.957C13.1836-17.7344 16.4746-17.4316 18.7012-15.2051L21.1328-12.793C21.3672-12.5586 21.4062-12.373 21.3379-12.0312L21.0156-10.5469L22.5195-9.0625L23.5059-9.12109C23.7598-9.13086 23.8379-9.11133 24.0332-8.91602L24.6094-8.33984L22.168-5.89844L21.5918-6.47461C21.3965-6.66992 21.3672-6.74805 21.377-7.01172L21.4453-7.98828L19.9512-9.47266L18.4277-9.21875C18.1055-9.15039 17.959-9.17969 17.7148-9.41406L15.7129-11.416C15.459-11.6504 15.4297-11.8164 15.5859-12.1875L16.4648-14.2773C14.9023-15.7324 12.8711-16.3574 10.8398-15.7617C10.6836-15.7227 10.625-15.8496 10.752-15.957Z"/>
  </g>
  <text style="stroke:none;fill:black;font-family:sans-serif;font-size:13;font-weight:bold;" transform="matrix(1 0 0 1 1289 1953)">Exporting</text>
  <text style="stroke:none;fill:black;font-family:sans-serif;font-size:13;" transform="matrix(1 0 0 1 1289 1971)">Symbols should be outlined when exporting to ensure the</text>
  <text style="stroke:none;fill:black;font-family:sans-serif;font-size:13;" transform="matrix(1 0 0 1 1289 1989)">design is preserved when submitting to Xcode.</text>
  <text id="template-version" style="stroke:none;fill:black;font-family:sans-serif;font-size:13;text-anchor:end;" transform="matrix(1 0 0 1 3036 1933)">Template v.4.0</text>
  <text style="stroke:none;fill:black;font-family:sans-serif;font-size:13;text-anchor:end;" transform="matrix(1 0 0 1 3036 1951)">Requires Xcode 14 or greater</text>
  <text id="descriptive-name" style="stroke:none;fill:black;font-family:sans-serif;font-size:13;text-anchor:end;" transform="matrix(1 0 0 1 3036 1969)">Generated from brave.zzz</text>
  <text style="stroke:none;fill:black;font-family:sans-serif;font-size:13;text-anchor:end;" transform="matrix(1 0 0 1 3036 1987)">Typeset at 100 points</text>
  <text style="stroke:none;fill:black;font-family:sans-serif;font-size:13;" transform="matrix(1 0 0 1 263 726)">Small</text>
  <text style="stroke:none;fill:black;font-family:sans-serif;font-size:13;" transform="matrix(1 0 0 1 263 1156)">Medium</text>
  <text style="stroke:none;fill:black;font-family:sans-serif;font-size:13;" transform="matrix(1 0 0 1 263 1586)">Large</text>
 </g>
 <g id="Guides">
  <g id="H-reference" style="fill:#27AAE1;stroke:none;" transform="matrix(1 0 0 1 339 696)">
   <path d="M0.993654 0L3.63775 0L29.3281-67.1323L30.0303-67.1323L30.0303-70.459L28.1226-70.459ZM11.6885-24.4799L46.9815-24.4799L46.2315-26.7285L12.4385-26.7285ZM55.1196 0L57.7637 0L30.6382-70.459L29.4326-70.459L29.4326-67.1323Z"/>
  </g>
  <line id="Baseline-S" style="fill:none;stroke:#27AAE1;opacity:1;stroke-width:0.5;" x1="263" x2="3036" y1="696" y2="696"/>
  <line id="Capline-S" style="fill:none;stroke:#27AAE1;opacity:1;stroke-width:0.5;" x1="263" x2="3036" y1="625.541" y2="625.541"/>
  <g id="H-reference" style="fill:#27AAE1;stroke:none;" transform="matrix(1 0 0 1 339 1126)">
   <path d="M0.993654 0L3.63775 0L29.3281-67.1323L30.0303-67.1323L30.0303-70.459L28.1226-70.459ZM11.6885-24.4799L46.9815-24.4799L46.2315-26.7285L12.4385-26.7285ZM55.1196 0L57.7637 0L30.6382-70.459L29.4326-70.459L29.4326-67.1323Z"/>
  </g>
  <line id="Baseline-M" style="fill:none;stroke:#27AAE1;opacity:1;stroke-width:0.5;" x1="263" x2="3036" y1="1126" y2="1126"/>
  <line id="Capline-M" style="fill:none;stroke:#27AAE1;opacity:1;stroke-width:0.5;" x1="263" x2="3036" y1="1055.54" y2="1055.54"/>
  <g id="H-reference" style="fill:#27AAE1;stroke:none;" transform="matrix(1 0 0 1 339 1556)">
   <path d="M0.993654 0L3.63775 0L29.3281-67.1323L30.0303-67.1323L30.0303-70.459L28.1226-70.459ZM11.6885-24.4799L46.9815-24.4799L46.2315-26.7285L12.4385-26.7285ZM55.1196 0L57.7637 0L30.6382-70.459L29.4326-70.459L29.4326-67.1323Z"/>
  </g>
  <line id="Baseline-L" style="fill:none;stroke:#27AAE1;opacity:1;stroke-width:0.5;" x1="263" x2="3036" y1="1556" y2="1556"/>
  <line id="Capline-L" style="fill:none;stroke:#27AAE1;opacity:1;stroke-width:0.5;" x1="263" x2="3036" y1="1485.54" y2="1485.54"/>
  <line id="left-margin-Regular-M" style="fill:none;stroke:#00AEEF;stroke-width:0.5;opacity:1.0;" x1="1389.82" x2="1389.82" y1="1030.79" y2="1150.12"/>
  <line id="right-margin-Regular-M" style="fill:none;stroke:#00AEEF;stroke-width:0.5;opacity:1.0;" x1="1509.87" x2="1509.87" y1="1030.79" y2="1150.12"/>
 </g>
 <g id="Symbols">
  <g id="Regular-L" transform="matrix(6.45 0 0 6.45 1372.2675 1443)">
    <defs><clipPath id="clip-1"><rect x="0" y="0" width="24" height="24" fill="none" fill-rule="nonzero"></rect></clipPath></defs>
<g clip-path="url(#clip-1)" fill="none" fill-rule="none" stroke="none" stroke-width="1" stroke-linecap="butt" stroke-linejoin="miter" stroke-miterlimit="10" stroke-dasharray="" stroke-dashoffset="0" font-family="none" font-weight="none" font-size="none" text-anchor="none" style="mix-blend-mode: normal"><path d="M21.787,15.242v0.063c0,0.014 0.018,0.019 0.025,0.007c0.006,-0.011 0.024,-0.008 0.025,0.005c0.005,0.04 0.01,0.078 0.017,0.118c0.009,0.062 0.018,0.125 0.024,0.191c0.01231,0.12601 -0.02867,0.25143 -0.11303,0.34585c-0.08435,0.09442 -0.20437,0.14923 -0.33097,0.15115h-0.008c-0.1563,-0.00047 -0.30137,-0.08132 -0.384,-0.214c-0.0677,-0.11188 -0.13942,-0.22128 -0.215,-0.328l-0.063,-0.09c-0.01,-0.015 -0.02,-0.032 -0.032,-0.046c-0.017,-0.019 -0.024,-0.045 -0.035,-0.068l-0.254,-0.508l-0.215,-0.564l-0.055,-0.194c-0.05347,-0.18626 -0.13436,-0.36354 -0.24,-0.526l-0.067,-0.105c-0.03,-0.045 -0.069,-0.1 -0.087,-0.151l-0.01,-0.026l-0.117,-0.298l-0.022,-0.067c-0.03086,-0.07464 -0.07083,-0.14517 -0.119,-0.21c-0.029,-0.0429 -0.05733,-0.08623 -0.085,-0.13l-0.09,-0.135c-0.0323,-0.03997 -0.06496,-0.07964 -0.098,-0.119c-0.058,-0.07 -0.12,-0.144 -0.184,-0.231l-0.02,-0.023c-0.032,-0.037 -0.072,-0.07 -0.093,-0.113c-0.046,-0.079 -0.09,-0.155 -0.136,-0.231l-0.135,-0.232c-0.00836,-0.01582 -0.01636,-0.03182 -0.024,-0.048c-0.034,-0.077 -0.04,-0.163 -0.056,-0.245c-0.00973,-0.06084 -0.0184,-0.12185 -0.026,-0.183c-0.01862,-0.13354 -0.06203,-0.26241 -0.128,-0.38l-0.14,-0.25l-0.003,-0.009c-0.12211,-0.24593 -0.31324,-0.45095 -0.55,-0.59l-0.045,-0.034c-0.08705,-0.05225 -0.15451,-0.13165 -0.192,-0.226c-0.068,-0.17 -0.136,-0.328 -0.215,-0.509l-0.056,-0.124c-0.01247,-0.02939 -0.02581,-0.0584 -0.04,-0.087c-0.0489,-0.11171 -0.1287,-0.20712 -0.23,-0.275l-0.227,-0.146c-0.11444,-0.07791 -0.18871,-0.2023 -0.203,-0.34l-0.026,-0.282c-0.01053,-0.14765 -0.06445,-0.2889 -0.155,-0.406l-0.008,-0.01c-0.06198,-0.07653 -0.13022,-0.14778 -0.204,-0.213c-0.02729,-0.02338 -0.05462,-0.04672 -0.082,-0.07l-0.192,-0.17c-0.05691,-0.04347 -0.09999,-0.10253 -0.124,-0.17l-0.068,-0.18c-0.00895,-0.02183 -0.01829,-0.0435 -0.028,-0.065c-0.03451,-0.08159 -0.09544,-0.14921 -0.173,-0.192l-0.262,-0.14c-0.12644,-0.06519 -0.2144,-0.18655 -0.237,-0.327l-0.037,-0.234c-0.01941,-0.12373 -0.09265,-0.23249 -0.2,-0.297l-0.148,-0.079c-0.10459,-0.06338 -0.18111,-0.16421 -0.214,-0.282l-0.023,-0.085c-0.04691,-0.1836 -0.17833,-0.33395 -0.354,-0.405c-0.02537,-0.0099 -0.05071,-0.0199 -0.076,-0.03c-0.07811,-0.02054 -0.14624,-0.06845 -0.192,-0.135l-0.113,-0.147c-0.068,-0.09 -0.136,-0.18 -0.215,-0.271c-0.03303,-0.04904 -0.05959,-0.10215 -0.079,-0.158l-0.013,-0.045c-0.0713,-0.23944 -0.23258,-0.44194 -0.45,-0.565c-0.07816,-0.03906 -0.14138,-0.10263 -0.18,-0.181l-0.272,-0.52c-0.041,-0.091 -0.09,-0.177 -0.138,-0.265l-0.054,-0.096c-0.03585,-0.07445 -0.08777,-0.14002 -0.152,-0.192c-0.037,-0.034 -0.074,-0.068 -0.108,-0.102l-0.18,-0.18c-0.029,-0.035 -0.06,-0.069 -0.09,-0.102c-0.03115,-0.03326 -0.06149,-0.06727 -0.091,-0.102l-0.113,-0.124c-0.11906,-0.13225 -0.14833,-0.32253 -0.07453,-0.48445c0.0738,-0.16192 0.23661,-0.26465 0.41453,-0.26155c0.1239,0.00493 0.24108,0.0576 0.327,0.147l0.102,0.102l0.104,0.117c0.059,0.065 0.122,0.125 0.188,0.182l0.047,0.04c0.063,0.052 0.135,0.113 0.199,0.185c0.01,0.011 0.024,0.018 0.04,0.018c0.006,0 0.013,0.001 0.019,0.004l0.397,0.165l0.016,0.009l0.082,0.05l0.072,0.043l0.18,0.113c0.06,0.037 0.119,0.073 0.181,0.113c0.017,0.011 0.04,0.032 0.06,0.049l0.06,0.062l0.343,0.375l0.334,0.324c0.049,0.047 0.101,0.092 0.137,0.15c0.01,0.015 0.019,0.031 0.027,0.048c0.034,0.073 0.072,0.147 0.111,0.224l0.07,0.135c0.029,0.052 0.07,0.097 0.116,0.134l0.058,0.046c0.043,0.034 0.085,0.068 0.13,0.102c0.0874,0.0578 0.16391,0.13059 0.226,0.215l0.217,0.371c0.01336,0.02319 0.03182,0.04302 0.054,0.058c0.062,0.034 0.124,0.07 0.187,0.107c0.062,0.037 0.124,0.074 0.186,0.108c0.02478,0.01597 0.0479,0.0344 0.069,0.055c0.04562,0.04494 0.08681,0.09417 0.123,0.147l0.26,0.363l0.373,0.429c0.05,0.05 0.072,0.122 0.103,0.187c0.041,0.085 0.082,0.175 0.123,0.265l0.002,0.005c0.05442,0.11876 0.1197,0.23225 0.195,0.339l0.064,0.098c0.04397,0.06651 0.09679,0.12673 0.157,0.179c0.101,0.079 0.203,0.17 0.305,0.26c0.07619,0.06805 0.12755,0.15953 0.146,0.26l0.031,0.162c0.0386,0.20261 0.1409,0.3876 0.292,0.528l0.043,0.04c0.04097,0.03849 0.07753,0.08142 0.109,0.128l0.067,0.104c0.05641,0.08385 0.10945,0.16992 0.159,0.258c0.03,0.052 0.068,0.1 0.112,0.14l0.13,0.125l0.198,0.187c0.046,0.045 0.08,0.101 0.102,0.158l0.068,0.17c0.02,0.055 0.043,0.111 0.067,0.17c0.029,0.072 0.06,0.15 0.09,0.236l0.096,0.338c0.035,0.12 0.08,0.238 0.136,0.35l0.142,0.283l0.203,0.373c0.03,0.068 0.066,0.133 0.107,0.194l0.05,0.072c0.077,0.114 0.158,0.233 0.25,0.378l0.056,0.113c0.08,0.135 0.147,0.271 0.192,0.373l0.102,0.17c0.034,0.056 0.068,0.115 0.102,0.174c0.034,0.06 0.067,0.119 0.101,0.175c0.03957,0.07206 0.06278,0.15195 0.068,0.234v0.071l0.013,0.122c0.02,0.173 0.057,0.345 0.127,0.504l0.097,0.222c0.02545,0.05689 0.04068,0.11782 0.045,0.18v0.146c0.00092,0.16871 0.0587,0.33218 0.164,0.464c0.054,0.068 0.108,0.136 0.164,0.204c0.057,0.079 0.09,0.18 0.09,0.282v0.113c-0.01121,0.13911 -0.01121,0.27889 0,0.418zM12.735,19.192c0.003,0.01 0.004,0.02 0.004,0.03v0.11c0,0.029 -0.027,0.05 -0.055,0.044c-0.01211,-0.00263 -0.02476,-0.00015 -0.03498,0.00685c-0.01022,0.007 -0.0171,0.01791 -0.01902,0.03015c-0.01625,0.12582 -0.03928,0.25067 -0.069,0.374c-0.01495,0.05814 -0.01767,0.11875 -0.008,0.178l0.022,0.152c0.009,0.062 0.017,0.124 0.028,0.186l0.034,0.215c0.01139,0.05609 0.01139,0.11391 0,0.17c-0.022,0.078 -0.042,0.16 -0.062,0.242c-0.038,0.16 -0.037,0.326 -0.008,0.488c0.069,0.384 0.102,0.9 0.048,1.156l-0.068,0.542c-0.03332,0.2095 -0.20643,0.36853 -0.418,0.384h-0.034c-0.20286,-0.00062 -0.38148,-0.13377 -0.44,-0.328l-0.08,-0.282l-0.07,-0.227c-0.013,-0.044 -0.031,-0.088 -0.031,-0.134c-0.023,-0.17 -0.057,-0.34 -0.09,-0.509l-0.013,-0.069c-0.00668,-0.03696 -0.01003,-0.07444 -0.01,-0.112l-0.057,-0.677v-0.401c0,-0.117 -0.015,-0.232 -0.045,-0.345c-0.02199,-0.06726 -0.04266,-0.13494 -0.062,-0.203c-0.01325,-0.04612 -0.02692,-0.09212 -0.041,-0.138c-0.014,-0.044 -0.04,-0.1 -0.043,-0.145c-0.00069,-0.01236 -0.00169,-0.02469 -0.003,-0.037l-0.02,-0.2l-0.017,-0.184c-0.0115,-0.12561 -0.0363,-0.24963 -0.074,-0.37c-0.0343,-0.125 -0.07198,-0.24904 -0.113,-0.372l-0.26,-0.678l-0.158,-0.633c-0.01042,-0.08464 -0.01109,-0.1702 -0.002,-0.255l0.015,-0.15c0.0213,-0.21756 0.00678,-0.43714 -0.043,-0.65l-0.004,-0.018l-0.056,-0.248c-0.0212,-0.13668 -0.04789,-0.27246 -0.08,-0.407c-0.01435,-0.07431 -0.04661,-0.14399 -0.094,-0.203c-0.11318,-0.13414 -0.22452,-0.26982 -0.334,-0.407c-0.07921,-0.09892 -0.11941,-0.22344 -0.113,-0.35l-0.008,-0.054c-0.01847,-0.15614 -0.04248,-0.31157 -0.072,-0.466l-0.033,-0.226c-0.00629,-0.05086 -0.01396,-0.10155 -0.023,-0.152c-0.01571,-0.09987 -0.05514,-0.19452 -0.115,-0.276l-0.28,-0.374c-0.07888,-0.09402 -0.11186,-0.21824 -0.09,-0.339c0.024,-0.133 0.043,-0.273 0.06,-0.414c0.0127,-0.09859 -0.00147,-0.19879 -0.041,-0.29c-0.03168,-0.06899 -0.06103,-0.13903 -0.088,-0.21l-0.056,-0.125c-0.09743,-0.17341 -0.19845,-0.34478 -0.303,-0.514c-0.01613,-0.02635 -0.03049,-0.05375 -0.043,-0.082c-0.036,-0.081 -0.045,-0.171 -0.06,-0.259l-0.012,-0.072c-0.00648,-0.05283 -0.01415,-0.10551 -0.023,-0.158c-0.01566,-0.10295 -0.06082,-0.19916 -0.13,-0.277l-0.299,-0.333c-0.07716,-0.09576 -0.11727,-0.2161 -0.113,-0.339c0.00532,-0.08377 0.01198,-0.16745 0.02,-0.251c0.01271,-0.17268 -0.04542,-0.34309 -0.161,-0.472c-0.05972,-0.06646 -0.11807,-0.13414 -0.175,-0.203c-0.0622,-0.07803 -0.10134,-0.1719 -0.113,-0.271v-0.158l-0.005,-0.053c-0.01341,-0.18409 -0.09423,-0.35677 -0.227,-0.485c-0.07102,-0.06421 -0.1407,-0.12989 -0.209,-0.197c-0.02044,-0.02196 -0.03885,-0.04572 -0.055,-0.071c-0.03178,-0.05024 -0.05921,-0.1031 -0.082,-0.158l-0.167,-0.375c-0.046,-0.102 -0.114,-0.2 -0.114,-0.311c-0.00927,-0.15783 -0.02428,-0.31527 -0.045,-0.472c0.00016,-0.03071 -0.01127,-0.06035 -0.032,-0.083l-0.103,-0.112l-0.249,-0.26c-0.0449,-0.05758 -0.07942,-0.12256 -0.102,-0.192l-0.056,-0.226c-0.03238,-0.14434 -0.07007,-0.28744 -0.113,-0.429l-0.118,-0.417c-0.03262,-0.121 -0.07998,-0.23754 -0.141,-0.347c-0.03377,-0.05833 -0.0681,-0.11634 -0.103,-0.174l-0.135,-0.237l-0.113,-0.226l-0.124,-0.237c-0.0793,-0.1582 -0.06103,-0.34784 0.047,-0.488c0.08223,-0.11009 0.21062,-0.17613 0.348,-0.179c0.158,0 0.316,0.09 0.395,0.238l0.136,0.26l0.102,0.214l0.124,0.203c0.034,0.057 0.068,0.11 0.102,0.164c0.068,0.108 0.15,0.208 0.244,0.294l0.354,0.322c0.102,0.113 0.204,0.237 0.305,0.361l0.147,0.17c0.03006,0.03834 0.05682,0.07915 0.08,0.122l0.146,0.273l0.147,0.283l0.124,0.203l0.237,0.407c0.00763,0.01214 0.01432,0.02484 0.02,0.038c0.02,0.041 0.031,0.085 0.043,0.13l0.046,0.176c0.06284,0.24261 0.17071,0.47124 0.318,0.674l0.054,0.075c0.056,0.077 0.129,0.147 0.152,0.24c0.057,0.17 0.102,0.327 0.147,0.485c0.02241,0.06703 0.05851,0.12866 0.106,0.181c0.12,0.132 0.233,0.264 0.346,0.396c0.01437,0.01567 0.0271,0.03275 0.038,0.051c0.03,0.047 0.051,0.099 0.072,0.15l0.06,0.149c0.038,0.1 0.076,0.195 0.111,0.281l0.046,0.114l0.294,0.622l0.007,0.013c0.026,0.048 0.033,0.104 0.045,0.157l0.033,0.146l0.05,0.226l0.046,0.192c0.028,0.089 0.058,0.178 0.09,0.271l0.077,0.227c0.017,0.052 0.04,0.1 0.07,0.146c0.102,0.158 0.203,0.327 0.305,0.497c0.0412,0.07594 0.06091,0.16169 0.057,0.248v0.158l-0.003,0.032c-0.02,0.253 0.045,0.503 0.168,0.725l0.076,0.136l0.034,0.068c0.018,0.035 0.025,0.075 0.036,0.112c0.016,0.05 0.03,0.102 0.044,0.153c0.02,0.07 0.04,0.141 0.063,0.21c0.04563,0.14574 0.10805,0.28568 0.186,0.417c0.042,0.08 0.085,0.158 0.13,0.237l0.068,0.113l0.01,0.018c0.05,0.086 0.054,0.19 0.068,0.288c0.027,0.178 0.053,0.36 0.08,0.564v0.203c0.00589,0.0782 0.00923,0.15658 0.01,0.235c0.002,0.122 0.013,0.244 0.035,0.364c0.034,0.147 0.068,0.294 0.09,0.418l0.147,0.622l0.226,0.711l0.124,0.621c0.017,0.074 0.037,0.147 0.057,0.22c0.02,0.074 0.04,0.148 0.056,0.221l0.053,0.222zM6.87203,16.26502c0.00248,0.00145 0.00399,0.00411 0.00397,0.00698v0.039c0.02857,0.12839 0.05225,0.25781 0.071,0.388l0.03,0.192c0.012,0.068 0,0.147 -0.022,0.215c-0.09231,0.26308 -0.14194,0.53924 -0.147,0.818v0.063c0.0026,0.06689 -0.01295,0.13323 -0.045,0.192c-0.023,0.051 -0.048,0.102 -0.074,0.153c-0.05095,0.0873 -0.06118,0.19252 -0.028,0.288c0.022,0.068 0.022,0.124 0.022,0.192c-0.044,0.418 -0.1,0.711 -0.18,0.881l-0.034,0.102l-0.045,0.113l-0.079,0.214c-0.06665,0.17869 -0.23829,0.29632 -0.429,0.294h-0.046c-0.20544,-0.02397 -0.37063,-0.18022 -0.406,-0.384l-0.045,-0.26l-0.023,-0.113c-0.015,-0.082 -0.033,-0.165 -0.033,-0.248c-0.005,-0.053 -0.007,-0.103 -0.01,-0.153c-0.003,-0.077 -0.007,-0.154 -0.015,-0.232c-0.006,-0.052 -0.01,-0.105 -0.01,-0.158l0.023,-0.237v-0.186c0.0004,-0.10165 0.00708,-0.20317 0.02,-0.304l0.006,-0.048c0.018,-0.144 0.013,-0.292 -0.018,-0.434l-0.003,-0.011v-0.003c-0.033,-0.148 -0.05,-0.299 -0.05,-0.45v-0.14c0.00004,-0.13879 -0.01438,-0.2772 -0.043,-0.413l-0.003,-0.01l-0.056,-0.238l-0.023,-0.067l-0.025,-0.084c-0.032,-0.106 -0.065,-0.215 -0.104,-0.32c-0.011,-0.032 -0.036,-0.072 -0.04,-0.107c-0.00078,-0.01007 -0.00212,-0.02008 -0.004,-0.03l-0.03,-0.171c-0.011,-0.051 -0.02,-0.105 -0.028,-0.158c-0.008,-0.054 -0.018,-0.108 -0.028,-0.158c-0.02269,-0.06987 -0.02269,-0.14513 0,-0.215l0.004,-0.016c0.07898,-0.26503 0.10213,-0.54356 0.068,-0.818l-0.005,-0.036c0.00016,-0.11419 -0.01123,-0.2281 -0.034,-0.34c0,-0.029 -0.009,-0.056 -0.026,-0.079l-0.065,-0.088c-0.072,-0.099 -0.145,-0.2 -0.225,-0.295c-0.05799,-0.0785 -0.08951,-0.17341 -0.09,-0.271c0,-0.275 -0.061,-0.547 -0.177,-0.797l-0.286,-0.615c-0.0678,-0.15693 -0.04643,-0.33814 0.056,-0.475c0.13554,-0.1353 0.18108,-0.33653 0.117,-0.517c-0.01011,-0.03151 -0.02248,-0.06226 -0.037,-0.092l-0.216,-0.43c-0.04066,-0.06369 -0.06025,-0.13856 -0.056,-0.214c0,-0.242 -0.083,-0.475 -0.236,-0.662l-0.069,-0.084c-0.10058,-0.11859 -0.13444,-0.27998 -0.09,-0.429l0.05,-0.164c0.033,-0.103 0.015,-0.216 -0.05,-0.303c-0.045,-0.06 -0.09,-0.119 -0.136,-0.177c-0.07897,-0.09828 -0.11177,-0.22582 -0.09,-0.35l0.022,-0.147c0.00394,-0.01809 0.00828,-0.0361 0.013,-0.054c0.019,-0.08 -0.011,-0.16 -0.069,-0.22l-0.215,-0.224c-0.04464,-0.05331 -0.0792,-0.11431 -0.102,-0.18l-0.158,-0.52c-0.011,-0.068 -0.011,-0.135 -0.011,-0.203c0.005,-0.053 0.013,-0.107 0.021,-0.163c0.018,-0.128 -0.016,-0.257 -0.097,-0.357l-0.055,-0.066l-0.084,-0.103c-0.056,-0.068 -0.101,-0.159 -0.101,-0.249c-0.012,-0.18 -0.023,-0.362 -0.045,-0.542l-0.023,-0.181l-0.017,-0.147c-0.011,-0.096 -0.036,-0.192 -0.073,-0.282c-0.046,-0.113 -0.091,-0.226 -0.159,-0.373l-0.146,-0.417c-0.05244,-0.13531 -0.03479,-0.28778 0.04718,-0.40753c0.08197,-0.11975 0.21771,-0.19139 0.36282,-0.19147h0.007c0.19081,-0.0029 0.36289,0.11435 0.43,0.293l0.147,0.396c0.05888,0.11558 0.11556,0.23227 0.17,0.35c0.02878,0.06766 0.06942,0.12964 0.12,0.183c0.01625,0.01608 0.03259,0.03208 0.049,0.048c0.042,0.043 0.084,0.085 0.124,0.13l0.146,0.169c0.09956,0.13121 0.19625,0.26458 0.29,0.4l0.046,0.065c0.01007,0.01453 0.01941,0.02955 0.028,0.045c0.011,0.02 0.024,0.043 0.032,0.067l0.089,0.242l0.103,0.277l0.079,0.17l0.169,0.373c0.0144,0.03394 0.02448,0.06955 0.03,0.106c0.00308,0.01957 0.00541,0.03925 0.007,0.059l0.008,0.085c0.02285,0.23686 0.09799,0.4657 0.22,0.67l0.04,0.068c0.01554,0.02652 0.02956,0.05389 0.042,0.082c0.036,0.081 0.046,0.171 0.062,0.259c0.01524,0.08724 0.02991,0.17457 0.044,0.262c-0.00009,0.03021 0.01095,0.0594 0.031,0.082c0.09959,0.11603 0.19434,0.23614 0.284,0.36c0.03767,0.04633 0.06495,0.10021 0.08,0.158l0.034,0.136c0.03465,0.10775 0.06501,0.21684 0.091,0.327l0.01,0.046l0.192,0.531c0.01355,0.05957 0.02258,0.12007 0.027,0.181l0.02,0.3c0.007,0.1 0.021,0.2 0.043,0.3c0.01212,0.05557 0.02378,0.11124 0.035,0.167c0.01458,0.08254 0.04226,0.16221 0.082,0.236l0.036,0.065c0.057,0.105 0.113,0.207 0.164,0.31c0.04776,0.09801 0.0635,0.20855 0.045,0.316l-0.034,0.147c-0.02947,0.16087 -0.00924,0.32691 0.058,0.476l0.048,0.097c0.02027,0.03944 0.037,0.0806 0.05,0.123l0.002,0.005c0.00811,0.02932 0.01478,0.05903 0.02,0.089l0.034,0.176c0.03372,0.16775 0.08813,0.33066 0.162,0.485c0.02524,0.05502 0.05124,0.1097 0.078,0.164l0.046,0.102c0.03205,0.05877 0.0476,0.12511 0.045,0.192v0.456c0.00004,0.09469 -0.00664,0.18926 -0.02,0.283l-0.003,0.018l-0.017,0.158c-0.01116,0.10501 -0.01183,0.21086 -0.002,0.316l0.03,0.305l0.068,0.486c0.017,0.062 0.031,0.127 0.045,0.192c0.01367,0.06439 0.02901,0.12841 0.046,0.192l0.056,0.237c0.02064,0.14601 0.03532,0.2928 0.044,0.44c-0.00003,0.00287 0.00149,0.00554 0.00397,0.00698c0.00248,0.00145 0.00554,0.00145 0.00803,0.00002c0.00249,-0.00144 0.00555,-0.00143 0.00803,0.00002zM17.2,18.845c0.002,0.015 0.005,0.03 0.012,0.044c0.01943,0.03876 0.03291,0.08023 0.04,0.123c0.004,0.026 0.037,0.04 0.056,0.02l0.016,-0.015c0.00307,-0.00268 0.00715,-0.00389 0.01119,-0.00331c0.00403,0.00058 0.00762,0.00288 0.00981,0.00631c0.007,0.012 0.013,0.021 0.014,0.034l0.003,0.012c0.056,0.135 0.12,0.29 0.076,0.48l-0.002,0.009c-0.03332,0.15251 -0.05538,0.30726 -0.066,0.463l-0.01,0.116v0.146c-0.00943,0.19108 -0.13664,0.35617 -0.319,0.414c-0.04358,0.01216 -0.08878,0.01756 -0.134,0.016c-0.18515,0.00351 -0.3525,-0.10979 -0.418,-0.283l-0.067,-0.17l-0.03,-0.075c-0.036,-0.091 -0.073,-0.186 -0.117,-0.274c-0.00727,-0.01618 -0.01329,-0.0329 -0.018,-0.05l-0.01,-0.035l-0.074,-0.277l-0.056,-0.203l-0.009,-0.033c-0.01,-0.038 -0.025,-0.075 -0.025,-0.114c-0.01722,-0.13791 -0.04192,-0.27478 -0.074,-0.41c-0.01798,-0.07299 -0.02738,-0.14783 -0.028,-0.223c-0.00846,-0.10704 -0.02047,-0.21376 -0.036,-0.32c-0.00612,-0.03468 -0.00946,-0.06979 -0.01,-0.105c0.00099,-0.06239 -0.00952,-0.12442 -0.031,-0.183l-0.053,-0.131l-0.04,-0.097l-0.079,-0.192c-0.01001,-0.03349 -0.01803,-0.06755 -0.024,-0.102l-0.06,-0.322c-0.02628,-0.1386 -0.06717,-0.27402 -0.122,-0.404l-0.121,-0.29l-0.283,-0.554c-0.00518,-0.01112 -0.00985,-0.02246 -0.014,-0.034l-0.016,-0.044l-0.196,-0.543c-0.022,-0.056 -0.022,-0.113 -0.022,-0.17c0.011,-0.146 0.011,-0.293 0.011,-0.44c-0.0002,-0.06711 -0.01169,-0.13371 -0.034,-0.197l-0.068,-0.198l-0.079,-0.215c-0.056,-0.147 -0.44,-0.745 -0.553,-0.858c-0.07074,-0.08135 -0.12113,-0.17835 -0.147,-0.283c-0.028,-0.15 -0.064,-0.293 -0.101,-0.44l-0.023,-0.09l-0.057,-0.215c-0.01169,-0.04157 -0.02303,-0.08324 -0.034,-0.125c-0.02177,-0.0813 -0.06453,-0.15544 -0.124,-0.215l-0.293,-0.293c-0.08842,-0.09054 -0.13733,-0.21245 -0.136,-0.339l0.011,-0.274c0.01081,-0.17563 -0.02837,-0.35073 -0.113,-0.505l-0.017,-0.03c-0.04874,-0.08517 -0.10354,-0.16671 -0.164,-0.244c-0.09023,-0.11582 -0.18023,-0.23182 -0.27,-0.348c-0.04002,-0.04937 -0.06747,-0.1077 -0.08,-0.17l-0.034,-0.123l-0.017,-0.086c-0.03662,-0.16581 -0.13044,-0.31343 -0.265,-0.417c-0.068,-0.054 -0.136,-0.107 -0.203,-0.164c-0.08119,-0.06678 -0.1387,-0.15796 -0.164,-0.26c-0.01297,-0.0523 -0.01869,-0.10614 -0.017,-0.16v-0.148c0.00278,-0.16354 -0.06763,-0.31977 -0.192,-0.426l-0.147,-0.124c-0.0833,-0.07213 -0.13589,-0.17337 -0.147,-0.283l-0.031,-0.203c-0.02368,-0.15111 -0.10825,-0.28592 -0.234,-0.373c-0.065,-0.045 -0.13,-0.09 -0.198,-0.135c-0.06214,-0.03381 -0.11319,-0.08486 -0.147,-0.147l-0.305,-0.531c-0.02145,-0.03463 -0.03731,-0.07243 -0.047,-0.112c-0.00635,-0.02302 -0.01136,-0.0464 -0.015,-0.07l-0.049,-0.3c-0.01494,-0.09738 -0.06599,-0.18556 -0.143,-0.247c-0.04,-0.03 -0.08,-0.062 -0.119,-0.096l-0.135,-0.113c-0.06155,-0.05527 -0.1083,-0.12505 -0.136,-0.203c-0.06816,-0.19714 -0.1395,-0.39317 -0.214,-0.588c-0.02684,-0.05696 -0.06114,-0.11009 -0.102,-0.158c-0.09073,-0.10998 -0.16671,-0.23134 -0.226,-0.361l-0.226,-0.509c-0.05385,-0.09567 -0.11055,-0.18971 -0.17,-0.282l-0.079,-0.124c-0.12881,-0.21273 -0.06341,-0.48944 0.147,-0.622c0.20988,-0.1291 0.48429,-0.069 0.621,0.136l0.068,0.113c0.029,0.05 0.06,0.099 0.09,0.147c0.063,0.096 0.13,0.19 0.206,0.276l0.124,0.14c0.074,0.084 0.155,0.161 0.243,0.232l0.332,0.267l0.462,0.429c0.05,0.049 0.087,0.108 0.125,0.167l0.045,0.07l0.092,0.14c0.05,0.075 0.099,0.147 0.134,0.21l0.348,0.475c0.017,0.023 0.036,0.055 0.051,0.079l0.02,0.033l0.27,0.51c0.055,0.1 0.142,0.246 0.217,0.351c0.054,0.078 0.118,0.149 0.16,0.234c0.00229,0.00435 0.00463,0.00869 0.007,0.013l0.174,0.434c0.02,0.05 0.049,0.094 0.086,0.13c0.124,0.103 0.249,0.204 0.362,0.306c0.02103,0.01765 0.03984,0.0378 0.056,0.06c0.03134,0.04209 0.05878,0.08694 0.082,0.134l0.246,0.472l0.302,0.501c0.017,0.028 0.039,0.052 0.055,0.08c0.018,0.031 0.02,0.07 0.031,0.105l0.047,0.153c0.03,0.09 0.059,0.183 0.084,0.28c0.023,0.075 0.051,0.148 0.083,0.22l0.064,0.141l0.046,0.103c0.044,0.097 0.101,0.187 0.169,0.27c0.101,0.113 0.192,0.226 0.282,0.35c0.057,0.08 0.09,0.17 0.09,0.26l0.009,0.19c0.01,0.222 0.084,0.437 0.216,0.617l0.073,0.101c0.02,0.027 0.036,0.057 0.053,0.086c0.00901,0.01412 0.01639,0.02922 0.022,0.045c0.029,0.062 0.054,0.127 0.08,0.192c0.025,0.065 0.05,0.13 0.079,0.192c0.037,0.105 0.09,0.204 0.155,0.294l0.121,0.17l0.096,0.135l0.046,0.057c0.03361,0.04714 0.05648,0.10107 0.067,0.158c0.04,0.18 0.08,0.36 0.136,0.572c0.01496,0.05544 0.02269,0.11258 0.023,0.17c0,0.032 0.002,0.065 0.007,0.097c0.012,0.079 0.023,0.16 0.033,0.24c0.01191,0.10876 0.03231,0.21642 0.061,0.322c0.025,0.098 0.055,0.196 0.083,0.286l0.03,0.098c0.065,0.184 0.037,0.368 0.014,0.512v0.007c-0.00709,0.04368 0.00534,0.08828 0.034,0.122l0.325,0.387c0.03901,0.05142 0.0694,0.10883 0.09,0.17l0.17,0.575l0.21,0.596l0.007,0.029l0.01,0.065c0.009,0.074 -0.001,0.15 -0.001,0.225l-0.023,0.279c-0.00744,0.09231 0.00033,0.18521 0.023,0.275c0.027,0.11 0.055,0.22 0.076,0.33c0.01915,0.11131 0.01779,0.22518 -0.004,0.336l-0.016,0.08l-0.016,0.127c-0.01379,0.10172 -0.00871,0.20512 0.015,0.305c0.006,0.024 0.01,0.046 0.011,0.066c0.00098,0.01362 0.00367,0.02705 0.008,0.04c0.006,0.017 0.012,0.032 0.014,0.048z" fill="#62757e" fill-rule="nonzero"></path></g>
  </g>
  <g id="Regular-M" transform="matrix(5 0 0 5 1389.82 1030)">
    <defs><clipPath id="clip-1"><rect x="0" y="0" width="24" height="24" fill="none" fill-rule="nonzero"></rect></clipPath></defs>
<g clip-path="url(#clip-1)" fill="none" fill-rule="none" stroke="none" stroke-width="1" stroke-linecap="butt" stroke-linejoin="miter" stroke-miterlimit="10" stroke-dasharray="" stroke-dashoffset="0" font-family="none" font-weight="none" font-size="none" text-anchor="none" style="mix-blend-mode: normal"><path d="M21.787,15.242v0.063c0,0.014 0.018,0.019 0.025,0.007c0.006,-0.011 0.024,-0.008 0.025,0.005c0.005,0.04 0.01,0.078 0.017,0.118c0.009,0.062 0.018,0.125 0.024,0.191c0.01231,0.12601 -0.02867,0.25143 -0.11303,0.34585c-0.08435,0.09442 -0.20437,0.14923 -0.33097,0.15115h-0.008c-0.1563,-0.00047 -0.30137,-0.08132 -0.384,-0.214c-0.0677,-0.11188 -0.13942,-0.22128 -0.215,-0.328l-0.063,-0.09c-0.01,-0.015 -0.02,-0.032 -0.032,-0.046c-0.017,-0.019 -0.024,-0.045 -0.035,-0.068l-0.254,-0.508l-0.215,-0.564l-0.055,-0.194c-0.05347,-0.18626 -0.13436,-0.36354 -0.24,-0.526l-0.067,-0.105c-0.03,-0.045 -0.069,-0.1 -0.087,-0.151l-0.01,-0.026l-0.117,-0.298l-0.022,-0.067c-0.03086,-0.07464 -0.07083,-0.14517 -0.119,-0.21c-0.029,-0.0429 -0.05733,-0.08623 -0.085,-0.13l-0.09,-0.135c-0.0323,-0.03997 -0.06496,-0.07964 -0.098,-0.119c-0.058,-0.07 -0.12,-0.144 -0.184,-0.231l-0.02,-0.023c-0.032,-0.037 -0.072,-0.07 -0.093,-0.113c-0.046,-0.079 -0.09,-0.155 -0.136,-0.231l-0.135,-0.232c-0.00836,-0.01582 -0.01636,-0.03182 -0.024,-0.048c-0.034,-0.077 -0.04,-0.163 -0.056,-0.245c-0.00973,-0.06084 -0.0184,-0.12185 -0.026,-0.183c-0.01862,-0.13354 -0.06203,-0.26241 -0.128,-0.38l-0.14,-0.25l-0.003,-0.009c-0.12211,-0.24593 -0.31324,-0.45095 -0.55,-0.59l-0.045,-0.034c-0.08705,-0.05225 -0.15451,-0.13165 -0.192,-0.226c-0.068,-0.17 -0.136,-0.328 -0.215,-0.509l-0.056,-0.124c-0.01247,-0.02939 -0.02581,-0.0584 -0.04,-0.087c-0.0489,-0.11171 -0.1287,-0.20712 -0.23,-0.275l-0.227,-0.146c-0.11444,-0.07791 -0.18871,-0.2023 -0.203,-0.34l-0.026,-0.282c-0.01053,-0.14765 -0.06445,-0.2889 -0.155,-0.406l-0.008,-0.01c-0.06198,-0.07653 -0.13022,-0.14778 -0.204,-0.213c-0.02729,-0.02338 -0.05462,-0.04672 -0.082,-0.07l-0.192,-0.17c-0.05691,-0.04347 -0.09999,-0.10253 -0.124,-0.17l-0.068,-0.18c-0.00895,-0.02183 -0.01829,-0.0435 -0.028,-0.065c-0.03451,-0.08159 -0.09544,-0.14921 -0.173,-0.192l-0.262,-0.14c-0.12644,-0.06519 -0.2144,-0.18655 -0.237,-0.327l-0.037,-0.234c-0.01941,-0.12373 -0.09265,-0.23249 -0.2,-0.297l-0.148,-0.079c-0.10459,-0.06338 -0.18111,-0.16421 -0.214,-0.282l-0.023,-0.085c-0.04691,-0.1836 -0.17833,-0.33395 -0.354,-0.405c-0.02537,-0.0099 -0.05071,-0.0199 -0.076,-0.03c-0.07811,-0.02054 -0.14624,-0.06845 -0.192,-0.135l-0.113,-0.147c-0.068,-0.09 -0.136,-0.18 -0.215,-0.271c-0.03303,-0.04904 -0.05959,-0.10215 -0.079,-0.158l-0.013,-0.045c-0.0713,-0.23944 -0.23258,-0.44194 -0.45,-0.565c-0.07816,-0.03906 -0.14138,-0.10263 -0.18,-0.181l-0.272,-0.52c-0.041,-0.091 -0.09,-0.177 -0.138,-0.265l-0.054,-0.096c-0.03585,-0.07445 -0.08777,-0.14002 -0.152,-0.192c-0.037,-0.034 -0.074,-0.068 -0.108,-0.102l-0.18,-0.18c-0.029,-0.035 -0.06,-0.069 -0.09,-0.102c-0.03115,-0.03326 -0.06149,-0.06727 -0.091,-0.102l-0.113,-0.124c-0.11906,-0.13225 -0.14833,-0.32253 -0.07453,-0.48445c0.0738,-0.16192 0.23661,-0.26465 0.41453,-0.26155c0.1239,0.00493 0.24108,0.0576 0.327,0.147l0.102,0.102l0.104,0.117c0.059,0.065 0.122,0.125 0.188,0.182l0.047,0.04c0.063,0.052 0.135,0.113 0.199,0.185c0.01,0.011 0.024,0.018 0.04,0.018c0.006,0 0.013,0.001 0.019,0.004l0.397,0.165l0.016,0.009l0.082,0.05l0.072,0.043l0.18,0.113c0.06,0.037 0.119,0.073 0.181,0.113c0.017,0.011 0.04,0.032 0.06,0.049l0.06,0.062l0.343,0.375l0.334,0.324c0.049,0.047 0.101,0.092 0.137,0.15c0.01,0.015 0.019,0.031 0.027,0.048c0.034,0.073 0.072,0.147 0.111,0.224l0.07,0.135c0.029,0.052 0.07,0.097 0.116,0.134l0.058,0.046c0.043,0.034 0.085,0.068 0.13,0.102c0.0874,0.0578 0.16391,0.13059 0.226,0.215l0.217,0.371c0.01336,0.02319 0.03182,0.04302 0.054,0.058c0.062,0.034 0.124,0.07 0.187,0.107c0.062,0.037 0.124,0.074 0.186,0.108c0.02478,0.01597 0.0479,0.0344 0.069,0.055c0.04562,0.04494 0.08681,0.09417 0.123,0.147l0.26,0.363l0.373,0.429c0.05,0.05 0.072,0.122 0.103,0.187c0.041,0.085 0.082,0.175 0.123,0.265l0.002,0.005c0.05442,0.11876 0.1197,0.23225 0.195,0.339l0.064,0.098c0.04397,0.06651 0.09679,0.12673 0.157,0.179c0.101,0.079 0.203,0.17 0.305,0.26c0.07619,0.06805 0.12755,0.15953 0.146,0.26l0.031,0.162c0.0386,0.20261 0.1409,0.3876 0.292,0.528l0.043,0.04c0.04097,0.03849 0.07753,0.08142 0.109,0.128l0.067,0.104c0.05641,0.08385 0.10945,0.16992 0.159,0.258c0.03,0.052 0.068,0.1 0.112,0.14l0.13,0.125l0.198,0.187c0.046,0.045 0.08,0.101 0.102,0.158l0.068,0.17c0.02,0.055 0.043,0.111 0.067,0.17c0.029,0.072 0.06,0.15 0.09,0.236l0.096,0.338c0.035,0.12 0.08,0.238 0.136,0.35l0.142,0.283l0.203,0.373c0.03,0.068 0.066,0.133 0.107,0.194l0.05,0.072c0.077,0.114 0.158,0.233 0.25,0.378l0.056,0.113c0.08,0.135 0.147,0.271 0.192,0.373l0.102,0.17c0.034,0.056 0.068,0.115 0.102,0.174c0.034,0.06 0.067,0.119 0.101,0.175c0.03957,0.07206 0.06278,0.15195 0.068,0.234v0.071l0.013,0.122c0.02,0.173 0.057,0.345 0.127,0.504l0.097,0.222c0.02545,0.05689 0.04068,0.11782 0.045,0.18v0.146c0.00092,0.16871 0.0587,0.33218 0.164,0.464c0.054,0.068 0.108,0.136 0.164,0.204c0.057,0.079 0.09,0.18 0.09,0.282v0.113c-0.01121,0.13911 -0.01121,0.27889 0,0.418zM12.735,19.192c0.003,0.01 0.004,0.02 0.004,0.03v0.11c0,0.029 -0.027,0.05 -0.055,0.044c-0.01211,-0.00263 -0.02476,-0.00015 -0.03498,0.00685c-0.01022,0.007 -0.0171,0.01791 -0.01902,0.03015c-0.01625,0.12582 -0.03928,0.25067 -0.069,0.374c-0.01495,0.05814 -0.01767,0.11875 -0.008,0.178l0.022,0.152c0.009,0.062 0.017,0.124 0.028,0.186l0.034,0.215c0.01139,0.05609 0.01139,0.11391 0,0.17c-0.022,0.078 -0.042,0.16 -0.062,0.242c-0.038,0.16 -0.037,0.326 -0.008,0.488c0.069,0.384 0.102,0.9 0.048,1.156l-0.068,0.542c-0.03332,0.2095 -0.20643,0.36853 -0.418,0.384h-0.034c-0.20286,-0.00062 -0.38148,-0.13377 -0.44,-0.328l-0.08,-0.282l-0.07,-0.227c-0.013,-0.044 -0.031,-0.088 -0.031,-0.134c-0.023,-0.17 -0.057,-0.34 -0.09,-0.509l-0.013,-0.069c-0.00668,-0.03696 -0.01003,-0.07444 -0.01,-0.112l-0.057,-0.677v-0.401c0,-0.117 -0.015,-0.232 -0.045,-0.345c-0.02199,-0.06726 -0.04266,-0.13494 -0.062,-0.203c-0.01325,-0.04612 -0.02692,-0.09212 -0.041,-0.138c-0.014,-0.044 -0.04,-0.1 -0.043,-0.145c-0.00069,-0.01236 -0.00169,-0.02469 -0.003,-0.037l-0.02,-0.2l-0.017,-0.184c-0.0115,-0.12561 -0.0363,-0.24963 -0.074,-0.37c-0.0343,-0.125 -0.07198,-0.24904 -0.113,-0.372l-0.26,-0.678l-0.158,-0.633c-0.01042,-0.08464 -0.01109,-0.1702 -0.002,-0.255l0.015,-0.15c0.0213,-0.21756 0.00678,-0.43714 -0.043,-0.65l-0.004,-0.018l-0.056,-0.248c-0.0212,-0.13668 -0.04789,-0.27246 -0.08,-0.407c-0.01435,-0.07431 -0.04661,-0.14399 -0.094,-0.203c-0.11318,-0.13414 -0.22452,-0.26982 -0.334,-0.407c-0.07921,-0.09892 -0.11941,-0.22344 -0.113,-0.35l-0.008,-0.054c-0.01847,-0.15614 -0.04248,-0.31157 -0.072,-0.466l-0.033,-0.226c-0.00629,-0.05086 -0.01396,-0.10155 -0.023,-0.152c-0.01571,-0.09987 -0.05514,-0.19452 -0.115,-0.276l-0.28,-0.374c-0.07888,-0.09402 -0.11186,-0.21824 -0.09,-0.339c0.024,-0.133 0.043,-0.273 0.06,-0.414c0.0127,-0.09859 -0.00147,-0.19879 -0.041,-0.29c-0.03168,-0.06899 -0.06103,-0.13903 -0.088,-0.21l-0.056,-0.125c-0.09743,-0.17341 -0.19845,-0.34478 -0.303,-0.514c-0.01613,-0.02635 -0.03049,-0.05375 -0.043,-0.082c-0.036,-0.081 -0.045,-0.171 -0.06,-0.259l-0.012,-0.072c-0.00648,-0.05283 -0.01415,-0.10551 -0.023,-0.158c-0.01566,-0.10295 -0.06082,-0.19916 -0.13,-0.277l-0.299,-0.333c-0.07716,-0.09576 -0.11727,-0.2161 -0.113,-0.339c0.00532,-0.08377 0.01198,-0.16745 0.02,-0.251c0.01271,-0.17268 -0.04542,-0.34309 -0.161,-0.472c-0.05972,-0.06646 -0.11807,-0.13414 -0.175,-0.203c-0.0622,-0.07803 -0.10134,-0.1719 -0.113,-0.271v-0.158l-0.005,-0.053c-0.01341,-0.18409 -0.09423,-0.35677 -0.227,-0.485c-0.07102,-0.06421 -0.1407,-0.12989 -0.209,-0.197c-0.02044,-0.02196 -0.03885,-0.04572 -0.055,-0.071c-0.03178,-0.05024 -0.05921,-0.1031 -0.082,-0.158l-0.167,-0.375c-0.046,-0.102 -0.114,-0.2 -0.114,-0.311c-0.00927,-0.15783 -0.02428,-0.31527 -0.045,-0.472c0.00016,-0.03071 -0.01127,-0.06035 -0.032,-0.083l-0.103,-0.112l-0.249,-0.26c-0.0449,-0.05758 -0.07942,-0.12256 -0.102,-0.192l-0.056,-0.226c-0.03238,-0.14434 -0.07007,-0.28744 -0.113,-0.429l-0.118,-0.417c-0.03262,-0.121 -0.07998,-0.23754 -0.141,-0.347c-0.03377,-0.05833 -0.0681,-0.11634 -0.103,-0.174l-0.135,-0.237l-0.113,-0.226l-0.124,-0.237c-0.0793,-0.1582 -0.06103,-0.34784 0.047,-0.488c0.08223,-0.11009 0.21062,-0.17613 0.348,-0.179c0.158,0 0.316,0.09 0.395,0.238l0.136,0.26l0.102,0.214l0.124,0.203c0.034,0.057 0.068,0.11 0.102,0.164c0.068,0.108 0.15,0.208 0.244,0.294l0.354,0.322c0.102,0.113 0.204,0.237 0.305,0.361l0.147,0.17c0.03006,0.03834 0.05682,0.07915 0.08,0.122l0.146,0.273l0.147,0.283l0.124,0.203l0.237,0.407c0.00763,0.01214 0.01432,0.02484 0.02,0.038c0.02,0.041 0.031,0.085 0.043,0.13l0.046,0.176c0.06284,0.24261 0.17071,0.47124 0.318,0.674l0.054,0.075c0.056,0.077 0.129,0.147 0.152,0.24c0.057,0.17 0.102,0.327 0.147,0.485c0.02241,0.06703 0.05851,0.12866 0.106,0.181c0.12,0.132 0.233,0.264 0.346,0.396c0.01437,0.01567 0.0271,0.03275 0.038,0.051c0.03,0.047 0.051,0.099 0.072,0.15l0.06,0.149c0.038,0.1 0.076,0.195 0.111,0.281l0.046,0.114l0.294,0.622l0.007,0.013c0.026,0.048 0.033,0.104 0.045,0.157l0.033,0.146l0.05,0.226l0.046,0.192c0.028,0.089 0.058,0.178 0.09,0.271l0.077,0.227c0.017,0.052 0.04,0.1 0.07,0.146c0.102,0.158 0.203,0.327 0.305,0.497c0.0412,0.07594 0.06091,0.16169 0.057,0.248v0.158l-0.003,0.032c-0.02,0.253 0.045,0.503 0.168,0.725l0.076,0.136l0.034,0.068c0.018,0.035 0.025,0.075 0.036,0.112c0.016,0.05 0.03,0.102 0.044,0.153c0.02,0.07 0.04,0.141 0.063,0.21c0.04563,0.14574 0.10805,0.28568 0.186,0.417c0.042,0.08 0.085,0.158 0.13,0.237l0.068,0.113l0.01,0.018c0.05,0.086 0.054,0.19 0.068,0.288c0.027,0.178 0.053,0.36 0.08,0.564v0.203c0.00589,0.0782 0.00923,0.15658 0.01,0.235c0.002,0.122 0.013,0.244 0.035,0.364c0.034,0.147 0.068,0.294 0.09,0.418l0.147,0.622l0.226,0.711l0.124,0.621c0.017,0.074 0.037,0.147 0.057,0.22c0.02,0.074 0.04,0.148 0.056,0.221l0.053,0.222zM6.87203,16.26502c0.00248,0.00145 0.00399,0.00411 0.00397,0.00698v0.039c0.02857,0.12839 0.05225,0.25781 0.071,0.388l0.03,0.192c0.012,0.068 0,0.147 -0.022,0.215c-0.09231,0.26308 -0.14194,0.53924 -0.147,0.818v0.063c0.0026,0.06689 -0.01295,0.13323 -0.045,0.192c-0.023,0.051 -0.048,0.102 -0.074,0.153c-0.05095,0.0873 -0.06118,0.19252 -0.028,0.288c0.022,0.068 0.022,0.124 0.022,0.192c-0.044,0.418 -0.1,0.711 -0.18,0.881l-0.034,0.102l-0.045,0.113l-0.079,0.214c-0.06665,0.17869 -0.23829,0.29632 -0.429,0.294h-0.046c-0.20544,-0.02397 -0.37063,-0.18022 -0.406,-0.384l-0.045,-0.26l-0.023,-0.113c-0.015,-0.082 -0.033,-0.165 -0.033,-0.248c-0.005,-0.053 -0.007,-0.103 -0.01,-0.153c-0.003,-0.077 -0.007,-0.154 -0.015,-0.232c-0.006,-0.052 -0.01,-0.105 -0.01,-0.158l0.023,-0.237v-0.186c0.0004,-0.10165 0.00708,-0.20317 0.02,-0.304l0.006,-0.048c0.018,-0.144 0.013,-0.292 -0.018,-0.434l-0.003,-0.011v-0.003c-0.033,-0.148 -0.05,-0.299 -0.05,-0.45v-0.14c0.00004,-0.13879 -0.01438,-0.2772 -0.043,-0.413l-0.003,-0.01l-0.056,-0.238l-0.023,-0.067l-0.025,-0.084c-0.032,-0.106 -0.065,-0.215 -0.104,-0.32c-0.011,-0.032 -0.036,-0.072 -0.04,-0.107c-0.00078,-0.01007 -0.00212,-0.02008 -0.004,-0.03l-0.03,-0.171c-0.011,-0.051 -0.02,-0.105 -0.028,-0.158c-0.008,-0.054 -0.018,-0.108 -0.028,-0.158c-0.02269,-0.06987 -0.02269,-0.14513 0,-0.215l0.004,-0.016c0.07898,-0.26503 0.10213,-0.54356 0.068,-0.818l-0.005,-0.036c0.00016,-0.11419 -0.01123,-0.2281 -0.034,-0.34c0,-0.029 -0.009,-0.056 -0.026,-0.079l-0.065,-0.088c-0.072,-0.099 -0.145,-0.2 -0.225,-0.295c-0.05799,-0.0785 -0.08951,-0.17341 -0.09,-0.271c0,-0.275 -0.061,-0.547 -0.177,-0.797l-0.286,-0.615c-0.0678,-0.15693 -0.04643,-0.33814 0.056,-0.475c0.13554,-0.1353 0.18108,-0.33653 0.117,-0.517c-0.01011,-0.03151 -0.02248,-0.06226 -0.037,-0.092l-0.216,-0.43c-0.04066,-0.06369 -0.06025,-0.13856 -0.056,-0.214c0,-0.242 -0.083,-0.475 -0.236,-0.662l-0.069,-0.084c-0.10058,-0.11859 -0.13444,-0.27998 -0.09,-0.429l0.05,-0.164c0.033,-0.103 0.015,-0.216 -0.05,-0.303c-0.045,-0.06 -0.09,-0.119 -0.136,-0.177c-0.07897,-0.09828 -0.11177,-0.22582 -0.09,-0.35l0.022,-0.147c0.00394,-0.01809 0.00828,-0.0361 0.013,-0.054c0.019,-0.08 -0.011,-0.16 -0.069,-0.22l-0.215,-0.224c-0.04464,-0.05331 -0.0792,-0.11431 -0.102,-0.18l-0.158,-0.52c-0.011,-0.068 -0.011,-0.135 -0.011,-0.203c0.005,-0.053 0.013,-0.107 0.021,-0.163c0.018,-0.128 -0.016,-0.257 -0.097,-0.357l-0.055,-0.066l-0.084,-0.103c-0.056,-0.068 -0.101,-0.159 -0.101,-0.249c-0.012,-0.18 -0.023,-0.362 -0.045,-0.542l-0.023,-0.181l-0.017,-0.147c-0.011,-0.096 -0.036,-0.192 -0.073,-0.282c-0.046,-0.113 -0.091,-0.226 -0.159,-0.373l-0.146,-0.417c-0.05244,-0.13531 -0.03479,-0.28778 0.04718,-0.40753c0.08197,-0.11975 0.21771,-0.19139 0.36282,-0.19147h0.007c0.19081,-0.0029 0.36289,0.11435 0.43,0.293l0.147,0.396c0.05888,0.11558 0.11556,0.23227 0.17,0.35c0.02878,0.06766 0.06942,0.12964 0.12,0.183c0.01625,0.01608 0.03259,0.03208 0.049,0.048c0.042,0.043 0.084,0.085 0.124,0.13l0.146,0.169c0.09956,0.13121 0.19625,0.26458 0.29,0.4l0.046,0.065c0.01007,0.01453 0.01941,0.02955 0.028,0.045c0.011,0.02 0.024,0.043 0.032,0.067l0.089,0.242l0.103,0.277l0.079,0.17l0.169,0.373c0.0144,0.03394 0.02448,0.06955 0.03,0.106c0.00308,0.01957 0.00541,0.03925 0.007,0.059l0.008,0.085c0.02285,0.23686 0.09799,0.4657 0.22,0.67l0.04,0.068c0.01554,0.02652 0.02956,0.05389 0.042,0.082c0.036,0.081 0.046,0.171 0.062,0.259c0.01524,0.08724 0.02991,0.17457 0.044,0.262c-0.00009,0.03021 0.01095,0.0594 0.031,0.082c0.09959,0.11603 0.19434,0.23614 0.284,0.36c0.03767,0.04633 0.06495,0.10021 0.08,0.158l0.034,0.136c0.03465,0.10775 0.06501,0.21684 0.091,0.327l0.01,0.046l0.192,0.531c0.01355,0.05957 0.02258,0.12007 0.027,0.181l0.02,0.3c0.007,0.1 0.021,0.2 0.043,0.3c0.01212,0.05557 0.02378,0.11124 0.035,0.167c0.01458,0.08254 0.04226,0.16221 0.082,0.236l0.036,0.065c0.057,0.105 0.113,0.207 0.164,0.31c0.04776,0.09801 0.0635,0.20855 0.045,0.316l-0.034,0.147c-0.02947,0.16087 -0.00924,0.32691 0.058,0.476l0.048,0.097c0.02027,0.03944 0.037,0.0806 0.05,0.123l0.002,0.005c0.00811,0.02932 0.01478,0.05903 0.02,0.089l0.034,0.176c0.03372,0.16775 0.08813,0.33066 0.162,0.485c0.02524,0.05502 0.05124,0.1097 0.078,0.164l0.046,0.102c0.03205,0.05877 0.0476,0.12511 0.045,0.192v0.456c0.00004,0.09469 -0.00664,0.18926 -0.02,0.283l-0.003,0.018l-0.017,0.158c-0.01116,0.10501 -0.01183,0.21086 -0.002,0.316l0.03,0.305l0.068,0.486c0.017,0.062 0.031,0.127 0.045,0.192c0.01367,0.06439 0.02901,0.12841 0.046,0.192l0.056,0.237c0.02064,0.14601 0.03532,0.2928 0.044,0.44c-0.00003,0.00287 0.00149,0.00554 0.00397,0.00698c0.00248,0.00145 0.00554,0.00145 0.00803,0.00002c0.00249,-0.00144 0.00555,-0.00143 0.00803,0.00002zM17.2,18.845c0.002,0.015 0.005,0.03 0.012,0.044c0.01943,0.03876 0.03291,0.08023 0.04,0.123c0.004,0.026 0.037,0.04 0.056,0.02l0.016,-0.015c0.00307,-0.00268 0.00715,-0.00389 0.01119,-0.00331c0.00403,0.00058 0.00762,0.00288 0.00981,0.00631c0.007,0.012 0.013,0.021 0.014,0.034l0.003,0.012c0.056,0.135 0.12,0.29 0.076,0.48l-0.002,0.009c-0.03332,0.15251 -0.05538,0.30726 -0.066,0.463l-0.01,0.116v0.146c-0.00943,0.19108 -0.13664,0.35617 -0.319,0.414c-0.04358,0.01216 -0.08878,0.01756 -0.134,0.016c-0.18515,0.00351 -0.3525,-0.10979 -0.418,-0.283l-0.067,-0.17l-0.03,-0.075c-0.036,-0.091 -0.073,-0.186 -0.117,-0.274c-0.00727,-0.01618 -0.01329,-0.0329 -0.018,-0.05l-0.01,-0.035l-0.074,-0.277l-0.056,-0.203l-0.009,-0.033c-0.01,-0.038 -0.025,-0.075 -0.025,-0.114c-0.01722,-0.13791 -0.04192,-0.27478 -0.074,-0.41c-0.01798,-0.07299 -0.02738,-0.14783 -0.028,-0.223c-0.00846,-0.10704 -0.02047,-0.21376 -0.036,-0.32c-0.00612,-0.03468 -0.00946,-0.06979 -0.01,-0.105c0.00099,-0.06239 -0.00952,-0.12442 -0.031,-0.183l-0.053,-0.131l-0.04,-0.097l-0.079,-0.192c-0.01001,-0.03349 -0.01803,-0.06755 -0.024,-0.102l-0.06,-0.322c-0.02628,-0.1386 -0.06717,-0.27402 -0.122,-0.404l-0.121,-0.29l-0.283,-0.554c-0.00518,-0.01112 -0.00985,-0.02246 -0.014,-0.034l-0.016,-0.044l-0.196,-0.543c-0.022,-0.056 -0.022,-0.113 -0.022,-0.17c0.011,-0.146 0.011,-0.293 0.011,-0.44c-0.0002,-0.06711 -0.01169,-0.13371 -0.034,-0.197l-0.068,-0.198l-0.079,-0.215c-0.056,-0.147 -0.44,-0.745 -0.553,-0.858c-0.07074,-0.08135 -0.12113,-0.17835 -0.147,-0.283c-0.028,-0.15 -0.064,-0.293 -0.101,-0.44l-0.023,-0.09l-0.057,-0.215c-0.01169,-0.04157 -0.02303,-0.08324 -0.034,-0.125c-0.02177,-0.0813 -0.06453,-0.15544 -0.124,-0.215l-0.293,-0.293c-0.08842,-0.09054 -0.13733,-0.21245 -0.136,-0.339l0.011,-0.274c0.01081,-0.17563 -0.02837,-0.35073 -0.113,-0.505l-0.017,-0.03c-0.04874,-0.08517 -0.10354,-0.16671 -0.164,-0.244c-0.09023,-0.11582 -0.18023,-0.23182 -0.27,-0.348c-0.04002,-0.04937 -0.06747,-0.1077 -0.08,-0.17l-0.034,-0.123l-0.017,-0.086c-0.03662,-0.16581 -0.13044,-0.31343 -0.265,-0.417c-0.068,-0.054 -0.136,-0.107 -0.203,-0.164c-0.08119,-0.06678 -0.1387,-0.15796 -0.164,-0.26c-0.01297,-0.0523 -0.01869,-0.10614 -0.017,-0.16v-0.148c0.00278,-0.16354 -0.06763,-0.31977 -0.192,-0.426l-0.147,-0.124c-0.0833,-0.07213 -0.13589,-0.17337 -0.147,-0.283l-0.031,-0.203c-0.02368,-0.15111 -0.10825,-0.28592 -0.234,-0.373c-0.065,-0.045 -0.13,-0.09 -0.198,-0.135c-0.06214,-0.03381 -0.11319,-0.08486 -0.147,-0.147l-0.305,-0.531c-0.02145,-0.03463 -0.03731,-0.07243 -0.047,-0.112c-0.00635,-0.02302 -0.01136,-0.0464 -0.015,-0.07l-0.049,-0.3c-0.01494,-0.09738 -0.06599,-0.18556 -0.143,-0.247c-0.04,-0.03 -0.08,-0.062 -0.119,-0.096l-0.135,-0.113c-0.06155,-0.05527 -0.1083,-0.12505 -0.136,-0.203c-0.06816,-0.19714 -0.1395,-0.39317 -0.214,-0.588c-0.02684,-0.05696 -0.06114,-0.11009 -0.102,-0.158c-0.09073,-0.10998 -0.16671,-0.23134 -0.226,-0.361l-0.226,-0.509c-0.05385,-0.09567 -0.11055,-0.18971 -0.17,-0.282l-0.079,-0.124c-0.12881,-0.21273 -0.06341,-0.48944 0.147,-0.622c0.20988,-0.1291 0.48429,-0.069 0.621,0.136l0.068,0.113c0.029,0.05 0.06,0.099 0.09,0.147c0.063,0.096 0.13,0.19 0.206,0.276l0.124,0.14c0.074,0.084 0.155,0.161 0.243,0.232l0.332,0.267l0.462,0.429c0.05,0.049 0.087,0.108 0.125,0.167l0.045,0.07l0.092,0.14c0.05,0.075 0.099,0.147 0.134,0.21l0.348,0.475c0.017,0.023 0.036,0.055 0.051,0.079l0.02,0.033l0.27,0.51c0.055,0.1 0.142,0.246 0.217,0.351c0.054,0.078 0.118,0.149 0.16,0.234c0.00229,0.00435 0.00463,0.00869 0.007,0.013l0.174,0.434c0.02,0.05 0.049,0.094 0.086,0.13c0.124,0.103 0.249,0.204 0.362,0.306c0.02103,0.01765 0.03984,0.0378 0.056,0.06c0.03134,0.04209 0.05878,0.08694 0.082,0.134l0.246,0.472l0.302,0.501c0.017,0.028 0.039,0.052 0.055,0.08c0.018,0.031 0.02,0.07 0.031,0.105l0.047,0.153c0.03,0.09 0.059,0.183 0.084,0.28c0.023,0.075 0.051,0.148 0.083,0.22l0.064,0.141l0.046,0.103c0.044,0.097 0.101,0.187 0.169,0.27c0.101,0.113 0.192,0.226 0.282,0.35c0.057,0.08 0.09,0.17 0.09,0.26l0.009,0.19c0.01,0.222 0.084,0.437 0.216,0.617l0.073,0.101c0.02,0.027 0.036,0.057 0.053,0.086c0.00901,0.01412 0.01639,0.02922 0.022,0.045c0.029,0.062 0.054,0.127 0.08,0.192c0.025,0.065 0.05,0.13 0.079,0.192c0.037,0.105 0.09,0.204 0.155,0.294l0.121,0.17l0.096,0.135l0.046,0.057c0.03361,0.04714 0.05648,0.10107 0.067,0.158c0.04,0.18 0.08,0.36 0.136,0.572c0.01496,0.05544 0.02269,0.11258 0.023,0.17c0,0.032 0.002,0.065 0.007,0.097c0.012,0.079 0.023,0.16 0.033,0.24c0.01191,0.10876 0.03231,0.21642 0.061,0.322c0.025,0.098 0.055,0.196 0.083,0.286l0.03,0.098c0.065,0.184 0.037,0.368 0.014,0.512v0.007c-0.00709,0.04368 0.00534,0.08828 0.034,0.122l0.325,0.387c0.03901,0.05142 0.0694,0.10883 0.09,0.17l0.17,0.575l0.21,0.596l0.007,0.029l0.01,0.065c0.009,0.074 -0.001,0.15 -0.001,0.225l-0.023,0.279c-0.00744,0.09231 0.00033,0.18521 0.023,0.275c0.027,0.11 0.055,0.22 0.076,0.33c0.01915,0.11131 0.01779,0.22518 -0.004,0.336l-0.016,0.08l-0.016,0.127c-0.01379,0.10172 -0.00871,0.20512 0.015,0.305c0.006,0.024 0.01,0.046 0.011,0.066c0.00098,0.01362 0.00367,0.02705 0.008,0.04c0.006,0.017 0.012,0.032 0.014,0.048z" fill="#62757e" fill-rule="nonzero"></path></g>
  </g>
  <g id="Regular-S" transform="matrix(3.915 0 0 3.915 1402.75 614)">
    <defs><clipPath id="clip-1"><rect x="0" y="0" width="24" height="24" fill="none" fill-rule="nonzero"></rect></clipPath></defs>
<g clip-path="url(#clip-1)" fill="none" fill-rule="none" stroke="none" stroke-width="1" stroke-linecap="butt" stroke-linejoin="miter" stroke-miterlimit="10" stroke-dasharray="" stroke-dashoffset="0" font-family="none" font-weight="none" font-size="none" text-anchor="none" style="mix-blend-mode: normal"><path d="M21.787,15.242v0.063c0,0.014 0.018,0.019 0.025,0.007c0.006,-0.011 0.024,-0.008 0.025,0.005c0.005,0.04 0.01,0.078 0.017,0.118c0.009,0.062 0.018,0.125 0.024,0.191c0.01231,0.12601 -0.02867,0.25143 -0.11303,0.34585c-0.08435,0.09442 -0.20437,0.14923 -0.33097,0.15115h-0.008c-0.1563,-0.00047 -0.30137,-0.08132 -0.384,-0.214c-0.0677,-0.11188 -0.13942,-0.22128 -0.215,-0.328l-0.063,-0.09c-0.01,-0.015 -0.02,-0.032 -0.032,-0.046c-0.017,-0.019 -0.024,-0.045 -0.035,-0.068l-0.254,-0.508l-0.215,-0.564l-0.055,-0.194c-0.05347,-0.18626 -0.13436,-0.36354 -0.24,-0.526l-0.067,-0.105c-0.03,-0.045 -0.069,-0.1 -0.087,-0.151l-0.01,-0.026l-0.117,-0.298l-0.022,-0.067c-0.03086,-0.07464 -0.07083,-0.14517 -0.119,-0.21c-0.029,-0.0429 -0.05733,-0.08623 -0.085,-0.13l-0.09,-0.135c-0.0323,-0.03997 -0.06496,-0.07964 -0.098,-0.119c-0.058,-0.07 -0.12,-0.144 -0.184,-0.231l-0.02,-0.023c-0.032,-0.037 -0.072,-0.07 -0.093,-0.113c-0.046,-0.079 -0.09,-0.155 -0.136,-0.231l-0.135,-0.232c-0.00836,-0.01582 -0.01636,-0.03182 -0.024,-0.048c-0.034,-0.077 -0.04,-0.163 -0.056,-0.245c-0.00973,-0.06084 -0.0184,-0.12185 -0.026,-0.183c-0.01862,-0.13354 -0.06203,-0.26241 -0.128,-0.38l-0.14,-0.25l-0.003,-0.009c-0.12211,-0.24593 -0.31324,-0.45095 -0.55,-0.59l-0.045,-0.034c-0.08705,-0.05225 -0.15451,-0.13165 -0.192,-0.226c-0.068,-0.17 -0.136,-0.328 -0.215,-0.509l-0.056,-0.124c-0.01247,-0.02939 -0.02581,-0.0584 -0.04,-0.087c-0.0489,-0.11171 -0.1287,-0.20712 -0.23,-0.275l-0.227,-0.146c-0.11444,-0.07791 -0.18871,-0.2023 -0.203,-0.34l-0.026,-0.282c-0.01053,-0.14765 -0.06445,-0.2889 -0.155,-0.406l-0.008,-0.01c-0.06198,-0.07653 -0.13022,-0.14778 -0.204,-0.213c-0.02729,-0.02338 -0.05462,-0.04672 -0.082,-0.07l-0.192,-0.17c-0.05691,-0.04347 -0.09999,-0.10253 -0.124,-0.17l-0.068,-0.18c-0.00895,-0.02183 -0.01829,-0.0435 -0.028,-0.065c-0.03451,-0.08159 -0.09544,-0.14921 -0.173,-0.192l-0.262,-0.14c-0.12644,-0.06519 -0.2144,-0.18655 -0.237,-0.327l-0.037,-0.234c-0.01941,-0.12373 -0.09265,-0.23249 -0.2,-0.297l-0.148,-0.079c-0.10459,-0.06338 -0.18111,-0.16421 -0.214,-0.282l-0.023,-0.085c-0.04691,-0.1836 -0.17833,-0.33395 -0.354,-0.405c-0.02537,-0.0099 -0.05071,-0.0199 -0.076,-0.03c-0.07811,-0.02054 -0.14624,-0.06845 -0.192,-0.135l-0.113,-0.147c-0.068,-0.09 -0.136,-0.18 -0.215,-0.271c-0.03303,-0.04904 -0.05959,-0.10215 -0.079,-0.158l-0.013,-0.045c-0.0713,-0.23944 -0.23258,-0.44194 -0.45,-0.565c-0.07816,-0.03906 -0.14138,-0.10263 -0.18,-0.181l-0.272,-0.52c-0.041,-0.091 -0.09,-0.177 -0.138,-0.265l-0.054,-0.096c-0.03585,-0.07445 -0.08777,-0.14002 -0.152,-0.192c-0.037,-0.034 -0.074,-0.068 -0.108,-0.102l-0.18,-0.18c-0.029,-0.035 -0.06,-0.069 -0.09,-0.102c-0.03115,-0.03326 -0.06149,-0.06727 -0.091,-0.102l-0.113,-0.124c-0.11906,-0.13225 -0.14833,-0.32253 -0.07453,-0.48445c0.0738,-0.16192 0.23661,-0.26465 0.41453,-0.26155c0.1239,0.00493 0.24108,0.0576 0.327,0.147l0.102,0.102l0.104,0.117c0.059,0.065 0.122,0.125 0.188,0.182l0.047,0.04c0.063,0.052 0.135,0.113 0.199,0.185c0.01,0.011 0.024,0.018 0.04,0.018c0.006,0 0.013,0.001 0.019,0.004l0.397,0.165l0.016,0.009l0.082,0.05l0.072,0.043l0.18,0.113c0.06,0.037 0.119,0.073 0.181,0.113c0.017,0.011 0.04,0.032 0.06,0.049l0.06,0.062l0.343,0.375l0.334,0.324c0.049,0.047 0.101,0.092 0.137,0.15c0.01,0.015 0.019,0.031 0.027,0.048c0.034,0.073 0.072,0.147 0.111,0.224l0.07,0.135c0.029,0.052 0.07,0.097 0.116,0.134l0.058,0.046c0.043,0.034 0.085,0.068 0.13,0.102c0.0874,0.0578 0.16391,0.13059 0.226,0.215l0.217,0.371c0.01336,0.02319 0.03182,0.04302 0.054,0.058c0.062,0.034 0.124,0.07 0.187,0.107c0.062,0.037 0.124,0.074 0.186,0.108c0.02478,0.01597 0.0479,0.0344 0.069,0.055c0.04562,0.04494 0.08681,0.09417 0.123,0.147l0.26,0.363l0.373,0.429c0.05,0.05 0.072,0.122 0.103,0.187c0.041,0.085 0.082,0.175 0.123,0.265l0.002,0.005c0.05442,0.11876 0.1197,0.23225 0.195,0.339l0.064,0.098c0.04397,0.06651 0.09679,0.12673 0.157,0.179c0.101,0.079 0.203,0.17 0.305,0.26c0.07619,0.06805 0.12755,0.15953 0.146,0.26l0.031,0.162c0.0386,0.20261 0.1409,0.3876 0.292,0.528l0.043,0.04c0.04097,0.03849 0.07753,0.08142 0.109,0.128l0.067,0.104c0.05641,0.08385 0.10945,0.16992 0.159,0.258c0.03,0.052 0.068,0.1 0.112,0.14l0.13,0.125l0.198,0.187c0.046,0.045 0.08,0.101 0.102,0.158l0.068,0.17c0.02,0.055 0.043,0.111 0.067,0.17c0.029,0.072 0.06,0.15 0.09,0.236l0.096,0.338c0.035,0.12 0.08,0.238 0.136,0.35l0.142,0.283l0.203,0.373c0.03,0.068 0.066,0.133 0.107,0.194l0.05,0.072c0.077,0.114 0.158,0.233 0.25,0.378l0.056,0.113c0.08,0.135 0.147,0.271 0.192,0.373l0.102,0.17c0.034,0.056 0.068,0.115 0.102,0.174c0.034,0.06 0.067,0.119 0.101,0.175c0.03957,0.07206 0.06278,0.15195 0.068,0.234v0.071l0.013,0.122c0.02,0.173 0.057,0.345 0.127,0.504l0.097,0.222c0.02545,0.05689 0.04068,0.11782 0.045,0.18v0.146c0.00092,0.16871 0.0587,0.33218 0.164,0.464c0.054,0.068 0.108,0.136 0.164,0.204c0.057,0.079 0.09,0.18 0.09,0.282v0.113c-0.01121,0.13911 -0.01121,0.27889 0,0.418zM12.735,19.192c0.003,0.01 0.004,0.02 0.004,0.03v0.11c0,0.029 -0.027,0.05 -0.055,0.044c-0.01211,-0.00263 -0.02476,-0.00015 -0.03498,0.00685c-0.01022,0.007 -0.0171,0.01791 -0.01902,0.03015c-0.01625,0.12582 -0.03928,0.25067 -0.069,0.374c-0.01495,0.05814 -0.01767,0.11875 -0.008,0.178l0.022,0.152c0.009,0.062 0.017,0.124 0.028,0.186l0.034,0.215c0.01139,0.05609 0.01139,0.11391 0,0.17c-0.022,0.078 -0.042,0.16 -0.062,0.242c-0.038,0.16 -0.037,0.326 -0.008,0.488c0.069,0.384 0.102,0.9 0.048,1.156l-0.068,0.542c-0.03332,0.2095 -0.20643,0.36853 -0.418,0.384h-0.034c-0.20286,-0.00062 -0.38148,-0.13377 -0.44,-0.328l-0.08,-0.282l-0.07,-0.227c-0.013,-0.044 -0.031,-0.088 -0.031,-0.134c-0.023,-0.17 -0.057,-0.34 -0.09,-0.509l-0.013,-0.069c-0.00668,-0.03696 -0.01003,-0.07444 -0.01,-0.112l-0.057,-0.677v-0.401c0,-0.117 -0.015,-0.232 -0.045,-0.345c-0.02199,-0.06726 -0.04266,-0.13494 -0.062,-0.203c-0.01325,-0.04612 -0.02692,-0.09212 -0.041,-0.138c-0.014,-0.044 -0.04,-0.1 -0.043,-0.145c-0.00069,-0.01236 -0.00169,-0.02469 -0.003,-0.037l-0.02,-0.2l-0.017,-0.184c-0.0115,-0.12561 -0.0363,-0.24963 -0.074,-0.37c-0.0343,-0.125 -0.07198,-0.24904 -0.113,-0.372l-0.26,-0.678l-0.158,-0.633c-0.01042,-0.08464 -0.01109,-0.1702 -0.002,-0.255l0.015,-0.15c0.0213,-0.21756 0.00678,-0.43714 -0.043,-0.65l-0.004,-0.018l-0.056,-0.248c-0.0212,-0.13668 -0.04789,-0.27246 -0.08,-0.407c-0.01435,-0.07431 -0.04661,-0.14399 -0.094,-0.203c-0.11318,-0.13414 -0.22452,-0.26982 -0.334,-0.407c-0.07921,-0.09892 -0.11941,-0.22344 -0.113,-0.35l-0.008,-0.054c-0.01847,-0.15614 -0.04248,-0.31157 -0.072,-0.466l-0.033,-0.226c-0.00629,-0.05086 -0.01396,-0.10155 -0.023,-0.152c-0.01571,-0.09987 -0.05514,-0.19452 -0.115,-0.276l-0.28,-0.374c-0.07888,-0.09402 -0.11186,-0.21824 -0.09,-0.339c0.024,-0.133 0.043,-0.273 0.06,-0.414c0.0127,-0.09859 -0.00147,-0.19879 -0.041,-0.29c-0.03168,-0.06899 -0.06103,-0.13903 -0.088,-0.21l-0.056,-0.125c-0.09743,-0.17341 -0.19845,-0.34478 -0.303,-0.514c-0.01613,-0.02635 -0.03049,-0.05375 -0.043,-0.082c-0.036,-0.081 -0.045,-0.171 -0.06,-0.259l-0.012,-0.072c-0.00648,-0.05283 -0.01415,-0.10551 -0.023,-0.158c-0.01566,-0.10295 -0.06082,-0.19916 -0.13,-0.277l-0.299,-0.333c-0.07716,-0.09576 -0.11727,-0.2161 -0.113,-0.339c0.00532,-0.08377 0.01198,-0.16745 0.02,-0.251c0.01271,-0.17268 -0.04542,-0.34309 -0.161,-0.472c-0.05972,-0.06646 -0.11807,-0.13414 -0.175,-0.203c-0.0622,-0.07803 -0.10134,-0.1719 -0.113,-0.271v-0.158l-0.005,-0.053c-0.01341,-0.18409 -0.09423,-0.35677 -0.227,-0.485c-0.07102,-0.06421 -0.1407,-0.12989 -0.209,-0.197c-0.02044,-0.02196 -0.03885,-0.04572 -0.055,-0.071c-0.03178,-0.05024 -0.05921,-0.1031 -0.082,-0.158l-0.167,-0.375c-0.046,-0.102 -0.114,-0.2 -0.114,-0.311c-0.00927,-0.15783 -0.02428,-0.31527 -0.045,-0.472c0.00016,-0.03071 -0.01127,-0.06035 -0.032,-0.083l-0.103,-0.112l-0.249,-0.26c-0.0449,-0.05758 -0.07942,-0.12256 -0.102,-0.192l-0.056,-0.226c-0.03238,-0.14434 -0.07007,-0.28744 -0.113,-0.429l-0.118,-0.417c-0.03262,-0.121 -0.07998,-0.23754 -0.141,-0.347c-0.03377,-0.05833 -0.0681,-0.11634 -0.103,-0.174l-0.135,-0.237l-0.113,-0.226l-0.124,-0.237c-0.0793,-0.1582 -0.06103,-0.34784 0.047,-0.488c0.08223,-0.11009 0.21062,-0.17613 0.348,-0.179c0.158,0 0.316,0.09 0.395,0.238l0.136,0.26l0.102,0.214l0.124,0.203c0.034,0.057 0.068,0.11 0.102,0.164c0.068,0.108 0.15,0.208 0.244,0.294l0.354,0.322c0.102,0.113 0.204,0.237 0.305,0.361l0.147,0.17c0.03006,0.03834 0.05682,0.07915 0.08,0.122l0.146,0.273l0.147,0.283l0.124,0.203l0.237,0.407c0.00763,0.01214 0.01432,0.02484 0.02,0.038c0.02,0.041 0.031,0.085 0.043,0.13l0.046,0.176c0.06284,0.24261 0.17071,0.47124 0.318,0.674l0.054,0.075c0.056,0.077 0.129,0.147 0.152,0.24c0.057,0.17 0.102,0.327 0.147,0.485c0.02241,0.06703 0.05851,0.12866 0.106,0.181c0.12,0.132 0.233,0.264 0.346,0.396c0.01437,0.01567 0.0271,0.03275 0.038,0.051c0.03,0.047 0.051,0.099 0.072,0.15l0.06,0.149c0.038,0.1 0.076,0.195 0.111,0.281l0.046,0.114l0.294,0.622l0.007,0.013c0.026,0.048 0.033,0.104 0.045,0.157l0.033,0.146l0.05,0.226l0.046,0.192c0.028,0.089 0.058,0.178 0.09,0.271l0.077,0.227c0.017,0.052 0.04,0.1 0.07,0.146c0.102,0.158 0.203,0.327 0.305,0.497c0.0412,0.07594 0.06091,0.16169 0.057,0.248v0.158l-0.003,0.032c-0.02,0.253 0.045,0.503 0.168,0.725l0.076,0.136l0.034,0.068c0.018,0.035 0.025,0.075 0.036,0.112c0.016,0.05 0.03,0.102 0.044,0.153c0.02,0.07 0.04,0.141 0.063,0.21c0.04563,0.14574 0.10805,0.28568 0.186,0.417c0.042,0.08 0.085,0.158 0.13,0.237l0.068,0.113l0.01,0.018c0.05,0.086 0.054,0.19 0.068,0.288c0.027,0.178 0.053,0.36 0.08,0.564v0.203c0.00589,0.0782 0.00923,0.15658 0.01,0.235c0.002,0.122 0.013,0.244 0.035,0.364c0.034,0.147 0.068,0.294 0.09,0.418l0.147,0.622l0.226,0.711l0.124,0.621c0.017,0.074 0.037,0.147 0.057,0.22c0.02,0.074 0.04,0.148 0.056,0.221l0.053,0.222zM6.87203,16.26502c0.00248,0.00145 0.00399,0.00411 0.00397,0.00698v0.039c0.02857,0.12839 0.05225,0.25781 0.071,0.388l0.03,0.192c0.012,0.068 0,0.147 -0.022,0.215c-0.09231,0.26308 -0.14194,0.53924 -0.147,0.818v0.063c0.0026,0.06689 -0.01295,0.13323 -0.045,0.192c-0.023,0.051 -0.048,0.102 -0.074,0.153c-0.05095,0.0873 -0.06118,0.19252 -0.028,0.288c0.022,0.068 0.022,0.124 0.022,0.192c-0.044,0.418 -0.1,0.711 -0.18,0.881l-0.034,0.102l-0.045,0.113l-0.079,0.214c-0.06665,0.17869 -0.23829,0.29632 -0.429,0.294h-0.046c-0.20544,-0.02397 -0.37063,-0.18022 -0.406,-0.384l-0.045,-0.26l-0.023,-0.113c-0.015,-0.082 -0.033,-0.165 -0.033,-0.248c-0.005,-0.053 -0.007,-0.103 -0.01,-0.153c-0.003,-0.077 -0.007,-0.154 -0.015,-0.232c-0.006,-0.052 -0.01,-0.105 -0.01,-0.158l0.023,-0.237v-0.186c0.0004,-0.10165 0.00708,-0.20317 0.02,-0.304l0.006,-0.048c0.018,-0.144 0.013,-0.292 -0.018,-0.434l-0.003,-0.011v-0.003c-0.033,-0.148 -0.05,-0.299 -0.05,-0.45v-0.14c0.00004,-0.13879 -0.01438,-0.2772 -0.043,-0.413l-0.003,-0.01l-0.056,-0.238l-0.023,-0.067l-0.025,-0.084c-0.032,-0.106 -0.065,-0.215 -0.104,-0.32c-0.011,-0.032 -0.036,-0.072 -0.04,-0.107c-0.00078,-0.01007 -0.00212,-0.02008 -0.004,-0.03l-0.03,-0.171c-0.011,-0.051 -0.02,-0.105 -0.028,-0.158c-0.008,-0.054 -0.018,-0.108 -0.028,-0.158c-0.02269,-0.06987 -0.02269,-0.14513 0,-0.215l0.004,-0.016c0.07898,-0.26503 0.10213,-0.54356 0.068,-0.818l-0.005,-0.036c0.00016,-0.11419 -0.01123,-0.2281 -0.034,-0.34c0,-0.029 -0.009,-0.056 -0.026,-0.079l-0.065,-0.088c-0.072,-0.099 -0.145,-0.2 -0.225,-0.295c-0.05799,-0.0785 -0.08951,-0.17341 -0.09,-0.271c0,-0.275 -0.061,-0.547 -0.177,-0.797l-0.286,-0.615c-0.0678,-0.15693 -0.04643,-0.33814 0.056,-0.475c0.13554,-0.1353 0.18108,-0.33653 0.117,-0.517c-0.01011,-0.03151 -0.02248,-0.06226 -0.037,-0.092l-0.216,-0.43c-0.04066,-0.06369 -0.06025,-0.13856 -0.056,-0.214c0,-0.242 -0.083,-0.475 -0.236,-0.662l-0.069,-0.084c-0.10058,-0.11859 -0.13444,-0.27998 -0.09,-0.429l0.05,-0.164c0.033,-0.103 0.015,-0.216 -0.05,-0.303c-0.045,-0.06 -0.09,-0.119 -0.136,-0.177c-0.07897,-0.09828 -0.11177,-0.22582 -0.09,-0.35l0.022,-0.147c0.00394,-0.01809 0.00828,-0.0361 0.013,-0.054c0.019,-0.08 -0.011,-0.16 -0.069,-0.22l-0.215,-0.224c-0.04464,-0.05331 -0.0792,-0.11431 -0.102,-0.18l-0.158,-0.52c-0.011,-0.068 -0.011,-0.135 -0.011,-0.203c0.005,-0.053 0.013,-0.107 0.021,-0.163c0.018,-0.128 -0.016,-0.257 -0.097,-0.357l-0.055,-0.066l-0.084,-0.103c-0.056,-0.068 -0.101,-0.159 -0.101,-0.249c-0.012,-0.18 -0.023,-0.362 -0.045,-0.542l-0.023,-0.181l-0.017,-0.147c-0.011,-0.096 -0.036,-0.192 -0.073,-0.282c-0.046,-0.113 -0.091,-0.226 -0.159,-0.373l-0.146,-0.417c-0.05244,-0.13531 -0.03479,-0.28778 0.04718,-0.40753c0.08197,-0.11975 0.21771,-0.19139 0.36282,-0.19147h0.007c0.19081,-0.0029 0.36289,0.11435 0.43,0.293l0.147,0.396c0.05888,0.11558 0.11556,0.23227 0.17,0.35c0.02878,0.06766 0.06942,0.12964 0.12,0.183c0.01625,0.01608 0.03259,0.03208 0.049,0.048c0.042,0.043 0.084,0.085 0.124,0.13l0.146,0.169c0.09956,0.13121 0.19625,0.26458 0.29,0.4l0.046,0.065c0.01007,0.01453 0.01941,0.02955 0.028,0.045c0.011,0.02 0.024,0.043 0.032,0.067l0.089,0.242l0.103,0.277l0.079,0.17l0.169,0.373c0.0144,0.03394 0.02448,0.06955 0.03,0.106c0.00308,0.01957 0.00541,0.03925 0.007,0.059l0.008,0.085c0.02285,0.23686 0.09799,0.4657 0.22,0.67l0.04,0.068c0.01554,0.02652 0.02956,0.05389 0.042,0.082c0.036,0.081 0.046,0.171 0.062,0.259c0.01524,0.08724 0.02991,0.17457 0.044,0.262c-0.00009,0.03021 0.01095,0.0594 0.031,0.082c0.09959,0.11603 0.19434,0.23614 0.284,0.36c0.03767,0.04633 0.06495,0.10021 0.08,0.158l0.034,0.136c0.03465,0.10775 0.06501,0.21684 0.091,0.327l0.01,0.046l0.192,0.531c0.01355,0.05957 0.02258,0.12007 0.027,0.181l0.02,0.3c0.007,0.1 0.021,0.2 0.043,0.3c0.01212,0.05557 0.02378,0.11124 0.035,0.167c0.01458,0.08254 0.04226,0.16221 0.082,0.236l0.036,0.065c0.057,0.105 0.113,0.207 0.164,0.31c0.04776,0.09801 0.0635,0.20855 0.045,0.316l-0.034,0.147c-0.02947,0.16087 -0.00924,0.32691 0.058,0.476l0.048,0.097c0.02027,0.03944 0.037,0.0806 0.05,0.123l0.002,0.005c0.00811,0.02932 0.01478,0.05903 0.02,0.089l0.034,0.176c0.03372,0.16775 0.08813,0.33066 0.162,0.485c0.02524,0.05502 0.05124,0.1097 0.078,0.164l0.046,0.102c0.03205,0.05877 0.0476,0.12511 0.045,0.192v0.456c0.00004,0.09469 -0.00664,0.18926 -0.02,0.283l-0.003,0.018l-0.017,0.158c-0.01116,0.10501 -0.01183,0.21086 -0.002,0.316l0.03,0.305l0.068,0.486c0.017,0.062 0.031,0.127 0.045,0.192c0.01367,0.06439 0.02901,0.12841 0.046,0.192l0.056,0.237c0.02064,0.14601 0.03532,0.2928 0.044,0.44c-0.00003,0.00287 0.00149,0.00554 0.00397,0.00698c0.00248,0.00145 0.00554,0.00145 0.00803,0.00002c0.00249,-0.00144 0.00555,-0.00143 0.00803,0.00002zM17.2,18.845c0.002,0.015 0.005,0.03 0.012,0.044c0.01943,0.03876 0.03291,0.08023 0.04,0.123c0.004,0.026 0.037,0.04 0.056,0.02l0.016,-0.015c0.00307,-0.00268 0.00715,-0.00389 0.01119,-0.00331c0.00403,0.00058 0.00762,0.00288 0.00981,0.00631c0.007,0.012 0.013,0.021 0.014,0.034l0.003,0.012c0.056,0.135 0.12,0.29 0.076,0.48l-0.002,0.009c-0.03332,0.15251 -0.05538,0.30726 -0.066,0.463l-0.01,0.116v0.146c-0.00943,0.19108 -0.13664,0.35617 -0.319,0.414c-0.04358,0.01216 -0.08878,0.01756 -0.134,0.016c-0.18515,0.00351 -0.3525,-0.10979 -0.418,-0.283l-0.067,-0.17l-0.03,-0.075c-0.036,-0.091 -0.073,-0.186 -0.117,-0.274c-0.00727,-0.01618 -0.01329,-0.0329 -0.018,-0.05l-0.01,-0.035l-0.074,-0.277l-0.056,-0.203l-0.009,-0.033c-0.01,-0.038 -0.025,-0.075 -0.025,-0.114c-0.01722,-0.13791 -0.04192,-0.27478 -0.074,-0.41c-0.01798,-0.07299 -0.02738,-0.14783 -0.028,-0.223c-0.00846,-0.10704 -0.02047,-0.21376 -0.036,-0.32c-0.00612,-0.03468 -0.00946,-0.06979 -0.01,-0.105c0.00099,-0.06239 -0.00952,-0.12442 -0.031,-0.183l-0.053,-0.131l-0.04,-0.097l-0.079,-0.192c-0.01001,-0.03349 -0.01803,-0.06755 -0.024,-0.102l-0.06,-0.322c-0.02628,-0.1386 -0.06717,-0.27402 -0.122,-0.404l-0.121,-0.29l-0.283,-0.554c-0.00518,-0.01112 -0.00985,-0.02246 -0.014,-0.034l-0.016,-0.044l-0.196,-0.543c-0.022,-0.056 -0.022,-0.113 -0.022,-0.17c0.011,-0.146 0.011,-0.293 0.011,-0.44c-0.0002,-0.06711 -0.01169,-0.13371 -0.034,-0.197l-0.068,-0.198l-0.079,-0.215c-0.056,-0.147 -0.44,-0.745 -0.553,-0.858c-0.07074,-0.08135 -0.12113,-0.17835 -0.147,-0.283c-0.028,-0.15 -0.064,-0.293 -0.101,-0.44l-0.023,-0.09l-0.057,-0.215c-0.01169,-0.04157 -0.02303,-0.08324 -0.034,-0.125c-0.02177,-0.0813 -0.06453,-0.15544 -0.124,-0.215l-0.293,-0.293c-0.08842,-0.09054 -0.13733,-0.21245 -0.136,-0.339l0.011,-0.274c0.01081,-0.17563 -0.02837,-0.35073 -0.113,-0.505l-0.017,-0.03c-0.04874,-0.08517 -0.10354,-0.16671 -0.164,-0.244c-0.09023,-0.11582 -0.18023,-0.23182 -0.27,-0.348c-0.04002,-0.04937 -0.06747,-0.1077 -0.08,-0.17l-0.034,-0.123l-0.017,-0.086c-0.03662,-0.16581 -0.13044,-0.31343 -0.265,-0.417c-0.068,-0.054 -0.136,-0.107 -0.203,-0.164c-0.08119,-0.06678 -0.1387,-0.15796 -0.164,-0.26c-0.01297,-0.0523 -0.01869,-0.10614 -0.017,-0.16v-0.148c0.00278,-0.16354 -0.06763,-0.31977 -0.192,-0.426l-0.147,-0.124c-0.0833,-0.07213 -0.13589,-0.17337 -0.147,-0.283l-0.031,-0.203c-0.02368,-0.15111 -0.10825,-0.28592 -0.234,-0.373c-0.065,-0.045 -0.13,-0.09 -0.198,-0.135c-0.06214,-0.03381 -0.11319,-0.08486 -0.147,-0.147l-0.305,-0.531c-0.02145,-0.03463 -0.03731,-0.07243 -0.047,-0.112c-0.00635,-0.02302 -0.01136,-0.0464 -0.015,-0.07l-0.049,-0.3c-0.01494,-0.09738 -0.06599,-0.18556 -0.143,-0.247c-0.04,-0.03 -0.08,-0.062 -0.119,-0.096l-0.135,-0.113c-0.06155,-0.05527 -0.1083,-0.12505 -0.136,-0.203c-0.06816,-0.19714 -0.1395,-0.39317 -0.214,-0.588c-0.02684,-0.05696 -0.06114,-0.11009 -0.102,-0.158c-0.09073,-0.10998 -0.16671,-0.23134 -0.226,-0.361l-0.226,-0.509c-0.05385,-0.09567 -0.11055,-0.18971 -0.17,-0.282l-0.079,-0.124c-0.12881,-0.21273 -0.06341,-0.48944 0.147,-0.622c0.20988,-0.1291 0.48429,-0.069 0.621,0.136l0.068,0.113c0.029,0.05 0.06,0.099 0.09,0.147c0.063,0.096 0.13,0.19 0.206,0.276l0.124,0.14c0.074,0.084 0.155,0.161 0.243,0.232l0.332,0.267l0.462,0.429c0.05,0.049 0.087,0.108 0.125,0.167l0.045,0.07l0.092,0.14c0.05,0.075 0.099,0.147 0.134,0.21l0.348,0.475c0.017,0.023 0.036,0.055 0.051,0.079l0.02,0.033l0.27,0.51c0.055,0.1 0.142,0.246 0.217,0.351c0.054,0.078 0.118,0.149 0.16,0.234c0.00229,0.00435 0.00463,0.00869 0.007,0.013l0.174,0.434c0.02,0.05 0.049,0.094 0.086,0.13c0.124,0.103 0.249,0.204 0.362,0.306c0.02103,0.01765 0.03984,0.0378 0.056,0.06c0.03134,0.04209 0.05878,0.08694 0.082,0.134l0.246,0.472l0.302,0.501c0.017,0.028 0.039,0.052 0.055,0.08c0.018,0.031 0.02,0.07 0.031,0.105l0.047,0.153c0.03,0.09 0.059,0.183 0.084,0.28c0.023,0.075 0.051,0.148 0.083,0.22l0.064,0.141l0.046,0.103c0.044,0.097 0.101,0.187 0.169,0.27c0.101,0.113 0.192,0.226 0.282,0.35c0.057,0.08 0.09,0.17 0.09,0.26l0.009,0.19c0.01,0.222 0.084,0.437 0.216,0.617l0.073,0.101c0.02,0.027 0.036,0.057 0.053,0.086c0.00901,0.01412 0.01639,0.02922 0.022,0.045c0.029,0.062 0.054,0.127 0.08,0.192c0.025,0.065 0.05,0.13 0.079,0.192c0.037,0.105 0.09,0.204 0.155,0.294l0.121,0.17l0.096,0.135l0.046,0.057c0.03361,0.04714 0.05648,0.10107 0.067,0.158c0.04,0.18 0.08,0.36 0.136,0.572c0.01496,0.05544 0.02269,0.11258 0.023,0.17c0,0.032 0.002,0.065 0.007,0.097c0.012,0.079 0.023,0.16 0.033,0.24c0.01191,0.10876 0.03231,0.21642 0.061,0.322c0.025,0.098 0.055,0.196 0.083,0.286l0.03,0.098c0.065,0.184 0.037,0.368 0.014,0.512v0.007c-0.00709,0.04368 0.00534,0.08828 0.034,0.122l0.325,0.387c0.03901,0.05142 0.0694,0.10883 0.09,0.17l0.17,0.575l0.21,0.596l0.007,0.029l0.01,0.065c0.009,0.074 -0.001,0.15 -0.001,0.225l-0.023,0.279c-0.00744,0.09231 0.00033,0.18521 0.023,0.275c0.027,0.11 0.055,0.22 0.076,0.33c0.01915,0.11131 0.01779,0.22518 -0.004,0.336l-0.016,0.08l-0.016,0.127c-0.01379,0.10172 -0.00871,0.20512 0.015,0.305c0.006,0.024 0.01,0.046 0.011,0.066c0.00098,0.01362 0.00367,0.02705 0.008,0.04c0.006,0.017 0.012,0.032 0.014,0.048z" fill="#62757e" fill-rule="nonzero"></path></g>
  </g>
 </g>
</svg>
