<?xml version="1.0" encoding="UTF-8"?>
<!--Generator: Apple Native CoreSVG 175.5-->
<!DOCTYPE svg
PUBLIC "-//W3C//DTD SVG 1.1//EN"
       "http://www.w3.org/Graphics/SVG/1.1/DTD/svg11.dtd">
<svg version="1.1" xmlns="http://www.w3.org/2000/svg" xmlns:xlink="http://www.w3.org/1999/xlink" width="3300" height="2200">
 <!--glyph: "", point size: 100.0, font version: "18.0d12e2", template writer version: "101"-->
 <g id="Notes">
  <rect height="2200" id="artboard" style="fill:white;opacity:1" width="3300" x="0" y="0"/>
  <line style="fill:none;stroke:black;opacity:1;stroke-width:0.5;" x1="263" x2="3036" y1="292" y2="292"/>
  <text style="stroke:none;fill:black;font-family:sans-serif;font-size:13;font-weight:bold;" transform="matrix(1 0 0 1 263 322)">Weight/Scale Variations</text>
  <text style="stroke:none;fill:black;font-family:sans-serif;font-size:13;text-anchor:middle;" transform="matrix(1 0 0 1 559.711 322)">Ultralight</text>
  <text style="stroke:none;fill:black;font-family:sans-serif;font-size:13;text-anchor:middle;" transform="matrix(1 0 0 1 856.422 322)">Thin</text>
  <text style="stroke:none;fill:black;font-family:sans-serif;font-size:13;text-anchor:middle;" transform="matrix(1 0 0 1 1153.13 322)">Light</text>
  <text style="stroke:none;fill:black;font-family:sans-serif;font-size:13;text-anchor:middle;" transform="matrix(1 0 0 1 1449.84 322)">Regular</text>
  <text style="stroke:none;fill:black;font-family:sans-serif;font-size:13;text-anchor:middle;" transform="matrix(1 0 0 1 1746.56 322)">Medium</text>
  <text style="stroke:none;fill:black;font-family:sans-serif;font-size:13;text-anchor:middle;" transform="matrix(1 0 0 1 2043.27 322)">Semibold</text>
  <text style="stroke:none;fill:black;font-family:sans-serif;font-size:13;text-anchor:middle;" transform="matrix(1 0 0 1 2339.98 322)">Bold</text>
  <text style="stroke:none;fill:black;font-family:sans-serif;font-size:13;text-anchor:middle;" transform="matrix(1 0 0 1 2636.69 322)">Heavy</text>
  <text style="stroke:none;fill:black;font-family:sans-serif;font-size:13;text-anchor:middle;" transform="matrix(1 0 0 1 2933.4 322)">Black</text>
  <line style="fill:none;stroke:black;opacity:1;stroke-width:0.5;" x1="263" x2="3036" y1="1903" y2="1903"/>
  <g transform="matrix(1 0 0 1 263 1933)">
   <path d="M9.24805 0.830078C13.5547 0.830078 17.1387-2.74414 17.1387-7.05078C17.1387-11.3574 13.5449-14.9316 9.23828-14.9316C4.94141-14.9316 1.36719-11.3574 1.36719-7.05078C1.36719-2.74414 4.95117 0.830078 9.24805 0.830078ZM9.24805-0.654297C5.70312-0.654297 2.87109-3.49609 2.87109-7.05078C2.87109-10.6055 5.69336-13.4473 9.23828-13.4473C12.793-13.4473 15.6445-10.6055 15.6445-7.05078C15.6445-3.49609 12.8027-0.654297 9.24805-0.654297ZM5.6543-7.05078C5.6543-6.62109 5.95703-6.32812 6.40625-6.32812L8.50586-6.32812L8.50586-4.20898C8.50586-3.76953 8.79883-3.4668 9.22852-3.4668C9.67773-3.4668 9.9707-3.76953 9.9707-4.20898L9.9707-6.32812L12.0898-6.32812C12.5293-6.32812 12.832-6.62109 12.832-7.05078C12.832-7.49023 12.5293-7.79297 12.0898-7.79297L9.9707-7.79297L9.9707-9.90234C9.9707-10.3516 9.67773-10.6543 9.22852-10.6543C8.79883-10.6543 8.50586-10.3516 8.50586-9.90234L8.50586-7.79297L6.40625-7.79297C5.95703-7.79297 5.6543-7.49023 5.6543-7.05078Z"/>
  </g>
  <g transform="matrix(1 0 0 1 281.867 1933)">
   <path d="M11.709 2.91016C17.1582 2.91016 21.6699-1.61133 21.6699-7.05078C21.6699-12.5 17.1484-17.0117 11.6992-17.0117C6.25977-17.0117 1.74805-12.5 1.74805-7.05078C1.74805-1.61133 6.26953 2.91016 11.709 2.91016ZM11.709 1.25C7.09961 1.25 3.41797-2.44141 3.41797-7.05078C3.41797-11.6602 7.08984-15.3516 11.6992-15.3516C16.3086-15.3516 20.0098-11.6602 20.0098-7.05078C20.0098-2.44141 16.3184 1.25 11.709 1.25ZM7.17773-7.05078C7.17773-6.57227 7.50977-6.25 8.00781-6.25L10.8789-6.25L10.8789-3.36914C10.8789-2.88086 11.2109-2.53906 11.6895-2.53906C12.1777-2.53906 12.5195-2.87109 12.5195-3.36914L12.5195-6.25L15.4004-6.25C15.8887-6.25 16.2305-6.57227 16.2305-7.05078C16.2305-7.53906 15.8887-7.88086 15.4004-7.88086L12.5195-7.88086L12.5195-10.752C12.5195-11.25 12.1777-11.5918 11.6895-11.5918C11.2109-11.5918 10.8789-11.25 10.8789-10.752L10.8789-7.88086L8.00781-7.88086C7.50977-7.88086 7.17773-7.53906 7.17773-7.05078Z"/>
  </g>
  <g transform="matrix(1 0 0 1 305.646 1933)">
   <path d="M14.9707 5.66406C21.9336 5.66406 27.6953-0.0976562 27.6953-7.05078C27.6953-14.0137 21.9238-19.7754 14.9609-19.7754C8.00781-19.7754 2.25586-14.0137 2.25586-7.05078C2.25586-0.0976562 8.01758 5.66406 14.9707 5.66406ZM14.9707 3.84766C8.93555 3.84766 4.08203-1.01562 4.08203-7.05078C4.08203-13.0957 8.92578-17.9492 14.9609-17.9492C21.0059-17.9492 25.8691-13.0957 25.8691-7.05078C25.8691-1.01562 21.0156 3.84766 14.9707 3.84766ZM9.19922-7.05078C9.19922-6.5332 9.57031-6.17188 10.1172-6.17188L14.0625-6.17188L14.0625-2.2168C14.0625-1.67969 14.4336-1.29883 14.9512-1.29883C15.4883-1.29883 15.8594-1.66992 15.8594-2.2168L15.8594-6.17188L19.8145-6.17188C20.3516-6.17188 20.7324-6.5332 20.7324-7.05078C20.7324-7.59766 20.3613-7.96875 19.8145-7.96875L15.8594-7.96875L15.8594-11.9141C15.8594-12.4609 15.4883-12.8418 14.9512-12.8418C14.4336-12.8418 14.0625-12.4609 14.0625-11.9141L14.0625-7.96875L10.1172-7.96875C9.57031-7.96875 9.19922-7.59766 9.19922-7.05078Z"/>
  </g>
  <text style="stroke:none;fill:black;font-family:sans-serif;font-size:13;font-weight:bold;" transform="matrix(1 0 0 1 263 1953)">Design Variations</text>
  <text style="stroke:none;fill:black;font-family:sans-serif;font-size:13;" transform="matrix(1 0 0 1 263 1971)">Symbols are supported in up to nine weights and three scales.</text>
  <text style="stroke:none;fill:black;font-family:sans-serif;font-size:13;" transform="matrix(1 0 0 1 263 1989)">For optimal layout with text and other symbols, vertically align</text>
  <text style="stroke:none;fill:black;font-family:sans-serif;font-size:13;" transform="matrix(1 0 0 1 263 2007)">symbols with the adjacent text.</text>
  <line style="fill:none;stroke:#00AEEF;stroke-width:0.5;opacity:1.0;" x1="776" x2="776" y1="1919" y2="1933"/>
  <g transform="matrix(1 0 0 1 776 1933)">
   <path d="M3.31055 0.15625C3.82812 0.15625 4.08203-0.0390625 4.26758-0.585938L5.52734-4.0332L11.2891-4.0332L12.5488-0.585938C12.7344-0.0390625 12.9883 0.15625 13.4961 0.15625C14.0137 0.15625 14.3457-0.15625 14.3457-0.644531C14.3457-0.810547 14.3164-0.966797 14.2383-1.17188L9.6582-13.3691C9.43359-13.9648 9.0332-14.2676 8.4082-14.2676C7.80273-14.2676 7.39258-13.9746 7.17773-13.3789L2.59766-1.16211C2.51953-0.957031 2.49023-0.800781 2.49023-0.634766C2.49023-0.146484 2.80273 0.15625 3.31055 0.15625ZM6.00586-5.51758L8.37891-12.0898L8.42773-12.0898L10.8008-5.51758Z"/>
  </g>
  <line style="fill:none;stroke:#00AEEF;stroke-width:0.5;opacity:1.0;" x1="793.197" x2="793.197" y1="1919" y2="1933"/>
  <text style="stroke:none;fill:black;font-family:sans-serif;font-size:13;font-weight:bold;" transform="matrix(1 0 0 1 776 1953)">Margins</text>
  <text style="stroke:none;fill:black;font-family:sans-serif;font-size:13;" transform="matrix(1 0 0 1 776 1971)">Leading and trailing margins on the left and right side of each symbol</text>
  <text style="stroke:none;fill:black;font-family:sans-serif;font-size:13;" transform="matrix(1 0 0 1 776 1989)">can be adjusted by modifying the x-location of the margin guidelines.</text>
  <text style="stroke:none;fill:black;font-family:sans-serif;font-size:13;" transform="matrix(1 0 0 1 776 2007)">Modifications are automatically applied proportionally to all</text>
  <text style="stroke:none;fill:black;font-family:sans-serif;font-size:13;" transform="matrix(1 0 0 1 776 2025)">scales and weights.</text>
  <g transform="matrix(1 0 0 1 1289 1933)">
   <path d="M2.8418 1.86523L4.54102 3.57422C5.40039 4.44336 6.38672 4.38477 7.31445 3.35938L18.0078-8.42773L17.041-9.4043L6.42578 2.27539C6.07422 2.67578 5.74219 2.77344 5.27344 2.30469L4.10156 1.14258C3.63281 0.683594 3.74023 0.341797 4.14062-0.0195312L15.6152-10.8203L14.6387-11.7871L3.04688-0.898438C2.06055 0.0195312 1.98242 0.996094 2.8418 1.86523ZM9.25781-16.3281C8.83789-15.918 8.80859-15.3418 9.04297-14.9512C9.27734-14.5898 9.73633-14.3555 10.3809-14.5215C11.8457-14.8633 13.3691-14.9219 14.7949-13.9844L14.209-12.5293C13.8672-11.6992 14.043-11.1133 14.5801-10.5664L16.875-8.25195C17.3633-7.76367 17.7734-7.74414 18.3398-7.8418L19.4043-8.03711L20.0684-7.36328L20.0293-6.80664C19.9902-6.30859 20.1172-5.92773 20.6055-5.44922L21.3672-4.70703C21.8457-4.22852 22.4609-4.19922 22.9297-4.66797L25.8398-7.58789C26.3086-8.05664 26.2891-8.65234 25.8105-9.13086L25.0391-9.89258C24.5605-10.3711 24.1895-10.5273 23.7109-10.4883L23.1348-10.4395L22.4902-11.0742L22.7344-12.1973C22.8613-12.7637 22.7051-13.2031 22.1191-13.7891L19.9219-15.9766C16.582-19.2969 12.1484-19.2188 9.25781-16.3281ZM10.752-15.957C13.1836-17.7344 16.4746-17.4316 18.7012-15.2051L21.1328-12.793C21.3672-12.5586 21.4062-12.373 21.3379-12.0312L21.0156-10.5469L22.5195-9.0625L23.5059-9.12109C23.7598-9.13086 23.8379-9.11133 24.0332-8.91602L24.6094-8.33984L22.168-5.89844L21.5918-6.47461C21.3965-6.66992 21.3672-6.74805 21.377-7.01172L21.4453-7.98828L19.9512-9.47266L18.4277-9.21875C18.1055-9.15039 17.959-9.17969 17.7148-9.41406L15.7129-11.416C15.459-11.6504 15.4297-11.8164 15.5859-12.1875L16.4648-14.2773C14.9023-15.7324 12.8711-16.3574 10.8398-15.7617C10.6836-15.7227 10.625-15.8496 10.752-15.957Z"/>
  </g>
  <text style="stroke:none;fill:black;font-family:sans-serif;font-size:13;font-weight:bold;" transform="matrix(1 0 0 1 1289 1953)">Exporting</text>
  <text style="stroke:none;fill:black;font-family:sans-serif;font-size:13;" transform="matrix(1 0 0 1 1289 1971)">Symbols should be outlined when exporting to ensure the</text>
  <text style="stroke:none;fill:black;font-family:sans-serif;font-size:13;" transform="matrix(1 0 0 1 1289 1989)">design is preserved when submitting to Xcode.</text>
  <text id="template-version" style="stroke:none;fill:black;font-family:sans-serif;font-size:13;text-anchor:end;" transform="matrix(1 0 0 1 3036 1933)">Template v.4.0</text>
  <text style="stroke:none;fill:black;font-family:sans-serif;font-size:13;text-anchor:end;" transform="matrix(1 0 0 1 3036 1951)">Requires Xcode 14 or greater</text>
  <text id="descriptive-name" style="stroke:none;fill:black;font-family:sans-serif;font-size:13;text-anchor:end;" transform="matrix(1 0 0 1 3036 1969)">Generated from brave.zzz</text>
  <text style="stroke:none;fill:black;font-family:sans-serif;font-size:13;text-anchor:end;" transform="matrix(1 0 0 1 3036 1987)">Typeset at 100 points</text>
  <text style="stroke:none;fill:black;font-family:sans-serif;font-size:13;" transform="matrix(1 0 0 1 263 726)">Small</text>
  <text style="stroke:none;fill:black;font-family:sans-serif;font-size:13;" transform="matrix(1 0 0 1 263 1156)">Medium</text>
  <text style="stroke:none;fill:black;font-family:sans-serif;font-size:13;" transform="matrix(1 0 0 1 263 1586)">Large</text>
 </g>
 <g id="Guides">
  <g id="H-reference" style="fill:#27AAE1;stroke:none;" transform="matrix(1 0 0 1 339 696)">
   <path d="M0.993654 0L3.63775 0L29.3281-67.1323L30.0303-67.1323L30.0303-70.459L28.1226-70.459ZM11.6885-24.4799L46.9815-24.4799L46.2315-26.7285L12.4385-26.7285ZM55.1196 0L57.7637 0L30.6382-70.459L29.4326-70.459L29.4326-67.1323Z"/>
  </g>
  <line id="Baseline-S" style="fill:none;stroke:#27AAE1;opacity:1;stroke-width:0.5;" x1="263" x2="3036" y1="696" y2="696"/>
  <line id="Capline-S" style="fill:none;stroke:#27AAE1;opacity:1;stroke-width:0.5;" x1="263" x2="3036" y1="625.541" y2="625.541"/>
  <g id="H-reference" style="fill:#27AAE1;stroke:none;" transform="matrix(1 0 0 1 339 1126)">
   <path d="M0.993654 0L3.63775 0L29.3281-67.1323L30.0303-67.1323L30.0303-70.459L28.1226-70.459ZM11.6885-24.4799L46.9815-24.4799L46.2315-26.7285L12.4385-26.7285ZM55.1196 0L57.7637 0L30.6382-70.459L29.4326-70.459L29.4326-67.1323Z"/>
  </g>
  <line id="Baseline-M" style="fill:none;stroke:#27AAE1;opacity:1;stroke-width:0.5;" x1="263" x2="3036" y1="1126" y2="1126"/>
  <line id="Capline-M" style="fill:none;stroke:#27AAE1;opacity:1;stroke-width:0.5;" x1="263" x2="3036" y1="1055.54" y2="1055.54"/>
  <g id="H-reference" style="fill:#27AAE1;stroke:none;" transform="matrix(1 0 0 1 339 1556)">
   <path d="M0.993654 0L3.63775 0L29.3281-67.1323L30.0303-67.1323L30.0303-70.459L28.1226-70.459ZM11.6885-24.4799L46.9815-24.4799L46.2315-26.7285L12.4385-26.7285ZM55.1196 0L57.7637 0L30.6382-70.459L29.4326-70.459L29.4326-67.1323Z"/>
  </g>
  <line id="Baseline-L" style="fill:none;stroke:#27AAE1;opacity:1;stroke-width:0.5;" x1="263" x2="3036" y1="1556" y2="1556"/>
  <line id="Capline-L" style="fill:none;stroke:#27AAE1;opacity:1;stroke-width:0.5;" x1="263" x2="3036" y1="1485.54" y2="1485.54"/>
  <line id="left-margin-Regular-M" style="fill:none;stroke:#00AEEF;stroke-width:0.5;opacity:1.0;" x1="1389.82" x2="1389.82" y1="1030.79" y2="1150.12"/>
  <line id="right-margin-Regular-M" style="fill:none;stroke:#00AEEF;stroke-width:0.5;opacity:1.0;" x1="1509.87" x2="1509.87" y1="1030.79" y2="1150.12"/>
 </g>
 <g id="Symbols">
  <g id="Regular-L" transform="matrix(6.45 0 0 6.45 1372.2675 1443)">
    <defs><clipPath id="clip-1"><rect x="0" y="0" width="24" height="24" fill="none" fill-rule="nonzero"></rect></clipPath></defs>
<g clip-path="url(#clip-1)" fill="none" fill-rule="none" stroke="none" stroke-width="1" stroke-linecap="butt" stroke-linejoin="miter" stroke-miterlimit="10" stroke-dasharray="" stroke-dashoffset="0" font-family="none" font-weight="none" font-size="none" text-anchor="none" style="mix-blend-mode: normal"><path d="M18.024,8.217c0.09117,0.13396 0.17431,0.2732 0.249,0.417c0.04,0.084 0.074,0.395 0.07,0.493l-0.026,0.085c-0.042,0.151 -0.047,0.16 -0.047,0.16c-0.11,0.136 -0.296,0.353 -0.414,0.48l-1.84,1.973c-0.12217,0.14679 -0.15755,0.34726 -0.093,0.527l0.3,0.718c0.06895,0.1912 0.07421,0.39957 0.015,0.594l-0.061,0.168c-0.098,0.27 -0.267,0.51 -0.489,0.693l-0.289,0.238c-0.15333,0.11251 -0.35429,0.13678 -0.53,0.064l-1.026,-0.495c-0.18704,-0.09489 -0.36168,-0.21244 -0.52,-0.35l-0.82,-0.75c-0.06642,-0.06068 -0.10565,-0.14552 -0.10885,-0.23543c-0.0032,-0.08991 0.0299,-0.17733 0.09185,-0.24257l1.853,-1.261c0.14519,-0.105 0.19301,-0.29968 0.113,-0.46l-0.718,-1.367c-0.081,-0.154 -0.098,-0.398 -0.035,-0.542c0.08841,-0.16829 0.23267,-0.30053 0.408,-0.374l2.254,-0.86c0.162,-0.062 0.154,-0.126 -0.019,-0.143l-1.322,-0.127c-0.20788,-0.01414 -0.4167,0.00407 -0.619,0.054l-1.153,0.326c-0.17078,0.05268 -0.27603,0.22382 -0.246,0.4l0.452,2.497c0.03,0.172 0.041,0.362 0.023,0.422c-0.02,0.06 -0.174,0.138 -0.343,0.175l-0.703,0.15c-0.07908,0.01557 -0.15941,0.02394 -0.24,0.025c-0.08159,-0.00101 -0.16292,-0.00938 -0.243,-0.025l-0.701,-0.15c-0.17,-0.037 -0.324,-0.116 -0.342,-0.175c-0.02,-0.06 -0.01,-0.25 0.021,-0.422l0.454,-2.497c0.028,-0.17639 -0.07756,-0.34664 -0.248,-0.4l-1.152,-0.325c-0.20229,-0.04998 -0.41111,-0.06819 -0.619,-0.054l-1.323,0.126c-0.173,0.017 -0.181,0.08 -0.019,0.143l2.254,0.86c0.162,0.062 0.347,0.23 0.409,0.374c0.05943,0.17832 0.04687,0.3728 -0.035,0.542l-0.72,1.367c-0.08045,0.16027 -0.03256,0.35525 0.113,0.46l1.855,1.261c0.06195,0.06524 0.09505,0.15266 0.09185,0.24257c-0.0032,0.08991 -0.04242,0.17475 -0.10885,0.23543l-0.822,0.75c-0.15816,0.13729 -0.33244,0.25482 -0.519,0.35l-1.026,0.495c-0.17571,0.07278 -0.37667,0.04851 -0.53,-0.064l-0.288,-0.238c-0.22213,-0.18366 -0.39127,-0.42322 -0.49,-0.694l-0.061,-0.167c-0.05946,-0.19434 -0.05455,-0.40268 0.014,-0.594l0.3,-0.718c0.06483,-0.17956 0.02983,-0.38002 -0.092,-0.527l-1.838,-1.973c-0.14357,-0.15511 -0.28166,-0.31521 -0.414,-0.48c0,0 -0.008,-0.009 -0.05,-0.16l-0.026,-0.085c-0.002,-0.098 0.032,-0.409 0.072,-0.493c0.04,-0.084 0.15,-0.272 0.247,-0.417l0.521,-0.78c0.11905,-0.1747 0.24379,-0.34545 0.374,-0.512l0.702,-0.89c0.108,-0.138 0.201,-0.248 0.209,-0.247h0.014c0,-0.001 0.14,0.024 0.311,0.057l1.076,0.209l0.47,0.09c0.088,0.017 0.295,-0.013 0.46,-0.067l0.85,-0.278c0.165,-0.054 0.438,-0.131 0.607,-0.17c0,0 0.069,-0.017 0.241,-0.016c0.173,0 0.24,0.016 0.24,0.016c0.17,0.039 0.444,0.116 0.609,0.17l0.849,0.278c0.164,0.054 0.372,0.084 0.46,0.067c0.089,-0.016 0.3,-0.057 0.47,-0.09l1.076,-0.209c0.10829,-0.02107 0.21698,-0.04007 0.326,-0.057c0.006,-0.001 0.1,0.109 0.209,0.247l0.702,0.89c0.108,0.137 0.275,0.368 0.373,0.513z" fill="#62757e" fill-rule="nonzero"></path><path d="M13.667,14.94l0.93,0.49c0.154,0.08 0.163,0.23 0.022,0.33l-0.806,0.577c-0.17089,0.12425 -0.33669,0.25536 -0.497,0.393l-0.227,0.198l-0.476,0.418l-0.214,0.194c-0.05872,0.05006 -0.13201,0.07986 -0.209,0.085c-0.07669,-0.00514 -0.14966,-0.03496 -0.208,-0.085l-0.215,-0.194l-0.476,-0.418l-0.226,-0.198c-0.16032,-0.13762 -0.32612,-0.26873 -0.497,-0.393l-0.807,-0.576c-0.141,-0.1 -0.132,-0.25 0.023,-0.33l0.93,-0.49c0.153,-0.081 0.41,-0.202 0.57,-0.27l0.506,-0.213c0.16,-0.066 0.31,-0.122 0.333,-0.122h0.135c0.023,0 0.172,0.056 0.333,0.122l0.505,0.213c0.16,0.068 0.417,0.189 0.571,0.27z" fill="#62757e" fill-rule="nonzero"></path><path d="M20.525,8.475c0.0357,0.09889 0.04058,0.20628 0.014,0.308l-2.065,7.935c-0.22395,0.86631 -0.74401,1.62694 -1.47,2.15l-0.3,0.212c-1.22947,0.86621 -2.4716,1.7143 -3.726,2.544l-0.074,0.049c-0.278,0.185 -0.548,0.288 -0.842,0.286c-0.3,0.002 -0.567,-0.1 -0.845,-0.284l-0.077,-0.05c-1.35835,-0.89607 -2.70088,-1.81588 -4.027,-2.759c-0.72492,-0.52283 -1.24422,-1.28268 -1.468,-2.148l-2.066,-7.934c-0.02626,-0.10182 -0.02103,-0.20921 0.015,-0.308l0.502,-1.386l-0.335,-0.756c-0.12623,-0.28781 -0.06488,-0.62345 0.155,-0.848l1.109,-1.134c0.61088,-0.63279 1.53201,-0.85635 2.365,-0.574l1.433,-1.583c0.0977,-0.10736 0.23584,-0.169 0.381,-0.17l2.851,-0.025l2.86,0.023c0.14497,0.00154 0.28271,0.06352 0.38,0.171l1.434,1.583c0.83233,-0.28217 1.75274,-0.05947 2.364,0.572l1.108,1.134c0.2216,0.22529 0.28306,0.5631 0.155,0.852l-0.334,0.754zM19.492,8.677l-0.52,-1.43c-0.04587,-0.12659 -0.04085,-0.26604 0.014,-0.389l0.345,-0.777l-0.983,-1.006c-0.34,-0.35 -0.846,-0.47 -1.3,-0.308l-0.296,0.106c-0.1981,0.07118 -0.41957,0.01591 -0.561,-0.14l-1.513,-1.673l-2.615,-0.02l-2.622,0.02l-1.512,1.672c-0.14125,0.1555 -0.36219,0.21074 -0.56,0.14l-0.298,-0.106c-0.45661,-0.16084 -0.9651,-0.03958 -1.3,0.31l-0.985,1.004l0.345,0.777c0.05459,0.12268 0.0596,0.26171 0.014,0.388l-0.52,1.431l2.026,7.78c0.16271,0.6294 0.5401,1.18222 1.067,1.563c0.3603,0.25707 0.72231,0.51174 1.086,0.764c0.96029,0.66927 1.92903,1.32632 2.906,1.971l0.077,0.05c0.124,0.082 0.208,0.115 0.274,0.114c0.06,0 0.146,-0.032 0.27,-0.114l0.075,-0.05l0.44,-0.29c1.19591,-0.79591 2.37938,-1.61034 3.55,-2.443c0.5284,-0.38078 0.90694,-0.93443 1.07,-1.565l2.025,-7.78z" fill="#62757e" fill-rule="nonzero"></path></g>
  </g>
  <g id="Regular-M" transform="matrix(5 0 0 5 1389.82 1030)">
    <defs><clipPath id="clip-1"><rect x="0" y="0" width="24" height="24" fill="none" fill-rule="nonzero"></rect></clipPath></defs>
<g clip-path="url(#clip-1)" fill="none" fill-rule="none" stroke="none" stroke-width="1" stroke-linecap="butt" stroke-linejoin="miter" stroke-miterlimit="10" stroke-dasharray="" stroke-dashoffset="0" font-family="none" font-weight="none" font-size="none" text-anchor="none" style="mix-blend-mode: normal"><path d="M18.024,8.217c0.09117,0.13396 0.17431,0.2732 0.249,0.417c0.04,0.084 0.074,0.395 0.07,0.493l-0.026,0.085c-0.042,0.151 -0.047,0.16 -0.047,0.16c-0.11,0.136 -0.296,0.353 -0.414,0.48l-1.84,1.973c-0.12217,0.14679 -0.15755,0.34726 -0.093,0.527l0.3,0.718c0.06895,0.1912 0.07421,0.39957 0.015,0.594l-0.061,0.168c-0.098,0.27 -0.267,0.51 -0.489,0.693l-0.289,0.238c-0.15333,0.11251 -0.35429,0.13678 -0.53,0.064l-1.026,-0.495c-0.18704,-0.09489 -0.36168,-0.21244 -0.52,-0.35l-0.82,-0.75c-0.06642,-0.06068 -0.10565,-0.14552 -0.10885,-0.23543c-0.0032,-0.08991 0.0299,-0.17733 0.09185,-0.24257l1.853,-1.261c0.14519,-0.105 0.19301,-0.29968 0.113,-0.46l-0.718,-1.367c-0.081,-0.154 -0.098,-0.398 -0.035,-0.542c0.08841,-0.16829 0.23267,-0.30053 0.408,-0.374l2.254,-0.86c0.162,-0.062 0.154,-0.126 -0.019,-0.143l-1.322,-0.127c-0.20788,-0.01414 -0.4167,0.00407 -0.619,0.054l-1.153,0.326c-0.17078,0.05268 -0.27603,0.22382 -0.246,0.4l0.452,2.497c0.03,0.172 0.041,0.362 0.023,0.422c-0.02,0.06 -0.174,0.138 -0.343,0.175l-0.703,0.15c-0.07908,0.01557 -0.15941,0.02394 -0.24,0.025c-0.08159,-0.00101 -0.16292,-0.00938 -0.243,-0.025l-0.701,-0.15c-0.17,-0.037 -0.324,-0.116 -0.342,-0.175c-0.02,-0.06 -0.01,-0.25 0.021,-0.422l0.454,-2.497c0.028,-0.17639 -0.07756,-0.34664 -0.248,-0.4l-1.152,-0.325c-0.20229,-0.04998 -0.41111,-0.06819 -0.619,-0.054l-1.323,0.126c-0.173,0.017 -0.181,0.08 -0.019,0.143l2.254,0.86c0.162,0.062 0.347,0.23 0.409,0.374c0.05943,0.17832 0.04687,0.3728 -0.035,0.542l-0.72,1.367c-0.08045,0.16027 -0.03256,0.35525 0.113,0.46l1.855,1.261c0.06195,0.06524 0.09505,0.15266 0.09185,0.24257c-0.0032,0.08991 -0.04242,0.17475 -0.10885,0.23543l-0.822,0.75c-0.15816,0.13729 -0.33244,0.25482 -0.519,0.35l-1.026,0.495c-0.17571,0.07278 -0.37667,0.04851 -0.53,-0.064l-0.288,-0.238c-0.22213,-0.18366 -0.39127,-0.42322 -0.49,-0.694l-0.061,-0.167c-0.05946,-0.19434 -0.05455,-0.40268 0.014,-0.594l0.3,-0.718c0.06483,-0.17956 0.02983,-0.38002 -0.092,-0.527l-1.838,-1.973c-0.14357,-0.15511 -0.28166,-0.31521 -0.414,-0.48c0,0 -0.008,-0.009 -0.05,-0.16l-0.026,-0.085c-0.002,-0.098 0.032,-0.409 0.072,-0.493c0.04,-0.084 0.15,-0.272 0.247,-0.417l0.521,-0.78c0.11905,-0.1747 0.24379,-0.34545 0.374,-0.512l0.702,-0.89c0.108,-0.138 0.201,-0.248 0.209,-0.247h0.014c0,-0.001 0.14,0.024 0.311,0.057l1.076,0.209l0.47,0.09c0.088,0.017 0.295,-0.013 0.46,-0.067l0.85,-0.278c0.165,-0.054 0.438,-0.131 0.607,-0.17c0,0 0.069,-0.017 0.241,-0.016c0.173,0 0.24,0.016 0.24,0.016c0.17,0.039 0.444,0.116 0.609,0.17l0.849,0.278c0.164,0.054 0.372,0.084 0.46,0.067c0.089,-0.016 0.3,-0.057 0.47,-0.09l1.076,-0.209c0.10829,-0.02107 0.21698,-0.04007 0.326,-0.057c0.006,-0.001 0.1,0.109 0.209,0.247l0.702,0.89c0.108,0.137 0.275,0.368 0.373,0.513z" fill="#62757e" fill-rule="nonzero"></path><path d="M13.667,14.94l0.93,0.49c0.154,0.08 0.163,0.23 0.022,0.33l-0.806,0.577c-0.17089,0.12425 -0.33669,0.25536 -0.497,0.393l-0.227,0.198l-0.476,0.418l-0.214,0.194c-0.05872,0.05006 -0.13201,0.07986 -0.209,0.085c-0.07669,-0.00514 -0.14966,-0.03496 -0.208,-0.085l-0.215,-0.194l-0.476,-0.418l-0.226,-0.198c-0.16032,-0.13762 -0.32612,-0.26873 -0.497,-0.393l-0.807,-0.576c-0.141,-0.1 -0.132,-0.25 0.023,-0.33l0.93,-0.49c0.153,-0.081 0.41,-0.202 0.57,-0.27l0.506,-0.213c0.16,-0.066 0.31,-0.122 0.333,-0.122h0.135c0.023,0 0.172,0.056 0.333,0.122l0.505,0.213c0.16,0.068 0.417,0.189 0.571,0.27z" fill="#62757e" fill-rule="nonzero"></path><path d="M20.525,8.475c0.0357,0.09889 0.04058,0.20628 0.014,0.308l-2.065,7.935c-0.22395,0.86631 -0.74401,1.62694 -1.47,2.15l-0.3,0.212c-1.22947,0.86621 -2.4716,1.7143 -3.726,2.544l-0.074,0.049c-0.278,0.185 -0.548,0.288 -0.842,0.286c-0.3,0.002 -0.567,-0.1 -0.845,-0.284l-0.077,-0.05c-1.35835,-0.89607 -2.70088,-1.81588 -4.027,-2.759c-0.72492,-0.52283 -1.24422,-1.28268 -1.468,-2.148l-2.066,-7.934c-0.02626,-0.10182 -0.02103,-0.20921 0.015,-0.308l0.502,-1.386l-0.335,-0.756c-0.12623,-0.28781 -0.06488,-0.62345 0.155,-0.848l1.109,-1.134c0.61088,-0.63279 1.53201,-0.85635 2.365,-0.574l1.433,-1.583c0.0977,-0.10736 0.23584,-0.169 0.381,-0.17l2.851,-0.025l2.86,0.023c0.14497,0.00154 0.28271,0.06352 0.38,0.171l1.434,1.583c0.83233,-0.28217 1.75274,-0.05947 2.364,0.572l1.108,1.134c0.2216,0.22529 0.28306,0.5631 0.155,0.852l-0.334,0.754zM19.492,8.677l-0.52,-1.43c-0.04587,-0.12659 -0.04085,-0.26604 0.014,-0.389l0.345,-0.777l-0.983,-1.006c-0.34,-0.35 -0.846,-0.47 -1.3,-0.308l-0.296,0.106c-0.1981,0.07118 -0.41957,0.01591 -0.561,-0.14l-1.513,-1.673l-2.615,-0.02l-2.622,0.02l-1.512,1.672c-0.14125,0.1555 -0.36219,0.21074 -0.56,0.14l-0.298,-0.106c-0.45661,-0.16084 -0.9651,-0.03958 -1.3,0.31l-0.985,1.004l0.345,0.777c0.05459,0.12268 0.0596,0.26171 0.014,0.388l-0.52,1.431l2.026,7.78c0.16271,0.6294 0.5401,1.18222 1.067,1.563c0.3603,0.25707 0.72231,0.51174 1.086,0.764c0.96029,0.66927 1.92903,1.32632 2.906,1.971l0.077,0.05c0.124,0.082 0.208,0.115 0.274,0.114c0.06,0 0.146,-0.032 0.27,-0.114l0.075,-0.05l0.44,-0.29c1.19591,-0.79591 2.37938,-1.61034 3.55,-2.443c0.5284,-0.38078 0.90694,-0.93443 1.07,-1.565l2.025,-7.78z" fill="#62757e" fill-rule="nonzero"></path></g>
  </g>
  <g id="Regular-S" transform="matrix(3.915 0 0 3.915 1402.75 614)">
    <defs><clipPath id="clip-1"><rect x="0" y="0" width="24" height="24" fill="none" fill-rule="nonzero"></rect></clipPath></defs>
<g clip-path="url(#clip-1)" fill="none" fill-rule="none" stroke="none" stroke-width="1" stroke-linecap="butt" stroke-linejoin="miter" stroke-miterlimit="10" stroke-dasharray="" stroke-dashoffset="0" font-family="none" font-weight="none" font-size="none" text-anchor="none" style="mix-blend-mode: normal"><path d="M18.024,8.217c0.09117,0.13396 0.17431,0.2732 0.249,0.417c0.04,0.084 0.074,0.395 0.07,0.493l-0.026,0.085c-0.042,0.151 -0.047,0.16 -0.047,0.16c-0.11,0.136 -0.296,0.353 -0.414,0.48l-1.84,1.973c-0.12217,0.14679 -0.15755,0.34726 -0.093,0.527l0.3,0.718c0.06895,0.1912 0.07421,0.39957 0.015,0.594l-0.061,0.168c-0.098,0.27 -0.267,0.51 -0.489,0.693l-0.289,0.238c-0.15333,0.11251 -0.35429,0.13678 -0.53,0.064l-1.026,-0.495c-0.18704,-0.09489 -0.36168,-0.21244 -0.52,-0.35l-0.82,-0.75c-0.06642,-0.06068 -0.10565,-0.14552 -0.10885,-0.23543c-0.0032,-0.08991 0.0299,-0.17733 0.09185,-0.24257l1.853,-1.261c0.14519,-0.105 0.19301,-0.29968 0.113,-0.46l-0.718,-1.367c-0.081,-0.154 -0.098,-0.398 -0.035,-0.542c0.08841,-0.16829 0.23267,-0.30053 0.408,-0.374l2.254,-0.86c0.162,-0.062 0.154,-0.126 -0.019,-0.143l-1.322,-0.127c-0.20788,-0.01414 -0.4167,0.00407 -0.619,0.054l-1.153,0.326c-0.17078,0.05268 -0.27603,0.22382 -0.246,0.4l0.452,2.497c0.03,0.172 0.041,0.362 0.023,0.422c-0.02,0.06 -0.174,0.138 -0.343,0.175l-0.703,0.15c-0.07908,0.01557 -0.15941,0.02394 -0.24,0.025c-0.08159,-0.00101 -0.16292,-0.00938 -0.243,-0.025l-0.701,-0.15c-0.17,-0.037 -0.324,-0.116 -0.342,-0.175c-0.02,-0.06 -0.01,-0.25 0.021,-0.422l0.454,-2.497c0.028,-0.17639 -0.07756,-0.34664 -0.248,-0.4l-1.152,-0.325c-0.20229,-0.04998 -0.41111,-0.06819 -0.619,-0.054l-1.323,0.126c-0.173,0.017 -0.181,0.08 -0.019,0.143l2.254,0.86c0.162,0.062 0.347,0.23 0.409,0.374c0.05943,0.17832 0.04687,0.3728 -0.035,0.542l-0.72,1.367c-0.08045,0.16027 -0.03256,0.35525 0.113,0.46l1.855,1.261c0.06195,0.06524 0.09505,0.15266 0.09185,0.24257c-0.0032,0.08991 -0.04242,0.17475 -0.10885,0.23543l-0.822,0.75c-0.15816,0.13729 -0.33244,0.25482 -0.519,0.35l-1.026,0.495c-0.17571,0.07278 -0.37667,0.04851 -0.53,-0.064l-0.288,-0.238c-0.22213,-0.18366 -0.39127,-0.42322 -0.49,-0.694l-0.061,-0.167c-0.05946,-0.19434 -0.05455,-0.40268 0.014,-0.594l0.3,-0.718c0.06483,-0.17956 0.02983,-0.38002 -0.092,-0.527l-1.838,-1.973c-0.14357,-0.15511 -0.28166,-0.31521 -0.414,-0.48c0,0 -0.008,-0.009 -0.05,-0.16l-0.026,-0.085c-0.002,-0.098 0.032,-0.409 0.072,-0.493c0.04,-0.084 0.15,-0.272 0.247,-0.417l0.521,-0.78c0.11905,-0.1747 0.24379,-0.34545 0.374,-0.512l0.702,-0.89c0.108,-0.138 0.201,-0.248 0.209,-0.247h0.014c0,-0.001 0.14,0.024 0.311,0.057l1.076,0.209l0.47,0.09c0.088,0.017 0.295,-0.013 0.46,-0.067l0.85,-0.278c0.165,-0.054 0.438,-0.131 0.607,-0.17c0,0 0.069,-0.017 0.241,-0.016c0.173,0 0.24,0.016 0.24,0.016c0.17,0.039 0.444,0.116 0.609,0.17l0.849,0.278c0.164,0.054 0.372,0.084 0.46,0.067c0.089,-0.016 0.3,-0.057 0.47,-0.09l1.076,-0.209c0.10829,-0.02107 0.21698,-0.04007 0.326,-0.057c0.006,-0.001 0.1,0.109 0.209,0.247l0.702,0.89c0.108,0.137 0.275,0.368 0.373,0.513z" fill="#62757e" fill-rule="nonzero"></path><path d="M13.667,14.94l0.93,0.49c0.154,0.08 0.163,0.23 0.022,0.33l-0.806,0.577c-0.17089,0.12425 -0.33669,0.25536 -0.497,0.393l-0.227,0.198l-0.476,0.418l-0.214,0.194c-0.05872,0.05006 -0.13201,0.07986 -0.209,0.085c-0.07669,-0.00514 -0.14966,-0.03496 -0.208,-0.085l-0.215,-0.194l-0.476,-0.418l-0.226,-0.198c-0.16032,-0.13762 -0.32612,-0.26873 -0.497,-0.393l-0.807,-0.576c-0.141,-0.1 -0.132,-0.25 0.023,-0.33l0.93,-0.49c0.153,-0.081 0.41,-0.202 0.57,-0.27l0.506,-0.213c0.16,-0.066 0.31,-0.122 0.333,-0.122h0.135c0.023,0 0.172,0.056 0.333,0.122l0.505,0.213c0.16,0.068 0.417,0.189 0.571,0.27z" fill="#62757e" fill-rule="nonzero"></path><path d="M20.525,8.475c0.0357,0.09889 0.04058,0.20628 0.014,0.308l-2.065,7.935c-0.22395,0.86631 -0.74401,1.62694 -1.47,2.15l-0.3,0.212c-1.22947,0.86621 -2.4716,1.7143 -3.726,2.544l-0.074,0.049c-0.278,0.185 -0.548,0.288 -0.842,0.286c-0.3,0.002 -0.567,-0.1 -0.845,-0.284l-0.077,-0.05c-1.35835,-0.89607 -2.70088,-1.81588 -4.027,-2.759c-0.72492,-0.52283 -1.24422,-1.28268 -1.468,-2.148l-2.066,-7.934c-0.02626,-0.10182 -0.02103,-0.20921 0.015,-0.308l0.502,-1.386l-0.335,-0.756c-0.12623,-0.28781 -0.06488,-0.62345 0.155,-0.848l1.109,-1.134c0.61088,-0.63279 1.53201,-0.85635 2.365,-0.574l1.433,-1.583c0.0977,-0.10736 0.23584,-0.169 0.381,-0.17l2.851,-0.025l2.86,0.023c0.14497,0.00154 0.28271,0.06352 0.38,0.171l1.434,1.583c0.83233,-0.28217 1.75274,-0.05947 2.364,0.572l1.108,1.134c0.2216,0.22529 0.28306,0.5631 0.155,0.852l-0.334,0.754zM19.492,8.677l-0.52,-1.43c-0.04587,-0.12659 -0.04085,-0.26604 0.014,-0.389l0.345,-0.777l-0.983,-1.006c-0.34,-0.35 -0.846,-0.47 -1.3,-0.308l-0.296,0.106c-0.1981,0.07118 -0.41957,0.01591 -0.561,-0.14l-1.513,-1.673l-2.615,-0.02l-2.622,0.02l-1.512,1.672c-0.14125,0.1555 -0.36219,0.21074 -0.56,0.14l-0.298,-0.106c-0.45661,-0.16084 -0.9651,-0.03958 -1.3,0.31l-0.985,1.004l0.345,0.777c0.05459,0.12268 0.0596,0.26171 0.014,0.388l-0.52,1.431l2.026,7.78c0.16271,0.6294 0.5401,1.18222 1.067,1.563c0.3603,0.25707 0.72231,0.51174 1.086,0.764c0.96029,0.66927 1.92903,1.32632 2.906,1.971l0.077,0.05c0.124,0.082 0.208,0.115 0.274,0.114c0.06,0 0.146,-0.032 0.27,-0.114l0.075,-0.05l0.44,-0.29c1.19591,-0.79591 2.37938,-1.61034 3.55,-2.443c0.5284,-0.38078 0.90694,-0.93443 1.07,-1.565l2.025,-7.78z" fill="#62757e" fill-rule="nonzero"></path></g>
  </g>
 </g>
</svg>
