<?xml version="1.0" encoding="UTF-8"?>
<!--Generator: Apple Native CoreSVG 175.5-->
<!DOCTYPE svg
PUBLIC "-//W3C//DTD SVG 1.1//EN"
       "http://www.w3.org/Graphics/SVG/1.1/DTD/svg11.dtd">
<svg version="1.1" xmlns="http://www.w3.org/2000/svg" xmlns:xlink="http://www.w3.org/1999/xlink" width="3300" height="2200">
 <!--glyph: "", point size: 100.0, font version: "18.0d12e2", template writer version: "101"-->
 <g id="Notes">
  <rect height="2200" id="artboard" style="fill:white;opacity:1" width="3300" x="0" y="0"/>
  <line style="fill:none;stroke:black;opacity:1;stroke-width:0.5;" x1="263" x2="3036" y1="292" y2="292"/>
  <text style="stroke:none;fill:black;font-family:sans-serif;font-size:13;font-weight:bold;" transform="matrix(1 0 0 1 263 322)">Weight/Scale Variations</text>
  <text style="stroke:none;fill:black;font-family:sans-serif;font-size:13;text-anchor:middle;" transform="matrix(1 0 0 1 559.711 322)">Ultralight</text>
  <text style="stroke:none;fill:black;font-family:sans-serif;font-size:13;text-anchor:middle;" transform="matrix(1 0 0 1 856.422 322)">Thin</text>
  <text style="stroke:none;fill:black;font-family:sans-serif;font-size:13;text-anchor:middle;" transform="matrix(1 0 0 1 1153.13 322)">Light</text>
  <text style="stroke:none;fill:black;font-family:sans-serif;font-size:13;text-anchor:middle;" transform="matrix(1 0 0 1 1449.84 322)">Regular</text>
  <text style="stroke:none;fill:black;font-family:sans-serif;font-size:13;text-anchor:middle;" transform="matrix(1 0 0 1 1746.56 322)">Medium</text>
  <text style="stroke:none;fill:black;font-family:sans-serif;font-size:13;text-anchor:middle;" transform="matrix(1 0 0 1 2043.27 322)">Semibold</text>
  <text style="stroke:none;fill:black;font-family:sans-serif;font-size:13;text-anchor:middle;" transform="matrix(1 0 0 1 2339.98 322)">Bold</text>
  <text style="stroke:none;fill:black;font-family:sans-serif;font-size:13;text-anchor:middle;" transform="matrix(1 0 0 1 2636.69 322)">Heavy</text>
  <text style="stroke:none;fill:black;font-family:sans-serif;font-size:13;text-anchor:middle;" transform="matrix(1 0 0 1 2933.4 322)">Black</text>
  <line style="fill:none;stroke:black;opacity:1;stroke-width:0.5;" x1="263" x2="3036" y1="1903" y2="1903"/>
  <g transform="matrix(1 0 0 1 263 1933)">
   <path d="M9.24805 0.830078C13.5547 0.830078 17.1387-2.74414 17.1387-7.05078C17.1387-11.3574 13.5449-14.9316 9.23828-14.9316C4.94141-14.9316 1.36719-11.3574 1.36719-7.05078C1.36719-2.74414 4.95117 0.830078 9.24805 0.830078ZM9.24805-0.654297C5.70312-0.654297 2.87109-3.49609 2.87109-7.05078C2.87109-10.6055 5.69336-13.4473 9.23828-13.4473C12.793-13.4473 15.6445-10.6055 15.6445-7.05078C15.6445-3.49609 12.8027-0.654297 9.24805-0.654297ZM5.6543-7.05078C5.6543-6.62109 5.95703-6.32812 6.40625-6.32812L8.50586-6.32812L8.50586-4.20898C8.50586-3.76953 8.79883-3.4668 9.22852-3.4668C9.67773-3.4668 9.9707-3.76953 9.9707-4.20898L9.9707-6.32812L12.0898-6.32812C12.5293-6.32812 12.832-6.62109 12.832-7.05078C12.832-7.49023 12.5293-7.79297 12.0898-7.79297L9.9707-7.79297L9.9707-9.90234C9.9707-10.3516 9.67773-10.6543 9.22852-10.6543C8.79883-10.6543 8.50586-10.3516 8.50586-9.90234L8.50586-7.79297L6.40625-7.79297C5.95703-7.79297 5.6543-7.49023 5.6543-7.05078Z"/>
  </g>
  <g transform="matrix(1 0 0 1 281.867 1933)">
   <path d="M11.709 2.91016C17.1582 2.91016 21.6699-1.61133 21.6699-7.05078C21.6699-12.5 17.1484-17.0117 11.6992-17.0117C6.25977-17.0117 1.74805-12.5 1.74805-7.05078C1.74805-1.61133 6.26953 2.91016 11.709 2.91016ZM11.709 1.25C7.09961 1.25 3.41797-2.44141 3.41797-7.05078C3.41797-11.6602 7.08984-15.3516 11.6992-15.3516C16.3086-15.3516 20.0098-11.6602 20.0098-7.05078C20.0098-2.44141 16.3184 1.25 11.709 1.25ZM7.17773-7.05078C7.17773-6.57227 7.50977-6.25 8.00781-6.25L10.8789-6.25L10.8789-3.36914C10.8789-2.88086 11.2109-2.53906 11.6895-2.53906C12.1777-2.53906 12.5195-2.87109 12.5195-3.36914L12.5195-6.25L15.4004-6.25C15.8887-6.25 16.2305-6.57227 16.2305-7.05078C16.2305-7.53906 15.8887-7.88086 15.4004-7.88086L12.5195-7.88086L12.5195-10.752C12.5195-11.25 12.1777-11.5918 11.6895-11.5918C11.2109-11.5918 10.8789-11.25 10.8789-10.752L10.8789-7.88086L8.00781-7.88086C7.50977-7.88086 7.17773-7.53906 7.17773-7.05078Z"/>
  </g>
  <g transform="matrix(1 0 0 1 305.646 1933)">
   <path d="M14.9707 5.66406C21.9336 5.66406 27.6953-0.0976562 27.6953-7.05078C27.6953-14.0137 21.9238-19.7754 14.9609-19.7754C8.00781-19.7754 2.25586-14.0137 2.25586-7.05078C2.25586-0.0976562 8.01758 5.66406 14.9707 5.66406ZM14.9707 3.84766C8.93555 3.84766 4.08203-1.01562 4.08203-7.05078C4.08203-13.0957 8.92578-17.9492 14.9609-17.9492C21.0059-17.9492 25.8691-13.0957 25.8691-7.05078C25.8691-1.01562 21.0156 3.84766 14.9707 3.84766ZM9.19922-7.05078C9.19922-6.5332 9.57031-6.17188 10.1172-6.17188L14.0625-6.17188L14.0625-2.2168C14.0625-1.67969 14.4336-1.29883 14.9512-1.29883C15.4883-1.29883 15.8594-1.66992 15.8594-2.2168L15.8594-6.17188L19.8145-6.17188C20.3516-6.17188 20.7324-6.5332 20.7324-7.05078C20.7324-7.59766 20.3613-7.96875 19.8145-7.96875L15.8594-7.96875L15.8594-11.9141C15.8594-12.4609 15.4883-12.8418 14.9512-12.8418C14.4336-12.8418 14.0625-12.4609 14.0625-11.9141L14.0625-7.96875L10.1172-7.96875C9.57031-7.96875 9.19922-7.59766 9.19922-7.05078Z"/>
  </g>
  <text style="stroke:none;fill:black;font-family:sans-serif;font-size:13;font-weight:bold;" transform="matrix(1 0 0 1 263 1953)">Design Variations</text>
  <text style="stroke:none;fill:black;font-family:sans-serif;font-size:13;" transform="matrix(1 0 0 1 263 1971)">Symbols are supported in up to nine weights and three scales.</text>
  <text style="stroke:none;fill:black;font-family:sans-serif;font-size:13;" transform="matrix(1 0 0 1 263 1989)">For optimal layout with text and other symbols, vertically align</text>
  <text style="stroke:none;fill:black;font-family:sans-serif;font-size:13;" transform="matrix(1 0 0 1 263 2007)">symbols with the adjacent text.</text>
  <line style="fill:none;stroke:#00AEEF;stroke-width:0.5;opacity:1.0;" x1="776" x2="776" y1="1919" y2="1933"/>
  <g transform="matrix(1 0 0 1 776 1933)">
   <path d="M3.31055 0.15625C3.82812 0.15625 4.08203-0.0390625 4.26758-0.585938L5.52734-4.0332L11.2891-4.0332L12.5488-0.585938C12.7344-0.0390625 12.9883 0.15625 13.4961 0.15625C14.0137 0.15625 14.3457-0.15625 14.3457-0.644531C14.3457-0.810547 14.3164-0.966797 14.2383-1.17188L9.6582-13.3691C9.43359-13.9648 9.0332-14.2676 8.4082-14.2676C7.80273-14.2676 7.39258-13.9746 7.17773-13.3789L2.59766-1.16211C2.51953-0.957031 2.49023-0.800781 2.49023-0.634766C2.49023-0.146484 2.80273 0.15625 3.31055 0.15625ZM6.00586-5.51758L8.37891-12.0898L8.42773-12.0898L10.8008-5.51758Z"/>
  </g>
  <line style="fill:none;stroke:#00AEEF;stroke-width:0.5;opacity:1.0;" x1="793.197" x2="793.197" y1="1919" y2="1933"/>
  <text style="stroke:none;fill:black;font-family:sans-serif;font-size:13;font-weight:bold;" transform="matrix(1 0 0 1 776 1953)">Margins</text>
  <text style="stroke:none;fill:black;font-family:sans-serif;font-size:13;" transform="matrix(1 0 0 1 776 1971)">Leading and trailing margins on the left and right side of each symbol</text>
  <text style="stroke:none;fill:black;font-family:sans-serif;font-size:13;" transform="matrix(1 0 0 1 776 1989)">can be adjusted by modifying the x-location of the margin guidelines.</text>
  <text style="stroke:none;fill:black;font-family:sans-serif;font-size:13;" transform="matrix(1 0 0 1 776 2007)">Modifications are automatically applied proportionally to all</text>
  <text style="stroke:none;fill:black;font-family:sans-serif;font-size:13;" transform="matrix(1 0 0 1 776 2025)">scales and weights.</text>
  <g transform="matrix(1 0 0 1 1289 1933)">
   <path d="M2.8418 1.86523L4.54102 3.57422C5.40039 4.44336 6.38672 4.38477 7.31445 3.35938L18.0078-8.42773L17.041-9.4043L6.42578 2.27539C6.07422 2.67578 5.74219 2.77344 5.27344 2.30469L4.10156 1.14258C3.63281 0.683594 3.74023 0.341797 4.14062-0.0195312L15.6152-10.8203L14.6387-11.7871L3.04688-0.898438C2.06055 0.0195312 1.98242 0.996094 2.8418 1.86523ZM9.25781-16.3281C8.83789-15.918 8.80859-15.3418 9.04297-14.9512C9.27734-14.5898 9.73633-14.3555 10.3809-14.5215C11.8457-14.8633 13.3691-14.9219 14.7949-13.9844L14.209-12.5293C13.8672-11.6992 14.043-11.1133 14.5801-10.5664L16.875-8.25195C17.3633-7.76367 17.7734-7.74414 18.3398-7.8418L19.4043-8.03711L20.0684-7.36328L20.0293-6.80664C19.9902-6.30859 20.1172-5.92773 20.6055-5.44922L21.3672-4.70703C21.8457-4.22852 22.4609-4.19922 22.9297-4.66797L25.8398-7.58789C26.3086-8.05664 26.2891-8.65234 25.8105-9.13086L25.0391-9.89258C24.5605-10.3711 24.1895-10.5273 23.7109-10.4883L23.1348-10.4395L22.4902-11.0742L22.7344-12.1973C22.8613-12.7637 22.7051-13.2031 22.1191-13.7891L19.9219-15.9766C16.582-19.2969 12.1484-19.2188 9.25781-16.3281ZM10.752-15.957C13.1836-17.7344 16.4746-17.4316 18.7012-15.2051L21.1328-12.793C21.3672-12.5586 21.4062-12.373 21.3379-12.0312L21.0156-10.5469L22.5195-9.0625L23.5059-9.12109C23.7598-9.13086 23.8379-9.11133 24.0332-8.91602L24.6094-8.33984L22.168-5.89844L21.5918-6.47461C21.3965-6.66992 21.3672-6.74805 21.377-7.01172L21.4453-7.98828L19.9512-9.47266L18.4277-9.21875C18.1055-9.15039 17.959-9.17969 17.7148-9.41406L15.7129-11.416C15.459-11.6504 15.4297-11.8164 15.5859-12.1875L16.4648-14.2773C14.9023-15.7324 12.8711-16.3574 10.8398-15.7617C10.6836-15.7227 10.625-15.8496 10.752-15.957Z"/>
  </g>
  <text style="stroke:none;fill:black;font-family:sans-serif;font-size:13;font-weight:bold;" transform="matrix(1 0 0 1 1289 1953)">Exporting</text>
  <text style="stroke:none;fill:black;font-family:sans-serif;font-size:13;" transform="matrix(1 0 0 1 1289 1971)">Symbols should be outlined when exporting to ensure the</text>
  <text style="stroke:none;fill:black;font-family:sans-serif;font-size:13;" transform="matrix(1 0 0 1 1289 1989)">design is preserved when submitting to Xcode.</text>
  <text id="template-version" style="stroke:none;fill:black;font-family:sans-serif;font-size:13;text-anchor:end;" transform="matrix(1 0 0 1 3036 1933)">Template v.4.0</text>
  <text style="stroke:none;fill:black;font-family:sans-serif;font-size:13;text-anchor:end;" transform="matrix(1 0 0 1 3036 1951)">Requires Xcode 14 or greater</text>
  <text id="descriptive-name" style="stroke:none;fill:black;font-family:sans-serif;font-size:13;text-anchor:end;" transform="matrix(1 0 0 1 3036 1969)">Generated from brave.zzz</text>
  <text style="stroke:none;fill:black;font-family:sans-serif;font-size:13;text-anchor:end;" transform="matrix(1 0 0 1 3036 1987)">Typeset at 100 points</text>
  <text style="stroke:none;fill:black;font-family:sans-serif;font-size:13;" transform="matrix(1 0 0 1 263 726)">Small</text>
  <text style="stroke:none;fill:black;font-family:sans-serif;font-size:13;" transform="matrix(1 0 0 1 263 1156)">Medium</text>
  <text style="stroke:none;fill:black;font-family:sans-serif;font-size:13;" transform="matrix(1 0 0 1 263 1586)">Large</text>
 </g>
 <g id="Guides">
  <g id="H-reference" style="fill:#27AAE1;stroke:none;" transform="matrix(1 0 0 1 339 696)">
   <path d="M0.993654 0L3.63775 0L29.3281-67.1323L30.0303-67.1323L30.0303-70.459L28.1226-70.459ZM11.6885-24.4799L46.9815-24.4799L46.2315-26.7285L12.4385-26.7285ZM55.1196 0L57.7637 0L30.6382-70.459L29.4326-70.459L29.4326-67.1323Z"/>
  </g>
  <line id="Baseline-S" style="fill:none;stroke:#27AAE1;opacity:1;stroke-width:0.5;" x1="263" x2="3036" y1="696" y2="696"/>
  <line id="Capline-S" style="fill:none;stroke:#27AAE1;opacity:1;stroke-width:0.5;" x1="263" x2="3036" y1="625.541" y2="625.541"/>
  <g id="H-reference" style="fill:#27AAE1;stroke:none;" transform="matrix(1 0 0 1 339 1126)">
   <path d="M0.993654 0L3.63775 0L29.3281-67.1323L30.0303-67.1323L30.0303-70.459L28.1226-70.459ZM11.6885-24.4799L46.9815-24.4799L46.2315-26.7285L12.4385-26.7285ZM55.1196 0L57.7637 0L30.6382-70.459L29.4326-70.459L29.4326-67.1323Z"/>
  </g>
  <line id="Baseline-M" style="fill:none;stroke:#27AAE1;opacity:1;stroke-width:0.5;" x1="263" x2="3036" y1="1126" y2="1126"/>
  <line id="Capline-M" style="fill:none;stroke:#27AAE1;opacity:1;stroke-width:0.5;" x1="263" x2="3036" y1="1055.54" y2="1055.54"/>
  <g id="H-reference" style="fill:#27AAE1;stroke:none;" transform="matrix(1 0 0 1 339 1556)">
   <path d="M0.993654 0L3.63775 0L29.3281-67.1323L30.0303-67.1323L30.0303-70.459L28.1226-70.459ZM11.6885-24.4799L46.9815-24.4799L46.2315-26.7285L12.4385-26.7285ZM55.1196 0L57.7637 0L30.6382-70.459L29.4326-70.459L29.4326-67.1323Z"/>
  </g>
  <line id="Baseline-L" style="fill:none;stroke:#27AAE1;opacity:1;stroke-width:0.5;" x1="263" x2="3036" y1="1556" y2="1556"/>
  <line id="Capline-L" style="fill:none;stroke:#27AAE1;opacity:1;stroke-width:0.5;" x1="263" x2="3036" y1="1485.54" y2="1485.54"/>
  <line id="left-margin-Regular-M" style="fill:none;stroke:#00AEEF;stroke-width:0.5;opacity:1.0;" x1="1389.82" x2="1389.82" y1="1030.79" y2="1150.12"/>
  <line id="right-margin-Regular-M" style="fill:none;stroke:#00AEEF;stroke-width:0.5;opacity:1.0;" x1="1509.87" x2="1509.87" y1="1030.79" y2="1150.12"/>
 </g>
 <g id="Symbols">
  <g id="Regular-L" transform="matrix(6.45 0 0 6.45 1372.2675 1443)">
    <defs><clipPath id="clip-1"><rect x="0" y="0" width="24" height="24" fill="none"></rect></clipPath><clipPath id="clip-2"><path d="M0,0h24v24h-24z" id="a" fill="none"></path></clipPath></defs>
<g clip-path="url(#clip-1)" fill="none" fill-rule="nonzero" stroke="none" stroke-width="1" stroke-linecap="butt" stroke-linejoin="miter" stroke-miterlimit="10" stroke-dasharray="" stroke-dashoffset="0" font-family="none" font-weight="none" font-size="none" text-anchor="none" style="mix-blend-mode: normal"><g clip-path="url(#clip-2)"><path d="M23.835,11.703l-1.008,-0.623l-0.028,-0.294l0.866,-0.807c0.08693,-0.08237 0.12539,-0.20366 0.10183,-0.32108c-0.02356,-0.11742 -0.10585,-0.21447 -0.21783,-0.25692l-1.106,-0.414c-0.02723,-0.09553 -0.05623,-0.19055 -0.087,-0.285l0.69,-0.96c0.07021,-0.09739 0.08492,-0.22422 0.03886,-0.33509c-0.04606,-0.11087 -0.14631,-0.18994 -0.26486,-0.20891l-1.166,-0.19c-0.04523,-0.08776 -0.0919,-0.17477 -0.14,-0.261l0.49,-1.076c0.07789,-0.16888 0.00747,-0.36908 -0.159,-0.452c-0.05256,-0.02679 -0.11104,-0.03986 -0.17,-0.038l-1.184,0.041c-0.06074,-0.07697 -0.12308,-0.15265 -0.187,-0.227l0.272,-1.153c0.02679,-0.11679 -0.00839,-0.23915 -0.09312,-0.32388c-0.08473,-0.08473 -0.20709,-0.11991 -0.32388,-0.09312l-1.153,0.272l-0.228,-0.187l0.041,-1.184c0.00586,-0.12059 -0.05191,-0.23542 -0.15224,-0.30258c-0.10033,-0.06716 -0.22851,-0.07681 -0.33776,-0.02542l-1.076,0.49c-0.08667,-0.048 -0.174,-0.09467 -0.262,-0.14l-0.19,-1.167c-0.02082,-0.11765 -0.10021,-0.21656 -0.21058,-0.26232c-0.11037,-0.04577 -0.23645,-0.03207 -0.33442,0.03632l-0.96,0.69c-0.09453,-0.0299 -0.18954,-0.05824 -0.285,-0.085l-0.414,-1.107c-0.04245,-0.11198 -0.13951,-0.19426 -0.25692,-0.21783c-0.11742,-0.02356 -0.2387,0.0149 -0.32108,0.10183l-0.807,0.867c-0.09784,-0.01094 -0.19585,-0.02028 -0.294,-0.028l-0.623,-1.008c-0.06326,-0.10214 -0.17486,-0.16429 -0.295,-0.16429c-0.12014,0 -0.23174,0.06215 -0.295,0.16429l-0.623,1.008c-0.098,0.008 -0.196,0.01733 -0.294,0.028l-0.808,-0.867c-0.08187,-0.08802 -0.20357,-0.12724 -0.32143,-0.10358c-0.11786,0.02365 -0.215,0.10679 -0.25657,0.21958l-0.414,1.106l-0.285,0.086l-0.959,-0.69c-0.0977,-0.06953 -0.22432,-0.08387 -0.33509,-0.03793c-0.11077,0.04593 -0.19009,0.14566 -0.20991,0.26393l-0.19,1.167c-0.0881,0.04522 -0.17544,0.0919 -0.262,0.14l-1.076,-0.49c-0.1093,-0.05014 -0.2368,-0.03993 -0.33673,0.02696c-0.09993,0.06689 -0.15796,0.18088 -0.15327,0.30104l0.041,1.184c-0.07715,0.06126 -0.15316,0.12393 -0.228,0.188l-1.153,-0.273c-0.11689,-0.02738 -0.23962,0.0076 -0.32451,0.09249c-0.08489,0.08489 -0.11987,0.20763 -0.09249,0.32451l0.271,1.153l-0.186,0.227l-1.184,-0.042c-0.12016,-0.0047 -0.23414,0.05334 -0.30104,0.15327c-0.06689,0.09993 -0.0771,0.22743 -0.02696,0.33673l0.49,1.077c-0.0481,0.08656 -0.09478,0.1739 -0.14,0.262l-1.166,0.19c-0.11793,0.01999 -0.21732,0.09914 -0.26321,0.2096c-0.04589,0.11046 -0.03184,0.23674 0.03721,0.3344l0.69,0.958c-0.03,0.09467 -0.059,0.19 -0.087,0.286l-1.106,0.414c-0.11198,0.04245 -0.19426,0.13951 -0.21783,0.25692c-0.02356,0.11742 0.0149,0.2387 0.10183,0.32108l0.866,0.807c-0.01067,0.098 -0.02,0.196 -0.028,0.294l-1.008,0.623c-0.10364,0.06216 -0.16705,0.17415 -0.16705,0.295c0,0.12085 0.06341,0.23284 0.16705,0.295l1.008,0.623l0.028,0.294l-0.866,0.807c-0.08796,0.08209 -0.12712,0.20388 -0.10349,0.32185c0.02363,0.11797 0.10669,0.21528 0.21949,0.25715l1.106,0.414c0.028,0.096 0.057,0.191 0.087,0.285l-0.69,0.959c-0.07084,0.09739 -0.08577,0.22466 -0.03939,0.3358c0.04638,0.11114 0.14734,0.19005 0.26639,0.2082l1.166,0.19c0.04533,0.088 0.092,0.17533 0.14,0.262l-0.49,1.076c-0.05014,0.1093 -0.03993,0.2368 0.02696,0.33673c0.06689,0.09993 0.18088,0.15796 0.30104,0.15327l1.183,-0.041c0.062,0.07667 0.12433,0.15233 0.187,0.227l-0.27,1.155c-0.02742,0.11662 0.00745,0.23913 0.09216,0.32384c0.08471,0.08471 0.20722,0.11958 0.32384,0.09216l1.153,-0.272c0.07467,0.064 0.15067,0.12633 0.228,0.187l-0.041,1.184c-0.0055,0.12041 0.05243,0.23491 0.15269,0.30182c0.10026,0.06691 0.22823,0.07646 0.33731,0.02518l1.076,-0.49c0.08667,0.04867 0.174,0.09533 0.262,0.14l0.19,1.167c0.01954,0.11845 0.09874,0.21846 0.20956,0.26462c0.11082,0.04616 0.2376,0.03194 0.33544,-0.03762l0.959,-0.69c0.09467,0.03 0.18967,0.05867 0.285,0.086l0.414,1.107c0.0418,0.11264 0.13903,0.19554 0.25687,0.21898c0.11784,0.02344 0.2394,-0.01592 0.32113,-0.10398l0.808,-0.865l0.294,0.03l0.623,1.006c0.06361,0.10165 0.17508,0.1634 0.295,0.1634c0.11992,0 0.23139,-0.06174 0.295,-0.1634l0.623,-1.007c0.09867,-0.00867 0.19667,-0.01867 0.294,-0.03l0.807,0.866c0.08223,0.08697 0.20339,0.12559 0.32078,0.10223c0.11739,-0.02336 0.21454,-0.1054 0.25722,-0.21723l0.414,-1.107c0.09553,-0.02723 0.19055,-0.05623 0.285,-0.087l0.959,0.69c0.09727,0.07131 0.22472,0.08664 0.33613,0.04045c0.11141,-0.0462 0.19061,-0.14723 0.20887,-0.26645l0.19,-1.166l0.262,-0.14l1.076,0.49c0.1093,0.05014 0.2368,0.03993 0.33673,-0.02696c0.09993,-0.06689 0.15796,-0.18088 0.15327,-0.30104l-0.041,-1.184c0.07667,-0.06 0.15233,-0.12233 0.227,-0.187l1.153,0.272c0.11677,0.02784 0.23962,-0.00683 0.32461,-0.09161c0.08498,-0.08478 0.11995,-0.20755 0.09239,-0.32439l-0.271,-1.155c0.06267,-0.07467 0.12467,-0.15033 0.186,-0.227l1.184,0.041c0.12059,0.00586 0.23542,-0.05191 0.30258,-0.15224c0.06716,-0.10033 0.07681,-0.22851 0.02542,-0.33776l-0.49,-1.076c0.048,-0.08667 0.095,-0.174 0.141,-0.262l1.166,-0.19c0.11793,-0.01999 0.21732,-0.09914 0.26321,-0.2096c0.04589,-0.11046 0.03184,-0.23674 -0.03721,-0.3344l-0.69,-0.959l0.087,-0.285l1.106,-0.414c0.1128,-0.04157 0.19593,-0.13871 0.21958,-0.25657c0.02365,-0.11786 -0.01556,-0.23956 -0.10358,-0.32143l-0.866,-0.808c0.01067,-0.098 0.02,-0.196 0.028,-0.294l1.008,-0.624c0.10266,-0.06265 0.16529,-0.17423 0.16529,-0.2945c0,-0.12027 -0.06263,-0.23185 -0.16529,-0.2945M17.092,20.058c-0.3778,-0.08957 -0.61478,-0.46462 -0.53346,-0.84428c0.08132,-0.37966 0.45112,-0.62475 0.83246,-0.55172c0.25233,0.05069 0.45786,0.23326 0.53794,0.47786c0.08008,0.2446 0.02232,0.51337 -0.15118,0.70347c-0.1735,0.1901 -0.43588,0.27212 -0.68676,0.21467zM16.75,17.744c-0.35095,-0.07471 -0.69606,0.1491 -0.771,0.5l-0.358,1.669c-1.1364,0.51663 -2.37068,0.78265 -3.619,0.78c-1.27654,0.00271 -2.53804,-0.27554 -3.695,-0.815l-0.357,-1.668c-0.07496,-0.35043 -0.41939,-0.57408 -0.77,-0.5l-1.474,0.317c-0.27299,-0.28241 -0.5272,-0.58238 -0.761,-0.898h7.167c0.081,0 0.136,-0.015 0.136,-0.088v-2.536c0,-0.074 -0.054,-0.089 -0.136,-0.089h-2.096v-1.606h2.268c0.206,0 1.106,0.059 1.393,1.209c0.09,0.353 0.288,1.504 0.424,1.872c0.134,0.413 0.683,1.239 1.268,1.239h3.572c0.04359,-0.00183 0.08702,-0.0065 0.13,-0.014c-0.24822,0.33613 -0.51954,0.65457 -0.812,0.953zM6.836,20.024c-0.25269,0.06877 -0.52275,-0.0061 -0.70396,-0.19517c-0.1812,-0.18906 -0.24455,-0.46206 -0.16512,-0.7116c0.07943,-0.24954 0.28893,-0.43569 0.54608,-0.48523c0.37746,-0.07271 0.74485,0.16603 0.83173,0.54048c0.08689,0.37445 -0.13783,0.75058 -0.50873,0.85152M4.117,8.997c0.12515,0.23163 0.11268,0.51333 -0.03245,0.73299c-0.14513,0.21966 -0.39935,0.34164 -0.66151,0.31738c-0.26215,-0.02426 -0.48969,-0.19081 -0.59204,-0.43337c-0.15528,-0.35269 -0.00268,-0.76496 0.34481,-0.93155c0.34749,-0.16659 0.76447,-0.02738 0.94219,0.31455M3.283,10.979l1.535,-0.683c0.15754,-0.07001 0.28082,-0.19974 0.34271,-0.36065c0.06189,-0.16091 0.05732,-0.33981 -0.01271,-0.49735l-0.316,-0.715h1.244v5.602h-2.509c-0.30882,-1.0874 -0.40525,-2.22412 -0.284,-3.348zM10.018,10.435v-1.651h2.96c0.153,0 1.08,0.177 1.08,0.87c0,0.574 -0.712,0.78 -1.296,0.78zM20.775,11.921c0,0.21867 -0.008,0.43567 -0.024,0.651h-0.9c-0.09,0 -0.127,0.059 -0.127,0.148v0.413c0,0.973 -0.548,1.184 -1.03,1.238c-0.457,0.052 -0.964,-0.191 -1.027,-0.472c-0.27,-1.518 -0.72,-1.843 -1.43,-2.403c0.881,-0.56 1.799,-1.386 1.799,-2.492c0,-1.193 -0.82,-1.945 -1.377,-2.315c-0.783,-0.516 -1.65,-0.62 -1.883,-0.62h-9.308c1.28643,-1.43797 3.01116,-2.41158 4.907,-2.77l1.098,1.152c0.24815,0.25863 0.65882,0.26757 0.918,0.02l1.227,-1.173c2.5317,0.47556 4.72684,2.03892 6.004,4.276l-0.84,1.898c-0.07034,0.15765 -0.07508,0.3368 -0.01317,0.49795c0.06191,0.16115 0.18537,0.29105 0.34317,0.36105l1.618,0.718c0.028,0.28667 0.042,0.57733 0.042,0.872zM11.475,2.321c0.18382,-0.17875 0.44946,-0.24503 0.69571,-0.1736c0.24625,0.07143 0.43518,0.26958 0.49481,0.51895c0.05963,0.24937 -0.01922,0.51155 -0.20652,0.68665c-0.28846,0.24274 -0.71593,0.21938 -0.97623,-0.05335c-0.26029,-0.27272 -0.2637,-0.70082 -0.00777,-0.97765M19.814,9.032c0.07618,-0.17282 0.21807,-0.30816 0.39429,-0.3761c0.17622,-0.06794 0.37224,-0.06286 0.54471,0.0141c0.26457,0.11632 0.43292,0.38066 0.42645,0.6696c-0.00647,0.28894 -0.18648,0.54548 -0.45599,0.64984c-0.26951,0.10436 -0.57535,0.03596 -0.77472,-0.17326c-0.19938,-0.20923 -0.25296,-0.51801 -0.13573,-0.78217z" fill="#62757e"></path></g></g>
  </g>
  <g id="Regular-M" transform="matrix(5 0 0 5 1389.82 1030)">
    <defs><clipPath id="clip-1"><rect x="0" y="0" width="24" height="24" fill="none"></rect></clipPath><clipPath id="clip-2"><path d="M0,0h24v24h-24z" id="a" fill="none"></path></clipPath></defs>
<g clip-path="url(#clip-1)" fill="none" fill-rule="nonzero" stroke="none" stroke-width="1" stroke-linecap="butt" stroke-linejoin="miter" stroke-miterlimit="10" stroke-dasharray="" stroke-dashoffset="0" font-family="none" font-weight="none" font-size="none" text-anchor="none" style="mix-blend-mode: normal"><g clip-path="url(#clip-2)"><path d="M23.835,11.703l-1.008,-0.623l-0.028,-0.294l0.866,-0.807c0.08693,-0.08237 0.12539,-0.20366 0.10183,-0.32108c-0.02356,-0.11742 -0.10585,-0.21447 -0.21783,-0.25692l-1.106,-0.414c-0.02723,-0.09553 -0.05623,-0.19055 -0.087,-0.285l0.69,-0.96c0.07021,-0.09739 0.08492,-0.22422 0.03886,-0.33509c-0.04606,-0.11087 -0.14631,-0.18994 -0.26486,-0.20891l-1.166,-0.19c-0.04523,-0.08776 -0.0919,-0.17477 -0.14,-0.261l0.49,-1.076c0.07789,-0.16888 0.00747,-0.36908 -0.159,-0.452c-0.05256,-0.02679 -0.11104,-0.03986 -0.17,-0.038l-1.184,0.041c-0.06074,-0.07697 -0.12308,-0.15265 -0.187,-0.227l0.272,-1.153c0.02679,-0.11679 -0.00839,-0.23915 -0.09312,-0.32388c-0.08473,-0.08473 -0.20709,-0.11991 -0.32388,-0.09312l-1.153,0.272l-0.228,-0.187l0.041,-1.184c0.00586,-0.12059 -0.05191,-0.23542 -0.15224,-0.30258c-0.10033,-0.06716 -0.22851,-0.07681 -0.33776,-0.02542l-1.076,0.49c-0.08667,-0.048 -0.174,-0.09467 -0.262,-0.14l-0.19,-1.167c-0.02082,-0.11765 -0.10021,-0.21656 -0.21058,-0.26232c-0.11037,-0.04577 -0.23645,-0.03207 -0.33442,0.03632l-0.96,0.69c-0.09453,-0.0299 -0.18954,-0.05824 -0.285,-0.085l-0.414,-1.107c-0.04245,-0.11198 -0.13951,-0.19426 -0.25692,-0.21783c-0.11742,-0.02356 -0.2387,0.0149 -0.32108,0.10183l-0.807,0.867c-0.09784,-0.01094 -0.19585,-0.02028 -0.294,-0.028l-0.623,-1.008c-0.06326,-0.10214 -0.17486,-0.16429 -0.295,-0.16429c-0.12014,0 -0.23174,0.06215 -0.295,0.16429l-0.623,1.008c-0.098,0.008 -0.196,0.01733 -0.294,0.028l-0.808,-0.867c-0.08187,-0.08802 -0.20357,-0.12724 -0.32143,-0.10358c-0.11786,0.02365 -0.215,0.10679 -0.25657,0.21958l-0.414,1.106l-0.285,0.086l-0.959,-0.69c-0.0977,-0.06953 -0.22432,-0.08387 -0.33509,-0.03793c-0.11077,0.04593 -0.19009,0.14566 -0.20991,0.26393l-0.19,1.167c-0.0881,0.04522 -0.17544,0.0919 -0.262,0.14l-1.076,-0.49c-0.1093,-0.05014 -0.2368,-0.03993 -0.33673,0.02696c-0.09993,0.06689 -0.15796,0.18088 -0.15327,0.30104l0.041,1.184c-0.07715,0.06126 -0.15316,0.12393 -0.228,0.188l-1.153,-0.273c-0.11689,-0.02738 -0.23962,0.0076 -0.32451,0.09249c-0.08489,0.08489 -0.11987,0.20763 -0.09249,0.32451l0.271,1.153l-0.186,0.227l-1.184,-0.042c-0.12016,-0.0047 -0.23414,0.05334 -0.30104,0.15327c-0.06689,0.09993 -0.0771,0.22743 -0.02696,0.33673l0.49,1.077c-0.0481,0.08656 -0.09478,0.1739 -0.14,0.262l-1.166,0.19c-0.11793,0.01999 -0.21732,0.09914 -0.26321,0.2096c-0.04589,0.11046 -0.03184,0.23674 0.03721,0.3344l0.69,0.958c-0.03,0.09467 -0.059,0.19 -0.087,0.286l-1.106,0.414c-0.11198,0.04245 -0.19426,0.13951 -0.21783,0.25692c-0.02356,0.11742 0.0149,0.2387 0.10183,0.32108l0.866,0.807c-0.01067,0.098 -0.02,0.196 -0.028,0.294l-1.008,0.623c-0.10364,0.06216 -0.16705,0.17415 -0.16705,0.295c0,0.12085 0.06341,0.23284 0.16705,0.295l1.008,0.623l0.028,0.294l-0.866,0.807c-0.08796,0.08209 -0.12712,0.20388 -0.10349,0.32185c0.02363,0.11797 0.10669,0.21528 0.21949,0.25715l1.106,0.414c0.028,0.096 0.057,0.191 0.087,0.285l-0.69,0.959c-0.07084,0.09739 -0.08577,0.22466 -0.03939,0.3358c0.04638,0.11114 0.14734,0.19005 0.26639,0.2082l1.166,0.19c0.04533,0.088 0.092,0.17533 0.14,0.262l-0.49,1.076c-0.05014,0.1093 -0.03993,0.2368 0.02696,0.33673c0.06689,0.09993 0.18088,0.15796 0.30104,0.15327l1.183,-0.041c0.062,0.07667 0.12433,0.15233 0.187,0.227l-0.27,1.155c-0.02742,0.11662 0.00745,0.23913 0.09216,0.32384c0.08471,0.08471 0.20722,0.11958 0.32384,0.09216l1.153,-0.272c0.07467,0.064 0.15067,0.12633 0.228,0.187l-0.041,1.184c-0.0055,0.12041 0.05243,0.23491 0.15269,0.30182c0.10026,0.06691 0.22823,0.07646 0.33731,0.02518l1.076,-0.49c0.08667,0.04867 0.174,0.09533 0.262,0.14l0.19,1.167c0.01954,0.11845 0.09874,0.21846 0.20956,0.26462c0.11082,0.04616 0.2376,0.03194 0.33544,-0.03762l0.959,-0.69c0.09467,0.03 0.18967,0.05867 0.285,0.086l0.414,1.107c0.0418,0.11264 0.13903,0.19554 0.25687,0.21898c0.11784,0.02344 0.2394,-0.01592 0.32113,-0.10398l0.808,-0.865l0.294,0.03l0.623,1.006c0.06361,0.10165 0.17508,0.1634 0.295,0.1634c0.11992,0 0.23139,-0.06174 0.295,-0.1634l0.623,-1.007c0.09867,-0.00867 0.19667,-0.01867 0.294,-0.03l0.807,0.866c0.08223,0.08697 0.20339,0.12559 0.32078,0.10223c0.11739,-0.02336 0.21454,-0.1054 0.25722,-0.21723l0.414,-1.107c0.09553,-0.02723 0.19055,-0.05623 0.285,-0.087l0.959,0.69c0.09727,0.07131 0.22472,0.08664 0.33613,0.04045c0.11141,-0.0462 0.19061,-0.14723 0.20887,-0.26645l0.19,-1.166l0.262,-0.14l1.076,0.49c0.1093,0.05014 0.2368,0.03993 0.33673,-0.02696c0.09993,-0.06689 0.15796,-0.18088 0.15327,-0.30104l-0.041,-1.184c0.07667,-0.06 0.15233,-0.12233 0.227,-0.187l1.153,0.272c0.11677,0.02784 0.23962,-0.00683 0.32461,-0.09161c0.08498,-0.08478 0.11995,-0.20755 0.09239,-0.32439l-0.271,-1.155c0.06267,-0.07467 0.12467,-0.15033 0.186,-0.227l1.184,0.041c0.12059,0.00586 0.23542,-0.05191 0.30258,-0.15224c0.06716,-0.10033 0.07681,-0.22851 0.02542,-0.33776l-0.49,-1.076c0.048,-0.08667 0.095,-0.174 0.141,-0.262l1.166,-0.19c0.11793,-0.01999 0.21732,-0.09914 0.26321,-0.2096c0.04589,-0.11046 0.03184,-0.23674 -0.03721,-0.3344l-0.69,-0.959l0.087,-0.285l1.106,-0.414c0.1128,-0.04157 0.19593,-0.13871 0.21958,-0.25657c0.02365,-0.11786 -0.01556,-0.23956 -0.10358,-0.32143l-0.866,-0.808c0.01067,-0.098 0.02,-0.196 0.028,-0.294l1.008,-0.624c0.10266,-0.06265 0.16529,-0.17423 0.16529,-0.2945c0,-0.12027 -0.06263,-0.23185 -0.16529,-0.2945M17.092,20.058c-0.3778,-0.08957 -0.61478,-0.46462 -0.53346,-0.84428c0.08132,-0.37966 0.45112,-0.62475 0.83246,-0.55172c0.25233,0.05069 0.45786,0.23326 0.53794,0.47786c0.08008,0.2446 0.02232,0.51337 -0.15118,0.70347c-0.1735,0.1901 -0.43588,0.27212 -0.68676,0.21467zM16.75,17.744c-0.35095,-0.07471 -0.69606,0.1491 -0.771,0.5l-0.358,1.669c-1.1364,0.51663 -2.37068,0.78265 -3.619,0.78c-1.27654,0.00271 -2.53804,-0.27554 -3.695,-0.815l-0.357,-1.668c-0.07496,-0.35043 -0.41939,-0.57408 -0.77,-0.5l-1.474,0.317c-0.27299,-0.28241 -0.5272,-0.58238 -0.761,-0.898h7.167c0.081,0 0.136,-0.015 0.136,-0.088v-2.536c0,-0.074 -0.054,-0.089 -0.136,-0.089h-2.096v-1.606h2.268c0.206,0 1.106,0.059 1.393,1.209c0.09,0.353 0.288,1.504 0.424,1.872c0.134,0.413 0.683,1.239 1.268,1.239h3.572c0.04359,-0.00183 0.08702,-0.0065 0.13,-0.014c-0.24822,0.33613 -0.51954,0.65457 -0.812,0.953zM6.836,20.024c-0.25269,0.06877 -0.52275,-0.0061 -0.70396,-0.19517c-0.1812,-0.18906 -0.24455,-0.46206 -0.16512,-0.7116c0.07943,-0.24954 0.28893,-0.43569 0.54608,-0.48523c0.37746,-0.07271 0.74485,0.16603 0.83173,0.54048c0.08689,0.37445 -0.13783,0.75058 -0.50873,0.85152M4.117,8.997c0.12515,0.23163 0.11268,0.51333 -0.03245,0.73299c-0.14513,0.21966 -0.39935,0.34164 -0.66151,0.31738c-0.26215,-0.02426 -0.48969,-0.19081 -0.59204,-0.43337c-0.15528,-0.35269 -0.00268,-0.76496 0.34481,-0.93155c0.34749,-0.16659 0.76447,-0.02738 0.94219,0.31455M3.283,10.979l1.535,-0.683c0.15754,-0.07001 0.28082,-0.19974 0.34271,-0.36065c0.06189,-0.16091 0.05732,-0.33981 -0.01271,-0.49735l-0.316,-0.715h1.244v5.602h-2.509c-0.30882,-1.0874 -0.40525,-2.22412 -0.284,-3.348zM10.018,10.435v-1.651h2.96c0.153,0 1.08,0.177 1.08,0.87c0,0.574 -0.712,0.78 -1.296,0.78zM20.775,11.921c0,0.21867 -0.008,0.43567 -0.024,0.651h-0.9c-0.09,0 -0.127,0.059 -0.127,0.148v0.413c0,0.973 -0.548,1.184 -1.03,1.238c-0.457,0.052 -0.964,-0.191 -1.027,-0.472c-0.27,-1.518 -0.72,-1.843 -1.43,-2.403c0.881,-0.56 1.799,-1.386 1.799,-2.492c0,-1.193 -0.82,-1.945 -1.377,-2.315c-0.783,-0.516 -1.65,-0.62 -1.883,-0.62h-9.308c1.28643,-1.43797 3.01116,-2.41158 4.907,-2.77l1.098,1.152c0.24815,0.25863 0.65882,0.26757 0.918,0.02l1.227,-1.173c2.5317,0.47556 4.72684,2.03892 6.004,4.276l-0.84,1.898c-0.07034,0.15765 -0.07508,0.3368 -0.01317,0.49795c0.06191,0.16115 0.18537,0.29105 0.34317,0.36105l1.618,0.718c0.028,0.28667 0.042,0.57733 0.042,0.872zM11.475,2.321c0.18382,-0.17875 0.44946,-0.24503 0.69571,-0.1736c0.24625,0.07143 0.43518,0.26958 0.49481,0.51895c0.05963,0.24937 -0.01922,0.51155 -0.20652,0.68665c-0.28846,0.24274 -0.71593,0.21938 -0.97623,-0.05335c-0.26029,-0.27272 -0.2637,-0.70082 -0.00777,-0.97765M19.814,9.032c0.07618,-0.17282 0.21807,-0.30816 0.39429,-0.3761c0.17622,-0.06794 0.37224,-0.06286 0.54471,0.0141c0.26457,0.11632 0.43292,0.38066 0.42645,0.6696c-0.00647,0.28894 -0.18648,0.54548 -0.45599,0.64984c-0.26951,0.10436 -0.57535,0.03596 -0.77472,-0.17326c-0.19938,-0.20923 -0.25296,-0.51801 -0.13573,-0.78217z" fill="#62757e"></path></g></g>
  </g>
  <g id="Regular-S" transform="matrix(3.915 0 0 3.915 1402.75 614)">
    <defs><clipPath id="clip-1"><rect x="0" y="0" width="24" height="24" fill="none"></rect></clipPath><clipPath id="clip-2"><path d="M0,0h24v24h-24z" id="a" fill="none"></path></clipPath></defs>
<g clip-path="url(#clip-1)" fill="none" fill-rule="nonzero" stroke="none" stroke-width="1" stroke-linecap="butt" stroke-linejoin="miter" stroke-miterlimit="10" stroke-dasharray="" stroke-dashoffset="0" font-family="none" font-weight="none" font-size="none" text-anchor="none" style="mix-blend-mode: normal"><g clip-path="url(#clip-2)"><path d="M23.835,11.703l-1.008,-0.623l-0.028,-0.294l0.866,-0.807c0.08693,-0.08237 0.12539,-0.20366 0.10183,-0.32108c-0.02356,-0.11742 -0.10585,-0.21447 -0.21783,-0.25692l-1.106,-0.414c-0.02723,-0.09553 -0.05623,-0.19055 -0.087,-0.285l0.69,-0.96c0.07021,-0.09739 0.08492,-0.22422 0.03886,-0.33509c-0.04606,-0.11087 -0.14631,-0.18994 -0.26486,-0.20891l-1.166,-0.19c-0.04523,-0.08776 -0.0919,-0.17477 -0.14,-0.261l0.49,-1.076c0.07789,-0.16888 0.00747,-0.36908 -0.159,-0.452c-0.05256,-0.02679 -0.11104,-0.03986 -0.17,-0.038l-1.184,0.041c-0.06074,-0.07697 -0.12308,-0.15265 -0.187,-0.227l0.272,-1.153c0.02679,-0.11679 -0.00839,-0.23915 -0.09312,-0.32388c-0.08473,-0.08473 -0.20709,-0.11991 -0.32388,-0.09312l-1.153,0.272l-0.228,-0.187l0.041,-1.184c0.00586,-0.12059 -0.05191,-0.23542 -0.15224,-0.30258c-0.10033,-0.06716 -0.22851,-0.07681 -0.33776,-0.02542l-1.076,0.49c-0.08667,-0.048 -0.174,-0.09467 -0.262,-0.14l-0.19,-1.167c-0.02082,-0.11765 -0.10021,-0.21656 -0.21058,-0.26232c-0.11037,-0.04577 -0.23645,-0.03207 -0.33442,0.03632l-0.96,0.69c-0.09453,-0.0299 -0.18954,-0.05824 -0.285,-0.085l-0.414,-1.107c-0.04245,-0.11198 -0.13951,-0.19426 -0.25692,-0.21783c-0.11742,-0.02356 -0.2387,0.0149 -0.32108,0.10183l-0.807,0.867c-0.09784,-0.01094 -0.19585,-0.02028 -0.294,-0.028l-0.623,-1.008c-0.06326,-0.10214 -0.17486,-0.16429 -0.295,-0.16429c-0.12014,0 -0.23174,0.06215 -0.295,0.16429l-0.623,1.008c-0.098,0.008 -0.196,0.01733 -0.294,0.028l-0.808,-0.867c-0.08187,-0.08802 -0.20357,-0.12724 -0.32143,-0.10358c-0.11786,0.02365 -0.215,0.10679 -0.25657,0.21958l-0.414,1.106l-0.285,0.086l-0.959,-0.69c-0.0977,-0.06953 -0.22432,-0.08387 -0.33509,-0.03793c-0.11077,0.04593 -0.19009,0.14566 -0.20991,0.26393l-0.19,1.167c-0.0881,0.04522 -0.17544,0.0919 -0.262,0.14l-1.076,-0.49c-0.1093,-0.05014 -0.2368,-0.03993 -0.33673,0.02696c-0.09993,0.06689 -0.15796,0.18088 -0.15327,0.30104l0.041,1.184c-0.07715,0.06126 -0.15316,0.12393 -0.228,0.188l-1.153,-0.273c-0.11689,-0.02738 -0.23962,0.0076 -0.32451,0.09249c-0.08489,0.08489 -0.11987,0.20763 -0.09249,0.32451l0.271,1.153l-0.186,0.227l-1.184,-0.042c-0.12016,-0.0047 -0.23414,0.05334 -0.30104,0.15327c-0.06689,0.09993 -0.0771,0.22743 -0.02696,0.33673l0.49,1.077c-0.0481,0.08656 -0.09478,0.1739 -0.14,0.262l-1.166,0.19c-0.11793,0.01999 -0.21732,0.09914 -0.26321,0.2096c-0.04589,0.11046 -0.03184,0.23674 0.03721,0.3344l0.69,0.958c-0.03,0.09467 -0.059,0.19 -0.087,0.286l-1.106,0.414c-0.11198,0.04245 -0.19426,0.13951 -0.21783,0.25692c-0.02356,0.11742 0.0149,0.2387 0.10183,0.32108l0.866,0.807c-0.01067,0.098 -0.02,0.196 -0.028,0.294l-1.008,0.623c-0.10364,0.06216 -0.16705,0.17415 -0.16705,0.295c0,0.12085 0.06341,0.23284 0.16705,0.295l1.008,0.623l0.028,0.294l-0.866,0.807c-0.08796,0.08209 -0.12712,0.20388 -0.10349,0.32185c0.02363,0.11797 0.10669,0.21528 0.21949,0.25715l1.106,0.414c0.028,0.096 0.057,0.191 0.087,0.285l-0.69,0.959c-0.07084,0.09739 -0.08577,0.22466 -0.03939,0.3358c0.04638,0.11114 0.14734,0.19005 0.26639,0.2082l1.166,0.19c0.04533,0.088 0.092,0.17533 0.14,0.262l-0.49,1.076c-0.05014,0.1093 -0.03993,0.2368 0.02696,0.33673c0.06689,0.09993 0.18088,0.15796 0.30104,0.15327l1.183,-0.041c0.062,0.07667 0.12433,0.15233 0.187,0.227l-0.27,1.155c-0.02742,0.11662 0.00745,0.23913 0.09216,0.32384c0.08471,0.08471 0.20722,0.11958 0.32384,0.09216l1.153,-0.272c0.07467,0.064 0.15067,0.12633 0.228,0.187l-0.041,1.184c-0.0055,0.12041 0.05243,0.23491 0.15269,0.30182c0.10026,0.06691 0.22823,0.07646 0.33731,0.02518l1.076,-0.49c0.08667,0.04867 0.174,0.09533 0.262,0.14l0.19,1.167c0.01954,0.11845 0.09874,0.21846 0.20956,0.26462c0.11082,0.04616 0.2376,0.03194 0.33544,-0.03762l0.959,-0.69c0.09467,0.03 0.18967,0.05867 0.285,0.086l0.414,1.107c0.0418,0.11264 0.13903,0.19554 0.25687,0.21898c0.11784,0.02344 0.2394,-0.01592 0.32113,-0.10398l0.808,-0.865l0.294,0.03l0.623,1.006c0.06361,0.10165 0.17508,0.1634 0.295,0.1634c0.11992,0 0.23139,-0.06174 0.295,-0.1634l0.623,-1.007c0.09867,-0.00867 0.19667,-0.01867 0.294,-0.03l0.807,0.866c0.08223,0.08697 0.20339,0.12559 0.32078,0.10223c0.11739,-0.02336 0.21454,-0.1054 0.25722,-0.21723l0.414,-1.107c0.09553,-0.02723 0.19055,-0.05623 0.285,-0.087l0.959,0.69c0.09727,0.07131 0.22472,0.08664 0.33613,0.04045c0.11141,-0.0462 0.19061,-0.14723 0.20887,-0.26645l0.19,-1.166l0.262,-0.14l1.076,0.49c0.1093,0.05014 0.2368,0.03993 0.33673,-0.02696c0.09993,-0.06689 0.15796,-0.18088 0.15327,-0.30104l-0.041,-1.184c0.07667,-0.06 0.15233,-0.12233 0.227,-0.187l1.153,0.272c0.11677,0.02784 0.23962,-0.00683 0.32461,-0.09161c0.08498,-0.08478 0.11995,-0.20755 0.09239,-0.32439l-0.271,-1.155c0.06267,-0.07467 0.12467,-0.15033 0.186,-0.227l1.184,0.041c0.12059,0.00586 0.23542,-0.05191 0.30258,-0.15224c0.06716,-0.10033 0.07681,-0.22851 0.02542,-0.33776l-0.49,-1.076c0.048,-0.08667 0.095,-0.174 0.141,-0.262l1.166,-0.19c0.11793,-0.01999 0.21732,-0.09914 0.26321,-0.2096c0.04589,-0.11046 0.03184,-0.23674 -0.03721,-0.3344l-0.69,-0.959l0.087,-0.285l1.106,-0.414c0.1128,-0.04157 0.19593,-0.13871 0.21958,-0.25657c0.02365,-0.11786 -0.01556,-0.23956 -0.10358,-0.32143l-0.866,-0.808c0.01067,-0.098 0.02,-0.196 0.028,-0.294l1.008,-0.624c0.10266,-0.06265 0.16529,-0.17423 0.16529,-0.2945c0,-0.12027 -0.06263,-0.23185 -0.16529,-0.2945M17.092,20.058c-0.3778,-0.08957 -0.61478,-0.46462 -0.53346,-0.84428c0.08132,-0.37966 0.45112,-0.62475 0.83246,-0.55172c0.25233,0.05069 0.45786,0.23326 0.53794,0.47786c0.08008,0.2446 0.02232,0.51337 -0.15118,0.70347c-0.1735,0.1901 -0.43588,0.27212 -0.68676,0.21467zM16.75,17.744c-0.35095,-0.07471 -0.69606,0.1491 -0.771,0.5l-0.358,1.669c-1.1364,0.51663 -2.37068,0.78265 -3.619,0.78c-1.27654,0.00271 -2.53804,-0.27554 -3.695,-0.815l-0.357,-1.668c-0.07496,-0.35043 -0.41939,-0.57408 -0.77,-0.5l-1.474,0.317c-0.27299,-0.28241 -0.5272,-0.58238 -0.761,-0.898h7.167c0.081,0 0.136,-0.015 0.136,-0.088v-2.536c0,-0.074 -0.054,-0.089 -0.136,-0.089h-2.096v-1.606h2.268c0.206,0 1.106,0.059 1.393,1.209c0.09,0.353 0.288,1.504 0.424,1.872c0.134,0.413 0.683,1.239 1.268,1.239h3.572c0.04359,-0.00183 0.08702,-0.0065 0.13,-0.014c-0.24822,0.33613 -0.51954,0.65457 -0.812,0.953zM6.836,20.024c-0.25269,0.06877 -0.52275,-0.0061 -0.70396,-0.19517c-0.1812,-0.18906 -0.24455,-0.46206 -0.16512,-0.7116c0.07943,-0.24954 0.28893,-0.43569 0.54608,-0.48523c0.37746,-0.07271 0.74485,0.16603 0.83173,0.54048c0.08689,0.37445 -0.13783,0.75058 -0.50873,0.85152M4.117,8.997c0.12515,0.23163 0.11268,0.51333 -0.03245,0.73299c-0.14513,0.21966 -0.39935,0.34164 -0.66151,0.31738c-0.26215,-0.02426 -0.48969,-0.19081 -0.59204,-0.43337c-0.15528,-0.35269 -0.00268,-0.76496 0.34481,-0.93155c0.34749,-0.16659 0.76447,-0.02738 0.94219,0.31455M3.283,10.979l1.535,-0.683c0.15754,-0.07001 0.28082,-0.19974 0.34271,-0.36065c0.06189,-0.16091 0.05732,-0.33981 -0.01271,-0.49735l-0.316,-0.715h1.244v5.602h-2.509c-0.30882,-1.0874 -0.40525,-2.22412 -0.284,-3.348zM10.018,10.435v-1.651h2.96c0.153,0 1.08,0.177 1.08,0.87c0,0.574 -0.712,0.78 -1.296,0.78zM20.775,11.921c0,0.21867 -0.008,0.43567 -0.024,0.651h-0.9c-0.09,0 -0.127,0.059 -0.127,0.148v0.413c0,0.973 -0.548,1.184 -1.03,1.238c-0.457,0.052 -0.964,-0.191 -1.027,-0.472c-0.27,-1.518 -0.72,-1.843 -1.43,-2.403c0.881,-0.56 1.799,-1.386 1.799,-2.492c0,-1.193 -0.82,-1.945 -1.377,-2.315c-0.783,-0.516 -1.65,-0.62 -1.883,-0.62h-9.308c1.28643,-1.43797 3.01116,-2.41158 4.907,-2.77l1.098,1.152c0.24815,0.25863 0.65882,0.26757 0.918,0.02l1.227,-1.173c2.5317,0.47556 4.72684,2.03892 6.004,4.276l-0.84,1.898c-0.07034,0.15765 -0.07508,0.3368 -0.01317,0.49795c0.06191,0.16115 0.18537,0.29105 0.34317,0.36105l1.618,0.718c0.028,0.28667 0.042,0.57733 0.042,0.872zM11.475,2.321c0.18382,-0.17875 0.44946,-0.24503 0.69571,-0.1736c0.24625,0.07143 0.43518,0.26958 0.49481,0.51895c0.05963,0.24937 -0.01922,0.51155 -0.20652,0.68665c-0.28846,0.24274 -0.71593,0.21938 -0.97623,-0.05335c-0.26029,-0.27272 -0.2637,-0.70082 -0.00777,-0.97765M19.814,9.032c0.07618,-0.17282 0.21807,-0.30816 0.39429,-0.3761c0.17622,-0.06794 0.37224,-0.06286 0.54471,0.0141c0.26457,0.11632 0.43292,0.38066 0.42645,0.6696c-0.00647,0.28894 -0.18648,0.54548 -0.45599,0.64984c-0.26951,0.10436 -0.57535,0.03596 -0.77472,-0.17326c-0.19938,-0.20923 -0.25296,-0.51801 -0.13573,-0.78217z" fill="#62757e"></path></g></g>
  </g>
 </g>
</svg>
