<?xml version="1.0" encoding="UTF-8"?>
<!--Generator: Apple Native CoreSVG 175.5-->
<!DOCTYPE svg
PUBLIC "-//W3C//DTD SVG 1.1//EN"
       "http://www.w3.org/Graphics/SVG/1.1/DTD/svg11.dtd">
<svg version="1.1" xmlns="http://www.w3.org/2000/svg" xmlns:xlink="http://www.w3.org/1999/xlink" width="3300" height="2200">
 <!--glyph: "", point size: 100.0, font version: "18.0d12e2", template writer version: "101"-->
 <g id="Notes">
  <rect height="2200" id="artboard" style="fill:white;opacity:1" width="3300" x="0" y="0"/>
  <line style="fill:none;stroke:black;opacity:1;stroke-width:0.5;" x1="263" x2="3036" y1="292" y2="292"/>
  <text style="stroke:none;fill:black;font-family:sans-serif;font-size:13;font-weight:bold;" transform="matrix(1 0 0 1 263 322)">Weight/Scale Variations</text>
  <text style="stroke:none;fill:black;font-family:sans-serif;font-size:13;text-anchor:middle;" transform="matrix(1 0 0 1 559.711 322)">Ultralight</text>
  <text style="stroke:none;fill:black;font-family:sans-serif;font-size:13;text-anchor:middle;" transform="matrix(1 0 0 1 856.422 322)">Thin</text>
  <text style="stroke:none;fill:black;font-family:sans-serif;font-size:13;text-anchor:middle;" transform="matrix(1 0 0 1 1153.13 322)">Light</text>
  <text style="stroke:none;fill:black;font-family:sans-serif;font-size:13;text-anchor:middle;" transform="matrix(1 0 0 1 1449.84 322)">Regular</text>
  <text style="stroke:none;fill:black;font-family:sans-serif;font-size:13;text-anchor:middle;" transform="matrix(1 0 0 1 1746.56 322)">Medium</text>
  <text style="stroke:none;fill:black;font-family:sans-serif;font-size:13;text-anchor:middle;" transform="matrix(1 0 0 1 2043.27 322)">Semibold</text>
  <text style="stroke:none;fill:black;font-family:sans-serif;font-size:13;text-anchor:middle;" transform="matrix(1 0 0 1 2339.98 322)">Bold</text>
  <text style="stroke:none;fill:black;font-family:sans-serif;font-size:13;text-anchor:middle;" transform="matrix(1 0 0 1 2636.69 322)">Heavy</text>
  <text style="stroke:none;fill:black;font-family:sans-serif;font-size:13;text-anchor:middle;" transform="matrix(1 0 0 1 2933.4 322)">Black</text>
  <line style="fill:none;stroke:black;opacity:1;stroke-width:0.5;" x1="263" x2="3036" y1="1903" y2="1903"/>
  <g transform="matrix(1 0 0 1 263 1933)">
   <path d="M9.24805 0.830078C13.5547 0.830078 17.1387-2.74414 17.1387-7.05078C17.1387-11.3574 13.5449-14.9316 9.23828-14.9316C4.94141-14.9316 1.36719-11.3574 1.36719-7.05078C1.36719-2.74414 4.95117 0.830078 9.24805 0.830078ZM9.24805-0.654297C5.70312-0.654297 2.87109-3.49609 2.87109-7.05078C2.87109-10.6055 5.69336-13.4473 9.23828-13.4473C12.793-13.4473 15.6445-10.6055 15.6445-7.05078C15.6445-3.49609 12.8027-0.654297 9.24805-0.654297ZM5.6543-7.05078C5.6543-6.62109 5.95703-6.32812 6.40625-6.32812L8.50586-6.32812L8.50586-4.20898C8.50586-3.76953 8.79883-3.4668 9.22852-3.4668C9.67773-3.4668 9.9707-3.76953 9.9707-4.20898L9.9707-6.32812L12.0898-6.32812C12.5293-6.32812 12.832-6.62109 12.832-7.05078C12.832-7.49023 12.5293-7.79297 12.0898-7.79297L9.9707-7.79297L9.9707-9.90234C9.9707-10.3516 9.67773-10.6543 9.22852-10.6543C8.79883-10.6543 8.50586-10.3516 8.50586-9.90234L8.50586-7.79297L6.40625-7.79297C5.95703-7.79297 5.6543-7.49023 5.6543-7.05078Z"/>
  </g>
  <g transform="matrix(1 0 0 1 281.867 1933)">
   <path d="M11.709 2.91016C17.1582 2.91016 21.6699-1.61133 21.6699-7.05078C21.6699-12.5 17.1484-17.0117 11.6992-17.0117C6.25977-17.0117 1.74805-12.5 1.74805-7.05078C1.74805-1.61133 6.26953 2.91016 11.709 2.91016ZM11.709 1.25C7.09961 1.25 3.41797-2.44141 3.41797-7.05078C3.41797-11.6602 7.08984-15.3516 11.6992-15.3516C16.3086-15.3516 20.0098-11.6602 20.0098-7.05078C20.0098-2.44141 16.3184 1.25 11.709 1.25ZM7.17773-7.05078C7.17773-6.57227 7.50977-6.25 8.00781-6.25L10.8789-6.25L10.8789-3.36914C10.8789-2.88086 11.2109-2.53906 11.6895-2.53906C12.1777-2.53906 12.5195-2.87109 12.5195-3.36914L12.5195-6.25L15.4004-6.25C15.8887-6.25 16.2305-6.57227 16.2305-7.05078C16.2305-7.53906 15.8887-7.88086 15.4004-7.88086L12.5195-7.88086L12.5195-10.752C12.5195-11.25 12.1777-11.5918 11.6895-11.5918C11.2109-11.5918 10.8789-11.25 10.8789-10.752L10.8789-7.88086L8.00781-7.88086C7.50977-7.88086 7.17773-7.53906 7.17773-7.05078Z"/>
  </g>
  <g transform="matrix(1 0 0 1 305.646 1933)">
   <path d="M14.9707 5.66406C21.9336 5.66406 27.6953-0.0976562 27.6953-7.05078C27.6953-14.0137 21.9238-19.7754 14.9609-19.7754C8.00781-19.7754 2.25586-14.0137 2.25586-7.05078C2.25586-0.0976562 8.01758 5.66406 14.9707 5.66406ZM14.9707 3.84766C8.93555 3.84766 4.08203-1.01562 4.08203-7.05078C4.08203-13.0957 8.92578-17.9492 14.9609-17.9492C21.0059-17.9492 25.8691-13.0957 25.8691-7.05078C25.8691-1.01562 21.0156 3.84766 14.9707 3.84766ZM9.19922-7.05078C9.19922-6.5332 9.57031-6.17188 10.1172-6.17188L14.0625-6.17188L14.0625-2.2168C14.0625-1.67969 14.4336-1.29883 14.9512-1.29883C15.4883-1.29883 15.8594-1.66992 15.8594-2.2168L15.8594-6.17188L19.8145-6.17188C20.3516-6.17188 20.7324-6.5332 20.7324-7.05078C20.7324-7.59766 20.3613-7.96875 19.8145-7.96875L15.8594-7.96875L15.8594-11.9141C15.8594-12.4609 15.4883-12.8418 14.9512-12.8418C14.4336-12.8418 14.0625-12.4609 14.0625-11.9141L14.0625-7.96875L10.1172-7.96875C9.57031-7.96875 9.19922-7.59766 9.19922-7.05078Z"/>
  </g>
  <text style="stroke:none;fill:black;font-family:sans-serif;font-size:13;font-weight:bold;" transform="matrix(1 0 0 1 263 1953)">Design Variations</text>
  <text style="stroke:none;fill:black;font-family:sans-serif;font-size:13;" transform="matrix(1 0 0 1 263 1971)">Symbols are supported in up to nine weights and three scales.</text>
  <text style="stroke:none;fill:black;font-family:sans-serif;font-size:13;" transform="matrix(1 0 0 1 263 1989)">For optimal layout with text and other symbols, vertically align</text>
  <text style="stroke:none;fill:black;font-family:sans-serif;font-size:13;" transform="matrix(1 0 0 1 263 2007)">symbols with the adjacent text.</text>
  <line style="fill:none;stroke:#00AEEF;stroke-width:0.5;opacity:1.0;" x1="776" x2="776" y1="1919" y2="1933"/>
  <g transform="matrix(1 0 0 1 776 1933)">
   <path d="M3.31055 0.15625C3.82812 0.15625 4.08203-0.0390625 4.26758-0.585938L5.52734-4.0332L11.2891-4.0332L12.5488-0.585938C12.7344-0.0390625 12.9883 0.15625 13.4961 0.15625C14.0137 0.15625 14.3457-0.15625 14.3457-0.644531C14.3457-0.810547 14.3164-0.966797 14.2383-1.17188L9.6582-13.3691C9.43359-13.9648 9.0332-14.2676 8.4082-14.2676C7.80273-14.2676 7.39258-13.9746 7.17773-13.3789L2.59766-1.16211C2.51953-0.957031 2.49023-0.800781 2.49023-0.634766C2.49023-0.146484 2.80273 0.15625 3.31055 0.15625ZM6.00586-5.51758L8.37891-12.0898L8.42773-12.0898L10.8008-5.51758Z"/>
  </g>
  <line style="fill:none;stroke:#00AEEF;stroke-width:0.5;opacity:1.0;" x1="793.197" x2="793.197" y1="1919" y2="1933"/>
  <text style="stroke:none;fill:black;font-family:sans-serif;font-size:13;font-weight:bold;" transform="matrix(1 0 0 1 776 1953)">Margins</text>
  <text style="stroke:none;fill:black;font-family:sans-serif;font-size:13;" transform="matrix(1 0 0 1 776 1971)">Leading and trailing margins on the left and right side of each symbol</text>
  <text style="stroke:none;fill:black;font-family:sans-serif;font-size:13;" transform="matrix(1 0 0 1 776 1989)">can be adjusted by modifying the x-location of the margin guidelines.</text>
  <text style="stroke:none;fill:black;font-family:sans-serif;font-size:13;" transform="matrix(1 0 0 1 776 2007)">Modifications are automatically applied proportionally to all</text>
  <text style="stroke:none;fill:black;font-family:sans-serif;font-size:13;" transform="matrix(1 0 0 1 776 2025)">scales and weights.</text>
  <g transform="matrix(1 0 0 1 1289 1933)">
   <path d="M2.8418 1.86523L4.54102 3.57422C5.40039 4.44336 6.38672 4.38477 7.31445 3.35938L18.0078-8.42773L17.041-9.4043L6.42578 2.27539C6.07422 2.67578 5.74219 2.77344 5.27344 2.30469L4.10156 1.14258C3.63281 0.683594 3.74023 0.341797 4.14062-0.0195312L15.6152-10.8203L14.6387-11.7871L3.04688-0.898438C2.06055 0.0195312 1.98242 0.996094 2.8418 1.86523ZM9.25781-16.3281C8.83789-15.918 8.80859-15.3418 9.04297-14.9512C9.27734-14.5898 9.73633-14.3555 10.3809-14.5215C11.8457-14.8633 13.3691-14.9219 14.7949-13.9844L14.209-12.5293C13.8672-11.6992 14.043-11.1133 14.5801-10.5664L16.875-8.25195C17.3633-7.76367 17.7734-7.74414 18.3398-7.8418L19.4043-8.03711L20.0684-7.36328L20.0293-6.80664C19.9902-6.30859 20.1172-5.92773 20.6055-5.44922L21.3672-4.70703C21.8457-4.22852 22.4609-4.19922 22.9297-4.66797L25.8398-7.58789C26.3086-8.05664 26.2891-8.65234 25.8105-9.13086L25.0391-9.89258C24.5605-10.3711 24.1895-10.5273 23.7109-10.4883L23.1348-10.4395L22.4902-11.0742L22.7344-12.1973C22.8613-12.7637 22.7051-13.2031 22.1191-13.7891L19.9219-15.9766C16.582-19.2969 12.1484-19.2188 9.25781-16.3281ZM10.752-15.957C13.1836-17.7344 16.4746-17.4316 18.7012-15.2051L21.1328-12.793C21.3672-12.5586 21.4062-12.373 21.3379-12.0312L21.0156-10.5469L22.5195-9.0625L23.5059-9.12109C23.7598-9.13086 23.8379-9.11133 24.0332-8.91602L24.6094-8.33984L22.168-5.89844L21.5918-6.47461C21.3965-6.66992 21.3672-6.74805 21.377-7.01172L21.4453-7.98828L19.9512-9.47266L18.4277-9.21875C18.1055-9.15039 17.959-9.17969 17.7148-9.41406L15.7129-11.416C15.459-11.6504 15.4297-11.8164 15.5859-12.1875L16.4648-14.2773C14.9023-15.7324 12.8711-16.3574 10.8398-15.7617C10.6836-15.7227 10.625-15.8496 10.752-15.957Z"/>
  </g>
  <text style="stroke:none;fill:black;font-family:sans-serif;font-size:13;font-weight:bold;" transform="matrix(1 0 0 1 1289 1953)">Exporting</text>
  <text style="stroke:none;fill:black;font-family:sans-serif;font-size:13;" transform="matrix(1 0 0 1 1289 1971)">Symbols should be outlined when exporting to ensure the</text>
  <text style="stroke:none;fill:black;font-family:sans-serif;font-size:13;" transform="matrix(1 0 0 1 1289 1989)">design is preserved when submitting to Xcode.</text>
  <text id="template-version" style="stroke:none;fill:black;font-family:sans-serif;font-size:13;text-anchor:end;" transform="matrix(1 0 0 1 3036 1933)">Template v.4.0</text>
  <text style="stroke:none;fill:black;font-family:sans-serif;font-size:13;text-anchor:end;" transform="matrix(1 0 0 1 3036 1951)">Requires Xcode 14 or greater</text>
  <text id="descriptive-name" style="stroke:none;fill:black;font-family:sans-serif;font-size:13;text-anchor:end;" transform="matrix(1 0 0 1 3036 1969)">Generated from brave.zzz</text>
  <text style="stroke:none;fill:black;font-family:sans-serif;font-size:13;text-anchor:end;" transform="matrix(1 0 0 1 3036 1987)">Typeset at 100 points</text>
  <text style="stroke:none;fill:black;font-family:sans-serif;font-size:13;" transform="matrix(1 0 0 1 263 726)">Small</text>
  <text style="stroke:none;fill:black;font-family:sans-serif;font-size:13;" transform="matrix(1 0 0 1 263 1156)">Medium</text>
  <text style="stroke:none;fill:black;font-family:sans-serif;font-size:13;" transform="matrix(1 0 0 1 263 1586)">Large</text>
 </g>
 <g id="Guides">
  <g id="H-reference" style="fill:#27AAE1;stroke:none;" transform="matrix(1 0 0 1 339 696)">
   <path d="M0.993654 0L3.63775 0L29.3281-67.1323L30.0303-67.1323L30.0303-70.459L28.1226-70.459ZM11.6885-24.4799L46.9815-24.4799L46.2315-26.7285L12.4385-26.7285ZM55.1196 0L57.7637 0L30.6382-70.459L29.4326-70.459L29.4326-67.1323Z"/>
  </g>
  <line id="Baseline-S" style="fill:none;stroke:#27AAE1;opacity:1;stroke-width:0.5;" x1="263" x2="3036" y1="696" y2="696"/>
  <line id="Capline-S" style="fill:none;stroke:#27AAE1;opacity:1;stroke-width:0.5;" x1="263" x2="3036" y1="625.541" y2="625.541"/>
  <g id="H-reference" style="fill:#27AAE1;stroke:none;" transform="matrix(1 0 0 1 339 1126)">
   <path d="M0.993654 0L3.63775 0L29.3281-67.1323L30.0303-67.1323L30.0303-70.459L28.1226-70.459ZM11.6885-24.4799L46.9815-24.4799L46.2315-26.7285L12.4385-26.7285ZM55.1196 0L57.7637 0L30.6382-70.459L29.4326-70.459L29.4326-67.1323Z"/>
  </g>
  <line id="Baseline-M" style="fill:none;stroke:#27AAE1;opacity:1;stroke-width:0.5;" x1="263" x2="3036" y1="1126" y2="1126"/>
  <line id="Capline-M" style="fill:none;stroke:#27AAE1;opacity:1;stroke-width:0.5;" x1="263" x2="3036" y1="1055.54" y2="1055.54"/>
  <g id="H-reference" style="fill:#27AAE1;stroke:none;" transform="matrix(1 0 0 1 339 1556)">
   <path d="M0.993654 0L3.63775 0L29.3281-67.1323L30.0303-67.1323L30.0303-70.459L28.1226-70.459ZM11.6885-24.4799L46.9815-24.4799L46.2315-26.7285L12.4385-26.7285ZM55.1196 0L57.7637 0L30.6382-70.459L29.4326-70.459L29.4326-67.1323Z"/>
  </g>
  <line id="Baseline-L" style="fill:none;stroke:#27AAE1;opacity:1;stroke-width:0.5;" x1="263" x2="3036" y1="1556" y2="1556"/>
  <line id="Capline-L" style="fill:none;stroke:#27AAE1;opacity:1;stroke-width:0.5;" x1="263" x2="3036" y1="1485.54" y2="1485.54"/>
  <line id="left-margin-Regular-M" style="fill:none;stroke:#00AEEF;stroke-width:0.5;opacity:1.0;" x1="1389.82" x2="1389.82" y1="1030.79" y2="1150.12"/>
  <line id="right-margin-Regular-M" style="fill:none;stroke:#00AEEF;stroke-width:0.5;opacity:1.0;" x1="1509.87" x2="1509.87" y1="1030.79" y2="1150.12"/>
 </g>
 <g id="Symbols">
  <g id="Regular-L" transform="matrix(6.45 0 0 6.45 1372.2675 1443)">
    <defs><clipPath id="clip-1"><rect x="0" y="0" width="24" height="24" fill="none" fill-rule="nonzero"></rect></clipPath></defs>
<g clip-path="url(#clip-1)" fill="none" fill-rule="none" stroke="none" stroke-width="1" stroke-linecap="butt" stroke-linejoin="miter" stroke-miterlimit="10" stroke-dasharray="" stroke-dashoffset="0" font-family="none" font-weight="none" font-size="none" text-anchor="none" style="mix-blend-mode: normal"><path d="M19.538,12.598c-0.0814,-0.01408 -0.1534,-0.06112 -0.199,-0.13l-0.003,-0.005l-0.098,-0.12c-0.058,-0.07 -0.12,-0.143 -0.184,-0.23l-0.02,-0.023l-0.03,-0.033c-0.02541,-0.02288 -0.04671,-0.04994 -0.063,-0.08l-0.136,-0.232l-0.135,-0.23c-0.0336,-0.06424 -0.05529,-0.13403 -0.064,-0.206v-0.001l-0.009,-0.052l-0.007,-0.036l-0.026,-0.182l-0.005,-0.04c-0.01604,-0.1071 -0.05127,-0.21042 -0.104,-0.305l-0.158,-0.286l-0.062,-0.123c-0.08511,-0.17001 -0.21693,-0.31224 -0.38,-0.41l-0.112,-0.066l-0.045,-0.033c-0.08719,-0.05207 -0.1547,-0.13154 -0.192,-0.226c-0.068,-0.17 -0.136,-0.328 -0.215,-0.509l-0.056,-0.124c-0.012,-0.028 -0.02533,-0.057 -0.04,-0.087c-0.0489,-0.11171 -0.1287,-0.20712 -0.23,-0.275l-0.227,-0.146c-0.11444,-0.07791 -0.18871,-0.2023 -0.203,-0.34l-0.026,-0.282c-0.01047,-0.14766 -0.0644,-0.28893 -0.155,-0.406l-0.055,-0.068c-0.03135,-0.03779 -0.06544,-0.07322 -0.102,-0.106l-0.137,-0.12c-0.06533,-0.056 -0.12933,-0.11267 -0.192,-0.17c-0.05676,-0.0432 -0.09982,-0.10189 -0.124,-0.169l-0.068,-0.18l-0.028,-0.065c-0.03483,-0.08138 -0.09568,-0.14891 -0.173,-0.192l-0.262,-0.14c-0.12622,-0.06544 -0.21409,-0.18668 -0.237,-0.327l-0.037,-0.234c-0.01901,-0.12388 -0.09236,-0.2328 -0.2,-0.297l-0.148,-0.079c-0.10466,-0.0633 -0.1812,-0.16417 -0.214,-0.282l-0.023,-0.085c-0.04749,-0.18329 -0.17871,-0.33342 -0.354,-0.405l-0.076,-0.03c-0.078,-0.02078 -0.14605,-0.06864 -0.192,-0.135l-0.113,-0.147c-0.068,-0.09 -0.136,-0.18 -0.215,-0.271c-0.0329,-0.04912 -0.05944,-0.10221 -0.079,-0.158l-0.013,-0.045c-0.07167,-0.23924 -0.23286,-0.44162 -0.45,-0.565c-0.07816,-0.03906 -0.14138,-0.10263 -0.18,-0.181l-0.272,-0.52c-0.04268,-0.09002 -0.08872,-0.17842 -0.138,-0.265l-0.054,-0.096c-0.03016,-0.05952 -0.07004,-0.1136 -0.118,-0.16l-0.034,-0.032c-0.03733,-0.034 -0.07333,-0.068 -0.108,-0.102l-0.18,-0.18c-0.02933,-0.03467 -0.05933,-0.06867 -0.09,-0.102l-0.091,-0.102l-0.113,-0.124c-0.11906,-0.13225 -0.14833,-0.32253 -0.07453,-0.48445c0.0738,-0.16192 0.23661,-0.26465 0.41453,-0.26155c0.1239,0.00493 0.24108,0.0576 0.327,0.147l0.102,0.102l0.148,0.166c0.02933,0.032 0.06067,0.062 0.094,0.09l0.097,0.082c0.063,0.053 0.135,0.115 0.199,0.186c0.01,0.01133 0.02333,0.01733 0.04,0.018c0.00667,0 0.013,0.00133 0.019,0.004l0.397,0.165l0.037,0.021l0.01,0.007l0.03,0.018l0.093,0.056l0.18,0.113c0.05933,0.036 0.11967,0.07367 0.181,0.113c0.03812,0.02804 0.0733,0.05987 0.105,0.095l0.358,0.39l0.341,0.332l0.029,0.027c0.03617,0.03169 0.0684,0.06761 0.096,0.107l0.005,0.008c0.01,0.016 0.019,0.03233 0.027,0.049c0.03467,0.07333 0.07167,0.148 0.111,0.224l0.07,0.135c0.03,0.052 0.06867,0.09667 0.116,0.134l0.058,0.046c0.042,0.034 0.08533,0.068 0.13,0.102l0.041,0.029c0.04933,0.032 0.09267,0.07033 0.13,0.115l0.055,0.07l0.217,0.372c0.01395,0.02274 0.03231,0.04246 0.054,0.058c0.062,0.034 0.12433,0.06967 0.187,0.107c0.062,0.03733 0.124,0.07333 0.186,0.108c0.06472,0.04319 0.12042,0.09855 0.164,0.163l0.288,0.402l0.373,0.429l0.023,0.027c0.01867,0.02867 0.03467,0.05867 0.048,0.09l0.016,0.037c0.04667,0.096 0.093,0.19533 0.139,0.298l0.035,0.076c0.02133,0.04667 0.04633,0.09167 0.075,0.135l0.087,0.133l0.064,0.098c0.04502,0.06571 0.09772,0.1258 0.157,0.179c0.101,0.079 0.203,0.17 0.305,0.26c0.07619,0.06805 0.12755,0.15953 0.146,0.26l0.031,0.162c0.03873,0.20257 0.14101,0.38752 0.292,0.528l0.043,0.04c0.03986,0.03953 0.07632,0.08235 0.109,0.128l0.067,0.104c0.05667,0.084 0.10967,0.17 0.159,0.258c0.03067,0.05267 0.068,0.09933 0.112,0.14l0.13,0.125l0.198,0.187c0.046,0.045 0.08,0.101 0.102,0.158l0.068,0.17c0.02,0.05467 0.04233,0.11167 0.067,0.171c0.03,0.07067 0.06,0.149 0.09,0.235l0.122,0.429c0.01713,0.06034 0.0399,0.11893 0.068,0.175l0.184,0.367l0.203,0.373l0.01,0.024c0.024,0.052 0.05167,0.10133 0.083,0.148l0.064,0.095c0.077,0.114 0.159,0.232 0.25,0.377l0.056,0.113c0.08,0.135 0.147,0.271 0.192,0.373l0.102,0.17c0.034,0.05667 0.068,0.11467 0.102,0.174c0.03333,0.06 0.067,0.11833 0.101,0.175c0.02235,0.04116 0.0398,0.08479 0.052,0.13l0.008,0.027c0.00477,0.01626 0.00746,0.03306 0.008,0.05v0.098l0.013,0.122l0.006,0.053c0.016,0.138 0.042,0.369 -0.094,0.342l-0.025,-0.009c-0.45745,-0.23245 -0.94518,-0.39974 -1.449,-0.497M15.507,13.388c-0.409,0.266 -1.011,0.12 -1.356,-0.224c-0.07012,-0.08177 -0.12043,-0.17861 -0.147,-0.283c-0.028,-0.151 -0.064,-0.293 -0.102,-0.441l-0.022,-0.09l-0.057,-0.214c-0.01133,-0.04 -0.02233,-0.08167 -0.033,-0.125c-0.02318,-0.08115 -0.06653,-0.15512 -0.126,-0.215l-0.293,-0.293c-0.08787,-0.09082 -0.13638,-0.21263 -0.135,-0.339l0.013,-0.315c0.006,-0.149 -0.021,-0.299 -0.095,-0.429l-0.02,-0.035l-0.054,-0.095c-0.024,-0.04267 -0.051,-0.083 -0.081,-0.121l-0.136,-0.175c-0.06,-0.07533 -0.12,-0.152 -0.18,-0.23c-0.03979,-0.04951 -0.06721,-0.10779 -0.08,-0.17l-0.034,-0.124l-0.017,-0.086c-0.035,-0.167 -0.132,-0.311 -0.265,-0.417c-0.06867,-0.05333 -0.13633,-0.108 -0.203,-0.164c-0.08061,-0.06729 -0.13799,-0.15826 -0.164,-0.26c-0.01267,-0.052 -0.01833,-0.10533 -0.017,-0.16v-0.148c0.0025,-0.16348 -0.06786,-0.3196 -0.192,-0.426l-0.147,-0.124c-0.08346,-0.072 -0.13608,-0.17331 -0.147,-0.283l-0.031,-0.203c-0.024,-0.151 -0.109,-0.286 -0.234,-0.373c-0.06467,-0.04533 -0.13067,-0.09033 -0.198,-0.135c-0.067,-0.034 -0.113,-0.091 -0.147,-0.148l-0.305,-0.53c-0.03106,-0.05402 -0.05175,-0.11338 -0.061,-0.175l-0.05,-0.307c-0.016,-0.097 -0.066,-0.186 -0.143,-0.247c-0.03933,-0.03067 -0.079,-0.06267 -0.119,-0.096l-0.135,-0.113c-0.056,-0.056 -0.113,-0.124 -0.136,-0.203c-0.068,-0.192 -0.135,-0.384 -0.214,-0.588c-0.02674,-0.05701 -0.06105,-0.11016 -0.102,-0.158c-0.079,-0.101 -0.17,-0.226 -0.226,-0.361l-0.226,-0.509c-0.056,-0.102 -0.113,-0.192 -0.169,-0.282l-0.079,-0.124c-0.12899,-0.21247 -0.06406,-0.48911 0.146,-0.622c0.21028,-0.12866 0.4846,-0.06868 0.622,0.136l0.068,0.113c0.02859,0.04985 0.0586,0.09887 0.09,0.147l0.034,0.053c0.03836,0.06193 0.08149,0.12078 0.129,0.176l0.222,0.25c0.03706,0.04164 0.07753,0.08011 0.121,0.115l0.398,0.32l0.462,0.43c0.0355,0.0384 0.06793,0.07953 0.097,0.123l0.073,0.114l0.092,0.139c0.05,0.075 0.099,0.148 0.134,0.212l0.348,0.474l0.038,0.059l0.013,0.02l0.018,0.03l0.002,0.002l0.27,0.51c0.07675,0.14249 0.16329,0.27949 0.259,0.41l0.025,0.031c0.02138,0.0263 0.0414,0.05367 0.06,0.082l0.04,0.076l0.174,0.435c0.02016,0.04864 0.04973,0.09281 0.087,0.13c0.12237,0.09849 0.2424,0.19985 0.36,0.304c0.04867,0.04624 0.08923,0.10033 0.12,0.16l0.265,0.508l0.302,0.5l0.026,0.038l0.029,0.041c0.01159,0.02178 0.01905,0.04551 0.022,0.07l0.009,0.036l0.047,0.152v0.001c0.03,0.09067 0.058,0.184 0.084,0.28l0.013,0.043c0.01401,0.04654 0.03138,0.09199 0.052,0.136l0.082,0.182h0.001v0.003l0.06,0.132c0.03473,0.0755 0.07874,0.14638 0.131,0.211l0.023,0.027c0.10049,0.11129 0.19463,0.22814 0.282,0.35c0.057,0.08 0.09,0.17 0.09,0.26l0.01,0.229c0.00878,0.19695 0.07558,0.3869 0.192,0.546l0.096,0.133l0.037,0.06l0.016,0.026c0.03622,0.07822 0.06991,0.1576 0.101,0.238c0.02533,0.06467 0.052,0.12833 0.08,0.191l0.006,0.016c0.03309,0.09486 0.08029,0.1842 0.14,0.265l0.13,0.182l0.096,0.136l0.045,0.057c0.03421,0.04702 0.05776,0.10094 0.069,0.158l0.01,0.051c0.06567,0.32643 -0.07772,0.65941 -0.36,0.836zM12.684,19.376c-0.01196,-0.00232 -0.02435,0.0003 -0.03433,0.00728c-0.00999,0.00697 -0.01672,0.0177 -0.01867,0.02972c-0.019,0.124 -0.038,0.249 -0.07,0.374c-0.01602,0.05798 -0.01875,0.11882 -0.008,0.178l0.022,0.152c0.00787,0.06221 0.01721,0.12423 0.028,0.186l0.034,0.214c0.01218,0.05601 0.01218,0.11399 0,0.17c-0.02133,0.07933 -0.042,0.16033 -0.062,0.243c-0.03607,0.1604 -0.03879,0.3265 -0.008,0.488c0.068,0.384 0.102,0.9 0.048,1.156l-0.068,0.542c-0.03434,0.20895 -0.20689,0.36747 -0.418,0.384h-0.034c-0.20297,-0.00029 -0.38176,-0.13357 -0.44,-0.328l-0.08,-0.282l-0.07,-0.227l-0.008,-0.027c-0.012,-0.035 -0.024,-0.07 -0.024,-0.107c-0.022,-0.17 -0.056,-0.339 -0.09,-0.508l-0.012,-0.07c-0.00667,-0.036 -0.01,-0.07333 -0.01,-0.112l-0.057,-0.677v-0.445c0,-0.088 -0.01133,-0.174 -0.034,-0.258l-0.011,-0.043l-0.063,-0.203l-0.04,-0.138l-0.015,-0.042c-0.01389,-0.03293 -0.02331,-0.06757 -0.028,-0.103l-0.003,-0.037l-0.02,-0.2l-0.025,-0.267c-0.00633,-0.07025 -0.02007,-0.13964 -0.041,-0.207l-0.025,-0.079c-0.022,-0.081 -0.049,-0.167 -0.073,-0.247l-0.04,-0.126l-0.26,-0.678l-0.158,-0.633c-0.01215,-0.06799 -0.01417,-0.13741 -0.006,-0.206l0.035,-0.364c0.01081,-0.10875 0.00371,-0.21854 -0.021,-0.325l-0.042,-0.178l-0.056,-0.248c-0.023,-0.136 -0.045,-0.271 -0.079,-0.407c-0.01533,-0.07533 -0.04733,-0.143 -0.096,-0.203l-0.13,-0.158v-0.001c-0.06867,-0.08133 -0.13633,-0.164 -0.203,-0.248c-0.07905,-0.09901 -0.11923,-0.22346 -0.113,-0.35l-0.008,-0.054c-0.02,-0.153 -0.042,-0.314 -0.072,-0.466l-0.033,-0.226c-0.00667,-0.05133 -0.01433,-0.102 -0.023,-0.152c-0.017,-0.1 -0.055,-0.196 -0.115,-0.276l-0.28,-0.374c-0.07926,-0.09382 -0.11229,-0.21822 -0.09,-0.339c0.02333,-0.13467 0.04333,-0.27267 0.06,-0.414c0.012,-0.099 -0.001,-0.199 -0.041,-0.291c-0.03067,-0.06667 -0.06,-0.13667 -0.088,-0.21l-0.056,-0.124c-0.094,-0.168 -0.198,-0.345 -0.303,-0.514c-0.01559,-0.02665 -0.02994,-0.05402 -0.043,-0.082l-0.02,-0.047c-0.015,-0.037 -0.02,-0.077 -0.025,-0.117l-0.007,-0.045l-0.02,-0.121l-0.022,-0.159c-0.017,-0.102 -0.06,-0.199 -0.13,-0.277l-0.3,-0.332c-0.079,-0.091 -0.113,-0.215 -0.113,-0.34l0.015,-0.187l0.005,-0.064c0.015,-0.173 -0.047,-0.342 -0.161,-0.472c-0.06,-0.06733 -0.11833,-0.135 -0.175,-0.203c-0.06197,-0.07816 -0.10109,-0.17196 -0.113,-0.271v-0.158l-0.005,-0.052c-0.01341,-0.18409 -0.09423,-0.35677 -0.227,-0.485c-0.07067,-0.06467 -0.14,-0.13033 -0.208,-0.197c-0.04979,-0.05585 -0.0903,-0.11932 -0.12,-0.188l-0.208,-0.466c-0.00933,-0.02133 -0.01933,-0.042 -0.03,-0.062c-0.024,-0.047 -0.049,-0.094 -0.057,-0.145c-0.0098,-0.17019 -0.02581,-0.33997 -0.048,-0.509l-0.001,-0.017c-0.00067,-0.032 -0.01133,-0.05967 -0.032,-0.083l-0.103,-0.112l-0.249,-0.26c-0.04541,-0.05725 -0.07998,-0.12232 -0.102,-0.192l-0.056,-0.225c-0.034,-0.148 -0.068,-0.283 -0.113,-0.43l-0.143,-0.508c-0.01733,-0.06067 -0.04067,-0.11867 -0.07,-0.174c-0.04667,-0.086 -0.09633,-0.17133 -0.149,-0.256l-0.135,-0.237l-0.113,-0.226l-0.124,-0.237c-0.09525,-0.18951 -0.04858,-0.41959 0.113,-0.557c0.04811,-0.04183 0.10378,-0.07408 0.164,-0.095c0.20174,-0.05012 0.41203,0.04129 0.513,0.223l0.136,0.26l0.102,0.214l0.124,0.203l0.102,0.164l0.024,0.039c0.05074,0.08334 0.1134,0.15881 0.186,0.224l0.388,0.353c0.1045,0.11791 0.20619,0.23828 0.305,0.361l0.147,0.17c0.02598,0.03096 0.04876,0.06446 0.068,0.1l0.158,0.295l0.147,0.283l0.124,0.203l0.237,0.407c0.02333,0.04233 0.04146,0.08732 0.054,0.134l0.102,0.394c0.03142,0.1213 0.08535,0.23562 0.159,0.337l0.205,0.28l0.03,0.04c0.02302,0.0268 0.04313,0.05596 0.06,0.087c0.06141,0.18083 0.11809,0.36322 0.17,0.547c0.02227,0.06679 0.05839,0.12813 0.106,0.18c0.11867,0.132 0.234,0.264 0.346,0.396c0.03971,0.04905 0.07143,0.10406 0.094,0.163l0.075,0.187c0.03933,0.10067 0.07667,0.19433 0.112,0.281l0.046,0.114l0.294,0.622l0.007,0.013c0.021,0.038 0.029,0.08 0.038,0.123l0.007,0.034l0.033,0.143v0.003l0.051,0.226l0.045,0.192c0.028,0.08867 0.058,0.179 0.09,0.271l0.077,0.227c0.01663,0.05161 0.04018,0.10072 0.07,0.146c0.102,0.157 0.203,0.327 0.305,0.497c0.045,0.078 0.057,0.158 0.057,0.248v0.158l-0.002,0.032c-0.00467,0.04333 -0.008,0.08567 -0.01,0.127c-0.00828,0.1696 0.03159,0.33809 0.115,0.486l0.138,0.248l0.02,0.039l0.014,0.029c0.012,0.02533 0.02067,0.05133 0.026,0.078l0.01,0.035l0.045,0.152c0.01876,0.07022 0.03944,0.13991 0.062,0.209l0.024,0.077c0.02105,0.06921 0.04955,0.13594 0.085,0.199c0.02667,0.04733 0.05233,0.09467 0.077,0.142l0.13,0.237l0.068,0.113c0.01666,0.02694 0.03072,0.0554 0.042,0.085c0.013,0.033 0.016,0.068 0.02,0.102c0.03438,0.22733 0.06638,0.45501 0.096,0.683v0.203c0.009,0.105 0.011,0.217 0.011,0.325c-0.00002,0.06173 0.00567,0.12332 0.017,0.184l0.017,0.09c0.03299,0.13901 0.063,0.27871 0.09,0.419l0.147,0.62l0.226,0.712l0.124,0.622c0.01761,0.07369 0.03661,0.14703 0.057,0.22c0.02005,0.07297 0.03872,0.14632 0.056,0.22l0.053,0.222c0.00267,0.01 0.004,0.02 0.004,0.03v0.11c0.00004,0.01371 -0.00618,0.0267 -0.01689,0.03526c-0.01071,0.00857 -0.02474,0.01178 -0.03811,0.00874M6.852,16.258c0,0.006 0.007,0.01 0.012,0.007c0.00249,-0.00144 0.00555,-0.00143 0.00803,0.00002c0.00248,0.00145 0.00399,0.00411 0.00397,0.00698v0.047c0.03,0.127 0.05,0.254 0.07,0.38c0.00933,0.064 0.02,0.128 0.032,0.192c0.00811,0.07249 0.00026,0.14587 -0.023,0.215c-0.02467,0.08 -0.05,0.157 -0.076,0.231c-0.04446,0.12427 -0.06811,0.25503 -0.07,0.387v0.263c0.00234,0.06699 -0.01356,0.13335 -0.046,0.192l-0.074,0.153l-0.011,0.023c-0.04026,0.08267 -0.04636,0.17786 -0.017,0.265c0.018,0.06234 0.02576,0.12718 0.023,0.192c-0.045,0.418 -0.102,0.712 -0.181,0.881l-0.034,0.102l-0.045,0.113l-0.08,0.214c-0.06604,0.17873 -0.23748,0.29649 -0.428,0.294h-0.046c-0.205,-0.02491 -0.36972,-0.18071 -0.406,-0.384l-0.045,-0.26l-0.023,-0.113l-0.008,-0.041c-0.01586,-0.0679 -0.02457,-0.13728 -0.026,-0.207l-0.009,-0.153c-0.00267,-0.08 -0.008,-0.16 -0.016,-0.24c-0.00637,-0.04706 -0.00938,-0.09451 -0.009,-0.142v-0.008l0.023,-0.237v-0.262c0,-0.05133 0.00333,-0.102 0.01,-0.152l0.016,-0.124l0.003,-0.022c0.01599,-0.13 0.01058,-0.26174 -0.016,-0.39l-0.008,-0.033l-0.025,-0.114c-0.0169,-0.07414 -0.02529,-0.14996 -0.025,-0.226v-0.358c-0.00018,-0.06924 -0.00755,-0.13828 -0.022,-0.206l-0.024,-0.112l-0.056,-0.238l-0.023,-0.067l-0.025,-0.085c-0.03136,-0.10727 -0.0657,-0.21365 -0.103,-0.319l-0.016,-0.035c-0.01715,-0.03141 -0.02706,-0.06626 -0.029,-0.102l-0.03,-0.171c-0.01067,-0.05133 -0.02,-0.104 -0.028,-0.158c-0.00867,-0.05467 -0.018,-0.10733 -0.028,-0.158c-0.02256,-0.06989 -0.02256,-0.14511 0,-0.215l0.064,-0.217c0.03949,-0.13252 0.05107,-0.27178 0.034,-0.409l-0.03,-0.244c0,-0.098 -0.011,-0.206 -0.032,-0.315l-0.003,-0.025c0.00022,-0.02847 -0.00892,-0.05622 -0.026,-0.079l-0.065,-0.088c-0.07194,-0.10063 -0.14698,-0.19901 -0.225,-0.295c-0.05799,-0.0785 -0.08951,-0.17341 -0.09,-0.271v-0.197c-0.00019,-0.14584 -0.03227,-0.28987 -0.094,-0.422l-0.37,-0.793c-0.07424,-0.17504 -0.03816,-0.3774 0.092,-0.516c0.10724,-0.13407 0.1382,-0.31378 0.082,-0.476c-0.0108,-0.03126 -0.02315,-0.06196 -0.037,-0.092l-0.216,-0.43c-0.04066,-0.06369 -0.06025,-0.13856 -0.056,-0.214v-0.016c0.00019,-0.2311 -0.07967,-0.45513 -0.226,-0.634l-0.079,-0.096c-0.10093,-0.11882 -0.1348,-0.28068 -0.09,-0.43l0.05,-0.163c0.03249,-0.1032 0.01393,-0.21571 -0.05,-0.303c-0.04467,-0.06 -0.09,-0.119 -0.136,-0.177c-0.07874,-0.09839 -0.11151,-0.22583 -0.09,-0.35l0.022,-0.147l0.013,-0.054c0.01604,-0.0803 -0.00997,-0.16324 -0.069,-0.22l-0.215,-0.223c-0.04427,-0.05394 -0.07878,-0.11519 -0.102,-0.181l-0.158,-0.52c-0.011,-0.068 -0.011,-0.135 -0.011,-0.203l0.02,-0.163c0.01933,-0.12719 -0.01549,-0.25666 -0.096,-0.357l-0.139,-0.17c-0.06116,-0.06861 -0.09683,-0.15618 -0.101,-0.248c-0.012,-0.18 -0.023,-0.361 -0.045,-0.542l-0.023,-0.18l-0.017,-0.148v-0.004c-0.01088,-0.09429 -0.03512,-0.18655 -0.072,-0.274l-0.001,-0.004c-0.04939,-0.12584 -0.10241,-0.25023 -0.159,-0.373l-0.146,-0.418c-0.08061,-0.20822 0.00752,-0.44381 0.205,-0.548c0.04151,-0.02353 0.08689,-0.03945 0.134,-0.047c0.02733,-0.00267 0.05367,-0.00367 0.079,-0.003c0.192,0 0.361,0.112 0.429,0.293l0.147,0.396c0.056,0.113 0.113,0.226 0.17,0.35c0.02933,0.068 0.06933,0.129 0.12,0.183l0.049,0.048c0.042,0.04267 0.08333,0.086 0.124,0.13l0.147,0.17c0.095,0.124 0.183,0.248 0.29,0.4l0.045,0.064c0.01,0.01467 0.01933,0.02967 0.028,0.045c0.01,0.02 0.024,0.043 0.032,0.067l0.09,0.242c0.036,0.1 0.07,0.196 0.102,0.278l0.08,0.169l0.169,0.373c0.01934,0.04789 0.03115,0.09849 0.035,0.15l0.022,0.236c0.01392,0.14735 0.06037,0.28978 0.136,0.417l0.11,0.185c0.016,0.02667 0.03033,0.054 0.043,0.082l0.017,0.04c0.016,0.04 0.023,0.084 0.03,0.127l0.007,0.049l0.052,0.305c0,0.03067 0.01,0.05767 0.03,0.081c0.1,0.11667 0.19533,0.237 0.286,0.361c0.03778,0.04612 0.06477,0.1001 0.079,0.158l0.034,0.136c0.038,0.114 0.068,0.237 0.09,0.327l0.011,0.046l0.192,0.53c0.01405,0.05024 0.02243,0.1019 0.025,0.154l0.027,0.403c0.00333,0.05067 0.01033,0.10067 0.021,0.15c0.018,0.07733 0.03533,0.15833 0.052,0.243c0.01491,0.08213 0.04257,0.16142 0.082,0.235l0.035,0.064c0.05867,0.10533 0.11367,0.20867 0.165,0.31c0.045,0.102 0.068,0.215 0.045,0.317l-0.034,0.147c-0.02979,0.16086 -0.00955,0.327 0.058,0.476l0.048,0.097c0.02,0.04 0.03667,0.081 0.05,0.123l0.001,0.006c0.00832,0.029 0.01533,0.05836 0.021,0.088l0.053,0.276c0.02067,0.102 0.054,0.2 0.1,0.294l0.043,0.09v0.001c0.02467,0.05467 0.05067,0.10933 0.078,0.164l0.046,0.102c0.03079,0.05924 0.04626,0.12525 0.045,0.192v0.527c0.00004,0.04751 -0.0033,0.09496 -0.01,0.142l-0.013,0.088l-0.017,0.158l-0.006,0.054c-0.00723,0.06914 -0.00723,0.13886 0,0.208l0.034,0.36l0.068,0.485c0.01667,0.06267 0.03167,0.12667 0.045,0.192c0.01467,0.06533 0.03,0.12933 0.046,0.192l0.056,0.237c0.022,0.143 0.033,0.287 0.044,0.44M18.25,21.5c-2.06993,-0.00275 -3.74725,-1.68007 -3.75,-3.75c0.0022,-2.07015 1.67985,-3.7478 3.75,-3.75c2.07015,0.0022 3.7478,1.67985 3.75,3.75c-0.00275,2.06993 -1.68007,3.74725 -3.75,3.75M20.186,18.507c0.092,-0.236 0.147,-0.49 0.147,-0.757c0,-1.149 -0.935,-2.083 -2.083,-2.083c-0.267,0 -0.522,0.055 -0.757,0.147zM18.25,19.833c0.268,0 0.522,-0.055 0.758,-0.148l-2.694,-2.694c-0.093,0.236 -0.148,0.491 -0.148,0.759c0.0011,1.1505 0.9335,2.0829 2.084,2.084" fill="#62757e" fill-rule="nonzero"></path></g>
  </g>
  <g id="Regular-M" transform="matrix(5 0 0 5 1389.82 1030)">
    <defs><clipPath id="clip-1"><rect x="0" y="0" width="24" height="24" fill="none" fill-rule="nonzero"></rect></clipPath></defs>
<g clip-path="url(#clip-1)" fill="none" fill-rule="none" stroke="none" stroke-width="1" stroke-linecap="butt" stroke-linejoin="miter" stroke-miterlimit="10" stroke-dasharray="" stroke-dashoffset="0" font-family="none" font-weight="none" font-size="none" text-anchor="none" style="mix-blend-mode: normal"><path d="M19.538,12.598c-0.0814,-0.01408 -0.1534,-0.06112 -0.199,-0.13l-0.003,-0.005l-0.098,-0.12c-0.058,-0.07 -0.12,-0.143 -0.184,-0.23l-0.02,-0.023l-0.03,-0.033c-0.02541,-0.02288 -0.04671,-0.04994 -0.063,-0.08l-0.136,-0.232l-0.135,-0.23c-0.0336,-0.06424 -0.05529,-0.13403 -0.064,-0.206v-0.001l-0.009,-0.052l-0.007,-0.036l-0.026,-0.182l-0.005,-0.04c-0.01604,-0.1071 -0.05127,-0.21042 -0.104,-0.305l-0.158,-0.286l-0.062,-0.123c-0.08511,-0.17001 -0.21693,-0.31224 -0.38,-0.41l-0.112,-0.066l-0.045,-0.033c-0.08719,-0.05207 -0.1547,-0.13154 -0.192,-0.226c-0.068,-0.17 -0.136,-0.328 -0.215,-0.509l-0.056,-0.124c-0.012,-0.028 -0.02533,-0.057 -0.04,-0.087c-0.0489,-0.11171 -0.1287,-0.20712 -0.23,-0.275l-0.227,-0.146c-0.11444,-0.07791 -0.18871,-0.2023 -0.203,-0.34l-0.026,-0.282c-0.01047,-0.14766 -0.0644,-0.28893 -0.155,-0.406l-0.055,-0.068c-0.03135,-0.03779 -0.06544,-0.07322 -0.102,-0.106l-0.137,-0.12c-0.06533,-0.056 -0.12933,-0.11267 -0.192,-0.17c-0.05676,-0.0432 -0.09982,-0.10189 -0.124,-0.169l-0.068,-0.18l-0.028,-0.065c-0.03483,-0.08138 -0.09568,-0.14891 -0.173,-0.192l-0.262,-0.14c-0.12622,-0.06544 -0.21409,-0.18668 -0.237,-0.327l-0.037,-0.234c-0.01901,-0.12388 -0.09236,-0.2328 -0.2,-0.297l-0.148,-0.079c-0.10466,-0.0633 -0.1812,-0.16417 -0.214,-0.282l-0.023,-0.085c-0.04749,-0.18329 -0.17871,-0.33342 -0.354,-0.405l-0.076,-0.03c-0.078,-0.02078 -0.14605,-0.06864 -0.192,-0.135l-0.113,-0.147c-0.068,-0.09 -0.136,-0.18 -0.215,-0.271c-0.0329,-0.04912 -0.05944,-0.10221 -0.079,-0.158l-0.013,-0.045c-0.07167,-0.23924 -0.23286,-0.44162 -0.45,-0.565c-0.07816,-0.03906 -0.14138,-0.10263 -0.18,-0.181l-0.272,-0.52c-0.04268,-0.09002 -0.08872,-0.17842 -0.138,-0.265l-0.054,-0.096c-0.03016,-0.05952 -0.07004,-0.1136 -0.118,-0.16l-0.034,-0.032c-0.03733,-0.034 -0.07333,-0.068 -0.108,-0.102l-0.18,-0.18c-0.02933,-0.03467 -0.05933,-0.06867 -0.09,-0.102l-0.091,-0.102l-0.113,-0.124c-0.11906,-0.13225 -0.14833,-0.32253 -0.07453,-0.48445c0.0738,-0.16192 0.23661,-0.26465 0.41453,-0.26155c0.1239,0.00493 0.24108,0.0576 0.327,0.147l0.102,0.102l0.148,0.166c0.02933,0.032 0.06067,0.062 0.094,0.09l0.097,0.082c0.063,0.053 0.135,0.115 0.199,0.186c0.01,0.01133 0.02333,0.01733 0.04,0.018c0.00667,0 0.013,0.00133 0.019,0.004l0.397,0.165l0.037,0.021l0.01,0.007l0.03,0.018l0.093,0.056l0.18,0.113c0.05933,0.036 0.11967,0.07367 0.181,0.113c0.03812,0.02804 0.0733,0.05987 0.105,0.095l0.358,0.39l0.341,0.332l0.029,0.027c0.03617,0.03169 0.0684,0.06761 0.096,0.107l0.005,0.008c0.01,0.016 0.019,0.03233 0.027,0.049c0.03467,0.07333 0.07167,0.148 0.111,0.224l0.07,0.135c0.03,0.052 0.06867,0.09667 0.116,0.134l0.058,0.046c0.042,0.034 0.08533,0.068 0.13,0.102l0.041,0.029c0.04933,0.032 0.09267,0.07033 0.13,0.115l0.055,0.07l0.217,0.372c0.01395,0.02274 0.03231,0.04246 0.054,0.058c0.062,0.034 0.12433,0.06967 0.187,0.107c0.062,0.03733 0.124,0.07333 0.186,0.108c0.06472,0.04319 0.12042,0.09855 0.164,0.163l0.288,0.402l0.373,0.429l0.023,0.027c0.01867,0.02867 0.03467,0.05867 0.048,0.09l0.016,0.037c0.04667,0.096 0.093,0.19533 0.139,0.298l0.035,0.076c0.02133,0.04667 0.04633,0.09167 0.075,0.135l0.087,0.133l0.064,0.098c0.04502,0.06571 0.09772,0.1258 0.157,0.179c0.101,0.079 0.203,0.17 0.305,0.26c0.07619,0.06805 0.12755,0.15953 0.146,0.26l0.031,0.162c0.03873,0.20257 0.14101,0.38752 0.292,0.528l0.043,0.04c0.03986,0.03953 0.07632,0.08235 0.109,0.128l0.067,0.104c0.05667,0.084 0.10967,0.17 0.159,0.258c0.03067,0.05267 0.068,0.09933 0.112,0.14l0.13,0.125l0.198,0.187c0.046,0.045 0.08,0.101 0.102,0.158l0.068,0.17c0.02,0.05467 0.04233,0.11167 0.067,0.171c0.03,0.07067 0.06,0.149 0.09,0.235l0.122,0.429c0.01713,0.06034 0.0399,0.11893 0.068,0.175l0.184,0.367l0.203,0.373l0.01,0.024c0.024,0.052 0.05167,0.10133 0.083,0.148l0.064,0.095c0.077,0.114 0.159,0.232 0.25,0.377l0.056,0.113c0.08,0.135 0.147,0.271 0.192,0.373l0.102,0.17c0.034,0.05667 0.068,0.11467 0.102,0.174c0.03333,0.06 0.067,0.11833 0.101,0.175c0.02235,0.04116 0.0398,0.08479 0.052,0.13l0.008,0.027c0.00477,0.01626 0.00746,0.03306 0.008,0.05v0.098l0.013,0.122l0.006,0.053c0.016,0.138 0.042,0.369 -0.094,0.342l-0.025,-0.009c-0.45745,-0.23245 -0.94518,-0.39974 -1.449,-0.497M15.507,13.388c-0.409,0.266 -1.011,0.12 -1.356,-0.224c-0.07012,-0.08177 -0.12043,-0.17861 -0.147,-0.283c-0.028,-0.151 -0.064,-0.293 -0.102,-0.441l-0.022,-0.09l-0.057,-0.214c-0.01133,-0.04 -0.02233,-0.08167 -0.033,-0.125c-0.02318,-0.08115 -0.06653,-0.15512 -0.126,-0.215l-0.293,-0.293c-0.08787,-0.09082 -0.13638,-0.21263 -0.135,-0.339l0.013,-0.315c0.006,-0.149 -0.021,-0.299 -0.095,-0.429l-0.02,-0.035l-0.054,-0.095c-0.024,-0.04267 -0.051,-0.083 -0.081,-0.121l-0.136,-0.175c-0.06,-0.07533 -0.12,-0.152 -0.18,-0.23c-0.03979,-0.04951 -0.06721,-0.10779 -0.08,-0.17l-0.034,-0.124l-0.017,-0.086c-0.035,-0.167 -0.132,-0.311 -0.265,-0.417c-0.06867,-0.05333 -0.13633,-0.108 -0.203,-0.164c-0.08061,-0.06729 -0.13799,-0.15826 -0.164,-0.26c-0.01267,-0.052 -0.01833,-0.10533 -0.017,-0.16v-0.148c0.0025,-0.16348 -0.06786,-0.3196 -0.192,-0.426l-0.147,-0.124c-0.08346,-0.072 -0.13608,-0.17331 -0.147,-0.283l-0.031,-0.203c-0.024,-0.151 -0.109,-0.286 -0.234,-0.373c-0.06467,-0.04533 -0.13067,-0.09033 -0.198,-0.135c-0.067,-0.034 -0.113,-0.091 -0.147,-0.148l-0.305,-0.53c-0.03106,-0.05402 -0.05175,-0.11338 -0.061,-0.175l-0.05,-0.307c-0.016,-0.097 -0.066,-0.186 -0.143,-0.247c-0.03933,-0.03067 -0.079,-0.06267 -0.119,-0.096l-0.135,-0.113c-0.056,-0.056 -0.113,-0.124 -0.136,-0.203c-0.068,-0.192 -0.135,-0.384 -0.214,-0.588c-0.02674,-0.05701 -0.06105,-0.11016 -0.102,-0.158c-0.079,-0.101 -0.17,-0.226 -0.226,-0.361l-0.226,-0.509c-0.056,-0.102 -0.113,-0.192 -0.169,-0.282l-0.079,-0.124c-0.12899,-0.21247 -0.06406,-0.48911 0.146,-0.622c0.21028,-0.12866 0.4846,-0.06868 0.622,0.136l0.068,0.113c0.02859,0.04985 0.0586,0.09887 0.09,0.147l0.034,0.053c0.03836,0.06193 0.08149,0.12078 0.129,0.176l0.222,0.25c0.03706,0.04164 0.07753,0.08011 0.121,0.115l0.398,0.32l0.462,0.43c0.0355,0.0384 0.06793,0.07953 0.097,0.123l0.073,0.114l0.092,0.139c0.05,0.075 0.099,0.148 0.134,0.212l0.348,0.474l0.038,0.059l0.013,0.02l0.018,0.03l0.002,0.002l0.27,0.51c0.07675,0.14249 0.16329,0.27949 0.259,0.41l0.025,0.031c0.02138,0.0263 0.0414,0.05367 0.06,0.082l0.04,0.076l0.174,0.435c0.02016,0.04864 0.04973,0.09281 0.087,0.13c0.12237,0.09849 0.2424,0.19985 0.36,0.304c0.04867,0.04624 0.08923,0.10033 0.12,0.16l0.265,0.508l0.302,0.5l0.026,0.038l0.029,0.041c0.01159,0.02178 0.01905,0.04551 0.022,0.07l0.009,0.036l0.047,0.152v0.001c0.03,0.09067 0.058,0.184 0.084,0.28l0.013,0.043c0.01401,0.04654 0.03138,0.09199 0.052,0.136l0.082,0.182h0.001v0.003l0.06,0.132c0.03473,0.0755 0.07874,0.14638 0.131,0.211l0.023,0.027c0.10049,0.11129 0.19463,0.22814 0.282,0.35c0.057,0.08 0.09,0.17 0.09,0.26l0.01,0.229c0.00878,0.19695 0.07558,0.3869 0.192,0.546l0.096,0.133l0.037,0.06l0.016,0.026c0.03622,0.07822 0.06991,0.1576 0.101,0.238c0.02533,0.06467 0.052,0.12833 0.08,0.191l0.006,0.016c0.03309,0.09486 0.08029,0.1842 0.14,0.265l0.13,0.182l0.096,0.136l0.045,0.057c0.03421,0.04702 0.05776,0.10094 0.069,0.158l0.01,0.051c0.06567,0.32643 -0.07772,0.65941 -0.36,0.836zM12.684,19.376c-0.01196,-0.00232 -0.02435,0.0003 -0.03433,0.00728c-0.00999,0.00697 -0.01672,0.0177 -0.01867,0.02972c-0.019,0.124 -0.038,0.249 -0.07,0.374c-0.01602,0.05798 -0.01875,0.11882 -0.008,0.178l0.022,0.152c0.00787,0.06221 0.01721,0.12423 0.028,0.186l0.034,0.214c0.01218,0.05601 0.01218,0.11399 0,0.17c-0.02133,0.07933 -0.042,0.16033 -0.062,0.243c-0.03607,0.1604 -0.03879,0.3265 -0.008,0.488c0.068,0.384 0.102,0.9 0.048,1.156l-0.068,0.542c-0.03434,0.20895 -0.20689,0.36747 -0.418,0.384h-0.034c-0.20297,-0.00029 -0.38176,-0.13357 -0.44,-0.328l-0.08,-0.282l-0.07,-0.227l-0.008,-0.027c-0.012,-0.035 -0.024,-0.07 -0.024,-0.107c-0.022,-0.17 -0.056,-0.339 -0.09,-0.508l-0.012,-0.07c-0.00667,-0.036 -0.01,-0.07333 -0.01,-0.112l-0.057,-0.677v-0.445c0,-0.088 -0.01133,-0.174 -0.034,-0.258l-0.011,-0.043l-0.063,-0.203l-0.04,-0.138l-0.015,-0.042c-0.01389,-0.03293 -0.02331,-0.06757 -0.028,-0.103l-0.003,-0.037l-0.02,-0.2l-0.025,-0.267c-0.00633,-0.07025 -0.02007,-0.13964 -0.041,-0.207l-0.025,-0.079c-0.022,-0.081 -0.049,-0.167 -0.073,-0.247l-0.04,-0.126l-0.26,-0.678l-0.158,-0.633c-0.01215,-0.06799 -0.01417,-0.13741 -0.006,-0.206l0.035,-0.364c0.01081,-0.10875 0.00371,-0.21854 -0.021,-0.325l-0.042,-0.178l-0.056,-0.248c-0.023,-0.136 -0.045,-0.271 -0.079,-0.407c-0.01533,-0.07533 -0.04733,-0.143 -0.096,-0.203l-0.13,-0.158v-0.001c-0.06867,-0.08133 -0.13633,-0.164 -0.203,-0.248c-0.07905,-0.09901 -0.11923,-0.22346 -0.113,-0.35l-0.008,-0.054c-0.02,-0.153 -0.042,-0.314 -0.072,-0.466l-0.033,-0.226c-0.00667,-0.05133 -0.01433,-0.102 -0.023,-0.152c-0.017,-0.1 -0.055,-0.196 -0.115,-0.276l-0.28,-0.374c-0.07926,-0.09382 -0.11229,-0.21822 -0.09,-0.339c0.02333,-0.13467 0.04333,-0.27267 0.06,-0.414c0.012,-0.099 -0.001,-0.199 -0.041,-0.291c-0.03067,-0.06667 -0.06,-0.13667 -0.088,-0.21l-0.056,-0.124c-0.094,-0.168 -0.198,-0.345 -0.303,-0.514c-0.01559,-0.02665 -0.02994,-0.05402 -0.043,-0.082l-0.02,-0.047c-0.015,-0.037 -0.02,-0.077 -0.025,-0.117l-0.007,-0.045l-0.02,-0.121l-0.022,-0.159c-0.017,-0.102 -0.06,-0.199 -0.13,-0.277l-0.3,-0.332c-0.079,-0.091 -0.113,-0.215 -0.113,-0.34l0.015,-0.187l0.005,-0.064c0.015,-0.173 -0.047,-0.342 -0.161,-0.472c-0.06,-0.06733 -0.11833,-0.135 -0.175,-0.203c-0.06197,-0.07816 -0.10109,-0.17196 -0.113,-0.271v-0.158l-0.005,-0.052c-0.01341,-0.18409 -0.09423,-0.35677 -0.227,-0.485c-0.07067,-0.06467 -0.14,-0.13033 -0.208,-0.197c-0.04979,-0.05585 -0.0903,-0.11932 -0.12,-0.188l-0.208,-0.466c-0.00933,-0.02133 -0.01933,-0.042 -0.03,-0.062c-0.024,-0.047 -0.049,-0.094 -0.057,-0.145c-0.0098,-0.17019 -0.02581,-0.33997 -0.048,-0.509l-0.001,-0.017c-0.00067,-0.032 -0.01133,-0.05967 -0.032,-0.083l-0.103,-0.112l-0.249,-0.26c-0.04541,-0.05725 -0.07998,-0.12232 -0.102,-0.192l-0.056,-0.225c-0.034,-0.148 -0.068,-0.283 -0.113,-0.43l-0.143,-0.508c-0.01733,-0.06067 -0.04067,-0.11867 -0.07,-0.174c-0.04667,-0.086 -0.09633,-0.17133 -0.149,-0.256l-0.135,-0.237l-0.113,-0.226l-0.124,-0.237c-0.09525,-0.18951 -0.04858,-0.41959 0.113,-0.557c0.04811,-0.04183 0.10378,-0.07408 0.164,-0.095c0.20174,-0.05012 0.41203,0.04129 0.513,0.223l0.136,0.26l0.102,0.214l0.124,0.203l0.102,0.164l0.024,0.039c0.05074,0.08334 0.1134,0.15881 0.186,0.224l0.388,0.353c0.1045,0.11791 0.20619,0.23828 0.305,0.361l0.147,0.17c0.02598,0.03096 0.04876,0.06446 0.068,0.1l0.158,0.295l0.147,0.283l0.124,0.203l0.237,0.407c0.02333,0.04233 0.04146,0.08732 0.054,0.134l0.102,0.394c0.03142,0.1213 0.08535,0.23562 0.159,0.337l0.205,0.28l0.03,0.04c0.02302,0.0268 0.04313,0.05596 0.06,0.087c0.06141,0.18083 0.11809,0.36322 0.17,0.547c0.02227,0.06679 0.05839,0.12813 0.106,0.18c0.11867,0.132 0.234,0.264 0.346,0.396c0.03971,0.04905 0.07143,0.10406 0.094,0.163l0.075,0.187c0.03933,0.10067 0.07667,0.19433 0.112,0.281l0.046,0.114l0.294,0.622l0.007,0.013c0.021,0.038 0.029,0.08 0.038,0.123l0.007,0.034l0.033,0.143v0.003l0.051,0.226l0.045,0.192c0.028,0.08867 0.058,0.179 0.09,0.271l0.077,0.227c0.01663,0.05161 0.04018,0.10072 0.07,0.146c0.102,0.157 0.203,0.327 0.305,0.497c0.045,0.078 0.057,0.158 0.057,0.248v0.158l-0.002,0.032c-0.00467,0.04333 -0.008,0.08567 -0.01,0.127c-0.00828,0.1696 0.03159,0.33809 0.115,0.486l0.138,0.248l0.02,0.039l0.014,0.029c0.012,0.02533 0.02067,0.05133 0.026,0.078l0.01,0.035l0.045,0.152c0.01876,0.07022 0.03944,0.13991 0.062,0.209l0.024,0.077c0.02105,0.06921 0.04955,0.13594 0.085,0.199c0.02667,0.04733 0.05233,0.09467 0.077,0.142l0.13,0.237l0.068,0.113c0.01666,0.02694 0.03072,0.0554 0.042,0.085c0.013,0.033 0.016,0.068 0.02,0.102c0.03438,0.22733 0.06638,0.45501 0.096,0.683v0.203c0.009,0.105 0.011,0.217 0.011,0.325c-0.00002,0.06173 0.00567,0.12332 0.017,0.184l0.017,0.09c0.03299,0.13901 0.063,0.27871 0.09,0.419l0.147,0.62l0.226,0.712l0.124,0.622c0.01761,0.07369 0.03661,0.14703 0.057,0.22c0.02005,0.07297 0.03872,0.14632 0.056,0.22l0.053,0.222c0.00267,0.01 0.004,0.02 0.004,0.03v0.11c0.00004,0.01371 -0.00618,0.0267 -0.01689,0.03526c-0.01071,0.00857 -0.02474,0.01178 -0.03811,0.00874M6.852,16.258c0,0.006 0.007,0.01 0.012,0.007c0.00249,-0.00144 0.00555,-0.00143 0.00803,0.00002c0.00248,0.00145 0.00399,0.00411 0.00397,0.00698v0.047c0.03,0.127 0.05,0.254 0.07,0.38c0.00933,0.064 0.02,0.128 0.032,0.192c0.00811,0.07249 0.00026,0.14587 -0.023,0.215c-0.02467,0.08 -0.05,0.157 -0.076,0.231c-0.04446,0.12427 -0.06811,0.25503 -0.07,0.387v0.263c0.00234,0.06699 -0.01356,0.13335 -0.046,0.192l-0.074,0.153l-0.011,0.023c-0.04026,0.08267 -0.04636,0.17786 -0.017,0.265c0.018,0.06234 0.02576,0.12718 0.023,0.192c-0.045,0.418 -0.102,0.712 -0.181,0.881l-0.034,0.102l-0.045,0.113l-0.08,0.214c-0.06604,0.17873 -0.23748,0.29649 -0.428,0.294h-0.046c-0.205,-0.02491 -0.36972,-0.18071 -0.406,-0.384l-0.045,-0.26l-0.023,-0.113l-0.008,-0.041c-0.01586,-0.0679 -0.02457,-0.13728 -0.026,-0.207l-0.009,-0.153c-0.00267,-0.08 -0.008,-0.16 -0.016,-0.24c-0.00637,-0.04706 -0.00938,-0.09451 -0.009,-0.142v-0.008l0.023,-0.237v-0.262c0,-0.05133 0.00333,-0.102 0.01,-0.152l0.016,-0.124l0.003,-0.022c0.01599,-0.13 0.01058,-0.26174 -0.016,-0.39l-0.008,-0.033l-0.025,-0.114c-0.0169,-0.07414 -0.02529,-0.14996 -0.025,-0.226v-0.358c-0.00018,-0.06924 -0.00755,-0.13828 -0.022,-0.206l-0.024,-0.112l-0.056,-0.238l-0.023,-0.067l-0.025,-0.085c-0.03136,-0.10727 -0.0657,-0.21365 -0.103,-0.319l-0.016,-0.035c-0.01715,-0.03141 -0.02706,-0.06626 -0.029,-0.102l-0.03,-0.171c-0.01067,-0.05133 -0.02,-0.104 -0.028,-0.158c-0.00867,-0.05467 -0.018,-0.10733 -0.028,-0.158c-0.02256,-0.06989 -0.02256,-0.14511 0,-0.215l0.064,-0.217c0.03949,-0.13252 0.05107,-0.27178 0.034,-0.409l-0.03,-0.244c0,-0.098 -0.011,-0.206 -0.032,-0.315l-0.003,-0.025c0.00022,-0.02847 -0.00892,-0.05622 -0.026,-0.079l-0.065,-0.088c-0.07194,-0.10063 -0.14698,-0.19901 -0.225,-0.295c-0.05799,-0.0785 -0.08951,-0.17341 -0.09,-0.271v-0.197c-0.00019,-0.14584 -0.03227,-0.28987 -0.094,-0.422l-0.37,-0.793c-0.07424,-0.17504 -0.03816,-0.3774 0.092,-0.516c0.10724,-0.13407 0.1382,-0.31378 0.082,-0.476c-0.0108,-0.03126 -0.02315,-0.06196 -0.037,-0.092l-0.216,-0.43c-0.04066,-0.06369 -0.06025,-0.13856 -0.056,-0.214v-0.016c0.00019,-0.2311 -0.07967,-0.45513 -0.226,-0.634l-0.079,-0.096c-0.10093,-0.11882 -0.1348,-0.28068 -0.09,-0.43l0.05,-0.163c0.03249,-0.1032 0.01393,-0.21571 -0.05,-0.303c-0.04467,-0.06 -0.09,-0.119 -0.136,-0.177c-0.07874,-0.09839 -0.11151,-0.22583 -0.09,-0.35l0.022,-0.147l0.013,-0.054c0.01604,-0.0803 -0.00997,-0.16324 -0.069,-0.22l-0.215,-0.223c-0.04427,-0.05394 -0.07878,-0.11519 -0.102,-0.181l-0.158,-0.52c-0.011,-0.068 -0.011,-0.135 -0.011,-0.203l0.02,-0.163c0.01933,-0.12719 -0.01549,-0.25666 -0.096,-0.357l-0.139,-0.17c-0.06116,-0.06861 -0.09683,-0.15618 -0.101,-0.248c-0.012,-0.18 -0.023,-0.361 -0.045,-0.542l-0.023,-0.18l-0.017,-0.148v-0.004c-0.01088,-0.09429 -0.03512,-0.18655 -0.072,-0.274l-0.001,-0.004c-0.04939,-0.12584 -0.10241,-0.25023 -0.159,-0.373l-0.146,-0.418c-0.08061,-0.20822 0.00752,-0.44381 0.205,-0.548c0.04151,-0.02353 0.08689,-0.03945 0.134,-0.047c0.02733,-0.00267 0.05367,-0.00367 0.079,-0.003c0.192,0 0.361,0.112 0.429,0.293l0.147,0.396c0.056,0.113 0.113,0.226 0.17,0.35c0.02933,0.068 0.06933,0.129 0.12,0.183l0.049,0.048c0.042,0.04267 0.08333,0.086 0.124,0.13l0.147,0.17c0.095,0.124 0.183,0.248 0.29,0.4l0.045,0.064c0.01,0.01467 0.01933,0.02967 0.028,0.045c0.01,0.02 0.024,0.043 0.032,0.067l0.09,0.242c0.036,0.1 0.07,0.196 0.102,0.278l0.08,0.169l0.169,0.373c0.01934,0.04789 0.03115,0.09849 0.035,0.15l0.022,0.236c0.01392,0.14735 0.06037,0.28978 0.136,0.417l0.11,0.185c0.016,0.02667 0.03033,0.054 0.043,0.082l0.017,0.04c0.016,0.04 0.023,0.084 0.03,0.127l0.007,0.049l0.052,0.305c0,0.03067 0.01,0.05767 0.03,0.081c0.1,0.11667 0.19533,0.237 0.286,0.361c0.03778,0.04612 0.06477,0.1001 0.079,0.158l0.034,0.136c0.038,0.114 0.068,0.237 0.09,0.327l0.011,0.046l0.192,0.53c0.01405,0.05024 0.02243,0.1019 0.025,0.154l0.027,0.403c0.00333,0.05067 0.01033,0.10067 0.021,0.15c0.018,0.07733 0.03533,0.15833 0.052,0.243c0.01491,0.08213 0.04257,0.16142 0.082,0.235l0.035,0.064c0.05867,0.10533 0.11367,0.20867 0.165,0.31c0.045,0.102 0.068,0.215 0.045,0.317l-0.034,0.147c-0.02979,0.16086 -0.00955,0.327 0.058,0.476l0.048,0.097c0.02,0.04 0.03667,0.081 0.05,0.123l0.001,0.006c0.00832,0.029 0.01533,0.05836 0.021,0.088l0.053,0.276c0.02067,0.102 0.054,0.2 0.1,0.294l0.043,0.09v0.001c0.02467,0.05467 0.05067,0.10933 0.078,0.164l0.046,0.102c0.03079,0.05924 0.04626,0.12525 0.045,0.192v0.527c0.00004,0.04751 -0.0033,0.09496 -0.01,0.142l-0.013,0.088l-0.017,0.158l-0.006,0.054c-0.00723,0.06914 -0.00723,0.13886 0,0.208l0.034,0.36l0.068,0.485c0.01667,0.06267 0.03167,0.12667 0.045,0.192c0.01467,0.06533 0.03,0.12933 0.046,0.192l0.056,0.237c0.022,0.143 0.033,0.287 0.044,0.44M18.25,21.5c-2.06993,-0.00275 -3.74725,-1.68007 -3.75,-3.75c0.0022,-2.07015 1.67985,-3.7478 3.75,-3.75c2.07015,0.0022 3.7478,1.67985 3.75,3.75c-0.00275,2.06993 -1.68007,3.74725 -3.75,3.75M20.186,18.507c0.092,-0.236 0.147,-0.49 0.147,-0.757c0,-1.149 -0.935,-2.083 -2.083,-2.083c-0.267,0 -0.522,0.055 -0.757,0.147zM18.25,19.833c0.268,0 0.522,-0.055 0.758,-0.148l-2.694,-2.694c-0.093,0.236 -0.148,0.491 -0.148,0.759c0.0011,1.1505 0.9335,2.0829 2.084,2.084" fill="#62757e" fill-rule="nonzero"></path></g>
  </g>
  <g id="Regular-S" transform="matrix(3.915 0 0 3.915 1402.75 614)">
    <defs><clipPath id="clip-1"><rect x="0" y="0" width="24" height="24" fill="none" fill-rule="nonzero"></rect></clipPath></defs>
<g clip-path="url(#clip-1)" fill="none" fill-rule="none" stroke="none" stroke-width="1" stroke-linecap="butt" stroke-linejoin="miter" stroke-miterlimit="10" stroke-dasharray="" stroke-dashoffset="0" font-family="none" font-weight="none" font-size="none" text-anchor="none" style="mix-blend-mode: normal"><path d="M19.538,12.598c-0.0814,-0.01408 -0.1534,-0.06112 -0.199,-0.13l-0.003,-0.005l-0.098,-0.12c-0.058,-0.07 -0.12,-0.143 -0.184,-0.23l-0.02,-0.023l-0.03,-0.033c-0.02541,-0.02288 -0.04671,-0.04994 -0.063,-0.08l-0.136,-0.232l-0.135,-0.23c-0.0336,-0.06424 -0.05529,-0.13403 -0.064,-0.206v-0.001l-0.009,-0.052l-0.007,-0.036l-0.026,-0.182l-0.005,-0.04c-0.01604,-0.1071 -0.05127,-0.21042 -0.104,-0.305l-0.158,-0.286l-0.062,-0.123c-0.08511,-0.17001 -0.21693,-0.31224 -0.38,-0.41l-0.112,-0.066l-0.045,-0.033c-0.08719,-0.05207 -0.1547,-0.13154 -0.192,-0.226c-0.068,-0.17 -0.136,-0.328 -0.215,-0.509l-0.056,-0.124c-0.012,-0.028 -0.02533,-0.057 -0.04,-0.087c-0.0489,-0.11171 -0.1287,-0.20712 -0.23,-0.275l-0.227,-0.146c-0.11444,-0.07791 -0.18871,-0.2023 -0.203,-0.34l-0.026,-0.282c-0.01047,-0.14766 -0.0644,-0.28893 -0.155,-0.406l-0.055,-0.068c-0.03135,-0.03779 -0.06544,-0.07322 -0.102,-0.106l-0.137,-0.12c-0.06533,-0.056 -0.12933,-0.11267 -0.192,-0.17c-0.05676,-0.0432 -0.09982,-0.10189 -0.124,-0.169l-0.068,-0.18l-0.028,-0.065c-0.03483,-0.08138 -0.09568,-0.14891 -0.173,-0.192l-0.262,-0.14c-0.12622,-0.06544 -0.21409,-0.18668 -0.237,-0.327l-0.037,-0.234c-0.01901,-0.12388 -0.09236,-0.2328 -0.2,-0.297l-0.148,-0.079c-0.10466,-0.0633 -0.1812,-0.16417 -0.214,-0.282l-0.023,-0.085c-0.04749,-0.18329 -0.17871,-0.33342 -0.354,-0.405l-0.076,-0.03c-0.078,-0.02078 -0.14605,-0.06864 -0.192,-0.135l-0.113,-0.147c-0.068,-0.09 -0.136,-0.18 -0.215,-0.271c-0.0329,-0.04912 -0.05944,-0.10221 -0.079,-0.158l-0.013,-0.045c-0.07167,-0.23924 -0.23286,-0.44162 -0.45,-0.565c-0.07816,-0.03906 -0.14138,-0.10263 -0.18,-0.181l-0.272,-0.52c-0.04268,-0.09002 -0.08872,-0.17842 -0.138,-0.265l-0.054,-0.096c-0.03016,-0.05952 -0.07004,-0.1136 -0.118,-0.16l-0.034,-0.032c-0.03733,-0.034 -0.07333,-0.068 -0.108,-0.102l-0.18,-0.18c-0.02933,-0.03467 -0.05933,-0.06867 -0.09,-0.102l-0.091,-0.102l-0.113,-0.124c-0.11906,-0.13225 -0.14833,-0.32253 -0.07453,-0.48445c0.0738,-0.16192 0.23661,-0.26465 0.41453,-0.26155c0.1239,0.00493 0.24108,0.0576 0.327,0.147l0.102,0.102l0.148,0.166c0.02933,0.032 0.06067,0.062 0.094,0.09l0.097,0.082c0.063,0.053 0.135,0.115 0.199,0.186c0.01,0.01133 0.02333,0.01733 0.04,0.018c0.00667,0 0.013,0.00133 0.019,0.004l0.397,0.165l0.037,0.021l0.01,0.007l0.03,0.018l0.093,0.056l0.18,0.113c0.05933,0.036 0.11967,0.07367 0.181,0.113c0.03812,0.02804 0.0733,0.05987 0.105,0.095l0.358,0.39l0.341,0.332l0.029,0.027c0.03617,0.03169 0.0684,0.06761 0.096,0.107l0.005,0.008c0.01,0.016 0.019,0.03233 0.027,0.049c0.03467,0.07333 0.07167,0.148 0.111,0.224l0.07,0.135c0.03,0.052 0.06867,0.09667 0.116,0.134l0.058,0.046c0.042,0.034 0.08533,0.068 0.13,0.102l0.041,0.029c0.04933,0.032 0.09267,0.07033 0.13,0.115l0.055,0.07l0.217,0.372c0.01395,0.02274 0.03231,0.04246 0.054,0.058c0.062,0.034 0.12433,0.06967 0.187,0.107c0.062,0.03733 0.124,0.07333 0.186,0.108c0.06472,0.04319 0.12042,0.09855 0.164,0.163l0.288,0.402l0.373,0.429l0.023,0.027c0.01867,0.02867 0.03467,0.05867 0.048,0.09l0.016,0.037c0.04667,0.096 0.093,0.19533 0.139,0.298l0.035,0.076c0.02133,0.04667 0.04633,0.09167 0.075,0.135l0.087,0.133l0.064,0.098c0.04502,0.06571 0.09772,0.1258 0.157,0.179c0.101,0.079 0.203,0.17 0.305,0.26c0.07619,0.06805 0.12755,0.15953 0.146,0.26l0.031,0.162c0.03873,0.20257 0.14101,0.38752 0.292,0.528l0.043,0.04c0.03986,0.03953 0.07632,0.08235 0.109,0.128l0.067,0.104c0.05667,0.084 0.10967,0.17 0.159,0.258c0.03067,0.05267 0.068,0.09933 0.112,0.14l0.13,0.125l0.198,0.187c0.046,0.045 0.08,0.101 0.102,0.158l0.068,0.17c0.02,0.05467 0.04233,0.11167 0.067,0.171c0.03,0.07067 0.06,0.149 0.09,0.235l0.122,0.429c0.01713,0.06034 0.0399,0.11893 0.068,0.175l0.184,0.367l0.203,0.373l0.01,0.024c0.024,0.052 0.05167,0.10133 0.083,0.148l0.064,0.095c0.077,0.114 0.159,0.232 0.25,0.377l0.056,0.113c0.08,0.135 0.147,0.271 0.192,0.373l0.102,0.17c0.034,0.05667 0.068,0.11467 0.102,0.174c0.03333,0.06 0.067,0.11833 0.101,0.175c0.02235,0.04116 0.0398,0.08479 0.052,0.13l0.008,0.027c0.00477,0.01626 0.00746,0.03306 0.008,0.05v0.098l0.013,0.122l0.006,0.053c0.016,0.138 0.042,0.369 -0.094,0.342l-0.025,-0.009c-0.45745,-0.23245 -0.94518,-0.39974 -1.449,-0.497M15.507,13.388c-0.409,0.266 -1.011,0.12 -1.356,-0.224c-0.07012,-0.08177 -0.12043,-0.17861 -0.147,-0.283c-0.028,-0.151 -0.064,-0.293 -0.102,-0.441l-0.022,-0.09l-0.057,-0.214c-0.01133,-0.04 -0.02233,-0.08167 -0.033,-0.125c-0.02318,-0.08115 -0.06653,-0.15512 -0.126,-0.215l-0.293,-0.293c-0.08787,-0.09082 -0.13638,-0.21263 -0.135,-0.339l0.013,-0.315c0.006,-0.149 -0.021,-0.299 -0.095,-0.429l-0.02,-0.035l-0.054,-0.095c-0.024,-0.04267 -0.051,-0.083 -0.081,-0.121l-0.136,-0.175c-0.06,-0.07533 -0.12,-0.152 -0.18,-0.23c-0.03979,-0.04951 -0.06721,-0.10779 -0.08,-0.17l-0.034,-0.124l-0.017,-0.086c-0.035,-0.167 -0.132,-0.311 -0.265,-0.417c-0.06867,-0.05333 -0.13633,-0.108 -0.203,-0.164c-0.08061,-0.06729 -0.13799,-0.15826 -0.164,-0.26c-0.01267,-0.052 -0.01833,-0.10533 -0.017,-0.16v-0.148c0.0025,-0.16348 -0.06786,-0.3196 -0.192,-0.426l-0.147,-0.124c-0.08346,-0.072 -0.13608,-0.17331 -0.147,-0.283l-0.031,-0.203c-0.024,-0.151 -0.109,-0.286 -0.234,-0.373c-0.06467,-0.04533 -0.13067,-0.09033 -0.198,-0.135c-0.067,-0.034 -0.113,-0.091 -0.147,-0.148l-0.305,-0.53c-0.03106,-0.05402 -0.05175,-0.11338 -0.061,-0.175l-0.05,-0.307c-0.016,-0.097 -0.066,-0.186 -0.143,-0.247c-0.03933,-0.03067 -0.079,-0.06267 -0.119,-0.096l-0.135,-0.113c-0.056,-0.056 -0.113,-0.124 -0.136,-0.203c-0.068,-0.192 -0.135,-0.384 -0.214,-0.588c-0.02674,-0.05701 -0.06105,-0.11016 -0.102,-0.158c-0.079,-0.101 -0.17,-0.226 -0.226,-0.361l-0.226,-0.509c-0.056,-0.102 -0.113,-0.192 -0.169,-0.282l-0.079,-0.124c-0.12899,-0.21247 -0.06406,-0.48911 0.146,-0.622c0.21028,-0.12866 0.4846,-0.06868 0.622,0.136l0.068,0.113c0.02859,0.04985 0.0586,0.09887 0.09,0.147l0.034,0.053c0.03836,0.06193 0.08149,0.12078 0.129,0.176l0.222,0.25c0.03706,0.04164 0.07753,0.08011 0.121,0.115l0.398,0.32l0.462,0.43c0.0355,0.0384 0.06793,0.07953 0.097,0.123l0.073,0.114l0.092,0.139c0.05,0.075 0.099,0.148 0.134,0.212l0.348,0.474l0.038,0.059l0.013,0.02l0.018,0.03l0.002,0.002l0.27,0.51c0.07675,0.14249 0.16329,0.27949 0.259,0.41l0.025,0.031c0.02138,0.0263 0.0414,0.05367 0.06,0.082l0.04,0.076l0.174,0.435c0.02016,0.04864 0.04973,0.09281 0.087,0.13c0.12237,0.09849 0.2424,0.19985 0.36,0.304c0.04867,0.04624 0.08923,0.10033 0.12,0.16l0.265,0.508l0.302,0.5l0.026,0.038l0.029,0.041c0.01159,0.02178 0.01905,0.04551 0.022,0.07l0.009,0.036l0.047,0.152v0.001c0.03,0.09067 0.058,0.184 0.084,0.28l0.013,0.043c0.01401,0.04654 0.03138,0.09199 0.052,0.136l0.082,0.182h0.001v0.003l0.06,0.132c0.03473,0.0755 0.07874,0.14638 0.131,0.211l0.023,0.027c0.10049,0.11129 0.19463,0.22814 0.282,0.35c0.057,0.08 0.09,0.17 0.09,0.26l0.01,0.229c0.00878,0.19695 0.07558,0.3869 0.192,0.546l0.096,0.133l0.037,0.06l0.016,0.026c0.03622,0.07822 0.06991,0.1576 0.101,0.238c0.02533,0.06467 0.052,0.12833 0.08,0.191l0.006,0.016c0.03309,0.09486 0.08029,0.1842 0.14,0.265l0.13,0.182l0.096,0.136l0.045,0.057c0.03421,0.04702 0.05776,0.10094 0.069,0.158l0.01,0.051c0.06567,0.32643 -0.07772,0.65941 -0.36,0.836zM12.684,19.376c-0.01196,-0.00232 -0.02435,0.0003 -0.03433,0.00728c-0.00999,0.00697 -0.01672,0.0177 -0.01867,0.02972c-0.019,0.124 -0.038,0.249 -0.07,0.374c-0.01602,0.05798 -0.01875,0.11882 -0.008,0.178l0.022,0.152c0.00787,0.06221 0.01721,0.12423 0.028,0.186l0.034,0.214c0.01218,0.05601 0.01218,0.11399 0,0.17c-0.02133,0.07933 -0.042,0.16033 -0.062,0.243c-0.03607,0.1604 -0.03879,0.3265 -0.008,0.488c0.068,0.384 0.102,0.9 0.048,1.156l-0.068,0.542c-0.03434,0.20895 -0.20689,0.36747 -0.418,0.384h-0.034c-0.20297,-0.00029 -0.38176,-0.13357 -0.44,-0.328l-0.08,-0.282l-0.07,-0.227l-0.008,-0.027c-0.012,-0.035 -0.024,-0.07 -0.024,-0.107c-0.022,-0.17 -0.056,-0.339 -0.09,-0.508l-0.012,-0.07c-0.00667,-0.036 -0.01,-0.07333 -0.01,-0.112l-0.057,-0.677v-0.445c0,-0.088 -0.01133,-0.174 -0.034,-0.258l-0.011,-0.043l-0.063,-0.203l-0.04,-0.138l-0.015,-0.042c-0.01389,-0.03293 -0.02331,-0.06757 -0.028,-0.103l-0.003,-0.037l-0.02,-0.2l-0.025,-0.267c-0.00633,-0.07025 -0.02007,-0.13964 -0.041,-0.207l-0.025,-0.079c-0.022,-0.081 -0.049,-0.167 -0.073,-0.247l-0.04,-0.126l-0.26,-0.678l-0.158,-0.633c-0.01215,-0.06799 -0.01417,-0.13741 -0.006,-0.206l0.035,-0.364c0.01081,-0.10875 0.00371,-0.21854 -0.021,-0.325l-0.042,-0.178l-0.056,-0.248c-0.023,-0.136 -0.045,-0.271 -0.079,-0.407c-0.01533,-0.07533 -0.04733,-0.143 -0.096,-0.203l-0.13,-0.158v-0.001c-0.06867,-0.08133 -0.13633,-0.164 -0.203,-0.248c-0.07905,-0.09901 -0.11923,-0.22346 -0.113,-0.35l-0.008,-0.054c-0.02,-0.153 -0.042,-0.314 -0.072,-0.466l-0.033,-0.226c-0.00667,-0.05133 -0.01433,-0.102 -0.023,-0.152c-0.017,-0.1 -0.055,-0.196 -0.115,-0.276l-0.28,-0.374c-0.07926,-0.09382 -0.11229,-0.21822 -0.09,-0.339c0.02333,-0.13467 0.04333,-0.27267 0.06,-0.414c0.012,-0.099 -0.001,-0.199 -0.041,-0.291c-0.03067,-0.06667 -0.06,-0.13667 -0.088,-0.21l-0.056,-0.124c-0.094,-0.168 -0.198,-0.345 -0.303,-0.514c-0.01559,-0.02665 -0.02994,-0.05402 -0.043,-0.082l-0.02,-0.047c-0.015,-0.037 -0.02,-0.077 -0.025,-0.117l-0.007,-0.045l-0.02,-0.121l-0.022,-0.159c-0.017,-0.102 -0.06,-0.199 -0.13,-0.277l-0.3,-0.332c-0.079,-0.091 -0.113,-0.215 -0.113,-0.34l0.015,-0.187l0.005,-0.064c0.015,-0.173 -0.047,-0.342 -0.161,-0.472c-0.06,-0.06733 -0.11833,-0.135 -0.175,-0.203c-0.06197,-0.07816 -0.10109,-0.17196 -0.113,-0.271v-0.158l-0.005,-0.052c-0.01341,-0.18409 -0.09423,-0.35677 -0.227,-0.485c-0.07067,-0.06467 -0.14,-0.13033 -0.208,-0.197c-0.04979,-0.05585 -0.0903,-0.11932 -0.12,-0.188l-0.208,-0.466c-0.00933,-0.02133 -0.01933,-0.042 -0.03,-0.062c-0.024,-0.047 -0.049,-0.094 -0.057,-0.145c-0.0098,-0.17019 -0.02581,-0.33997 -0.048,-0.509l-0.001,-0.017c-0.00067,-0.032 -0.01133,-0.05967 -0.032,-0.083l-0.103,-0.112l-0.249,-0.26c-0.04541,-0.05725 -0.07998,-0.12232 -0.102,-0.192l-0.056,-0.225c-0.034,-0.148 -0.068,-0.283 -0.113,-0.43l-0.143,-0.508c-0.01733,-0.06067 -0.04067,-0.11867 -0.07,-0.174c-0.04667,-0.086 -0.09633,-0.17133 -0.149,-0.256l-0.135,-0.237l-0.113,-0.226l-0.124,-0.237c-0.09525,-0.18951 -0.04858,-0.41959 0.113,-0.557c0.04811,-0.04183 0.10378,-0.07408 0.164,-0.095c0.20174,-0.05012 0.41203,0.04129 0.513,0.223l0.136,0.26l0.102,0.214l0.124,0.203l0.102,0.164l0.024,0.039c0.05074,0.08334 0.1134,0.15881 0.186,0.224l0.388,0.353c0.1045,0.11791 0.20619,0.23828 0.305,0.361l0.147,0.17c0.02598,0.03096 0.04876,0.06446 0.068,0.1l0.158,0.295l0.147,0.283l0.124,0.203l0.237,0.407c0.02333,0.04233 0.04146,0.08732 0.054,0.134l0.102,0.394c0.03142,0.1213 0.08535,0.23562 0.159,0.337l0.205,0.28l0.03,0.04c0.02302,0.0268 0.04313,0.05596 0.06,0.087c0.06141,0.18083 0.11809,0.36322 0.17,0.547c0.02227,0.06679 0.05839,0.12813 0.106,0.18c0.11867,0.132 0.234,0.264 0.346,0.396c0.03971,0.04905 0.07143,0.10406 0.094,0.163l0.075,0.187c0.03933,0.10067 0.07667,0.19433 0.112,0.281l0.046,0.114l0.294,0.622l0.007,0.013c0.021,0.038 0.029,0.08 0.038,0.123l0.007,0.034l0.033,0.143v0.003l0.051,0.226l0.045,0.192c0.028,0.08867 0.058,0.179 0.09,0.271l0.077,0.227c0.01663,0.05161 0.04018,0.10072 0.07,0.146c0.102,0.157 0.203,0.327 0.305,0.497c0.045,0.078 0.057,0.158 0.057,0.248v0.158l-0.002,0.032c-0.00467,0.04333 -0.008,0.08567 -0.01,0.127c-0.00828,0.1696 0.03159,0.33809 0.115,0.486l0.138,0.248l0.02,0.039l0.014,0.029c0.012,0.02533 0.02067,0.05133 0.026,0.078l0.01,0.035l0.045,0.152c0.01876,0.07022 0.03944,0.13991 0.062,0.209l0.024,0.077c0.02105,0.06921 0.04955,0.13594 0.085,0.199c0.02667,0.04733 0.05233,0.09467 0.077,0.142l0.13,0.237l0.068,0.113c0.01666,0.02694 0.03072,0.0554 0.042,0.085c0.013,0.033 0.016,0.068 0.02,0.102c0.03438,0.22733 0.06638,0.45501 0.096,0.683v0.203c0.009,0.105 0.011,0.217 0.011,0.325c-0.00002,0.06173 0.00567,0.12332 0.017,0.184l0.017,0.09c0.03299,0.13901 0.063,0.27871 0.09,0.419l0.147,0.62l0.226,0.712l0.124,0.622c0.01761,0.07369 0.03661,0.14703 0.057,0.22c0.02005,0.07297 0.03872,0.14632 0.056,0.22l0.053,0.222c0.00267,0.01 0.004,0.02 0.004,0.03v0.11c0.00004,0.01371 -0.00618,0.0267 -0.01689,0.03526c-0.01071,0.00857 -0.02474,0.01178 -0.03811,0.00874M6.852,16.258c0,0.006 0.007,0.01 0.012,0.007c0.00249,-0.00144 0.00555,-0.00143 0.00803,0.00002c0.00248,0.00145 0.00399,0.00411 0.00397,0.00698v0.047c0.03,0.127 0.05,0.254 0.07,0.38c0.00933,0.064 0.02,0.128 0.032,0.192c0.00811,0.07249 0.00026,0.14587 -0.023,0.215c-0.02467,0.08 -0.05,0.157 -0.076,0.231c-0.04446,0.12427 -0.06811,0.25503 -0.07,0.387v0.263c0.00234,0.06699 -0.01356,0.13335 -0.046,0.192l-0.074,0.153l-0.011,0.023c-0.04026,0.08267 -0.04636,0.17786 -0.017,0.265c0.018,0.06234 0.02576,0.12718 0.023,0.192c-0.045,0.418 -0.102,0.712 -0.181,0.881l-0.034,0.102l-0.045,0.113l-0.08,0.214c-0.06604,0.17873 -0.23748,0.29649 -0.428,0.294h-0.046c-0.205,-0.02491 -0.36972,-0.18071 -0.406,-0.384l-0.045,-0.26l-0.023,-0.113l-0.008,-0.041c-0.01586,-0.0679 -0.02457,-0.13728 -0.026,-0.207l-0.009,-0.153c-0.00267,-0.08 -0.008,-0.16 -0.016,-0.24c-0.00637,-0.04706 -0.00938,-0.09451 -0.009,-0.142v-0.008l0.023,-0.237v-0.262c0,-0.05133 0.00333,-0.102 0.01,-0.152l0.016,-0.124l0.003,-0.022c0.01599,-0.13 0.01058,-0.26174 -0.016,-0.39l-0.008,-0.033l-0.025,-0.114c-0.0169,-0.07414 -0.02529,-0.14996 -0.025,-0.226v-0.358c-0.00018,-0.06924 -0.00755,-0.13828 -0.022,-0.206l-0.024,-0.112l-0.056,-0.238l-0.023,-0.067l-0.025,-0.085c-0.03136,-0.10727 -0.0657,-0.21365 -0.103,-0.319l-0.016,-0.035c-0.01715,-0.03141 -0.02706,-0.06626 -0.029,-0.102l-0.03,-0.171c-0.01067,-0.05133 -0.02,-0.104 -0.028,-0.158c-0.00867,-0.05467 -0.018,-0.10733 -0.028,-0.158c-0.02256,-0.06989 -0.02256,-0.14511 0,-0.215l0.064,-0.217c0.03949,-0.13252 0.05107,-0.27178 0.034,-0.409l-0.03,-0.244c0,-0.098 -0.011,-0.206 -0.032,-0.315l-0.003,-0.025c0.00022,-0.02847 -0.00892,-0.05622 -0.026,-0.079l-0.065,-0.088c-0.07194,-0.10063 -0.14698,-0.19901 -0.225,-0.295c-0.05799,-0.0785 -0.08951,-0.17341 -0.09,-0.271v-0.197c-0.00019,-0.14584 -0.03227,-0.28987 -0.094,-0.422l-0.37,-0.793c-0.07424,-0.17504 -0.03816,-0.3774 0.092,-0.516c0.10724,-0.13407 0.1382,-0.31378 0.082,-0.476c-0.0108,-0.03126 -0.02315,-0.06196 -0.037,-0.092l-0.216,-0.43c-0.04066,-0.06369 -0.06025,-0.13856 -0.056,-0.214v-0.016c0.00019,-0.2311 -0.07967,-0.45513 -0.226,-0.634l-0.079,-0.096c-0.10093,-0.11882 -0.1348,-0.28068 -0.09,-0.43l0.05,-0.163c0.03249,-0.1032 0.01393,-0.21571 -0.05,-0.303c-0.04467,-0.06 -0.09,-0.119 -0.136,-0.177c-0.07874,-0.09839 -0.11151,-0.22583 -0.09,-0.35l0.022,-0.147l0.013,-0.054c0.01604,-0.0803 -0.00997,-0.16324 -0.069,-0.22l-0.215,-0.223c-0.04427,-0.05394 -0.07878,-0.11519 -0.102,-0.181l-0.158,-0.52c-0.011,-0.068 -0.011,-0.135 -0.011,-0.203l0.02,-0.163c0.01933,-0.12719 -0.01549,-0.25666 -0.096,-0.357l-0.139,-0.17c-0.06116,-0.06861 -0.09683,-0.15618 -0.101,-0.248c-0.012,-0.18 -0.023,-0.361 -0.045,-0.542l-0.023,-0.18l-0.017,-0.148v-0.004c-0.01088,-0.09429 -0.03512,-0.18655 -0.072,-0.274l-0.001,-0.004c-0.04939,-0.12584 -0.10241,-0.25023 -0.159,-0.373l-0.146,-0.418c-0.08061,-0.20822 0.00752,-0.44381 0.205,-0.548c0.04151,-0.02353 0.08689,-0.03945 0.134,-0.047c0.02733,-0.00267 0.05367,-0.00367 0.079,-0.003c0.192,0 0.361,0.112 0.429,0.293l0.147,0.396c0.056,0.113 0.113,0.226 0.17,0.35c0.02933,0.068 0.06933,0.129 0.12,0.183l0.049,0.048c0.042,0.04267 0.08333,0.086 0.124,0.13l0.147,0.17c0.095,0.124 0.183,0.248 0.29,0.4l0.045,0.064c0.01,0.01467 0.01933,0.02967 0.028,0.045c0.01,0.02 0.024,0.043 0.032,0.067l0.09,0.242c0.036,0.1 0.07,0.196 0.102,0.278l0.08,0.169l0.169,0.373c0.01934,0.04789 0.03115,0.09849 0.035,0.15l0.022,0.236c0.01392,0.14735 0.06037,0.28978 0.136,0.417l0.11,0.185c0.016,0.02667 0.03033,0.054 0.043,0.082l0.017,0.04c0.016,0.04 0.023,0.084 0.03,0.127l0.007,0.049l0.052,0.305c0,0.03067 0.01,0.05767 0.03,0.081c0.1,0.11667 0.19533,0.237 0.286,0.361c0.03778,0.04612 0.06477,0.1001 0.079,0.158l0.034,0.136c0.038,0.114 0.068,0.237 0.09,0.327l0.011,0.046l0.192,0.53c0.01405,0.05024 0.02243,0.1019 0.025,0.154l0.027,0.403c0.00333,0.05067 0.01033,0.10067 0.021,0.15c0.018,0.07733 0.03533,0.15833 0.052,0.243c0.01491,0.08213 0.04257,0.16142 0.082,0.235l0.035,0.064c0.05867,0.10533 0.11367,0.20867 0.165,0.31c0.045,0.102 0.068,0.215 0.045,0.317l-0.034,0.147c-0.02979,0.16086 -0.00955,0.327 0.058,0.476l0.048,0.097c0.02,0.04 0.03667,0.081 0.05,0.123l0.001,0.006c0.00832,0.029 0.01533,0.05836 0.021,0.088l0.053,0.276c0.02067,0.102 0.054,0.2 0.1,0.294l0.043,0.09v0.001c0.02467,0.05467 0.05067,0.10933 0.078,0.164l0.046,0.102c0.03079,0.05924 0.04626,0.12525 0.045,0.192v0.527c0.00004,0.04751 -0.0033,0.09496 -0.01,0.142l-0.013,0.088l-0.017,0.158l-0.006,0.054c-0.00723,0.06914 -0.00723,0.13886 0,0.208l0.034,0.36l0.068,0.485c0.01667,0.06267 0.03167,0.12667 0.045,0.192c0.01467,0.06533 0.03,0.12933 0.046,0.192l0.056,0.237c0.022,0.143 0.033,0.287 0.044,0.44M18.25,21.5c-2.06993,-0.00275 -3.74725,-1.68007 -3.75,-3.75c0.0022,-2.07015 1.67985,-3.7478 3.75,-3.75c2.07015,0.0022 3.7478,1.67985 3.75,3.75c-0.00275,2.06993 -1.68007,3.74725 -3.75,3.75M20.186,18.507c0.092,-0.236 0.147,-0.49 0.147,-0.757c0,-1.149 -0.935,-2.083 -2.083,-2.083c-0.267,0 -0.522,0.055 -0.757,0.147zM18.25,19.833c0.268,0 0.522,-0.055 0.758,-0.148l-2.694,-2.694c-0.093,0.236 -0.148,0.491 -0.148,0.759c0.0011,1.1505 0.9335,2.0829 2.084,2.084" fill="#62757e" fill-rule="nonzero"></path></g>
  </g>
 </g>
</svg>
